<?xml version="1.0" encoding="UTF-8" standalone="no"?>
<!DOCTYPE svg PUBLIC "-//W3C//DTD SVG 1.1//EN"
 "http://www.w3.org/Graphics/SVG/1.1/DTD/svg11.dtd">
<!-- Generated by graphviz version 3.0.0 (20220226.1711)
 -->
<!-- Pages: 1 -->
<svg width="3162pt" height="390pt"
 viewBox="0.00 0.00 3162.12 389.85" xmlns="http://www.w3.org/2000/svg" xmlns:xlink="http://www.w3.org/1999/xlink">
<g id="graph0" class="graph" transform="scale(1 1) rotate(0) translate(4 385.85)">
<polygon fill="white" stroke="transparent" points="-4,4 -4,-385.85 3158.12,-385.85 3158.12,4 -4,4"/>
<!-- 1 -->
<g id="node1" class="node">
<title>1</title>
<polygon fill="lightgray" stroke="black" points="1970.58,-318.46 1949.58,-318.46 1949.58,-300.46 1970.58,-300.46 1970.58,-318.46"/>
<text text-anchor="middle" x="1960.08" y="-307.26" font-family="Times,serif" font-size="9.00">1</text>
</g>
<!-- 38 -->
<g id="node13" class="node">
<title>38</title>
<ellipse fill="lightblue" stroke="black" cx="1147.08" cy="-91.15" rx="18.27" ry="18.27"/>
<text text-anchor="middle" x="1147.08" y="-88.95" font-family="Times,serif" font-size="9.00">38</text>
</g>
<!-- 1&#45;&gt;38 -->
<g id="edge1" class="edge">
<title>1&#45;&gt;38</title>
<path fill="none" stroke="green" stroke-width="0.8" d="M1949.33,-304.46C1910.71,-290.23 1775.11,-241.75 1659.08,-218.31 1513.17,-188.83 1468.85,-224.47 1326.08,-182.31 1266.91,-164.83 1203.82,-128.31 1170.64,-107.51"/>
<polygon fill="green" stroke="green" stroke-width="0.8" points="1172.42,-104.5 1162.1,-102.09 1168.67,-110.41 1172.42,-104.5"/>
</g>
<!-- 23 -->
<g id="node14" class="node">
<title>23</title>
<ellipse fill="lightblue" stroke="black" cx="1025.08" cy="-18.38" rx="18.27" ry="18.27"/>
<text text-anchor="middle" x="1025.08" y="-16.18" font-family="Times,serif" font-size="9.00">23</text>
</g>
<!-- 1&#45;&gt;23 -->
<g id="edge2" class="edge">
<title>1&#45;&gt;23</title>
<path fill="none" stroke="green" stroke-width="0.8" d="M1949.42,-305.13C1928.56,-298.23 1881.57,-280.88 1849.08,-255.08 1767.35,-190.18 1793.65,-120.97 1701.08,-72.77 1642.99,-42.52 1175.08,-24.52 1053.74,-20.33"/>
<polygon fill="green" stroke="green" stroke-width="0.8" points="1053.84,-16.83 1043.72,-19.99 1053.6,-23.83 1053.84,-16.83"/>
</g>
<!-- 39 -->
<g id="node15" class="node">
<title>39</title>
<ellipse fill="lightblue" stroke="black" cx="2067.08" cy="-18.38" rx="18.27" ry="18.27"/>
<text text-anchor="middle" x="2067.08" y="-16.18" font-family="Times,serif" font-size="9.00">39</text>
</g>
<!-- 1&#45;&gt;39 -->
<g id="edge3" class="edge">
<title>1&#45;&gt;39</title>
<path fill="none" stroke="green" stroke-width="0.8" d="M1970.65,-308.11C2029.73,-306 2319.16,-293.79 2398.08,-255.08 2438.93,-235.04 2452.78,-224.39 2470.08,-182.31 2532.51,-30.45 2197.73,-19.03 2095.82,-19.03"/>
<polygon fill="green" stroke="green" stroke-width="0.8" points="2095.62,-15.53 2085.64,-19.07 2095.65,-22.53 2095.62,-15.53"/>
</g>
<!-- 36 -->
<g id="node16" class="node">
<title>36</title>
<ellipse fill="lightblue" stroke="black" cx="1636.08" cy="-91.15" rx="18.27" ry="18.27"/>
<text text-anchor="middle" x="1636.08" y="-88.95" font-family="Times,serif" font-size="9.00">36</text>
</g>
<!-- 1&#45;&gt;36 -->
<g id="edge4" class="edge">
<title>1&#45;&gt;36</title>
<path fill="none" stroke="green" stroke-width="0.8" d="M1970.79,-308.6C2024.59,-309.04 2264.62,-308 2310.08,-255.08 2320.73,-242.68 2317.96,-232.62 2310.08,-218.31 2295.49,-191.82 2223.69,-155.33 2195.08,-145.54 2095.17,-111.35 1764.07,-96.8 1664.59,-93.13"/>
<polygon fill="green" stroke="green" stroke-width="0.8" points="1664.52,-89.62 1654.4,-92.76 1664.27,-96.62 1664.52,-89.62"/>
</g>
<!-- 16 -->
<g id="node20" class="node">
<title>16</title>
<ellipse fill="white" stroke="black" cx="1876.08" cy="-236.69" rx="18.27" ry="18.27"/>
<text text-anchor="middle" x="1876.08" y="-234.49" font-family="Times,serif" font-size="9.00">16</text>
</g>
<!-- 1&#45;&gt;16 -->
<g id="edge66" class="edge">
<title>1&#45;&gt;16</title>
<path fill="none" stroke="green" stroke-width="0.8" d="M1950.45,-300.34C1937.63,-289.55 1914.62,-270.16 1897.58,-255.8"/>
<polygon fill="green" stroke="green" stroke-width="0.8" points="1899.66,-252.99 1889.76,-249.22 1895.15,-258.34 1899.66,-252.99"/>
</g>
<!-- 17 -->
<g id="node21" class="node">
<title>17</title>
<ellipse fill="white" stroke="black" cx="1945.08" cy="-163.92" rx="18.27" ry="18.27"/>
<text text-anchor="middle" x="1945.08" y="-161.72" font-family="Times,serif" font-size="9.00">17</text>
</g>
<!-- 1&#45;&gt;17 -->
<g id="edge75" class="edge">
<title>1&#45;&gt;17</title>
<path fill="none" stroke="green" stroke-width="0.8" d="M1959.23,-300.33C1957.1,-279.89 1951.42,-225.6 1947.94,-192.3"/>
<polygon fill="green" stroke="green" stroke-width="0.8" points="1951.42,-191.88 1946.9,-182.3 1944.46,-192.61 1951.42,-191.88"/>
</g>
<!-- 34 -->
<g id="node37" class="node">
<title>34</title>
<ellipse fill="white" stroke="black" cx="1502.08" cy="-236.69" rx="18.27" ry="18.27"/>
<text text-anchor="middle" x="1502.08" y="-234.49" font-family="Times,serif" font-size="9.00">34</text>
</g>
<!-- 1&#45;&gt;34 -->
<g id="edge118" class="edge">
<title>1&#45;&gt;34</title>
<path fill="none" stroke="green" stroke-width="0.8" d="M1949.32,-306.92C1906.09,-300.69 1740.79,-276.73 1605.08,-255.08 1579.77,-251.04 1551,-246.16 1530.32,-242.6"/>
<polygon fill="green" stroke="green" stroke-width="0.8" points="1530.75,-239.12 1520.3,-240.87 1529.56,-246.02 1530.75,-239.12"/>
</g>
<!-- 35 -->
<g id="node38" class="node">
<title>35</title>
<ellipse fill="white" stroke="black" cx="911.08" cy="-91.15" rx="18.27" ry="18.27"/>
<text text-anchor="middle" x="911.08" y="-88.95" font-family="Times,serif" font-size="9.00">35</text>
</g>
<!-- 1&#45;&gt;35 -->
<g id="edge50" class="edge">
<title>1&#45;&gt;35</title>
<path fill="none" stroke="green" stroke-width="0.8" d="M1970.77,-307.06C1993.92,-303.38 2048.43,-291.1 2071.08,-255.08 2079.78,-241.24 2078.91,-232.65 2071.08,-218.31 2056.9,-192.34 2038.82,-199.96 2015.08,-182.31 1994.9,-167.3 1995.48,-154.75 1972.08,-145.54 1883.91,-110.85 1214.65,-115.47 1120.08,-109.54 1055.51,-105.49 979.87,-98.69 939.65,-94.9"/>
<polygon fill="green" stroke="green" stroke-width="0.8" points="939.8,-91.4 929.52,-93.94 939.14,-98.37 939.8,-91.4"/>
</g>
<!-- 40 -->
<g id="node40" class="node">
<title>40</title>
<ellipse fill="white" stroke="black" cx="2298.08" cy="-163.92" rx="18.27" ry="18.27"/>
<text text-anchor="middle" x="2298.08" y="-161.72" font-family="Times,serif" font-size="9.00">40</text>
</g>
<!-- 1&#45;&gt;40 -->
<g id="edge80" class="edge">
<title>1&#45;&gt;40</title>
<path fill="none" stroke="green" stroke-width="0.8" d="M1970.95,-307.93C2034.18,-304.7 2353.01,-286.93 2381.08,-255.08 2391.89,-242.82 2388.91,-232.65 2381.08,-218.31 2369.21,-196.57 2344.28,-182.36 2324.82,-174.1"/>
<polygon fill="green" stroke="green" stroke-width="0.8" points="2326.1,-170.85 2315.52,-170.42 2323.53,-177.36 2326.1,-170.85"/>
</g>
<!-- 2 -->
<g id="node2" class="node">
<title>2</title>
<polygon fill="lightgray" stroke="black" points="970.58,-318.46 949.58,-318.46 949.58,-300.46 970.58,-300.46 970.58,-318.46"/>
<text text-anchor="middle" x="960.08" y="-307.26" font-family="Times,serif" font-size="9.00">2</text>
</g>
<!-- 2&#45;&gt;38 -->
<g id="edge5" class="edge">
<title>2&#45;&gt;38</title>
<path fill="none" stroke="green" stroke-width="0.8" d="M949.46,-307.81C906.79,-304.96 748.72,-292.01 719.08,-255.08 708.85,-242.33 715.45,-234.24 719.08,-218.31 727.06,-183.32 725.06,-166.65 754.08,-145.54 783.59,-124.08 1033.59,-101.56 1118.78,-94.45"/>
<polygon fill="green" stroke="green" stroke-width="0.8" points="1119.1,-97.93 1128.78,-93.62 1118.52,-90.96 1119.1,-97.93"/>
</g>
<!-- 2&#45;&gt;23 -->
<g id="edge6" class="edge">
<title>2&#45;&gt;23</title>
<path fill="none" stroke="green" stroke-width="0.8" d="M949.37,-307.9C905.57,-305.34 741,-293.29 710.08,-255.08 699.8,-242.37 708.64,-234.59 710.08,-218.31 712.98,-185.58 705.15,-173.07 723.08,-145.54 754.67,-97.04 778.49,-96.94 831.08,-72.77 887.22,-46.97 958.39,-31.34 997.03,-24.14"/>
<polygon fill="green" stroke="green" stroke-width="0.8" points="997.8,-27.56 1007.02,-22.33 996.56,-20.67 997.8,-27.56"/>
</g>
<!-- 2&#45;&gt;39 -->
<g id="edge7" class="edge">
<title>2&#45;&gt;39</title>
<path fill="none" stroke="green" stroke-width="0.8" d="M962.26,-300.45C972.2,-265.71 1016.75,-127.44 1110.08,-72.77 1191.94,-24.82 1887.35,-19.94 2038.26,-19.44"/>
<polygon fill="green" stroke="green" stroke-width="0.8" points="2038.56,-22.94 2048.55,-19.41 2038.54,-15.94 2038.56,-22.94"/>
</g>
<!-- 2&#45;&gt;36 -->
<g id="edge8" class="edge">
<title>2&#45;&gt;36</title>
<path fill="none" stroke="green" stroke-width="0.8" d="M970.6,-305.9C1001.36,-298.39 1093.81,-275.65 1170.08,-255.08 1283.87,-224.39 1316.83,-228.92 1425.08,-182.31 1454.51,-169.64 1458.09,-159.18 1487.08,-145.54 1528.23,-126.18 1578.44,-109.54 1608.81,-100.2"/>
<polygon fill="green" stroke="green" stroke-width="0.8" points="1610.12,-103.46 1618.67,-97.2 1608.09,-96.76 1610.12,-103.46"/>
</g>
<!-- 28 -->
<g id="node31" class="node">
<title>28</title>
<ellipse fill="white" stroke="black" cx="838.08" cy="-236.69" rx="18.27" ry="18.27"/>
<text text-anchor="middle" x="838.08" y="-234.49" font-family="Times,serif" font-size="9.00">28</text>
</g>
<!-- 2&#45;&gt;28 -->
<g id="edge126" class="edge">
<title>2&#45;&gt;28</title>
<path fill="none" stroke="green" stroke-width="0.8" d="M949.25,-302.18C929.85,-290.93 888.71,-267.06 862.28,-251.73"/>
<polygon fill="green" stroke="green" stroke-width="0.8" points="864.01,-248.69 853.61,-246.7 860.5,-254.74 864.01,-248.69"/>
</g>
<!-- 30 -->
<g id="node33" class="node">
<title>30</title>
<ellipse fill="white" stroke="black" cx="2044.08" cy="-236.69" rx="18.27" ry="18.27"/>
<text text-anchor="middle" x="2044.08" y="-234.49" font-family="Times,serif" font-size="9.00">30</text>
</g>
<!-- 2&#45;&gt;30 -->
<g id="edge111" class="edge">
<title>2&#45;&gt;30</title>
<path fill="none" stroke="green" stroke-width="0.8" d="M970.62,-307.86C1009.64,-305.63 1149.65,-297.62 1265.08,-291.08 1548.63,-275 1620.21,-280.47 1903.08,-255.08 1942.29,-251.56 1987.42,-245.67 2015.84,-241.73"/>
<polygon fill="green" stroke="green" stroke-width="0.8" points="2016.45,-245.18 2025.87,-240.33 2015.48,-238.25 2016.45,-245.18"/>
</g>
<!-- 2&#45;&gt;34 -->
<g id="edge134" class="edge">
<title>2&#45;&gt;34</title>
<path fill="none" stroke="green" stroke-width="0.8" d="M970.91,-307.05C1035.76,-298.58 1373.32,-254.51 1473.82,-241.38"/>
<polygon fill="green" stroke="green" stroke-width="0.8" points="1474.38,-244.84 1483.84,-240.08 1473.47,-237.9 1474.38,-244.84"/>
</g>
<!-- 2&#45;&gt;35 -->
<g id="edge120" class="edge">
<title>2&#45;&gt;35</title>
<path fill="none" stroke="green" stroke-width="0.8" d="M958.22,-300.25C951.51,-270.63 928.37,-168.47 917.2,-119.18"/>
<polygon fill="green" stroke="green" stroke-width="0.8" points="920.57,-118.21 914.95,-109.23 913.75,-119.76 920.57,-118.21"/>
</g>
<!-- 37 -->
<g id="node39" class="node">
<title>37</title>
<ellipse fill="white" stroke="black" cx="865.08" cy="-163.92" rx="18.27" ry="18.27"/>
<text text-anchor="middle" x="865.08" y="-161.72" font-family="Times,serif" font-size="9.00">37</text>
</g>
<!-- 2&#45;&gt;37 -->
<g id="edge65" class="edge">
<title>2&#45;&gt;37</title>
<path fill="none" stroke="green" stroke-width="0.8" d="M949.39,-308.46C921.04,-307.79 843.82,-301.59 811.08,-255.08 801.67,-241.72 804.78,-233.39 811.08,-218.31 817.38,-203.23 830.23,-190.24 841.82,-180.85"/>
<polygon fill="green" stroke="green" stroke-width="0.8" points="844.09,-183.52 849.92,-174.67 839.85,-177.96 844.09,-183.52"/>
</g>
<!-- 3 -->
<g id="node3" class="node">
<title>3</title>
<polygon fill="lightgray" stroke="black" points="2849.58,-318.46 2828.58,-318.46 2828.58,-300.46 2849.58,-300.46 2849.58,-318.46"/>
<text text-anchor="middle" x="2839.08" y="-307.26" font-family="Times,serif" font-size="9.00">3</text>
</g>
<!-- 3&#45;&gt;38 -->
<g id="edge9" class="edge">
<title>3&#45;&gt;38</title>
<path fill="none" stroke="green" stroke-width="0.8" d="M2836.25,-300.33C2829.65,-282.63 2811.56,-240.42 2782.08,-218.31 2688.48,-148.1 2644.6,-164.1 2529.08,-145.54 2520.41,-144.15 1372.18,-100.67 1175.57,-93.23"/>
<polygon fill="green" stroke="green" stroke-width="0.8" points="1175.57,-89.73 1165.45,-92.85 1175.31,-96.72 1175.57,-89.73"/>
</g>
<!-- 3&#45;&gt;23 -->
<g id="edge10" class="edge">
<title>3&#45;&gt;23</title>
<path fill="none" stroke="green" stroke-width="0.8" d="M2846.3,-300.29C2859.85,-283.9 2886.36,-246.18 2870.08,-218.31 2798.63,-95.96 2434.97,-76.44 2406.08,-72.77 2130.82,-37.83 1225.68,-22.45 1053.5,-19.8"/>
<polygon fill="green" stroke="green" stroke-width="0.8" points="1053.5,-16.3 1043.45,-19.65 1053.4,-23.3 1053.5,-16.3"/>
</g>
<!-- 3&#45;&gt;39 -->
<g id="edge11" class="edge">
<title>3&#45;&gt;39</title>
<path fill="none" stroke="green" stroke-width="0.8" d="M2849.62,-307.37C2887.91,-303.17 3018.7,-286.67 3043.08,-255.08 3061.13,-231.7 3031.54,-153.53 3024.08,-145.54 2954.98,-71.46 2907.4,-92.74 2808.08,-72.77 2535.07,-17.87 2195.5,-17.6 2095.83,-18.86"/>
<polygon fill="green" stroke="green" stroke-width="0.8" points="2095.59,-15.37 2085.64,-19.01 2095.69,-22.37 2095.59,-15.37"/>
</g>
<!-- 3&#45;&gt;36 -->
<g id="edge12" class="edge">
<title>3&#45;&gt;36</title>
<path fill="none" stroke="green" stroke-width="0.8" d="M2843.71,-300.28C2852.52,-283.54 2869.38,-244.73 2853.08,-218.31 2815.22,-156.94 2777.81,-163.9 2708.08,-145.54 2502.83,-91.5 1814.03,-91.36 1664.77,-91.99"/>
<polygon fill="green" stroke="green" stroke-width="0.8" points="1664.58,-88.49 1654.59,-92.04 1664.61,-95.49 1664.58,-88.49"/>
</g>
<!-- 22 -->
<g id="node26" class="node">
<title>22</title>
<ellipse fill="white" stroke="black" cx="2717.08" cy="-236.69" rx="18.27" ry="18.27"/>
<text text-anchor="middle" x="2717.08" y="-234.49" font-family="Times,serif" font-size="9.00">22</text>
</g>
<!-- 3&#45;&gt;22 -->
<g id="edge78" class="edge">
<title>3&#45;&gt;22</title>
<path fill="none" stroke="green" stroke-width="0.8" d="M2828.25,-302.18C2808.85,-290.93 2767.71,-267.06 2741.28,-251.73"/>
<polygon fill="green" stroke="green" stroke-width="0.8" points="2743.01,-248.69 2732.61,-246.7 2739.5,-254.74 2743.01,-248.69"/>
</g>
<!-- 29 -->
<g id="node32" class="node">
<title>29</title>
<ellipse fill="white" stroke="black" cx="810.08" cy="-163.92" rx="18.27" ry="18.27"/>
<text text-anchor="middle" x="810.08" y="-161.72" font-family="Times,serif" font-size="9.00">29</text>
</g>
<!-- 3&#45;&gt;29 -->
<g id="edge62" class="edge">
<title>3&#45;&gt;29</title>
<path fill="none" stroke="green" stroke-width="0.8" d="M2828.1,-307.67C2792.12,-305.08 2674.47,-296.72 2577.08,-291.08 2253.67,-272.35 2170.69,-293.95 1849.08,-255.08 1763.69,-244.76 1744.5,-228.39 1659.08,-218.31 1477.72,-196.9 1012.56,-236.23 838.08,-182.31 836.61,-181.85 835.14,-181.3 833.69,-180.68"/>
<polygon fill="green" stroke="green" stroke-width="0.8" points="834.98,-177.41 824.51,-175.82 831.7,-183.59 834.98,-177.41"/>
</g>
<!-- 31 -->
<g id="node34" class="node">
<title>31</title>
<ellipse fill="white" stroke="black" cx="3105.08" cy="-91.15" rx="18.27" ry="18.27"/>
<text text-anchor="middle" x="3105.08" y="-88.95" font-family="Times,serif" font-size="9.00">31</text>
</g>
<!-- 3&#45;&gt;31 -->
<g id="edge132" class="edge">
<title>3&#45;&gt;31</title>
<path fill="none" stroke="green" stroke-width="0.8" d="M2849.6,-307.69C2891.87,-304.38 3048.68,-289.86 3081.08,-255.08 3115.26,-218.39 3113.87,-155.52 3109.61,-119.55"/>
<polygon fill="green" stroke="green" stroke-width="0.8" points="3113.03,-118.75 3108.23,-109.31 3106.1,-119.68 3113.03,-118.75"/>
</g>
<!-- 32 -->
<g id="node35" class="node">
<title>32</title>
<ellipse fill="white" stroke="black" cx="2443.08" cy="-163.92" rx="18.27" ry="18.27"/>
<text text-anchor="middle" x="2443.08" y="-161.72" font-family="Times,serif" font-size="9.00">32</text>
</g>
<!-- 3&#45;&gt;32 -->
<g id="edge77" class="edge">
<title>3&#45;&gt;32</title>
<path fill="none" stroke="green" stroke-width="0.8" d="M2833.26,-300.35C2819.83,-282.3 2784.68,-238.8 2744.08,-218.31 2652.36,-172.02 2527.23,-165.21 2471.67,-164.64"/>
<polygon fill="green" stroke="green" stroke-width="0.8" points="2471.53,-161.14 2461.52,-164.6 2471.5,-168.14 2471.53,-161.14"/>
</g>
<!-- 3&#45;&gt;40 -->
<g id="edge81" class="edge">
<title>3&#45;&gt;40</title>
<path fill="none" stroke="green" stroke-width="0.8" d="M2828.27,-305.6C2763.4,-288.38 2425.1,-198.63 2325.62,-172.23"/>
<polygon fill="green" stroke="green" stroke-width="0.8" points="2326.29,-168.79 2315.72,-169.6 2324.49,-175.55 2326.29,-168.79"/>
</g>
<!-- 4 -->
<g id="node4" class="node">
<title>4</title>
<polygon fill="lightgray" stroke="black" points="1371.58,-318.46 1350.58,-318.46 1350.58,-300.46 1371.58,-300.46 1371.58,-318.46"/>
<text text-anchor="middle" x="1361.08" y="-307.26" font-family="Times,serif" font-size="9.00">4</text>
</g>
<!-- 4&#45;&gt;38 -->
<g id="edge13" class="edge">
<title>4&#45;&gt;38</title>
<path fill="none" stroke="green" stroke-width="0.8" d="M1350.44,-301.49C1336.08,-291.85 1309.98,-273.54 1290.08,-255.08 1242.63,-211.05 1236.8,-194.17 1194.08,-145.54 1184.79,-134.96 1174.44,-123.21 1165.83,-113.43"/>
<polygon fill="green" stroke="green" stroke-width="0.8" points="1168.3,-110.94 1159.07,-105.75 1163.05,-115.57 1168.3,-110.94"/>
</g>
<!-- 4&#45;&gt;23 -->
<g id="edge14" class="edge">
<title>4&#45;&gt;23</title>
<path fill="none" stroke="green" stroke-width="0.8" d="M1356.81,-300.22C1339.1,-266.81 1267.89,-140.04 1174.08,-72.77 1136.76,-46.01 1084.68,-31.44 1053,-24.55"/>
<polygon fill="green" stroke="green" stroke-width="0.8" points="1053.6,-21.09 1043.09,-22.5 1052.18,-27.95 1053.6,-21.09"/>
</g>
<!-- 4&#45;&gt;39 -->
<g id="edge15" class="edge">
<title>4&#45;&gt;39</title>
<path fill="none" stroke="green" stroke-width="0.8" d="M1366.72,-300.05C1390.86,-264.87 1489.67,-128.7 1609.08,-72.77 1686.16,-36.67 1951.16,-23.71 2038.74,-20.35"/>
<polygon fill="green" stroke="green" stroke-width="0.8" points="2038.88,-23.85 2048.74,-19.98 2038.62,-16.86 2038.88,-23.85"/>
</g>
<!-- 4&#45;&gt;36 -->
<g id="edge16" class="edge">
<title>4&#45;&gt;36</title>
<path fill="none" stroke="green" stroke-width="0.8" d="M1368.6,-300.4C1372.1,-297.07 1376.5,-293.44 1381.08,-291.08 1441.22,-259.99 1472.18,-291.75 1529.08,-255.08 1546.35,-243.95 1574.73,-199.43 1586.08,-182.31 1600.23,-160.97 1614.18,-135.32 1623.73,-116.85"/>
<polygon fill="green" stroke="green" stroke-width="0.8" points="1626.87,-118.4 1628.31,-107.91 1620.64,-115.22 1626.87,-118.4"/>
</g>
<!-- 4&#45;&gt;17 -->
<g id="edge83" class="edge">
<title>4&#45;&gt;17</title>
<path fill="none" stroke="green" stroke-width="0.8" d="M1368.06,-300.38C1371.58,-296.88 1376.15,-293.12 1381.08,-291.08 1488.53,-246.63 1807.24,-320.91 1903.08,-255.08 1924.02,-240.69 1934.77,-213.06 1940.12,-192.16"/>
<polygon fill="green" stroke="green" stroke-width="0.8" points="1943.57,-192.77 1942.39,-182.24 1936.75,-191.21 1943.57,-192.77"/>
</g>
<!-- 20 -->
<g id="node24" class="node">
<title>20</title>
<ellipse fill="white" stroke="black" cx="1632.08" cy="-236.69" rx="18.27" ry="18.27"/>
<text text-anchor="middle" x="1632.08" y="-234.49" font-family="Times,serif" font-size="9.00">20</text>
</g>
<!-- 4&#45;&gt;20 -->
<g id="edge89" class="edge">
<title>4&#45;&gt;20</title>
<path fill="none" stroke="green" stroke-width="0.8" d="M1368.52,-300.23C1372.01,-296.87 1376.42,-293.27 1381.08,-291.08 1470.36,-249.13 1506.77,-287.07 1600.08,-255.08 1602.68,-254.19 1605.32,-253.1 1607.92,-251.9"/>
<polygon fill="green" stroke="green" stroke-width="0.8" points="1609.64,-254.95 1616.93,-247.27 1606.44,-248.72 1609.64,-254.95"/>
</g>
<!-- 21 -->
<g id="node25" class="node">
<title>21</title>
<ellipse fill="white" stroke="black" cx="540.08" cy="-236.69" rx="18.27" ry="18.27"/>
<text text-anchor="middle" x="540.08" y="-234.49" font-family="Times,serif" font-size="9.00">21</text>
</g>
<!-- 4&#45;&gt;21 -->
<g id="edge72" class="edge">
<title>4&#45;&gt;21</title>
<path fill="none" stroke="green" stroke-width="0.8" d="M1350.34,-304.36C1339.02,-300.23 1320.57,-294.06 1304.08,-291.08 1047.74,-244.76 978.76,-275.67 719.08,-255.08 665.77,-250.85 603.67,-244.5 568.4,-240.76"/>
<polygon fill="green" stroke="green" stroke-width="0.8" points="568.67,-237.27 558.36,-239.68 567.93,-244.23 568.67,-237.27"/>
</g>
<!-- 24 -->
<g id="node27" class="node">
<title>24</title>
<ellipse fill="white" stroke="black" cx="1701.08" cy="-163.92" rx="18.27" ry="18.27"/>
<text text-anchor="middle" x="1701.08" y="-161.72" font-family="Times,serif" font-size="9.00">24</text>
</g>
<!-- 4&#45;&gt;24 -->
<g id="edge112" class="edge">
<title>4&#45;&gt;24</title>
<path fill="none" stroke="green" stroke-width="0.8" d="M1368.56,-300.3C1372.05,-296.96 1376.46,-293.35 1381.08,-291.08 1454.72,-254.96 1488.29,-290.89 1562.08,-255.08 1584.7,-244.1 1584.43,-232.66 1605.08,-218.31 1627.96,-202.41 1655.99,-187.27 1675.84,-177.2"/>
<polygon fill="green" stroke="green" stroke-width="0.8" points="1677.49,-180.29 1684.87,-172.68 1674.36,-174.03 1677.49,-180.29"/>
</g>
<!-- 4&#45;&gt;29 -->
<g id="edge71" class="edge">
<title>4&#45;&gt;29</title>
<path fill="none" stroke="green" stroke-width="0.8" d="M1350.31,-304.5C1338.97,-300.49 1320.51,-294.42 1304.08,-291.08 1155.18,-260.78 1108.58,-302.1 964.08,-255.08 913.36,-238.57 861.2,-203.48 832.48,-182.28"/>
<polygon fill="green" stroke="green" stroke-width="0.8" points="834.45,-179.38 824.35,-176.18 830.25,-184.98 834.45,-179.38"/>
</g>
<!-- 4&#45;&gt;32 -->
<g id="edge97" class="edge">
<title>4&#45;&gt;32</title>
<path fill="none" stroke="green" stroke-width="0.8" d="M1368.03,-300.32C1371.55,-296.8 1376.12,-293.04 1381.08,-291.08 1573.16,-214.99 2113.79,-319.52 2310.08,-255.08 2354.61,-240.46 2397.98,-206.2 2422.53,-184.37"/>
<polygon fill="green" stroke="green" stroke-width="0.8" points="2425.05,-186.81 2430.11,-177.5 2420.35,-181.62 2425.05,-186.81"/>
</g>
<!-- 4&#45;&gt;37 -->
<g id="edge55" class="edge">
<title>4&#45;&gt;37</title>
<path fill="none" stroke="green" stroke-width="0.8" d="M1350.28,-304.64C1338.92,-300.74 1320.43,-294.76 1304.08,-291.08 1197.14,-267.02 1165.13,-286.4 1060.08,-255.08 995.77,-235.9 925.54,-199.15 889.47,-179"/>
<polygon fill="green" stroke="green" stroke-width="0.8" points="891.08,-175.89 880.65,-174.02 887.64,-181.98 891.08,-175.89"/>
</g>
<!-- 5 -->
<g id="node5" class="node">
<title>5</title>
<polygon fill="lightgray" stroke="black" points="238.58,-318.46 217.58,-318.46 217.58,-300.46 238.58,-300.46 238.58,-318.46"/>
<text text-anchor="middle" x="228.08" y="-307.26" font-family="Times,serif" font-size="9.00">5</text>
</g>
<!-- 5&#45;&gt;38 -->
<g id="edge17" class="edge">
<title>5&#45;&gt;38</title>
<path fill="none" stroke="green" stroke-width="0.8" d="M231.5,-300.41C244.49,-270.2 291.65,-164.32 322.08,-145.54 380.43,-109.53 869.69,-114.38 938.08,-109.54 1002.62,-104.97 1078.27,-98.37 1118.5,-94.76"/>
<polygon fill="green" stroke="green" stroke-width="0.8" points="1119,-98.23 1128.64,-93.84 1118.37,-91.25 1119,-98.23"/>
</g>
<!-- 5&#45;&gt;23 -->
<g id="edge18" class="edge">
<title>5&#45;&gt;23</title>
<path fill="none" stroke="green" stroke-width="0.8" d="M217.56,-308.89C187.24,-309.46 99.53,-306.45 62.08,-255.08 14.36,-189.6 6.4,-131.63 62.08,-72.77 95.02,-37.95 839.63,-22.71 996.31,-19.88"/>
<polygon fill="green" stroke="green" stroke-width="0.8" points="996.62,-23.37 1006.56,-19.7 996.5,-16.38 996.62,-23.37"/>
</g>
<!-- 5&#45;&gt;39 -->
<g id="edge19" class="edge">
<title>5&#45;&gt;39</title>
<path fill="none" stroke="green" stroke-width="0.8" d="M217.5,-304.7C200.01,-297.87 165.5,-281.61 150.08,-255.08 125.58,-212.92 113.02,-183.12 144.08,-145.54 253.64,-13 353.2,-91.97 524.08,-72.77 833.73,-37.98 1853.65,-22.35 2038.29,-19.77"/>
<polygon fill="green" stroke="green" stroke-width="0.8" points="2038.6,-23.27 2048.55,-19.63 2038.5,-16.27 2038.6,-23.27"/>
</g>
<!-- 5&#45;&gt;36 -->
<g id="edge20" class="edge">
<title>5&#45;&gt;36</title>
<path fill="none" stroke="green" stroke-width="0.8" d="M238.85,-300.88C263.38,-283.93 325.72,-242.52 383.08,-218.31 494.03,-171.48 525.25,-165.06 644.08,-145.54 741.21,-129.58 1453.96,-99.63 1607.14,-93.33"/>
<polygon fill="green" stroke="green" stroke-width="0.8" points="1607.72,-96.81 1617.57,-92.91 1607.43,-89.82 1607.72,-96.81"/>
</g>
<!-- 5&#45;&gt;21 -->
<g id="edge70" class="edge">
<title>5&#45;&gt;21</title>
<path fill="none" stroke="green" stroke-width="0.8" d="M238.72,-306.22C272.58,-299.06 380.86,-275.99 470.08,-255.08 483.99,-251.82 499.4,-248.01 512.21,-244.79"/>
<polygon fill="green" stroke="green" stroke-width="0.8" points="513.44,-248.09 522.27,-242.25 511.72,-241.31 513.44,-248.09"/>
</g>
<!-- 25 -->
<g id="node28" class="node">
<title>25</title>
<ellipse fill="white" stroke="black" cx="171.08" cy="-163.92" rx="18.27" ry="18.27"/>
<text text-anchor="middle" x="171.08" y="-161.72" font-family="Times,serif" font-size="9.00">25</text>
</g>
<!-- 5&#45;&gt;25 -->
<g id="edge114" class="edge">
<title>5&#45;&gt;25</title>
<path fill="none" stroke="green" stroke-width="0.8" d="M217.41,-301.25C204.95,-292.15 184.93,-275.22 176.08,-255.08 167.44,-235.4 166.62,-210.94 167.72,-192.47"/>
<polygon fill="green" stroke="green" stroke-width="0.8" points="171.22,-192.62 168.55,-182.37 164.25,-192.05 171.22,-192.62"/>
</g>
<!-- 5&#45;&gt;29 -->
<g id="edge58" class="edge">
<title>5&#45;&gt;29</title>
<path fill="none" stroke="green" stroke-width="0.8" d="M238.81,-304.52C276.18,-290.89 404.26,-245.18 513.08,-218.31 610.63,-194.22 728.71,-176.26 781.81,-168.77"/>
<polygon fill="green" stroke="green" stroke-width="0.8" points="782.41,-172.22 791.83,-167.37 781.44,-165.29 782.41,-172.22"/>
</g>
<!-- 5&#45;&gt;35 -->
<g id="edge88" class="edge">
<title>5&#45;&gt;35</title>
<path fill="none" stroke="green" stroke-width="0.8" d="M227.91,-300.14C227.83,-272.44 231.77,-182.94 284.08,-145.54 333.26,-110.38 766.19,-96.11 882.45,-92.89"/>
<polygon fill="green" stroke="green" stroke-width="0.8" points="882.79,-96.38 892.69,-92.61 882.6,-89.39 882.79,-96.38"/>
</g>
<!-- 6 -->
<g id="node6" class="node">
<title>6</title>
<polygon fill="lightgray" stroke="black" points="756.58,-381.85 735.58,-381.85 735.58,-363.85 756.58,-363.85 756.58,-381.85"/>
<text text-anchor="middle" x="746.08" y="-370.65" font-family="Times,serif" font-size="9.00">6</text>
</g>
<!-- 6&#45;&gt;38 -->
<g id="edge21" class="edge">
<title>6&#45;&gt;38</title>
<path fill="none" stroke="green" stroke-width="0.8" d="M735.27,-371.32C678.76,-368.48 419.17,-354.03 396.08,-327.85 385.27,-315.59 391.46,-306.75 396.08,-291.08 423.83,-196.97 468.94,-176.4 562.08,-145.54 575.48,-141.1 1003.1,-104.42 1118.58,-94.58"/>
<polygon fill="green" stroke="green" stroke-width="0.8" points="1119.09,-98.05 1128.76,-93.71 1118.5,-91.07 1119.09,-98.05"/>
</g>
<!-- 6&#45;&gt;23 -->
<g id="edge22" class="edge">
<title>6&#45;&gt;23</title>
<path fill="none" stroke="green" stroke-width="0.8" d="M735.57,-371.44C669.73,-368.85 313.65,-353.79 208.08,-327.85 110.24,-303.81 0.08,-338.45 0.08,-237.69 0.08,-237.69 0.08,-237.69 0.08,-162.92 0.08,-120.26 -1.22,-98.14 33.08,-72.77 112.38,-14.12 842.08,-17.66 996.47,-19.08"/>
<polygon fill="green" stroke="green" stroke-width="0.8" points="996.54,-22.58 1006.57,-19.17 996.61,-15.58 996.54,-22.58"/>
</g>
<!-- 6&#45;&gt;39 -->
<g id="edge23" class="edge">
<title>6&#45;&gt;39</title>
<path fill="none" stroke="green" stroke-width="0.8" d="M756.81,-371.82C910.26,-371.45 2661.09,-366.3 2885.08,-327.85 3008.11,-306.73 3151.08,-362.52 3151.08,-237.69 3151.08,-237.69 3151.08,-237.69 3151.08,-162.92 3151.08,-121.98 3163.23,-99.36 3132.08,-72.77 3091.56,-38.18 2262.69,-22.63 2096.1,-19.85"/>
<polygon fill="green" stroke="green" stroke-width="0.8" points="2095.73,-16.34 2085.68,-19.68 2095.62,-23.34 2095.73,-16.34"/>
</g>
<!-- 6&#45;&gt;36 -->
<g id="edge24" class="edge">
<title>6&#45;&gt;36</title>
<path fill="none" stroke="green" stroke-width="0.8" d="M756.72,-371.82C916.27,-371.35 2816.83,-364.97 2859.08,-327.85 2895.84,-295.56 2891.4,-262.35 2870.08,-218.31 2847.37,-171.38 2826.91,-163.8 2778.08,-145.54 2671.04,-105.5 1832.19,-94.29 1665.01,-92.45"/>
<polygon fill="green" stroke="green" stroke-width="0.8" points="1664.81,-88.95 1654.77,-92.34 1664.73,-95.95 1664.81,-88.95"/>
</g>
<!-- 13 -->
<g id="node17" class="node">
<title>13</title>
<ellipse fill="white" stroke="black" cx="746.08" cy="-236.69" rx="18.27" ry="18.27"/>
<text text-anchor="middle" x="746.08" y="-234.49" font-family="Times,serif" font-size="9.00">13</text>
</g>
<!-- 6&#45;&gt;13 -->
<g id="edge56" class="edge">
<title>6&#45;&gt;13</title>
<path fill="none" stroke="green" stroke-width="0.8" d="M746.08,-363.46C746.08,-344.26 746.08,-296.46 746.08,-265.62"/>
<polygon fill="green" stroke="green" stroke-width="0.8" points="749.58,-265.5 746.08,-255.5 742.58,-265.5 749.58,-265.5"/>
</g>
<!-- 14 -->
<g id="node18" class="node">
<title>14</title>
<ellipse fill="white" stroke="black" cx="1408.08" cy="-309.46" rx="18.27" ry="18.27"/>
<text text-anchor="middle" x="1408.08" y="-307.26" font-family="Times,serif" font-size="9.00">14</text>
</g>
<!-- 6&#45;&gt;14 -->
<g id="edge93" class="edge">
<title>6&#45;&gt;14</title>
<path fill="none" stroke="green" stroke-width="0.8" d="M756.6,-371.81C829.25,-371.43 1257.24,-367.53 1380.08,-327.85 1381.54,-327.38 1383.01,-326.81 1384.46,-326.18"/>
<polygon fill="green" stroke="green" stroke-width="0.8" points="1386.46,-329.08 1393.63,-321.28 1383.16,-322.9 1386.46,-329.08"/>
</g>
<!-- 6&#45;&gt;20 -->
<g id="edge131" class="edge">
<title>6&#45;&gt;20</title>
<path fill="none" stroke="green" stroke-width="0.8" d="M756.96,-371.68C834.03,-370.42 1298.63,-361.5 1435.08,-327.85 1500.79,-311.64 1571.44,-273.68 1607.64,-252.55"/>
<polygon fill="green" stroke="green" stroke-width="0.8" points="1609.66,-255.42 1616.48,-247.32 1606.1,-249.4 1609.66,-255.42"/>
</g>
<!-- 6&#45;&gt;29 -->
<g id="edge48" class="edge">
<title>6&#45;&gt;29</title>
<path fill="none" stroke="green" stroke-width="0.8" d="M735.18,-367.58C720.86,-361.32 696.36,-348.13 686.08,-327.85 664.08,-284.42 659.31,-258.97 686.08,-218.31 707.2,-186.23 752.09,-173.34 781.67,-168.22"/>
<polygon fill="green" stroke="green" stroke-width="0.8" points="782.45,-171.65 791.8,-166.67 781.38,-164.73 782.45,-171.65"/>
</g>
<!-- 6&#45;&gt;37 -->
<g id="edge53" class="edge">
<title>6&#45;&gt;37</title>
<path fill="none" stroke="green" stroke-width="0.8" d="M740.72,-363.54C725.48,-338.75 685.1,-264.2 719.08,-218.31 751.71,-174.24 787.15,-204.96 837.08,-182.31 838.48,-181.67 839.9,-180.98 841.31,-180.25"/>
<polygon fill="green" stroke="green" stroke-width="0.8" points="843.43,-183.06 850.37,-175.05 839.95,-176.99 843.43,-183.06"/>
</g>
<!-- 7 -->
<g id="node7" class="node">
<title>7</title>
<polygon fill="lightgray" stroke="black" points="1161.58,-245.69 1140.58,-245.69 1140.58,-227.69 1161.58,-227.69 1161.58,-245.69"/>
<text text-anchor="middle" x="1151.08" y="-234.49" font-family="Times,serif" font-size="9.00">7</text>
</g>
<!-- 7&#45;&gt;38 -->
<g id="edge25" class="edge">
<title>7&#45;&gt;38</title>
<path fill="none" stroke="green" stroke-width="0.8" d="M1144.54,-227.62C1136.93,-217.67 1124.82,-199.9 1120.08,-182.31 1115.83,-166.53 1116.29,-161.44 1120.08,-145.54 1122.55,-135.19 1127.36,-124.58 1132.25,-115.57"/>
<polygon fill="green" stroke="green" stroke-width="0.8" points="1135.32,-117.25 1137.28,-106.84 1129.26,-113.76 1135.32,-117.25"/>
</g>
<!-- 7&#45;&gt;23 -->
<g id="edge26" class="edge">
<title>7&#45;&gt;23</title>
<path fill="none" stroke="green" stroke-width="0.8" d="M1140.15,-227.49C1135.87,-224.44 1130.85,-221.05 1126.08,-218.31 1093.34,-199.46 1071.64,-212.61 1049.08,-182.31 1019.46,-142.51 1018.97,-81.79 1021.73,-46.81"/>
<polygon fill="green" stroke="green" stroke-width="0.8" points="1025.21,-47.12 1022.66,-36.84 1018.24,-46.47 1025.21,-47.12"/>
</g>
<!-- 7&#45;&gt;39 -->
<g id="edge27" class="edge">
<title>7&#45;&gt;39</title>
<path fill="none" stroke="green" stroke-width="0.8" d="M1142.76,-227.56C1133.45,-217.82 1118.9,-200.51 1113.08,-182.31 1105.8,-159.51 1116.49,-76.22 1120.08,-72.77 1154.03,-40.14 1883.49,-23.2 2038.35,-19.96"/>
<polygon fill="green" stroke="green" stroke-width="0.8" points="2038.56,-23.46 2048.49,-19.75 2038.42,-16.46 2038.56,-23.46"/>
</g>
<!-- 7&#45;&gt;36 -->
<g id="edge28" class="edge">
<title>7&#45;&gt;36</title>
<path fill="none" stroke="green" stroke-width="0.8" d="M1161.77,-233.82C1193.87,-228.05 1292.03,-209.27 1370.08,-182.31 1407.45,-169.4 1413.99,-159.23 1451.08,-145.54 1505.74,-125.37 1571.73,-107.92 1608.28,-98.83"/>
<polygon fill="green" stroke="green" stroke-width="0.8" points="1609.33,-102.18 1618.21,-96.39 1607.66,-95.38 1609.33,-102.18"/>
</g>
<!-- 19 -->
<g id="node23" class="node">
<title>19</title>
<ellipse fill="white" stroke="black" cx="1147.08" cy="-163.92" rx="18.27" ry="18.27"/>
<text text-anchor="middle" x="1147.08" y="-161.72" font-family="Times,serif" font-size="9.00">19</text>
</g>
<!-- 7&#45;&gt;19 -->
<g id="edge137" class="edge">
<title>7&#45;&gt;19</title>
<path fill="none" stroke="green" stroke-width="0.8" d="M1150.62,-227.58C1150.14,-219.01 1149.35,-205.03 1148.64,-192.45"/>
<polygon fill="green" stroke="green" stroke-width="0.8" points="1152.13,-192.15 1148.07,-182.36 1145.14,-192.55 1152.13,-192.15"/>
</g>
<!-- 8 -->
<g id="node8" class="node">
<title>8</title>
<polygon fill="lightgray" stroke="black" points="2567.58,-318.46 2546.58,-318.46 2546.58,-300.46 2567.58,-300.46 2567.58,-318.46"/>
<text text-anchor="middle" x="2557.08" y="-307.26" font-family="Times,serif" font-size="9.00">8</text>
</g>
<!-- 8&#45;&gt;38 -->
<g id="edge29" class="edge">
<title>8&#45;&gt;38</title>
<path fill="none" stroke="green" stroke-width="0.8" d="M2564.2,-300.35C2577.59,-284.05 2603.81,-246.49 2588.08,-218.31 2558.05,-164.51 2529.01,-163.54 2470.08,-145.54 2462.06,-143.09 1368.31,-100.71 1175.84,-93.27"/>
<polygon fill="green" stroke="green" stroke-width="0.8" points="1175.79,-89.76 1165.66,-92.87 1175.52,-96.76 1175.79,-89.76"/>
</g>
<!-- 8&#45;&gt;23 -->
<g id="edge30" class="edge">
<title>8&#45;&gt;23</title>
<path fill="none" stroke="green" stroke-width="0.8" d="M2567.72,-307.39C2606.38,-303.25 2738.44,-286.93 2763.08,-255.08 2797.61,-210.46 2710.56,-146.97 2708.08,-145.54 2558.85,-59.49 1263.57,-25.08 1053.74,-20.05"/>
<polygon fill="green" stroke="green" stroke-width="0.8" points="1053.61,-16.54 1043.53,-19.8 1053.45,-23.54 1053.61,-16.54"/>
</g>
<!-- 8&#45;&gt;39 -->
<g id="edge31" class="edge">
<title>8&#45;&gt;39</title>
<path fill="none" stroke="green" stroke-width="0.8" d="M2567.65,-308.52C2619.68,-308.53 2847.93,-305.68 2891.08,-255.08 2922.67,-218.04 2922.52,-182.71 2891.08,-145.54 2785.99,-21.26 2229.46,-17.98 2095.91,-19.02"/>
<polygon fill="green" stroke="green" stroke-width="0.8" points="2095.64,-15.52 2085.67,-19.11 2095.7,-22.52 2095.64,-15.52"/>
</g>
<!-- 8&#45;&gt;36 -->
<g id="edge32" class="edge">
<title>8&#45;&gt;36</title>
<path fill="none" stroke="green" stroke-width="0.8" d="M2567.74,-307.09C2604.09,-302.18 2722.12,-284.19 2744.08,-255.08 2788.79,-195.82 2675.32,-150.6 2663.08,-145.54 2568.62,-106.5 1821.34,-94.59 1664.78,-92.51"/>
<polygon fill="green" stroke="green" stroke-width="0.8" points="1664.59,-89 1654.55,-92.37 1664.5,-96 1664.59,-89"/>
</g>
<!-- 15 -->
<g id="node19" class="node">
<title>15</title>
<ellipse fill="white" stroke="black" cx="2113.08" cy="-163.92" rx="18.27" ry="18.27"/>
<text text-anchor="middle" x="2113.08" y="-161.72" font-family="Times,serif" font-size="9.00">15</text>
</g>
<!-- 8&#45;&gt;15 -->
<g id="edge84" class="edge">
<title>8&#45;&gt;15</title>
<path fill="none" stroke="green" stroke-width="0.8" d="M2546.45,-307.98C2513.75,-306.08 2412.63,-296.95 2343.08,-255.08 2324.27,-243.75 2329.09,-229.31 2310.08,-218.31 2243.61,-179.84 2212.32,-210.99 2141.08,-182.31 2139.66,-181.73 2138.22,-181.09 2136.79,-180.39"/>
<polygon fill="green" stroke="green" stroke-width="0.8" points="2138.12,-177.13 2127.69,-175.31 2134.71,-183.24 2138.12,-177.13"/>
</g>
<!-- 8&#45;&gt;20 -->
<g id="edge116" class="edge">
<title>8&#45;&gt;20</title>
<path fill="none" stroke="green" stroke-width="0.8" d="M2546.38,-308.11C2451.34,-304.9 1753.11,-280.55 1664.08,-255.08 1661.44,-254.32 1658.77,-253.32 1656.16,-252.18"/>
<polygon fill="green" stroke="green" stroke-width="0.8" points="1657.62,-249 1647.12,-247.62 1654.47,-255.25 1657.62,-249"/>
</g>
<!-- 27 -->
<g id="node30" class="node">
<title>27</title>
<ellipse fill="white" stroke="black" cx="2136.08" cy="-236.69" rx="18.27" ry="18.27"/>
<text text-anchor="middle" x="2136.08" y="-234.49" font-family="Times,serif" font-size="9.00">27</text>
</g>
<!-- 8&#45;&gt;27 -->
<g id="edge95" class="edge">
<title>8&#45;&gt;27</title>
<path fill="none" stroke="green" stroke-width="0.8" d="M2546.38,-308.62C2499.54,-308.99 2308.57,-307.05 2164.08,-255.08 2162.63,-254.56 2161.18,-253.95 2159.74,-253.29"/>
<polygon fill="green" stroke="green" stroke-width="0.8" points="2161.05,-250.02 2150.6,-248.31 2157.7,-256.17 2161.05,-250.02"/>
</g>
<!-- 8&#45;&gt;29 -->
<g id="edge52" class="edge">
<title>8&#45;&gt;29</title>
<path fill="none" stroke="green" stroke-width="0.8" d="M2546.3,-308.25C2490.26,-306.97 2226.9,-298.76 2017.08,-255.08 1964.96,-244.23 1955.52,-227.47 1903.08,-218.31 1669.81,-177.57 1064.67,-251.09 838.08,-182.31 836.61,-181.86 835.14,-181.32 833.68,-180.7"/>
<polygon fill="green" stroke="green" stroke-width="0.8" points="834.97,-177.42 824.5,-175.85 831.71,-183.61 834.97,-177.42"/>
</g>
<!-- 8&#45;&gt;30 -->
<g id="edge109" class="edge">
<title>8&#45;&gt;30</title>
<path fill="none" stroke="green" stroke-width="0.8" d="M2546.58,-307.77C2497.07,-304.38 2282.15,-288.36 2109.08,-255.08 2096.61,-252.68 2083.01,-249.18 2071.49,-245.95"/>
<polygon fill="green" stroke="green" stroke-width="0.8" points="2072.16,-242.51 2061.58,-243.1 2070.22,-249.23 2072.16,-242.51"/>
</g>
<!-- 8&#45;&gt;32 -->
<g id="edge92" class="edge">
<title>8&#45;&gt;32</title>
<path fill="none" stroke="green" stroke-width="0.8" d="M2561.73,-300.44C2570.77,-283.66 2588.39,-244.27 2571.08,-218.31 2548.98,-185.15 2501.97,-172.55 2471.48,-167.79"/>
<polygon fill="green" stroke="green" stroke-width="0.8" points="2471.84,-164.31 2461.46,-166.41 2470.89,-171.24 2471.84,-164.31"/>
</g>
<!-- 33 -->
<g id="node36" class="node">
<title>33</title>
<ellipse fill="white" stroke="black" cx="2168.08" cy="-163.92" rx="18.27" ry="18.27"/>
<text text-anchor="middle" x="2168.08" y="-161.72" font-family="Times,serif" font-size="9.00">33</text>
</g>
<!-- 8&#45;&gt;33 -->
<g id="edge100" class="edge">
<title>8&#45;&gt;33</title>
<path fill="none" stroke="green" stroke-width="0.8" d="M2546.55,-303.57C2515.69,-289.33 2422.69,-247.13 2343.08,-218.31 2291.66,-199.69 2230.24,-181.96 2195.54,-172.36"/>
<polygon fill="green" stroke="green" stroke-width="0.8" points="2196.23,-168.92 2185.66,-169.64 2194.38,-175.67 2196.23,-168.92"/>
</g>
<!-- 9 -->
<g id="node9" class="node">
<title>9</title>
<polygon fill="lightgray" stroke="black" points="1295.58,-318.46 1274.58,-318.46 1274.58,-300.46 1295.58,-300.46 1295.58,-318.46"/>
<text text-anchor="middle" x="1285.08" y="-307.26" font-family="Times,serif" font-size="9.00">9</text>
</g>
<!-- 9&#45;&gt;38 -->
<g id="edge33" class="edge">
<title>9&#45;&gt;38</title>
<path fill="none" stroke="green" stroke-width="0.8" d="M1274.4,-303.04C1259,-294.71 1230.62,-277.38 1214.08,-255.08 1183.21,-213.45 1194.7,-193.09 1174.08,-145.54 1169.95,-136.02 1164.94,-125.81 1160.35,-116.88"/>
<polygon fill="green" stroke="green" stroke-width="0.8" points="1163.34,-115.05 1155.61,-107.81 1157.14,-118.29 1163.34,-115.05"/>
</g>
<!-- 9&#45;&gt;23 -->
<g id="edge34" class="edge">
<title>9&#45;&gt;23</title>
<path fill="none" stroke="green" stroke-width="0.8" d="M1274.32,-307.2C1233.03,-301.69 1084.14,-275.7 1027.08,-182.31 1001.42,-140.31 1009.72,-80.13 1017.67,-45.9"/>
<polygon fill="green" stroke="green" stroke-width="0.8" points="1021.07,-46.7 1020.09,-36.15 1014.28,-45.01 1021.07,-46.7"/>
</g>
<!-- 9&#45;&gt;39 -->
<g id="edge35" class="edge">
<title>9&#45;&gt;39</title>
<path fill="none" stroke="green" stroke-width="0.8" d="M1290.77,-300.34C1315.97,-265.14 1421.83,-125.25 1548.08,-72.77 1638.08,-35.36 1943.54,-23.12 2038.6,-20.17"/>
<polygon fill="green" stroke="green" stroke-width="0.8" points="2038.74,-23.67 2048.63,-19.87 2038.53,-16.67 2038.74,-23.67"/>
</g>
<!-- 9&#45;&gt;36 -->
<g id="edge36" class="edge">
<title>9&#45;&gt;36</title>
<path fill="none" stroke="green" stroke-width="0.8" d="M1295.59,-301.99C1343.62,-272.39 1542.96,-149.54 1612.23,-106.85"/>
<polygon fill="green" stroke="green" stroke-width="0.8" points="1614.08,-109.83 1620.75,-101.6 1610.4,-103.87 1614.08,-109.83"/>
</g>
<!-- 9&#45;&gt;13 -->
<g id="edge102" class="edge">
<title>9&#45;&gt;13</title>
<path fill="none" stroke="green" stroke-width="0.8" d="M1274.31,-307.85C1222.59,-304.76 994.58,-289.75 811.08,-255.08 798.6,-252.72 785,-249.23 773.48,-245.99"/>
<polygon fill="green" stroke="green" stroke-width="0.8" points="774.15,-242.55 763.57,-243.13 772.21,-249.27 774.15,-242.55"/>
</g>
<!-- 9&#45;&gt;20 -->
<g id="edge104" class="edge">
<title>9&#45;&gt;20</title>
<path fill="none" stroke="green" stroke-width="0.8" d="M1295.71,-304.75C1306.9,-300.93 1325.07,-295.02 1341.08,-291.08 1391.06,-278.78 1541.12,-253.02 1603.94,-242.41"/>
<polygon fill="green" stroke="green" stroke-width="0.8" points="1604.65,-245.84 1613.93,-240.73 1603.49,-238.94 1604.65,-245.84"/>
</g>
<!-- 10 -->
<g id="node10" class="node">
<title>10</title>
<polygon fill="lightgray" stroke="black" points="431.08,-318.46 405.08,-318.46 405.08,-300.46 431.08,-300.46 431.08,-318.46"/>
<text text-anchor="middle" x="418.08" y="-307.26" font-family="Times,serif" font-size="9.00">10</text>
</g>
<!-- 10&#45;&gt;38 -->
<g id="edge37" class="edge">
<title>10&#45;&gt;38</title>
<path fill="none" stroke="green" stroke-width="0.8" d="M421.39,-300.36C429.01,-282.7 449.53,-240.57 480.08,-218.31 585.27,-141.67 1005.47,-103.37 1118.8,-94.3"/>
<polygon fill="green" stroke="green" stroke-width="0.8" points="1119.09,-97.79 1128.79,-93.51 1118.54,-90.81 1119.09,-97.79"/>
</g>
<!-- 10&#45;&gt;23 -->
<g id="edge38" class="edge">
<title>10&#45;&gt;23</title>
<path fill="none" stroke="green" stroke-width="0.8" d="M404.81,-306.31C340.06,-295.26 63.77,-241.78 144.08,-145.54 200.34,-78.12 851.39,-30.96 996.52,-21.24"/>
<polygon fill="green" stroke="green" stroke-width="0.8" points="997.07,-24.71 1006.81,-20.56 996.6,-17.73 997.07,-24.71"/>
</g>
<!-- 10&#45;&gt;39 -->
<g id="edge39" class="edge">
<title>10&#45;&gt;39</title>
<path fill="none" stroke="green" stroke-width="0.8" d="M413.61,-300.45C408.21,-290.28 399.43,-271.99 396.08,-255.08 386.4,-206.19 382.09,-177.79 420.08,-145.54 548.54,-36.48 1829.51,-21.34 2038.36,-19.59"/>
<polygon fill="green" stroke="green" stroke-width="0.8" points="2038.56,-23.09 2048.53,-19.51 2038.5,-16.09 2038.56,-23.09"/>
</g>
<!-- 10&#45;&gt;36 -->
<g id="edge40" class="edge">
<title>10&#45;&gt;36</title>
<path fill="none" stroke="green" stroke-width="0.8" d="M427.65,-300.38C439.68,-290.12 460.84,-271.75 478.08,-255.08 494.3,-239.4 493.68,-229.82 513.08,-218.31 566.49,-186.63 588.12,-198.47 648.08,-182.31 708.12,-166.13 721.73,-155.7 783.08,-145.54 947.19,-118.35 1478.17,-97.84 1607.49,-93.16"/>
<polygon fill="green" stroke="green" stroke-width="0.8" points="1607.88,-96.65 1617.75,-92.79 1607.63,-89.65 1607.88,-96.65"/>
</g>
<!-- 10&#45;&gt;13 -->
<g id="edge61" class="edge">
<title>10&#45;&gt;13</title>
<path fill="none" stroke="green" stroke-width="0.8" d="M431.35,-305.6C480.15,-295.07 650.41,-258.33 718.06,-243.74"/>
<polygon fill="green" stroke="green" stroke-width="0.8" points="718.97,-247.12 728,-241.59 717.49,-240.28 718.97,-247.12"/>
</g>
<!-- 10&#45;&gt;21 -->
<g id="edge68" class="edge">
<title>10&#45;&gt;21</title>
<path fill="none" stroke="green" stroke-width="0.8" d="M431.14,-300.89C451.28,-289.2 490.28,-266.58 515.74,-251.81"/>
<polygon fill="green" stroke="green" stroke-width="0.8" points="517.55,-254.81 524.44,-246.76 514.04,-248.75 517.55,-254.81"/>
</g>
<!-- 10&#45;&gt;35 -->
<g id="edge105" class="edge">
<title>10&#45;&gt;35</title>
<path fill="none" stroke="green" stroke-width="0.8" d="M414,-300.18C406.56,-283.89 392.6,-246.81 404.08,-218.31 420.85,-176.68 433.93,-165.59 474.08,-145.54 546.3,-109.47 796.88,-96.58 882.3,-93.17"/>
<polygon fill="green" stroke="green" stroke-width="0.8" points="882.69,-96.66 892.55,-92.78 882.42,-89.66 882.69,-96.66"/>
</g>
<!-- 11 -->
<g id="node11" class="node">
<title>11</title>
<polygon fill="lightgray" stroke="black" points="1361.08,-172.92 1335.08,-172.92 1335.08,-154.92 1361.08,-154.92 1361.08,-172.92"/>
<text text-anchor="middle" x="1348.08" y="-161.72" font-family="Times,serif" font-size="9.00">11</text>
</g>
<!-- 11&#45;&gt;38 -->
<g id="edge41" class="edge">
<title>11&#45;&gt;38</title>
<path fill="none" stroke="green" stroke-width="0.8" d="M1336.92,-154.75C1332.2,-151.57 1326.54,-148.08 1321.08,-145.54 1271.74,-122.62 1210.05,-106.38 1174.95,-98.2"/>
<polygon fill="green" stroke="green" stroke-width="0.8" points="1175.48,-94.73 1164.96,-95.93 1173.93,-101.56 1175.48,-94.73"/>
</g>
<!-- 11&#45;&gt;23 -->
<g id="edge42" class="edge">
<title>11&#45;&gt;23</title>
<path fill="none" stroke="green" stroke-width="0.8" d="M1344.76,-154.88C1336.92,-136.98 1315.47,-93.76 1283.08,-72.77 1210.49,-25.72 1104.35,-19.05 1053.84,-18.78"/>
<polygon fill="green" stroke="green" stroke-width="0.8" points="1053.65,-15.28 1043.66,-18.81 1053.67,-22.28 1053.65,-15.28"/>
</g>
<!-- 11&#45;&gt;39 -->
<g id="edge43" class="edge">
<title>11&#45;&gt;39</title>
<path fill="none" stroke="green" stroke-width="0.8" d="M1347.74,-154.81C1347.47,-136.77 1349.64,-93.28 1375.08,-72.77 1427.39,-30.61 1913.74,-21.39 2038.19,-19.72"/>
<polygon fill="green" stroke="green" stroke-width="0.8" points="2038.49,-23.21 2048.45,-19.58 2038.4,-16.21 2038.49,-23.21"/>
</g>
<!-- 11&#45;&gt;36 -->
<g id="edge44" class="edge">
<title>11&#45;&gt;36</title>
<path fill="none" stroke="green" stroke-width="0.8" d="M1361.25,-159.29C1374.36,-155.7 1395.08,-150.1 1413.08,-145.54 1483.16,-127.78 1566.04,-108.35 1608.29,-98.56"/>
<polygon fill="green" stroke="green" stroke-width="0.8" points="1609.17,-101.95 1618.12,-96.28 1607.59,-95.13 1609.17,-101.95"/>
</g>
<!-- 12 -->
<g id="node12" class="node">
<title>12</title>
<polygon fill="lightgray" stroke="black" points="1805.08,-318.46 1779.08,-318.46 1779.08,-300.46 1805.08,-300.46 1805.08,-318.46"/>
<text text-anchor="middle" x="1792.08" y="-307.26" font-family="Times,serif" font-size="9.00">12</text>
</g>
<!-- 12&#45;&gt;23 -->
<g id="edge45" class="edge">
<title>12&#45;&gt;23</title>
<path fill="none" stroke="green" stroke-width="0.8" d="M1790.84,-300.04C1784.97,-263.58 1756.17,-119.19 1663.08,-72.77 1554.05,-18.4 1163.91,-18 1054.05,-19.01"/>
<polygon fill="green" stroke="green" stroke-width="0.8" points="1053.71,-15.51 1043.75,-19.11 1053.78,-22.51 1053.71,-15.51"/>
</g>
<!-- 12&#45;&gt;39 -->
<g id="edge46" class="edge">
<title>12&#45;&gt;39</title>
<path fill="none" stroke="green" stroke-width="0.8" d="M1805.18,-306.94C1876.46,-298.64 2214.55,-259.08 2218.08,-255.08 2284.01,-180.37 2147.48,-74.15 2090.49,-34.81"/>
<polygon fill="green" stroke="green" stroke-width="0.8" points="2092.31,-31.81 2082.08,-29.08 2088.38,-37.6 2092.31,-31.81"/>
</g>
<!-- 12&#45;&gt;36 -->
<g id="edge47" class="edge">
<title>12&#45;&gt;36</title>
<path fill="none" stroke="green" stroke-width="0.8" d="M1782.3,-300.22C1760.38,-281.32 1706.72,-232.63 1674.08,-182.31 1661.13,-162.35 1650.98,-137.24 1644.44,-118.6"/>
<polygon fill="green" stroke="green" stroke-width="0.8" points="1647.7,-117.33 1641.18,-108.98 1641.07,-119.57 1647.7,-117.33"/>
</g>
<!-- 12&#45;&gt;13 -->
<g id="edge59" class="edge">
<title>12&#45;&gt;13</title>
<path fill="none" stroke="green" stroke-width="0.8" d="M1778.96,-307.83C1666.03,-302.34 861.19,-263.05 811.08,-255.08 798.45,-253.07 784.74,-249.6 773.17,-246.28"/>
<polygon fill="green" stroke="green" stroke-width="0.8" points="773.84,-242.83 763.25,-243.33 771.84,-249.54 773.84,-242.83"/>
</g>
<!-- 18 -->
<g id="node22" class="node">
<title>18</title>
<ellipse fill="white" stroke="black" cx="2283.08" cy="-236.69" rx="18.27" ry="18.27"/>
<text text-anchor="middle" x="2283.08" y="-234.49" font-family="Times,serif" font-size="9.00">18</text>
</g>
<!-- 12&#45;&gt;18 -->
<g id="edge135" class="edge">
<title>12&#45;&gt;18</title>
<path fill="none" stroke="green" stroke-width="0.8" d="M1805.24,-306.93C1831.21,-303.89 1890.9,-296.92 1941.08,-291.08 2078.85,-275.04 2118.85,-296.95 2251.08,-255.08 2253.7,-254.25 2256.36,-253.2 2258.96,-252.03"/>
<polygon fill="green" stroke="green" stroke-width="0.8" points="2260.66,-255.09 2267.99,-247.43 2257.49,-248.85 2260.66,-255.09"/>
</g>
<!-- 12&#45;&gt;19 -->
<g id="edge129" class="edge">
<title>12&#45;&gt;19</title>
<path fill="none" stroke="green" stroke-width="0.8" d="M1779.01,-306.75C1735.53,-300.93 1591.97,-280.92 1475.08,-255.08 1362.13,-230.11 1230,-190.57 1174.17,-173.38"/>
<polygon fill="green" stroke="green" stroke-width="0.8" points="1174.94,-169.95 1164.35,-170.34 1172.87,-176.64 1174.94,-169.95"/>
</g>
<!-- 26 -->
<g id="node29" class="node">
<title>26</title>
<ellipse fill="white" stroke="black" cx="2191.08" cy="-236.69" rx="18.27" ry="18.27"/>
<text text-anchor="middle" x="2191.08" y="-234.49" font-family="Times,serif" font-size="9.00">26</text>
</g>
<!-- 12&#45;&gt;26 -->
<g id="edge106" class="edge">
<title>12&#45;&gt;26</title>
<path fill="none" stroke="green" stroke-width="0.8" d="M1805.16,-306.9C1867,-299.49 2128.61,-267.63 2163.08,-255.08 2164.53,-254.55 2165.98,-253.94 2167.41,-253.28"/>
<polygon fill="green" stroke="green" stroke-width="0.8" points="2169.46,-256.15 2176.56,-248.28 2166.1,-250.01 2169.46,-256.15"/>
</g>
<!-- 12&#45;&gt;32 -->
<g id="edge73" class="edge">
<title>12&#45;&gt;32</title>
<path fill="none" stroke="green" stroke-width="0.8" d="M1805.22,-306.75C1831.15,-303.4 1890.79,-295.9 1941.08,-291.08 1994.1,-285.99 2378.1,-289.1 2419.08,-255.08 2437.23,-240.01 2442.5,-212.92 2443.66,-192.35"/>
<polygon fill="green" stroke="green" stroke-width="0.8" points="2447.17,-192.38 2443.95,-182.29 2440.17,-192.19 2447.17,-192.38"/>
</g>
<!-- 12&#45;&gt;37 -->
<g id="edge117" class="edge">
<title>12&#45;&gt;37</title>
<path fill="none" stroke="green" stroke-width="0.8" d="M1778.93,-307.84C1697.54,-303.94 1261.73,-282.06 1131.08,-255.08 1118.9,-252.56 957.09,-196.76 891.96,-174.23"/>
<polygon fill="green" stroke="green" stroke-width="0.8" points="892.97,-170.88 882.38,-170.92 890.68,-177.49 892.97,-170.88"/>
</g>
<!-- 13&#45;&gt;38 -->
<g id="edge60" class="edge">
<title>13&#45;&gt;38</title>
<path fill="none" stroke="green" stroke-width="0.8" d="M748.07,-218.37C751.44,-197.6 760.29,-163.36 783.08,-145.54 809.51,-124.88 1037.66,-102.18 1118.69,-94.7"/>
<polygon fill="green" stroke="green" stroke-width="0.8" points="1119.04,-98.18 1128.68,-93.78 1118.4,-91.21 1119.04,-98.18"/>
</g>
<!-- 13&#45;&gt;37 -->
<g id="edge57" class="edge">
<title>13&#45;&gt;37</title>
<path fill="none" stroke="green" stroke-width="0.8" d="M761.61,-226.74C779.78,-216.23 810.74,-198.21 837.08,-182.31 838.37,-181.53 839.68,-180.73 841.01,-179.92"/>
<polygon fill="green" stroke="green" stroke-width="0.8" points="843.04,-182.78 849.72,-174.56 839.37,-176.82 843.04,-182.78"/>
</g>
<!-- 14&#45;&gt;27 -->
<g id="edge99" class="edge">
<title>14&#45;&gt;27</title>
<path fill="none" stroke="green" stroke-width="0.8" d="M1426.4,-307.44C1519.59,-302.16 1941.78,-277.39 2071.08,-255.08 2083.6,-252.92 2097.2,-249.46 2108.72,-246.19"/>
<polygon fill="green" stroke="green" stroke-width="0.8" points="2110.01,-249.46 2118.62,-243.29 2108.04,-242.74 2110.01,-249.46"/>
</g>
<!-- 14&#45;&gt;29 -->
<g id="edge94" class="edge">
<title>14&#45;&gt;29</title>
<path fill="none" stroke="green" stroke-width="0.8" d="M1393.59,-297.78C1389.42,-295.18 1384.73,-292.69 1380.08,-291.08 1244.86,-244.18 1199.92,-285.53 1060.08,-255.08 1047.4,-252.32 849.85,-187.79 838.08,-182.31 836.69,-181.66 835.28,-180.95 833.87,-180.21"/>
<polygon fill="green" stroke="green" stroke-width="0.8" points="835.23,-176.96 824.82,-174.99 831.74,-183.02 835.23,-176.96"/>
</g>
<!-- 15&#45;&gt;39 -->
<g id="edge85" class="edge">
<title>15&#45;&gt;39</title>
<path fill="none" stroke="green" stroke-width="0.8" d="M2107.71,-146.18C2099.79,-121.44 2084.87,-74.89 2075.48,-45.6"/>
<polygon fill="green" stroke="green" stroke-width="0.8" points="2078.8,-44.48 2072.41,-36.02 2072.13,-46.62 2078.8,-44.48"/>
</g>
<!-- 16&#45;&gt;23 -->
<g id="edge86" class="edge">
<title>16&#45;&gt;23</title>
<path fill="none" stroke="green" stroke-width="0.8" d="M1882.39,-219.18C1893.72,-186.41 1912.96,-112.86 1875.08,-72.77 1846.26,-42.26 1199.75,-23.87 1054.06,-20.11"/>
<polygon fill="green" stroke="green" stroke-width="0.8" points="1053.8,-16.6 1043.72,-19.84 1053.62,-23.6 1053.8,-16.6"/>
</g>
<!-- 16&#45;&gt;36 -->
<g id="edge67" class="edge">
<title>16&#45;&gt;36</title>
<path fill="none" stroke="green" stroke-width="0.8" d="M1860.59,-226.11C1833.73,-209.52 1776.7,-174.45 1728.08,-145.54 1705.27,-131.97 1679.08,-116.82 1660.49,-106.13"/>
<polygon fill="green" stroke="green" stroke-width="0.8" points="1662.18,-103.07 1651.77,-101.12 1658.7,-109.14 1662.18,-103.07"/>
</g>
<!-- 16&#45;&gt;17 -->
<g id="edge82" class="edge">
<title>16&#45;&gt;17</title>
<path fill="none" stroke="green" stroke-width="0.8" d="M1888.42,-223.04C1898.59,-212.6 1913.23,-197.59 1925.08,-185.44"/>
<polygon fill="green" stroke="green" stroke-width="0.8" points="1927.91,-187.55 1932.39,-177.95 1922.9,-182.66 1927.91,-187.55"/>
</g>
<!-- 17&#45;&gt;35 -->
<g id="edge76" class="edge">
<title>17&#45;&gt;35</title>
<path fill="none" stroke="green" stroke-width="0.8" d="M1926.8,-161.33C1889.47,-158.1 1801.79,-150.67 1728.08,-145.54 1458.04,-126.73 1390.09,-128.76 1120.08,-109.54 1055.54,-104.94 979.89,-98.35 939.66,-94.75"/>
<polygon fill="green" stroke="green" stroke-width="0.8" points="939.8,-91.25 929.52,-93.84 939.17,-98.22 939.8,-91.25"/>
</g>
<!-- 18&#45;&gt;40 -->
<g id="edge136" class="edge">
<title>18&#45;&gt;40</title>
<path fill="none" stroke="green" stroke-width="0.8" d="M2286.71,-218.56C2288.38,-210.68 2290.41,-201.14 2292.28,-192.3"/>
<polygon fill="green" stroke="green" stroke-width="0.8" points="2295.73,-192.9 2294.38,-182.39 2288.88,-191.45 2295.73,-192.9"/>
</g>
<!-- 19&#45;&gt;38 -->
<g id="edge130" class="edge">
<title>19&#45;&gt;38</title>
<path fill="none" stroke="green" stroke-width="0.8" d="M1147.08,-145.43C1147.08,-137.75 1147.08,-128.54 1147.08,-119.95"/>
<polygon fill="green" stroke="green" stroke-width="0.8" points="1150.58,-119.94 1147.08,-109.94 1143.58,-119.94 1150.58,-119.94"/>
</g>
<!-- 20&#45;&gt;39 -->
<g id="edge108" class="edge">
<title>20&#45;&gt;39</title>
<path fill="none" stroke="green" stroke-width="0.8" d="M1648.34,-227.61C1714.16,-194.88 1961.16,-72.05 2041.59,-32.06"/>
<polygon fill="green" stroke="green" stroke-width="0.8" points="2043.58,-34.98 2050.97,-27.4 2040.46,-28.71 2043.58,-34.98"/>
</g>
<!-- 20&#45;&gt;37 -->
<g id="edge90" class="edge">
<title>20&#45;&gt;37</title>
<path fill="none" stroke="green" stroke-width="0.8" d="M1613.92,-232.14C1593.4,-228.23 1558.96,-222.02 1529.08,-218.31 1402.88,-202.62 1003.46,-174.49 893.4,-166.87"/>
<polygon fill="green" stroke="green" stroke-width="0.8" points="893.61,-163.38 883.39,-166.18 893.13,-170.36 893.61,-163.38"/>
</g>
<!-- 21&#45;&gt;23 -->
<g id="edge69" class="edge">
<title>21&#45;&gt;23</title>
<path fill="none" stroke="green" stroke-width="0.8" d="M537.58,-218.34C533.83,-184.74 531.05,-110.77 572.08,-72.77 603.31,-43.85 901.57,-25.85 996.33,-20.83"/>
<polygon fill="green" stroke="green" stroke-width="0.8" points="996.8,-24.31 1006.6,-20.29 996.43,-17.32 996.8,-24.31"/>
</g>
<!-- 21&#45;&gt;15 -->
<g id="edge87" class="edge">
<title>21&#45;&gt;15</title>
<path fill="none" stroke="green" stroke-width="0.8" d="M558.34,-233.51C590.69,-229.72 660.19,-222.01 719.08,-218.31 1275.1,-183.36 1416.56,-224.44 1972.08,-182.31 2011.34,-179.33 2056.45,-173.31 2084.86,-169.2"/>
<polygon fill="green" stroke="green" stroke-width="0.8" points="2085.5,-172.64 2094.88,-167.72 2084.48,-165.71 2085.5,-172.64"/>
</g>
<!-- 21&#45;&gt;29 -->
<g id="edge121" class="edge">
<title>21&#45;&gt;29</title>
<path fill="none" stroke="green" stroke-width="0.8" d="M557.8,-231.05C603.76,-219 727.08,-186.68 782.48,-172.16"/>
<polygon fill="green" stroke="green" stroke-width="0.8" points="783.52,-175.51 792.3,-169.58 781.74,-168.73 783.52,-175.51"/>
</g>
<!-- 22&#45;&gt;32 -->
<g id="edge79" class="edge">
<title>22&#45;&gt;32</title>
<path fill="none" stroke="green" stroke-width="0.8" d="M2699.52,-231.16C2653.14,-219.18 2527.06,-186.61 2470.81,-172.09"/>
<polygon fill="green" stroke="green" stroke-width="0.8" points="2471.4,-168.62 2460.85,-169.51 2469.65,-175.4 2471.4,-168.62"/>
</g>
<!-- 24&#45;&gt;36 -->
<g id="edge113" class="edge">
<title>24&#45;&gt;36</title>
<path fill="none" stroke="green" stroke-width="0.8" d="M1688.86,-149.61C1679.41,-139.33 1666.17,-124.91 1655.31,-113.09"/>
<polygon fill="green" stroke="green" stroke-width="0.8" points="1657.59,-110.4 1648.25,-105.41 1652.44,-115.14 1657.59,-110.4"/>
</g>
<!-- 25&#45;&gt;35 -->
<g id="edge115" class="edge">
<title>25&#45;&gt;35</title>
<path fill="none" stroke="green" stroke-width="0.8" d="M188.82,-158.03C203.93,-154.05 226.27,-148.61 246.08,-145.54 490.52,-107.61 789.93,-95.81 882.48,-92.94"/>
<polygon fill="green" stroke="green" stroke-width="0.8" points="882.83,-96.43 892.72,-92.64 882.62,-89.44 882.83,-96.43"/>
</g>
<!-- 26&#45;&gt;23 -->
<g id="edge123" class="edge">
<title>26&#45;&gt;23</title>
<path fill="none" stroke="green" stroke-width="0.8" d="M2175.87,-225.8C2171.77,-223.26 2167.31,-220.6 2163.08,-218.31 2129.86,-200.31 2119.53,-199.87 2086.08,-182.31 2000.81,-137.52 1991.23,-100.81 1899.08,-72.77 1735.7,-23.04 1185.86,-19.48 1053.78,-19.35"/>
<polygon fill="green" stroke="green" stroke-width="0.8" points="1053.65,-15.85 1043.65,-19.35 1053.65,-22.85 1053.65,-15.85"/>
</g>
<!-- 26&#45;&gt;15 -->
<g id="edge128" class="edge">
<title>26&#45;&gt;15</title>
<path fill="none" stroke="green" stroke-width="0.8" d="M2177.85,-223.69C2165.86,-212.81 2147.99,-196.59 2134.05,-183.95"/>
<polygon fill="green" stroke="green" stroke-width="0.8" points="2136.14,-181.12 2126.38,-176.99 2131.43,-186.3 2136.14,-181.12"/>
</g>
<!-- 26&#45;&gt;32 -->
<g id="edge107" class="edge">
<title>26&#45;&gt;32</title>
<path fill="none" stroke="green" stroke-width="0.8" d="M2208.8,-230.72C2252.09,-218.56 2363.46,-187.28 2415.51,-172.67"/>
<polygon fill="green" stroke="green" stroke-width="0.8" points="2416.7,-175.97 2425.38,-169.89 2414.81,-169.23 2416.7,-175.97"/>
</g>
<!-- 27&#45;&gt;39 -->
<g id="edge96" class="edge">
<title>27&#45;&gt;39</title>
<path fill="none" stroke="green" stroke-width="0.8" d="M2121.59,-224.7C2109.89,-214.95 2094.1,-199.59 2086.08,-182.31 2065.64,-138.25 2064,-80.59 2065.19,-47"/>
<polygon fill="green" stroke="green" stroke-width="0.8" points="2068.68,-47.14 2065.65,-36.99 2061.69,-46.82 2068.68,-47.14"/>
</g>
<!-- 27&#45;&gt;24 -->
<g id="edge124" class="edge">
<title>27&#45;&gt;24</title>
<path fill="none" stroke="green" stroke-width="0.8" d="M2118.56,-230.4C2105.55,-226.63 2087.33,-221.64 2071.08,-218.31 1944.83,-192.41 1791.82,-174.57 1729.52,-167.87"/>
<polygon fill="green" stroke="green" stroke-width="0.8" points="1729.62,-164.36 1719.31,-166.78 1728.88,-171.32 1729.62,-164.36"/>
</g>
<!-- 27&#45;&gt;33 -->
<g id="edge103" class="edge">
<title>27&#45;&gt;33</title>
<path fill="none" stroke="green" stroke-width="0.8" d="M2143.34,-219.63C2147.27,-210.95 2152.21,-200.02 2156.64,-190.22"/>
<polygon fill="green" stroke="green" stroke-width="0.8" points="2159.92,-191.47 2160.85,-180.92 2153.54,-188.59 2159.92,-191.47"/>
</g>
<!-- 27&#45;&gt;40 -->
<g id="edge98" class="edge">
<title>27&#45;&gt;40</title>
<path fill="none" stroke="green" stroke-width="0.8" d="M2150.91,-225.81C2155.09,-223.22 2159.69,-220.53 2164.08,-218.31 2199.96,-200.2 2243.52,-183.81 2271.03,-174.11"/>
<polygon fill="green" stroke="green" stroke-width="0.8" points="2272.44,-177.32 2280.74,-170.73 2270.14,-170.71 2272.44,-177.32"/>
</g>
<!-- 28&#45;&gt;37 -->
<g id="edge127" class="edge">
<title>28&#45;&gt;37</title>
<path fill="none" stroke="green" stroke-width="0.8" d="M844.34,-219.28C847.58,-210.79 851.61,-200.24 855.25,-190.7"/>
<polygon fill="green" stroke="green" stroke-width="0.8" points="858.56,-191.84 858.85,-181.25 852.02,-189.34 858.56,-191.84"/>
</g>
<!-- 29&#45;&gt;23 -->
<g id="edge49" class="edge">
<title>29&#45;&gt;23</title>
<path fill="none" stroke="green" stroke-width="0.8" d="M815.94,-146.16C823.82,-125.95 839.74,-92.28 864.08,-72.77 903.44,-41.22 962.2,-27.99 996.79,-22.69"/>
<polygon fill="green" stroke="green" stroke-width="0.8" points="997.28,-26.16 1006.69,-21.29 996.3,-19.22 997.28,-26.16"/>
</g>
<!-- 30&#45;&gt;17 -->
<g id="edge125" class="edge">
<title>30&#45;&gt;17</title>
<path fill="none" stroke="green" stroke-width="0.8" d="M2029.47,-225.25C2013.32,-213.7 1987.06,-194.93 1968.13,-181.4"/>
<polygon fill="green" stroke="green" stroke-width="0.8" points="1969.92,-178.38 1959.75,-175.41 1965.85,-184.07 1969.92,-178.38"/>
</g>
<!-- 30&#45;&gt;33 -->
<g id="edge110" class="edge">
<title>30&#45;&gt;33</title>
<path fill="none" stroke="green" stroke-width="0.8" d="M2060.18,-227.05C2079.36,-216.68 2112.3,-198.65 2140.08,-182.31 2141.38,-181.55 2142.7,-180.76 2144.03,-179.96"/>
<polygon fill="green" stroke="green" stroke-width="0.8" points="2146.05,-182.83 2152.76,-174.62 2142.4,-176.85 2146.05,-182.83"/>
</g>
<!-- 31&#45;&gt;39 -->
<g id="edge133" class="edge">
<title>31&#45;&gt;39</title>
<path fill="none" stroke="green" stroke-width="0.8" d="M3090.05,-80.2C3084.88,-77.28 3078.92,-74.42 3073.08,-72.77 2882.18,-18.84 2239.72,-18.57 2095.83,-19.21"/>
<polygon fill="green" stroke="green" stroke-width="0.8" points="2095.6,-15.71 2085.62,-19.26 2095.64,-22.71 2095.6,-15.71"/>
</g>
<!-- 32&#45;&gt;36 -->
<g id="edge74" class="edge">
<title>32&#45;&gt;36</title>
<path fill="none" stroke="green" stroke-width="0.8" d="M2425.14,-159.89C2402.05,-156.07 2360.68,-149.54 2325.08,-145.54 2069.62,-116.86 1759.12,-98.79 1664.68,-93.66"/>
<polygon fill="green" stroke="green" stroke-width="0.8" points="1664.66,-90.16 1654.49,-93.11 1664.29,-97.15 1664.66,-90.16"/>
</g>
<!-- 33&#45;&gt;39 -->
<g id="edge101" class="edge">
<title>33&#45;&gt;39</title>
<path fill="none" stroke="green" stroke-width="0.8" d="M2157.84,-148.37C2140.3,-123.44 2104.36,-72.36 2083.35,-42.51"/>
<polygon fill="green" stroke="green" stroke-width="0.8" points="2085.97,-40.14 2077.35,-33.98 2080.24,-44.17 2085.97,-40.14"/>
</g>
<!-- 34&#45;&gt;36 -->
<g id="edge119" class="edge">
<title>34&#45;&gt;36</title>
<path fill="none" stroke="green" stroke-width="0.8" d="M1514.9,-223.14C1525.75,-212.43 1541.63,-196.55 1555.08,-182.31 1577.11,-158.99 1601.62,-131.48 1617.85,-113.03"/>
<polygon fill="green" stroke="green" stroke-width="0.8" points="1620.51,-115.3 1624.48,-105.48 1615.25,-110.69 1620.51,-115.3"/>
</g>
<!-- 35&#45;&gt;23 -->
<g id="edge51" class="edge">
<title>35&#45;&gt;23</title>
<path fill="none" stroke="green" stroke-width="0.8" d="M926.46,-80.61C945.58,-68.74 978.45,-48.34 1000.94,-34.37"/>
<polygon fill="green" stroke="green" stroke-width="0.8" points="1002.94,-37.25 1009.59,-29 999.24,-31.3 1002.94,-37.25"/>
</g>
<!-- 35&#45;&gt;39 -->
<g id="edge138" class="edge">
<title>35&#45;&gt;39</title>
<path fill="none" stroke="green" stroke-width="0.8" d="M929.34,-87.42C955.71,-83.58 1006.03,-76.61 1049.08,-72.77 1440.12,-37.93 1917.83,-23.39 2038.41,-20.12"/>
<polygon fill="green" stroke="green" stroke-width="0.8" points="2038.74,-23.61 2048.64,-19.85 2038.55,-16.62 2038.74,-23.61"/>
</g>
<!-- 37&#45;&gt;38 -->
<g id="edge54" class="edge">
<title>37&#45;&gt;38</title>
<path fill="none" stroke="green" stroke-width="0.8" d="M882.72,-158.5C930.4,-146.53 1062.09,-113.48 1119.61,-99.05"/>
<polygon fill="green" stroke="green" stroke-width="0.8" points="1120.6,-102.41 1129.45,-96.58 1118.9,-95.62 1120.6,-102.41"/>
</g>
<!-- 37&#45;&gt;23 -->
<g id="edge63" class="edge">
<title>37&#45;&gt;23</title>
<path fill="none" stroke="green" stroke-width="0.8" d="M864.08,-145.52C863.88,-125.63 866.6,-93.18 884.08,-72.77 912.69,-39.37 964.48,-26.82 996.7,-22.13"/>
<polygon fill="green" stroke="green" stroke-width="0.8" points="997.34,-25.58 1006.81,-20.83 996.45,-18.64 997.34,-25.58"/>
</g>
<!-- 37&#45;&gt;35 -->
<g id="edge91" class="edge">
<title>37&#45;&gt;35</title>
<path fill="none" stroke="green" stroke-width="0.8" d="M874.84,-147.92C880.94,-138.53 888.92,-126.25 895.84,-115.6"/>
<polygon fill="green" stroke="green" stroke-width="0.8" points="898.82,-117.43 901.34,-107.14 892.96,-113.62 898.82,-117.43"/>
</g>
<!-- 40&#45;&gt;23 -->
<g id="edge64" class="edge">
<title>40&#45;&gt;23</title>
<path fill="none" stroke="green" stroke-width="0.8" d="M2281.55,-155.18C2241.62,-136.92 2136.35,-91.3 2043.08,-72.77 1846.2,-33.66 1198.93,-21.94 1054.03,-19.78"/>
<polygon fill="green" stroke="green" stroke-width="0.8" points="1053.8,-16.28 1043.75,-19.63 1053.7,-23.28 1053.8,-16.28"/>
</g>
<!-- 40&#45;&gt;39 -->
<g id="edge122" class="edge">
<title>40&#45;&gt;39</title>
<path fill="none" stroke="green" stroke-width="0.8" d="M2296.65,-145.36C2294.04,-125.01 2286.7,-91.82 2266.08,-72.77 2218.47,-28.78 2138.54,-20.32 2095.91,-19.13"/>
<polygon fill="green" stroke="green" stroke-width="0.8" points="2095.73,-15.62 2085.67,-18.96 2095.62,-22.62 2095.73,-15.62"/>
</g>
</g>
</svg>
