<?xml version="1.0" encoding="UTF-8" standalone="no"?>
<!DOCTYPE svg PUBLIC "-//W3C//DTD SVG 1.1//EN"
 "http://www.w3.org/Graphics/SVG/1.1/DTD/svg11.dtd">
<!-- Generated by graphviz version 3.0.0 (20220226.1711)
 -->
<!-- Pages: 1 -->
<svg width="1479pt" height="244pt"
 viewBox="0.00 0.00 1479.44 244.31" xmlns="http://www.w3.org/2000/svg" xmlns:xlink="http://www.w3.org/1999/xlink">
<g id="graph0" class="graph" transform="scale(1 1) rotate(0) translate(4 240.31)">
<polygon fill="white" stroke="transparent" points="-4,4 -4,-240.31 1475.44,-240.31 1475.44,4 -4,4"/>
<!-- 1 -->
<g id="node1" class="node">
<title>1</title>
<polygon fill="lightgray" stroke="black" points="890.68,-100.15 869.68,-100.15 869.68,-82.15 890.68,-82.15 890.68,-100.15"/>
<text text-anchor="middle" x="880.18" y="-88.95" font-family="Times,serif" font-size="9.00">1</text>
</g>
<!-- 13 -->
<g id="node13" class="node">
<title>13</title>
<ellipse fill="lightblue" stroke="black" cx="623.18" cy="-18.38" rx="18.27" ry="18.27"/>
<text text-anchor="middle" x="623.18" y="-16.18" font-family="Times,serif" font-size="9.00">13</text>
</g>
<!-- 1&#45;&gt;13 -->
<g id="edge1" class="edge">
<title>1&#45;&gt;13</title>
<path fill="none" stroke="green" stroke-width="0.8" d="M872.68,-82.05C869.18,-78.71 864.77,-75.1 860.18,-72.77 790.67,-37.59 698.1,-25.39 651.92,-21.32"/>
<polygon fill="green" stroke="green" stroke-width="0.8" points="651.99,-17.81 641.74,-20.49 651.43,-24.79 651.99,-17.81"/>
</g>
<!-- 18 -->
<g id="node14" class="node">
<title>18</title>
<ellipse fill="lightblue" stroke="black" cx="322.18" cy="-18.38" rx="18.27" ry="18.27"/>
<text text-anchor="middle" x="322.18" y="-16.18" font-family="Times,serif" font-size="9.00">18</text>
</g>
<!-- 1&#45;&gt;18 -->
<g id="edge2" class="edge">
<title>1&#45;&gt;18</title>
<path fill="none" stroke="green" stroke-width="0.8" d="M873.17,-82.14C869.64,-78.65 865.08,-74.88 860.18,-72.77 813.15,-52.48 455.19,-27.98 350.72,-21.2"/>
<polygon fill="green" stroke="green" stroke-width="0.8" points="350.81,-17.7 340.6,-20.55 350.36,-24.68 350.81,-17.7"/>
</g>
<!-- 15 -->
<g id="node15" class="node">
<title>15</title>
<ellipse fill="lightblue" stroke="black" cx="957.18" cy="-18.38" rx="18.27" ry="18.27"/>
<text text-anchor="middle" x="957.18" y="-16.18" font-family="Times,serif" font-size="9.00">15</text>
</g>
<!-- 1&#45;&gt;15 -->
<g id="edge3" class="edge">
<title>1&#45;&gt;15</title>
<path fill="none" stroke="green" stroke-width="0.8" d="M889.01,-82.04C900.51,-71.46 920.99,-52.65 936.5,-38.39"/>
<polygon fill="green" stroke="green" stroke-width="0.8" points="939.1,-40.76 944.09,-31.41 934.36,-35.6 939.1,-40.76"/>
</g>
<!-- 16 -->
<g id="node16" class="node">
<title>16</title>
<ellipse fill="lightblue" stroke="black" cx="1071.18" cy="-18.38" rx="18.27" ry="18.27"/>
<text text-anchor="middle" x="1071.18" y="-16.18" font-family="Times,serif" font-size="9.00">16</text>
</g>
<!-- 1&#45;&gt;16 -->
<g id="edge4" class="edge">
<title>1&#45;&gt;16</title>
<path fill="none" stroke="green" stroke-width="0.8" d="M890.72,-86.25C919.82,-75.46 1001.96,-45.03 1044.66,-29.21"/>
<polygon fill="green" stroke="green" stroke-width="0.8" points="1045.96,-32.46 1054.12,-25.7 1043.53,-25.9 1045.96,-32.46"/>
</g>
<!-- 2 -->
<g id="node2" class="node">
<title>2</title>
<polygon fill="lightgray" stroke="black" points="118.68,-236.31 97.68,-236.31 97.68,-218.31 118.68,-218.31 118.68,-236.31"/>
<text text-anchor="middle" x="108.18" y="-225.11" font-family="Times,serif" font-size="9.00">2</text>
</g>
<!-- 2&#45;&gt;13 -->
<g id="edge5" class="edge">
<title>2&#45;&gt;13</title>
<path fill="none" stroke="green" stroke-width="0.8" d="M101.27,-218.28C89.19,-203.22 66.82,-170.03 81.18,-145.54 114.66,-88.42 148.32,-93.57 211.18,-72.77 349.33,-27.05 525.64,-20.24 594.14,-19.4"/>
<polygon fill="green" stroke="green" stroke-width="0.8" points="594.58,-22.9 604.55,-19.31 594.52,-15.9 594.58,-22.9"/>
</g>
<!-- 2&#45;&gt;18 -->
<g id="edge6" class="edge">
<title>2&#45;&gt;18</title>
<path fill="none" stroke="green" stroke-width="0.8" d="M97.5,-225.21C76.45,-222.39 29.94,-212.84 10.18,-182.31 -20.34,-135.16 24.84,-101.37 73.18,-72.77 144.46,-30.6 244.75,-21.56 293.43,-19.74"/>
<polygon fill="green" stroke="green" stroke-width="0.8" points="293.66,-23.24 303.55,-19.45 293.45,-16.24 293.66,-23.24"/>
</g>
<!-- 2&#45;&gt;15 -->
<g id="edge7" class="edge">
<title>2&#45;&gt;15</title>
<path fill="none" stroke="green" stroke-width="0.8" d="M118.76,-226.34C186.58,-226.42 560.77,-224.92 665.18,-182.31 688.77,-172.68 685.64,-155.32 709.18,-145.54 790.17,-111.89 1043.06,-174.32 1102.18,-109.54 1113.19,-97.47 1111.53,-86.17 1102.18,-72.77 1088.47,-53.11 1023.24,-34.88 985.1,-25.67"/>
<polygon fill="green" stroke="green" stroke-width="0.8" points="985.67,-22.21 975.13,-23.32 984.06,-29.02 985.67,-22.21"/>
</g>
<!-- 2&#45;&gt;16 -->
<g id="edge8" class="edge">
<title>2&#45;&gt;16</title>
<path fill="none" stroke="green" stroke-width="0.8" d="M118.73,-225.95C222.07,-222.31 1050.94,-190.68 1119.18,-109.54 1137.9,-87.28 1112.92,-56.53 1092.55,-37.31"/>
<polygon fill="green" stroke="green" stroke-width="0.8" points="1094.84,-34.66 1085.08,-30.55 1090.15,-39.85 1094.84,-34.66"/>
</g>
<!-- 19 -->
<g id="node19" class="node">
<title>19</title>
<ellipse fill="white" stroke="black" cx="108.18" cy="-163.92" rx="18.27" ry="18.27"/>
<text text-anchor="middle" x="108.18" y="-161.72" font-family="Times,serif" font-size="9.00">19</text>
</g>
<!-- 2&#45;&gt;19 -->
<g id="edge65" class="edge">
<title>2&#45;&gt;19</title>
<path fill="none" stroke="green" stroke-width="0.8" d="M108.18,-218.28C108.18,-211.72 108.18,-202.03 108.18,-192.7"/>
<polygon fill="green" stroke="green" stroke-width="0.8" points="111.68,-192.51 108.18,-182.51 104.68,-192.51 111.68,-192.51"/>
</g>
<!-- 3 -->
<g id="node3" class="node">
<title>3</title>
<polygon fill="lightgray" stroke="black" points="767.68,-100.15 746.68,-100.15 746.68,-82.15 767.68,-82.15 767.68,-100.15"/>
<text text-anchor="middle" x="757.18" y="-88.95" font-family="Times,serif" font-size="9.00">3</text>
</g>
<!-- 3&#45;&gt;13 -->
<g id="edge9" class="edge">
<title>3&#45;&gt;13</title>
<path fill="none" stroke="green" stroke-width="0.8" d="M746.21,-81.99C741.93,-78.95 736.92,-75.56 732.18,-72.77 704.64,-56.58 671.5,-40.85 649.05,-30.71"/>
<polygon fill="green" stroke="green" stroke-width="0.8" points="650.39,-27.47 639.83,-26.59 647.54,-33.86 650.39,-27.47"/>
</g>
<!-- 3&#45;&gt;18 -->
<g id="edge10" class="edge">
<title>3&#45;&gt;18</title>
<path fill="none" stroke="green" stroke-width="0.8" d="M746.42,-88.4C690.97,-79.38 436.56,-37.99 350.63,-24.01"/>
<polygon fill="green" stroke="green" stroke-width="0.8" points="350.99,-20.53 340.56,-22.37 349.86,-27.44 350.99,-20.53"/>
</g>
<!-- 3&#45;&gt;15 -->
<g id="edge11" class="edge">
<title>3&#45;&gt;15</title>
<path fill="none" stroke="green" stroke-width="0.8" d="M764.67,-81.82C767.93,-78.61 771.97,-75.14 776.18,-72.77 825.9,-44.7 891.82,-30.1 928.83,-23.65"/>
<polygon fill="green" stroke="green" stroke-width="0.8" points="929.61,-27.07 938.9,-21.97 928.46,-20.16 929.61,-27.07"/>
</g>
<!-- 3&#45;&gt;16 -->
<g id="edge12" class="edge">
<title>3&#45;&gt;16</title>
<path fill="none" stroke="green" stroke-width="0.8" d="M764.18,-81.93C767.48,-78.58 771.68,-74.98 776.18,-72.77 860.4,-31.44 891.95,-53.96 984.18,-36.77 1003.99,-33.08 1026.28,-28.62 1043.33,-25.14"/>
<polygon fill="green" stroke="green" stroke-width="0.8" points="1044.11,-28.55 1053.21,-23.12 1042.71,-21.69 1044.11,-28.55"/>
</g>
<!-- 4 -->
<g id="node4" class="node">
<title>4</title>
<polygon fill="lightgray" stroke="black" points="363.68,-172.92 342.68,-172.92 342.68,-154.92 363.68,-154.92 363.68,-172.92"/>
<text text-anchor="middle" x="353.18" y="-161.72" font-family="Times,serif" font-size="9.00">4</text>
</g>
<!-- 4&#45;&gt;13 -->
<g id="edge13" class="edge">
<title>4&#45;&gt;13</title>
<path fill="none" stroke="green" stroke-width="0.8" d="M354.91,-154.72C359.14,-136.87 371.69,-94.39 399.18,-72.77 457.36,-27.01 548.56,-19.52 594.58,-18.87"/>
<polygon fill="green" stroke="green" stroke-width="0.8" points="594.74,-22.37 604.73,-18.83 594.72,-15.37 594.74,-22.37"/>
</g>
<!-- 4&#45;&gt;18 -->
<g id="edge14" class="edge">
<title>4&#45;&gt;18</title>
<path fill="none" stroke="green" stroke-width="0.8" d="M342.96,-154.78C331.95,-145.28 315.08,-128.44 308.18,-109.54 300.52,-88.57 305.53,-63.38 311.59,-44.96"/>
<polygon fill="green" stroke="green" stroke-width="0.8" points="314.9,-46.08 314.99,-35.49 308.31,-43.72 314.9,-46.08"/>
</g>
<!-- 4&#45;&gt;15 -->
<g id="edge15" class="edge">
<title>4&#45;&gt;15</title>
<path fill="none" stroke="green" stroke-width="0.8" d="M360.15,-154.84C363.68,-151.34 368.24,-147.58 373.18,-145.54 481.66,-100.71 799.35,-169.65 900.18,-109.54 913.02,-101.88 932.36,-67.98 944.87,-44.02"/>
<polygon fill="green" stroke="green" stroke-width="0.8" points="948.01,-45.57 949.47,-35.08 941.78,-42.37 948.01,-45.57"/>
</g>
<!-- 4&#45;&gt;16 -->
<g id="edge16" class="edge">
<title>4&#45;&gt;16</title>
<path fill="none" stroke="green" stroke-width="0.8" d="M360.15,-154.83C363.67,-151.33 368.24,-147.57 373.18,-145.54 601.37,-51.68 692.36,-185.31 927.18,-109.54 975.05,-94.09 1023.04,-59.22 1049.75,-37.65"/>
<polygon fill="green" stroke="green" stroke-width="0.8" points="1052.15,-40.21 1057.65,-31.16 1047.7,-34.81 1052.15,-40.21"/>
</g>
<!-- 14 -->
<g id="node17" class="node">
<title>14</title>
<ellipse fill="white" stroke="black" cx="238.18" cy="-91.15" rx="18.27" ry="18.27"/>
<text text-anchor="middle" x="238.18" y="-88.95" font-family="Times,serif" font-size="9.00">14</text>
</g>
<!-- 4&#45;&gt;14 -->
<g id="edge62" class="edge">
<title>4&#45;&gt;14</title>
<path fill="none" stroke="green" stroke-width="0.8" d="M342.56,-156.39C324.42,-145.23 287,-122.2 262.25,-106.97"/>
<polygon fill="green" stroke="green" stroke-width="0.8" points="263.8,-103.81 253.45,-101.55 260.13,-109.77 263.8,-103.81"/>
</g>
<!-- 5 -->
<g id="node5" class="node">
<title>5</title>
<polygon fill="lightgray" stroke="black" points="656.68,-172.92 635.68,-172.92 635.68,-154.92 656.68,-154.92 656.68,-172.92"/>
<text text-anchor="middle" x="646.18" y="-161.72" font-family="Times,serif" font-size="9.00">5</text>
</g>
<!-- 5&#45;&gt;13 -->
<g id="edge17" class="edge">
<title>5&#45;&gt;13</title>
<path fill="none" stroke="green" stroke-width="0.8" d="M644.87,-154.8C641.6,-134.35 632.9,-80.06 627.56,-46.76"/>
<polygon fill="green" stroke="green" stroke-width="0.8" points="631,-46.08 625.96,-36.76 624.09,-47.19 631,-46.08"/>
</g>
<!-- 5&#45;&gt;18 -->
<g id="edge18" class="edge">
<title>5&#45;&gt;18</title>
<path fill="none" stroke="green" stroke-width="0.8" d="M639.72,-154.72C625.22,-136.87 588.08,-94.37 547.18,-72.77 482.07,-38.39 394.79,-25.87 350.51,-21.54"/>
<polygon fill="green" stroke="green" stroke-width="0.8" points="350.74,-18.04 340.47,-20.62 350.11,-25.01 350.74,-18.04"/>
</g>
<!-- 5&#45;&gt;15 -->
<g id="edge19" class="edge">
<title>5&#45;&gt;15</title>
<path fill="none" stroke="green" stroke-width="0.8" d="M655.26,-154.88C659.74,-151.39 665.41,-147.63 671.18,-145.54 758.01,-114.12 1022.77,-177.61 1085.18,-109.54 1096.22,-97.49 1094.24,-86.37 1085.18,-72.77 1063.08,-39.61 1016.06,-27.01 985.58,-22.25"/>
<polygon fill="green" stroke="green" stroke-width="0.8" points="985.94,-18.77 975.55,-20.87 984.98,-25.7 985.94,-18.77"/>
</g>
<!-- 5&#45;&gt;16 -->
<g id="edge20" class="edge">
<title>5&#45;&gt;16</title>
<path fill="none" stroke="green" stroke-width="0.8" d="M656.74,-159.39C669.15,-155.38 690.42,-148.96 709.18,-145.54 752.32,-137.68 1072.62,-141.93 1102.18,-109.54 1119.75,-90.28 1103.96,-60.6 1089.22,-40.6"/>
<polygon fill="green" stroke="green" stroke-width="0.8" points="1091.96,-38.43 1083.06,-32.69 1086.44,-42.73 1091.96,-38.43"/>
</g>
<!-- 20 -->
<g id="node20" class="node">
<title>20</title>
<ellipse fill="white" stroke="black" cx="520.18" cy="-91.15" rx="18.27" ry="18.27"/>
<text text-anchor="middle" x="520.18" y="-88.95" font-family="Times,serif" font-size="9.00">20</text>
</g>
<!-- 5&#45;&gt;20 -->
<g id="edge56" class="edge">
<title>5&#45;&gt;20</title>
<path fill="none" stroke="green" stroke-width="0.8" d="M637.62,-154.61C634.22,-151.54 630.17,-148.18 626.18,-145.54 595.67,-125.37 584.7,-126.27 552.18,-109.54 549.86,-108.35 547.47,-107.09 545.08,-105.82"/>
<polygon fill="green" stroke="green" stroke-width="0.8" points="546.52,-102.62 536.05,-100.96 543.2,-108.79 546.52,-102.62"/>
</g>
<!-- 6 -->
<g id="node6" class="node">
<title>6</title>
<polygon fill="lightgray" stroke="black" points="710.68,-236.31 689.68,-236.31 689.68,-218.31 710.68,-218.31 710.68,-236.31"/>
<text text-anchor="middle" x="700.18" y="-225.11" font-family="Times,serif" font-size="9.00">6</text>
</g>
<!-- 6&#45;&gt;13 -->
<g id="edge21" class="edge">
<title>6&#45;&gt;13</title>
<path fill="none" stroke="green" stroke-width="0.8" d="M700.79,-218.1C702.21,-194.19 703.85,-123.15 678.18,-72.77 670.69,-58.08 657.56,-45.1 646.01,-35.62"/>
<polygon fill="green" stroke="green" stroke-width="0.8" points="648.02,-32.75 637.98,-29.36 643.72,-38.27 648.02,-32.75"/>
</g>
<!-- 6&#45;&gt;18 -->
<g id="edge22" class="edge">
<title>6&#45;&gt;18</title>
<path fill="none" stroke="green" stroke-width="0.8" d="M689.58,-225.3C633.02,-219.9 367.87,-194.14 333.18,-182.31 273.42,-161.94 242.35,-164.44 211.18,-109.54 203.11,-95.33 202.48,-86.6 211.18,-72.77 229.26,-44 267.66,-30.38 294.19,-24.18"/>
<polygon fill="green" stroke="green" stroke-width="0.8" points="295,-27.59 304.05,-22.09 293.54,-20.74 295,-27.59"/>
</g>
<!-- 6&#45;&gt;15 -->
<g id="edge23" class="edge">
<title>6&#45;&gt;15</title>
<path fill="none" stroke="green" stroke-width="0.8" d="M710.87,-226.04C796.25,-223.83 1364.91,-208.18 1389.18,-182.31 1422.49,-146.8 1421.77,-108.94 1389.18,-72.77 1337.58,-15.51 1120.39,-48.33 1044.18,-36.77 1024.25,-33.75 1001.97,-29.27 984.94,-25.62"/>
<polygon fill="green" stroke="green" stroke-width="0.8" points="985.6,-22.18 975.09,-23.47 984.11,-29.02 985.6,-22.18"/>
</g>
<!-- 6&#45;&gt;16 -->
<g id="edge24" class="edge">
<title>6&#45;&gt;16</title>
<path fill="none" stroke="green" stroke-width="0.8" d="M710.84,-226.2C794.89,-225.28 1349.04,-217.85 1413.18,-182.31 1447.95,-163.04 1453.04,-147.39 1465.18,-109.54 1470.17,-93.98 1475.93,-85.08 1465.18,-72.77 1441.09,-45.2 1186.28,-26.66 1099.75,-21.12"/>
<polygon fill="green" stroke="green" stroke-width="0.8" points="1099.8,-17.61 1089.6,-20.48 1099.36,-24.6 1099.8,-17.61"/>
</g>
<!-- 17 -->
<g id="node18" class="node">
<title>17</title>
<ellipse fill="white" stroke="black" cx="517.18" cy="-163.92" rx="18.27" ry="18.27"/>
<text text-anchor="middle" x="517.18" y="-161.72" font-family="Times,serif" font-size="9.00">17</text>
</g>
<!-- 6&#45;&gt;17 -->
<g id="edge58" class="edge">
<title>6&#45;&gt;17</title>
<path fill="none" stroke="green" stroke-width="0.8" d="M689.66,-224.06C664.71,-218.56 600.18,-203.31 549.18,-182.31 546.77,-181.32 544.31,-180.2 541.88,-179.01"/>
<polygon fill="green" stroke="green" stroke-width="0.8" points="543.29,-175.8 532.8,-174.28 540.05,-182.01 543.29,-175.8"/>
</g>
<!-- 6&#45;&gt;20 -->
<g id="edge57" class="edge">
<title>6&#45;&gt;20</title>
<path fill="none" stroke="green" stroke-width="0.8" d="M689.67,-224.6C667.71,-220.58 616.13,-208.81 582.18,-182.31 560.04,-165.03 542.8,-137.65 532.18,-117.59"/>
<polygon fill="green" stroke="green" stroke-width="0.8" points="535.16,-115.74 527.5,-108.41 528.92,-118.91 535.16,-115.74"/>
</g>
<!-- 7 -->
<g id="node7" class="node">
<title>7</title>
<polygon fill="lightgray" stroke="black" points="467.68,-236.31 446.68,-236.31 446.68,-218.31 467.68,-218.31 467.68,-236.31"/>
<text text-anchor="middle" x="457.18" y="-225.11" font-family="Times,serif" font-size="9.00">7</text>
</g>
<!-- 7&#45;&gt;13 -->
<g id="edge25" class="edge">
<title>7&#45;&gt;13</title>
<path fill="none" stroke="green" stroke-width="0.8" d="M456.67,-218.18C455.55,-193.25 455.53,-116.95 493.18,-72.77 519.11,-42.34 565.11,-28.99 594.86,-23.33"/>
<polygon fill="green" stroke="green" stroke-width="0.8" points="595.76,-26.72 605.02,-21.57 594.57,-19.82 595.76,-26.72"/>
</g>
<!-- 7&#45;&gt;18 -->
<g id="edge26" class="edge">
<title>7&#45;&gt;18</title>
<path fill="none" stroke="green" stroke-width="0.8" d="M446.35,-225.88C387.32,-223.45 106.19,-210.42 81.18,-182.31 67.07,-166.45 73.54,-90.33 89.18,-72.77 116.14,-42.49 237.7,-27.33 293.73,-21.85"/>
<polygon fill="green" stroke="green" stroke-width="0.8" points="294.07,-25.34 303.7,-20.91 293.42,-18.37 294.07,-25.34"/>
</g>
<!-- 7&#45;&gt;15 -->
<g id="edge27" class="edge">
<title>7&#45;&gt;15</title>
<path fill="none" stroke="green" stroke-width="0.8" d="M467.69,-225.55C556.85,-219.04 1184.06,-171.2 1237.18,-109.54 1338.08,7.59 1309.54,-88.03 1044.18,-36.77 1024.39,-32.95 1002.1,-28.49 985.04,-25.05"/>
<polygon fill="green" stroke="green" stroke-width="0.8" points="985.65,-21.6 975.16,-23.05 984.27,-28.46 985.65,-21.6"/>
</g>
<!-- 7&#45;&gt;16 -->
<g id="edge28" class="edge">
<title>7&#45;&gt;16</title>
<path fill="none" stroke="green" stroke-width="0.8" d="M468.02,-225.52C546.64,-219.8 1026.45,-184.81 1041.18,-182.31 1164.55,-161.35 1236.98,-208.8 1313.18,-109.54 1369.9,-35.64 1175.12,-22.31 1099.74,-19.91"/>
<polygon fill="green" stroke="green" stroke-width="0.8" points="1099.62,-16.41 1089.52,-19.63 1099.42,-23.4 1099.62,-16.41"/>
</g>
<!-- 7&#45;&gt;14 -->
<g id="edge52" class="edge">
<title>7&#45;&gt;14</title>
<path fill="none" stroke="green" stroke-width="0.8" d="M446.66,-226.19C418.53,-225.36 340.34,-219.62 291.18,-182.31 269.8,-166.08 255.44,-138.54 247.12,-118.16"/>
<polygon fill="green" stroke="green" stroke-width="0.8" points="250.38,-116.88 243.52,-108.81 243.85,-119.4 250.38,-116.88"/>
</g>
<!-- 7&#45;&gt;17 -->
<g id="edge61" class="edge">
<title>7&#45;&gt;17</title>
<path fill="none" stroke="green" stroke-width="0.8" d="M465.02,-218.28C473.18,-209.94 486.27,-196.55 497.29,-185.27"/>
<polygon fill="green" stroke="green" stroke-width="0.8" points="500.02,-187.48 504.51,-177.88 495.02,-182.59 500.02,-187.48"/>
</g>
<!-- 8 -->
<g id="node8" class="node">
<title>8</title>
<polygon fill="lightgray" stroke="black" points="599.68,-236.31 578.68,-236.31 578.68,-218.31 599.68,-218.31 599.68,-236.31"/>
<text text-anchor="middle" x="589.18" y="-225.11" font-family="Times,serif" font-size="9.00">8</text>
</g>
<!-- 8&#45;&gt;13 -->
<g id="edge29" class="edge">
<title>8&#45;&gt;13</title>
<path fill="none" stroke="green" stroke-width="0.8" d="M599.94,-223.75C617.31,-218.97 651.01,-206.88 665.18,-182.31 691.32,-136.97 660.3,-75.3 639.32,-42.36"/>
<polygon fill="green" stroke="green" stroke-width="0.8" points="642.15,-40.29 633.73,-33.87 636.31,-44.14 642.15,-40.29"/>
</g>
<!-- 8&#45;&gt;18 -->
<g id="edge30" class="edge">
<title>8&#45;&gt;18</title>
<path fill="none" stroke="green" stroke-width="0.8" d="M578.58,-225.57C515.53,-221.14 192.03,-197.72 178.18,-182.31 145.64,-146.1 150.37,-112.73 178.18,-72.77 204.15,-35.44 259.42,-24.16 293.43,-20.78"/>
<polygon fill="green" stroke="green" stroke-width="0.8" points="293.98,-24.25 303.66,-19.94 293.41,-17.27 293.98,-24.25"/>
</g>
<!-- 8&#45;&gt;15 -->
<g id="edge31" class="edge">
<title>8&#45;&gt;15</title>
<path fill="none" stroke="green" stroke-width="0.8" d="M599.71,-225.33C682.68,-217.51 1229.1,-164.12 1275.18,-109.54 1388.25,24.41 1438.99,-106.95 1044.18,-36.77 1024.33,-33.24 1002.05,-28.78 985,-25.26"/>
<polygon fill="green" stroke="green" stroke-width="0.8" points="985.63,-21.82 975.13,-23.2 984.21,-28.67 985.63,-21.82"/>
</g>
<!-- 8&#45;&gt;16 -->
<g id="edge32" class="edge">
<title>8&#45;&gt;16</title>
<path fill="none" stroke="green" stroke-width="0.8" d="M599.82,-225.37C616.81,-223.87 651.11,-220.85 680.18,-218.31 820.83,-206 1224.05,-224.39 1306.18,-109.54 1358.64,-36.17 1173.74,-22.51 1100.13,-19.96"/>
<polygon fill="green" stroke="green" stroke-width="0.8" points="1099.82,-16.45 1089.72,-19.65 1099.61,-23.45 1099.82,-16.45"/>
</g>
<!-- 8&#45;&gt;14 -->
<g id="edge49" class="edge">
<title>8&#45;&gt;14</title>
<path fill="none" stroke="green" stroke-width="0.8" d="M578.63,-225.32C536.14,-221.21 377.72,-204.64 333.18,-182.31 324.29,-177.85 283.2,-137.4 258.06,-112.22"/>
<polygon fill="green" stroke="green" stroke-width="0.8" points="260.36,-109.57 250.82,-104.95 255.4,-114.51 260.36,-109.57"/>
</g>
<!-- 8&#45;&gt;17 -->
<g id="edge63" class="edge">
<title>8&#45;&gt;17</title>
<path fill="none" stroke="green" stroke-width="0.8" d="M579.76,-218.28C569.41,-209.46 552.43,-194.98 538.76,-183.33"/>
<polygon fill="green" stroke="green" stroke-width="0.8" points="540.65,-180.34 530.77,-176.51 536.11,-185.67 540.65,-180.34"/>
</g>
<!-- 9 -->
<g id="node9" class="node">
<title>9</title>
<polygon fill="lightgray" stroke="black" points="806.68,-100.15 785.68,-100.15 785.68,-82.15 806.68,-82.15 806.68,-100.15"/>
<text text-anchor="middle" x="796.18" y="-88.95" font-family="Times,serif" font-size="9.00">9</text>
</g>
<!-- 9&#45;&gt;13 -->
<g id="edge33" class="edge">
<title>9&#45;&gt;13</title>
<path fill="none" stroke="green" stroke-width="0.8" d="M788.16,-81.94C784.71,-78.75 780.47,-75.26 776.18,-72.77 735.51,-49.18 682.74,-33.64 651,-25.69"/>
<polygon fill="green" stroke="green" stroke-width="0.8" points="651.63,-22.24 641.09,-23.29 649.98,-29.05 651.63,-22.24"/>
</g>
<!-- 9&#45;&gt;18 -->
<g id="edge34" class="edge">
<title>9&#45;&gt;18</title>
<path fill="none" stroke="green" stroke-width="0.8" d="M788.78,-81.82C785.31,-78.44 780.89,-74.85 776.18,-72.77 699.17,-38.72 437.95,-24.44 350.77,-20.55"/>
<polygon fill="green" stroke="green" stroke-width="0.8" points="350.71,-17.04 340.56,-20.11 350.4,-24.04 350.71,-17.04"/>
</g>
<!-- 9&#45;&gt;15 -->
<g id="edge35" class="edge">
<title>9&#45;&gt;15</title>
<path fill="none" stroke="green" stroke-width="0.8" d="M804.22,-82C807.69,-78.81 811.91,-75.32 816.18,-72.77 852.79,-50.88 899.94,-35.23 929.36,-26.74"/>
<polygon fill="green" stroke="green" stroke-width="0.8" points="930.67,-30.01 939.35,-23.94 928.78,-23.27 930.67,-30.01"/>
</g>
<!-- 9&#45;&gt;16 -->
<g id="edge36" class="edge">
<title>9&#45;&gt;16</title>
<path fill="none" stroke="green" stroke-width="0.8" d="M803.66,-82.02C807.16,-78.68 811.56,-75.06 816.18,-72.77 821.31,-70.22 978.21,-38.23 1043.3,-25.03"/>
<polygon fill="green" stroke="green" stroke-width="0.8" points="1044.17,-28.42 1053.28,-23.01 1042.78,-21.56 1044.17,-28.42"/>
</g>
<!-- 10 -->
<g id="node10" class="node">
<title>10</title>
<polygon fill="lightgray" stroke="black" points="617.18,-172.92 591.18,-172.92 591.18,-154.92 617.18,-154.92 617.18,-172.92"/>
<text text-anchor="middle" x="604.18" y="-161.72" font-family="Times,serif" font-size="9.00">10</text>
</g>
<!-- 10&#45;&gt;13 -->
<g id="edge37" class="edge">
<title>10&#45;&gt;13</title>
<path fill="none" stroke="green" stroke-width="0.8" d="M605.25,-154.8C607.96,-134.35 615.14,-80.06 619.55,-46.76"/>
<polygon fill="green" stroke="green" stroke-width="0.8" points="623.03,-47.13 620.88,-36.76 616.09,-46.21 623.03,-47.13"/>
</g>
<!-- 10&#45;&gt;18 -->
<g id="edge38" class="edge">
<title>10&#45;&gt;18</title>
<path fill="none" stroke="green" stroke-width="0.8" d="M591.11,-156.83C570.28,-147.08 528.31,-127.24 493.18,-109.54 440.8,-83.15 380.25,-50.78 347.09,-32.89"/>
<polygon fill="green" stroke="green" stroke-width="0.8" points="348.57,-29.71 338.11,-28.03 345.24,-35.87 348.57,-29.71"/>
</g>
<!-- 10&#45;&gt;15 -->
<g id="edge39" class="edge">
<title>10&#45;&gt;15</title>
<path fill="none" stroke="green" stroke-width="0.8" d="M612.03,-154.92C615.94,-151.44 620.95,-147.67 626.18,-145.54 697.58,-116.49 919.58,-166.8 971.18,-109.54 987.12,-91.84 979.5,-63.82 970.5,-43.72"/>
<polygon fill="green" stroke="green" stroke-width="0.8" points="973.58,-42.04 966.07,-34.57 967.28,-45.09 973.58,-42.04"/>
</g>
<!-- 10&#45;&gt;16 -->
<g id="edge40" class="edge">
<title>10&#45;&gt;16</title>
<path fill="none" stroke="green" stroke-width="0.8" d="M612.02,-154.91C615.93,-151.42 620.94,-147.65 626.18,-145.54 776.51,-84.83 844.32,-182.35 989.18,-109.54 1018.62,-94.74 1042.59,-64.58 1056.85,-43.22"/>
<polygon fill="green" stroke="green" stroke-width="0.8" points="1059.88,-44.98 1062.35,-34.68 1053.99,-41.19 1059.88,-44.98"/>
</g>
<!-- 10&#45;&gt;20 -->
<g id="edge53" class="edge">
<title>10&#45;&gt;20</title>
<path fill="none" stroke="green" stroke-width="0.8" d="M594.54,-154.81C581.73,-144.01 558.72,-124.62 541.67,-110.26"/>
<polygon fill="green" stroke="green" stroke-width="0.8" points="543.76,-107.45 533.86,-103.68 539.25,-112.8 543.76,-107.45"/>
</g>
<!-- 11 -->
<g id="node11" class="node">
<title>11</title>
<polygon fill="lightgray" stroke="black" points="408.18,-172.92 382.18,-172.92 382.18,-154.92 408.18,-154.92 408.18,-172.92"/>
<text text-anchor="middle" x="395.18" y="-161.72" font-family="Times,serif" font-size="9.00">11</text>
</g>
<!-- 11&#45;&gt;13 -->
<g id="edge41" class="edge">
<title>11&#45;&gt;13</title>
<path fill="none" stroke="green" stroke-width="0.8" d="M395.12,-154.87C395.46,-137.32 398.83,-95.4 422.18,-72.77 469.38,-27.02 551.11,-19.34 594.38,-18.72"/>
<polygon fill="green" stroke="green" stroke-width="0.8" points="594.52,-22.22 604.51,-18.7 594.5,-15.22 594.52,-22.22"/>
</g>
<!-- 11&#45;&gt;18 -->
<g id="edge42" class="edge">
<title>11&#45;&gt;18</title>
<path fill="none" stroke="green" stroke-width="0.8" d="M391.04,-154.8C380.39,-133.85 351.67,-77.38 334.88,-44.35"/>
<polygon fill="green" stroke="green" stroke-width="0.8" points="337.93,-42.64 330.28,-35.32 331.69,-45.82 337.93,-42.64"/>
</g>
<!-- 11&#45;&gt;15 -->
<g id="edge43" class="edge">
<title>11&#45;&gt;15</title>
<path fill="none" stroke="green" stroke-width="0.8" d="M408.33,-160.09C426.6,-156.24 460.75,-149.42 490.18,-145.54 539.14,-139.09 895.27,-141.2 933.18,-109.54 951.17,-94.51 956.49,-67.65 957.71,-47.14"/>
<polygon fill="green" stroke="green" stroke-width="0.8" points="961.21,-47.2 958.03,-37.1 954.22,-46.98 961.21,-47.2"/>
</g>
<!-- 11&#45;&gt;16 -->
<g id="edge44" class="edge">
<title>11&#45;&gt;16</title>
<path fill="none" stroke="green" stroke-width="0.8" d="M408.32,-160.04C426.59,-156.14 460.73,-149.24 490.18,-145.54 604.88,-131.11 908.78,-166.86 1009.18,-109.54 1034.1,-95.31 1051.2,-66.48 1061.03,-45.23"/>
<polygon fill="green" stroke="green" stroke-width="0.8" points="1064.35,-46.36 1065.15,-35.8 1057.94,-43.56 1064.35,-46.36"/>
</g>
<!-- 11&#45;&gt;14 -->
<g id="edge64" class="edge">
<title>11&#45;&gt;14</title>
<path fill="none" stroke="green" stroke-width="0.8" d="M385.73,-154.87C381.72,-151.7 376.89,-148.19 372.18,-145.54 337.16,-125.81 293.38,-109.83 265.59,-100.66"/>
<polygon fill="green" stroke="green" stroke-width="0.8" points="266.37,-97.23 255.77,-97.49 264.21,-103.89 266.37,-97.23"/>
</g>
<!-- 12 -->
<g id="node12" class="node">
<title>12</title>
<polygon fill="lightgray" stroke="black" points="851.18,-100.15 825.18,-100.15 825.18,-82.15 851.18,-82.15 851.18,-100.15"/>
<text text-anchor="middle" x="838.18" y="-88.95" font-family="Times,serif" font-size="9.00">12</text>
</g>
<!-- 12&#45;&gt;13 -->
<g id="edge45" class="edge">
<title>12&#45;&gt;13</title>
<path fill="none" stroke="green" stroke-width="0.8" d="M829.32,-81.83C825.51,-78.61 820.87,-75.15 816.18,-72.77 761.34,-44.96 690.15,-30.09 651.38,-23.56"/>
<polygon fill="green" stroke="green" stroke-width="0.8" points="651.77,-20.08 641.34,-21.94 650.65,-26.99 651.77,-20.08"/>
</g>
<!-- 12&#45;&gt;18 -->
<g id="edge46" class="edge">
<title>12&#45;&gt;18</title>
<path fill="none" stroke="green" stroke-width="0.8" d="M829.92,-81.8C826.06,-78.42 821.22,-74.83 816.18,-72.77 772.93,-55.09 449.14,-29.1 350.57,-21.53"/>
<polygon fill="green" stroke="green" stroke-width="0.8" points="350.7,-18.03 340.46,-20.76 350.16,-25.01 350.7,-18.03"/>
</g>
<!-- 12&#45;&gt;15 -->
<g id="edge47" class="edge">
<title>12&#45;&gt;15</title>
<path fill="none" stroke="green" stroke-width="0.8" d="M848.26,-82.05C852.2,-79.01 856.81,-75.61 861.18,-72.77 884.52,-57.56 912.49,-42.33 932.19,-32.05"/>
<polygon fill="green" stroke="green" stroke-width="0.8" points="933.87,-35.12 941.15,-27.42 930.66,-28.9 933.87,-35.12"/>
</g>
<!-- 12&#45;&gt;16 -->
<g id="edge48" class="edge">
<title>12&#45;&gt;16</title>
<path fill="none" stroke="green" stroke-width="0.8" d="M847.03,-82.15C851.09,-78.83 856.12,-75.2 861.18,-72.77 893.47,-57.24 994.01,-35.26 1043.33,-25.03"/>
<polygon fill="green" stroke="green" stroke-width="0.8" points="1044.22,-28.42 1053.31,-22.97 1042.81,-21.56 1044.22,-28.42"/>
</g>
<!-- 14&#45;&gt;13 -->
<g id="edge51" class="edge">
<title>14&#45;&gt;13</title>
<path fill="none" stroke="green" stroke-width="0.8" d="M256.23,-86.84C317.87,-75.51 520.3,-38.29 595.09,-24.55"/>
<polygon fill="green" stroke="green" stroke-width="0.8" points="595.96,-27.95 605.16,-22.7 594.69,-21.06 595.96,-27.95"/>
</g>
<!-- 14&#45;&gt;18 -->
<g id="edge50" class="edge">
<title>14&#45;&gt;18</title>
<path fill="none" stroke="green" stroke-width="0.8" d="M252.05,-78.47C265.26,-67.34 285.34,-50.42 300.63,-37.53"/>
<polygon fill="green" stroke="green" stroke-width="0.8" points="303.17,-39.97 308.56,-30.85 298.66,-34.62 303.17,-39.97"/>
</g>
<!-- 17&#45;&gt;20 -->
<g id="edge59" class="edge">
<title>17&#45;&gt;20</title>
<path fill="none" stroke="green" stroke-width="0.8" d="M517.92,-145.43C518.24,-137.75 518.63,-128.54 519,-119.95"/>
<polygon fill="green" stroke="green" stroke-width="0.8" points="522.5,-120.08 519.42,-109.94 515.5,-119.78 522.5,-120.08"/>
</g>
<!-- 19&#45;&gt;18 -->
<g id="edge67" class="edge">
<title>19&#45;&gt;18</title>
<path fill="none" stroke="green" stroke-width="0.8" d="M101.15,-146.68C93.84,-127 85.6,-93.85 102.18,-72.77 125.7,-42.85 239.53,-27.65 293.58,-22.02"/>
<polygon fill="green" stroke="green" stroke-width="0.8" points="294.24,-25.47 303.85,-20.99 293.55,-18.5 294.24,-25.47"/>
</g>
<!-- 19&#45;&gt;20 -->
<g id="edge66" class="edge">
<title>19&#45;&gt;20</title>
<path fill="none" stroke="green" stroke-width="0.8" d="M126.14,-159.84C190.93,-148.71 412.89,-110.58 491.94,-97"/>
<polygon fill="green" stroke="green" stroke-width="0.8" points="492.85,-100.4 502.11,-95.26 491.67,-93.5 492.85,-100.4"/>
</g>
<!-- 20&#45;&gt;13 -->
<g id="edge55" class="edge">
<title>20&#45;&gt;13</title>
<path fill="none" stroke="green" stroke-width="0.8" d="M534.93,-80.01C551.91,-68.35 580.01,-49.04 599.94,-35.35"/>
<polygon fill="green" stroke="green" stroke-width="0.8" points="602.19,-38.05 608.45,-29.51 598.22,-32.28 602.19,-38.05"/>
</g>
<!-- 20&#45;&gt;18 -->
<g id="edge54" class="edge">
<title>20&#45;&gt;18</title>
<path fill="none" stroke="green" stroke-width="0.8" d="M504.52,-80.89C499.41,-78.07 493.64,-75.11 488.18,-72.77 440.96,-52.56 383.43,-35.69 349.98,-26.61"/>
<polygon fill="green" stroke="green" stroke-width="0.8" points="350.58,-23.15 340.02,-23.94 348.77,-29.91 350.58,-23.15"/>
</g>
<!-- 20&#45;&gt;15 -->
<g id="edge60" class="edge">
<title>20&#45;&gt;15</title>
<path fill="none" stroke="green" stroke-width="0.8" d="M538.4,-87.2C606.49,-76.18 846.31,-37.34 928.95,-23.96"/>
<polygon fill="green" stroke="green" stroke-width="0.8" points="929.57,-27.4 938.88,-22.35 928.45,-20.49 929.57,-27.4"/>
</g>
</g>
</svg>
