<?xml version="1.0" encoding="UTF-8" standalone="no"?>
<!DOCTYPE svg PUBLIC "-//W3C//DTD SVG 1.1//EN"
 "http://www.w3.org/Graphics/SVG/1.1/DTD/svg11.dtd">
<!-- Generated by graphviz version 3.0.0 (20220226.1711)
 -->
<!-- Pages: 1 -->
<svg width="2727pt" height="317pt"
 viewBox="0.00 0.00 2727.16 317.08" xmlns="http://www.w3.org/2000/svg" xmlns:xlink="http://www.w3.org/1999/xlink">
<g id="graph0" class="graph" transform="scale(1 1) rotate(0) translate(4 313.08)">
<polygon fill="white" stroke="transparent" points="-4,4 -4,-313.08 2723.16,-313.08 2723.16,4 -4,4"/>
<!-- 1 -->
<g id="node1" class="node">
<title>1</title>
<polygon fill="lightgray" stroke="black" points="1089.72,-309.08 1068.72,-309.08 1068.72,-291.08 1089.72,-291.08 1089.72,-309.08"/>
<text text-anchor="middle" x="1079.22" y="-297.88" font-family="Times,serif" font-size="9.00">1</text>
</g>
<!-- 26 -->
<g id="node19" class="node">
<title>26</title>
<ellipse fill="lightblue" stroke="black" cx="871.22" cy="-18.38" rx="18.27" ry="18.27"/>
<text text-anchor="middle" x="871.22" y="-16.18" font-family="Times,serif" font-size="9.00">26</text>
</g>
<!-- 1&#45;&gt;26 -->
<g id="edge1" class="edge">
<title>1&#45;&gt;26</title>
<path fill="none" stroke="green" stroke-width="0.8" d="M1068.37,-296.95C1058.47,-295.09 1043.42,-292.48 1030.22,-291.08 870.7,-274.13 458.92,-312.74 309.22,-255.08 261.54,-236.71 242.11,-228.48 220.22,-182.31 198.99,-137.52 202.9,-104.22 241.22,-72.77 253.04,-63.07 721.38,-29.83 842.74,-21.36"/>
<polygon fill="green" stroke="green" stroke-width="0.8" points="843.02,-24.85 852.76,-20.66 842.54,-17.86 843.02,-24.85"/>
</g>
<!-- 20 -->
<g id="node20" class="node">
<title>20</title>
<ellipse fill="lightblue" stroke="black" cx="1925.22" cy="-18.38" rx="18.27" ry="18.27"/>
<text text-anchor="middle" x="1925.22" y="-16.18" font-family="Times,serif" font-size="9.00">20</text>
</g>
<!-- 1&#45;&gt;20 -->
<g id="edge2" class="edge">
<title>1&#45;&gt;20</title>
<path fill="none" stroke="green" stroke-width="0.8" d="M1090.07,-298.99C1228.59,-297.84 2647.77,-285.35 2677.22,-255.08 2733.72,-197 2732.45,-132.06 2677.22,-72.77 2627.11,-18.97 2085.69,-18.49 1953.98,-19.17"/>
<polygon fill="green" stroke="green" stroke-width="0.8" points="1953.84,-15.67 1943.86,-19.23 1953.88,-22.67 1953.84,-15.67"/>
</g>
<!-- 25 -->
<g id="node21" class="node">
<title>25</title>
<ellipse fill="lightblue" stroke="black" cx="1735.22" cy="-18.38" rx="18.27" ry="18.27"/>
<text text-anchor="middle" x="1735.22" y="-16.18" font-family="Times,serif" font-size="9.00">25</text>
</g>
<!-- 1&#45;&gt;25 -->
<g id="edge3" class="edge">
<title>1&#45;&gt;25</title>
<path fill="none" stroke="green" stroke-width="0.8" d="M1089.96,-298.98C1224.26,-297.68 2573.22,-283.9 2601.22,-255.08 2658.89,-195.71 2632.82,-117.56 2563.22,-72.77 2501,-32.73 1971.98,-42.7 1898.22,-36.77 1851.07,-32.98 1796.43,-26.78 1763.91,-22.9"/>
<polygon fill="green" stroke="green" stroke-width="0.8" points="1764.12,-19.4 1753.77,-21.68 1763.28,-26.35 1764.12,-19.4"/>
</g>
<!-- 22 -->
<g id="node22" class="node">
<title>22</title>
<ellipse fill="lightblue" stroke="black" cx="1545.22" cy="-18.38" rx="18.27" ry="18.27"/>
<text text-anchor="middle" x="1545.22" y="-16.18" font-family="Times,serif" font-size="9.00">22</text>
</g>
<!-- 1&#45;&gt;22 -->
<g id="edge4" class="edge">
<title>1&#45;&gt;22</title>
<path fill="none" stroke="green" stroke-width="0.8" d="M1090.1,-299.15C1215.54,-299.98 2384.65,-306.29 2434.22,-255.08 2468.08,-220.1 2459.73,-187.01 2434.22,-145.54 2396.65,-84.46 2359.43,-91.54 2290.22,-72.77 2040.1,-4.93 1966.47,-58.52 1708.22,-36.77 1661.09,-32.8 1606.45,-26.66 1573.91,-22.84"/>
<polygon fill="green" stroke="green" stroke-width="0.8" points="1574.12,-19.33 1563.77,-21.64 1573.29,-26.29 1574.12,-19.33"/>
</g>
<!-- 23 -->
<g id="node23" class="node">
<title>23</title>
<ellipse fill="lightblue" stroke="black" cx="567.22" cy="-18.38" rx="18.27" ry="18.27"/>
<text text-anchor="middle" x="567.22" y="-16.18" font-family="Times,serif" font-size="9.00">23</text>
</g>
<!-- 1&#45;&gt;23 -->
<g id="edge5" class="edge">
<title>1&#45;&gt;23</title>
<path fill="none" stroke="green" stroke-width="0.8" d="M1068.37,-296.93C1058.47,-295.07 1043.42,-292.45 1030.22,-291.08 942.71,-281.97 319.17,-291.8 239.22,-255.08 158.49,-218 134.97,-192.12 102.22,-109.54 96.2,-94.35 91.34,-84.97 102.22,-72.77 131.38,-40.07 441.49,-24.57 538.43,-20.51"/>
<polygon fill="green" stroke="green" stroke-width="0.8" points="538.81,-23.99 548.66,-20.09 538.52,-17 538.81,-23.99"/>
</g>
<!-- 24 -->
<g id="node24" class="node">
<title>24</title>
<ellipse fill="lightblue" stroke="black" cx="1080.22" cy="-18.38" rx="18.27" ry="18.27"/>
<text text-anchor="middle" x="1080.22" y="-16.18" font-family="Times,serif" font-size="9.00">24</text>
</g>
<!-- 1&#45;&gt;24 -->
<g id="edge6" class="edge">
<title>1&#45;&gt;24</title>
<path fill="none" stroke="green" stroke-width="0.8" d="M1080.18,-290.98C1081.17,-282.17 1082.65,-267.64 1083.22,-255.08 1083.96,-238.75 1084.12,-234.63 1083.22,-218.31 1079.66,-153.5 1065.81,-137.45 1071.22,-72.77 1071.94,-64.21 1073.29,-54.95 1074.73,-46.59"/>
<polygon fill="green" stroke="green" stroke-width="0.8" points="1078.2,-47.07 1076.57,-36.6 1071.32,-45.81 1078.2,-47.07"/>
</g>
<!-- 19 -->
<g id="node25" class="node">
<title>19</title>
<ellipse fill="white" stroke="black" cx="1056.22" cy="-236.69" rx="18.27" ry="18.27"/>
<text text-anchor="middle" x="1056.22" y="-234.49" font-family="Times,serif" font-size="9.00">19</text>
</g>
<!-- 1&#45;&gt;19 -->
<g id="edge120" class="edge">
<title>1&#45;&gt;19</title>
<path fill="none" stroke="green" stroke-width="0.8" d="M1076.21,-291.05C1073.6,-284.08 1069.67,-273.59 1065.98,-263.74"/>
<polygon fill="green" stroke="green" stroke-width="0.8" points="1069.22,-262.41 1062.43,-254.27 1062.66,-264.86 1069.22,-262.41"/>
</g>
<!-- 21 -->
<g id="node26" class="node">
<title>21</title>
<ellipse fill="white" stroke="black" cx="331.22" cy="-163.92" rx="18.27" ry="18.27"/>
<text text-anchor="middle" x="331.22" y="-161.72" font-family="Times,serif" font-size="9.00">21</text>
</g>
<!-- 1&#45;&gt;21 -->
<g id="edge122" class="edge">
<title>1&#45;&gt;21</title>
<path fill="none" stroke="green" stroke-width="0.8" d="M1068.71,-297.36C1058.78,-295.74 1043.49,-293.24 1030.22,-291.08 733.78,-242.71 647.41,-279.54 363.22,-182.31 360.62,-181.42 357.98,-180.33 355.38,-179.13"/>
<polygon fill="green" stroke="green" stroke-width="0.8" points="356.86,-175.96 346.37,-174.51 353.66,-182.18 356.86,-175.96"/>
</g>
<!-- 2 -->
<g id="node2" class="node">
<title>2</title>
<polygon fill="lightgray" stroke="black" points="981.72,-245.69 960.72,-245.69 960.72,-227.69 981.72,-227.69 981.72,-245.69"/>
<text text-anchor="middle" x="971.22" y="-234.49" font-family="Times,serif" font-size="9.00">2</text>
</g>
<!-- 2&#45;&gt;26 -->
<g id="edge7" class="edge">
<title>2&#45;&gt;26</title>
<path fill="none" stroke="green" stroke-width="0.8" d="M960.27,-232.32C946.92,-228.34 923.63,-221.83 903.22,-218.31 729.5,-188.38 671.57,-248.58 508.22,-182.31 460.55,-162.97 440.38,-155.96 418.22,-109.54 411.18,-94.79 407.36,-84.98 418.22,-72.77 446.56,-40.89 748.05,-24.86 842.85,-20.58"/>
<polygon fill="green" stroke="green" stroke-width="0.8" points="843.03,-24.08 852.87,-20.14 842.72,-17.08 843.03,-24.08"/>
</g>
<!-- 2&#45;&gt;20 -->
<g id="edge8" class="edge">
<title>2&#45;&gt;20</title>
<path fill="none" stroke="green" stroke-width="0.8" d="M982.14,-231.49C993.65,-227.28 1012.41,-221.04 1029.22,-218.31 1092.26,-208.05 2129.35,-223.42 2178.22,-182.31 2215.82,-150.67 2224.39,-110.76 2193.22,-72.77 2163.14,-36.1 2016.58,-24.15 1953.83,-20.67"/>
<polygon fill="green" stroke="green" stroke-width="0.8" points="1953.98,-17.17 1943.81,-20.15 1953.62,-24.16 1953.98,-17.17"/>
</g>
<!-- 2&#45;&gt;25 -->
<g id="edge9" class="edge">
<title>2&#45;&gt;25</title>
<path fill="none" stroke="green" stroke-width="0.8" d="M982.14,-231.49C993.65,-227.28 1012.41,-221.05 1029.22,-218.31 1090.66,-208.29 2099.84,-220.22 2149.22,-182.31 2188.61,-152.07 2204.13,-109.95 2171.22,-72.77 2164.41,-65.07 1859.58,-32.45 1763.74,-22.37"/>
<polygon fill="green" stroke="green" stroke-width="0.8" points="1763.93,-18.87 1753.62,-21.3 1763.2,-25.83 1763.93,-18.87"/>
</g>
<!-- 2&#45;&gt;22 -->
<g id="edge10" class="edge">
<title>2&#45;&gt;22</title>
<path fill="none" stroke="green" stroke-width="0.8" d="M982.14,-231.5C993.65,-227.29 1012.41,-221.06 1029.22,-218.31 1148.48,-198.8 2015.37,-248.88 2116.22,-182.31 2158.76,-154.23 2184.77,-110.25 2150.22,-72.77 2116.82,-36.54 1757.28,-41.38 1708.22,-36.77 1661.13,-32.34 1606.47,-26.33 1573.93,-22.67"/>
<polygon fill="green" stroke="green" stroke-width="0.8" points="1574.11,-19.16 1563.78,-21.52 1573.33,-26.12 1574.11,-19.16"/>
</g>
<!-- 2&#45;&gt;23 -->
<g id="edge11" class="edge">
<title>2&#45;&gt;23</title>
<path fill="none" stroke="green" stroke-width="0.8" d="M960.28,-232.25C946.95,-228.21 923.67,-221.63 903.22,-218.31 792.82,-200.39 504.68,-224.78 401.22,-182.31 377.96,-172.76 380.36,-157.46 358.22,-145.54 307.32,-118.13 267.99,-155.73 233.22,-109.54 223.39,-96.48 222.62,-85.2 233.22,-72.77 272.46,-26.77 464.69,-20.23 538.39,-19.43"/>
<polygon fill="green" stroke="green" stroke-width="0.8" points="538.79,-22.93 548.77,-19.35 538.74,-15.93 538.79,-22.93"/>
</g>
<!-- 2&#45;&gt;24 -->
<g id="edge12" class="edge">
<title>2&#45;&gt;24</title>
<path fill="none" stroke="green" stroke-width="0.8" d="M971.22,-227.48C971.6,-202.23 975.6,-124.35 1009.22,-72.77 1020.52,-55.44 1039.47,-41.61 1054.96,-32.37"/>
<polygon fill="green" stroke="green" stroke-width="0.8" points="1057.07,-35.2 1064.05,-27.23 1053.62,-29.11 1057.07,-35.2"/>
</g>
<!-- 2&#45;&gt;21 -->
<g id="edge125" class="edge">
<title>2&#45;&gt;21</title>
<path fill="none" stroke="green" stroke-width="0.8" d="M960.28,-232.23C946.95,-228.17 923.68,-221.58 903.22,-218.31 665.7,-180.36 594.24,-249.27 363.22,-182.31 360.58,-181.54 357.91,-180.54 355.3,-179.39"/>
<polygon fill="green" stroke="green" stroke-width="0.8" points="356.77,-176.21 346.26,-174.83 353.61,-182.46 356.77,-176.21"/>
</g>
<!-- 3 -->
<g id="node3" class="node">
<title>3</title>
<polygon fill="lightgray" stroke="black" points="1396.72,-100.15 1375.72,-100.15 1375.72,-82.15 1396.72,-82.15 1396.72,-100.15"/>
<text text-anchor="middle" x="1386.22" y="-88.95" font-family="Times,serif" font-size="9.00">3</text>
</g>
<!-- 3&#45;&gt;26 -->
<g id="edge13" class="edge">
<title>3&#45;&gt;26</title>
<path fill="none" stroke="green" stroke-width="0.8" d="M1379.28,-81.8C1375.99,-78.42 1371.78,-74.83 1367.22,-72.77 1356.45,-67.91 1003.46,-32.53 899.66,-22.2"/>
<polygon fill="green" stroke="green" stroke-width="0.8" points="899.9,-18.71 889.6,-21.2 899.2,-25.68 899.9,-18.71"/>
</g>
<!-- 3&#45;&gt;20 -->
<g id="edge14" class="edge">
<title>3&#45;&gt;20</title>
<path fill="none" stroke="green" stroke-width="0.8" d="M1393.23,-82.14C1396.76,-78.66 1401.32,-74.89 1406.22,-72.77 1552.19,-9.65 1604.04,-53.2 1762.22,-36.77 1809.27,-31.88 1863.94,-26.01 1896.49,-22.5"/>
<polygon fill="green" stroke="green" stroke-width="0.8" points="1897.08,-25.95 1906.65,-21.4 1896.33,-18.99 1897.08,-25.95"/>
</g>
<!-- 3&#45;&gt;25 -->
<g id="edge15" class="edge">
<title>3&#45;&gt;25</title>
<path fill="none" stroke="green" stroke-width="0.8" d="M1393.66,-81.92C1397.14,-78.56 1401.55,-74.96 1406.22,-72.77 1459.69,-47.72 1636.99,-28.68 1706.71,-21.99"/>
<polygon fill="green" stroke="green" stroke-width="0.8" points="1707.32,-25.45 1716.94,-21.02 1706.66,-18.48 1707.32,-25.45"/>
</g>
<!-- 3&#45;&gt;22 -->
<g id="edge16" class="edge">
<title>3&#45;&gt;22</title>
<path fill="none" stroke="green" stroke-width="0.8" d="M1394.28,-82.01C1397.74,-78.82 1401.96,-75.33 1406.22,-72.77 1442.33,-51.07 1488.8,-35.36 1517.81,-26.81"/>
<polygon fill="green" stroke="green" stroke-width="0.8" points="1519,-30.11 1527.65,-23.99 1517.07,-23.38 1519,-30.11"/>
</g>
<!-- 3&#45;&gt;23 -->
<g id="edge17" class="edge">
<title>3&#45;&gt;23</title>
<path fill="none" stroke="green" stroke-width="0.8" d="M1379.67,-82.07C1376.34,-78.57 1371.99,-74.81 1367.22,-72.77 1358.15,-68.89 737.02,-29.97 595.64,-21.15"/>
<polygon fill="green" stroke="green" stroke-width="0.8" points="595.79,-17.66 585.59,-20.53 595.35,-24.64 595.79,-17.66"/>
</g>
<!-- 3&#45;&gt;24 -->
<g id="edge18" class="edge">
<title>3&#45;&gt;24</title>
<path fill="none" stroke="green" stroke-width="0.8" d="M1379.2,-81.96C1375.9,-78.61 1371.7,-75 1367.22,-72.77 1280.23,-29.4 1162.5,-21.05 1108.91,-19.59"/>
<polygon fill="green" stroke="green" stroke-width="0.8" points="1108.85,-16.09 1098.78,-19.38 1108.71,-23.09 1108.85,-16.09"/>
</g>
<!-- 4 -->
<g id="node4" class="node">
<title>4</title>
<polygon fill="lightgray" stroke="black" points="1357.72,-100.15 1336.72,-100.15 1336.72,-82.15 1357.72,-82.15 1357.72,-100.15"/>
<text text-anchor="middle" x="1347.22" y="-88.95" font-family="Times,serif" font-size="9.00">4</text>
</g>
<!-- 4&#45;&gt;26 -->
<g id="edge19" class="edge">
<title>4&#45;&gt;26</title>
<path fill="none" stroke="green" stroke-width="0.8" d="M1340.27,-81.82C1336.98,-78.44 1332.78,-74.85 1328.22,-72.77 1308.61,-63.81 996.95,-31.98 899.87,-22.24"/>
<polygon fill="green" stroke="green" stroke-width="0.8" points="899.92,-18.73 889.63,-21.22 899.23,-25.69 899.92,-18.73"/>
</g>
<!-- 4&#45;&gt;20 -->
<g id="edge20" class="edge">
<title>4&#45;&gt;20</title>
<path fill="none" stroke="green" stroke-width="0.8" d="M1354.22,-82.12C1357.75,-78.63 1362.31,-74.86 1367.22,-72.77 1448.29,-38.18 1674.51,-45.44 1762.22,-36.77 1809.29,-32.11 1863.95,-26.18 1896.5,-22.58"/>
<polygon fill="green" stroke="green" stroke-width="0.8" points="1897.1,-26.04 1906.65,-21.46 1896.33,-19.08 1897.1,-26.04"/>
</g>
<!-- 4&#45;&gt;25 -->
<g id="edge21" class="edge">
<title>4&#45;&gt;25</title>
<path fill="none" stroke="green" stroke-width="0.8" d="M1354.64,-81.88C1358.12,-78.51 1362.54,-74.92 1367.22,-72.77 1398.04,-58.64 1626.07,-31.75 1706.91,-22.56"/>
<polygon fill="green" stroke="green" stroke-width="0.8" points="1707.33,-26.03 1716.88,-21.43 1706.54,-19.08 1707.33,-26.03"/>
</g>
<!-- 4&#45;&gt;22 -->
<g id="edge22" class="edge">
<title>4&#45;&gt;22</title>
<path fill="none" stroke="green" stroke-width="0.8" d="M1355.18,-81.84C1358.63,-78.64 1362.87,-75.17 1367.22,-72.77 1416.35,-45.71 1480.83,-30.78 1517.17,-23.99"/>
<polygon fill="green" stroke="green" stroke-width="0.8" points="1517.84,-27.43 1527.06,-22.21 1516.6,-20.54 1517.84,-27.43"/>
</g>
<!-- 4&#45;&gt;23 -->
<g id="edge23" class="edge">
<title>4&#45;&gt;23</title>
<path fill="none" stroke="green" stroke-width="0.8" d="M1340.66,-82.08C1337.33,-78.58 1332.99,-74.82 1328.22,-72.77 1319.63,-69.08 733.72,-30.34 595.98,-21.27"/>
<polygon fill="green" stroke="green" stroke-width="0.8" points="596.01,-17.77 585.8,-20.6 595.55,-24.75 596.01,-17.77"/>
</g>
<!-- 4&#45;&gt;24 -->
<g id="edge24" class="edge">
<title>4&#45;&gt;24</title>
<path fill="none" stroke="green" stroke-width="0.8" d="M1340.17,-82.02C1336.86,-78.68 1332.67,-75.07 1328.22,-72.77 1255.24,-35.1 1157,-23.98 1109.01,-20.72"/>
<polygon fill="green" stroke="green" stroke-width="0.8" points="1108.95,-17.21 1098.75,-20.1 1108.52,-24.2 1108.95,-17.21"/>
</g>
<!-- 5 -->
<g id="node5" class="node">
<title>5</title>
<polygon fill="lightgray" stroke="black" points="894.72,-245.69 873.72,-245.69 873.72,-227.69 894.72,-227.69 894.72,-245.69"/>
<text text-anchor="middle" x="884.22" y="-234.49" font-family="Times,serif" font-size="9.00">5</text>
</g>
<!-- 5&#45;&gt;26 -->
<g id="edge25" class="edge">
<title>5&#45;&gt;26</title>
<path fill="none" stroke="green" stroke-width="0.8" d="M873.63,-235.38C826.42,-233.77 630.74,-224.73 477.22,-182.31 438.01,-171.47 331.55,-143.55 309.22,-109.54 300.25,-95.88 298.23,-84.86 309.22,-72.77 327.39,-52.79 730.87,-27.64 842.71,-21.03"/>
<polygon fill="green" stroke="green" stroke-width="0.8" points="843.11,-24.52 852.89,-20.44 842.7,-17.53 843.11,-24.52"/>
</g>
<!-- 5&#45;&gt;20 -->
<g id="edge26" class="edge">
<title>5&#45;&gt;20</title>
<path fill="none" stroke="green" stroke-width="0.8" d="M894.98,-232.1C908.09,-227.92 931,-221.2 951.22,-218.31 1017.14,-208.89 2096.36,-222.8 2149.22,-182.31 2188.64,-152.11 2202.39,-111.43 2171.22,-72.77 2144.17,-39.22 2012.79,-25.68 1953.89,-21.23"/>
<polygon fill="green" stroke="green" stroke-width="0.8" points="1954,-17.73 1943.78,-20.5 1953.5,-24.71 1954,-17.73"/>
</g>
<!-- 5&#45;&gt;25 -->
<g id="edge27" class="edge">
<title>5&#45;&gt;25</title>
<path fill="none" stroke="green" stroke-width="0.8" d="M894.98,-232.11C908.09,-227.92 931,-221.21 951.22,-218.31 1015.32,-209.12 2062.14,-217.92 2116.22,-182.31 2158.8,-154.27 2183.89,-111.04 2150.22,-72.77 2143.78,-65.45 1856.12,-32.84 1763.58,-22.53"/>
<polygon fill="green" stroke="green" stroke-width="0.8" points="1763.86,-19.04 1753.53,-21.41 1763.08,-25.99 1763.86,-19.04"/>
</g>
<!-- 5&#45;&gt;22 -->
<g id="edge28" class="edge">
<title>5&#45;&gt;22</title>
<path fill="none" stroke="green" stroke-width="0.8" d="M894.76,-230.15C926.54,-213.76 1024.62,-165.37 1112.22,-145.54 1169.03,-132.68 1595.47,-152.12 1635.22,-109.54 1646.37,-97.59 1643.31,-86.97 1635.22,-72.77 1621.87,-49.33 1593.73,-35.12 1572.45,-27.32"/>
<polygon fill="green" stroke="green" stroke-width="0.8" points="1573.53,-23.99 1562.94,-24.09 1571.28,-30.62 1573.53,-23.99"/>
</g>
<!-- 5&#45;&gt;23 -->
<g id="edge29" class="edge">
<title>5&#45;&gt;23</title>
<path fill="none" stroke="green" stroke-width="0.8" d="M873.6,-235.85C789.86,-236.81 237.11,-238.24 157.22,-109.54 148.6,-95.65 146.44,-85.05 157.22,-72.77 182.46,-44.03 449.81,-26.15 538.68,-20.96"/>
<polygon fill="green" stroke="green" stroke-width="0.8" points="539.05,-24.44 548.84,-20.38 538.65,-17.45 539.05,-24.44"/>
</g>
<!-- 5&#45;&gt;24 -->
<g id="edge30" class="edge">
<title>5&#45;&gt;24</title>
<path fill="none" stroke="green" stroke-width="0.8" d="M873.68,-231.38C857.4,-224.06 826.7,-207.51 814.22,-182.31 806.97,-167.66 808.11,-160.7 814.22,-145.54 852.15,-51.4 991.29,-27.4 1051.8,-21.37"/>
<polygon fill="green" stroke="green" stroke-width="0.8" points="1052.16,-24.85 1061.81,-20.47 1051.54,-17.88 1052.16,-24.85"/>
</g>
<!-- 5&#45;&gt;21 -->
<g id="edge128" class="edge">
<title>5&#45;&gt;21</title>
<path fill="none" stroke="green" stroke-width="0.8" d="M873.59,-234.86C803.9,-229.34 413.82,-197.95 363.22,-182.31 360.59,-181.5 357.93,-180.46 355.33,-179.29"/>
<polygon fill="green" stroke="green" stroke-width="0.8" points="356.8,-176.11 346.3,-174.71 353.63,-182.36 356.8,-176.11"/>
</g>
<!-- 27 -->
<g id="node27" class="node">
<title>27</title>
<ellipse fill="white" stroke="black" cx="2123.22" cy="-91.15" rx="18.27" ry="18.27"/>
<text text-anchor="middle" x="2123.22" y="-88.95" font-family="Times,serif" font-size="9.00">27</text>
</g>
<!-- 5&#45;&gt;27 -->
<g id="edge115" class="edge">
<title>5&#45;&gt;27</title>
<path fill="none" stroke="green" stroke-width="0.8" d="M894.98,-232.11C908.09,-227.93 931,-221.21 951.22,-218.31 1013.94,-209.3 2040.04,-219.67 2091.22,-182.31 2110.75,-168.05 2118.42,-140.84 2121.4,-120.03"/>
<polygon fill="green" stroke="green" stroke-width="0.8" points="2124.9,-120.17 2122.57,-109.83 2117.95,-119.37 2124.9,-120.17"/>
</g>
<!-- 6 -->
<g id="node6" class="node">
<title>6</title>
<polygon fill="lightgray" stroke="black" points="1318.72,-100.15 1297.72,-100.15 1297.72,-82.15 1318.72,-82.15 1318.72,-100.15"/>
<text text-anchor="middle" x="1308.22" y="-88.95" font-family="Times,serif" font-size="9.00">6</text>
</g>
<!-- 6&#45;&gt;26 -->
<g id="edge31" class="edge">
<title>6&#45;&gt;26</title>
<path fill="none" stroke="green" stroke-width="0.8" d="M1300.82,-81.84C1297.34,-78.47 1292.92,-74.88 1288.22,-72.77 1252.78,-56.88 987.95,-30.5 899.72,-22.07"/>
<polygon fill="green" stroke="green" stroke-width="0.8" points="899.92,-18.57 889.63,-21.11 899.26,-25.54 899.92,-18.57"/>
</g>
<!-- 6&#45;&gt;20 -->
<g id="edge32" class="edge">
<title>6&#45;&gt;20</title>
<path fill="none" stroke="green" stroke-width="0.8" d="M1315.21,-82.1C1318.74,-78.61 1323.3,-74.84 1328.22,-72.77 1417.39,-35.16 1665.88,-45.9 1762.22,-36.77 1809.31,-32.31 1863.97,-26.31 1896.51,-22.65"/>
<polygon fill="green" stroke="green" stroke-width="0.8" points="1897.11,-26.11 1906.66,-21.51 1896.33,-19.15 1897.11,-26.11"/>
</g>
<!-- 6&#45;&gt;25 -->
<g id="edge33" class="edge">
<title>6&#45;&gt;25</title>
<path fill="none" stroke="green" stroke-width="0.8" d="M1315.63,-81.85C1319.11,-78.48 1323.52,-74.88 1328.22,-72.77 1345.59,-64.95 1617.84,-32.95 1707.11,-22.62"/>
<polygon fill="green" stroke="green" stroke-width="0.8" points="1707.53,-26.09 1717.06,-21.47 1706.73,-19.14 1707.53,-26.09"/>
</g>
<!-- 6&#45;&gt;22 -->
<g id="edge34" class="edge">
<title>6&#45;&gt;22</title>
<path fill="none" stroke="green" stroke-width="0.8" d="M1315.74,-82.09C1319.25,-78.77 1323.65,-75.14 1328.22,-72.77 1390.77,-40.33 1473.78,-27.05 1516.74,-22.07"/>
<polygon fill="green" stroke="green" stroke-width="0.8" points="1517.21,-25.54 1526.77,-20.98 1516.45,-18.58 1517.21,-25.54"/>
</g>
<!-- 6&#45;&gt;23 -->
<g id="edge35" class="edge">
<title>6&#45;&gt;23</title>
<path fill="none" stroke="green" stroke-width="0.8" d="M1301.24,-82.08C1297.72,-78.58 1293.15,-74.82 1288.22,-72.77 1271.93,-65.98 727.67,-29.91 595.79,-21.25"/>
<polygon fill="green" stroke="green" stroke-width="0.8" points="595.87,-17.75 585.67,-20.59 595.41,-24.74 595.87,-17.75"/>
</g>
<!-- 6&#45;&gt;24 -->
<g id="edge36" class="edge">
<title>6&#45;&gt;24</title>
<path fill="none" stroke="green" stroke-width="0.8" d="M1300.69,-82.11C1297.18,-78.79 1292.78,-75.16 1288.22,-72.77 1228.7,-41.53 1149.84,-27.81 1108.41,-22.43"/>
<polygon fill="green" stroke="green" stroke-width="0.8" points="1108.83,-18.96 1098.48,-21.21 1107.98,-25.91 1108.83,-18.96"/>
</g>
<!-- 7 -->
<g id="node7" class="node">
<title>7</title>
<polygon fill="lightgray" stroke="black" points="844.72,-172.92 823.72,-172.92 823.72,-154.92 844.72,-154.92 844.72,-172.92"/>
<text text-anchor="middle" x="834.22" y="-161.72" font-family="Times,serif" font-size="9.00">7</text>
</g>
<!-- 7&#45;&gt;26 -->
<g id="edge37" class="edge">
<title>7&#45;&gt;26</title>
<path fill="none" stroke="green" stroke-width="0.8" d="M834.95,-154.83C836.52,-138.88 840.78,-102.37 849.22,-72.77 851.9,-63.38 855.72,-53.42 859.43,-44.67"/>
<polygon fill="green" stroke="green" stroke-width="0.8" points="862.68,-45.96 863.5,-35.4 856.28,-43.15 862.68,-45.96"/>
</g>
<!-- 7&#45;&gt;20 -->
<g id="edge38" class="edge">
<title>7&#45;&gt;20</title>
<path fill="none" stroke="green" stroke-width="0.8" d="M845.09,-158.12C855.05,-153.96 870.32,-148.21 884.22,-145.54 1056.57,-112.37 1512.06,-179.06 1673.22,-109.54 1694.8,-100.23 1690.67,-84.17 1711.22,-72.77 1772.02,-39.02 1854.26,-26.29 1896.91,-21.74"/>
<polygon fill="green" stroke="green" stroke-width="0.8" points="1897.26,-25.22 1906.87,-20.75 1896.57,-18.26 1897.26,-25.22"/>
</g>
<!-- 7&#45;&gt;25 -->
<g id="edge39" class="edge">
<title>7&#45;&gt;25</title>
<path fill="none" stroke="green" stroke-width="0.8" d="M845.1,-158.16C855.06,-154.03 870.34,-148.29 884.22,-145.54 1159.32,-90.96 1240.66,-171.35 1514.22,-109.54 1588.71,-92.71 1670.49,-53.38 1710.46,-32.68"/>
<polygon fill="green" stroke="green" stroke-width="0.8" points="1712.23,-35.7 1719.46,-27.96 1708.98,-29.5 1712.23,-35.7"/>
</g>
<!-- 7&#45;&gt;22 -->
<g id="edge40" class="edge">
<title>7&#45;&gt;22</title>
<path fill="none" stroke="green" stroke-width="0.8" d="M845.1,-158.16C855.07,-154.04 870.34,-148.31 884.22,-145.54 1014.98,-119.4 1367.11,-175.13 1483.22,-109.54 1508.21,-95.42 1525.3,-66.57 1535.1,-45.29"/>
<polygon fill="green" stroke="green" stroke-width="0.8" points="1538.44,-46.41 1539.22,-35.84 1532.02,-43.61 1538.44,-46.41"/>
</g>
<!-- 7&#45;&gt;23 -->
<g id="edge41" class="edge">
<title>7&#45;&gt;23</title>
<path fill="none" stroke="green" stroke-width="0.8" d="M823.49,-162.63C776.39,-161.08 588.61,-152.28 553.22,-109.54 538.12,-91.3 545.43,-63.61 554.13,-43.73"/>
<polygon fill="green" stroke="green" stroke-width="0.8" points="557.3,-45.21 558.42,-34.67 550.98,-42.21 557.3,-45.21"/>
</g>
<!-- 7&#45;&gt;24 -->
<g id="edge42" class="edge">
<title>7&#45;&gt;24</title>
<path fill="none" stroke="green" stroke-width="0.8" d="M841.28,-154.83C856.72,-137.56 895.32,-96.73 935.22,-72.77 973.07,-50.04 1022.19,-34.47 1052.44,-26.25"/>
<polygon fill="green" stroke="green" stroke-width="0.8" points="1053.53,-29.58 1062.31,-23.65 1051.74,-22.81 1053.53,-29.58"/>
</g>
<!-- 29 -->
<g id="node29" class="node">
<title>29</title>
<ellipse fill="white" stroke="black" cx="445.22" cy="-91.15" rx="18.27" ry="18.27"/>
<text text-anchor="middle" x="445.22" y="-88.95" font-family="Times,serif" font-size="9.00">29</text>
</g>
<!-- 7&#45;&gt;29 -->
<g id="edge119" class="edge">
<title>7&#45;&gt;29</title>
<path fill="none" stroke="green" stroke-width="0.8" d="M823.69,-162.68C779.96,-161.38 608.85,-153.61 477.22,-109.54 474.61,-108.67 471.97,-107.59 469.37,-106.4"/>
<polygon fill="green" stroke="green" stroke-width="0.8" points="470.85,-103.22 460.35,-101.78 467.66,-109.45 470.85,-103.22"/>
</g>
<!-- 8 -->
<g id="node8" class="node">
<title>8</title>
<polygon fill="lightgray" stroke="black" points="1020.72,-309.08 999.72,-309.08 999.72,-291.08 1020.72,-291.08 1020.72,-309.08"/>
<text text-anchor="middle" x="1010.22" y="-297.88" font-family="Times,serif" font-size="9.00">8</text>
</g>
<!-- 8&#45;&gt;26 -->
<g id="edge43" class="edge">
<title>8&#45;&gt;26</title>
<path fill="none" stroke="green" stroke-width="0.8" d="M999.72,-298.84C920.14,-297.01 411.17,-284.28 260.22,-255.08 160.35,-235.76 102.62,-264.88 43.22,-182.31 14.79,-142.79 9.92,-108.28 43.22,-72.77 44.1,-71.84 696.33,-30.46 842.42,-21.21"/>
<polygon fill="green" stroke="green" stroke-width="0.8" points="843.03,-24.68 852.79,-20.55 842.59,-17.69 843.03,-24.68"/>
</g>
<!-- 8&#45;&gt;20 -->
<g id="edge44" class="edge">
<title>8&#45;&gt;20</title>
<path fill="none" stroke="green" stroke-width="0.8" d="M1020.9,-296.95C1030.99,-295.03 1046.56,-292.34 1060.22,-291.08 1137.97,-283.89 2394.24,-287.62 2465.22,-255.08 2544.6,-218.68 2565.78,-191.01 2597.22,-109.54 2603.1,-94.29 2608.31,-84.77 2597.22,-72.77 2552.99,-24.89 2076.85,-19.91 1954,-19.43"/>
<polygon fill="green" stroke="green" stroke-width="0.8" points="1953.88,-15.93 1943.87,-19.4 1953.86,-22.93 1953.88,-15.93"/>
</g>
<!-- 8&#45;&gt;25 -->
<g id="edge45" class="edge">
<title>8&#45;&gt;25</title>
<path fill="none" stroke="green" stroke-width="0.8" d="M1020.9,-296.95C1030.99,-295.04 1046.57,-292.34 1060.22,-291.08 1136.25,-284.03 2370.83,-297.65 2434.22,-255.08 2501.57,-209.85 2507.04,-122.85 2443.22,-72.77 2395.48,-35.31 1958.68,-41.99 1898.22,-36.77 1851.09,-32.7 1796.45,-26.59 1763.92,-22.8"/>
<polygon fill="green" stroke="green" stroke-width="0.8" points="1764.12,-19.3 1753.78,-21.61 1763.3,-26.25 1764.12,-19.3"/>
</g>
<!-- 8&#45;&gt;22 -->
<g id="edge46" class="edge">
<title>8&#45;&gt;22</title>
<path fill="none" stroke="green" stroke-width="0.8" d="M1009.48,-291.04C1008.46,-274.74 1008.68,-237.68 1029.22,-218.31 1233.67,-25.42 1471.37,-324.7 1652.22,-109.54 1662.74,-97.03 1660.82,-86.67 1652.22,-72.77 1635.13,-45.15 1598.97,-31.35 1573.43,-24.79"/>
<polygon fill="green" stroke="green" stroke-width="0.8" points="1574.09,-21.35 1563.55,-22.48 1572.49,-28.17 1574.09,-21.35"/>
</g>
<!-- 8&#45;&gt;23 -->
<g id="edge47" class="edge">
<title>8&#45;&gt;23</title>
<path fill="none" stroke="green" stroke-width="0.8" d="M999.54,-299.12C901.57,-299.44 161.11,-300.37 75.22,-255.08 39.36,-236.17 33.64,-220.56 20.22,-182.31 4.1,-136.36 -14.5,-108.83 18.22,-72.77 53.49,-33.9 430.94,-22.45 538.67,-19.97"/>
<polygon fill="green" stroke="green" stroke-width="0.8" points="538.87,-23.46 548.79,-19.74 538.71,-16.47 538.87,-23.46"/>
</g>
<!-- 8&#45;&gt;24 -->
<g id="edge48" class="edge">
<title>8&#45;&gt;24</title>
<path fill="none" stroke="green" stroke-width="0.8" d="M999.49,-298.84C911.26,-296.87 307.96,-282.42 282.22,-255.08 248.85,-219.63 268.68,-192.3 282.22,-145.54 292.86,-108.79 295.31,-92.28 328.22,-72.77 382.81,-40.41 834.96,-41.79 898.22,-36.77 952.56,-32.46 1015.9,-26.11 1051.71,-22.39"/>
<polygon fill="green" stroke="green" stroke-width="0.8" points="1052.31,-25.85 1061.9,-21.33 1051.59,-18.89 1052.31,-25.85"/>
</g>
<!-- 8&#45;&gt;19 -->
<g id="edge126" class="edge">
<title>8&#45;&gt;19</title>
<path fill="none" stroke="green" stroke-width="0.8" d="M1016.23,-291.05C1022.08,-283.26 1031.22,-271.05 1039.29,-260.28"/>
<polygon fill="green" stroke="green" stroke-width="0.8" points="1042.25,-262.17 1045.45,-252.07 1036.65,-257.97 1042.25,-262.17"/>
</g>
<!-- 28 -->
<g id="node28" class="node">
<title>28</title>
<ellipse fill="white" stroke="black" cx="2389.22" cy="-163.92" rx="18.27" ry="18.27"/>
<text text-anchor="middle" x="2389.22" y="-161.72" font-family="Times,serif" font-size="9.00">28</text>
</g>
<!-- 8&#45;&gt;28 -->
<g id="edge127" class="edge">
<title>8&#45;&gt;28</title>
<path fill="none" stroke="green" stroke-width="0.8" d="M1020.92,-297.13C1031.02,-295.34 1046.61,-292.74 1060.22,-291.08 1634.45,-221.16 1803.02,-348.09 2357.22,-182.31 2359.86,-181.52 2362.52,-180.5 2365.13,-179.34"/>
<polygon fill="green" stroke="green" stroke-width="0.8" points="2366.82,-182.41 2374.16,-174.77 2363.66,-176.16 2366.82,-182.41"/>
</g>
<!-- 8&#45;&gt;29 -->
<g id="edge131" class="edge">
<title>8&#45;&gt;29</title>
<path fill="none" stroke="green" stroke-width="0.8" d="M999.53,-299.24C915.28,-300.37 360.35,-305.91 309.22,-255.08 274.66,-220.72 276.53,-185.64 304.22,-145.54 329.45,-109 383.16,-97.45 416.52,-93.81"/>
<polygon fill="green" stroke="green" stroke-width="0.8" points="416.94,-97.28 426.58,-92.88 416.3,-90.31 416.94,-97.28"/>
</g>
<!-- 9 -->
<g id="node9" class="node">
<title>9</title>
<polygon fill="lightgray" stroke="black" points="606.72,-172.92 585.72,-172.92 585.72,-154.92 606.72,-154.92 606.72,-172.92"/>
<text text-anchor="middle" x="596.22" y="-161.72" font-family="Times,serif" font-size="9.00">9</text>
</g>
<!-- 9&#45;&gt;26 -->
<g id="edge49" class="edge">
<title>9&#45;&gt;26</title>
<path fill="none" stroke="green" stroke-width="0.8" d="M592.52,-154.82C585.25,-137.54 571.44,-96.68 591.22,-72.77 622.91,-34.47 777.27,-23.41 842.27,-20.42"/>
<polygon fill="green" stroke="green" stroke-width="0.8" points="842.78,-23.9 852.62,-19.98 842.48,-16.91 842.78,-23.9"/>
</g>
<!-- 9&#45;&gt;20 -->
<g id="edge50" class="edge">
<title>9&#45;&gt;20</title>
<path fill="none" stroke="green" stroke-width="0.8" d="M607.1,-161.96C638.94,-159.15 734.67,-150.86 814.22,-145.54 1109.99,-125.76 1186.17,-147.07 1480.22,-109.54 1522.2,-104.18 1806.89,-44.37 1897.55,-25.24"/>
<polygon fill="green" stroke="green" stroke-width="0.8" points="1898.32,-28.65 1907.38,-23.16 1896.87,-21.8 1898.32,-28.65"/>
</g>
<!-- 9&#45;&gt;22 -->
<g id="edge51" class="edge">
<title>9&#45;&gt;22</title>
<path fill="none" stroke="green" stroke-width="0.8" d="M607.1,-161.97C638.94,-159.19 734.67,-150.96 814.22,-145.54 884.84,-140.73 1386.42,-140.2 1450.22,-109.54 1470.01,-100.03 1467.53,-88.14 1483.22,-72.77 1495.92,-60.33 1511.01,-47.3 1523.13,-37.22"/>
<polygon fill="green" stroke="green" stroke-width="0.8" points="1525.48,-39.82 1530.98,-30.77 1521.03,-34.42 1525.48,-39.82"/>
</g>
<!-- 9&#45;&gt;23 -->
<g id="edge52" class="edge">
<title>9&#45;&gt;23</title>
<path fill="none" stroke="green" stroke-width="0.8" d="M585.58,-161.4C550.4,-156.11 438.92,-137.36 418.22,-109.54 408.47,-96.43 408.81,-86.13 418.22,-72.77 445.53,-33.98 503.77,-23.23 538.8,-20.34"/>
<polygon fill="green" stroke="green" stroke-width="0.8" points="539.12,-23.83 548.87,-19.67 538.66,-16.84 539.12,-23.83"/>
</g>
<!-- 9&#45;&gt;24 -->
<g id="edge53" class="edge">
<title>9&#45;&gt;24</title>
<path fill="none" stroke="green" stroke-width="0.8" d="M607.03,-156.32C634.84,-139.62 711.58,-95.47 781.22,-72.77 877.61,-41.35 997.86,-27.02 1051.77,-21.82"/>
<polygon fill="green" stroke="green" stroke-width="0.8" points="1052.3,-25.29 1061.93,-20.88 1051.65,-18.32 1052.3,-25.29"/>
</g>
<!-- 9&#45;&gt;29 -->
<g id="edge107" class="edge">
<title>9&#45;&gt;29</title>
<path fill="none" stroke="green" stroke-width="0.8" d="M585.57,-157.44C578.68,-153.94 569.47,-149.35 561.22,-145.54 524.35,-128.5 513.77,-127.25 477.22,-109.54 474.88,-108.41 472.47,-107.19 470.06,-105.94"/>
<polygon fill="green" stroke="green" stroke-width="0.8" points="471.49,-102.74 461.02,-101.11 468.2,-108.91 471.49,-102.74"/>
</g>
<!-- 10 -->
<g id="node10" class="node">
<title>10</title>
<polygon fill="lightgray" stroke="black" points="344.22,-245.69 318.22,-245.69 318.22,-227.69 344.22,-227.69 344.22,-245.69"/>
<text text-anchor="middle" x="331.22" y="-234.49" font-family="Times,serif" font-size="9.00">10</text>
</g>
<!-- 10&#45;&gt;26 -->
<g id="edge54" class="edge">
<title>10&#45;&gt;26</title>
<path fill="none" stroke="green" stroke-width="0.8" d="M318.09,-233.02C295.95,-227.74 251.82,-213.62 233.22,-182.31 204.31,-133.64 247.68,-98.27 298.22,-72.77 322.8,-60.37 729.81,-29.75 842.5,-21.47"/>
<polygon fill="green" stroke="green" stroke-width="0.8" points="843.04,-24.94 852.76,-20.72 842.53,-17.96 843.04,-24.94"/>
</g>
<!-- 10&#45;&gt;20 -->
<g id="edge55" class="edge">
<title>10&#45;&gt;20</title>
<path fill="none" stroke="green" stroke-width="0.8" d="M344.41,-235.26C404.32,-233.28 656.94,-224.94 864.22,-218.31 991.77,-214.23 1888.08,-211.89 2012.22,-182.31 2086.64,-164.58 2127.12,-174.07 2168.22,-109.54 2218.34,-30.86 2027.94,-20.49 1953.69,-19.39"/>
<polygon fill="green" stroke="green" stroke-width="0.8" points="1953.66,-15.89 1943.62,-19.29 1953.59,-22.89 1953.66,-15.89"/>
</g>
<!-- 10&#45;&gt;25 -->
<g id="edge56" class="edge">
<title>10&#45;&gt;25</title>
<path fill="none" stroke="green" stroke-width="0.8" d="M344.41,-235.26C404.32,-233.3 656.94,-225.02 864.22,-218.31 926.5,-216.29 1938.92,-224.01 1985.22,-182.31 2021.55,-149.59 2026.12,-110.65 1995.22,-72.77 1980.56,-54.79 1828.12,-32.07 1763.7,-23.19"/>
<polygon fill="green" stroke="green" stroke-width="0.8" points="1763.83,-19.67 1753.45,-21.79 1762.89,-26.61 1763.83,-19.67"/>
</g>
<!-- 10&#45;&gt;22 -->
<g id="edge57" class="edge">
<title>10&#45;&gt;22</title>
<path fill="none" stroke="green" stroke-width="0.8" d="M344.39,-235.22C421.31,-232.34 813.18,-216.19 928.22,-182.31 961.93,-172.38 964.4,-155.07 998.22,-145.54 1056.85,-129.02 1503.59,-154 1545.22,-109.54 1560.89,-92.8 1558.63,-65.71 1553.83,-45.58"/>
<polygon fill="green" stroke="green" stroke-width="0.8" points="1557.16,-44.52 1551.16,-35.79 1550.41,-46.36 1557.16,-44.52"/>
</g>
<!-- 10&#45;&gt;23 -->
<g id="edge58" class="edge">
<title>10&#45;&gt;23</title>
<path fill="none" stroke="green" stroke-width="0.8" d="M318.13,-232.13C262.37,-216.35 50.49,-150.17 119.22,-72.77 147.17,-41.29 444.13,-25.03 538.56,-20.63"/>
<polygon fill="green" stroke="green" stroke-width="0.8" points="538.97,-24.12 548.8,-20.17 538.65,-17.12 538.97,-24.12"/>
</g>
<!-- 10&#45;&gt;24 -->
<g id="edge59" class="edge">
<title>10&#45;&gt;24</title>
<path fill="none" stroke="green" stroke-width="0.8" d="M324.74,-227.54C312.59,-211.16 288.91,-173.48 304.22,-145.54 333.11,-92.83 361.19,-91.76 418.22,-72.77 519.71,-38.97 791.64,-45.86 898.22,-36.77 952.53,-32.14 1015.88,-25.9 1051.7,-22.29"/>
<polygon fill="green" stroke="green" stroke-width="0.8" points="1052.29,-25.75 1061.89,-21.26 1051.59,-18.78 1052.29,-25.75"/>
</g>
<!-- 10&#45;&gt;21 -->
<g id="edge130" class="edge">
<title>10&#45;&gt;21</title>
<path fill="none" stroke="green" stroke-width="0.8" d="M331.22,-227.58C331.22,-219.01 331.22,-205.03 331.22,-192.45"/>
<polygon fill="green" stroke="green" stroke-width="0.8" points="334.72,-192.36 331.22,-182.36 327.72,-192.36 334.72,-192.36"/>
</g>
<!-- 11 -->
<g id="node11" class="node">
<title>11</title>
<polygon fill="lightgray" stroke="black" points="2425.22,-245.69 2399.22,-245.69 2399.22,-227.69 2425.22,-227.69 2425.22,-245.69"/>
<text text-anchor="middle" x="2412.22" y="-234.49" font-family="Times,serif" font-size="9.00">11</text>
</g>
<!-- 11&#45;&gt;20 -->
<g id="edge60" class="edge">
<title>11&#45;&gt;20</title>
<path fill="none" stroke="green" stroke-width="0.8" d="M2425.31,-228.92C2441.51,-220.01 2469.16,-203.04 2487.22,-182.31 2521.07,-143.46 2560.01,-110.79 2525.22,-72.77 2486.24,-30.17 2067.88,-21.34 1953.81,-19.72"/>
<polygon fill="green" stroke="green" stroke-width="0.8" points="1953.79,-16.22 1943.74,-19.58 1953.69,-23.22 1953.79,-16.22"/>
</g>
<!-- 11&#45;&gt;25 -->
<g id="edge61" class="edge">
<title>11&#45;&gt;25</title>
<path fill="none" stroke="green" stroke-width="0.8" d="M2420.33,-227.52C2429.4,-217.73 2443.57,-200.39 2449.22,-182.31 2464.6,-133.13 2454.33,-101 2411.22,-72.77 2363.42,-41.46 1955.14,-41.8 1898.22,-36.77 1851.1,-32.6 1796.46,-26.52 1763.92,-22.76"/>
<polygon fill="green" stroke="green" stroke-width="0.8" points="1764.11,-19.26 1753.78,-21.59 1763.31,-26.22 1764.11,-19.26"/>
</g>
<!-- 11&#45;&gt;22 -->
<g id="edge62" class="edge">
<title>11&#45;&gt;22</title>
<path fill="none" stroke="green" stroke-width="0.8" d="M2415.7,-227.48C2422.36,-210.33 2434.68,-170.28 2416.22,-145.54 2348.29,-54.5 2282.91,-93.46 2171.22,-72.77 1968.27,-35.18 1913.75,-55.72 1708.22,-36.77 1661.12,-32.43 1606.47,-26.4 1573.93,-22.7"/>
<polygon fill="green" stroke="green" stroke-width="0.8" points="1574.11,-19.2 1563.78,-21.54 1573.32,-26.15 1574.11,-19.2"/>
</g>
<!-- 11&#45;&gt;23 -->
<g id="edge63" class="edge">
<title>11&#45;&gt;23</title>
<path fill="none" stroke="green" stroke-width="0.8" d="M2399.02,-235.61C2243.59,-234.62 764.98,-224.09 576.22,-182.31 496.37,-164.64 452.18,-177.85 407.22,-109.54 398.24,-95.89 397.67,-86.03 407.22,-72.77 437.21,-31.14 501.1,-21.49 538.43,-19.54"/>
<polygon fill="green" stroke="green" stroke-width="0.8" points="538.79,-23.03 548.65,-19.17 538.53,-16.04 538.79,-23.03"/>
</g>
<!-- 11&#45;&gt;24 -->
<g id="edge64" class="edge">
<title>11&#45;&gt;24</title>
<path fill="none" stroke="green" stroke-width="0.8" d="M2399.04,-234.53C2335.68,-228.92 2056.16,-204.07 1827.22,-182.31 1499.99,-151.2 1326.29,-339.3 1091.22,-109.54 1074.97,-93.66 1073.53,-67.09 1075.37,-46.9"/>
<polygon fill="green" stroke="green" stroke-width="0.8" points="1078.88,-47.08 1076.62,-36.73 1071.93,-46.23 1078.88,-47.08"/>
</g>
<!-- 11&#45;&gt;28 -->
<g id="edge117" class="edge">
<title>11&#45;&gt;28</title>
<path fill="none" stroke="green" stroke-width="0.8" d="M2409.58,-227.58C2406.71,-218.75 2401.98,-204.19 2397.8,-191.32"/>
<polygon fill="green" stroke="green" stroke-width="0.8" points="2401.03,-189.94 2394.61,-181.51 2394.37,-192.1 2401.03,-189.94"/>
</g>
<!-- 12 -->
<g id="node12" class="node">
<title>12</title>
<polygon fill="lightgray" stroke="black" points="1441.22,-100.15 1415.22,-100.15 1415.22,-82.15 1441.22,-82.15 1441.22,-100.15"/>
<text text-anchor="middle" x="1428.22" y="-88.95" font-family="Times,serif" font-size="9.00">12</text>
</g>
<!-- 12&#45;&gt;26 -->
<g id="edge65" class="edge">
<title>12&#45;&gt;26</title>
<path fill="none" stroke="green" stroke-width="0.8" d="M1420.38,-82.14C1416.46,-78.65 1411.46,-74.89 1406.22,-72.77 1400.27,-70.36 1008.84,-32.61 899.38,-22.09"/>
<polygon fill="green" stroke="green" stroke-width="0.8" points="899.7,-18.6 889.41,-21.13 899.03,-25.57 899.7,-18.6"/>
</g>
<!-- 12&#45;&gt;20 -->
<g id="edge66" class="edge">
<title>12&#45;&gt;20</title>
<path fill="none" stroke="green" stroke-width="0.8" d="M1441.26,-88.3C1507.11,-78.92 1803.68,-36.69 1897.01,-23.4"/>
<polygon fill="green" stroke="green" stroke-width="0.8" points="1897.7,-26.84 1907.11,-21.96 1896.72,-19.91 1897.7,-26.84"/>
</g>
<!-- 12&#45;&gt;25 -->
<g id="edge67" class="edge">
<title>12&#45;&gt;25</title>
<path fill="none" stroke="green" stroke-width="0.8" d="M1441.41,-87.11C1487.73,-76.44 1643.54,-40.52 1707.49,-25.78"/>
<polygon fill="green" stroke="green" stroke-width="0.8" points="1708.32,-29.18 1717.28,-23.52 1706.74,-22.36 1708.32,-29.18"/>
</g>
<!-- 12&#45;&gt;22 -->
<g id="edge68" class="edge">
<title>12&#45;&gt;22</title>
<path fill="none" stroke="green" stroke-width="0.8" d="M1440.53,-82.1C1445.11,-79.13 1450.38,-75.76 1455.22,-72.77 1477.2,-59.18 1502.53,-44.22 1520.71,-33.6"/>
<polygon fill="green" stroke="green" stroke-width="0.8" points="1522.63,-36.53 1529.51,-28.47 1519.11,-30.48 1522.63,-36.53"/>
</g>
<!-- 12&#45;&gt;23 -->
<g id="edge69" class="edge">
<title>12&#45;&gt;23</title>
<path fill="none" stroke="green" stroke-width="0.8" d="M1420.41,-82.06C1416.5,-78.55 1411.49,-74.79 1406.22,-72.77 1403.8,-71.84 742.77,-30.38 595.9,-21.18"/>
<polygon fill="green" stroke="green" stroke-width="0.8" points="596.06,-17.68 585.86,-20.55 595.62,-24.67 596.06,-17.68"/>
</g>
<!-- 12&#45;&gt;24 -->
<g id="edge70" class="edge">
<title>12&#45;&gt;24</title>
<path fill="none" stroke="green" stroke-width="0.8" d="M1419.9,-81.93C1416.04,-78.57 1411.21,-74.97 1406.22,-72.77 1303.69,-27.53 1167.74,-20.25 1109.13,-19.34"/>
<polygon fill="green" stroke="green" stroke-width="0.8" points="1108.83,-15.83 1098.79,-19.23 1108.76,-22.83 1108.83,-15.83"/>
</g>
<!-- 13 -->
<g id="node13" class="node">
<title>13</title>
<polygon fill="lightgray" stroke="black" points="1976.22,-172.92 1950.22,-172.92 1950.22,-154.92 1976.22,-154.92 1976.22,-172.92"/>
<text text-anchor="middle" x="1963.22" y="-161.72" font-family="Times,serif" font-size="9.00">13</text>
</g>
<!-- 13&#45;&gt;26 -->
<g id="edge71" class="edge">
<title>13&#45;&gt;26</title>
<path fill="none" stroke="green" stroke-width="0.8" d="M1950.21,-159.87C1932.46,-155.85 1899.63,-148.89 1871.22,-145.54 1539.36,-106.42 1447.88,-175.15 1120.22,-109.54 1035.56,-92.59 941.11,-51.99 896.8,-31.56"/>
<polygon fill="green" stroke="green" stroke-width="0.8" points="898.17,-28.34 887.63,-27.29 895.22,-34.69 898.17,-28.34"/>
</g>
<!-- 13&#45;&gt;20 -->
<g id="edge72" class="edge">
<title>13&#45;&gt;20</title>
<path fill="none" stroke="green" stroke-width="0.8" d="M1976.53,-161.73C2026.73,-156.75 2199.28,-134.83 2150.22,-72.77 2126,-42.14 2008.67,-27.23 1953.72,-21.84"/>
<polygon fill="green" stroke="green" stroke-width="0.8" points="1953.89,-18.34 1943.61,-20.89 1953.23,-25.31 1953.89,-18.34"/>
</g>
<!-- 13&#45;&gt;25 -->
<g id="edge73" class="edge">
<title>13&#45;&gt;25</title>
<path fill="none" stroke="green" stroke-width="0.8" d="M1968.08,-154.9C1977.75,-137.78 1996.86,-97.22 1977.22,-72.77 1950.7,-39.76 1821.92,-25.95 1763.79,-21.33"/>
<polygon fill="green" stroke="green" stroke-width="0.8" points="1763.72,-17.82 1753.48,-20.55 1763.19,-24.8 1763.72,-17.82"/>
</g>
<!-- 13&#45;&gt;22 -->
<g id="edge74" class="edge">
<title>13&#45;&gt;22</title>
<path fill="none" stroke="green" stroke-width="0.8" d="M1955.77,-154.84C1938.68,-136.84 1894.56,-93.44 1848.22,-72.77 1799.01,-50.81 1639.15,-30.31 1573.63,-22.6"/>
<polygon fill="green" stroke="green" stroke-width="0.8" points="1573.93,-19.11 1563.6,-21.44 1573.13,-26.07 1573.93,-19.11"/>
</g>
<!-- 13&#45;&gt;23 -->
<g id="edge75" class="edge">
<title>13&#45;&gt;23</title>
<path fill="none" stroke="green" stroke-width="0.8" d="M1950.21,-159.84C1932.47,-155.79 1899.64,-148.79 1871.22,-145.54 1484.97,-101.33 1383.01,-157.59 997.22,-109.54 843.47,-90.39 662.98,-44.87 594.99,-26.88"/>
<polygon fill="green" stroke="green" stroke-width="0.8" points="595.63,-23.43 585.07,-24.24 593.83,-30.19 595.63,-23.43"/>
</g>
<!-- 13&#45;&gt;24 -->
<g id="edge76" class="edge">
<title>13&#45;&gt;24</title>
<path fill="none" stroke="green" stroke-width="0.8" d="M1950.21,-159.88C1932.46,-155.87 1899.63,-148.92 1871.22,-145.54 1792.23,-136.13 1227.49,-144.88 1156.22,-109.54 1152.27,-107.58 1119.19,-67.4 1098,-41.35"/>
<polygon fill="green" stroke="green" stroke-width="0.8" points="1100.61,-39.01 1091.58,-33.45 1095.17,-43.42 1100.61,-39.01"/>
</g>
<!-- 13&#45;&gt;27 -->
<g id="edge113" class="edge">
<title>13&#45;&gt;27</title>
<path fill="none" stroke="green" stroke-width="0.8" d="M1976.31,-157.13C2002.67,-145.47 2062.56,-118.99 2097.18,-103.67"/>
<polygon fill="green" stroke="green" stroke-width="0.8" points="2098.91,-106.73 2106.64,-99.49 2096.08,-100.33 2098.91,-106.73"/>
</g>
<!-- 14 -->
<g id="node14" class="node">
<title>14</title>
<polygon fill="lightgray" stroke="black" points="1191.22,-100.15 1165.22,-100.15 1165.22,-82.15 1191.22,-82.15 1191.22,-100.15"/>
<text text-anchor="middle" x="1178.22" y="-88.95" font-family="Times,serif" font-size="9.00">14</text>
</g>
<!-- 14&#45;&gt;26 -->
<g id="edge77" class="edge">
<title>14&#45;&gt;26</title>
<path fill="none" stroke="green" stroke-width="0.8" d="M1165.03,-87.11C1118.72,-76.44 962.9,-40.52 898.96,-25.78"/>
<polygon fill="green" stroke="green" stroke-width="0.8" points="899.7,-22.36 889.17,-23.52 898.12,-29.18 899.7,-22.36"/>
</g>
<!-- 14&#45;&gt;20 -->
<g id="edge78" class="edge">
<title>14&#45;&gt;20</title>
<path fill="none" stroke="green" stroke-width="0.8" d="M1186.03,-82.06C1189.94,-78.55 1194.95,-74.79 1200.22,-72.77 1317.06,-27.94 1637.53,-47.41 1762.22,-36.77 1809.35,-32.75 1863.99,-26.62 1896.52,-22.82"/>
<polygon fill="green" stroke="green" stroke-width="0.8" points="1897.14,-26.27 1906.67,-21.62 1896.33,-19.32 1897.14,-26.27"/>
</g>
<!-- 14&#45;&gt;25 -->
<g id="edge79" class="edge">
<title>14&#45;&gt;25</title>
<path fill="none" stroke="green" stroke-width="0.8" d="M1186.06,-82.13C1189.97,-78.64 1194.98,-74.88 1200.22,-72.77 1354.32,-10.76 1406.97,-53.58 1572.22,-36.77 1619.28,-31.98 1673.94,-26.08 1706.5,-22.53"/>
<polygon fill="green" stroke="green" stroke-width="0.8" points="1707.09,-25.99 1716.65,-21.43 1706.33,-19.03 1707.09,-25.99"/>
</g>
<!-- 14&#45;&gt;22 -->
<g id="edge80" class="edge">
<title>14&#45;&gt;22</title>
<path fill="none" stroke="green" stroke-width="0.8" d="M1186.53,-81.91C1190.39,-78.55 1195.22,-74.95 1200.22,-72.77 1310.02,-24.9 1455.91,-19.12 1516.72,-18.98"/>
<polygon fill="green" stroke="green" stroke-width="0.8" points="1516.72,-22.48 1526.73,-19.01 1516.74,-15.48 1516.72,-22.48"/>
</g>
<!-- 14&#45;&gt;23 -->
<g id="edge81" class="edge">
<title>14&#45;&gt;23</title>
<path fill="none" stroke="green" stroke-width="0.8" d="M1165.18,-88.64C1089.27,-79.85 704.06,-35.23 595.65,-22.68"/>
<polygon fill="green" stroke="green" stroke-width="0.8" points="595.82,-19.17 585.48,-21.5 595.01,-26.13 595.82,-19.17"/>
</g>
<!-- 14&#45;&gt;24 -->
<g id="edge82" class="edge">
<title>14&#45;&gt;24</title>
<path fill="none" stroke="green" stroke-width="0.8" d="M1166.98,-82.04C1151.48,-70.84 1123.18,-50.4 1103.12,-35.92"/>
<polygon fill="green" stroke="green" stroke-width="0.8" points="1104.98,-32.95 1094.82,-29.93 1100.88,-38.62 1104.98,-32.95"/>
</g>
<!-- 15 -->
<g id="node15" class="node">
<title>15</title>
<polygon fill="lightgray" stroke="black" points="1235.22,-100.15 1209.22,-100.15 1209.22,-82.15 1235.22,-82.15 1235.22,-100.15"/>
<text text-anchor="middle" x="1222.22" y="-88.95" font-family="Times,serif" font-size="9.00">15</text>
</g>
<!-- 15&#45;&gt;26 -->
<g id="edge83" class="edge">
<title>15&#45;&gt;26</title>
<path fill="none" stroke="green" stroke-width="0.8" d="M1213.91,-81.93C1210.05,-78.57 1205.21,-74.97 1200.22,-72.77 1146.18,-48.97 969.22,-29.19 899.66,-22.15"/>
<polygon fill="green" stroke="green" stroke-width="0.8" points="899.75,-18.64 889.45,-21.13 899.06,-25.6 899.75,-18.64"/>
</g>
<!-- 15&#45;&gt;20 -->
<g id="edge84" class="edge">
<title>15&#45;&gt;20</title>
<path fill="none" stroke="green" stroke-width="0.8" d="M1230.04,-82.07C1233.94,-78.57 1238.95,-74.81 1244.22,-72.77 1351.84,-31.14 1647.28,-46.89 1762.22,-36.77 1809.34,-32.62 1863.99,-26.53 1896.52,-22.77"/>
<polygon fill="green" stroke="green" stroke-width="0.8" points="1897.14,-26.22 1906.66,-21.59 1896.33,-19.27 1897.14,-26.22"/>
</g>
<!-- 15&#45;&gt;25 -->
<g id="edge85" class="edge">
<title>15&#45;&gt;25</title>
<path fill="none" stroke="green" stroke-width="0.8" d="M1230.48,-81.8C1234.33,-78.42 1239.17,-74.83 1244.22,-72.77 1246.93,-71.66 1602.76,-33.55 1706.9,-22.41"/>
<polygon fill="green" stroke="green" stroke-width="0.8" points="1707.41,-25.88 1716.98,-21.33 1706.67,-18.92 1707.41,-25.88"/>
</g>
<!-- 15&#45;&gt;22 -->
<g id="edge86" class="edge">
<title>15&#45;&gt;22</title>
<path fill="none" stroke="green" stroke-width="0.8" d="M1230.55,-81.96C1234.41,-78.61 1239.25,-75 1244.22,-72.77 1337.72,-30.78 1461.45,-21.76 1516.59,-19.86"/>
<polygon fill="green" stroke="green" stroke-width="0.8" points="1516.78,-23.36 1526.67,-19.57 1516.58,-16.36 1516.78,-23.36"/>
</g>
<!-- 15&#45;&gt;23 -->
<g id="edge87" class="edge">
<title>15&#45;&gt;23</title>
<path fill="none" stroke="green" stroke-width="0.8" d="M1214.39,-82.11C1210.48,-78.61 1205.47,-74.85 1200.22,-72.77 1171.72,-61.5 715.36,-29.55 595.74,-21.33"/>
<polygon fill="green" stroke="green" stroke-width="0.8" points="595.76,-17.82 585.55,-20.63 595.29,-24.81 595.76,-17.82"/>
</g>
<!-- 15&#45;&gt;24 -->
<g id="edge88" class="edge">
<title>15&#45;&gt;24</title>
<path fill="none" stroke="green" stroke-width="0.8" d="M1212.75,-81.82C1209,-78.75 1204.55,-75.39 1200.22,-72.77 1169.86,-54.42 1132.09,-38.66 1107.12,-29.12"/>
<polygon fill="green" stroke="green" stroke-width="0.8" points="1108.17,-25.77 1097.58,-25.53 1105.71,-32.33 1108.17,-25.77"/>
</g>
<!-- 16 -->
<g id="node16" class="node">
<title>16</title>
<polygon fill="lightgray" stroke="black" points="919.22,-172.92 893.22,-172.92 893.22,-154.92 919.22,-154.92 919.22,-172.92"/>
<text text-anchor="middle" x="906.22" y="-161.72" font-family="Times,serif" font-size="9.00">16</text>
</g>
<!-- 16&#45;&gt;26 -->
<g id="edge89" class="edge">
<title>16&#45;&gt;26</title>
<path fill="none" stroke="green" stroke-width="0.8" d="M894.68,-154.64C882.71,-145.27 864.71,-128.77 857.22,-109.54 849.12,-88.74 854.18,-63.53 860.37,-45.06"/>
<polygon fill="green" stroke="green" stroke-width="0.8" points="863.69,-46.15 863.84,-35.56 857.12,-43.75 863.69,-46.15"/>
</g>
<!-- 16&#45;&gt;20 -->
<g id="edge90" class="edge">
<title>16&#45;&gt;20</title>
<path fill="none" stroke="green" stroke-width="0.8" d="M919.65,-162.88C990.87,-162.44 1331.36,-157.8 1604.22,-109.54 1715.6,-89.84 1843.97,-47.69 1898.5,-28.84"/>
<polygon fill="green" stroke="green" stroke-width="0.8" points="1899.81,-32.09 1908.1,-25.49 1897.51,-25.48 1899.81,-32.09"/>
</g>
<!-- 16&#45;&gt;25 -->
<g id="edge91" class="edge">
<title>16&#45;&gt;25</title>
<path fill="none" stroke="green" stroke-width="0.8" d="M919.24,-162.47C998.86,-159.61 1420.8,-143.06 1545.22,-109.54 1608.33,-92.54 1676.08,-55.23 1711.12,-34.33"/>
<polygon fill="green" stroke="green" stroke-width="0.8" points="1712.96,-37.31 1719.71,-29.15 1709.34,-31.32 1712.96,-37.31"/>
</g>
<!-- 16&#45;&gt;22 -->
<g id="edge92" class="edge">
<title>16&#45;&gt;22</title>
<path fill="none" stroke="green" stroke-width="0.8" d="M916.1,-154.82C920.96,-151.31 927.07,-147.55 933.22,-145.54 995.42,-125.16 1470.57,-151 1521.22,-109.54 1539.47,-94.6 1544.73,-67.49 1545.86,-46.88"/>
<polygon fill="green" stroke="green" stroke-width="0.8" points="1549.36,-46.89 1546.13,-36.8 1542.37,-46.7 1549.36,-46.89"/>
</g>
<!-- 16&#45;&gt;23 -->
<g id="edge93" class="edge">
<title>16&#45;&gt;23</title>
<path fill="none" stroke="green" stroke-width="0.8" d="M892.88,-157.9C882.27,-154.06 866.96,-148.87 853.22,-145.54 755.23,-121.75 714.44,-163.43 629.22,-109.54 605.1,-94.29 587.94,-65.9 577.88,-45.03"/>
<polygon fill="green" stroke="green" stroke-width="0.8" points="580.98,-43.4 573.63,-35.77 574.62,-46.32 580.98,-43.4"/>
</g>
<!-- 16&#45;&gt;24 -->
<g id="edge94" class="edge">
<title>16&#45;&gt;24</title>
<path fill="none" stroke="green" stroke-width="0.8" d="M910.36,-154.67C919.34,-137.45 942.17,-97.28 971.22,-72.77 995.77,-52.06 1029.73,-37.08 1053.19,-28.36"/>
<polygon fill="green" stroke="green" stroke-width="0.8" points="1054.62,-31.56 1062.85,-24.89 1052.26,-24.97 1054.62,-31.56"/>
</g>
<!-- 16&#45;&gt;29 -->
<g id="edge110" class="edge">
<title>16&#45;&gt;29</title>
<path fill="none" stroke="green" stroke-width="0.8" d="M892.92,-157.75C882.32,-153.82 867.02,-148.6 853.22,-145.54 722.11,-116.47 686.21,-128.21 553.22,-109.54 525.91,-105.7 494.82,-100.62 473.04,-96.95"/>
<polygon fill="green" stroke="green" stroke-width="0.8" points="473.6,-93.49 463.15,-95.27 472.42,-100.39 473.6,-93.49"/>
</g>
<!-- 17 -->
<g id="node17" class="node">
<title>17</title>
<polygon fill="lightgray" stroke="black" points="1279.22,-100.15 1253.22,-100.15 1253.22,-82.15 1279.22,-82.15 1279.22,-100.15"/>
<text text-anchor="middle" x="1266.22" y="-88.95" font-family="Times,serif" font-size="9.00">17</text>
</g>
<!-- 17&#45;&gt;26 -->
<g id="edge95" class="edge">
<title>17&#45;&gt;26</title>
<path fill="none" stroke="green" stroke-width="0.8" d="M1257.92,-81.88C1254.07,-78.52 1249.23,-74.92 1244.22,-72.77 1212.65,-59.22 981.73,-31.96 899.89,-22.62"/>
<polygon fill="green" stroke="green" stroke-width="0.8" points="900.13,-19.12 889.79,-21.47 899.33,-26.08 900.13,-19.12"/>
</g>
<!-- 17&#45;&gt;20 -->
<g id="edge96" class="edge">
<title>17&#45;&gt;20</title>
<path fill="none" stroke="green" stroke-width="0.8" d="M1274.46,-82.09C1278.56,-78.59 1283.79,-74.82 1289.22,-72.77 1387.82,-35.48 1657.24,-46.36 1762.22,-36.77 1809.33,-32.47 1863.98,-26.42 1896.52,-22.71"/>
<polygon fill="green" stroke="green" stroke-width="0.8" points="1897.12,-26.17 1906.66,-21.55 1896.33,-19.21 1897.12,-26.17"/>
</g>
<!-- 17&#45;&gt;25 -->
<g id="edge97" class="edge">
<title>17&#45;&gt;25</title>
<path fill="none" stroke="green" stroke-width="0.8" d="M1274.93,-81.83C1278.97,-78.46 1284.02,-74.87 1289.22,-72.77 1308.72,-64.91 1611.96,-32.4 1706.98,-22.35"/>
<polygon fill="green" stroke="green" stroke-width="0.8" points="1707.43,-25.83 1717.01,-21.3 1706.69,-18.86 1707.43,-25.83"/>
</g>
<!-- 17&#45;&gt;22 -->
<g id="edge98" class="edge">
<title>17&#45;&gt;22</title>
<path fill="none" stroke="green" stroke-width="0.8" d="M1275.02,-82.04C1279.08,-78.71 1284.12,-75.09 1289.22,-72.77 1366.65,-37.59 1467.84,-25.31 1516.56,-21.25"/>
<polygon fill="green" stroke="green" stroke-width="0.8" points="1516.98,-24.73 1526.68,-20.47 1516.44,-17.75 1516.98,-24.73"/>
</g>
<!-- 17&#45;&gt;23 -->
<g id="edge99" class="edge">
<title>17&#45;&gt;23</title>
<path fill="none" stroke="green" stroke-width="0.8" d="M1258.4,-82.09C1254.49,-78.59 1249.48,-74.83 1244.22,-72.77 1213.59,-60.76 721.47,-29.09 596.1,-21.19"/>
<polygon fill="green" stroke="green" stroke-width="0.8" points="595.98,-17.68 585.78,-20.54 595.54,-24.66 595.98,-17.68"/>
</g>
<!-- 17&#45;&gt;24 -->
<g id="edge100" class="edge">
<title>17&#45;&gt;24</title>
<path fill="none" stroke="green" stroke-width="0.8" d="M1257.31,-81.93C1253.49,-78.73 1248.86,-75.25 1244.22,-72.77 1199.44,-48.79 1142,-33.15 1108.33,-25.32"/>
<polygon fill="green" stroke="green" stroke-width="0.8" points="1108.81,-21.84 1098.28,-23.06 1107.27,-28.67 1108.81,-21.84"/>
</g>
<!-- 18 -->
<g id="node18" class="node">
<title>18</title>
<polygon fill="lightgray" stroke="black" points="1862.22,-172.92 1836.22,-172.92 1836.22,-154.92 1862.22,-154.92 1862.22,-172.92"/>
<text text-anchor="middle" x="1849.22" y="-161.72" font-family="Times,serif" font-size="9.00">18</text>
</g>
<!-- 18&#45;&gt;26 -->
<g id="edge101" class="edge">
<title>18&#45;&gt;26</title>
<path fill="none" stroke="green" stroke-width="0.8" d="M1835.95,-162.62C1723.5,-160.02 933.45,-140.66 895.22,-109.54 876.93,-94.65 871.68,-67.53 870.56,-46.91"/>
<polygon fill="green" stroke="green" stroke-width="0.8" points="874.05,-46.73 870.3,-36.82 867.06,-46.91 874.05,-46.73"/>
</g>
<!-- 18&#45;&gt;20 -->
<g id="edge102" class="edge">
<title>18&#45;&gt;20</title>
<path fill="none" stroke="green" stroke-width="0.8" d="M1862.31,-159.62C1882.99,-153.62 1922.59,-138.74 1939.22,-109.54 1950.52,-89.71 1944.66,-63.63 1937.38,-44.63"/>
<polygon fill="green" stroke="green" stroke-width="0.8" points="1940.5,-43.02 1933.41,-35.15 1934.04,-45.73 1940.5,-43.02"/>
</g>
<!-- 18&#45;&gt;25 -->
<g id="edge103" class="edge">
<title>18&#45;&gt;25</title>
<path fill="none" stroke="green" stroke-width="0.8" d="M1853.87,-154.9C1862.91,-138.13 1880.52,-98.74 1863.22,-72.77 1841.12,-39.61 1794.11,-27.01 1763.62,-22.25"/>
<polygon fill="green" stroke="green" stroke-width="0.8" points="1763.98,-18.77 1753.6,-20.87 1763.03,-25.7 1763.98,-18.77"/>
</g>
<!-- 18&#45;&gt;22 -->
<g id="edge104" class="edge">
<title>18&#45;&gt;22</title>
<path fill="none" stroke="green" stroke-width="0.8" d="M1849.69,-154.77C1850.23,-137.03 1848.82,-94.73 1825.22,-72.77 1806.82,-55.64 1641.24,-32.07 1573.7,-23.08"/>
<polygon fill="green" stroke="green" stroke-width="0.8" points="1573.75,-19.55 1563.38,-21.71 1572.83,-26.49 1573.75,-19.55"/>
</g>
<!-- 18&#45;&gt;23 -->
<g id="edge105" class="edge">
<title>18&#45;&gt;23</title>
<path fill="none" stroke="green" stroke-width="0.8" d="M1836.16,-162.87C1714.48,-162.27 780.89,-156.18 667.22,-109.54 666.61,-109.29 617.38,-64.79 588.23,-38.41"/>
<polygon fill="green" stroke="green" stroke-width="0.8" points="590.36,-35.62 580.6,-31.5 585.67,-40.81 590.36,-35.62"/>
</g>
<!-- 18&#45;&gt;24 -->
<g id="edge106" class="edge">
<title>18&#45;&gt;24</title>
<path fill="none" stroke="green" stroke-width="0.8" d="M1836.01,-162.74C1742.67,-161.36 1184.39,-151.35 1123.22,-109.54 1102.16,-95.14 1091.1,-67.51 1085.51,-46.62"/>
<polygon fill="green" stroke="green" stroke-width="0.8" points="1088.86,-45.6 1083.12,-36.7 1082.06,-47.24 1088.86,-45.6"/>
</g>
<!-- 18&#45;&gt;27 -->
<g id="edge116" class="edge">
<title>18&#45;&gt;27</title>
<path fill="none" stroke="green" stroke-width="0.8" d="M1862.44,-159.51C1904.7,-148.59 2037.21,-114.37 2095.38,-99.35"/>
<polygon fill="green" stroke="green" stroke-width="0.8" points="2096.53,-102.66 2105.34,-96.77 2094.78,-95.89 2096.53,-102.66"/>
</g>
<!-- 19&#45;&gt;28 -->
<g id="edge121" class="edge">
<title>19&#45;&gt;28</title>
<path fill="none" stroke="green" stroke-width="0.8" d="M1074.61,-235.18C1228.11,-230.84 2292.53,-200.17 2357.22,-182.31 2359.87,-181.58 2362.55,-180.59 2365.16,-179.46"/>
<polygon fill="green" stroke="green" stroke-width="0.8" points="2366.84,-182.53 2374.2,-174.92 2363.7,-176.28 2366.84,-182.53"/>
</g>
<!-- 19&#45;&gt;29 -->
<g id="edge124" class="edge">
<title>19&#45;&gt;29</title>
<path fill="none" stroke="green" stroke-width="0.8" d="M1038.75,-230.13C1025.77,-226.21 1007.56,-221.18 991.22,-218.31 808.88,-186.27 750.47,-244.86 576.22,-182.31 532.56,-166.64 489.79,-132.71 465.54,-111.23"/>
<polygon fill="green" stroke="green" stroke-width="0.8" points="467.82,-108.57 458.05,-104.47 463.13,-113.77 467.82,-108.57"/>
</g>
<!-- 21&#45;&gt;29 -->
<g id="edge123" class="edge">
<title>21&#45;&gt;29</title>
<path fill="none" stroke="green" stroke-width="0.8" d="M346.6,-153.38C365.72,-141.51 398.58,-121.11 421.08,-107.14"/>
<polygon fill="green" stroke="green" stroke-width="0.8" points="423.08,-110.02 429.73,-101.77 419.38,-104.07 423.08,-110.02"/>
</g>
<!-- 27&#45;&gt;26 -->
<g id="edge112" class="edge">
<title>27&#45;&gt;26</title>
<path fill="none" stroke="green" stroke-width="0.8" d="M2104.88,-89.55C2001.3,-86.08 1478.96,-67.71 1053.22,-36.77 998.85,-32.82 935.53,-26.35 899.73,-22.51"/>
<polygon fill="green" stroke="green" stroke-width="0.8" points="899.86,-19.01 889.54,-21.41 899.11,-25.96 899.86,-19.01"/>
</g>
<!-- 27&#45;&gt;20 -->
<g id="edge129" class="edge">
<title>27&#45;&gt;20</title>
<path fill="none" stroke="green" stroke-width="0.8" d="M2107.56,-80.89C2102.45,-78.07 2096.68,-75.11 2091.22,-72.77 2044.01,-52.56 1986.47,-35.69 1953.03,-26.61"/>
<polygon fill="green" stroke="green" stroke-width="0.8" points="1953.63,-23.15 1943.06,-23.94 1951.81,-29.91 1953.63,-23.15"/>
</g>
<!-- 27&#45;&gt;25 -->
<g id="edge114" class="edge">
<title>27&#45;&gt;25</title>
<path fill="none" stroke="green" stroke-width="0.8" d="M2108.09,-80.53C2102.91,-77.62 2096.98,-74.7 2091.22,-72.77 2030.2,-52.33 1836.99,-30.23 1763.75,-22.37"/>
<polygon fill="green" stroke="green" stroke-width="0.8" points="1763.76,-18.85 1753.45,-21.27 1763.02,-25.81 1763.76,-18.85"/>
</g>
<!-- 28&#45;&gt;27 -->
<g id="edge118" class="edge">
<title>28&#45;&gt;27</title>
<path fill="none" stroke="green" stroke-width="0.8" d="M2371.35,-158.17C2325.83,-146.06 2205.23,-113.97 2150.69,-99.46"/>
<polygon fill="green" stroke="green" stroke-width="0.8" points="2151.57,-96.08 2141.01,-96.89 2149.77,-102.84 2151.57,-96.08"/>
</g>
<!-- 29&#45;&gt;26 -->
<g id="edge109" class="edge">
<title>29&#45;&gt;26</title>
<path fill="none" stroke="green" stroke-width="0.8" d="M462.67,-85.33C476.77,-81.56 497.17,-76.36 515.22,-72.77 636.12,-48.75 782.03,-30.05 842.66,-22.74"/>
<polygon fill="green" stroke="green" stroke-width="0.8" points="843.45,-26.17 852.96,-21.5 842.62,-19.22 843.45,-26.17"/>
</g>
<!-- 29&#45;&gt;25 -->
<g id="edge108" class="edge">
<title>29&#45;&gt;25</title>
<path fill="none" stroke="green" stroke-width="0.8" d="M463.83,-89.68C571.28,-86.88 1123.03,-71.33 1572.22,-36.77 1619.38,-33.14 1674.02,-26.9 1706.54,-22.96"/>
<polygon fill="green" stroke="green" stroke-width="0.8" points="1707.17,-26.41 1716.68,-21.72 1706.32,-19.46 1707.17,-26.41"/>
</g>
<!-- 29&#45;&gt;23 -->
<g id="edge111" class="edge">
<title>29&#45;&gt;23</title>
<path fill="none" stroke="green" stroke-width="0.8" d="M460.67,-81.19C481.37,-69.19 518.31,-47.76 542.8,-33.55"/>
<polygon fill="green" stroke="green" stroke-width="0.8" points="544.62,-36.54 551.51,-28.5 541.1,-30.49 544.62,-36.54"/>
</g>
</g>
</svg>
