<?xml version="1.0" encoding="UTF-8" standalone="no"?>
<!DOCTYPE svg PUBLIC "-//W3C//DTD SVG 1.1//EN"
 "http://www.w3.org/Graphics/SVG/1.1/DTD/svg11.dtd">
<!-- Generated by graphviz version 3.0.0 (20220226.1711)
 -->
<!-- Pages: 1 -->
<svg width="3984pt" height="317pt"
 viewBox="0.00 0.00 3983.93 317.08" xmlns="http://www.w3.org/2000/svg" xmlns:xlink="http://www.w3.org/1999/xlink">
<g id="graph0" class="graph" transform="scale(1 1) rotate(0) translate(4 313.08)">
<polygon fill="white" stroke="transparent" points="-4,4 -4,-313.08 3979.93,-313.08 3979.93,4 -4,4"/>
<!-- 1 -->
<g id="node1" class="node">
<title>1</title>
<polygon fill="lightgray" stroke="black" points="3538.88,-309.08 3517.88,-309.08 3517.88,-291.08 3538.88,-291.08 3538.88,-309.08"/>
<text text-anchor="middle" x="3528.38" y="-297.88" font-family="Times,serif" font-size="9.00">1</text>
</g>
<!-- 43 -->
<g id="node19" class="node">
<title>43</title>
<ellipse fill="lightblue" stroke="black" cx="932.38" cy="-18.38" rx="18.27" ry="18.27"/>
<text text-anchor="middle" x="932.38" y="-16.18" font-family="Times,serif" font-size="9.00">43</text>
</g>
<!-- 1&#45;&gt;43 -->
<g id="edge1" class="edge">
<title>1&#45;&gt;43</title>
<path fill="none" stroke="green" stroke-width="0.8" d="M3517.61,-298.25C3495.35,-296.57 3442.67,-292.78 3398.38,-291.08 3333.73,-288.59 1126.82,-284.86 1069.38,-255.08 987.82,-212.78 951.18,-99.1 938.23,-46.62"/>
<polygon fill="green" stroke="green" stroke-width="0.8" points="941.59,-45.62 935.89,-36.69 934.78,-47.23 941.59,-45.62"/>
</g>
<!-- 40 -->
<g id="node20" class="node">
<title>40</title>
<ellipse fill="lightblue" stroke="black" cx="3373.38" cy="-18.38" rx="18.27" ry="18.27"/>
<text text-anchor="middle" x="3373.38" y="-16.18" font-family="Times,serif" font-size="9.00">40</text>
</g>
<!-- 1&#45;&gt;40 -->
<g id="edge2" class="edge">
<title>1&#45;&gt;40</title>
<path fill="none" stroke="green" stroke-width="0.8" d="M3539.03,-298.82C3602.42,-297.17 3928.41,-287.17 3957.38,-255.08 3990.01,-218.94 3972.25,-191.9 3957.38,-145.54 3945.25,-107.69 3939.78,-92.7 3905.38,-72.77 3818.68,-22.53 3499.82,-19.06 3402.06,-19.21"/>
<polygon fill="green" stroke="green" stroke-width="0.8" points="3402.02,-15.71 3392.03,-19.24 3402.04,-22.71 3402.02,-15.71"/>
</g>
<!-- 44 -->
<g id="node22" class="node">
<title>44</title>
<ellipse fill="lightblue" stroke="black" cx="673.38" cy="-18.38" rx="18.27" ry="18.27"/>
<text text-anchor="middle" x="673.38" y="-16.18" font-family="Times,serif" font-size="9.00">44</text>
</g>
<!-- 1&#45;&gt;44 -->
<g id="edge3" class="edge">
<title>1&#45;&gt;44</title>
<path fill="none" stroke="green" stroke-width="0.8" d="M3517.61,-298.25C3495.35,-296.56 3442.67,-292.78 3398.38,-291.08 2870.27,-270.84 1547.03,-299.36 1020.38,-255.08 1007.14,-253.96 558.91,-188.93 547.38,-182.31 499.43,-154.78 455.14,-116.96 488.38,-72.77 507.26,-47.68 598.06,-30.66 645.06,-23.38"/>
<polygon fill="green" stroke="green" stroke-width="0.8" points="645.82,-26.81 655.19,-21.86 644.78,-19.89 645.82,-26.81"/>
</g>
<!-- 42 -->
<g id="node23" class="node">
<title>42</title>
<ellipse fill="lightblue" stroke="black" cx="2530.38" cy="-91.15" rx="18.27" ry="18.27"/>
<text text-anchor="middle" x="2530.38" y="-88.95" font-family="Times,serif" font-size="9.00">42</text>
</g>
<!-- 1&#45;&gt;42 -->
<g id="edge4" class="edge">
<title>1&#45;&gt;42</title>
<path fill="none" stroke="green" stroke-width="0.8" d="M3517.63,-298.41C3434.17,-293.19 2892.61,-259.23 2876.38,-255.08 2727.38,-216.92 2699.81,-178.63 2562.38,-109.54 2560.06,-108.37 2557.66,-107.13 2555.26,-105.87"/>
<polygon fill="green" stroke="green" stroke-width="0.8" points="2556.7,-102.67 2546.23,-101.02 2553.39,-108.83 2556.7,-102.67"/>
</g>
<!-- 35 -->
<g id="node24" class="node">
<title>35</title>
<ellipse fill="lightblue" stroke="black" cx="2977.38" cy="-18.38" rx="18.27" ry="18.27"/>
<text text-anchor="middle" x="2977.38" y="-16.18" font-family="Times,serif" font-size="9.00">35</text>
</g>
<!-- 1&#45;&gt;35 -->
<g id="edge5" class="edge">
<title>1&#45;&gt;35</title>
<path fill="none" stroke="green" stroke-width="0.8" d="M3539.04,-298.56C3582.06,-295.82 3743.83,-279.17 3808.38,-182.31 3837.57,-138.51 3808.46,-99.94 3763.38,-72.77 3730.31,-52.84 3143.66,-26.52 3006.09,-20.6"/>
<polygon fill="green" stroke="green" stroke-width="0.8" points="3006.06,-17.1 2995.92,-20.16 3005.76,-24.09 3006.06,-17.1"/>
</g>
<!-- 20 -->
<g id="node26" class="node">
<title>20</title>
<ellipse fill="white" stroke="black" cx="2790.38" cy="-91.15" rx="18.27" ry="18.27"/>
<text text-anchor="middle" x="2790.38" y="-88.95" font-family="Times,serif" font-size="9.00">20</text>
</g>
<!-- 1&#45;&gt;20 -->
<g id="edge152" class="edge">
<title>1&#45;&gt;20</title>
<path fill="none" stroke="green" stroke-width="0.8" d="M3522.63,-290.96C3502.94,-263.97 3435.01,-177.19 3354.38,-145.54 3255.12,-106.58 2919.34,-95.32 2818.96,-92.78"/>
<polygon fill="green" stroke="green" stroke-width="0.8" points="2819.03,-89.29 2808.95,-92.54 2818.86,-96.28 2819.03,-89.29"/>
</g>
<!-- 23 -->
<g id="node29" class="node">
<title>23</title>
<ellipse fill="white" stroke="black" cx="2490.38" cy="-236.69" rx="18.27" ry="18.27"/>
<text text-anchor="middle" x="2490.38" y="-234.49" font-family="Times,serif" font-size="9.00">23</text>
</g>
<!-- 1&#45;&gt;23 -->
<g id="edge109" class="edge">
<title>1&#45;&gt;23</title>
<path fill="none" stroke="green" stroke-width="0.8" d="M3517.6,-298.39C3495.33,-296.99 3442.63,-293.68 3398.38,-291.08 3113.54,-274.32 3042.2,-272.35 2757.38,-255.08 2670.52,-249.81 2567.81,-242.94 2518.96,-239.64"/>
<polygon fill="green" stroke="green" stroke-width="0.8" points="2519.05,-236.14 2508.83,-238.95 2518.57,-243.12 2519.05,-236.14"/>
</g>
<!-- 34 -->
<g id="node39" class="node">
<title>34</title>
<ellipse fill="white" stroke="black" cx="3327.38" cy="-163.92" rx="18.27" ry="18.27"/>
<text text-anchor="middle" x="3327.38" y="-161.72" font-family="Times,serif" font-size="9.00">34</text>
</g>
<!-- 1&#45;&gt;34 -->
<g id="edge96" class="edge">
<title>1&#45;&gt;34</title>
<path fill="none" stroke="green" stroke-width="0.8" d="M3517.6,-291.66C3496.77,-277.35 3449.52,-244.99 3409.38,-218.31 3389.81,-205.3 3367.44,-190.75 3351.01,-180.14"/>
<polygon fill="green" stroke="green" stroke-width="0.8" points="3352.85,-177.16 3342.56,-174.68 3349.06,-183.04 3352.85,-177.16"/>
</g>
<!-- 2 -->
<g id="node2" class="node">
<title>2</title>
<polygon fill="lightgray" stroke="black" points="1911.88,-172.92 1890.88,-172.92 1890.88,-154.92 1911.88,-154.92 1911.88,-172.92"/>
<text text-anchor="middle" x="1901.38" y="-161.72" font-family="Times,serif" font-size="9.00">2</text>
</g>
<!-- 2&#45;&gt;43 -->
<g id="edge6" class="edge">
<title>2&#45;&gt;43</title>
<path fill="none" stroke="green" stroke-width="0.8" d="M1890.77,-157.64C1857.85,-141.55 1754.2,-93 1662.38,-72.77 1524.89,-42.48 1078.51,-24.63 960.97,-20.38"/>
<polygon fill="green" stroke="green" stroke-width="0.8" points="961.06,-16.88 950.94,-20.02 960.81,-23.87 961.06,-16.88"/>
</g>
<!-- 2&#45;&gt;40 -->
<g id="edge7" class="edge">
<title>2&#45;&gt;40</title>
<path fill="none" stroke="green" stroke-width="0.8" d="M1912.05,-158.21C1921.82,-154.12 1936.79,-148.42 1950.38,-145.54 2156.21,-101.98 2218.6,-161.82 2422.38,-109.54 2460.68,-99.71 2465.02,-82.31 2503.38,-72.77 2545.11,-62.39 3198.76,-28.35 3344.66,-20.85"/>
<polygon fill="green" stroke="green" stroke-width="0.8" points="3345.2,-24.33 3355.01,-20.32 3344.84,-17.34 3345.2,-24.33"/>
</g>
<!-- 30 -->
<g id="node21" class="node">
<title>30</title>
<ellipse fill="lightblue" stroke="black" cx="1819.38" cy="-18.38" rx="18.27" ry="18.27"/>
<text text-anchor="middle" x="1819.38" y="-16.18" font-family="Times,serif" font-size="9.00">30</text>
</g>
<!-- 2&#45;&gt;30 -->
<g id="edge8" class="edge">
<title>2&#45;&gt;30</title>
<path fill="none" stroke="green" stroke-width="0.8" d="M1911.65,-154.72C1916,-151.53 1921.25,-148.04 1926.38,-145.54 1974.89,-121.85 2010.37,-153 2042.38,-109.54 2052.08,-96.38 2052.51,-85.6 2042.38,-72.77 2018.4,-42.37 1902.1,-27.34 1847.63,-21.88"/>
<polygon fill="green" stroke="green" stroke-width="0.8" points="1847.9,-18.39 1837.61,-20.92 1847.23,-25.36 1847.9,-18.39"/>
</g>
<!-- 2&#45;&gt;44 -->
<g id="edge9" class="edge">
<title>2&#45;&gt;44</title>
<path fill="none" stroke="green" stroke-width="0.8" d="M1890.78,-159.41C1879.21,-155.66 1860.11,-149.7 1843.38,-145.54 1763.79,-125.74 1733.65,-150.14 1662.38,-109.54 1643.31,-98.67 1649.21,-82.21 1629.38,-72.77 1556.67,-38.13 985.77,-41.78 905.38,-36.77 831.99,-32.2 745.64,-25.33 701.89,-21.75"/>
<polygon fill="green" stroke="green" stroke-width="0.8" points="701.97,-18.25 691.72,-20.92 701.4,-25.22 701.97,-18.25"/>
</g>
<!-- 2&#45;&gt;42 -->
<g id="edge10" class="edge">
<title>2&#45;&gt;42</title>
<path fill="none" stroke="green" stroke-width="0.8" d="M1912.16,-161.82C1939.77,-159 2015.35,-151.34 2078.38,-145.54 2264.95,-128.38 2318.94,-163.4 2498.38,-109.54 2501.02,-108.75 2503.68,-107.72 2506.29,-106.57"/>
<polygon fill="green" stroke="green" stroke-width="0.8" points="2507.98,-109.63 2515.32,-101.99 2504.82,-103.39 2507.98,-109.63"/>
</g>
<!-- 2&#45;&gt;35 -->
<g id="edge11" class="edge">
<title>2&#45;&gt;35</title>
<path fill="none" stroke="green" stroke-width="0.8" d="M1911,-154.7C1915.42,-151.35 1920.89,-147.74 1926.38,-145.54 2022.42,-107.02 2061.27,-150.26 2156.38,-109.54 2181.09,-98.96 2179.25,-82.27 2204.38,-72.77 2344.55,-19.8 2826.15,-18.59 2948.79,-19.17"/>
<polygon fill="green" stroke="green" stroke-width="0.8" points="2948.87,-22.67 2958.89,-19.23 2948.91,-15.67 2948.87,-22.67"/>
</g>
<!-- 2&#45;&gt;20 -->
<g id="edge144" class="edge">
<title>2&#45;&gt;20</title>
<path fill="none" stroke="green" stroke-width="0.8" d="M1912.11,-162.26C2007.31,-156.35 2704.3,-113.01 2725.38,-109.54 2738,-107.46 2751.72,-103.98 2763.28,-100.68"/>
<polygon fill="green" stroke="green" stroke-width="0.8" points="2764.61,-103.94 2773.21,-97.74 2762.62,-97.22 2764.61,-103.94"/>
</g>
<!-- 22 -->
<g id="node28" class="node">
<title>22</title>
<ellipse fill="white" stroke="black" cx="1434.38" cy="-91.15" rx="18.27" ry="18.27"/>
<text text-anchor="middle" x="1434.38" y="-88.95" font-family="Times,serif" font-size="9.00">22</text>
</g>
<!-- 2&#45;&gt;22 -->
<g id="edge95" class="edge">
<title>2&#45;&gt;22</title>
<path fill="none" stroke="green" stroke-width="0.8" d="M1890.83,-159.2C1879.31,-155.26 1860.24,-149.14 1843.38,-145.54 1824.67,-141.54 1551.92,-106.98 1462.53,-95.7"/>
<polygon fill="green" stroke="green" stroke-width="0.8" points="1462.92,-92.22 1452.56,-94.44 1462.05,-99.17 1462.92,-92.22"/>
</g>
<!-- 3 -->
<g id="node3" class="node">
<title>3</title>
<polygon fill="lightgray" stroke="black" points="1872.88,-245.69 1851.88,-245.69 1851.88,-227.69 1872.88,-227.69 1872.88,-245.69"/>
<text text-anchor="middle" x="1862.38" y="-234.49" font-family="Times,serif" font-size="9.00">3</text>
</g>
<!-- 3&#45;&gt;43 -->
<g id="edge12" class="edge">
<title>3&#45;&gt;43</title>
<path fill="none" stroke="green" stroke-width="0.8" d="M1852.9,-227.64C1848.23,-224.14 1842.33,-220.38 1836.38,-218.31 1648.57,-152.94 1584.02,-227.61 1390.38,-182.31 1262.28,-152.34 1239.79,-115.58 1115.38,-72.77 1060.84,-54 995.74,-36.04 959.74,-26.49"/>
<polygon fill="green" stroke="green" stroke-width="0.8" points="960.53,-23.08 949.97,-23.92 958.75,-29.85 960.53,-23.08"/>
</g>
<!-- 3&#45;&gt;40 -->
<g id="edge13" class="edge">
<title>3&#45;&gt;40</title>
<path fill="none" stroke="green" stroke-width="0.8" d="M1873.04,-235.56C1960.94,-234.41 2567.47,-224.95 2744.38,-182.31 2784,-172.76 2789.7,-158.36 2828.38,-145.54 3021.6,-81.5 3263.75,-37.76 3345.19,-24.01"/>
<polygon fill="green" stroke="green" stroke-width="0.8" points="3345.89,-27.44 3355.17,-22.34 3344.73,-20.53 3345.89,-27.44"/>
</g>
<!-- 3&#45;&gt;30 -->
<g id="edge14" class="edge">
<title>3&#45;&gt;30</title>
<path fill="none" stroke="green" stroke-width="0.8" d="M1862.1,-227.59C1861.91,-210.65 1863.65,-170.97 1882.38,-145.54 1901.51,-119.58 1929.2,-137.43 1945.38,-109.54 1953.59,-95.4 1954.41,-86.39 1945.38,-72.77 1923.89,-40.31 1878.28,-27.53 1848.24,-22.54"/>
<polygon fill="green" stroke="green" stroke-width="0.8" points="1848.35,-19.02 1837.95,-21.03 1847.34,-25.94 1848.35,-19.02"/>
</g>
<!-- 3&#45;&gt;44 -->
<g id="edge15" class="edge">
<title>3&#45;&gt;44</title>
<path fill="none" stroke="green" stroke-width="0.8" d="M1852.91,-227.6C1848.25,-224.09 1842.35,-220.33 1836.38,-218.31 1600.18,-138.25 1520.23,-234.68 1276.38,-182.31 1230.9,-172.54 1222.23,-161.08 1178.38,-145.54 1082.11,-111.42 1059.28,-98.34 960.38,-72.77 866.93,-48.6 753.68,-30.85 701.82,-23.34"/>
<polygon fill="green" stroke="green" stroke-width="0.8" points="702.1,-19.85 691.71,-21.89 701.11,-26.77 702.1,-19.85"/>
</g>
<!-- 3&#45;&gt;20 -->
<g id="edge155" class="edge">
<title>3&#45;&gt;20</title>
<path fill="none" stroke="green" stroke-width="0.8" d="M1872.9,-235.51C1964.81,-233.85 2630.4,-220.55 2709.38,-182.31 2738.88,-168.03 2762.47,-137.75 2776.42,-116.23"/>
<polygon fill="green" stroke="green" stroke-width="0.8" points="2779.47,-117.95 2781.8,-107.62 2773.53,-114.25 2779.47,-117.95"/>
</g>
<!-- 33 -->
<g id="node38" class="node">
<title>33</title>
<ellipse fill="white" stroke="black" cx="1816.38" cy="-163.92" rx="18.27" ry="18.27"/>
<text text-anchor="middle" x="1816.38" y="-161.72" font-family="Times,serif" font-size="9.00">33</text>
</g>
<!-- 3&#45;&gt;33 -->
<g id="edge132" class="edge">
<title>3&#45;&gt;33</title>
<path fill="none" stroke="green" stroke-width="0.8" d="M1857.11,-227.58C1850.91,-218.04 1840.37,-201.82 1831.56,-188.27"/>
<polygon fill="green" stroke="green" stroke-width="0.8" points="1834.47,-186.32 1826.08,-179.85 1828.6,-190.14 1834.47,-186.32"/>
</g>
<!-- 38 -->
<g id="node42" class="node">
<title>38</title>
<ellipse fill="white" stroke="black" cx="2214.38" cy="-163.92" rx="18.27" ry="18.27"/>
<text text-anchor="middle" x="2214.38" y="-161.72" font-family="Times,serif" font-size="9.00">38</text>
</g>
<!-- 3&#45;&gt;38 -->
<g id="edge156" class="edge">
<title>3&#45;&gt;38</title>
<path fill="none" stroke="green" stroke-width="0.8" d="M1872.92,-235.2C1913.8,-233.03 2065.49,-222.54 2182.38,-182.31 2184.99,-181.41 2187.63,-180.32 2190.22,-179.12"/>
<polygon fill="green" stroke="green" stroke-width="0.8" points="2191.94,-182.17 2199.24,-174.49 2188.74,-175.95 2191.94,-182.17"/>
</g>
<!-- 4 -->
<g id="node4" class="node">
<title>4</title>
<polygon fill="lightgray" stroke="black" points="1300.88,-245.69 1279.88,-245.69 1279.88,-227.69 1300.88,-227.69 1300.88,-245.69"/>
<text text-anchor="middle" x="1290.38" y="-234.49" font-family="Times,serif" font-size="9.00">4</text>
</g>
<!-- 4&#45;&gt;43 -->
<g id="edge16" class="edge">
<title>4&#45;&gt;43</title>
<path fill="none" stroke="green" stroke-width="0.8" d="M1279.83,-229.48C1263,-219.57 1229.04,-199.52 1200.38,-182.31 1110.01,-128.04 1003.06,-62.68 956.29,-34.04"/>
<polygon fill="green" stroke="green" stroke-width="0.8" points="958.11,-31.05 947.76,-28.81 954.46,-37.02 958.11,-31.05"/>
</g>
<!-- 4&#45;&gt;40 -->
<g id="edge17" class="edge">
<title>4&#45;&gt;40</title>
<path fill="none" stroke="green" stroke-width="0.8" d="M1301.14,-235.31C1425.11,-230.84 2579.61,-189.07 2595.38,-182.31 2616.99,-173.05 2613.61,-158.24 2633.38,-145.54 2670.33,-121.81 2688.44,-133.27 2725.38,-109.54 2745.16,-96.84 2742,-82.53 2763.38,-72.77 2816.73,-48.42 3231.29,-26.39 3344.76,-20.76"/>
<polygon fill="green" stroke="green" stroke-width="0.8" points="3345.25,-24.24 3355.07,-20.26 3344.91,-17.25 3345.25,-24.24"/>
</g>
<!-- 4&#45;&gt;30 -->
<g id="edge18" class="edge">
<title>4&#45;&gt;30</title>
<path fill="none" stroke="green" stroke-width="0.8" d="M1300.92,-228.06C1337.16,-202.18 1460.76,-116.88 1575.38,-72.77 1650.32,-43.93 1744.5,-28.88 1790.88,-22.76"/>
<polygon fill="green" stroke="green" stroke-width="0.8" points="1791.61,-26.2 1801.08,-21.46 1790.72,-19.25 1791.61,-26.2"/>
</g>
<!-- 4&#45;&gt;44 -->
<g id="edge19" class="edge">
<title>4&#45;&gt;44</title>
<path fill="none" stroke="green" stroke-width="0.8" d="M1279.44,-233.75C1246.57,-227.76 1145.97,-208.43 1065.38,-182.31 1046.61,-176.22 784.6,-66.17 699.72,-30.47"/>
<polygon fill="green" stroke="green" stroke-width="0.8" points="700.85,-27.14 690.27,-26.49 698.13,-33.6 700.85,-27.14"/>
</g>
<!-- 4&#45;&gt;42 -->
<g id="edge20" class="edge">
<title>4&#45;&gt;42</title>
<path fill="none" stroke="green" stroke-width="0.8" d="M1301.06,-235.44C1391.58,-233.23 2029.24,-216.5 2106.38,-182.31 2127.87,-172.79 2123.07,-155.45 2144.38,-145.54 2287.79,-78.87 2347.28,-156.2 2498.38,-109.54 2501.01,-108.73 2503.67,-107.69 2506.27,-106.53"/>
<polygon fill="green" stroke="green" stroke-width="0.8" points="2507.97,-109.59 2515.31,-101.94 2504.8,-103.35 2507.97,-109.59"/>
</g>
<!-- 4&#45;&gt;35 -->
<g id="edge21" class="edge">
<title>4&#45;&gt;35</title>
<path fill="none" stroke="green" stroke-width="0.8" d="M1301.1,-235.32C1384.36,-232.34 1926.54,-211.9 1992.38,-182.31 2013.82,-172.67 2009.32,-155.95 2030.38,-145.54 2127.08,-97.76 2167.33,-141.39 2270.38,-109.54 2306.23,-98.46 2310.2,-82.69 2346.38,-72.77 2462.48,-40.95 2841.66,-24.51 2948.9,-20.41"/>
<polygon fill="green" stroke="green" stroke-width="0.8" points="2949.1,-23.91 2958.96,-20.04 2948.84,-16.91 2949.1,-23.91"/>
</g>
<!-- 27 -->
<g id="node33" class="node">
<title>27</title>
<ellipse fill="white" stroke="black" cx="1092.38" cy="-163.92" rx="18.27" ry="18.27"/>
<text text-anchor="middle" x="1092.38" y="-161.72" font-family="Times,serif" font-size="9.00">27</text>
</g>
<!-- 4&#45;&gt;27 -->
<g id="edge149" class="edge">
<title>4&#45;&gt;27</title>
<path fill="none" stroke="green" stroke-width="0.8" d="M1279.65,-232.99C1252.86,-226.08 1181.16,-206.61 1124.38,-182.31 1121.99,-181.29 1119.55,-180.14 1117.12,-178.94"/>
<polygon fill="green" stroke="green" stroke-width="0.8" points="1118.53,-175.73 1108.05,-174.19 1115.28,-181.93 1118.53,-175.73"/>
</g>
<!-- 5 -->
<g id="node5" class="node">
<title>5</title>
<polygon fill="lightgray" stroke="black" points="2905.88,-245.69 2884.88,-245.69 2884.88,-227.69 2905.88,-227.69 2905.88,-245.69"/>
<text text-anchor="middle" x="2895.38" y="-234.49" font-family="Times,serif" font-size="9.00">5</text>
</g>
<!-- 5&#45;&gt;43 -->
<g id="edge22" class="edge">
<title>5&#45;&gt;43</title>
<path fill="none" stroke="green" stroke-width="0.8" d="M2884.86,-235.16C2840.35,-232.94 2663.11,-224.16 2517.38,-218.31 2400.63,-213.62 1578.25,-216.05 1466.38,-182.31 1377.45,-155.48 1375.64,-104.64 1288.38,-72.77 1172.09,-30.29 1022.6,-21.59 960.93,-19.82"/>
<polygon fill="green" stroke="green" stroke-width="0.8" points="960.88,-16.32 950.8,-19.57 960.71,-23.32 960.88,-16.32"/>
</g>
<!-- 5&#45;&gt;40 -->
<g id="edge23" class="edge">
<title>5&#45;&gt;40</title>
<path fill="none" stroke="green" stroke-width="0.8" d="M2905.97,-232.63C2970.43,-213.98 3307.59,-116.21 3316.38,-109.54 3338.19,-92.99 3353.82,-65.5 3363.13,-45.22"/>
<polygon fill="green" stroke="green" stroke-width="0.8" points="3366.4,-46.48 3367.2,-35.92 3359.98,-43.68 3366.4,-46.48"/>
</g>
<!-- 5&#45;&gt;30 -->
<g id="edge24" class="edge">
<title>5&#45;&gt;30</title>
<path fill="none" stroke="green" stroke-width="0.8" d="M2897,-227.63C2900.02,-210.05 2904.35,-168.08 2882.38,-145.54 2815.99,-77.41 2763.78,-132.2 2671.38,-109.54 2619.68,-96.86 2609.64,-82.93 2557.38,-72.77 2285.13,-19.81 1947.17,-18.21 1847.99,-19.01"/>
<polygon fill="green" stroke="green" stroke-width="0.8" points="1847.82,-15.51 1837.86,-19.1 1847.89,-22.51 1847.82,-15.51"/>
</g>
<!-- 5&#45;&gt;44 -->
<g id="edge25" class="edge">
<title>5&#45;&gt;44</title>
<path fill="none" stroke="green" stroke-width="0.8" d="M2884.86,-235.16C2840.36,-232.89 2663.12,-223.99 2517.38,-218.31 2267.45,-208.56 1639.17,-223.07 1392.38,-182.31 1227.38,-155.06 1195.54,-109.51 1032.38,-72.77 910.89,-45.41 763.02,-28.48 701.91,-22.18"/>
<polygon fill="green" stroke="green" stroke-width="0.8" points="702.17,-18.69 691.87,-21.16 701.46,-25.65 702.17,-18.69"/>
</g>
<!-- 5&#45;&gt;35 -->
<g id="edge26" class="edge">
<title>5&#45;&gt;35</title>
<path fill="none" stroke="green" stroke-width="0.8" d="M2906,-229.25C2919.46,-220.46 2942.25,-203.36 2953.38,-182.31 2976.18,-139.21 2979.26,-81.23 2978.77,-47.32"/>
<polygon fill="green" stroke="green" stroke-width="0.8" points="2982.26,-47.11 2978.51,-37.21 2975.27,-47.29 2982.26,-47.11"/>
</g>
<!-- 39 -->
<g id="node43" class="node">
<title>39</title>
<ellipse fill="white" stroke="black" cx="2855.38" cy="-163.92" rx="18.27" ry="18.27"/>
<text text-anchor="middle" x="2855.38" y="-161.72" font-family="Times,serif" font-size="9.00">39</text>
</g>
<!-- 5&#45;&gt;39 -->
<g id="edge168" class="edge">
<title>5&#45;&gt;39</title>
<path fill="none" stroke="green" stroke-width="0.8" d="M2890.8,-227.58C2885.53,-218.25 2876.64,-202.53 2869.08,-189.16"/>
<polygon fill="green" stroke="green" stroke-width="0.8" points="2872.1,-187.38 2864.13,-180.39 2866,-190.82 2872.1,-187.38"/>
</g>
<!-- 6 -->
<g id="node6" class="node">
<title>6</title>
<polygon fill="lightgray" stroke="black" points="1098.88,-245.69 1077.88,-245.69 1077.88,-227.69 1098.88,-227.69 1098.88,-245.69"/>
<text text-anchor="middle" x="1088.38" y="-234.49" font-family="Times,serif" font-size="9.00">6</text>
</g>
<!-- 6&#45;&gt;43 -->
<g id="edge27" class="edge">
<title>6&#45;&gt;43</title>
<path fill="none" stroke="green" stroke-width="0.8" d="M1077.63,-233.93C1028.79,-225.89 829.8,-192.57 821.38,-182.31 779.26,-130.93 864.85,-63.79 908.68,-34.33"/>
<polygon fill="green" stroke="green" stroke-width="0.8" points="910.66,-37.22 917.09,-28.8 906.82,-31.37 910.66,-37.22"/>
</g>
<!-- 6&#45;&gt;40 -->
<g id="edge28" class="edge">
<title>6&#45;&gt;40</title>
<path fill="none" stroke="green" stroke-width="0.8" d="M1099.26,-231.65C1111.13,-227.44 1130.82,-221.08 1148.38,-218.31 1652.6,-138.65 1791.77,-259.41 2296.38,-182.31 2415.43,-164.12 2442.06,-144.2 2557.38,-109.54 2608.37,-94.22 2619.15,-83.03 2671.38,-72.77 2803.84,-46.75 3230.31,-25.89 3344.84,-20.65"/>
<polygon fill="green" stroke="green" stroke-width="0.8" points="3345.1,-24.15 3354.93,-20.2 3344.79,-17.15 3345.1,-24.15"/>
</g>
<!-- 6&#45;&gt;30 -->
<g id="edge29" class="edge">
<title>6&#45;&gt;30</title>
<path fill="none" stroke="green" stroke-width="0.8" d="M1082.38,-227.69C1070.61,-210.95 1047.17,-171.63 1065.38,-145.54 1119.04,-68.66 1171.97,-93.59 1263.38,-72.77 1461.55,-27.63 1707.92,-20.62 1790.73,-19.56"/>
<polygon fill="green" stroke="green" stroke-width="0.8" points="1790.91,-23.06 1800.88,-19.45 1790.84,-16.06 1790.91,-23.06"/>
</g>
<!-- 6&#45;&gt;44 -->
<g id="edge30" class="edge">
<title>6&#45;&gt;44</title>
<path fill="none" stroke="green" stroke-width="0.8" d="M1077.8,-235.18C1004.81,-231.4 576.92,-205.29 501.38,-109.54 459.91,-56.96 586.35,-31.7 645.1,-23.02"/>
<polygon fill="green" stroke="green" stroke-width="0.8" points="645.81,-26.45 655.23,-21.59 644.83,-19.52 645.81,-26.45"/>
</g>
<!-- 6&#45;&gt;42 -->
<g id="edge31" class="edge">
<title>6&#45;&gt;42</title>
<path fill="none" stroke="green" stroke-width="0.8" d="M1099.26,-231.69C1111.15,-227.52 1130.84,-221.2 1148.38,-218.31 1502.19,-160 1599.36,-232.7 1954.38,-182.31 2023.2,-172.54 2037.82,-156.92 2106.38,-145.54 2278.98,-116.9 2330.97,-160.34 2498.38,-109.54 2501.02,-108.74 2503.68,-107.71 2506.28,-106.55"/>
<polygon fill="green" stroke="green" stroke-width="0.8" points="2507.98,-109.62 2515.32,-101.97 2504.81,-103.37 2507.98,-109.62"/>
</g>
<!-- 6&#45;&gt;35 -->
<g id="edge32" class="edge">
<title>6&#45;&gt;35</title>
<path fill="none" stroke="green" stroke-width="0.8" d="M1099.26,-231.7C1111.15,-227.53 1130.84,-221.22 1148.38,-218.31 1233.21,-204.25 1843.7,-219.16 1921.38,-182.31 1941.22,-172.9 1935.05,-155.95 1954.38,-145.54 2049.34,-94.38 2097.68,-157.32 2194.38,-109.54 2215.45,-99.13 2210.93,-82.36 2232.38,-72.77 2298.75,-43.12 2820.35,-24.45 2948.85,-20.28"/>
<polygon fill="green" stroke="green" stroke-width="0.8" points="2949.18,-23.77 2959.06,-19.95 2948.96,-16.77 2949.18,-23.77"/>
</g>
<!-- 26 -->
<g id="node32" class="node">
<title>26</title>
<ellipse fill="white" stroke="black" cx="1608.38" cy="-163.92" rx="18.27" ry="18.27"/>
<text text-anchor="middle" x="1608.38" y="-161.72" font-family="Times,serif" font-size="9.00">26</text>
</g>
<!-- 6&#45;&gt;26 -->
<g id="edge167" class="edge">
<title>6&#45;&gt;26</title>
<path fill="none" stroke="green" stroke-width="0.8" d="M1099.29,-231.82C1111.19,-227.76 1130.89,-221.54 1148.38,-218.31 1338.29,-183.26 1398.54,-244.43 1581.38,-182.31 1582.63,-181.88 1583.88,-181.39 1585.11,-180.84"/>
<polygon fill="green" stroke="green" stroke-width="0.8" points="1587.1,-183.75 1594.2,-175.88 1583.75,-177.6 1587.1,-183.75"/>
</g>
<!-- 32 -->
<g id="node37" class="node">
<title>32</title>
<ellipse fill="white" stroke="black" cx="848.38" cy="-163.92" rx="18.27" ry="18.27"/>
<text text-anchor="middle" x="848.38" y="-161.72" font-family="Times,serif" font-size="9.00">32</text>
</g>
<!-- 6&#45;&gt;32 -->
<g id="edge142" class="edge">
<title>6&#45;&gt;32</title>
<path fill="none" stroke="green" stroke-width="0.8" d="M1077.76,-232.56C1042.47,-222.15 928.36,-188.51 875.6,-172.95"/>
<polygon fill="green" stroke="green" stroke-width="0.8" points="876.49,-169.56 865.91,-170.09 874.51,-176.28 876.49,-169.56"/>
</g>
<!-- 7 -->
<g id="node7" class="node">
<title>7</title>
<polygon fill="lightgray" stroke="black" points="2061.88,-309.08 2040.88,-309.08 2040.88,-291.08 2061.88,-291.08 2061.88,-309.08"/>
<text text-anchor="middle" x="2051.38" y="-297.88" font-family="Times,serif" font-size="9.00">7</text>
</g>
<!-- 7&#45;&gt;43 -->
<g id="edge33" class="edge">
<title>7&#45;&gt;43</title>
<path fill="none" stroke="green" stroke-width="0.8" d="M2040.63,-299C1921.16,-298.14 844.23,-289.47 707.38,-255.08 586.77,-224.77 522.57,-221.48 468.38,-109.54 461.26,-94.83 457.51,-84.97 468.38,-72.77 483,-56.38 805.13,-29.5 903.87,-21.62"/>
<polygon fill="green" stroke="green" stroke-width="0.8" points="904.32,-25.1 914.01,-20.82 903.76,-18.12 904.32,-25.1"/>
</g>
<!-- 7&#45;&gt;40 -->
<g id="edge34" class="edge">
<title>7&#45;&gt;40</title>
<path fill="none" stroke="green" stroke-width="0.8" d="M2062.05,-298.85C2187.42,-296.15 3376.98,-270.17 3409.38,-255.08 3429.29,-245.81 3423.07,-228.75 3442.38,-218.31 3535.33,-168.05 3608.56,-262.48 3677.38,-182.31 3709.1,-145.37 3708.69,-110.05 3677.38,-72.77 3642.3,-30.99 3470.73,-21.9 3401.96,-19.93"/>
<polygon fill="green" stroke="green" stroke-width="0.8" points="3401.93,-16.43 3391.85,-19.67 3401.75,-23.42 3401.93,-16.43"/>
</g>
<!-- 7&#45;&gt;30 -->
<g id="edge35" class="edge">
<title>7&#45;&gt;30</title>
<path fill="none" stroke="green" stroke-width="0.8" d="M2040.73,-298.56C1993.87,-296.12 1806.14,-284.62 1756.38,-255.08 1709.54,-227.27 1680.19,-195.72 1701.38,-145.54 1710.31,-124.4 1722.49,-126.08 1738.38,-109.54 1760.61,-86.41 1785.09,-58.86 1801.26,-40.35"/>
<polygon fill="green" stroke="green" stroke-width="0.8" points="1803.93,-42.62 1807.85,-32.78 1798.65,-38.02 1803.93,-42.62"/>
</g>
<!-- 7&#45;&gt;44 -->
<g id="edge36" class="edge">
<title>7&#45;&gt;44</title>
<path fill="none" stroke="green" stroke-width="0.8" d="M2040.78,-298.98C1892.74,-297.54 244.04,-281 202.38,-255.08 165.12,-231.89 96.89,-105.28 126.38,-72.77 161.52,-34.04 537.6,-22.49 644.93,-19.98"/>
<polygon fill="green" stroke="green" stroke-width="0.8" points="645.1,-23.47 655.02,-19.75 644.94,-16.47 645.1,-23.47"/>
</g>
<!-- 7&#45;&gt;35 -->
<g id="edge37" class="edge">
<title>7&#45;&gt;35</title>
<path fill="none" stroke="green" stroke-width="0.8" d="M2061.97,-298.81C2171.12,-296.03 3088.91,-272.18 3143.38,-255.08 3200.73,-237.07 3228.5,-235.02 3257.38,-182.31 3282.15,-137.12 3260.3,-104.09 3219.38,-72.77 3185.93,-47.16 3061.99,-29.49 3005.62,-22.6"/>
<polygon fill="green" stroke="green" stroke-width="0.8" points="3005.95,-19.11 2995.61,-21.4 3005.12,-26.06 3005.95,-19.11"/>
</g>
<!-- 7&#45;&gt;23 -->
<g id="edge99" class="edge">
<title>7&#45;&gt;23</title>
<path fill="none" stroke="green" stroke-width="0.8" d="M2062.02,-297.6C2102.07,-292.06 2247.53,-271.89 2367.38,-255.08 2399.76,-250.54 2436.91,-245.28 2461.84,-241.74"/>
<polygon fill="green" stroke="green" stroke-width="0.8" points="2462.64,-245.17 2472.05,-240.3 2461.66,-238.24 2462.64,-245.17"/>
</g>
<!-- 8 -->
<g id="node8" class="node">
<title>8</title>
<polygon fill="lightgray" stroke="black" points="1826.88,-245.69 1805.88,-245.69 1805.88,-227.69 1826.88,-227.69 1826.88,-245.69"/>
<text text-anchor="middle" x="1816.38" y="-234.49" font-family="Times,serif" font-size="9.00">8</text>
</g>
<!-- 8&#45;&gt;43 -->
<g id="edge38" class="edge">
<title>8&#45;&gt;43</title>
<path fill="none" stroke="green" stroke-width="0.8" d="M1805.57,-235.76C1751.58,-235.84 1506.25,-233.24 1314.38,-182.31 1197.14,-151.19 1176.18,-119.86 1064.38,-72.77 1028.02,-57.45 985.69,-40.48 958.97,-29.88"/>
<polygon fill="green" stroke="green" stroke-width="0.8" points="960.12,-26.57 949.54,-26.14 957.54,-33.08 960.12,-26.57"/>
</g>
<!-- 8&#45;&gt;30 -->
<g id="edge39" class="edge">
<title>8&#45;&gt;30</title>
<path fill="none" stroke="green" stroke-width="0.8" d="M1805.68,-233.93C1783.58,-229.65 1733.22,-216.43 1712.38,-182.31 1703.87,-168.36 1704.13,-159.65 1712.38,-145.54 1728.86,-117.37 1754.1,-133.38 1776.38,-109.54 1793.25,-91.5 1804.66,-65.63 1811.46,-46.23"/>
<polygon fill="green" stroke="green" stroke-width="0.8" points="1814.87,-47.07 1814.69,-36.48 1808.22,-44.87 1814.87,-47.07"/>
</g>
<!-- 8&#45;&gt;44 -->
<g id="edge40" class="edge">
<title>8&#45;&gt;44</title>
<path fill="none" stroke="green" stroke-width="0.8" d="M1805.8,-235.93C1746.07,-237.05 1445.34,-239.5 1209.38,-182.31 1167.39,-172.13 1160.24,-159.61 1119.38,-145.54 963.44,-91.82 771.29,-43.25 700.89,-26.02"/>
<polygon fill="green" stroke="green" stroke-width="0.8" points="701.57,-22.58 691.03,-23.62 699.92,-29.38 701.57,-22.58"/>
</g>
<!-- 8&#45;&gt;42 -->
<g id="edge41" class="edge">
<title>8&#45;&gt;42</title>
<path fill="none" stroke="green" stroke-width="0.8" d="M1826.83,-227.39C1831.61,-224.02 1837.51,-220.42 1843.38,-218.31 1970.15,-172.67 2020.99,-236.41 2144.38,-182.31 2167.41,-172.21 2164.34,-155.59 2187.38,-145.54 2314.92,-89.9 2365.72,-151.52 2498.38,-109.54 2501.01,-108.71 2503.66,-107.66 2506.26,-106.49"/>
<polygon fill="green" stroke="green" stroke-width="0.8" points="2507.97,-109.55 2515.29,-101.89 2504.79,-103.31 2507.97,-109.55"/>
</g>
<!-- 8&#45;&gt;35 -->
<g id="edge42" class="edge">
<title>8&#45;&gt;35</title>
<path fill="none" stroke="green" stroke-width="0.8" d="M1826.9,-227.58C1831.7,-224.25 1837.59,-220.63 1843.38,-218.31 1921.95,-186.83 1948.51,-203.77 2030.38,-182.31 2080.25,-169.24 2090.41,-158.18 2140.38,-145.54 2230.49,-122.74 2255.32,-128.14 2346.38,-109.54 2416.6,-95.19 2432.77,-84.97 2503.38,-72.77 2670.65,-43.87 2873.95,-27.02 2948.34,-21.46"/>
<polygon fill="green" stroke="green" stroke-width="0.8" points="2949.04,-24.91 2958.75,-20.69 2948.52,-17.93 2949.04,-24.91"/>
</g>
<!-- 8&#45;&gt;20 -->
<g id="edge137" class="edge">
<title>8&#45;&gt;20</title>
<path fill="none" stroke="green" stroke-width="0.8" d="M1826.25,-227.55C1831.1,-224.03 1837.22,-220.27 1843.38,-218.31 2010.81,-164.9 2464.66,-231.45 2633.38,-182.31 2661.2,-174.21 2730.39,-131.01 2766.93,-107.47"/>
<polygon fill="green" stroke="green" stroke-width="0.8" points="2768.97,-110.32 2775.47,-101.95 2765.17,-104.44 2768.97,-110.32"/>
</g>
<!-- 8&#45;&gt;33 -->
<g id="edge154" class="edge">
<title>8&#45;&gt;33</title>
<path fill="none" stroke="green" stroke-width="0.8" d="M1816.38,-227.58C1816.38,-219.01 1816.38,-205.03 1816.38,-192.45"/>
<polygon fill="green" stroke="green" stroke-width="0.8" points="1819.88,-192.36 1816.38,-182.36 1812.88,-192.36 1819.88,-192.36"/>
</g>
<!-- 9 -->
<g id="node9" class="node">
<title>9</title>
<polygon fill="lightgray" stroke="black" points="1741.88,-172.92 1720.88,-172.92 1720.88,-154.92 1741.88,-154.92 1741.88,-172.92"/>
<text text-anchor="middle" x="1731.38" y="-161.72" font-family="Times,serif" font-size="9.00">9</text>
</g>
<!-- 9&#45;&gt;40 -->
<g id="edge43" class="edge">
<title>9&#45;&gt;40</title>
<path fill="none" stroke="green" stroke-width="0.8" d="M1741.9,-158.97C1753.38,-154.84 1772.41,-148.55 1789.38,-145.54 1919.81,-122.37 2263.15,-162.91 2384.38,-109.54 2405.89,-100.07 2400.86,-82.19 2422.38,-72.77 2444.07,-63.28 3187.96,-28.05 3344.61,-20.72"/>
<polygon fill="green" stroke="green" stroke-width="0.8" points="3345.03,-24.21 3354.86,-20.25 3344.71,-17.22 3345.03,-24.21"/>
</g>
<!-- 9&#45;&gt;30 -->
<g id="edge44" class="edge">
<title>9&#45;&gt;30</title>
<path fill="none" stroke="green" stroke-width="0.8" d="M1742.01,-155.36C1746.42,-152.26 1751.61,-148.68 1756.38,-145.54 1781.74,-128.87 1798.91,-135.63 1814.38,-109.54 1825.53,-90.74 1826.02,-65.68 1824.16,-46.75"/>
<polygon fill="green" stroke="green" stroke-width="0.8" points="1827.61,-46.16 1822.89,-36.68 1820.66,-47.04 1827.61,-46.16"/>
</g>
<!-- 9&#45;&gt;44 -->
<g id="edge45" class="edge">
<title>9&#45;&gt;44</title>
<path fill="none" stroke="green" stroke-width="0.8" d="M1720.75,-159.29C1672.38,-142.76 1474.99,-75.44 1461.38,-72.77 1218.38,-25.16 1152.41,-54.02 905.38,-36.77 832.02,-31.65 745.66,-25.02 701.9,-21.62"/>
<polygon fill="green" stroke="green" stroke-width="0.8" points="701.97,-18.11 691.73,-20.82 701.42,-25.09 701.97,-18.11"/>
</g>
<!-- 9&#45;&gt;42 -->
<g id="edge46" class="edge">
<title>9&#45;&gt;42</title>
<path fill="none" stroke="green" stroke-width="0.8" d="M1741.89,-158.96C1753.38,-154.82 1772.41,-148.52 1789.38,-145.54 2066.92,-96.75 2142.24,-139.97 2422.38,-109.54 2449.81,-106.56 2480.87,-101.37 2502.63,-97.43"/>
<polygon fill="green" stroke="green" stroke-width="0.8" points="2503.3,-100.86 2512.5,-95.61 2502.03,-93.98 2503.3,-100.86"/>
</g>
<!-- 9&#45;&gt;35 -->
<g id="edge47" class="edge">
<title>9&#45;&gt;35</title>
<path fill="none" stroke="green" stroke-width="0.8" d="M1742.08,-159.32C1784.37,-145.22 1944.3,-93.65 2080.38,-72.77 2419.14,-20.79 2837.05,-18.71 2948.8,-19.17"/>
<polygon fill="green" stroke="green" stroke-width="0.8" points="2948.92,-22.67 2958.94,-19.22 2948.95,-15.67 2948.92,-22.67"/>
</g>
<!-- 9&#45;&gt;22 -->
<g id="edge98" class="edge">
<title>9&#45;&gt;22</title>
<path fill="none" stroke="green" stroke-width="0.8" d="M1720.81,-160.41C1679.2,-150.49 1525.85,-113.95 1462.28,-98.8"/>
<polygon fill="green" stroke="green" stroke-width="0.8" points="1462.73,-95.31 1452.19,-96.4 1461.1,-102.12 1462.73,-95.31"/>
</g>
<!-- 41 -->
<g id="node44" class="node">
<title>41</title>
<ellipse fill="white" stroke="black" cx="1602.38" cy="-91.15" rx="18.27" ry="18.27"/>
<text text-anchor="middle" x="1602.38" y="-88.95" font-family="Times,serif" font-size="9.00">41</text>
</g>
<!-- 9&#45;&gt;41 -->
<g id="edge171" class="edge">
<title>9&#45;&gt;41</title>
<path fill="none" stroke="green" stroke-width="0.8" d="M1720.83,-157.13C1700.5,-145.98 1655.44,-121.26 1627.13,-105.73"/>
<polygon fill="green" stroke="green" stroke-width="0.8" points="1628.68,-102.59 1618.23,-100.85 1625.31,-108.72 1628.68,-102.59"/>
</g>
<!-- 10 -->
<g id="node10" class="node">
<title>10</title>
<polygon fill="lightgray" stroke="black" points="3389.38,-309.08 3363.38,-309.08 3363.38,-291.08 3389.38,-291.08 3389.38,-309.08"/>
<text text-anchor="middle" x="3376.38" y="-297.88" font-family="Times,serif" font-size="9.00">10</text>
</g>
<!-- 10&#45;&gt;43 -->
<g id="edge48" class="edge">
<title>10&#45;&gt;43</title>
<path fill="none" stroke="green" stroke-width="0.8" d="M3363.36,-294.44C3358.98,-293.09 3354.02,-291.79 3349.38,-291.08 3090.69,-251.54 1250.35,-309.54 994.38,-255.08 953.73,-246.43 947.14,-233.35 908.38,-218.31 863.18,-200.77 845.17,-210.04 805.38,-182.31 759.85,-150.57 711.95,-117.08 745.38,-72.77 764.57,-47.34 857.1,-30.39 904.41,-23.24"/>
<polygon fill="green" stroke="green" stroke-width="0.8" points="904.93,-26.7 914.31,-21.78 903.91,-19.77 904.93,-26.7"/>
</g>
<!-- 10&#45;&gt;40 -->
<g id="edge49" class="edge">
<title>10&#45;&gt;40</title>
<path fill="none" stroke="green" stroke-width="0.8" d="M3389.71,-298.23C3457.98,-293.8 3766.73,-272.94 3805.38,-255.08 3885.07,-218.25 3940.12,-138.01 3881.38,-72.77 3849.11,-36.92 3504.76,-23.45 3402.11,-20.21"/>
<polygon fill="green" stroke="green" stroke-width="0.8" points="3401.98,-16.7 3391.87,-19.9 3401.76,-23.7 3401.98,-16.7"/>
</g>
<!-- 10&#45;&gt;30 -->
<g id="edge50" class="edge">
<title>10&#45;&gt;30</title>
<path fill="none" stroke="green" stroke-width="0.8" d="M3389.42,-297.71C3425.63,-293.61 3526.01,-280.15 3545.38,-255.08 3626.36,-150.32 3621.81,-168.46 3364.38,-72.77 3290.59,-45.34 2053.69,-23.34 1848.21,-19.86"/>
<polygon fill="green" stroke="green" stroke-width="0.8" points="1847.98,-16.36 1837.93,-19.69 1847.86,-23.36 1847.98,-16.36"/>
</g>
<!-- 10&#45;&gt;44 -->
<g id="edge51" class="edge">
<title>10&#45;&gt;44</title>
<path fill="none" stroke="green" stroke-width="0.8" d="M3363.37,-294.44C3358.98,-293.08 3354.02,-291.78 3349.38,-291.08 2768.89,-202.85 1289.88,-328.97 707.38,-255.08 673.46,-250.78 436.88,-201.21 408.38,-182.31 363.15,-152.31 319.31,-114.2 354.38,-72.77 391.57,-28.85 573.72,-21.04 644.85,-19.67"/>
<polygon fill="green" stroke="green" stroke-width="0.8" points="644.95,-23.17 654.89,-19.5 644.84,-16.17 644.95,-23.17"/>
</g>
<!-- 10&#45;&gt;42 -->
<g id="edge52" class="edge">
<title>10&#45;&gt;42</title>
<path fill="none" stroke="green" stroke-width="0.8" d="M3363.34,-294.56C3358.96,-293.22 3354.01,-291.89 3349.38,-291.08 3219.59,-268.21 2881.57,-299.23 2757.38,-255.08 2669.91,-223.97 2586.35,-148.32 2549.75,-112.11"/>
<polygon fill="green" stroke="green" stroke-width="0.8" points="2552.21,-109.62 2542.67,-105.01 2547.25,-114.56 2552.21,-109.62"/>
</g>
<!-- 10&#45;&gt;35 -->
<g id="edge53" class="edge">
<title>10&#45;&gt;35</title>
<path fill="none" stroke="green" stroke-width="0.8" d="M3389.8,-298.07C3457.03,-292.95 3754.47,-269.53 3767.38,-255.08 3822.54,-193.37 3798.61,-118.14 3729.38,-72.77 3698.57,-52.57 3140.18,-26.6 3006.14,-20.64"/>
<polygon fill="green" stroke="green" stroke-width="0.8" points="3006,-17.13 2995.86,-20.19 3005.69,-24.13 3006,-17.13"/>
</g>
<!-- 10&#45;&gt;23 -->
<g id="edge107" class="edge">
<title>10&#45;&gt;23</title>
<path fill="none" stroke="green" stroke-width="0.8" d="M3363.35,-294.54C3358.96,-293.19 3354.01,-291.87 3349.38,-291.08 3039.7,-238.08 2956.51,-280.83 2643.38,-255.08 2599.77,-251.49 2549.37,-245.38 2518.7,-241.44"/>
<polygon fill="green" stroke="green" stroke-width="0.8" points="2519.09,-237.97 2508.72,-240.15 2518.19,-244.91 2519.09,-237.97"/>
</g>
<!-- 29 -->
<g id="node35" class="node">
<title>29</title>
<ellipse fill="white" stroke="black" cx="3382.38" cy="-236.69" rx="18.27" ry="18.27"/>
<text text-anchor="middle" x="3382.38" y="-234.49" font-family="Times,serif" font-size="9.00">29</text>
</g>
<!-- 10&#45;&gt;29 -->
<g id="edge145" class="edge">
<title>10&#45;&gt;29</title>
<path fill="none" stroke="green" stroke-width="0.8" d="M3377.17,-291.05C3377.82,-284.44 3378.77,-274.66 3379.69,-265.27"/>
<polygon fill="green" stroke="green" stroke-width="0.8" points="3383.2,-265.32 3380.69,-255.03 3376.23,-264.64 3383.2,-265.32"/>
</g>
<!-- 11 -->
<g id="node11" class="node">
<title>11</title>
<polygon fill="lightgray" stroke="black" points="682.38,-309.08 656.38,-309.08 656.38,-291.08 682.38,-291.08 682.38,-309.08"/>
<text text-anchor="middle" x="669.38" y="-297.88" font-family="Times,serif" font-size="9.00">11</text>
</g>
<!-- 11&#45;&gt;43 -->
<g id="edge54" class="edge">
<title>11&#45;&gt;43</title>
<path fill="none" stroke="green" stroke-width="0.8" d="M656.12,-298.33C609.37,-295.47 452.92,-283.9 413.38,-255.08 346.78,-206.53 322.32,-132.24 379.38,-72.77 388.58,-63.18 791.87,-30.53 903.83,-21.64"/>
<polygon fill="green" stroke="green" stroke-width="0.8" points="904.32,-25.11 914.02,-20.83 903.77,-18.13 904.32,-25.11"/>
</g>
<!-- 11&#45;&gt;40 -->
<g id="edge55" class="edge">
<title>11&#45;&gt;40</title>
<path fill="none" stroke="green" stroke-width="0.8" d="M682.44,-297.78C701.67,-295.93 738.76,-292.58 770.38,-291.08 1272.99,-267.2 2535.49,-320.56 3034.38,-255.08 3101.16,-246.31 3115.55,-232.51 3181.38,-218.31 3268.82,-199.45 3314.19,-243.54 3379.38,-182.31 3415.35,-148.53 3407.73,-121.01 3397.38,-72.77 3395.26,-62.85 3391.14,-52.54 3386.9,-43.66"/>
<polygon fill="green" stroke="green" stroke-width="0.8" points="3389.99,-42.01 3382.35,-34.67 3383.74,-45.17 3389.99,-42.01"/>
</g>
<!-- 11&#45;&gt;30 -->
<g id="edge56" class="edge">
<title>11&#45;&gt;30</title>
<path fill="none" stroke="green" stroke-width="0.8" d="M665.49,-291.05C649.79,-257.43 595.23,-127.25 663.38,-72.77 708.76,-36.5 1615.75,-22.19 1790.42,-19.77"/>
<polygon fill="green" stroke="green" stroke-width="0.8" points="1790.68,-23.26 1800.63,-19.63 1790.59,-16.26 1790.68,-23.26"/>
</g>
<!-- 11&#45;&gt;35 -->
<g id="edge57" class="edge">
<title>11&#45;&gt;35</title>
<path fill="none" stroke="green" stroke-width="0.8" d="M682.44,-297.78C701.67,-295.93 738.76,-292.58 770.38,-291.08 832.24,-288.13 2945.24,-285.13 2999.38,-255.08 3071.52,-215.04 3073.27,-145.54 3034.38,-72.77 3026.41,-57.85 3012.68,-44.8 3000.69,-35.34"/>
<polygon fill="green" stroke="green" stroke-width="0.8" points="3002.48,-32.3 2992.38,-29.1 2998.28,-37.9 3002.48,-32.3"/>
</g>
<!-- 21 -->
<g id="node27" class="node">
<title>21</title>
<ellipse fill="white" stroke="black" cx="3327.38" cy="-236.69" rx="18.27" ry="18.27"/>
<text text-anchor="middle" x="3327.38" y="-234.49" font-family="Times,serif" font-size="9.00">21</text>
</g>
<!-- 11&#45;&gt;21 -->
<g id="edge110" class="edge">
<title>11&#45;&gt;21</title>
<path fill="none" stroke="green" stroke-width="0.8" d="M682.44,-297.77C701.67,-295.92 738.76,-292.57 770.38,-291.08 1840.88,-240.74 2112.09,-326.53 3181.38,-255.08 3222.44,-252.33 3269.68,-246.15 3299.04,-241.95"/>
<polygon fill="green" stroke="green" stroke-width="0.8" points="3299.61,-245.4 3309,-240.5 3298.6,-238.48 3299.61,-245.4"/>
</g>
<!-- 11&#45;&gt;22 -->
<g id="edge119" class="edge">
<title>11&#45;&gt;22</title>
<path fill="none" stroke="green" stroke-width="0.8" d="M664.89,-290.73C657.18,-275.14 643.6,-241.1 658.38,-218.31 701.56,-151.75 744.58,-165.43 821.38,-145.54 934.25,-116.31 1300.29,-98.12 1405.73,-93.39"/>
<polygon fill="green" stroke="green" stroke-width="0.8" points="1406.08,-96.87 1415.92,-92.94 1405.77,-89.88 1406.08,-96.87"/>
</g>
<!-- 11&#45;&gt;27 -->
<g id="edge118" class="edge">
<title>11&#45;&gt;27</title>
<path fill="none" stroke="green" stroke-width="0.8" d="M670.59,-291.07C673.55,-274.48 682.8,-236.4 707.38,-218.31 736.09,-197.19 979.56,-174.57 1063.82,-167.31"/>
<polygon fill="green" stroke="green" stroke-width="0.8" points="1064.29,-170.79 1073.96,-166.45 1063.69,-163.81 1064.29,-170.79"/>
</g>
<!-- 28 -->
<g id="node34" class="node">
<title>28</title>
<ellipse fill="white" stroke="black" cx="2269.38" cy="-163.92" rx="18.27" ry="18.27"/>
<text text-anchor="middle" x="2269.38" y="-161.72" font-family="Times,serif" font-size="9.00">28</text>
</g>
<!-- 11&#45;&gt;28 -->
<g id="edge150" class="edge">
<title>11&#45;&gt;28</title>
<path fill="none" stroke="green" stroke-width="0.8" d="M682.45,-297.85C701.68,-296.08 738.77,-292.84 770.38,-291.08 1264.1,-263.55 1391.24,-312.4 1882.38,-255.08 2044.09,-236.21 2090.07,-242.36 2241.38,-182.31 2242.81,-181.74 2244.25,-181.1 2245.68,-180.41"/>
<polygon fill="green" stroke="green" stroke-width="0.8" points="2247.76,-183.26 2254.79,-175.34 2244.35,-177.14 2247.76,-183.26"/>
</g>
<!-- 11&#45;&gt;32 -->
<g id="edge123" class="edge">
<title>11&#45;&gt;32</title>
<path fill="none" stroke="green" stroke-width="0.8" d="M667.15,-290.93C663.34,-275.06 657.51,-239.72 674.38,-218.31 709.32,-173.98 780.22,-165.52 819.88,-164.46"/>
<polygon fill="green" stroke="green" stroke-width="0.8" points="820,-167.96 829.95,-164.33 819.91,-160.96 820,-167.96"/>
</g>
<!-- 37 -->
<g id="node41" class="node">
<title>37</title>
<ellipse fill="white" stroke="black" cx="18.38" cy="-91.15" rx="18.27" ry="18.27"/>
<text text-anchor="middle" x="18.38" y="-88.95" font-family="Times,serif" font-size="9.00">37</text>
</g>
<!-- 11&#45;&gt;37 -->
<g id="edge174" class="edge">
<title>11&#45;&gt;37</title>
<path fill="none" stroke="green" stroke-width="0.8" d="M656.16,-299.08C570.59,-298.99 97.35,-296.6 50.38,-255.08 12.15,-221.28 11.49,-156.32 14.73,-119.45"/>
<polygon fill="green" stroke="green" stroke-width="0.8" points="18.22,-119.72 15.77,-109.42 11.25,-119 18.22,-119.72"/>
</g>
<!-- 12 -->
<g id="node12" class="node">
<title>12</title>
<polygon fill="lightgray" stroke="black" points="2503.38,-309.08 2477.38,-309.08 2477.38,-291.08 2503.38,-291.08 2503.38,-309.08"/>
<text text-anchor="middle" x="2490.38" y="-297.88" font-family="Times,serif" font-size="9.00">12</text>
</g>
<!-- 12&#45;&gt;43 -->
<g id="edge58" class="edge">
<title>12&#45;&gt;43</title>
<path fill="none" stroke="green" stroke-width="0.8" d="M2476.91,-298.81C2321.6,-295.65 874.6,-265.96 832.38,-255.08 797.97,-246.21 794.51,-231.16 761.38,-218.31 644.61,-172.99 564.01,-218.02 501.38,-109.54 493.21,-95.39 490.56,-85.01 501.38,-72.77 514.8,-57.59 809.65,-30.25 903.78,-21.89"/>
<polygon fill="green" stroke="green" stroke-width="0.8" points="904.33,-25.35 913.98,-20.98 903.71,-18.38 904.33,-25.35"/>
</g>
<!-- 12&#45;&gt;40 -->
<g id="edge59" class="edge">
<title>12&#45;&gt;40</title>
<path fill="none" stroke="green" stroke-width="0.8" d="M2503.51,-298.81C2602.94,-296.71 3238.96,-282.38 3429.38,-255.08 3565.2,-235.61 3621.32,-266.84 3729.38,-182.31 3769.97,-150.56 3801.29,-111.58 3767.38,-72.77 3743.29,-45.2 3488.49,-26.66 3401.95,-21.12"/>
<polygon fill="green" stroke="green" stroke-width="0.8" points="3402,-17.61 3391.8,-20.48 3401.56,-24.6 3402,-17.61"/>
</g>
<!-- 12&#45;&gt;30 -->
<g id="edge60" class="edge">
<title>12&#45;&gt;30</title>
<path fill="none" stroke="green" stroke-width="0.8" d="M2477.38,-298.72C2384.36,-296.13 1822.97,-279.51 1797.38,-255.08 1762.08,-221.37 1768.48,-189.65 1789.38,-145.54 1800.2,-122.71 1822.56,-132.37 1833.38,-109.54 1843.1,-89.03 1837.56,-63.25 1830.79,-44.51"/>
<polygon fill="green" stroke="green" stroke-width="0.8" points="1834.03,-43.18 1827.11,-35.16 1827.52,-45.75 1834.03,-43.18"/>
</g>
<!-- 12&#45;&gt;44 -->
<g id="edge61" class="edge">
<title>12&#45;&gt;44</title>
<path fill="none" stroke="green" stroke-width="0.8" d="M2477.18,-298.83C2292.92,-295.3 241.97,-256.06 240.38,-255.08 203.07,-231.97 135.01,-105.38 164.38,-72.77 196.73,-36.86 541.75,-23.43 644.61,-20.2"/>
<polygon fill="green" stroke="green" stroke-width="0.8" points="644.97,-23.7 654.86,-19.89 644.76,-16.7 644.97,-23.7"/>
</g>
<!-- 12&#45;&gt;42 -->
<g id="edge62" class="edge">
<title>12&#45;&gt;42</title>
<path fill="none" stroke="green" stroke-width="0.8" d="M2477.16,-295.72C2459.43,-290.42 2428.66,-278.26 2415.38,-255.08 2391.19,-212.83 2389.19,-186.58 2415.38,-145.54 2425.39,-129.87 2472.25,-111.64 2502.98,-101.05"/>
<polygon fill="green" stroke="green" stroke-width="0.8" points="2504.35,-104.28 2512.71,-97.76 2502.12,-97.64 2504.35,-104.28"/>
</g>
<!-- 12&#45;&gt;21 -->
<g id="edge165" class="edge">
<title>12&#45;&gt;21</title>
<path fill="none" stroke="green" stroke-width="0.8" d="M2503.41,-299.15C2594.56,-299.51 3137.66,-299.77 3295.38,-255.08 3298.03,-254.33 3300.7,-253.33 3303.31,-252.19"/>
<polygon fill="green" stroke="green" stroke-width="0.8" points="3305,-255.26 3312.35,-247.64 3301.85,-249.01 3305,-255.26"/>
</g>
<!-- 12&#45;&gt;23 -->
<g id="edge101" class="edge">
<title>12&#45;&gt;23</title>
<path fill="none" stroke="green" stroke-width="0.8" d="M2490.38,-291.05C2490.38,-284.49 2490.38,-274.8 2490.38,-265.47"/>
<polygon fill="green" stroke="green" stroke-width="0.8" points="2493.88,-265.28 2490.38,-255.28 2486.88,-265.28 2493.88,-265.28"/>
</g>
<!-- 24 -->
<g id="node30" class="node">
<title>24</title>
<ellipse fill="white" stroke="black" cx="3289.38" cy="-91.15" rx="18.27" ry="18.27"/>
<text text-anchor="middle" x="3289.38" y="-88.95" font-family="Times,serif" font-size="9.00">24</text>
</g>
<!-- 12&#45;&gt;24 -->
<g id="edge125" class="edge">
<title>12&#45;&gt;24</title>
<path fill="none" stroke="green" stroke-width="0.8" d="M2503.58,-298.96C2613.68,-297.91 3376.67,-289.4 3409.38,-255.08 3456.88,-205.26 3361.37,-136.26 3313.94,-106.62"/>
<polygon fill="green" stroke="green" stroke-width="0.8" points="3315.51,-103.48 3305.16,-101.24 3311.85,-109.45 3315.51,-103.48"/>
</g>
<!-- 12&#45;&gt;29 -->
<g id="edge128" class="edge">
<title>12&#45;&gt;29</title>
<path fill="none" stroke="green" stroke-width="0.8" d="M2503.51,-298.81C2605.49,-296.64 3269.72,-281.57 3354.38,-255.08 3355.85,-254.62 3357.32,-254.06 3358.77,-253.44"/>
<polygon fill="green" stroke="green" stroke-width="0.8" points="3360.76,-256.35 3367.95,-248.57 3357.48,-250.16 3360.76,-256.35"/>
</g>
<!-- 13 -->
<g id="node13" class="node">
<title>13</title>
<polygon fill="lightgray" stroke="black" points="907.38,-309.08 881.38,-309.08 881.38,-291.08 907.38,-291.08 907.38,-309.08"/>
<text text-anchor="middle" x="894.38" y="-297.88" font-family="Times,serif" font-size="9.00">13</text>
</g>
<!-- 13&#45;&gt;43 -->
<g id="edge63" class="edge">
<title>13&#45;&gt;43</title>
<path fill="none" stroke="green" stroke-width="0.8" d="M881.01,-297.66C815.39,-290.65 530.17,-259.99 522.38,-255.08 445.61,-206.68 369.7,-140.25 430.38,-72.77 446.37,-54.99 800.05,-28.72 903.94,-21.36"/>
<polygon fill="green" stroke="green" stroke-width="0.8" points="904.27,-24.85 914,-20.65 903.78,-17.86 904.27,-24.85"/>
</g>
<!-- 13&#45;&gt;40 -->
<g id="edge64" class="edge">
<title>13&#45;&gt;40</title>
<path fill="none" stroke="green" stroke-width="0.8" d="M907.59,-298.98C1089.82,-297.64 3099.1,-282.29 3219.38,-255.08 3257.95,-246.35 3262.48,-229.53 3300.38,-218.31 3403.39,-187.82 3451.93,-244.68 3539.38,-182.31 3581.34,-152.39 3608.87,-113.56 3577.38,-72.77 3555.98,-45.04 3452.56,-28.93 3401.72,-22.57"/>
<polygon fill="green" stroke="green" stroke-width="0.8" points="3402.07,-19.09 3391.72,-21.36 3401.22,-26.04 3402.07,-19.09"/>
</g>
<!-- 13&#45;&gt;30 -->
<g id="edge65" class="edge">
<title>13&#45;&gt;30</title>
<path fill="none" stroke="green" stroke-width="0.8" d="M881.38,-298.06C842.64,-294.72 729.28,-282.73 707.38,-255.08 671.02,-209.17 651.43,-149.14 745.38,-72.77 787.09,-38.87 1623.13,-22.76 1790.4,-19.86"/>
<polygon fill="green" stroke="green" stroke-width="0.8" points="1790.71,-23.36 1800.65,-19.69 1790.59,-16.36 1790.71,-23.36"/>
</g>
<!-- 13&#45;&gt;44 -->
<g id="edge66" class="edge">
<title>13&#45;&gt;44</title>
<path fill="none" stroke="green" stroke-width="0.8" d="M881.38,-297.6C865.56,-295.84 838.04,-292.92 814.38,-291.08 742.27,-285.48 225.19,-294.26 164.38,-255.08 103.05,-215.55 105.77,-180.41 88.38,-109.54 84.49,-93.67 77.37,-84.84 88.38,-72.77 126.27,-31.27 532.57,-21.66 644.81,-19.79"/>
<polygon fill="green" stroke="green" stroke-width="0.8" points="645.07,-23.28 655.02,-19.62 644.96,-16.28 645.07,-23.28"/>
</g>
<!-- 13&#45;&gt;42 -->
<g id="edge67" class="edge">
<title>13&#45;&gt;42</title>
<path fill="none" stroke="green" stroke-width="0.8" d="M907.48,-299.04C1047.52,-298.55 2264.64,-293.27 2329.38,-255.08 2378.14,-226.32 2351.26,-182.21 2394.38,-145.54 2403.06,-138.16 2466.51,-114.86 2503.6,-101.61"/>
<polygon fill="green" stroke="green" stroke-width="0.8" points="2505.05,-104.81 2513.3,-98.16 2502.7,-98.21 2505.05,-104.81"/>
</g>
<!-- 13&#45;&gt;35 -->
<g id="edge68" class="edge">
<title>13&#45;&gt;35</title>
<path fill="none" stroke="green" stroke-width="0.8" d="M907.59,-298.95C1087.72,-297.19 3051.22,-277.46 3105.38,-255.08 3186.52,-221.56 3235.03,-142.26 3181.38,-72.77 3159.98,-45.04 3056.56,-28.93 3005.72,-22.57"/>
<polygon fill="green" stroke="green" stroke-width="0.8" points="3006.07,-19.09 2995.72,-21.36 3005.22,-26.04 3006.07,-19.09"/>
</g>
<!-- 13&#45;&gt;22 -->
<g id="edge102" class="edge">
<title>13&#45;&gt;22</title>
<path fill="none" stroke="green" stroke-width="0.8" d="M899.79,-290.86C910.15,-275.49 934.04,-241.8 959.38,-218.31 1001.3,-179.47 1012.16,-166.34 1065.38,-145.54 1185.63,-98.53 1342.51,-92.37 1405.93,-91.94"/>
<polygon fill="green" stroke="green" stroke-width="0.8" points="1405.99,-95.44 1415.98,-91.91 1405.97,-88.44 1405.99,-95.44"/>
</g>
<!-- 13&#45;&gt;27 -->
<g id="edge105" class="edge">
<title>13&#45;&gt;27</title>
<path fill="none" stroke="green" stroke-width="0.8" d="M906.47,-290.89C938.69,-269.06 1027.03,-209.2 1069.28,-180.58"/>
<polygon fill="green" stroke="green" stroke-width="0.8" points="1071.25,-183.47 1077.56,-174.97 1067.32,-177.68 1071.25,-183.47"/>
</g>
<!-- 13&#45;&gt;29 -->
<g id="edge162" class="edge">
<title>13&#45;&gt;29</title>
<path fill="none" stroke="green" stroke-width="0.8" d="M907.56,-298.94C1098.1,-296.94 3291.68,-273.57 3354.38,-255.08 3356.04,-254.59 3357.7,-253.97 3359.34,-253.27"/>
<polygon fill="green" stroke="green" stroke-width="0.8" points="3361.11,-256.29 3368.28,-248.49 3357.81,-250.12 3361.11,-256.29"/>
</g>
<!-- 14 -->
<g id="node14" class="node">
<title>14</title>
<polygon fill="lightgray" stroke="black" points="805.38,-309.08 779.38,-309.08 779.38,-291.08 805.38,-291.08 805.38,-309.08"/>
<text text-anchor="middle" x="792.38" y="-297.88" font-family="Times,serif" font-size="9.00">14</text>
</g>
<!-- 14&#45;&gt;43 -->
<g id="edge69" class="edge">
<title>14&#45;&gt;43</title>
<path fill="none" stroke="green" stroke-width="0.8" d="M779.3,-297.89C721.93,-292.58 494.21,-270.71 466.38,-255.08 391.89,-213.23 348.09,-136.16 405.38,-72.77 413.84,-63.41 795.1,-30.86 903.76,-21.76"/>
<polygon fill="green" stroke="green" stroke-width="0.8" points="904.29,-25.23 913.97,-20.91 903.71,-18.26 904.29,-25.23"/>
</g>
<!-- 14&#45;&gt;40 -->
<g id="edge70" class="edge">
<title>14&#45;&gt;40</title>
<path fill="none" stroke="green" stroke-width="0.8" d="M805.66,-297.41C821.51,-295.49 848.83,-292.44 872.38,-291.08 1000.47,-283.69 3062.84,-304.12 3181.38,-255.08 3203.1,-246.09 3198.3,-228.69 3219.38,-218.31 3317.72,-169.87 3391.75,-265.28 3463.38,-182.31 3495.2,-145.46 3487.48,-115.07 3463.38,-72.77 3450.04,-49.33 3421.89,-35.12 3400.61,-27.32"/>
<polygon fill="green" stroke="green" stroke-width="0.8" points="3401.7,-23.99 3391.1,-24.09 3399.44,-30.62 3401.7,-23.99"/>
</g>
<!-- 14&#45;&gt;30 -->
<g id="edge71" class="edge">
<title>14&#45;&gt;30</title>
<path fill="none" stroke="green" stroke-width="0.8" d="M779.08,-298.14C755.04,-295.67 704.63,-286.77 680.38,-255.08 630.7,-190.12 637.72,-118.71 705.38,-72.77 751.63,-41.37 1620.94,-23.18 1790.76,-19.92"/>
<polygon fill="green" stroke="green" stroke-width="0.8" points="1790.98,-23.41 1800.91,-19.72 1790.85,-16.41 1790.98,-23.41"/>
</g>
<!-- 14&#45;&gt;42 -->
<g id="edge72" class="edge">
<title>14&#45;&gt;42</title>
<path fill="none" stroke="green" stroke-width="0.8" d="M805.39,-297.5C821.2,-295.65 848.71,-292.63 872.38,-291.08 1382.21,-257.64 1515.83,-328.9 2021.38,-255.08 2146.49,-236.81 2178.7,-228.52 2296.38,-182.31 2328.73,-169.61 2333.4,-159.11 2365.38,-145.54 2367.03,-144.84 2456.8,-115.88 2503.21,-100.91"/>
<polygon fill="green" stroke="green" stroke-width="0.8" points="2504.5,-104.17 2512.95,-97.77 2502.35,-97.51 2504.5,-104.17"/>
</g>
<!-- 14&#45;&gt;35 -->
<g id="edge73" class="edge">
<title>14&#45;&gt;35</title>
<path fill="none" stroke="green" stroke-width="0.8" d="M805.66,-297.41C821.51,-295.49 848.84,-292.45 872.38,-291.08 994.14,-284 2954.71,-301.75 3067.38,-255.08 3089.1,-246.09 3088.41,-234.56 3105.38,-218.31 3122.19,-202.22 3134.19,-203.68 3143.38,-182.31 3162.62,-137.59 3172.06,-112.11 3143.38,-72.77 3111.77,-29.39 3044.3,-20.49 3005.82,-19.12"/>
<polygon fill="green" stroke="green" stroke-width="0.8" points="3005.86,-15.62 2995.79,-18.91 3005.72,-22.62 3005.86,-15.62"/>
</g>
<!-- 25 -->
<g id="node31" class="node">
<title>25</title>
<ellipse fill="white" stroke="black" cx="734.38" cy="-236.69" rx="18.27" ry="18.27"/>
<text text-anchor="middle" x="734.38" y="-234.49" font-family="Times,serif" font-size="9.00">25</text>
</g>
<!-- 14&#45;&gt;25 -->
<g id="edge121" class="edge">
<title>14&#45;&gt;25</title>
<path fill="none" stroke="green" stroke-width="0.8" d="M784.8,-291.05C776.92,-282.71 764.26,-269.32 753.6,-258.03"/>
<polygon fill="green" stroke="green" stroke-width="0.8" points="756.04,-255.52 746.63,-250.65 750.95,-260.32 756.04,-255.52"/>
</g>
<!-- 15 -->
<g id="node15" class="node">
<title>15</title>
<polygon fill="lightgray" stroke="black" points="1572.38,-172.92 1546.38,-172.92 1546.38,-154.92 1572.38,-154.92 1572.38,-172.92"/>
<text text-anchor="middle" x="1559.38" y="-161.72" font-family="Times,serif" font-size="9.00">15</text>
</g>
<!-- 15&#45;&gt;43 -->
<g id="edge74" class="edge">
<title>15&#45;&gt;43</title>
<path fill="none" stroke="green" stroke-width="0.8" d="M1553.63,-154.86C1540.01,-136.53 1503.77,-91.81 1461.38,-72.77 1370.68,-32.03 1057.97,-22.05 961.17,-19.91"/>
<polygon fill="green" stroke="green" stroke-width="0.8" points="961.04,-16.41 950.97,-19.7 960.89,-23.41 961.04,-16.41"/>
</g>
<!-- 15&#45;&gt;40 -->
<g id="edge75" class="edge">
<title>15&#45;&gt;40</title>
<path fill="none" stroke="green" stroke-width="0.8" d="M1567.22,-154.89C1571.13,-151.4 1576.14,-147.63 1581.38,-145.54 1664.6,-112.35 2295.03,-79.23 2384.38,-72.77 2578.7,-58.73 3203.88,-27.72 3344.93,-20.78"/>
<polygon fill="green" stroke="green" stroke-width="0.8" points="3345.14,-24.27 3354.95,-20.29 3344.79,-17.28 3345.14,-24.27"/>
</g>
<!-- 15&#45;&gt;30 -->
<g id="edge76" class="edge">
<title>15&#45;&gt;30</title>
<path fill="none" stroke="green" stroke-width="0.8" d="M1569.05,-154.88C1572.82,-151.85 1577.23,-148.43 1581.38,-145.54 1632.24,-110.09 1645.55,-101.69 1700.38,-72.77 1731.54,-56.34 1768.78,-40.16 1793.2,-30"/>
<polygon fill="green" stroke="green" stroke-width="0.8" points="1794.6,-33.21 1802.51,-26.16 1791.93,-26.74 1794.6,-33.21"/>
</g>
<!-- 15&#45;&gt;44 -->
<g id="edge77" class="edge">
<title>15&#45;&gt;44</title>
<path fill="none" stroke="green" stroke-width="0.8" d="M1546.05,-158.28C1495.21,-140.62 1315.03,-78.28 1288.38,-72.77 1230.49,-60.8 815.51,-29.8 702.01,-21.47"/>
<polygon fill="green" stroke="green" stroke-width="0.8" points="701.93,-17.96 691.7,-20.72 701.42,-24.94 701.93,-17.96"/>
</g>
<!-- 15&#45;&gt;42 -->
<g id="edge78" class="edge">
<title>15&#45;&gt;42</title>
<path fill="none" stroke="green" stroke-width="0.8" d="M1567.18,-154.78C1571.08,-151.27 1576.09,-147.51 1581.38,-145.54 1748.76,-83.15 2206.36,-124.11 2384.38,-109.54 2425.4,-106.18 2472.65,-100.16 2502.02,-96.16"/>
<polygon fill="green" stroke="green" stroke-width="0.8" points="2502.56,-99.62 2511.99,-94.79 2501.61,-92.68 2502.56,-99.62"/>
</g>
<!-- 15&#45;&gt;35 -->
<g id="edge79" class="edge">
<title>15&#45;&gt;35</title>
<path fill="none" stroke="green" stroke-width="0.8" d="M1567.76,-154.83C1571.63,-151.49 1576.46,-147.87 1581.38,-145.54 1649.44,-113.29 1837.74,-82.77 1912.38,-72.77 2320.71,-18.04 2823.89,-18.12 2948.48,-19.08"/>
<polygon fill="green" stroke="green" stroke-width="0.8" points="2948.68,-22.58 2958.71,-19.16 2948.74,-15.58 2948.68,-22.58"/>
</g>
<!-- 15&#45;&gt;22 -->
<g id="edge112" class="edge">
<title>15&#45;&gt;22</title>
<path fill="none" stroke="green" stroke-width="0.8" d="M1547.14,-154.77C1542.56,-151.79 1537.28,-148.44 1532.38,-145.54 1508.04,-131.1 1479.57,-115.75 1459.6,-105.24"/>
<polygon fill="green" stroke="green" stroke-width="0.8" points="1461.02,-102.03 1450.54,-100.49 1457.78,-108.23 1461.02,-102.03"/>
</g>
<!-- 16 -->
<g id="node16" class="node">
<title>16</title>
<polygon fill="lightgray" stroke="black" points="1183.38,-245.69 1157.38,-245.69 1157.38,-227.69 1183.38,-227.69 1183.38,-245.69"/>
<text text-anchor="middle" x="1170.38" y="-234.49" font-family="Times,serif" font-size="9.00">16</text>
</g>
<!-- 16&#45;&gt;43 -->
<g id="edge80" class="edge">
<title>16&#45;&gt;43</title>
<path fill="none" stroke="green" stroke-width="0.8" d="M1157.09,-231C1136.11,-223.17 1094.68,-205.92 1065.38,-182.31 1014.23,-141.09 969.28,-77.33 947.09,-43.08"/>
<polygon fill="green" stroke="green" stroke-width="0.8" points="950.03,-41.18 941.69,-34.64 944.13,-44.95 950.03,-41.18"/>
</g>
<!-- 16&#45;&gt;44 -->
<g id="edge81" class="edge">
<title>16&#45;&gt;44</title>
<path fill="none" stroke="green" stroke-width="0.8" d="M1157.22,-231.39C1144.76,-227.46 1125.48,-221.76 1108.38,-218.31 982.37,-192.88 937.46,-237.56 821.38,-182.31 757.93,-152.1 709.26,-81.21 686.89,-43.68"/>
<polygon fill="green" stroke="green" stroke-width="0.8" points="689.83,-41.78 681.77,-34.9 683.78,-45.3 689.83,-41.78"/>
</g>
<!-- 16&#45;&gt;35 -->
<g id="edge82" class="edge">
<title>16&#45;&gt;35</title>
<path fill="none" stroke="green" stroke-width="0.8" d="M1183.39,-232.95C1202.55,-229.02 1239.56,-221.87 1271.38,-218.31 1422.43,-201.39 1815.04,-243 1954.38,-182.31 1975.93,-172.92 1971.32,-155.95 1992.38,-145.54 2089.08,-97.76 2135.68,-157.32 2232.38,-109.54 2253.45,-99.13 2248.95,-82.4 2270.38,-72.77 2394.53,-17.01 2831.67,-17.75 2948.5,-18.98"/>
<polygon fill="green" stroke="green" stroke-width="0.8" points="2948.74,-22.49 2958.78,-19.1 2948.82,-15.49 2948.74,-22.49"/>
</g>
<!-- 16&#45;&gt;26 -->
<g id="edge115" class="edge">
<title>16&#45;&gt;26</title>
<path fill="none" stroke="green" stroke-width="0.8" d="M1183.42,-233.21C1202.63,-229.61 1239.69,-222.87 1271.38,-218.31 1408.67,-198.54 1450.8,-229.07 1581.38,-182.31 1582.62,-181.86 1583.87,-181.35 1585.1,-180.79"/>
<polygon fill="green" stroke="green" stroke-width="0.8" points="1587.11,-183.68 1594.17,-175.78 1583.72,-177.55 1587.11,-183.68"/>
</g>
<!-- 16&#45;&gt;27 -->
<g id="edge103" class="edge">
<title>16&#45;&gt;27</title>
<path fill="none" stroke="green" stroke-width="0.8" d="M1161.44,-227.58C1149.78,-217 1129.05,-198.19 1113.33,-183.93"/>
<polygon fill="green" stroke="green" stroke-width="0.8" points="1115.4,-181.08 1105.64,-176.95 1110.7,-186.26 1115.4,-181.08"/>
</g>
<!-- 16&#45;&gt;32 -->
<g id="edge130" class="edge">
<title>16&#45;&gt;32</title>
<path fill="none" stroke="green" stroke-width="0.8" d="M1157.15,-231.69C1144.65,-227.98 1125.33,-222.42 1108.38,-218.31 1024.49,-197.96 924.15,-178.81 876.36,-169.99"/>
<polygon fill="green" stroke="green" stroke-width="0.8" points="876.92,-166.54 866.45,-168.18 875.65,-173.42 876.92,-166.54"/>
</g>
<!-- 16&#45;&gt;34 -->
<g id="edge135" class="edge">
<title>16&#45;&gt;34</title>
<path fill="none" stroke="green" stroke-width="0.8" d="M1183.7,-232.75C1202.94,-228.65 1239.68,-221.37 1271.38,-218.31 1627.81,-183.84 2524.46,-193.3 2882.38,-182.31 3039.36,-177.49 3227.4,-169.37 3298.37,-166.23"/>
<polygon fill="green" stroke="green" stroke-width="0.8" points="3298.9,-169.71 3308.74,-165.76 3298.59,-162.71 3298.9,-169.71"/>
</g>
<!-- 36 -->
<g id="node40" class="node">
<title>36</title>
<ellipse fill="white" stroke="black" cx="2698.38" cy="-91.15" rx="18.27" ry="18.27"/>
<text text-anchor="middle" x="2698.38" y="-88.95" font-family="Times,serif" font-size="9.00">36</text>
</g>
<!-- 16&#45;&gt;36 -->
<g id="edge160" class="edge">
<title>16&#45;&gt;36</title>
<path fill="none" stroke="green" stroke-width="0.8" d="M1183.7,-232.78C1202.94,-228.71 1239.69,-221.46 1271.38,-218.31 1413.63,-204.15 2422.66,-230.09 2557.38,-182.31 2582.71,-173.33 2583.02,-160.43 2605.38,-145.54 2617.71,-137.33 2650.63,-118.71 2673.79,-105.79"/>
<polygon fill="green" stroke="green" stroke-width="0.8" points="2675.69,-108.73 2682.73,-100.81 2672.29,-102.62 2675.69,-108.73"/>
</g>
<!-- 17 -->
<g id="node17" class="node">
<title>17</title>
<polygon fill="lightgray" stroke="black" points="3340.38,-309.08 3314.38,-309.08 3314.38,-291.08 3340.38,-291.08 3340.38,-309.08"/>
<text text-anchor="middle" x="3327.38" y="-297.88" font-family="Times,serif" font-size="9.00">17</text>
</g>
<!-- 17&#45;&gt;40 -->
<g id="edge83" class="edge">
<title>17&#45;&gt;40</title>
<path fill="none" stroke="green" stroke-width="0.8" d="M3340.45,-294.69C3344.83,-293.35 3349.78,-292 3354.38,-291.08 3502.09,-261.56 3549.24,-304.92 3691.38,-255.08 3779.64,-224.13 3821.1,-200.37 3843.38,-109.54 3847.28,-93.67 3854.27,-84.96 3843.38,-72.77 3813.83,-39.67 3499.13,-24.41 3401.86,-20.46"/>
<polygon fill="green" stroke="green" stroke-width="0.8" points="3402,-16.96 3391.86,-20.06 3401.72,-23.95 3402,-16.96"/>
</g>
<!-- 17&#45;&gt;30 -->
<g id="edge84" class="edge">
<title>17&#45;&gt;30</title>
<path fill="none" stroke="green" stroke-width="0.8" d="M3340.71,-294.26C3367.16,-284.57 3424.19,-262.97 3429.38,-255.08 3481.77,-175.43 3405.1,-107.66 3316.38,-72.77 3245.46,-44.87 2049.01,-23.3 1847.95,-19.86"/>
<polygon fill="green" stroke="green" stroke-width="0.8" points="1847.93,-16.36 1837.88,-19.69 1847.82,-23.36 1847.93,-16.36"/>
</g>
<!-- 17&#45;&gt;44 -->
<g id="edge85" class="edge">
<title>17&#45;&gt;44</title>
<path fill="none" stroke="green" stroke-width="0.8" d="M3314.11,-298.96C3115.09,-297.14 742.27,-275.04 598.38,-255.08 473.58,-237.76 401.2,-282.19 324.38,-182.31 236.08,-67.49 547.13,-30.33 644.89,-21.61"/>
<polygon fill="green" stroke="green" stroke-width="0.8" points="645.29,-25.09 654.96,-20.75 644.69,-18.12 645.29,-25.09"/>
</g>
<!-- 17&#45;&gt;42 -->
<g id="edge86" class="edge">
<title>17&#45;&gt;42</title>
<path fill="none" stroke="green" stroke-width="0.8" d="M3314.32,-298.92C3208.44,-297.58 2494.04,-287.33 2463.38,-255.08 2445.38,-236.13 2472.6,-161.9 2481.38,-145.54 2488.43,-132.42 2499.43,-120.02 2509.23,-110.48"/>
<polygon fill="green" stroke="green" stroke-width="0.8" points="2511.8,-112.86 2516.73,-103.48 2507.03,-107.74 2511.8,-112.86"/>
</g>
<!-- 17&#45;&gt;35 -->
<g id="edge87" class="edge">
<title>17&#45;&gt;35</title>
<path fill="none" stroke="green" stroke-width="0.8" d="M3340.52,-294.98C3344.91,-293.67 3349.84,-292.25 3354.38,-291.08 3426.65,-272.47 3471.62,-313.23 3518.38,-255.08 3548.65,-217.45 3597.44,-167.42 3501.38,-72.77 3465.84,-37.75 3109.97,-23.64 3005.85,-20.24"/>
<polygon fill="green" stroke="green" stroke-width="0.8" points="3005.88,-16.74 2995.77,-19.92 3005.65,-23.73 3005.88,-16.74"/>
</g>
<!-- 19 -->
<g id="node25" class="node">
<title>19</title>
<ellipse fill="white" stroke="black" cx="528.38" cy="-91.15" rx="18.27" ry="18.27"/>
<text text-anchor="middle" x="528.38" y="-88.95" font-family="Times,serif" font-size="9.00">19</text>
</g>
<!-- 17&#45;&gt;19 -->
<g id="edge163" class="edge">
<title>17&#45;&gt;19</title>
<path fill="none" stroke="green" stroke-width="0.8" d="M3314.21,-298.94C3130.32,-296.95 1080.72,-274.4 956.38,-255.08 954.64,-254.81 714.03,-182.95 712.38,-182.31 653.64,-159.34 587.99,-124.93 553.19,-105.96"/>
<polygon fill="green" stroke="green" stroke-width="0.8" points="554.68,-102.78 544.22,-101.03 551.31,-108.91 554.68,-102.78"/>
</g>
<!-- 17&#45;&gt;21 -->
<g id="edge148" class="edge">
<title>17&#45;&gt;21</title>
<path fill="none" stroke="green" stroke-width="0.8" d="M3327.38,-291.05C3327.38,-284.49 3327.38,-274.8 3327.38,-265.47"/>
<polygon fill="green" stroke="green" stroke-width="0.8" points="3330.88,-265.28 3327.38,-255.28 3323.88,-265.28 3330.88,-265.28"/>
</g>
<!-- 18 -->
<g id="node18" class="node">
<title>18</title>
<polygon fill="lightgray" stroke="black" points="2990.38,-245.69 2964.38,-245.69 2964.38,-227.69 2990.38,-227.69 2990.38,-245.69"/>
<text text-anchor="middle" x="2977.38" y="-234.49" font-family="Times,serif" font-size="9.00">18</text>
</g>
<!-- 18&#45;&gt;43 -->
<g id="edge88" class="edge">
<title>18&#45;&gt;43</title>
<path fill="none" stroke="green" stroke-width="0.8" d="M2964.29,-231C2951.88,-226.79 2932.63,-220.9 2915.38,-218.31 2759.2,-194.81 1643.57,-234.17 1494.38,-182.31 1468.67,-173.37 1467.67,-161.18 1445.38,-145.54 1397.1,-111.65 1389.67,-93.34 1334.38,-72.77 1201.56,-23.36 1029.07,-18.64 961.42,-18.89"/>
<polygon fill="green" stroke="green" stroke-width="0.8" points="961.09,-15.39 951.12,-18.97 961.14,-22.39 961.09,-15.39"/>
</g>
<!-- 18&#45;&gt;40 -->
<g id="edge89" class="edge">
<title>18&#45;&gt;40</title>
<path fill="none" stroke="green" stroke-width="0.8" d="M2990.71,-234.24C3056.14,-227.07 3340.83,-195.21 3354.38,-182.31 3390.9,-147.55 3386,-82.96 3379.5,-46.41"/>
<polygon fill="green" stroke="green" stroke-width="0.8" points="3382.91,-45.61 3377.57,-36.46 3376.04,-46.95 3382.91,-45.61"/>
</g>
<!-- 18&#45;&gt;30 -->
<g id="edge90" class="edge">
<title>18&#45;&gt;30</title>
<path fill="none" stroke="green" stroke-width="0.8" d="M2972.72,-227.32C2956.16,-198.63 2896.98,-104.36 2817.38,-72.77 2725.15,-36.16 2000.85,-22.35 1847.75,-19.83"/>
<polygon fill="green" stroke="green" stroke-width="0.8" points="1847.78,-16.33 1837.73,-19.66 1847.67,-23.33 1847.78,-16.33"/>
</g>
<!-- 18&#45;&gt;42 -->
<g id="edge91" class="edge">
<title>18&#45;&gt;42</title>
<path fill="none" stroke="green" stroke-width="0.8" d="M2971.6,-227.51C2958.24,-209.31 2923.24,-165.52 2882.38,-145.54 2867.8,-138.41 2640.13,-107.03 2558.9,-96"/>
<polygon fill="green" stroke="green" stroke-width="0.8" points="2559.26,-92.52 2548.88,-94.65 2558.32,-99.46 2559.26,-92.52"/>
</g>
<!-- 18&#45;&gt;35 -->
<g id="edge92" class="edge">
<title>18&#45;&gt;35</title>
<path fill="none" stroke="green" stroke-width="0.8" d="M2989.61,-227.58C3002.3,-218.35 3021.39,-201.97 3029.38,-182.31 3049.32,-133.28 3016.28,-73.54 2994.38,-41.78"/>
<polygon fill="green" stroke="green" stroke-width="0.8" points="2997.2,-39.71 2988.55,-33.59 2991.5,-43.77 2997.2,-39.71"/>
</g>
<!-- 18&#45;&gt;22 -->
<g id="edge93" class="edge">
<title>18&#45;&gt;22</title>
<path fill="none" stroke="green" stroke-width="0.8" d="M2964.29,-231C2951.88,-226.8 2932.63,-220.91 2915.38,-218.31 2763.94,-195.46 1680.04,-238.06 1537.38,-182.31 1534.89,-181.34 1484.95,-137.13 1455.54,-110.99"/>
<polygon fill="green" stroke="green" stroke-width="0.8" points="1457.64,-108.17 1447.84,-104.14 1452.99,-113.4 1457.64,-108.17"/>
</g>
<!-- 18&#45;&gt;34 -->
<g id="edge127" class="edge">
<title>18&#45;&gt;34</title>
<path fill="none" stroke="green" stroke-width="0.8" d="M2990.68,-233.01C3041.99,-222.63 3227.81,-185.06 3299.19,-170.63"/>
<polygon fill="green" stroke="green" stroke-width="0.8" points="3300.14,-174 3309.24,-168.59 3298.75,-167.14 3300.14,-174"/>
</g>
<!-- 19&#45;&gt;43 -->
<g id="edge164" class="edge">
<title>19&#45;&gt;43</title>
<path fill="none" stroke="green" stroke-width="0.8" d="M546.13,-85.3C560.22,-81.56 580.47,-76.42 598.38,-72.77 710.82,-49.86 846.21,-30.82 904,-23.09"/>
<polygon fill="green" stroke="green" stroke-width="0.8" points="904.73,-26.53 914.18,-21.74 903.81,-19.59 904.73,-26.53"/>
</g>
<!-- 20&#45;&gt;40 -->
<g id="edge138" class="edge">
<title>20&#45;&gt;40</title>
<path fill="none" stroke="green" stroke-width="0.8" d="M2808.8,-87.92C2893.11,-77.68 3242.67,-35.25 3345.07,-22.82"/>
<polygon fill="green" stroke="green" stroke-width="0.8" points="3345.75,-26.26 3355.26,-21.59 3344.91,-19.32 3345.75,-26.26"/>
</g>
<!-- 21&#45;&gt;34 -->
<g id="edge111" class="edge">
<title>21&#45;&gt;34</title>
<path fill="none" stroke="green" stroke-width="0.8" d="M3327.38,-218.2C3327.38,-210.52 3327.38,-201.31 3327.38,-192.72"/>
<polygon fill="green" stroke="green" stroke-width="0.8" points="3330.88,-192.71 3327.38,-182.71 3323.88,-192.71 3330.88,-192.71"/>
</g>
<!-- 22&#45;&gt;43 -->
<g id="edge159" class="edge">
<title>22&#45;&gt;43</title>
<path fill="none" stroke="green" stroke-width="0.8" d="M1419.29,-80.41C1414.12,-77.5 1408.17,-74.59 1402.38,-72.77 1241.14,-21.94 1035.27,-18.34 960.84,-18.88"/>
<polygon fill="green" stroke="green" stroke-width="0.8" points="960.79,-15.38 950.83,-18.98 960.87,-22.38 960.79,-15.38"/>
</g>
<!-- 22&#45;&gt;40 -->
<g id="edge117" class="edge">
<title>22&#45;&gt;40</title>
<path fill="none" stroke="green" stroke-width="0.8" d="M1452.58,-87.33C1479.39,-83.31 1531.11,-76.05 1575.38,-72.77 2208.96,-25.84 2369.49,-59.72 3004.38,-36.77 3131.35,-32.18 3282.79,-24.28 3344.79,-20.95"/>
<polygon fill="green" stroke="green" stroke-width="0.8" points="3345.16,-24.43 3354.96,-20.4 3344.79,-17.44 3345.16,-24.43"/>
</g>
<!-- 22&#45;&gt;30 -->
<g id="edge147" class="edge">
<title>22&#45;&gt;30</title>
<path fill="none" stroke="green" stroke-width="0.8" d="M1449.52,-80.53C1454.69,-77.63 1460.63,-74.7 1466.38,-72.77 1582.51,-33.79 1729.72,-23.18 1790.81,-20.37"/>
<polygon fill="green" stroke="green" stroke-width="0.8" points="1791.02,-23.86 1800.86,-19.94 1790.72,-16.87 1791.02,-23.86"/>
</g>
<!-- 22&#45;&gt;44 -->
<g id="edge94" class="edge">
<title>22&#45;&gt;44</title>
<path fill="none" stroke="green" stroke-width="0.8" d="M1416.48,-86.83C1395.11,-82.97 1358.25,-76.63 1326.38,-72.77 1263.76,-65.18 819.37,-30.66 701.84,-21.58"/>
<polygon fill="green" stroke="green" stroke-width="0.8" points="702.05,-18.09 691.81,-20.8 701.51,-25.06 702.05,-18.09"/>
</g>
<!-- 23&#45;&gt;42 -->
<g id="edge100" class="edge">
<title>23&#45;&gt;42</title>
<path fill="none" stroke="green" stroke-width="0.8" d="M2487.5,-218.23C2485.13,-199.68 2483.33,-169.75 2491.38,-145.54 2495.38,-133.53 2503.16,-121.96 2510.74,-112.69"/>
<polygon fill="green" stroke="green" stroke-width="0.8" points="2513.61,-114.71 2517.52,-104.86 2508.32,-110.13 2513.61,-114.71"/>
</g>
<!-- 23&#45;&gt;35 -->
<g id="edge113" class="edge">
<title>23&#45;&gt;35</title>
<path fill="none" stroke="green" stroke-width="0.8" d="M2501.28,-221.51C2526.97,-189.18 2594.97,-109.95 2671.38,-72.77 2765.26,-27.1 2892.15,-19.97 2948.43,-19.21"/>
<polygon fill="green" stroke="green" stroke-width="0.8" points="2948.75,-22.71 2958.72,-19.14 2948.69,-15.71 2948.75,-22.71"/>
</g>
<!-- 23&#45;&gt;24 -->
<g id="edge153" class="edge">
<title>23&#45;&gt;24</title>
<path fill="none" stroke="green" stroke-width="0.8" d="M2508.84,-233.73C2565.1,-227.62 2739.38,-207.84 2882.38,-182.31 3026.14,-156.64 3196.11,-115.43 3261.68,-99.12"/>
<polygon fill="green" stroke="green" stroke-width="0.8" points="3262.78,-102.46 3271.64,-96.64 3261.09,-95.66 3262.78,-102.46"/>
</g>
<!-- 23&#45;&gt;32 -->
<g id="edge158" class="edge">
<title>23&#45;&gt;32</title>
<path fill="none" stroke="green" stroke-width="0.8" d="M2471.93,-235.11C2326.08,-230.49 1357.63,-199.48 1065.38,-182.31 997.67,-178.33 918.26,-171.39 876.82,-167.59"/>
<polygon fill="green" stroke="green" stroke-width="0.8" points="876.94,-164.09 866.66,-166.65 876.29,-171.06 876.94,-164.09"/>
</g>
<!-- 23&#45;&gt;41 -->
<g id="edge173" class="edge">
<title>23&#45;&gt;41</title>
<path fill="none" stroke="green" stroke-width="0.8" d="M2471.64,-235.37C2340.99,-233 1570.72,-217.57 1537.38,-182.31 1514.64,-158.25 1551.59,-125.94 1578.43,-107.24"/>
<polygon fill="green" stroke="green" stroke-width="0.8" points="1580.69,-109.94 1587.04,-101.46 1576.79,-104.13 1580.69,-109.94"/>
</g>
<!-- 24&#45;&gt;35 -->
<g id="edge126" class="edge">
<title>24&#45;&gt;35</title>
<path fill="none" stroke="green" stroke-width="0.8" d="M3274.21,-80.66C3269.03,-77.77 3263.1,-74.81 3257.38,-72.77 3168.84,-41.15 3057.51,-27.06 3005.98,-21.9"/>
<polygon fill="green" stroke="green" stroke-width="0.8" points="3006.21,-18.4 2995.92,-20.93 3005.53,-25.37 3006.21,-18.4"/>
</g>
<!-- 25&#45;&gt;32 -->
<g id="edge122" class="edge">
<title>25&#45;&gt;32</title>
<path fill="none" stroke="green" stroke-width="0.8" d="M749.76,-226.15C768.88,-214.28 801.75,-193.87 824.25,-179.91"/>
<polygon fill="green" stroke="green" stroke-width="0.8" points="826.24,-182.79 832.89,-174.54 822.55,-176.84 826.24,-182.79"/>
</g>
<!-- 26&#45;&gt;30 -->
<g id="edge116" class="edge">
<title>26&#45;&gt;30</title>
<path fill="none" stroke="green" stroke-width="0.8" d="M1624.24,-154.05C1646.7,-141.42 1686.57,-118.78 1700.38,-109.54 1722.72,-94.59 1726.98,-89.02 1748.38,-72.77 1764.56,-60.49 1782.88,-46.72 1796.86,-36.24"/>
<polygon fill="green" stroke="green" stroke-width="0.8" points="1799.04,-38.98 1804.94,-30.18 1794.84,-33.38 1799.04,-38.98"/>
</g>
<!-- 26&#45;&gt;42 -->
<g id="edge124" class="edge">
<title>26&#45;&gt;42</title>
<path fill="none" stroke="green" stroke-width="0.8" d="M1626.34,-159.29C1647,-155.26 1682,-148.88 1712.38,-145.54 2009.69,-112.83 2086.4,-135.23 2384.38,-109.54 2425.38,-106 2472.64,-100.03 2502.02,-96.09"/>
<polygon fill="green" stroke="green" stroke-width="0.8" points="2502.55,-99.55 2511.99,-94.73 2501.61,-92.61 2502.55,-99.55"/>
</g>
<!-- 27&#45;&gt;30 -->
<g id="edge106" class="edge">
<title>27&#45;&gt;30</title>
<path fill="none" stroke="green" stroke-width="0.8" d="M1109.57,-157.01C1156.64,-141.05 1291.79,-96.66 1407.38,-72.77 1549.9,-43.32 1723.7,-27.13 1790.94,-21.59"/>
<polygon fill="green" stroke="green" stroke-width="0.8" points="1791.47,-25.06 1801.15,-20.77 1790.9,-18.08 1791.47,-25.06"/>
</g>
<!-- 27&#45;&gt;42 -->
<g id="edge104" class="edge">
<title>27&#45;&gt;42</title>
<path fill="none" stroke="green" stroke-width="0.8" d="M1110.83,-162.02C1263.2,-154.52 2312.91,-102.86 2501.42,-93.58"/>
<polygon fill="green" stroke="green" stroke-width="0.8" points="2501.83,-97.06 2511.65,-93.08 2501.49,-90.07 2501.83,-97.06"/>
</g>
<!-- 27&#45;&gt;22 -->
<g id="edge114" class="edge">
<title>27&#45;&gt;22</title>
<path fill="none" stroke="green" stroke-width="0.8" d="M1110.29,-159.22C1166.26,-147.64 1338.21,-112.06 1406.25,-97.98"/>
<polygon fill="green" stroke="green" stroke-width="0.8" points="1407.16,-101.36 1416.24,-95.91 1405.74,-94.51 1407.16,-101.36"/>
</g>
<!-- 28&#45;&gt;42 -->
<g id="edge151" class="edge">
<title>28&#45;&gt;42</title>
<path fill="none" stroke="green" stroke-width="0.8" d="M2284.55,-153.41C2289.73,-150.51 2295.66,-147.56 2301.38,-145.54 2385.32,-115.92 2414.45,-139.15 2498.38,-109.54 2500.98,-108.62 2503.61,-107.52 2506.2,-106.31"/>
<polygon fill="green" stroke="green" stroke-width="0.8" points="2507.93,-109.36 2515.22,-101.67 2504.72,-103.14 2507.93,-109.36"/>
</g>
<!-- 29&#45;&gt;40 -->
<g id="edge131" class="edge">
<title>29&#45;&gt;40</title>
<path fill="none" stroke="green" stroke-width="0.8" d="M3397.52,-226.07C3402.69,-223.17 3408.63,-220.24 3414.38,-218.31 3465.31,-201.23 3618.35,-223.02 3653.38,-182.31 3685.14,-145.41 3684.42,-110.28 3653.38,-72.77 3621.7,-34.47 3467.34,-23.41 3402.33,-20.42"/>
<polygon fill="green" stroke="green" stroke-width="0.8" points="3402.13,-16.91 3391.99,-19.98 3401.83,-23.9 3402.13,-16.91"/>
</g>
<!-- 29&#45;&gt;26 -->
<g id="edge139" class="edge">
<title>29&#45;&gt;26</title>
<path fill="none" stroke="green" stroke-width="0.8" d="M3367.98,-224.73C3363.81,-222.13 3359.1,-219.71 3354.38,-218.31 3179.45,-166.34 1894.07,-199.4 1712.38,-182.31 1686.47,-179.87 1657.25,-174.78 1636.4,-170.73"/>
<polygon fill="green" stroke="green" stroke-width="0.8" points="1636.81,-167.24 1626.32,-168.73 1635.45,-174.11 1636.81,-167.24"/>
</g>
<!-- 29&#45;&gt;34 -->
<g id="edge129" class="edge">
<title>29&#45;&gt;34</title>
<path fill="none" stroke="green" stroke-width="0.8" d="M3371.52,-221.71C3363.83,-211.82 3353.38,-198.37 3344.57,-187.03"/>
<polygon fill="green" stroke="green" stroke-width="0.8" points="3347.13,-184.62 3338.23,-178.88 3341.6,-188.92 3347.13,-184.62"/>
</g>
<!-- 31 -->
<g id="node36" class="node">
<title>31</title>
<ellipse fill="white" stroke="black" cx="772.38" cy="-91.15" rx="18.27" ry="18.27"/>
<text text-anchor="middle" x="772.38" y="-88.95" font-family="Times,serif" font-size="9.00">31</text>
</g>
<!-- 31&#45;&gt;44 -->
<g id="edge141" class="edge">
<title>31&#45;&gt;44</title>
<path fill="none" stroke="green" stroke-width="0.8" d="M757.78,-79.71C741.62,-68.16 715.37,-49.4 696.43,-35.86"/>
<polygon fill="green" stroke="green" stroke-width="0.8" points="698.22,-32.84 688.05,-29.87 694.15,-38.53 698.22,-32.84"/>
</g>
<!-- 32&#45;&gt;43 -->
<g id="edge120" class="edge">
<title>32&#45;&gt;43</title>
<path fill="none" stroke="green" stroke-width="0.8" d="M852.15,-145.67C856.8,-126.76 865.91,-96.04 880.38,-72.77 888.56,-59.64 900.43,-47.13 910.77,-37.53"/>
<polygon fill="green" stroke="green" stroke-width="0.8" points="913.18,-40.07 918.3,-30.79 908.51,-34.86 913.18,-40.07"/>
</g>
<!-- 32&#45;&gt;22 -->
<g id="edge143" class="edge">
<title>32&#45;&gt;22</title>
<path fill="none" stroke="green" stroke-width="0.8" d="M863.46,-153.12C868.63,-150.2 874.58,-147.31 880.38,-145.54 980.36,-114.96 1307.14,-97.93 1405.88,-93.4"/>
<polygon fill="green" stroke="green" stroke-width="0.8" points="1406.16,-96.89 1416,-92.94 1405.85,-89.89 1406.16,-96.89"/>
</g>
<!-- 32&#45;&gt;31 -->
<g id="edge140" class="edge">
<title>32&#45;&gt;31</title>
<path fill="none" stroke="green" stroke-width="0.8" d="M835.15,-150.6C823.49,-139.74 806.32,-123.75 792.88,-111.24"/>
<polygon fill="green" stroke="green" stroke-width="0.8" points="795.17,-108.59 785.47,-104.34 790.4,-113.72 795.17,-108.59"/>
</g>
<!-- 33&#45;&gt;30 -->
<g id="edge170" class="edge">
<title>33&#45;&gt;30</title>
<path fill="none" stroke="green" stroke-width="0.8" d="M1832.21,-154.02C1837.33,-151.22 1843.06,-148.18 1848.38,-145.54 1883.32,-128.22 1907.21,-142.28 1928.38,-109.54 1937.26,-95.82 1937.03,-86.64 1928.38,-72.77 1910.84,-44.64 1873.69,-30.92 1847.66,-24.53"/>
<polygon fill="green" stroke="green" stroke-width="0.8" points="1848.14,-21.05 1837.62,-22.28 1846.61,-27.88 1848.14,-21.05"/>
</g>
<!-- 33&#45;&gt;42 -->
<g id="edge136" class="edge">
<title>33&#45;&gt;42</title>
<path fill="none" stroke="green" stroke-width="0.8" d="M1833.84,-157.35C1847.03,-153.38 1865.66,-148.27 1882.38,-145.54 2119.77,-106.73 2183.39,-136.68 2422.38,-109.54 2449.79,-106.43 2480.86,-101.25 2502.62,-97.35"/>
<polygon fill="green" stroke="green" stroke-width="0.8" points="2503.28,-100.79 2512.49,-95.56 2502.03,-93.9 2503.28,-100.79"/>
</g>
<!-- 33&#45;&gt;35 -->
<g id="edge133" class="edge">
<title>33&#45;&gt;35</title>
<path fill="none" stroke="green" stroke-width="0.8" d="M1833.94,-157.9C1847.19,-154.21 1865.84,-149.22 1882.38,-145.54 1969.7,-126.13 1995.35,-137.27 2080.38,-109.54 2116.06,-97.91 2120.1,-82.34 2156.38,-72.77 2310.89,-32.04 2822.4,-21.73 2948.9,-19.77"/>
<polygon fill="green" stroke="green" stroke-width="0.8" points="2949.02,-23.27 2958.96,-19.62 2948.91,-16.27 2949.02,-23.27"/>
</g>
<!-- 33&#45;&gt;22 -->
<g id="edge146" class="edge">
<title>33&#45;&gt;22</title>
<path fill="none" stroke="green" stroke-width="0.8" d="M1798.84,-157.75C1785.82,-154.03 1767.59,-149.06 1751.38,-145.54 1645.81,-122.58 1518.63,-103.82 1462.89,-96.03"/>
<polygon fill="green" stroke="green" stroke-width="0.8" points="1463.11,-92.53 1452.73,-94.62 1462.15,-99.46 1463.11,-92.53"/>
</g>
<!-- 34&#45;&gt;40 -->
<g id="edge108" class="edge">
<title>34&#45;&gt;40</title>
<path fill="none" stroke="green" stroke-width="0.8" d="M3334.68,-146.78C3339.26,-136.3 3345.09,-122.27 3349.38,-109.54 3356.44,-88.63 3362.79,-64.44 3367.18,-46.38"/>
<polygon fill="green" stroke="green" stroke-width="0.8" points="3370.61,-47.07 3369.53,-36.53 3363.8,-45.45 3370.61,-47.07"/>
</g>
<!-- 34&#45;&gt;30 -->
<g id="edge97" class="edge">
<title>34&#45;&gt;30</title>
<path fill="none" stroke="green" stroke-width="0.8" d="M3310.09,-157.51C3257.28,-141.25 3093.23,-92.73 2953.38,-72.77 2730.45,-40.95 2001.94,-23.4 1848.08,-20"/>
<polygon fill="green" stroke="green" stroke-width="0.8" points="1848.09,-16.5 1838.01,-19.78 1847.93,-23.5 1848.09,-16.5"/>
</g>
<!-- 34&#45;&gt;24 -->
<g id="edge134" class="edge">
<title>34&#45;&gt;24</title>
<path fill="none" stroke="green" stroke-width="0.8" d="M3318.95,-147.22C3314.13,-138.24 3307.98,-126.78 3302.53,-116.64"/>
<polygon fill="green" stroke="green" stroke-width="0.8" points="3305.61,-114.97 3297.79,-107.82 3299.44,-118.28 3305.61,-114.97"/>
</g>
<!-- 36&#45;&gt;40 -->
<g id="edge161" class="edge">
<title>36&#45;&gt;40</title>
<path fill="none" stroke="green" stroke-width="0.8" d="M2713.44,-80.31C2718.62,-77.39 2724.57,-74.51 2730.38,-72.77 2848.03,-37.63 3235.7,-23.53 3344.67,-20.2"/>
<polygon fill="green" stroke="green" stroke-width="0.8" points="3344.99,-23.69 3354.89,-19.89 3344.79,-16.69 3344.99,-23.69"/>
</g>
<!-- 37&#45;&gt;44 -->
<g id="edge175" class="edge">
<title>37&#45;&gt;44</title>
<path fill="none" stroke="green" stroke-width="0.8" d="M33.45,-80.31C38.62,-77.4 44.57,-74.51 50.38,-72.77 164.1,-38.64 538.33,-23.86 644.86,-20.28"/>
<polygon fill="green" stroke="green" stroke-width="0.8" points="644.99,-23.78 654.86,-19.95 644.76,-16.78 644.99,-23.78"/>
</g>
<!-- 38&#45;&gt;30 -->
<g id="edge166" class="edge">
<title>38&#45;&gt;30</title>
<path fill="none" stroke="green" stroke-width="0.8" d="M2199.77,-152.33C2173.17,-133.54 2114.47,-94.32 2059.38,-72.77 1985.96,-44.05 1893.56,-28.98 1847.78,-22.82"/>
<polygon fill="green" stroke="green" stroke-width="0.8" points="1848.08,-19.33 1837.71,-21.51 1847.17,-26.27 1848.08,-19.33"/>
</g>
<!-- 38&#45;&gt;42 -->
<g id="edge157" class="edge">
<title>38&#45;&gt;42</title>
<path fill="none" stroke="green" stroke-width="0.8" d="M2228.91,-152.32C2233.08,-149.73 2237.76,-147.22 2242.38,-145.54 2350.41,-106.39 2389.27,-145.54 2498.38,-109.54 2501,-108.68 2503.64,-107.61 2506.24,-106.42"/>
<polygon fill="green" stroke="green" stroke-width="0.8" points="2507.95,-109.48 2515.26,-101.81 2504.77,-103.25 2507.95,-109.48"/>
</g>
<!-- 39&#45;&gt;42 -->
<g id="edge169" class="edge">
<title>39&#45;&gt;42</title>
<path fill="none" stroke="green" stroke-width="0.8" d="M2837.64,-158.08C2823.55,-154.34 2803.3,-149.2 2785.38,-145.54 2687.03,-125.42 2657.4,-141.96 2562.38,-109.54 2559.78,-108.65 2557.14,-107.56 2554.55,-106.37"/>
<polygon fill="green" stroke="green" stroke-width="0.8" points="2556.02,-103.19 2545.53,-101.74 2552.83,-109.42 2556.02,-103.19"/>
</g>
<!-- 41&#45;&gt;43 -->
<g id="edge172" class="edge">
<title>41&#45;&gt;43</title>
<path fill="none" stroke="green" stroke-width="0.8" d="M1587.32,-80.31C1582.15,-77.39 1576.2,-74.51 1570.38,-72.77 1453.66,-37.86 1069,-23.59 960.88,-20.21"/>
<polygon fill="green" stroke="green" stroke-width="0.8" points="960.84,-16.71 950.74,-19.9 960.63,-23.71 960.84,-16.71"/>
</g>
</g>
</svg>
