<?xml version="1.0" encoding="UTF-8" standalone="no"?>
<!DOCTYPE svg PUBLIC "-//W3C//DTD SVG 1.1//EN"
 "http://www.w3.org/Graphics/SVG/1.1/DTD/svg11.dtd">
<!-- Generated by graphviz version 3.0.0 (20220226.1711)
 -->
<!-- Pages: 1 -->
<svg width="3511pt" height="535pt"
 viewBox="0.00 0.00 3511.00 535.39" xmlns="http://www.w3.org/2000/svg" xmlns:xlink="http://www.w3.org/1999/xlink">
<g id="graph0" class="graph" transform="scale(1 1) rotate(0) translate(4 531.39)">
<polygon fill="white" stroke="transparent" points="-4,4 -4,-531.39 3507,-531.39 3507,4 -4,4"/>
<!-- 1 -->
<g id="node1" class="node">
<title>1</title>
<polygon fill="lightgray" stroke="black" points="2452.5,-391.23 2431.5,-391.23 2431.5,-373.23 2452.5,-373.23 2452.5,-391.23"/>
<text text-anchor="middle" x="2442" y="-380.03" font-family="Times,serif" font-size="9.00">1</text>
</g>
<!-- 31 -->
<g id="node19" class="node">
<title>31</title>
<ellipse fill="lightblue" stroke="black" cx="2634" cy="-163.92" rx="18.27" ry="18.27"/>
<text text-anchor="middle" x="2634" y="-161.72" font-family="Times,serif" font-size="9.00">31</text>
</g>
<!-- 1&#45;&gt;31 -->
<g id="edge1" class="edge">
<title>1&#45;&gt;31</title>
<path fill="none" stroke="green" stroke-width="0.8" d="M2449.45,-373.02C2452.94,-369.66 2457.35,-366.06 2462,-363.85 2546.74,-323.59 2609.58,-399.62 2670,-327.85 2703.91,-287.57 2671.52,-222.36 2649.88,-187.92"/>
<polygon fill="green" stroke="green" stroke-width="0.8" points="2652.77,-185.95 2644.39,-179.47 2646.9,-189.76 2652.77,-185.95"/>
</g>
<!-- 36 -->
<g id="node21" class="node">
<title>36</title>
<ellipse fill="lightblue" stroke="black" cx="1571" cy="-236.69" rx="18.27" ry="18.27"/>
<text text-anchor="middle" x="1571" y="-234.49" font-family="Times,serif" font-size="9.00">36</text>
</g>
<!-- 1&#45;&gt;36 -->
<g id="edge2" class="edge">
<title>1&#45;&gt;36</title>
<path fill="none" stroke="green" stroke-width="0.8" d="M2431.24,-380.22C2383.24,-375.61 2183.9,-355.69 2022,-327.85 1946.24,-314.82 1928.33,-306.4 1853,-291.08 1760.23,-272.21 1649.84,-251.94 1599.08,-242.75"/>
<polygon fill="green" stroke="green" stroke-width="0.8" points="1599.64,-239.29 1589.18,-240.96 1598.4,-246.18 1599.64,-239.29"/>
</g>
<!-- 27 -->
<g id="node22" class="node">
<title>27</title>
<ellipse fill="lightblue" stroke="black" cx="2048" cy="-18.38" rx="18.27" ry="18.27"/>
<text text-anchor="middle" x="2048" y="-16.18" font-family="Times,serif" font-size="9.00">27</text>
</g>
<!-- 1&#45;&gt;27 -->
<g id="edge3" class="edge">
<title>1&#45;&gt;27</title>
<path fill="none" stroke="green" stroke-width="0.8" d="M2448.97,-373.13C2452.49,-369.62 2457.06,-365.86 2462,-363.85 2586.49,-313.03 2938.69,-371.12 3066,-327.85 3133.61,-304.87 3199,-309.11 3199,-237.69 3199,-237.69 3199,-237.69 3199,-162.92 3199,-46.18 2254.55,-23.16 2076.69,-19.86"/>
<polygon fill="green" stroke="green" stroke-width="0.8" points="2076.61,-16.36 2066.55,-19.68 2076.48,-23.35 2076.61,-16.36"/>
</g>
<!-- 23 -->
<g id="node23" class="node">
<title>23</title>
<ellipse fill="lightblue" stroke="black" cx="874" cy="-236.69" rx="18.27" ry="18.27"/>
<text text-anchor="middle" x="874" y="-234.49" font-family="Times,serif" font-size="9.00">23</text>
</g>
<!-- 1&#45;&gt;23 -->
<g id="edge4" class="edge">
<title>1&#45;&gt;23</title>
<path fill="none" stroke="green" stroke-width="0.8" d="M2431.29,-380.06C2401.58,-376.87 2315.66,-367.98 2244,-363.85 2171.43,-359.67 999.87,-362.57 936,-327.85 910.67,-314.08 893.59,-284.95 883.87,-263.52"/>
<polygon fill="green" stroke="green" stroke-width="0.8" points="887.07,-262.11 879.92,-254.29 880.64,-264.86 887.07,-262.11"/>
</g>
<!-- 24 -->
<g id="node24" class="node">
<title>24</title>
<ellipse fill="lightblue" stroke="black" cx="1850" cy="-236.69" rx="18.27" ry="18.27"/>
<text text-anchor="middle" x="1850" y="-234.49" font-family="Times,serif" font-size="9.00">24</text>
</g>
<!-- 1&#45;&gt;24 -->
<g id="edge5" class="edge">
<title>1&#45;&gt;24</title>
<path fill="none" stroke="green" stroke-width="0.8" d="M2431.35,-379.8C2392.53,-374.47 2255.11,-354.73 2144,-327.85 2117.4,-321.41 1944.82,-267.46 1877.16,-246.23"/>
<polygon fill="green" stroke="green" stroke-width="0.8" points="1877.83,-242.77 1867.24,-243.11 1875.73,-249.45 1877.83,-242.77"/>
</g>
<!-- 28 -->
<g id="node31" class="node">
<title>28</title>
<ellipse fill="white" stroke="black" cx="2436" cy="-236.69" rx="18.27" ry="18.27"/>
<text text-anchor="middle" x="2436" y="-234.49" font-family="Times,serif" font-size="9.00">28</text>
</g>
<!-- 1&#45;&gt;28 -->
<g id="edge118" class="edge">
<title>1&#45;&gt;28</title>
<path fill="none" stroke="green" stroke-width="0.8" d="M2441.66,-373.1C2440.81,-352.66 2438.54,-298.37 2437.14,-265.07"/>
<polygon fill="green" stroke="green" stroke-width="0.8" points="2440.64,-264.91 2436.73,-255.07 2433.65,-265.21 2440.64,-264.91"/>
</g>
<!-- 30 -->
<g id="node32" class="node">
<title>30</title>
<ellipse fill="white" stroke="black" cx="2588" cy="-309.46" rx="18.27" ry="18.27"/>
<text text-anchor="middle" x="2588" y="-307.26" font-family="Times,serif" font-size="9.00">30</text>
</g>
<!-- 1&#45;&gt;30 -->
<g id="edge103" class="edge">
<title>1&#45;&gt;30</title>
<path fill="none" stroke="green" stroke-width="0.8" d="M2450.05,-373.08C2453.51,-369.9 2457.74,-366.41 2462,-363.85 2500.36,-340.82 2515.37,-346.57 2556,-327.85 2558.36,-326.76 2560.79,-325.57 2563.2,-324.35"/>
<polygon fill="green" stroke="green" stroke-width="0.8" points="2565.06,-327.32 2572.26,-319.55 2561.78,-321.14 2565.06,-327.32"/>
</g>
<!-- 2 -->
<g id="node2" class="node">
<title>2</title>
<polygon fill="lightgray" stroke="black" points="2714.5,-391.23 2693.5,-391.23 2693.5,-373.23 2714.5,-373.23 2714.5,-391.23"/>
<text text-anchor="middle" x="2704" y="-380.03" font-family="Times,serif" font-size="9.00">2</text>
</g>
<!-- 2&#45;&gt;31 -->
<g id="edge6" class="edge">
<title>2&#45;&gt;31</title>
<path fill="none" stroke="green" stroke-width="0.8" d="M2714.71,-381.43C2769.6,-382.19 3018.78,-382.55 3066,-327.85 3076.68,-315.48 3074.56,-305 3066,-291.08 3022.33,-220.08 2751.4,-179.8 2662.34,-168.35"/>
<polygon fill="green" stroke="green" stroke-width="0.8" points="2662.53,-164.85 2652.17,-167.07 2661.66,-171.79 2662.53,-164.85"/>
</g>
<!-- 29 -->
<g id="node20" class="node">
<title>29</title>
<ellipse fill="lightblue" stroke="black" cx="1064" cy="-163.92" rx="18.27" ry="18.27"/>
<text text-anchor="middle" x="1064" y="-161.72" font-family="Times,serif" font-size="9.00">29</text>
</g>
<!-- 2&#45;&gt;29 -->
<g id="edge7" class="edge">
<title>2&#45;&gt;29</title>
<path fill="none" stroke="green" stroke-width="0.8" d="M2697.06,-373.05C2693.55,-369.52 2688.98,-365.77 2684,-363.85 2601.02,-331.76 1148.78,-387.74 1083,-327.85 1045.63,-293.82 1050.94,-228.67 1057.72,-191.9"/>
<polygon fill="green" stroke="green" stroke-width="0.8" points="1061.19,-192.39 1059.73,-181.9 1054.33,-191.01 1061.19,-192.39"/>
</g>
<!-- 2&#45;&gt;36 -->
<g id="edge8" class="edge">
<title>2&#45;&gt;36</title>
<path fill="none" stroke="green" stroke-width="0.8" d="M2697.03,-373.14C2693.5,-369.64 2688.94,-365.88 2684,-363.85 2570.74,-317.23 2255.42,-343.95 2134,-327.85 2051.76,-316.94 2032.78,-305.03 1951,-291.08 1820.01,-268.74 1662.46,-248.8 1599.25,-241.09"/>
<polygon fill="green" stroke="green" stroke-width="0.8" points="1599.6,-237.6 1589.25,-239.87 1598.76,-244.55 1599.6,-237.6"/>
</g>
<!-- 2&#45;&gt;27 -->
<g id="edge9" class="edge">
<title>2&#45;&gt;27</title>
<path fill="none" stroke="green" stroke-width="0.8" d="M2714.74,-380.79C2773.46,-378.26 3055.97,-364.31 3134,-327.85 3214,-290.46 3261.14,-219.57 3213,-145.54 3169.53,-78.69 3126.54,-91.37 3049,-72.77 2857.06,-26.72 2219.32,-20.36 2076.53,-19.51"/>
<polygon fill="green" stroke="green" stroke-width="0.8" points="2076.42,-16.01 2066.4,-19.46 2076.38,-23.01 2076.42,-16.01"/>
</g>
<!-- 2&#45;&gt;23 -->
<g id="edge10" class="edge">
<title>2&#45;&gt;23</title>
<path fill="none" stroke="green" stroke-width="0.8" d="M2697.06,-373.05C2693.55,-369.52 2688.98,-365.77 2684,-363.85 2514.61,-298.38 1226.06,-372.37 1050,-327.85 1034.07,-323.82 943.53,-275.39 898.89,-251.23"/>
<polygon fill="green" stroke="green" stroke-width="0.8" points="900.31,-248.02 889.85,-246.33 896.97,-254.17 900.31,-248.02"/>
</g>
<!-- 2&#45;&gt;24 -->
<g id="edge11" class="edge">
<title>2&#45;&gt;24</title>
<path fill="none" stroke="green" stroke-width="0.8" d="M2697.02,-373.16C2693.5,-369.65 2688.93,-365.89 2684,-363.85 2475.76,-277.45 2387.07,-412.22 2178,-327.85 2154.37,-318.31 2157.15,-301.73 2134,-291.08 2046.39,-250.75 2014.43,-274.72 1920,-255.08 1906.02,-252.17 1890.6,-248.4 1877.8,-245.12"/>
<polygon fill="green" stroke="green" stroke-width="0.8" points="1878.31,-241.63 1867.75,-242.5 1876.55,-248.41 1878.31,-241.63"/>
</g>
<!-- 19 -->
<g id="node25" class="node">
<title>19</title>
<ellipse fill="white" stroke="black" cx="2803" cy="-236.69" rx="18.27" ry="18.27"/>
<text text-anchor="middle" x="2803" y="-234.49" font-family="Times,serif" font-size="9.00">19</text>
</g>
<!-- 2&#45;&gt;19 -->
<g id="edge128" class="edge">
<title>2&#45;&gt;19</title>
<path fill="none" stroke="green" stroke-width="0.8" d="M2714.83,-381.28C2743.55,-380.74 2821.77,-374.84 2855,-327.85 2872.11,-303.65 2845.94,-273.44 2824.93,-254.87"/>
<polygon fill="green" stroke="green" stroke-width="0.8" points="2827.13,-252.14 2817.23,-248.35 2822.61,-257.48 2827.13,-252.14"/>
</g>
<!-- 20 -->
<g id="node26" class="node">
<title>20</title>
<ellipse fill="white" stroke="black" cx="2643" cy="-309.46" rx="18.27" ry="18.27"/>
<text text-anchor="middle" x="2643" y="-307.26" font-family="Times,serif" font-size="9.00">20</text>
</g>
<!-- 2&#45;&gt;20 -->
<g id="edge152" class="edge">
<title>2&#45;&gt;20</title>
<path fill="none" stroke="green" stroke-width="0.8" d="M2697,-373.11C2688.37,-363.1 2673.36,-345.69 2661.36,-331.76"/>
<polygon fill="green" stroke="green" stroke-width="0.8" points="2663.89,-329.33 2654.71,-324.04 2658.58,-333.9 2663.89,-329.33"/>
</g>
<!-- 33 -->
<g id="node34" class="node">
<title>33</title>
<ellipse fill="white" stroke="black" cx="3039" cy="-309.46" rx="18.27" ry="18.27"/>
<text text-anchor="middle" x="3039" y="-307.26" font-family="Times,serif" font-size="9.00">33</text>
</g>
<!-- 2&#45;&gt;33 -->
<g id="edge148" class="edge">
<title>2&#45;&gt;33</title>
<path fill="none" stroke="green" stroke-width="0.8" d="M2714.51,-380.61C2753.99,-378.01 2896.82,-366.33 3007,-327.85 3009.6,-326.94 3012.23,-325.84 3014.82,-324.64"/>
<polygon fill="green" stroke="green" stroke-width="0.8" points="3016.55,-327.69 3023.84,-320 3013.35,-321.46 3016.55,-327.69"/>
</g>
<!-- 3 -->
<g id="node3" class="node">
<title>3</title>
<polygon fill="lightgray" stroke="black" points="1113.5,-318.46 1092.5,-318.46 1092.5,-300.46 1113.5,-300.46 1113.5,-318.46"/>
<text text-anchor="middle" x="1103" y="-307.26" font-family="Times,serif" font-size="9.00">3</text>
</g>
<!-- 3&#45;&gt;31 -->
<g id="edge12" class="edge">
<title>3&#45;&gt;31</title>
<path fill="none" stroke="green" stroke-width="0.8" d="M1111.05,-300.31C1114.51,-297.13 1118.74,-293.64 1123,-291.08 1200.53,-244.54 1224.43,-236.55 1313,-218.31 1572.3,-164.91 2436.94,-164.4 2605.41,-164.82"/>
<polygon fill="green" stroke="green" stroke-width="0.8" points="2605.48,-168.32 2615.49,-164.85 2605.5,-161.32 2605.48,-168.32"/>
</g>
<!-- 3&#45;&gt;29 -->
<g id="edge13" class="edge">
<title>3&#45;&gt;29</title>
<path fill="none" stroke="green" stroke-width="0.8" d="M1100.79,-300.33C1095.21,-279.78 1080.33,-225.03 1071.3,-191.78"/>
<polygon fill="green" stroke="green" stroke-width="0.8" points="1074.59,-190.54 1068.59,-181.81 1067.83,-192.38 1074.59,-190.54"/>
</g>
<!-- 3&#45;&gt;36 -->
<g id="edge14" class="edge">
<title>3&#45;&gt;36</title>
<path fill="none" stroke="green" stroke-width="0.8" d="M1110.39,-300.13C1113.87,-296.75 1118.29,-293.17 1123,-291.08 1198.89,-257.45 1456.17,-242.91 1542.49,-238.91"/>
<polygon fill="green" stroke="green" stroke-width="0.8" points="1542.77,-242.4 1552.61,-238.45 1542.46,-235.4 1542.77,-242.4"/>
</g>
<!-- 3&#45;&gt;27 -->
<g id="edge15" class="edge">
<title>3&#45;&gt;27</title>
<path fill="none" stroke="green" stroke-width="0.8" d="M1108.32,-300.21C1120.06,-282.62 1149.93,-241.23 1185,-218.31 1269.8,-162.89 1304.98,-177.81 1401,-145.54 1497.42,-113.13 1518.81,-95.32 1618,-72.77 1766.66,-38.97 1949.42,-25.23 2019.14,-20.97"/>
<polygon fill="green" stroke="green" stroke-width="0.8" points="2019.55,-24.45 2029.33,-20.37 2019.14,-17.46 2019.55,-24.45"/>
</g>
<!-- 3&#45;&gt;23 -->
<g id="edge16" class="edge">
<title>3&#45;&gt;23</title>
<path fill="none" stroke="green" stroke-width="0.8" d="M1092.26,-305.14C1058.18,-294.61 951.71,-261.71 901.17,-246.09"/>
<polygon fill="green" stroke="green" stroke-width="0.8" points="902.14,-242.73 891.56,-243.12 900.08,-249.42 902.14,-242.73"/>
</g>
<!-- 3&#45;&gt;24 -->
<g id="edge17" class="edge">
<title>3&#45;&gt;24</title>
<path fill="none" stroke="green" stroke-width="0.8" d="M1109.98,-300.39C1113.5,-296.89 1118.07,-293.13 1123,-291.08 1131.22,-287.66 1687.42,-248.95 1821.27,-239.68"/>
<polygon fill="green" stroke="green" stroke-width="0.8" points="1821.8,-243.15 1831.53,-238.97 1821.31,-236.17 1821.8,-243.15"/>
</g>
<!-- 4 -->
<g id="node4" class="node">
<title>4</title>
<polygon fill="lightgray" stroke="black" points="1560.5,-464 1539.5,-464 1539.5,-446 1560.5,-446 1560.5,-464"/>
<text text-anchor="middle" x="1550" y="-452.8" font-family="Times,serif" font-size="9.00">4</text>
</g>
<!-- 4&#45;&gt;31 -->
<g id="edge18" class="edge">
<title>4&#45;&gt;31</title>
<path fill="none" stroke="green" stroke-width="0.8" d="M1560.66,-454.03C1691.31,-454.27 2980.31,-453.44 3083,-327.85 3136.97,-261.84 3021.57,-233.22 2986,-218.31 2873.08,-170.96 2724.13,-164.92 2662.54,-164.61"/>
<polygon fill="green" stroke="green" stroke-width="0.8" points="2662.42,-161.11 2652.42,-164.61 2662.42,-168.11 2662.42,-161.11"/>
</g>
<!-- 4&#45;&gt;29 -->
<g id="edge19" class="edge">
<title>4&#45;&gt;29</title>
<path fill="none" stroke="green" stroke-width="0.8" d="M1539.24,-450.73C1525.11,-446.61 1499.46,-439.67 1477,-436.62 1422.8,-429.24 537.03,-433.07 493,-400.62 425.27,-350.7 385.11,-280.29 442,-218.31 482.56,-174.12 918.03,-166.44 1035.14,-165.16"/>
<polygon fill="green" stroke="green" stroke-width="0.8" points="1035.49,-168.66 1045.46,-165.06 1035.42,-161.66 1035.49,-168.66"/>
</g>
<!-- 4&#45;&gt;36 -->
<g id="edge20" class="edge">
<title>4&#45;&gt;36</title>
<path fill="none" stroke="green" stroke-width="0.8" d="M1539.09,-447.74C1525.34,-439.15 1502.38,-422.26 1493,-400.62 1486.5,-385.62 1490.02,-379.91 1493,-363.85 1499.33,-329.78 1502.59,-320.44 1521,-291.08 1528.98,-278.34 1540.27,-265.97 1550.1,-256.35"/>
<polygon fill="green" stroke="green" stroke-width="0.8" points="1552.73,-258.69 1557.59,-249.27 1547.92,-253.6 1552.73,-258.69"/>
</g>
<!-- 4&#45;&gt;23 -->
<g id="edge21" class="edge">
<title>4&#45;&gt;23</title>
<path fill="none" stroke="green" stroke-width="0.8" d="M1539.24,-450.74C1525.11,-446.61 1499.46,-439.68 1477,-436.62 1424.17,-429.41 554.99,-439.02 518,-400.62 484.23,-365.55 486.23,-327.97 518,-291.08 560.27,-241.99 767.53,-237.4 844.85,-237.43"/>
<polygon fill="green" stroke="green" stroke-width="0.8" points="845.26,-240.93 855.28,-237.46 845.29,-233.93 845.26,-240.93"/>
</g>
<!-- 4&#45;&gt;24 -->
<g id="edge22" class="edge">
<title>4&#45;&gt;24</title>
<path fill="none" stroke="green" stroke-width="0.8" d="M1557.97,-445.93C1587.08,-416.57 1687.95,-315.82 1726,-291.08 1757.05,-270.88 1797.01,-255.28 1823.06,-246.29"/>
<polygon fill="green" stroke="green" stroke-width="0.8" points="1824.28,-249.57 1832.64,-243.07 1822.04,-242.94 1824.28,-249.57"/>
</g>
<!-- 22 -->
<g id="node28" class="node">
<title>22</title>
<ellipse fill="white" stroke="black" cx="2657" cy="-382.23" rx="18.27" ry="18.27"/>
<text text-anchor="middle" x="2657" y="-380.03" font-family="Times,serif" font-size="9.00">22</text>
</g>
<!-- 4&#45;&gt;22 -->
<g id="edge105" class="edge">
<title>4&#45;&gt;22</title>
<path fill="none" stroke="green" stroke-width="0.8" d="M1560.59,-453.74C1656.36,-451.31 2374.13,-432.23 2587,-400.62 2601.37,-398.48 2617.09,-394.71 2629.98,-391.23"/>
<polygon fill="green" stroke="green" stroke-width="0.8" points="2630.95,-394.59 2639.64,-388.53 2629.07,-387.85 2630.95,-394.59"/>
</g>
<!-- 5 -->
<g id="node5" class="node">
<title>5</title>
<polygon fill="lightgray" stroke="black" points="2246.5,-318.46 2225.5,-318.46 2225.5,-300.46 2246.5,-300.46 2246.5,-318.46"/>
<text text-anchor="middle" x="2236" y="-307.26" font-family="Times,serif" font-size="9.00">5</text>
</g>
<!-- 5&#45;&gt;31 -->
<g id="edge23" class="edge">
<title>5&#45;&gt;31</title>
<path fill="none" stroke="green" stroke-width="0.8" d="M2239.17,-300.32C2246.67,-282.2 2267.39,-238.57 2300,-218.31 2351.12,-186.55 2534.51,-171.42 2605.58,-166.66"/>
<polygon fill="green" stroke="green" stroke-width="0.8" points="2605.85,-170.14 2615.6,-166 2605.4,-163.16 2605.85,-170.14"/>
</g>
<!-- 5&#45;&gt;29 -->
<g id="edge24" class="edge">
<title>5&#45;&gt;29</title>
<path fill="none" stroke="green" stroke-width="0.8" d="M2229.01,-300.22C2225.71,-296.86 2221.51,-293.26 2217,-291.08 2127.44,-247.68 2087.36,-294.53 1996,-255.08 1971.33,-244.43 1973.18,-227.7 1948,-218.31 1866.3,-187.84 1235.3,-169.45 1092.62,-165.66"/>
<polygon fill="green" stroke="green" stroke-width="0.8" points="1092.56,-162.16 1082.48,-165.39 1092.38,-169.15 1092.56,-162.16"/>
</g>
<!-- 5&#45;&gt;36 -->
<g id="edge25" class="edge">
<title>5&#45;&gt;36</title>
<path fill="none" stroke="green" stroke-width="0.8" d="M2229.43,-300.41C2226.1,-296.92 2221.75,-293.15 2217,-291.08 2202.63,-284.8 1723.02,-248.95 1599.69,-239.81"/>
<polygon fill="green" stroke="green" stroke-width="0.8" points="1599.75,-236.31 1589.52,-239.06 1599.23,-243.29 1599.75,-236.31"/>
</g>
<!-- 5&#45;&gt;27 -->
<g id="edge26" class="edge">
<title>5&#45;&gt;27</title>
<path fill="none" stroke="green" stroke-width="0.8" d="M2228.46,-300.21C2225.19,-297.01 2221.16,-293.53 2217,-291.08 2173.78,-265.59 2144.26,-291.73 2110,-255.08 2081.62,-224.73 2060.3,-102.21 2051.9,-46.82"/>
<polygon fill="green" stroke="green" stroke-width="0.8" points="2055.33,-46.06 2050.4,-36.68 2048.4,-47.09 2055.33,-46.06"/>
</g>
<!-- 5&#45;&gt;23 -->
<g id="edge27" class="edge">
<title>5&#45;&gt;23</title>
<path fill="none" stroke="green" stroke-width="0.8" d="M2229.47,-300.32C2226.15,-296.81 2221.8,-293.05 2217,-291.08 2185.51,-278.12 1094.47,-244.4 902.65,-238.56"/>
<polygon fill="green" stroke="green" stroke-width="0.8" points="902.61,-235.06 892.51,-238.25 902.4,-242.05 902.61,-235.06"/>
</g>
<!-- 5&#45;&gt;24 -->
<g id="edge28" class="edge">
<title>5&#45;&gt;24</title>
<path fill="none" stroke="green" stroke-width="0.8" d="M2229.03,-300.17C2225.73,-296.8 2221.53,-293.21 2217,-291.08 2111.83,-241.62 2072.93,-272.31 1958,-255.08 1930.72,-250.99 1899.64,-245.94 1877.84,-242.34"/>
<polygon fill="green" stroke="green" stroke-width="0.8" points="1878.38,-238.89 1867.94,-240.7 1877.24,-245.79 1878.38,-238.89"/>
</g>
<!-- 32 -->
<g id="node33" class="node">
<title>32</title>
<ellipse fill="white" stroke="black" cx="2436" cy="-91.15" rx="18.27" ry="18.27"/>
<text text-anchor="middle" x="2436" y="-88.95" font-family="Times,serif" font-size="9.00">32</text>
</g>
<!-- 5&#45;&gt;32 -->
<g id="edge134" class="edge">
<title>5&#45;&gt;32</title>
<path fill="none" stroke="green" stroke-width="0.8" d="M2236.36,-300.23C2237.47,-283.4 2241.96,-244.43 2260,-218.31 2298.74,-162.23 2370.88,-122.31 2409.68,-103.79"/>
<polygon fill="green" stroke="green" stroke-width="0.8" points="2411.65,-106.73 2419.24,-99.34 2408.7,-100.38 2411.65,-106.73"/>
</g>
<!-- 6 -->
<g id="node6" class="node">
<title>6</title>
<polygon fill="lightgray" stroke="black" points="2285.5,-318.46 2264.5,-318.46 2264.5,-300.46 2285.5,-300.46 2285.5,-318.46"/>
<text text-anchor="middle" x="2275" y="-307.26" font-family="Times,serif" font-size="9.00">6</text>
</g>
<!-- 6&#45;&gt;29 -->
<g id="edge29" class="edge">
<title>6&#45;&gt;29</title>
<path fill="none" stroke="green" stroke-width="0.8" d="M2267.92,-300.39C2264.6,-297.06 2260.42,-293.44 2256,-291.08 2197.08,-259.54 2174.5,-272.58 2110,-255.08 2054.52,-240.02 2042.62,-228.21 1986,-218.31 1807.99,-187.19 1228.62,-169.48 1092.72,-165.7"/>
<polygon fill="green" stroke="green" stroke-width="0.8" points="1092.42,-162.19 1082.33,-165.41 1092.23,-169.18 1092.42,-162.19"/>
</g>
<!-- 6&#45;&gt;36 -->
<g id="edge30" class="edge">
<title>6&#45;&gt;36</title>
<path fill="none" stroke="green" stroke-width="0.8" d="M2268.44,-300.4C2265.1,-296.91 2260.76,-293.14 2256,-291.08 2240.68,-284.43 1727.84,-248.55 1599.76,-239.68"/>
<polygon fill="green" stroke="green" stroke-width="0.8" points="1599.78,-236.17 1589.57,-238.97 1599.3,-243.16 1599.78,-236.17"/>
</g>
<!-- 6&#45;&gt;27 -->
<g id="edge31" class="edge">
<title>6&#45;&gt;27</title>
<path fill="none" stroke="green" stroke-width="0.8" d="M2268.69,-300.43C2238.94,-262.54 2112.1,-101.01 2065.37,-41.51"/>
<polygon fill="green" stroke="green" stroke-width="0.8" points="2068.01,-39.2 2059.08,-33.5 2062.5,-43.52 2068.01,-39.2"/>
</g>
<!-- 6&#45;&gt;23 -->
<g id="edge32" class="edge">
<title>6&#45;&gt;23</title>
<path fill="none" stroke="green" stroke-width="0.8" d="M2268.47,-300.32C2265.15,-296.8 2260.8,-293.05 2256,-291.08 2223.54,-277.74 1097.39,-244.23 902.57,-238.53"/>
<polygon fill="green" stroke="green" stroke-width="0.8" points="902.63,-235.03 892.53,-238.23 902.43,-242.02 902.63,-235.03"/>
</g>
<!-- 6&#45;&gt;24 -->
<g id="edge33" class="edge">
<title>6&#45;&gt;24</title>
<path fill="none" stroke="green" stroke-width="0.8" d="M2268.04,-300.16C2264.74,-296.78 2260.54,-293.19 2256,-291.08 2247.38,-287.06 1969.34,-252.44 1878.44,-241.2"/>
<polygon fill="green" stroke="green" stroke-width="0.8" points="1878.67,-237.7 1868.31,-239.95 1877.81,-244.65 1878.67,-237.7"/>
</g>
<!-- 6&#45;&gt;19 -->
<g id="edge124" class="edge">
<title>6&#45;&gt;19</title>
<path fill="none" stroke="green" stroke-width="0.8" d="M2285.55,-307.05C2348.52,-298.61 2675.45,-254.79 2774.52,-241.51"/>
<polygon fill="green" stroke="green" stroke-width="0.8" points="2775.22,-244.95 2784.67,-240.15 2774.29,-238.01 2775.22,-244.95"/>
</g>
<!-- 37 -->
<g id="node37" class="node">
<title>37</title>
<ellipse fill="white" stroke="black" cx="2895" cy="-236.69" rx="18.27" ry="18.27"/>
<text text-anchor="middle" x="2895" y="-234.49" font-family="Times,serif" font-size="9.00">37</text>
</g>
<!-- 6&#45;&gt;37 -->
<g id="edge127" class="edge">
<title>6&#45;&gt;37</title>
<path fill="none" stroke="green" stroke-width="0.8" d="M2285.67,-308.09C2342.26,-306 2612.81,-294.29 2830,-255.08 2842.5,-252.82 2856.1,-249.35 2867.62,-246.09"/>
<polygon fill="green" stroke="green" stroke-width="0.8" points="2868.9,-249.37 2877.52,-243.21 2866.94,-242.65 2868.9,-249.37"/>
</g>
<!-- 7 -->
<g id="node7" class="node">
<title>7</title>
<polygon fill="lightgray" stroke="black" points="1332.5,-527.39 1311.5,-527.39 1311.5,-509.39 1332.5,-509.39 1332.5,-527.39"/>
<text text-anchor="middle" x="1322" y="-516.19" font-family="Times,serif" font-size="9.00">7</text>
</g>
<!-- 7&#45;&gt;31 -->
<g id="edge34" class="edge">
<title>7&#45;&gt;31</title>
<path fill="none" stroke="green" stroke-width="0.8" d="M1332.78,-517.48C1476.72,-518.62 3015.57,-527.79 3164,-400.62 3225.53,-347.9 3227.81,-268.24 3164,-218.31 3144.04,-202.69 2769.61,-174.67 2662.44,-166.95"/>
<polygon fill="green" stroke="green" stroke-width="0.8" points="2662.59,-163.45 2652.37,-166.22 2662.09,-170.43 2662.59,-163.45"/>
</g>
<!-- 7&#45;&gt;29 -->
<g id="edge35" class="edge">
<title>7&#45;&gt;29</title>
<path fill="none" stroke="green" stroke-width="0.8" d="M1311.38,-517.2C1207.37,-515.38 371.95,-499.94 265,-473.39 174.67,-450.96 76,-476.3 76,-383.23 76,-383.23 76,-383.23 76,-308.46 76,-217.8 171.43,-241.79 259,-218.31 410.02,-177.81 909.9,-167.35 1035.28,-165.33"/>
<polygon fill="green" stroke="green" stroke-width="0.8" points="1035.65,-168.83 1045.59,-165.17 1035.54,-161.83 1035.65,-168.83"/>
</g>
<!-- 7&#45;&gt;36 -->
<g id="edge36" class="edge">
<title>7&#45;&gt;36</title>
<path fill="none" stroke="green" stroke-width="0.8" d="M1325.92,-508.98C1341.14,-477.04 1399.33,-361.46 1476,-291.08 1487.14,-280.86 1521.38,-262.6 1545.55,-250.32"/>
<polygon fill="green" stroke="green" stroke-width="0.8" points="1547.21,-253.4 1554.56,-245.77 1544.06,-247.15 1547.21,-253.4"/>
</g>
<!-- 7&#45;&gt;27 -->
<g id="edge37" class="edge">
<title>7&#45;&gt;27</title>
<path fill="none" stroke="green" stroke-width="0.8" d="M1311.41,-517.47C1198.11,-518.28 211.46,-523.87 93,-473.39 40.04,-450.82 0,-440.8 0,-383.23 0,-383.23 0,-383.23 0,-162.92 0,-115.04 17.19,-96.11 59,-72.77 148.49,-22.82 1781.89,-19.6 2019.32,-19.4"/>
<polygon fill="green" stroke="green" stroke-width="0.8" points="2019.56,-22.9 2029.56,-19.39 2019.55,-15.9 2019.56,-22.9"/>
</g>
<!-- 7&#45;&gt;23 -->
<g id="edge38" class="edge">
<title>7&#45;&gt;23</title>
<path fill="none" stroke="green" stroke-width="0.8" d="M1311.49,-517.15C1201.1,-514.58 256.77,-490.03 176,-400.62 143.37,-364.49 142.91,-326.79 176,-291.08 222.15,-241.27 719.68,-237.74 845.32,-237.65"/>
<polygon fill="green" stroke="green" stroke-width="0.8" points="845.33,-241.15 855.33,-237.65 845.33,-234.15 845.33,-241.15"/>
</g>
<!-- 7&#45;&gt;24 -->
<g id="edge39" class="edge">
<title>7&#45;&gt;24</title>
<path fill="none" stroke="green" stroke-width="0.8" d="M1332.94,-517.41C1368.69,-517.08 1484.55,-512.85 1569,-473.39 1684.1,-419.61 1790.47,-306.49 1831.81,-259.19"/>
<polygon fill="green" stroke="green" stroke-width="0.8" points="1834.64,-261.27 1838.54,-251.42 1829.35,-256.69 1834.64,-261.27"/>
</g>
<!-- 7&#45;&gt;22 -->
<g id="edge121" class="edge">
<title>7&#45;&gt;22</title>
<path fill="none" stroke="green" stroke-width="0.8" d="M1332.7,-517.26C1451.42,-515.8 2519.48,-501.87 2579,-473.39 2608.08,-459.47 2630.65,-429.12 2643.86,-407.48"/>
<polygon fill="green" stroke="green" stroke-width="0.8" points="2646.9,-409.21 2648.94,-398.81 2640.87,-405.67 2646.9,-409.21"/>
</g>
<!-- 26 -->
<g id="node30" class="node">
<title>26</title>
<ellipse fill="white" stroke="black" cx="1276" cy="-455" rx="18.27" ry="18.27"/>
<text text-anchor="middle" x="1276" y="-452.8" font-family="Times,serif" font-size="9.00">26</text>
</g>
<!-- 7&#45;&gt;26 -->
<g id="edge137" class="edge">
<title>7&#45;&gt;26</title>
<path fill="none" stroke="green" stroke-width="0.8" d="M1315.99,-509.36C1310.14,-501.57 1301,-489.36 1292.93,-478.59"/>
<polygon fill="green" stroke="green" stroke-width="0.8" points="1295.57,-476.28 1286.77,-470.37 1289.97,-480.48 1295.57,-476.28"/>
</g>
<!-- 7&#45;&gt;37 -->
<g id="edge133" class="edge">
<title>7&#45;&gt;37</title>
<path fill="none" stroke="green" stroke-width="0.8" d="M1332.72,-517.43C1441.62,-517.85 2348.94,-519.9 2615,-473.39 2822.48,-437.11 2942.03,-498.12 3066,-327.85 3105.15,-274.08 2981.22,-249.53 2923.23,-241.19"/>
<polygon fill="green" stroke="green" stroke-width="0.8" points="2923.61,-237.71 2913.23,-239.81 2922.66,-244.64 2923.61,-237.71"/>
</g>
<!-- 8 -->
<g id="node8" class="node">
<title>8</title>
<polygon fill="lightgray" stroke="black" points="2207.5,-318.46 2186.5,-318.46 2186.5,-300.46 2207.5,-300.46 2207.5,-318.46"/>
<text text-anchor="middle" x="2197" y="-307.26" font-family="Times,serif" font-size="9.00">8</text>
</g>
<!-- 8&#45;&gt;31 -->
<g id="edge40" class="edge">
<title>8&#45;&gt;31</title>
<path fill="none" stroke="green" stroke-width="0.8" d="M2200.06,-300.28C2207.32,-282.09 2227.47,-238.31 2260,-218.31 2317.91,-182.7 2527.28,-169.75 2604.84,-166.12"/>
<polygon fill="green" stroke="green" stroke-width="0.8" points="2605.46,-169.59 2615.29,-165.65 2605.14,-162.6 2605.46,-169.59"/>
</g>
<!-- 8&#45;&gt;29 -->
<g id="edge41" class="edge">
<title>8&#45;&gt;29</title>
<path fill="none" stroke="green" stroke-width="0.8" d="M2186.51,-300.29C2181.72,-296.95 2175.82,-293.34 2170,-291.08 2080.9,-256.51 2045.61,-293.26 1958,-255.08 1933.36,-244.34 1935.17,-227.73 1910,-218.31 1755.5,-160.44 1222.67,-162.99 1092.74,-164.51"/>
<polygon fill="green" stroke="green" stroke-width="0.8" points="1092.38,-161.02 1082.43,-164.64 1092.47,-168.02 1092.38,-161.02"/>
</g>
<!-- 8&#45;&gt;36 -->
<g id="edge42" class="edge">
<title>8&#45;&gt;36</title>
<path fill="none" stroke="green" stroke-width="0.8" d="M2186.43,-304.93C2174.02,-300.94 2152.75,-294.53 2134,-291.08 2029.41,-271.84 1698.68,-246.93 1599.43,-239.73"/>
<polygon fill="green" stroke="green" stroke-width="0.8" points="1599.5,-236.22 1589.27,-238.99 1598.99,-243.21 1599.5,-236.22"/>
</g>
<!-- 8&#45;&gt;27 -->
<g id="edge43" class="edge">
<title>8&#45;&gt;27</title>
<path fill="none" stroke="green" stroke-width="0.8" d="M2186.29,-300.79C2181.46,-297.54 2175.59,-293.86 2170,-291.08 2128.46,-270.39 2100.45,-291.73 2072,-255.08 2024.17,-193.46 2034.03,-93.78 2042.36,-46.25"/>
<polygon fill="green" stroke="green" stroke-width="0.8" points="2045.81,-46.88 2044.2,-36.4 2038.93,-45.59 2045.81,-46.88"/>
</g>
<!-- 8&#45;&gt;23 -->
<g id="edge44" class="edge">
<title>8&#45;&gt;23</title>
<path fill="none" stroke="green" stroke-width="0.8" d="M2186.35,-307.89C2072.76,-301.82 1085.09,-248.98 902.84,-239.24"/>
<polygon fill="green" stroke="green" stroke-width="0.8" points="902.87,-235.73 892.7,-238.69 902.5,-242.72 902.87,-235.73"/>
</g>
<!-- 8&#45;&gt;24 -->
<g id="edge45" class="edge">
<title>8&#45;&gt;24</title>
<path fill="none" stroke="green" stroke-width="0.8" d="M2187.4,-300.21C2182.98,-296.84 2177.51,-293.25 2172,-291.08 2066.72,-249.66 2031.04,-276.74 1920,-255.08 1905.74,-252.3 1890.04,-248.47 1877.12,-245.11"/>
<polygon fill="green" stroke="green" stroke-width="0.8" points="1878,-241.72 1867.44,-242.55 1876.21,-248.49 1878,-241.72"/>
</g>
<!-- 8&#45;&gt;32 -->
<g id="edge113" class="edge">
<title>8&#45;&gt;32</title>
<path fill="none" stroke="green" stroke-width="0.8" d="M2197.7,-300.24C2199.4,-283.76 2204.78,-245.89 2220,-218.31 2241.54,-179.29 2251.72,-169.97 2289,-145.54 2326.58,-120.91 2377,-105.81 2407.96,-98.22"/>
<polygon fill="green" stroke="green" stroke-width="0.8" points="2409.11,-101.54 2418.04,-95.84 2407.51,-94.73 2409.11,-101.54"/>
</g>
<!-- 9 -->
<g id="node9" class="node">
<title>9</title>
<polygon fill="lightgray" stroke="black" points="2949.5,-527.39 2928.5,-527.39 2928.5,-509.39 2949.5,-509.39 2949.5,-527.39"/>
<text text-anchor="middle" x="2939" y="-516.19" font-family="Times,serif" font-size="9.00">9</text>
</g>
<!-- 9&#45;&gt;31 -->
<g id="edge46" class="edge">
<title>9&#45;&gt;31</title>
<path fill="none" stroke="green" stroke-width="0.8" d="M2949.65,-516.84C3021.01,-512.87 3427,-485.82 3427,-383.23 3427,-383.23 3427,-383.23 3427,-308.46 3427,-259.83 3407.19,-242.49 3365,-218.31 3268.92,-163.25 2978.44,-190.41 2868,-182.31 2793.87,-176.87 2706.54,-170.35 2662.49,-167.06"/>
<polygon fill="green" stroke="green" stroke-width="0.8" points="2662.74,-163.57 2652.5,-166.31 2662.21,-170.55 2662.74,-163.57"/>
</g>
<!-- 9&#45;&gt;27 -->
<g id="edge47" class="edge">
<title>9&#45;&gt;27</title>
<path fill="none" stroke="green" stroke-width="0.8" d="M2949.76,-517.21C3027.74,-515.68 3503,-501.49 3503,-383.23 3503,-383.23 3503,-383.23 3503,-162.92 3503,-14 2280.23,-17.49 2076.59,-19.11"/>
<polygon fill="green" stroke="green" stroke-width="0.8" points="2076.37,-15.61 2066.4,-19.19 2076.43,-22.61 2076.37,-15.61"/>
</g>
<!-- 9&#45;&gt;23 -->
<g id="edge48" class="edge">
<title>9&#45;&gt;23</title>
<path fill="none" stroke="green" stroke-width="0.8" d="M2928.43,-517.44C2810.8,-517.97 1745.51,-521.39 1433,-473.39 1373.65,-464.27 1362.3,-446.02 1303,-436.62 1252.21,-428.56 413.65,-437.68 378,-400.62 366.33,-388.48 357.45,-314.74 379,-291.08 410.58,-256.39 744.56,-242.14 845.36,-238.61"/>
<polygon fill="green" stroke="green" stroke-width="0.8" points="845.55,-242.11 855.42,-238.27 845.31,-235.11 845.55,-242.11"/>
</g>
<!-- 9&#45;&gt;24 -->
<g id="edge49" class="edge">
<title>9&#45;&gt;24</title>
<path fill="none" stroke="green" stroke-width="0.8" d="M2928.2,-517.51C2853.06,-518.03 2401.22,-516.09 2060,-400.62 1992.83,-377.88 1972.28,-373.48 1918,-327.85 1895.59,-309.01 1876.18,-281.47 1863.9,-261.79"/>
<polygon fill="green" stroke="green" stroke-width="0.8" points="1866.81,-259.82 1858.62,-253.1 1860.82,-263.46 1866.81,-259.82"/>
</g>
<!-- 35 -->
<g id="node36" class="node">
<title>35</title>
<ellipse fill="white" stroke="black" cx="2489" cy="-455" rx="18.27" ry="18.27"/>
<text text-anchor="middle" x="2489" y="-452.8" font-family="Times,serif" font-size="9.00">35</text>
</g>
<!-- 9&#45;&gt;35 -->
<g id="edge146" class="edge">
<title>9&#45;&gt;35</title>
<path fill="none" stroke="green" stroke-width="0.8" d="M2928.22,-517.21C2881.01,-516.22 2688.01,-510.01 2535,-473.39 2528.46,-471.82 2521.59,-469.57 2515.22,-467.21"/>
<polygon fill="green" stroke="green" stroke-width="0.8" points="2516.31,-463.88 2505.72,-463.49 2513.75,-470.4 2516.31,-463.88"/>
</g>
<!-- 9&#45;&gt;37 -->
<g id="edge116" class="edge">
<title>9&#45;&gt;37</title>
<path fill="none" stroke="green" stroke-width="0.8" d="M2949.66,-517.12C2991.77,-515.83 3145.64,-508.73 3175,-473.39 3226.78,-411.06 3226.65,-353.51 3175,-291.08 3143.32,-252.78 2988.95,-241.72 2923.95,-238.73"/>
<polygon fill="green" stroke="green" stroke-width="0.8" points="2923.74,-235.21 2913.6,-238.28 2923.44,-242.21 2923.74,-235.21"/>
</g>
<!-- 10 -->
<g id="node10" class="node">
<title>10</title>
<polygon fill="lightgray" stroke="black" points="1468,-464 1442,-464 1442,-446 1468,-446 1468,-464"/>
<text text-anchor="middle" x="1455" y="-452.8" font-family="Times,serif" font-size="9.00">10</text>
</g>
<!-- 10&#45;&gt;31 -->
<g id="edge50" class="edge">
<title>10&#45;&gt;31</title>
<path fill="none" stroke="green" stroke-width="0.8" d="M1468.14,-450.15C1483,-445.98 1508.01,-439.54 1530,-436.62 1638.67,-422.17 2416.72,-447.11 2516,-400.62 2535.89,-391.31 2530.21,-375.21 2549,-363.85 2604.71,-330.16 2651.02,-379.23 2691,-327.85 2699.86,-316.47 2698.32,-243.78 2687,-218.31 2680.57,-203.85 2668.36,-191.13 2657.28,-181.73"/>
<polygon fill="green" stroke="green" stroke-width="0.8" points="2659.14,-178.73 2649.14,-175.22 2654.76,-184.2 2659.14,-178.73"/>
</g>
<!-- 10&#45;&gt;29 -->
<g id="edge51" class="edge">
<title>10&#45;&gt;29</title>
<path fill="none" stroke="green" stroke-width="0.8" d="M1441.93,-450.46C1426.02,-446.31 1398.26,-439.64 1374,-436.62 1154.22,-409.27 590.86,-461.81 378,-400.62 315.85,-382.75 284.33,-383.85 252,-327.85 195.05,-229.2 360.42,-230.07 404,-218.31 526.04,-185.37 925.5,-169.63 1035.65,-165.84"/>
<polygon fill="green" stroke="green" stroke-width="0.8" points="1035.79,-169.34 1045.67,-165.5 1035.56,-162.34 1035.79,-169.34"/>
</g>
<!-- 10&#45;&gt;36 -->
<g id="edge52" class="edge">
<title>10&#45;&gt;36</title>
<path fill="none" stroke="green" stroke-width="0.8" d="M1455.28,-445.76C1456.5,-420.42 1463.05,-342.31 1498,-291.08 1509.98,-273.51 1529.72,-259.59 1545.65,-250.38"/>
<polygon fill="green" stroke="green" stroke-width="0.8" points="1547.43,-253.39 1554.5,-245.5 1544.05,-247.26 1547.43,-253.39"/>
</g>
<!-- 10&#45;&gt;27 -->
<g id="edge53" class="edge">
<title>10&#45;&gt;27</title>
<path fill="none" stroke="green" stroke-width="0.8" d="M1441.61,-452.11C1415.18,-448.46 1354.39,-440.45 1303,-436.62 1189.25,-428.13 384.92,-437.58 277,-400.62 212.2,-378.42 152,-378.96 152,-310.46 152,-310.46 152,-310.46 152,-162.92 152,9.79 358.85,-95.95 530,-72.77 833.46,-31.66 1835.76,-21.2 2019.08,-19.62"/>
<polygon fill="green" stroke="green" stroke-width="0.8" points="2019.3,-23.11 2029.27,-19.53 2019.24,-16.12 2019.3,-23.11"/>
</g>
<!-- 10&#45;&gt;23 -->
<g id="edge54" class="edge">
<title>10&#45;&gt;23</title>
<path fill="none" stroke="green" stroke-width="0.8" d="M1441.93,-450.46C1426.02,-446.32 1398.26,-439.65 1374,-436.62 1320.49,-429.93 441.42,-439.45 404,-400.62 370.22,-365.56 371.58,-327.39 404,-291.08 433.55,-257.98 748.26,-242.71 845.52,-238.77"/>
<polygon fill="green" stroke="green" stroke-width="0.8" points="845.67,-242.26 855.52,-238.37 845.39,-235.27 845.67,-242.26"/>
</g>
<!-- 10&#45;&gt;24 -->
<g id="edge55" class="edge">
<title>10&#45;&gt;24</title>
<path fill="none" stroke="green" stroke-width="0.8" d="M1468,-446.01C1484.36,-435.84 1513.2,-417.57 1537,-400.62 1601.64,-354.59 1607.64,-327.77 1678,-291.08 1725.74,-266.18 1787.07,-250.63 1822.11,-243.11"/>
<polygon fill="green" stroke="green" stroke-width="0.8" points="1823.02,-246.49 1832.1,-241.03 1821.6,-239.64 1823.02,-246.49"/>
</g>
<!-- 10&#45;&gt;19 -->
<g id="edge129" class="edge">
<title>10&#45;&gt;19</title>
<path fill="none" stroke="green" stroke-width="0.8" d="M1468.14,-450.15C1483,-445.97 1508,-439.53 1530,-436.62 1754.63,-406.9 2328.42,-452.43 2549,-400.62 2587.49,-391.58 2592.62,-376.72 2630,-363.85 2694.42,-341.67 2730.27,-375.46 2779,-327.85 2795.6,-311.63 2801.13,-285.33 2802.79,-265.31"/>
<polygon fill="green" stroke="green" stroke-width="0.8" points="2806.29,-265.4 2803.35,-255.22 2799.3,-265.02 2806.29,-265.4"/>
</g>
<!-- 10&#45;&gt;22 -->
<g id="edge108" class="edge">
<title>10&#45;&gt;22</title>
<path fill="none" stroke="green" stroke-width="0.8" d="M1468.13,-450.14C1483,-445.96 1508,-439.51 1530,-436.62 1996.03,-375.26 2121.47,-465.62 2587,-400.62 2601.38,-398.61 2617.11,-394.85 2630,-391.34"/>
<polygon fill="green" stroke="green" stroke-width="0.8" points="2630.98,-394.7 2639.65,-388.62 2629.08,-387.97 2630.98,-394.7"/>
</g>
<!-- 11 -->
<g id="node11" class="node">
<title>11</title>
<polygon fill="lightgray" stroke="black" points="2570,-464 2544,-464 2544,-446 2570,-446 2570,-464"/>
<text text-anchor="middle" x="2557" y="-452.8" font-family="Times,serif" font-size="9.00">11</text>
</g>
<!-- 11&#45;&gt;31 -->
<g id="edge56" class="edge">
<title>11&#45;&gt;31</title>
<path fill="none" stroke="green" stroke-width="0.8" d="M2570.03,-453.83C2652.28,-452.6 3097.43,-443.99 3137,-400.62 3191.61,-340.76 3191.19,-278.55 3137,-218.31 3120.98,-200.49 2766.6,-174.25 2662.51,-166.9"/>
<polygon fill="green" stroke="green" stroke-width="0.8" points="2662.64,-163.4 2652.42,-166.19 2662.15,-170.38 2662.64,-163.4"/>
</g>
<!-- 11&#45;&gt;29 -->
<g id="edge57" class="edge">
<title>11&#45;&gt;29</title>
<path fill="none" stroke="green" stroke-width="0.8" d="M2543.76,-446.86C2535.93,-443.03 2525.68,-438.69 2516,-436.62 2127.15,-353.5 1114.54,-489.67 727,-400.62 651.65,-383.3 610.69,-392.95 569,-327.85 542.75,-286.85 536.47,-254.53 569,-218.31 600.34,-183.4 934.49,-169.31 1035.34,-165.83"/>
<polygon fill="green" stroke="green" stroke-width="0.8" points="1035.53,-169.33 1045.41,-165.49 1035.3,-162.33 1035.53,-169.33"/>
</g>
<!-- 11&#45;&gt;36 -->
<g id="edge58" class="edge">
<title>11&#45;&gt;36</title>
<path fill="none" stroke="green" stroke-width="0.8" d="M2543.73,-446.98C2535.89,-443.19 2525.64,-438.84 2516,-436.62 2218.07,-367.9 2120.38,-493.25 1829,-400.62 1731.23,-369.54 1633.74,-292.24 1592.05,-256.44"/>
<polygon fill="green" stroke="green" stroke-width="0.8" points="1594.1,-253.58 1584.25,-249.66 1589.5,-258.86 1594.1,-253.58"/>
</g>
<!-- 11&#45;&gt;23 -->
<g id="edge59" class="edge">
<title>11&#45;&gt;23</title>
<path fill="none" stroke="green" stroke-width="0.8" d="M2543.76,-446.87C2535.92,-443.05 2525.67,-438.7 2516,-436.62 2173.09,-362.84 1284.42,-455.62 938,-400.62 827.08,-383.01 763.01,-417.98 696,-327.85 654.76,-272.38 785.93,-248.61 845.81,-240.82"/>
<polygon fill="green" stroke="green" stroke-width="0.8" points="846.28,-244.29 855.77,-239.59 845.42,-237.34 846.28,-244.29"/>
</g>
<!-- 11&#45;&gt;24 -->
<g id="edge60" class="edge">
<title>11&#45;&gt;24</title>
<path fill="none" stroke="green" stroke-width="0.8" d="M2543.68,-447.2C2535.82,-443.48 2525.57,-439.14 2516,-436.62 2379.3,-400.66 2338.01,-431.16 2200,-400.62 2100.27,-378.55 2073.5,-373.26 1982,-327.85 1940.64,-307.32 1897.28,-275.39 1872,-255.56"/>
<polygon fill="green" stroke="green" stroke-width="0.8" points="1873.85,-252.56 1863.84,-249.08 1869.5,-258.04 1873.85,-252.56"/>
</g>
<!-- 11&#45;&gt;22 -->
<g id="edge126" class="edge">
<title>11&#45;&gt;22</title>
<path fill="none" stroke="green" stroke-width="0.8" d="M2568.47,-445.88C2584.45,-434.57 2613.76,-413.84 2634.26,-399.33"/>
<polygon fill="green" stroke="green" stroke-width="0.8" points="2636.3,-402.17 2642.44,-393.54 2632.25,-396.46 2636.3,-402.17"/>
</g>
<!-- 11&#45;&gt;30 -->
<g id="edge104" class="edge">
<title>11&#45;&gt;30</title>
<path fill="none" stroke="green" stroke-width="0.8" d="M2558.76,-445.87C2563.17,-425.43 2574.9,-371.14 2582.09,-337.84"/>
<polygon fill="green" stroke="green" stroke-width="0.8" points="2585.56,-338.35 2584.25,-327.84 2578.72,-336.87 2585.56,-338.35"/>
</g>
<!-- 11&#45;&gt;32 -->
<g id="edge111" class="edge">
<title>11&#45;&gt;32</title>
<path fill="none" stroke="green" stroke-width="0.8" d="M2570.21,-453.79C2648.28,-452.41 3049.65,-443.3 3164,-400.62 3276.99,-358.45 3443.06,-310.24 3365,-218.31 3304.94,-147.58 2614.71,-102.75 2464.67,-93.81"/>
<polygon fill="green" stroke="green" stroke-width="0.8" points="2464.63,-90.3 2454.44,-93.2 2464.21,-97.29 2464.63,-90.3"/>
</g>
<!-- 12 -->
<g id="node12" class="node">
<title>12</title>
<polygon fill="lightgray" stroke="black" points="1864,-391.23 1838,-391.23 1838,-373.23 1864,-373.23 1864,-391.23"/>
<text text-anchor="middle" x="1851" y="-380.03" font-family="Times,serif" font-size="9.00">12</text>
</g>
<!-- 12&#45;&gt;31 -->
<g id="edge61" class="edge">
<title>12&#45;&gt;31</title>
<path fill="none" stroke="green" stroke-width="0.8" d="M1864.15,-380.5C1946.21,-375.84 2386.5,-349.99 2442,-327.85 2490.42,-308.53 2494.17,-288.72 2534,-255.08 2537.98,-251.71 2584.97,-209.26 2613.1,-183.83"/>
<polygon fill="green" stroke="green" stroke-width="0.8" points="2615.75,-186.15 2620.82,-176.85 2611.05,-180.96 2615.75,-186.15"/>
</g>
<!-- 12&#45;&gt;29 -->
<g id="edge62" class="edge">
<title>12&#45;&gt;29</title>
<path fill="none" stroke="green" stroke-width="0.8" d="M1837.84,-380.49C1794.7,-378.05 1653.67,-370.12 1537,-363.85 1498.67,-361.79 873.43,-355.69 847,-327.85 813.48,-292.54 816.97,-256.63 847,-218.31 870.12,-188.81 981.93,-173.43 1035.4,-167.66"/>
<polygon fill="green" stroke="green" stroke-width="0.8" points="1035.99,-171.12 1045.57,-166.6 1035.26,-164.16 1035.99,-171.12"/>
</g>
<!-- 12&#45;&gt;36 -->
<g id="edge63" class="edge">
<title>12&#45;&gt;36</title>
<path fill="none" stroke="green" stroke-width="0.8" d="M1840.68,-373.09C1818.75,-356.07 1765.48,-316.26 1716,-291.08 1676.65,-271.05 1627.96,-254.71 1598.21,-245.59"/>
<polygon fill="green" stroke="green" stroke-width="0.8" points="1599.1,-242.21 1588.52,-242.67 1597.08,-248.91 1599.1,-242.21"/>
</g>
<!-- 12&#45;&gt;27 -->
<g id="edge64" class="edge">
<title>12&#45;&gt;27</title>
<path fill="none" stroke="green" stroke-width="0.8" d="M1864.16,-380.76C1929.09,-378.26 2215.43,-365.25 2295,-327.85 2347.68,-303.08 2390,-295.9 2390,-237.69 2390,-237.69 2390,-237.69 2390,-162.92 2390,-27.35 2158.66,-17.69 2076.52,-18.53"/>
<polygon fill="green" stroke="green" stroke-width="0.8" points="2076.33,-15.03 2066.39,-18.7 2076.44,-22.03 2076.33,-15.03"/>
</g>
<!-- 12&#45;&gt;23 -->
<g id="edge65" class="edge">
<title>12&#45;&gt;23</title>
<path fill="none" stroke="green" stroke-width="0.8" d="M1837.84,-380.49C1794.7,-378.07 1653.67,-370.18 1537,-363.85 1499.39,-361.81 885.92,-355.18 860,-327.85 843.61,-310.56 851.31,-282.47 860.45,-262.24"/>
<polygon fill="green" stroke="green" stroke-width="0.8" points="863.71,-263.54 864.95,-253.02 857.42,-260.47 863.71,-263.54"/>
</g>
<!-- 12&#45;&gt;24 -->
<g id="edge66" class="edge">
<title>12&#45;&gt;24</title>
<path fill="none" stroke="green" stroke-width="0.8" d="M1850.94,-373.1C1850.8,-352.77 1850.43,-298.94 1850.19,-265.6"/>
<polygon fill="green" stroke="green" stroke-width="0.8" points="1853.69,-265.54 1850.12,-255.56 1846.69,-265.58 1853.69,-265.54"/>
</g>
<!-- 12&#45;&gt;20 -->
<g id="edge135" class="edge">
<title>12&#45;&gt;20</title>
<path fill="none" stroke="green" stroke-width="0.8" d="M1864.2,-380.49C1962.5,-374.95 2577.76,-339.89 2615,-327.85 2616.46,-327.37 2617.93,-326.81 2619.38,-326.18"/>
<polygon fill="green" stroke="green" stroke-width="0.8" points="2621.38,-329.08 2628.55,-321.28 2618.08,-322.9 2621.38,-329.08"/>
</g>
<!-- 13 -->
<g id="node13" class="node">
<title>13</title>
<polygon fill="lightgray" stroke="black" points="1158,-318.46 1132,-318.46 1132,-300.46 1158,-300.46 1158,-318.46"/>
<text text-anchor="middle" x="1145" y="-307.26" font-family="Times,serif" font-size="9.00">13</text>
</g>
<!-- 13&#45;&gt;31 -->
<g id="edge67" class="edge">
<title>13&#45;&gt;31</title>
<path fill="none" stroke="green" stroke-width="0.8" d="M1153.38,-300.39C1157.26,-297.06 1162.08,-293.43 1167,-291.08 1183.34,-283.25 1467.04,-220.76 1485,-218.31 1711.31,-187.41 2450.65,-169.1 2605.43,-165.56"/>
<polygon fill="green" stroke="green" stroke-width="0.8" points="2605.63,-169.06 2615.55,-165.33 2605.47,-162.06 2605.63,-169.06"/>
</g>
<!-- 13&#45;&gt;29 -->
<g id="edge68" class="edge">
<title>13&#45;&gt;29</title>
<path fill="none" stroke="green" stroke-width="0.8" d="M1141.08,-300.38C1133.29,-284.44 1115.13,-247.96 1098,-218.31 1092.23,-208.32 1085.47,-197.54 1079.51,-188.31"/>
<polygon fill="green" stroke="green" stroke-width="0.8" points="1082.27,-186.13 1073.88,-179.67 1076.41,-189.96 1082.27,-186.13"/>
</g>
<!-- 13&#45;&gt;36 -->
<g id="edge69" class="edge">
<title>13&#45;&gt;36</title>
<path fill="none" stroke="green" stroke-width="0.8" d="M1153.29,-300.16C1157.14,-296.79 1161.98,-293.2 1167,-291.08 1184.38,-283.73 1453.39,-251.55 1542.54,-241.03"/>
<polygon fill="green" stroke="green" stroke-width="0.8" points="1543.21,-244.48 1552.73,-239.83 1542.39,-237.53 1543.21,-244.48"/>
</g>
<!-- 13&#45;&gt;27 -->
<g id="edge70" class="edge">
<title>13&#45;&gt;27</title>
<path fill="none" stroke="green" stroke-width="0.8" d="M1154.54,-300.22C1158.29,-297.17 1162.73,-293.79 1167,-291.08 1228.21,-252.22 1245.95,-245.89 1313,-218.31 1507.01,-138.51 1558.58,-124.01 1762,-72.77 1855.29,-49.27 1968.06,-31.19 2019.7,-23.47"/>
<polygon fill="green" stroke="green" stroke-width="0.8" points="2020.38,-26.91 2029.76,-21.98 2019.36,-19.98 2020.38,-26.91"/>
</g>
<!-- 13&#45;&gt;23 -->
<g id="edge71" class="edge">
<title>13&#45;&gt;23</title>
<path fill="none" stroke="green" stroke-width="0.8" d="M1136.19,-300.37C1132.14,-297.03 1127.1,-293.41 1122,-291.08 1047.34,-256.87 949.86,-244.17 902.42,-239.8"/>
<polygon fill="green" stroke="green" stroke-width="0.8" points="902.54,-236.3 892.28,-238.92 901.94,-243.27 902.54,-236.3"/>
</g>
<!-- 13&#45;&gt;24 -->
<g id="edge72" class="edge">
<title>13&#45;&gt;24</title>
<path fill="none" stroke="green" stroke-width="0.8" d="M1152.82,-300.4C1156.73,-296.9 1161.74,-293.14 1167,-291.08 1182.5,-285.01 1693.67,-248.7 1821.33,-239.71"/>
<polygon fill="green" stroke="green" stroke-width="0.8" points="1821.77,-243.18 1831.49,-238.99 1821.27,-236.2 1821.77,-243.18"/>
</g>
<!-- 14 -->
<g id="node14" class="node">
<title>14</title>
<polygon fill="lightgray" stroke="black" points="2235,-391.23 2209,-391.23 2209,-373.23 2235,-373.23 2235,-391.23"/>
<text text-anchor="middle" x="2222" y="-380.03" font-family="Times,serif" font-size="9.00">14</text>
</g>
<!-- 14&#45;&gt;31 -->
<g id="edge73" class="edge">
<title>14&#45;&gt;31</title>
<path fill="none" stroke="green" stroke-width="0.8" d="M2235.02,-380.16C2285.67,-375.79 2469.19,-358.14 2518,-327.85 2545.85,-310.56 2595.71,-230.16 2619.97,-189.14"/>
<polygon fill="green" stroke="green" stroke-width="0.8" points="2623.11,-190.71 2625.15,-180.32 2617.07,-187.17 2623.11,-190.71"/>
</g>
<!-- 14&#45;&gt;29 -->
<g id="edge74" class="edge">
<title>14&#45;&gt;29</title>
<path fill="none" stroke="green" stroke-width="0.8" d="M2208.96,-374.85C2177.14,-359.38 2092.74,-319.13 2020,-291.08 1972,-272.57 1953.09,-283.18 1910,-255.08 1891.61,-243.08 1896.75,-227.91 1877,-218.31 1805.24,-183.42 1228.38,-168.56 1092.56,-165.53"/>
<polygon fill="green" stroke="green" stroke-width="0.8" points="1092.59,-162.03 1082.52,-165.31 1092.44,-169.02 1092.59,-162.03"/>
</g>
<!-- 14&#45;&gt;36 -->
<g id="edge75" class="edge">
<title>14&#45;&gt;36</title>
<path fill="none" stroke="green" stroke-width="0.8" d="M2208.8,-379.33C2166.19,-373.1 2028.5,-352.32 1916,-327.85 1796.69,-301.9 1656.45,-262.42 1598.34,-245.66"/>
<polygon fill="green" stroke="green" stroke-width="0.8" points="1599.05,-242.23 1588.47,-242.81 1597.1,-248.95 1599.05,-242.23"/>
</g>
<!-- 14&#45;&gt;27 -->
<g id="edge76" class="edge">
<title>14&#45;&gt;27</title>
<path fill="none" stroke="green" stroke-width="0.8" d="M2235.15,-380.06C2319.12,-372.6 2777.13,-331.77 2791,-327.85 2861.54,-307.93 2900.26,-317.3 2939,-255.08 2947.64,-241.21 2940.87,-234.54 2939,-218.31 2935.2,-185.31 2946.19,-168.3 2922,-145.54 2796.04,-27 2213.14,-19.42 2076.65,-19.29"/>
<polygon fill="green" stroke="green" stroke-width="0.8" points="2076.56,-15.79 2066.56,-19.29 2076.56,-22.79 2076.56,-15.79"/>
</g>
<!-- 14&#45;&gt;23 -->
<g id="edge77" class="edge">
<title>14&#45;&gt;23</title>
<path fill="none" stroke="green" stroke-width="0.8" d="M2208.69,-380.51C2162.37,-378 2003.91,-369.53 1873,-363.85 1818.85,-361.5 940.36,-361.67 898,-327.85 879.57,-313.13 874.34,-285.99 873.26,-265.32"/>
<polygon fill="green" stroke="green" stroke-width="0.8" points="876.75,-265.11 873.02,-255.2 869.76,-265.27 876.75,-265.11"/>
</g>
<!-- 14&#45;&gt;24 -->
<g id="edge78" class="edge">
<title>14&#45;&gt;24</title>
<path fill="none" stroke="green" stroke-width="0.8" d="M2208.8,-379.34C2176.76,-374.39 2092.86,-359.18 2030,-327.85 2005.95,-315.86 2005.59,-303.95 1982,-291.08 1940.54,-268.45 1925.1,-274.41 1882,-255.08 1879.63,-254.01 1877.19,-252.84 1874.77,-251.63"/>
<polygon fill="green" stroke="green" stroke-width="0.8" points="1876.19,-248.42 1865.71,-246.85 1872.92,-254.61 1876.19,-248.42"/>
</g>
<!-- 25 -->
<g id="node29" class="node">
<title>25</title>
<ellipse fill="white" stroke="black" cx="2895" cy="-163.92" rx="18.27" ry="18.27"/>
<text text-anchor="middle" x="2895" y="-161.72" font-family="Times,serif" font-size="9.00">25</text>
</g>
<!-- 14&#45;&gt;25 -->
<g id="edge130" class="edge">
<title>14&#45;&gt;25</title>
<path fill="none" stroke="green" stroke-width="0.8" d="M2235.01,-379.97C2299.26,-373.7 2583.06,-345.46 2670,-327.85 2784.26,-304.7 2851.93,-348.25 2922,-255.08 2937.07,-235.04 2924.37,-206.62 2911.77,-187.07"/>
<polygon fill="green" stroke="green" stroke-width="0.8" points="2914.63,-185.05 2906.09,-178.78 2908.85,-189.01 2914.63,-185.05"/>
</g>
<!-- 14&#45;&gt;30 -->
<g id="edge140" class="edge">
<title>14&#45;&gt;30</title>
<path fill="none" stroke="green" stroke-width="0.8" d="M2235.12,-380.72C2280.7,-378.63 2435.93,-368.72 2556,-327.85 2558.6,-326.96 2561.25,-325.87 2563.84,-324.68"/>
<polygon fill="green" stroke="green" stroke-width="0.8" points="2565.56,-327.73 2572.86,-320.06 2562.36,-321.5 2565.56,-327.73"/>
</g>
<!-- 15 -->
<g id="node15" class="node">
<title>15</title>
<polygon fill="lightgray" stroke="black" points="973,-391.23 947,-391.23 947,-373.23 973,-373.23 973,-391.23"/>
<text text-anchor="middle" x="960" y="-380.03" font-family="Times,serif" font-size="9.00">15</text>
</g>
<!-- 15&#45;&gt;31 -->
<g id="edge79" class="edge">
<title>15&#45;&gt;31</title>
<path fill="none" stroke="green" stroke-width="0.8" d="M973.11,-380.36C1014.84,-377.61 1148.36,-368.99 1259,-363.85 1316.53,-361.18 2244.28,-355.12 2295,-327.85 2321.32,-313.7 2347.95,-234.61 2373,-218.31 2446.5,-170.48 2554.28,-164.22 2605.26,-164.18"/>
<polygon fill="green" stroke="green" stroke-width="0.8" points="2605.5,-167.68 2615.52,-164.26 2605.55,-160.68 2605.5,-167.68"/>
</g>
<!-- 15&#45;&gt;29 -->
<g id="edge80" class="edge">
<title>15&#45;&gt;29</title>
<path fill="none" stroke="green" stroke-width="0.8" d="M946.88,-381.48C887.07,-382.32 641.15,-382.37 594,-327.85 562.16,-291.02 561.58,-254.62 594,-218.31 623.55,-185.21 938.26,-169.95 1035.52,-166"/>
<polygon fill="green" stroke="green" stroke-width="0.8" points="1035.67,-169.49 1045.52,-165.6 1035.39,-162.5 1035.67,-169.49"/>
</g>
<!-- 15&#45;&gt;27 -->
<g id="edge81" class="edge">
<title>15&#45;&gt;27</title>
<path fill="none" stroke="green" stroke-width="0.8" d="M946.73,-381.33C883.84,-381.51 616.27,-379.23 555,-327.85 467.84,-254.75 480.13,-133.99 576,-72.77 639.13,-32.46 1819.87,-21.22 2019.46,-19.6"/>
<polygon fill="green" stroke="green" stroke-width="0.8" points="2019.49,-23.1 2029.47,-19.52 2019.44,-16.1 2019.49,-23.1"/>
</g>
<!-- 15&#45;&gt;23 -->
<g id="edge82" class="edge">
<title>15&#45;&gt;23</title>
<path fill="none" stroke="green" stroke-width="0.8" d="M946.69,-380.54C899.11,-377.75 738.62,-365.63 708,-327.85 667.18,-277.48 788.4,-251.14 845.74,-241.75"/>
<polygon fill="green" stroke="green" stroke-width="0.8" points="846.31,-245.21 855.65,-240.2 845.22,-238.29 846.31,-245.21"/>
</g>
<!-- 15&#45;&gt;24 -->
<g id="edge83" class="edge">
<title>15&#45;&gt;24</title>
<path fill="none" stroke="green" stroke-width="0.8" d="M973.12,-379.15C1015.48,-372.36 1152.41,-350.09 1265,-327.85 1339.56,-313.12 1357.12,-304.08 1432,-291.08 1577.44,-265.83 1753.28,-247.22 1821.25,-240.47"/>
<polygon fill="green" stroke="green" stroke-width="0.8" points="1821.97,-243.91 1831.58,-239.45 1821.28,-236.95 1821.97,-243.91"/>
</g>
<!-- 21 -->
<g id="node27" class="node">
<title>21</title>
<ellipse fill="white" stroke="black" cx="1238" cy="-309.46" rx="18.27" ry="18.27"/>
<text text-anchor="middle" x="1238" y="-307.26" font-family="Times,serif" font-size="9.00">21</text>
</g>
<!-- 15&#45;&gt;21 -->
<g id="edge141" class="edge">
<title>15&#45;&gt;21</title>
<path fill="none" stroke="green" stroke-width="0.8" d="M973.02,-380.13C1011.01,-376.58 1124.5,-363.49 1211,-327.85 1212.22,-327.35 1213.44,-326.79 1214.66,-326.19"/>
<polygon fill="green" stroke="green" stroke-width="0.8" points="1216.73,-329.04 1223.68,-321.04 1213.26,-322.96 1216.73,-329.04"/>
</g>
<!-- 16 -->
<g id="node16" class="node">
<title>16</title>
<polygon fill="lightgray" stroke="black" points="1294,-391.23 1268,-391.23 1268,-373.23 1294,-373.23 1294,-391.23"/>
<text text-anchor="middle" x="1281" y="-380.03" font-family="Times,serif" font-size="9.00">16</text>
</g>
<!-- 16&#45;&gt;31 -->
<g id="edge84" class="edge">
<title>16&#45;&gt;31</title>
<path fill="none" stroke="green" stroke-width="0.8" d="M1294.38,-379.95C1327.83,-376.8 1417.81,-368.55 1493,-363.85 1585.68,-358.05 2246,-371.44 2328,-327.85 2381.46,-299.43 2358.47,-251.67 2409,-218.31 2470.72,-177.56 2560.14,-167.81 2605.42,-165.55"/>
<polygon fill="green" stroke="green" stroke-width="0.8" points="2605.57,-169.05 2615.42,-165.14 2605.28,-162.05 2605.57,-169.05"/>
</g>
<!-- 16&#45;&gt;29 -->
<g id="edge85" class="edge">
<title>16&#45;&gt;29</title>
<path fill="none" stroke="green" stroke-width="0.8" d="M1267.98,-380.41C1177.31,-374.62 643.21,-340.02 632,-327.85 599.02,-292.04 599.76,-254.78 632,-218.31 658.81,-187.98 943.43,-171.02 1035.47,-166.3"/>
<polygon fill="green" stroke="green" stroke-width="0.8" points="1035.89,-169.78 1045.71,-165.78 1035.54,-162.79 1035.89,-169.78"/>
</g>
<!-- 16&#45;&gt;36 -->
<g id="edge86" class="edge">
<title>16&#45;&gt;36</title>
<path fill="none" stroke="green" stroke-width="0.8" d="M1280.78,-373C1280.79,-355.09 1283.52,-312.48 1308,-291.08 1384.89,-223.83 1437.52,-285.61 1535,-255.08 1538.66,-253.93 1542.42,-252.47 1546.06,-250.88"/>
<polygon fill="green" stroke="green" stroke-width="0.8" points="1547.74,-253.96 1555.28,-246.52 1544.75,-247.63 1547.74,-253.96"/>
</g>
<!-- 16&#45;&gt;27 -->
<g id="edge87" class="edge">
<title>16&#45;&gt;27</title>
<path fill="none" stroke="green" stroke-width="0.8" d="M1267.94,-380.4C1174.51,-374.43 611.19,-338.04 597,-327.85 529.55,-279.39 520.42,-220.58 556,-145.54 577.89,-99.37 597.21,-90.85 645,-72.77 777.72,-22.55 1829.83,-19.52 2018.94,-19.38"/>
<polygon fill="green" stroke="green" stroke-width="0.8" points="2019.2,-22.88 2029.2,-19.38 2019.2,-15.88 2019.2,-22.88"/>
</g>
<!-- 16&#45;&gt;23 -->
<g id="edge88" class="edge">
<title>16&#45;&gt;23</title>
<path fill="none" stroke="green" stroke-width="0.8" d="M1267.69,-380.3C1190.25,-374.83 800.71,-346.45 784,-327.85 773.08,-315.69 775.91,-305.28 784,-291.08 797.35,-267.64 825.49,-253.43 846.77,-245.63"/>
<polygon fill="green" stroke="green" stroke-width="0.8" points="847.94,-248.93 856.28,-242.39 845.69,-242.3 847.94,-248.93"/>
</g>
<!-- 16&#45;&gt;24 -->
<g id="edge89" class="edge">
<title>16&#45;&gt;24</title>
<path fill="none" stroke="green" stroke-width="0.8" d="M1294.13,-376.29C1333.65,-361.54 1455.2,-317.31 1559,-291.08 1654.08,-267.05 1769.19,-249.17 1821.58,-241.63"/>
<polygon fill="green" stroke="green" stroke-width="0.8" points="1822.36,-245.05 1831.77,-240.18 1821.38,-238.12 1822.36,-245.05"/>
</g>
<!-- 16&#45;&gt;30 -->
<g id="edge115" class="edge">
<title>16&#45;&gt;30</title>
<path fill="none" stroke="green" stroke-width="0.8" d="M1294.38,-379.95C1327.83,-376.77 1417.81,-368.48 1493,-363.85 1880.6,-339.97 1978.36,-351.01 2366,-327.85 2435.58,-323.69 2517.27,-316.77 2559.5,-313.03"/>
<polygon fill="green" stroke="green" stroke-width="0.8" points="2559.95,-316.51 2569.6,-312.14 2559.33,-309.54 2559.95,-316.51"/>
</g>
<!-- 17 -->
<g id="node17" class="node">
<title>17</title>
<polygon fill="lightgray" stroke="black" points="1202,-318.46 1176,-318.46 1176,-300.46 1202,-300.46 1202,-318.46"/>
<text text-anchor="middle" x="1189" y="-307.26" font-family="Times,serif" font-size="9.00">17</text>
</g>
<!-- 17&#45;&gt;31 -->
<g id="edge90" class="edge">
<title>17&#45;&gt;31</title>
<path fill="none" stroke="green" stroke-width="0.8" d="M1197.28,-300.16C1201.14,-296.79 1205.98,-293.2 1211,-291.08 1325.81,-242.7 1372.36,-298.85 1489,-255.08 1516.53,-244.75 1516.08,-227.53 1544,-218.31 1647.32,-184.17 2442.92,-168.31 2605.17,-165.42"/>
<polygon fill="green" stroke="green" stroke-width="0.8" points="2605.4,-168.91 2615.33,-165.24 2605.27,-161.91 2605.4,-168.91"/>
</g>
<!-- 17&#45;&gt;29 -->
<g id="edge91" class="edge">
<title>17&#45;&gt;29</title>
<path fill="none" stroke="green" stroke-width="0.8" d="M1183.86,-300.33C1173.36,-284.01 1148.33,-246.4 1123,-218.31 1111.54,-205.59 1097.35,-192.68 1085.76,-182.74"/>
<polygon fill="green" stroke="green" stroke-width="0.8" points="1087.75,-179.84 1077.85,-176.07 1083.24,-185.19 1087.75,-179.84"/>
</g>
<!-- 17&#45;&gt;36 -->
<g id="edge92" class="edge">
<title>17&#45;&gt;36</title>
<path fill="none" stroke="green" stroke-width="0.8" d="M1197.26,-300.12C1201.12,-296.74 1205.96,-293.15 1211,-291.08 1345.02,-236.03 1395.77,-295.16 1535,-255.08 1538.69,-254.02 1542.46,-252.6 1546.1,-251.04"/>
<polygon fill="green" stroke="green" stroke-width="0.8" points="1547.78,-254.12 1555.33,-246.69 1544.8,-247.79 1547.78,-254.12"/>
</g>
<!-- 17&#45;&gt;27 -->
<g id="edge93" class="edge">
<title>17&#45;&gt;27</title>
<path fill="none" stroke="green" stroke-width="0.8" d="M1197.91,-300.24C1201.72,-297.04 1206.36,-293.56 1211,-291.08 1249.32,-270.57 1880.94,-71.82 2020.74,-27.93"/>
<polygon fill="green" stroke="green" stroke-width="0.8" points="2022.16,-31.16 2030.65,-24.82 2020.06,-24.48 2022.16,-31.16"/>
</g>
<!-- 17&#45;&gt;23 -->
<g id="edge94" class="edge">
<title>17&#45;&gt;23</title>
<path fill="none" stroke="green" stroke-width="0.8" d="M1180.66,-300.28C1176.8,-296.93 1171.97,-293.32 1167,-291.08 1076.42,-250.14 956.64,-240.58 902.6,-238.36"/>
<polygon fill="green" stroke="green" stroke-width="0.8" points="902.52,-234.85 892.4,-238 902.27,-241.85 902.52,-234.85"/>
</g>
<!-- 17&#45;&gt;24 -->
<g id="edge95" class="edge">
<title>17&#45;&gt;24</title>
<path fill="none" stroke="green" stroke-width="0.8" d="M1196.83,-300.41C1200.74,-296.92 1205.75,-293.15 1211,-291.08 1239.77,-279.72 1700.45,-247.83 1821.21,-239.63"/>
<polygon fill="green" stroke="green" stroke-width="0.8" points="1821.76,-243.1 1831.5,-238.94 1821.29,-236.12 1821.76,-243.1"/>
</g>
<!-- 18 -->
<g id="node18" class="node">
<title>18</title>
<polygon fill="lightgray" stroke="black" points="1528,-391.23 1502,-391.23 1502,-373.23 1528,-373.23 1528,-391.23"/>
<text text-anchor="middle" x="1515" y="-380.03" font-family="Times,serif" font-size="9.00">18</text>
</g>
<!-- 18&#45;&gt;31 -->
<g id="edge96" class="edge">
<title>18&#45;&gt;31</title>
<path fill="none" stroke="green" stroke-width="0.8" d="M1528.02,-380.51C1633.54,-374.63 2345.19,-334.75 2366,-327.85 2450.6,-299.79 2457.28,-263.68 2534,-218.31 2559.01,-203.52 2588.42,-188.04 2608.85,-177.58"/>
<polygon fill="green" stroke="green" stroke-width="0.8" points="2610.5,-180.66 2617.83,-173.01 2607.33,-174.42 2610.5,-180.66"/>
</g>
<!-- 18&#45;&gt;29 -->
<g id="edge97" class="edge">
<title>18&#45;&gt;29</title>
<path fill="none" stroke="green" stroke-width="0.8" d="M1501.61,-380.05C1468.15,-377.12 1378.13,-369.36 1303,-363.85 1241.15,-359.31 788.42,-373.09 746,-327.85 712.7,-292.33 714.55,-255.47 746,-218.31 783.06,-174.51 964.65,-166.62 1035.56,-165.22"/>
<polygon fill="green" stroke="green" stroke-width="0.8" points="1035.63,-168.72 1045.57,-165.05 1035.51,-161.72 1035.63,-168.72"/>
</g>
<!-- 18&#45;&gt;36 -->
<g id="edge98" class="edge">
<title>18&#45;&gt;36</title>
<path fill="none" stroke="green" stroke-width="0.8" d="M1515.94,-372.97C1518,-356.73 1523.73,-319.74 1536,-291.08 1540.63,-280.27 1547.43,-269.25 1553.81,-260.05"/>
<polygon fill="green" stroke="green" stroke-width="0.8" points="1556.71,-262.02 1559.72,-251.86 1551.03,-257.93 1556.71,-262.02"/>
</g>
<!-- 18&#45;&gt;27 -->
<g id="edge99" class="edge">
<title>18&#45;&gt;27</title>
<path fill="none" stroke="green" stroke-width="0.8" d="M1501.61,-380.04C1468.15,-377.08 1378.14,-369.25 1303,-363.85 1138.14,-351.99 570,-402.98 570,-237.69 570,-237.69 570,-237.69 570,-162.92 570,-11.59 1813.39,-17.11 2019.28,-19.06"/>
<polygon fill="green" stroke="green" stroke-width="0.8" points="2019.55,-22.56 2029.58,-19.16 2019.62,-15.56 2019.55,-22.56"/>
</g>
<!-- 18&#45;&gt;23 -->
<g id="edge100" class="edge">
<title>18&#45;&gt;23</title>
<path fill="none" stroke="green" stroke-width="0.8" d="M1501.61,-380.1C1468.13,-377.28 1378.1,-369.74 1303,-363.85 1249.57,-359.66 858.45,-367.13 822,-327.85 801.53,-305.79 829.7,-274.27 851.89,-254.94"/>
<polygon fill="green" stroke="green" stroke-width="0.8" points="854.27,-257.52 859.69,-248.41 849.78,-252.15 854.27,-257.52"/>
</g>
<!-- 18&#45;&gt;24 -->
<g id="edge101" class="edge">
<title>18&#45;&gt;24</title>
<path fill="none" stroke="green" stroke-width="0.8" d="M1521.26,-372.99C1535.36,-355.05 1571.52,-312.4 1612,-291.08 1681.37,-254.54 1774.9,-242.93 1821.35,-239.3"/>
<polygon fill="green" stroke="green" stroke-width="0.8" points="1821.85,-242.77 1831.57,-238.57 1821.35,-235.79 1821.85,-242.77"/>
</g>
<!-- 18&#45;&gt;20 -->
<g id="edge145" class="edge">
<title>18&#45;&gt;20</title>
<path fill="none" stroke="green" stroke-width="0.8" d="M1528.16,-380.46C1571.29,-377.93 1712.31,-369.75 1829,-363.85 2003.63,-355.01 2448,-379.64 2615,-327.85 2616.47,-327.39 2617.94,-326.84 2619.39,-326.22"/>
<polygon fill="green" stroke="green" stroke-width="0.8" points="2621.38,-329.13 2628.57,-321.35 2618.1,-322.94 2621.38,-329.13"/>
</g>
<!-- 19&#45;&gt;31 -->
<g id="edge125" class="edge">
<title>19&#45;&gt;31</title>
<path fill="none" stroke="green" stroke-width="0.8" d="M2787.25,-226.63C2782.14,-223.82 2776.39,-220.81 2771,-218.31 2733.47,-200.89 2688.54,-184.12 2660.63,-174.17"/>
<polygon fill="green" stroke="green" stroke-width="0.8" points="2661.76,-170.86 2651.16,-170.82 2659.42,-177.46 2661.76,-170.86"/>
</g>
<!-- 20&#45;&gt;37 -->
<g id="edge136" class="edge">
<title>20&#45;&gt;37</title>
<path fill="none" stroke="green" stroke-width="0.8" d="M2660.72,-303.49C2704.01,-291.33 2815.38,-260.05 2867.43,-245.44"/>
<polygon fill="green" stroke="green" stroke-width="0.8" points="2868.62,-248.74 2877.3,-242.66 2866.73,-242 2868.62,-248.74"/>
</g>
<!-- 21&#45;&gt;36 -->
<g id="edge142" class="edge">
<title>21&#45;&gt;36</title>
<path fill="none" stroke="green" stroke-width="0.8" d="M1253.12,-298.79C1258.29,-295.88 1264.23,-292.97 1270,-291.08 1382.96,-254.1 1421.19,-289.35 1535,-255.08 1538.67,-253.97 1542.44,-252.53 1546.08,-250.96"/>
<polygon fill="green" stroke="green" stroke-width="0.8" points="1547.76,-254.04 1555.31,-246.6 1544.77,-247.71 1547.76,-254.04"/>
</g>
<!-- 22&#45;&gt;31 -->
<g id="edge107" class="edge">
<title>22&#45;&gt;31</title>
<path fill="none" stroke="green" stroke-width="0.8" d="M2671.64,-370.92C2675.81,-368.33 2680.46,-365.74 2685,-363.85 2748.26,-337.43 2792.55,-381.69 2835,-327.85 2846.7,-313.01 2845.42,-237.11 2830,-218.31 2808.75,-192.39 2711.03,-175.53 2662.09,-168.57"/>
<polygon fill="green" stroke="green" stroke-width="0.8" points="2662.54,-165.1 2652.15,-167.19 2661.58,-172.03 2662.54,-165.1"/>
</g>
<!-- 22&#45;&gt;29 -->
<g id="edge110" class="edge">
<title>22&#45;&gt;29</title>
<path fill="none" stroke="green" stroke-width="0.8" d="M2638.8,-378.41C2612,-374.38 2560.28,-367.11 2516,-363.85 2475.38,-360.85 1078.45,-357 1050,-327.85 1014.3,-291.26 1035.75,-225.53 1051.61,-189.76"/>
<polygon fill="green" stroke="green" stroke-width="0.8" points="1054.87,-191.06 1055.89,-180.52 1048.51,-188.13 1054.87,-191.06"/>
</g>
<!-- 22&#45;&gt;23 -->
<g id="edge132" class="edge">
<title>22&#45;&gt;23</title>
<path fill="none" stroke="green" stroke-width="0.8" d="M2638.8,-378.4C2612,-374.37 2560.28,-367.09 2516,-363.85 2430.54,-357.6 1053.62,-359.51 974,-327.85 973.39,-327.6 924.16,-283.1 895.01,-256.72"/>
<polygon fill="green" stroke="green" stroke-width="0.8" points="897.14,-253.93 887.38,-249.81 892.45,-259.12 897.14,-253.93"/>
</g>
<!-- 22&#45;&gt;19 -->
<g id="edge153" class="edge">
<title>22&#45;&gt;19</title>
<path fill="none" stroke="green" stroke-width="0.8" d="M2671.68,-371.02C2675.85,-368.42 2680.49,-365.81 2685,-363.85 2740.75,-339.56 2780.09,-376.17 2817,-327.85 2831.23,-309.22 2824.33,-282 2815.97,-262.35"/>
<polygon fill="green" stroke="green" stroke-width="0.8" points="2819.08,-260.72 2811.71,-253.11 2812.72,-263.66 2819.08,-260.72"/>
</g>
<!-- 22&#45;&gt;28 -->
<g id="edge144" class="edge">
<title>22&#45;&gt;28</title>
<path fill="none" stroke="green" stroke-width="0.8" d="M2665.59,-365.69C2675.12,-346.12 2687.06,-312.47 2670,-291.08 2644.55,-259.17 2521.05,-244.84 2464.45,-239.86"/>
<polygon fill="green" stroke="green" stroke-width="0.8" points="2464.64,-236.37 2454.38,-239.02 2464.05,-243.34 2464.64,-236.37"/>
</g>
<!-- 22&#45;&gt;30 -->
<g id="edge106" class="edge">
<title>22&#45;&gt;30</title>
<path fill="none" stroke="green" stroke-width="0.8" d="M2644.66,-368.58C2634.49,-358.14 2619.85,-343.13 2608,-330.98"/>
<polygon fill="green" stroke="green" stroke-width="0.8" points="2610.18,-328.2 2600.7,-323.48 2605.17,-333.09 2610.18,-328.2"/>
</g>
<!-- 25&#45;&gt;32 -->
<g id="edge131" class="edge">
<title>25&#45;&gt;32</title>
<path fill="none" stroke="green" stroke-width="0.8" d="M2877.01,-160.15C2806.75,-149.32 2550.57,-109.82 2464.46,-96.54"/>
<polygon fill="green" stroke="green" stroke-width="0.8" points="2464.78,-93.05 2454.37,-94.99 2463.72,-99.97 2464.78,-93.05"/>
</g>
<!-- 26&#45;&gt;27 -->
<g id="edge143" class="edge">
<title>26&#45;&gt;27</title>
<path fill="none" stroke="green" stroke-width="0.8" d="M1257.56,-453.7C1121.95,-451.39 281.04,-435.72 174,-400.62 105.09,-378.02 38,-382.98 38,-310.46 38,-310.46 38,-310.46 38,-162.92 38,-95.5 96.27,-94.77 160,-72.77 251.73,-41.11 1788.5,-22.35 2019.13,-19.71"/>
<polygon fill="green" stroke="green" stroke-width="0.8" points="2019.44,-23.2 2029.4,-19.59 2019.36,-16.21 2019.44,-23.2"/>
</g>
<!-- 34 -->
<g id="node35" class="node">
<title>34</title>
<ellipse fill="white" stroke="black" cx="2489" cy="-382.23" rx="18.27" ry="18.27"/>
<text text-anchor="middle" x="2489" y="-380.03" font-family="Times,serif" font-size="9.00">34</text>
</g>
<!-- 26&#45;&gt;34 -->
<g id="edge138" class="edge">
<title>26&#45;&gt;34</title>
<path fill="none" stroke="green" stroke-width="0.8" d="M1294.33,-451.52C1323.59,-447.66 1382.67,-440.28 1433,-436.62 1547.1,-428.32 2352.83,-434.81 2462,-400.62 2463.26,-400.22 2464.51,-399.75 2465.75,-399.23"/>
<polygon fill="green" stroke="green" stroke-width="0.8" points="2467.71,-402.15 2474.87,-394.33 2464.4,-395.98 2467.71,-402.15"/>
</g>
<!-- 28&#45;&gt;29 -->
<g id="edge119" class="edge">
<title>28&#45;&gt;29</title>
<path fill="none" stroke="green" stroke-width="0.8" d="M2417.64,-234.75C2269.78,-227.12 1273.96,-175.75 1092.39,-166.39"/>
<polygon fill="green" stroke="green" stroke-width="0.8" points="1092.46,-162.89 1082.29,-165.87 1092.1,-169.88 1092.46,-162.89"/>
</g>
<!-- 28&#45;&gt;32 -->
<g id="edge122" class="edge">
<title>28&#45;&gt;32</title>
<path fill="none" stroke="green" stroke-width="0.8" d="M2436,-218.09C2436,-193.66 2436,-149.22 2436,-120.19"/>
<polygon fill="green" stroke="green" stroke-width="0.8" points="2439.5,-119.9 2436,-109.9 2432.5,-119.9 2439.5,-119.9"/>
</g>
<!-- 30&#45;&gt;31 -->
<g id="edge114" class="edge">
<title>30&#45;&gt;31</title>
<path fill="none" stroke="green" stroke-width="0.8" d="M2595.3,-292.32C2599.88,-281.84 2605.7,-267.81 2610,-255.08 2617.06,-234.17 2623.4,-209.98 2627.79,-191.92"/>
<polygon fill="green" stroke="green" stroke-width="0.8" points="2631.23,-192.61 2630.14,-182.07 2624.42,-190.98 2631.23,-192.61"/>
</g>
<!-- 30&#45;&gt;27 -->
<g id="edge102" class="edge">
<title>30&#45;&gt;27</title>
<path fill="none" stroke="green" stroke-width="0.8" d="M2584.54,-291.22C2574.58,-246.6 2541.45,-127.08 2463,-72.77 2400.12,-29.24 2159.96,-21.2 2076.66,-19.72"/>
<polygon fill="green" stroke="green" stroke-width="0.8" points="2076.47,-16.22 2066.41,-19.56 2076.36,-23.22 2076.47,-16.22"/>
</g>
<!-- 30&#45;&gt;24 -->
<g id="edge109" class="edge">
<title>30&#45;&gt;24</title>
<path fill="none" stroke="green" stroke-width="0.8" d="M2569.76,-306.71C2470.86,-297.23 1999.03,-251.98 1878.22,-240.4"/>
<polygon fill="green" stroke="green" stroke-width="0.8" points="1878.55,-236.92 1868.27,-239.45 1877.89,-243.88 1878.55,-236.92"/>
</g>
<!-- 30&#45;&gt;37 -->
<g id="edge123" class="edge">
<title>30&#45;&gt;37</title>
<path fill="none" stroke="green" stroke-width="0.8" d="M2602.55,-297.95C2606.73,-295.35 2611.4,-292.82 2616,-291.08 2706.23,-257 2735.75,-275.56 2830,-255.08 2842.41,-252.38 2856,-248.84 2867.53,-245.66"/>
<polygon fill="green" stroke="green" stroke-width="0.8" points="2868.77,-248.94 2877.45,-242.87 2866.88,-242.21 2868.77,-248.94"/>
</g>
<!-- 32&#45;&gt;27 -->
<g id="edge112" class="edge">
<title>32&#45;&gt;27</title>
<path fill="none" stroke="green" stroke-width="0.8" d="M2420.87,-80.53C2415.69,-77.62 2409.76,-74.7 2404,-72.77 2286.88,-33.53 2138.42,-23.06 2076.81,-20.33"/>
<polygon fill="green" stroke="green" stroke-width="0.8" points="2076.82,-16.82 2066.68,-19.91 2076.53,-23.82 2076.82,-16.82"/>
</g>
<!-- 33&#45;&gt;37 -->
<g id="edge149" class="edge">
<title>33&#45;&gt;37</title>
<path fill="none" stroke="green" stroke-width="0.8" d="M3022.55,-300.95C3000.59,-290.85 2960.59,-272.19 2927,-255.08 2924.68,-253.9 2922.29,-252.65 2919.89,-251.38"/>
<polygon fill="green" stroke="green" stroke-width="0.8" points="2921.33,-248.18 2910.86,-246.53 2918.01,-254.35 2921.33,-248.18"/>
</g>
<!-- 34&#45;&gt;30 -->
<g id="edge120" class="edge">
<title>34&#45;&gt;30</title>
<path fill="none" stroke="green" stroke-width="0.8" d="M2503.61,-370.79C2519.77,-359.24 2546.02,-340.47 2564.95,-326.94"/>
<polygon fill="green" stroke="green" stroke-width="0.8" points="2567.23,-329.61 2573.33,-320.95 2563.16,-323.92 2567.23,-329.61"/>
</g>
<!-- 35&#45;&gt;36 -->
<g id="edge147" class="edge">
<title>35&#45;&gt;36</title>
<path fill="none" stroke="green" stroke-width="0.8" d="M2470.33,-453.71C2356.51,-451.77 1758.5,-439.8 1688,-400.62 1632.82,-369.95 1597.11,-301 1580.98,-263.38"/>
<polygon fill="green" stroke="green" stroke-width="0.8" points="1584.19,-261.99 1577.12,-254.09 1577.72,-264.67 1584.19,-261.99"/>
</g>
<!-- 35&#45;&gt;34 -->
<g id="edge150" class="edge">
<title>35&#45;&gt;34</title>
<path fill="none" stroke="green" stroke-width="0.8" d="M2489,-436.51C2489,-428.83 2489,-419.62 2489,-411.03"/>
<polygon fill="green" stroke="green" stroke-width="0.8" points="2492.5,-411.02 2489,-401.02 2485.5,-411.02 2492.5,-411.02"/>
</g>
<!-- 37&#45;&gt;31 -->
<g id="edge139" class="edge">
<title>37&#45;&gt;31</title>
<path fill="none" stroke="green" stroke-width="0.8" d="M2879.77,-226.34C2874.59,-223.45 2868.67,-220.47 2863,-218.31 2793.2,-191.77 2706.23,-175.9 2662.27,-169"/>
<polygon fill="green" stroke="green" stroke-width="0.8" points="2662.72,-165.53 2652.3,-167.48 2661.66,-172.45 2662.72,-165.53"/>
</g>
<!-- 37&#45;&gt;29 -->
<g id="edge117" class="edge">
<title>37&#45;&gt;29</title>
<path fill="none" stroke="green" stroke-width="0.8" d="M2877.85,-229.94C2864.87,-225.88 2846.53,-220.74 2830,-218.31 2474.81,-166.16 1292.71,-164.74 1092.83,-164.88"/>
<polygon fill="green" stroke="green" stroke-width="0.8" points="1092.55,-161.38 1082.56,-164.89 1092.56,-168.38 1092.55,-161.38"/>
</g>
<!-- 37&#45;&gt;25 -->
<g id="edge151" class="edge">
<title>37&#45;&gt;25</title>
<path fill="none" stroke="green" stroke-width="0.8" d="M2895,-218.2C2895,-210.52 2895,-201.31 2895,-192.72"/>
<polygon fill="green" stroke="green" stroke-width="0.8" points="2898.5,-192.71 2895,-182.71 2891.5,-192.71 2898.5,-192.71"/>
</g>
</g>
</svg>
