<?xml version="1.0" encoding="UTF-8" standalone="no"?>
<!DOCTYPE svg PUBLIC "-//W3C//DTD SVG 1.1//EN"
 "http://www.w3.org/Graphics/SVG/1.1/DTD/svg11.dtd">
<!-- Generated by graphviz version 3.0.0 (20220226.1711)
 -->
<!-- Pages: 1 -->
<svg width="4595pt" height="317pt"
 viewBox="0.00 0.00 4594.64 317.08" xmlns="http://www.w3.org/2000/svg" xmlns:xlink="http://www.w3.org/1999/xlink">
<g id="graph0" class="graph" transform="scale(1 1) rotate(0) translate(4 313.08)">
<polygon fill="white" stroke="transparent" points="-4,4 -4,-313.08 4590.64,-313.08 4590.64,4 -4,4"/>
<!-- 1 -->
<g id="node1" class="node">
<title>1</title>
<polygon fill="lightgray" stroke="black" points="2088.28,-309.08 2067.28,-309.08 2067.28,-291.08 2088.28,-291.08 2088.28,-309.08"/>
<text text-anchor="middle" x="2077.78" y="-297.88" font-family="Times,serif" font-size="9.00">1</text>
</g>
<!-- 28 -->
<g id="node19" class="node">
<title>28</title>
<ellipse fill="lightblue" stroke="black" cx="3931.78" cy="-18.38" rx="18.27" ry="18.27"/>
<text text-anchor="middle" x="3931.78" y="-16.18" font-family="Times,serif" font-size="9.00">28</text>
</g>
<!-- 1&#45;&gt;28 -->
<g id="edge1" class="edge">
<title>1&#45;&gt;28</title>
<path fill="none" stroke="green" stroke-width="0.8" d="M2088.38,-296.25C2095.73,-294.42 2105.78,-292.18 2114.78,-291.08 2247.85,-274.84 3197.62,-308.03 3320.78,-255.08 3342.08,-245.92 3337.25,-229.08 3357.78,-218.31 3435.04,-177.76 3467.55,-208.53 3550.78,-182.31 3588.49,-170.43 3593.68,-156.09 3631.78,-145.54 3699.47,-126.8 3899.03,-161.95 3945.78,-109.54 3961.63,-91.76 3954.03,-63.76 3945.06,-43.68"/>
<polygon fill="green" stroke="green" stroke-width="0.8" points="3948.14,-42.02 3940.64,-34.54 3941.84,-45.06 3948.14,-42.02"/>
</g>
<!-- 36 -->
<g id="node20" class="node">
<title>36</title>
<ellipse fill="lightblue" stroke="black" cx="1107.78" cy="-18.38" rx="18.27" ry="18.27"/>
<text text-anchor="middle" x="1107.78" y="-16.18" font-family="Times,serif" font-size="9.00">36</text>
</g>
<!-- 1&#45;&gt;36 -->
<g id="edge2" class="edge">
<title>1&#45;&gt;36</title>
<path fill="none" stroke="green" stroke-width="0.8" d="M2067.01,-298.9C1961.37,-297.12 1108.3,-282.06 854.78,-255.08 671.18,-235.54 620.5,-241.99 445.78,-182.31 379.79,-159.77 342.88,-169.2 306.78,-109.54 298.32,-95.56 295.61,-84.7 306.78,-72.77 360.49,-15.36 941.79,-17.68 1078.92,-19.04"/>
<polygon fill="green" stroke="green" stroke-width="0.8" points="1079.03,-22.54 1089.06,-19.14 1079.1,-15.54 1079.03,-22.54"/>
</g>
<!-- 21 -->
<g id="node21" class="node">
<title>21</title>
<ellipse fill="lightblue" stroke="black" cx="1966.78" cy="-18.38" rx="18.27" ry="18.27"/>
<text text-anchor="middle" x="1966.78" y="-16.18" font-family="Times,serif" font-size="9.00">21</text>
</g>
<!-- 1&#45;&gt;21 -->
<g id="edge3" class="edge">
<title>1&#45;&gt;21</title>
<path fill="none" stroke="green" stroke-width="0.8" d="M2066.99,-298.74C2001.24,-296.56 1655.99,-283.82 1619.78,-255.08 1566.32,-212.65 1581.81,-176.89 1570.78,-109.54 1568.14,-93.41 1560.02,-85.07 1570.78,-72.77 1595,-45.07 1851.09,-26.61 1938.06,-21.11"/>
<polygon fill="green" stroke="green" stroke-width="0.8" points="1938.5,-24.59 1948.26,-20.47 1938.07,-17.6 1938.5,-24.59"/>
</g>
<!-- 29 -->
<g id="node22" class="node">
<title>29</title>
<ellipse fill="lightblue" stroke="black" cx="3336.78" cy="-18.38" rx="18.27" ry="18.27"/>
<text text-anchor="middle" x="3336.78" y="-16.18" font-family="Times,serif" font-size="9.00">29</text>
</g>
<!-- 1&#45;&gt;29 -->
<g id="edge4" class="edge">
<title>1&#45;&gt;29</title>
<path fill="none" stroke="green" stroke-width="0.8" d="M2088.38,-296.25C2095.73,-294.42 2105.78,-292.18 2114.78,-291.08 2179.44,-283.16 3231.5,-289.54 3286.78,-255.08 3348.88,-216.37 3346.15,-180.56 3363.78,-109.54 3367.71,-93.68 3367.57,-88.67 3363.78,-72.77 3361.31,-62.42 3356.49,-51.81 3351.61,-42.8"/>
<polygon fill="green" stroke="green" stroke-width="0.8" points="3354.6,-40.99 3346.58,-34.07 3348.54,-44.48 3354.6,-40.99"/>
</g>
<!-- 30 -->
<g id="node23" class="node">
<title>30</title>
<ellipse fill="lightblue" stroke="black" cx="1389.78" cy="-18.38" rx="18.27" ry="18.27"/>
<text text-anchor="middle" x="1389.78" y="-16.18" font-family="Times,serif" font-size="9.00">30</text>
</g>
<!-- 1&#45;&gt;30 -->
<g id="edge5" class="edge">
<title>1&#45;&gt;30</title>
<path fill="none" stroke="green" stroke-width="0.8" d="M2067.16,-298.83C1955.71,-296.26 1002.96,-273.71 946.78,-255.08 852.37,-223.77 811.88,-202.6 776.78,-109.54 771.01,-94.25 765.73,-84.82 776.78,-72.77 786.81,-61.83 1241.69,-29.63 1361.24,-21.35"/>
<polygon fill="green" stroke="green" stroke-width="0.8" points="1361.7,-24.82 1371.44,-20.64 1361.22,-17.84 1361.7,-24.82"/>
</g>
<!-- 40 -->
<g id="node24" class="node">
<title>40</title>
<ellipse fill="lightblue" stroke="black" cx="2757.78" cy="-18.38" rx="18.27" ry="18.27"/>
<text text-anchor="middle" x="2757.78" y="-16.18" font-family="Times,serif" font-size="9.00">40</text>
</g>
<!-- 1&#45;&gt;40 -->
<g id="edge6" class="edge">
<title>1&#45;&gt;40</title>
<path fill="none" stroke="green" stroke-width="0.8" d="M2078.66,-290.76C2082,-263.89 2096.54,-179.23 2149.78,-145.54 2245.41,-85.02 2554.43,-155.67 2657.78,-109.54 2679.24,-99.96 2678.42,-88.61 2695.78,-72.77 2708.9,-60.79 2724.01,-47.76 2736.03,-37.58"/>
<polygon fill="green" stroke="green" stroke-width="0.8" points="2738.4,-40.16 2743.79,-31.03 2733.89,-34.81 2738.4,-40.16"/>
</g>
<!-- 23 -->
<g id="node28" class="node">
<title>23</title>
<ellipse fill="white" stroke="black" cx="2258.78" cy="-236.69" rx="18.27" ry="18.27"/>
<text text-anchor="middle" x="2258.78" y="-234.49" font-family="Times,serif" font-size="9.00">23</text>
</g>
<!-- 1&#45;&gt;23 -->
<g id="edge175" class="edge">
<title>1&#45;&gt;23</title>
<path fill="none" stroke="green" stroke-width="0.8" d="M2088.29,-295.51C2115.97,-286.12 2191.53,-260.5 2232.13,-246.73"/>
<polygon fill="green" stroke="green" stroke-width="0.8" points="2233.31,-250.03 2241.65,-243.5 2231.06,-243.4 2233.31,-250.03"/>
</g>
<!-- 24 -->
<g id="node29" class="node">
<title>24</title>
<ellipse fill="white" stroke="black" cx="3259.78" cy="-236.69" rx="18.27" ry="18.27"/>
<text text-anchor="middle" x="3259.78" y="-234.49" font-family="Times,serif" font-size="9.00">24</text>
</g>
<!-- 1&#45;&gt;24 -->
<g id="edge140" class="edge">
<title>1&#45;&gt;24</title>
<path fill="none" stroke="green" stroke-width="0.8" d="M2088.38,-296.25C2095.73,-294.43 2105.78,-292.19 2114.78,-291.08 2360.38,-260.81 2988.95,-319.89 3227.78,-255.08 3230.43,-254.36 3233.11,-253.38 3235.72,-252.25"/>
<polygon fill="green" stroke="green" stroke-width="0.8" points="3237.4,-255.33 3244.77,-247.71 3234.26,-249.07 3237.4,-255.33"/>
</g>
<!-- 35 -->
<g id="node37" class="node">
<title>35</title>
<ellipse fill="white" stroke="black" cx="803.78" cy="-91.15" rx="18.27" ry="18.27"/>
<text text-anchor="middle" x="803.78" y="-88.95" font-family="Times,serif" font-size="9.00">35</text>
</g>
<!-- 1&#45;&gt;35 -->
<g id="edge153" class="edge">
<title>1&#45;&gt;35</title>
<path fill="none" stroke="green" stroke-width="0.8" d="M2067.21,-299.01C1974.56,-298.35 1299.59,-292.28 1100.78,-255.08 1001.2,-236.45 969.41,-237.98 884.78,-182.31 857.83,-164.58 834.11,-135.75 819.41,-115.48"/>
<polygon fill="green" stroke="green" stroke-width="0.8" points="822.13,-113.25 813.5,-107.1 816.41,-117.29 822.13,-113.25"/>
</g>
<!-- 39 -->
<g id="node40" class="node">
<title>39</title>
<ellipse fill="white" stroke="black" cx="3658.78" cy="-163.92" rx="18.27" ry="18.27"/>
<text text-anchor="middle" x="3658.78" y="-161.72" font-family="Times,serif" font-size="9.00">39</text>
</g>
<!-- 1&#45;&gt;39 -->
<g id="edge128" class="edge">
<title>1&#45;&gt;39</title>
<path fill="none" stroke="green" stroke-width="0.8" d="M2088.38,-296.24C2095.73,-294.41 2105.77,-292.17 2114.78,-291.08 2663.42,-224.4 2812.16,-343.12 3357.78,-255.08 3361.27,-254.51 3557.38,-195.47 3631.14,-173.25"/>
<polygon fill="green" stroke="green" stroke-width="0.8" points="3632.53,-176.49 3641.09,-170.25 3630.51,-169.79 3632.53,-176.49"/>
</g>
<!-- 41 -->
<g id="node41" class="node">
<title>41</title>
<ellipse fill="white" stroke="black" cx="2176.78" cy="-163.92" rx="18.27" ry="18.27"/>
<text text-anchor="middle" x="2176.78" y="-161.72" font-family="Times,serif" font-size="9.00">41</text>
</g>
<!-- 1&#45;&gt;41 -->
<g id="edge165" class="edge">
<title>1&#45;&gt;41</title>
<path fill="none" stroke="green" stroke-width="0.8" d="M2083.97,-290.69C2099,-270.32 2137.8,-217.75 2160.18,-187.41"/>
<polygon fill="green" stroke="green" stroke-width="0.8" points="2163.17,-189.26 2166.29,-179.13 2157.54,-185.1 2163.17,-189.26"/>
</g>
<!-- 42 -->
<g id="node42" class="node">
<title>42</title>
<ellipse fill="white" stroke="black" cx="1324.78" cy="-91.15" rx="18.27" ry="18.27"/>
<text text-anchor="middle" x="1324.78" y="-88.95" font-family="Times,serif" font-size="9.00">42</text>
</g>
<!-- 1&#45;&gt;42 -->
<g id="edge180" class="edge">
<title>1&#45;&gt;42</title>
<path fill="none" stroke="green" stroke-width="0.8" d="M2067.03,-299.01C1963.56,-298.28 1147.5,-291.42 1112.78,-255.08 1082.29,-223.17 1140.95,-153.71 1150.78,-145.54 1162.22,-136.03 1250.99,-111.62 1297.13,-99.38"/>
<polygon fill="green" stroke="green" stroke-width="0.8" points="1298.3,-102.69 1307.08,-96.75 1296.52,-95.92 1298.3,-102.69"/>
</g>
<!-- 2 -->
<g id="node2" class="node">
<title>2</title>
<polygon fill="lightgray" stroke="black" points="2340.28,-309.08 2319.28,-309.08 2319.28,-291.08 2340.28,-291.08 2340.28,-309.08"/>
<text text-anchor="middle" x="2329.78" y="-297.88" font-family="Times,serif" font-size="9.00">2</text>
</g>
<!-- 2&#45;&gt;28 -->
<g id="edge7" class="edge">
<title>2&#45;&gt;28</title>
<path fill="none" stroke="green" stroke-width="0.8" d="M2340.39,-298.82C2467.78,-295.74 3700.31,-265.73 3775.78,-255.08 3808.14,-250.51 4040.73,-208.12 4060.78,-182.31 4090.64,-143.86 4087.83,-113.24 4060.78,-72.77 4038.49,-39.42 3991.11,-26.88 3960.39,-22.18"/>
<polygon fill="green" stroke="green" stroke-width="0.8" points="3960.67,-18.69 3950.29,-20.82 3959.74,-25.62 3960.67,-18.69"/>
</g>
<!-- 2&#45;&gt;36 -->
<g id="edge8" class="edge">
<title>2&#45;&gt;36</title>
<path fill="none" stroke="green" stroke-width="0.8" d="M2319.07,-297.04C2308.59,-295.13 2292.15,-292.4 2277.78,-291.08 2014.32,-266.92 1346.35,-311.05 1087.78,-255.08 938.62,-222.79 855.4,-240.33 776.78,-109.54 768.36,-95.53 766.18,-85.21 776.78,-72.77 815.55,-27.25 1005.28,-20.41 1078.7,-19.48"/>
<polygon fill="green" stroke="green" stroke-width="0.8" points="1079.08,-22.98 1089.05,-19.38 1079.01,-15.98 1079.08,-22.98"/>
</g>
<!-- 2&#45;&gt;21 -->
<g id="edge9" class="edge">
<title>2&#45;&gt;21</title>
<path fill="none" stroke="green" stroke-width="0.8" d="M2326.48,-290.96C2320.07,-275.74 2304.86,-242.3 2285.78,-218.31 2255.45,-180.17 2247.55,-166.94 2203.78,-145.54 2124.99,-107.03 2079.34,-162.93 2009.78,-109.54 1989.65,-94.09 1978.49,-66.86 1972.61,-46.36"/>
<polygon fill="green" stroke="green" stroke-width="0.8" points="1975.99,-45.42 1970.07,-36.63 1969.21,-47.19 1975.99,-45.42"/>
</g>
<!-- 2&#45;&gt;30 -->
<g id="edge10" class="edge">
<title>2&#45;&gt;30</title>
<path fill="none" stroke="green" stroke-width="0.8" d="M2319.06,-297.09C2308.58,-295.23 2292.14,-292.52 2277.78,-291.08 2195.1,-282.75 1607.12,-287.89 1530.78,-255.08 1445.15,-218.28 1408.08,-100.26 1395.34,-46.51"/>
<polygon fill="green" stroke="green" stroke-width="0.8" points="1398.73,-45.64 1393.11,-36.66 1391.9,-47.19 1398.73,-45.64"/>
</g>
<!-- 2&#45;&gt;40 -->
<g id="edge11" class="edge">
<title>2&#45;&gt;40</title>
<path fill="none" stroke="green" stroke-width="0.8" d="M2340.51,-298.87C2455.19,-296.64 3451.03,-276.64 3471.78,-255.08 3483.11,-243.3 3483.01,-230.17 3471.78,-218.31 3370.78,-111.65 2913.74,-288.04 2811.78,-182.31 2777.98,-147.26 2828.53,-117.71 2809.78,-72.77 2803.74,-58.31 2791.78,-45.58 2780.85,-36.18"/>
<polygon fill="green" stroke="green" stroke-width="0.8" points="2782.78,-33.24 2772.8,-29.67 2778.37,-38.68 2782.78,-33.24"/>
</g>
<!-- 2&#45;&gt;23 -->
<g id="edge152" class="edge">
<title>2&#45;&gt;23</title>
<path fill="none" stroke="green" stroke-width="0.8" d="M2320.5,-291.05C2310.29,-282.23 2293.54,-267.75 2280.06,-256.1"/>
<polygon fill="green" stroke="green" stroke-width="0.8" points="2282.04,-253.18 2272.18,-249.28 2277.46,-258.47 2282.04,-253.18"/>
</g>
<!-- 37 -->
<g id="node38" class="node">
<title>37</title>
<ellipse fill="white" stroke="black" cx="3581.78" cy="-91.15" rx="18.27" ry="18.27"/>
<text text-anchor="middle" x="3581.78" y="-88.95" font-family="Times,serif" font-size="9.00">37</text>
</g>
<!-- 2&#45;&gt;37 -->
<g id="edge114" class="edge">
<title>2&#45;&gt;37</title>
<path fill="none" stroke="green" stroke-width="0.8" d="M2340.64,-298.8C2463.51,-295.61 3587.76,-266.19 3619.78,-255.08 3681.77,-233.57 3756.92,-198.94 3718.78,-145.54 3690.1,-105.39 3658.94,-129.38 3613.78,-109.54 3611.4,-108.49 3608.96,-107.33 3606.53,-106.13"/>
<polygon fill="green" stroke="green" stroke-width="0.8" points="3607.95,-102.91 3597.47,-101.36 3604.69,-109.11 3607.95,-102.91"/>
</g>
<!-- 2&#45;&gt;39 -->
<g id="edge154" class="edge">
<title>2&#45;&gt;39</title>
<path fill="none" stroke="green" stroke-width="0.8" d="M2340.37,-298.83C2460.17,-296.01 3556.25,-269.81 3585.78,-255.08 3613.57,-241.22 3634.36,-211.35 3646.51,-189.79"/>
<polygon fill="green" stroke="green" stroke-width="0.8" points="3649.67,-191.3 3651.33,-180.84 3643.5,-187.98 3649.67,-191.3"/>
</g>
<!-- 3 -->
<g id="node3" class="node">
<title>3</title>
<polygon fill="lightgray" stroke="black" points="528.28,-309.08 507.28,-309.08 507.28,-291.08 528.28,-291.08 528.28,-309.08"/>
<text text-anchor="middle" x="517.78" y="-297.88" font-family="Times,serif" font-size="9.00">3</text>
</g>
<!-- 3&#45;&gt;36 -->
<g id="edge12" class="edge">
<title>3&#45;&gt;36</title>
<path fill="none" stroke="green" stroke-width="0.8" d="M507.11,-298.95C438.91,-298.03 65.92,-291.36 32.78,-255.08 -23.12,-193.88 -15.24,-154.11 118.78,-72.77 202.75,-21.8 924.85,-19.29 1078.93,-19.34"/>
<polygon fill="green" stroke="green" stroke-width="0.8" points="1079.02,-22.84 1089.03,-19.34 1079.03,-15.84 1079.02,-22.84"/>
</g>
<!-- 3&#45;&gt;21 -->
<g id="edge13" class="edge">
<title>3&#45;&gt;21</title>
<path fill="none" stroke="green" stroke-width="0.8" d="M527.86,-291.03C546.98,-275.93 590.05,-242.68 628.78,-218.31 692.34,-178.31 860.62,-89.75 933.78,-72.77 1033.93,-49.53 1781.52,-25.15 1938.08,-20.27"/>
<polygon fill="green" stroke="green" stroke-width="0.8" points="1938.43,-23.76 1948.31,-19.95 1938.21,-16.76 1938.43,-23.76"/>
</g>
<!-- 3&#45;&gt;29 -->
<g id="edge14" class="edge">
<title>3&#45;&gt;29</title>
<path fill="none" stroke="green" stroke-width="0.8" d="M528.4,-293.77C531.07,-292.67 533.98,-291.67 536.78,-291.08 777.54,-240.42 2508.41,-297.37 2750.78,-255.08 2849.33,-237.88 2873.82,-226.06 2963.78,-182.31 3017.16,-156.34 3027.83,-144.54 3075.78,-109.54 3096.64,-94.31 3097.68,-84.32 3120.78,-72.77 3183.52,-41.39 3265.95,-27.67 3308.55,-22.34"/>
<polygon fill="green" stroke="green" stroke-width="0.8" points="3308.97,-25.82 3318.49,-21.16 3308.15,-18.86 3308.97,-25.82"/>
</g>
<!-- 3&#45;&gt;30 -->
<g id="edge15" class="edge">
<title>3&#45;&gt;30</title>
<path fill="none" stroke="green" stroke-width="0.8" d="M507.07,-297.75C485.86,-294.54 438.41,-284.32 413.78,-255.08 361.57,-193.09 348.94,-126.32 409.78,-72.77 440.05,-46.12 1094.52,-39.14 1134.78,-36.77 1217.17,-31.92 1314.46,-24.94 1361.5,-21.48"/>
<polygon fill="green" stroke="green" stroke-width="0.8" points="1361.83,-24.97 1371.54,-20.74 1361.31,-17.99 1361.83,-24.97"/>
</g>
<!-- 3&#45;&gt;40 -->
<g id="edge16" class="edge">
<title>3&#45;&gt;40</title>
<path fill="none" stroke="green" stroke-width="0.8" d="M528.4,-293.79C531.07,-292.69 533.98,-291.68 536.78,-291.08 817.06,-230.4 1554.43,-344.89 1826.78,-255.08 1907.58,-228.43 1903.53,-173.82 1983.78,-145.54 2093.86,-106.74 2401.8,-158.44 2507.78,-109.54 2528.54,-99.96 2523.93,-84.14 2543.78,-72.77 2604.12,-38.2 2686.55,-25.81 2729.35,-21.53"/>
<polygon fill="green" stroke="green" stroke-width="0.8" points="2729.71,-25.01 2739.35,-20.61 2729.07,-18.04 2729.71,-25.01"/>
</g>
<!-- 19 -->
<g id="node25" class="node">
<title>19</title>
<ellipse fill="white" stroke="black" cx="3037.78" cy="-236.69" rx="18.27" ry="18.27"/>
<text text-anchor="middle" x="3037.78" y="-234.49" font-family="Times,serif" font-size="9.00">19</text>
</g>
<!-- 3&#45;&gt;19 -->
<g id="edge105" class="edge">
<title>3&#45;&gt;19</title>
<path fill="none" stroke="green" stroke-width="0.8" d="M528.4,-293.77C531.07,-292.67 533.98,-291.67 536.78,-291.08 792.89,-237.32 2630.67,-272.57 2891.78,-255.08 2932.83,-252.33 2980.08,-246.15 3009.43,-241.95"/>
<polygon fill="green" stroke="green" stroke-width="0.8" points="3010,-245.4 3019.4,-240.5 3009,-238.47 3010,-245.4"/>
</g>
<!-- 3&#45;&gt;42 -->
<g id="edge185" class="edge">
<title>3&#45;&gt;42</title>
<path fill="none" stroke="green" stroke-width="0.8" d="M508.34,-291.06C480.45,-266.46 403,-190.99 445.78,-145.54 460.71,-129.67 1146.54,-99.71 1296.15,-93.36"/>
<polygon fill="green" stroke="green" stroke-width="0.8" points="1296.52,-96.85 1306.36,-92.93 1296.22,-89.85 1296.52,-96.85"/>
</g>
<!-- 4 -->
<g id="node4" class="node">
<title>4</title>
<polygon fill="lightgray" stroke="black" points="1818.28,-245.69 1797.28,-245.69 1797.28,-227.69 1818.28,-227.69 1818.28,-245.69"/>
<text text-anchor="middle" x="1807.78" y="-234.49" font-family="Times,serif" font-size="9.00">4</text>
</g>
<!-- 4&#45;&gt;28 -->
<g id="edge17" class="edge">
<title>4&#45;&gt;28</title>
<path fill="none" stroke="green" stroke-width="0.8" d="M1818.41,-235.25C1924.38,-230.77 2789.06,-194.02 2902.78,-182.31 3109.11,-161.06 3159.46,-145.32 3363.78,-109.54 3448.93,-94.63 3469.51,-87.01 3554.78,-72.77 3684.56,-51.1 3840.44,-30.85 3903.37,-22.92"/>
<polygon fill="green" stroke="green" stroke-width="0.8" points="3904.19,-26.34 3913.68,-21.62 3903.32,-19.4 3904.19,-26.34"/>
</g>
<!-- 4&#45;&gt;36 -->
<g id="edge18" class="edge">
<title>4&#45;&gt;36</title>
<path fill="none" stroke="green" stroke-width="0.8" d="M1801.64,-227.33C1780.67,-199.48 1708.49,-109.59 1624.78,-72.77 1579.85,-53.01 1237.85,-28.28 1136.19,-21.3"/>
<polygon fill="green" stroke="green" stroke-width="0.8" points="1136.28,-17.79 1126.06,-20.61 1135.8,-24.78 1136.28,-17.79"/>
</g>
<!-- 4&#45;&gt;21 -->
<g id="edge19" class="edge">
<title>4&#45;&gt;21</title>
<path fill="none" stroke="green" stroke-width="0.8" d="M1807.26,-227.62C1805.54,-198.23 1801.12,-97.42 1819.78,-72.77 1847.8,-35.75 1903.97,-24.37 1938.19,-20.89"/>
<polygon fill="green" stroke="green" stroke-width="0.8" points="1938.79,-24.35 1948.46,-20.02 1938.2,-17.38 1938.79,-24.35"/>
</g>
<!-- 4&#45;&gt;29 -->
<g id="edge20" class="edge">
<title>4&#45;&gt;29</title>
<path fill="none" stroke="green" stroke-width="0.8" d="M1818.55,-235.22C1927.66,-230.37 2829.53,-190.11 2855.78,-182.31 2886.59,-173.15 2953.38,-126.34 2980.78,-109.54 3006.48,-93.78 3009.72,-83.81 3037.78,-72.77 3132.12,-35.66 3253.39,-24.18 3307.94,-20.76"/>
<polygon fill="green" stroke="green" stroke-width="0.8" points="3308.45,-24.24 3318.23,-20.17 3308.05,-17.25 3308.45,-24.24"/>
</g>
<!-- 4&#45;&gt;30 -->
<g id="edge21" class="edge">
<title>4&#45;&gt;30</title>
<path fill="none" stroke="green" stroke-width="0.8" d="M1805.21,-227.57C1795.93,-199.71 1761.11,-107.82 1695.78,-72.77 1603.56,-23.3 1475.31,-18.15 1418.65,-18.56"/>
<polygon fill="green" stroke="green" stroke-width="0.8" points="1418.26,-15.07 1408.31,-18.7 1418.35,-22.06 1418.26,-15.07"/>
</g>
<!-- 4&#45;&gt;40 -->
<g id="edge22" class="edge">
<title>4&#45;&gt;40</title>
<path fill="none" stroke="green" stroke-width="0.8" d="M1815.14,-227.52C1832.44,-208.94 1877.97,-163.75 1926.78,-145.54 2154.63,-60.53 2247.54,-201.24 2472.78,-109.54 2496.07,-100.06 2493.27,-83.98 2515.78,-72.77 2587.41,-37.08 2682.71,-25.07 2729.47,-21.17"/>
<polygon fill="green" stroke="green" stroke-width="0.8" points="2729.77,-24.66 2739.47,-20.4 2729.23,-17.68 2729.77,-24.66"/>
</g>
<!-- 27 -->
<g id="node32" class="node">
<title>27</title>
<ellipse fill="white" stroke="black" cx="1628.78" cy="-163.92" rx="18.27" ry="18.27"/>
<text text-anchor="middle" x="1628.78" y="-161.72" font-family="Times,serif" font-size="9.00">27</text>
</g>
<!-- 4&#45;&gt;27 -->
<g id="edge179" class="edge">
<title>4&#45;&gt;27</title>
<path fill="none" stroke="green" stroke-width="0.8" d="M1797.12,-231.48C1769.5,-220.56 1695.02,-191.11 1655.02,-175.3"/>
<polygon fill="green" stroke="green" stroke-width="0.8" points="1656.23,-172.01 1645.64,-171.59 1653.66,-178.52 1656.23,-172.01"/>
</g>
<!-- 4&#45;&gt;42 -->
<g id="edge133" class="edge">
<title>4&#45;&gt;42</title>
<path fill="none" stroke="green" stroke-width="0.8" d="M1797.42,-227.64C1773.79,-209.71 1713.47,-166.44 1655.78,-145.54 1548.84,-106.79 1412.3,-96.09 1353.66,-93.2"/>
<polygon fill="green" stroke="green" stroke-width="0.8" points="1353.47,-89.69 1343.32,-92.73 1353.15,-96.68 1353.47,-89.69"/>
</g>
<!-- 5 -->
<g id="node5" class="node">
<title>5</title>
<polygon fill="lightgray" stroke="black" points="2269.28,-309.08 2248.28,-309.08 2248.28,-291.08 2269.28,-291.08 2269.28,-309.08"/>
<text text-anchor="middle" x="2258.78" y="-297.88" font-family="Times,serif" font-size="9.00">5</text>
</g>
<!-- 5&#45;&gt;28 -->
<g id="edge23" class="edge">
<title>5&#45;&gt;28</title>
<path fill="none" stroke="green" stroke-width="0.8" d="M2269.28,-297.04C2279.56,-295.14 2295.68,-292.4 2309.78,-291.08 2813.59,-243.78 2943.32,-294.89 3447.78,-255.08 3463.83,-253.81 4012.13,-194.39 4022.78,-182.31 4054.97,-145.79 4046.97,-115.02 4022.78,-72.77 4009.26,-49.17 3980.81,-34.99 3959.3,-27.24"/>
<polygon fill="green" stroke="green" stroke-width="0.8" points="3960.28,-23.87 3949.68,-24.03 3958.06,-30.51 3960.28,-23.87"/>
</g>
<!-- 5&#45;&gt;36 -->
<g id="edge24" class="edge">
<title>5&#45;&gt;36</title>
<path fill="none" stroke="green" stroke-width="0.8" d="M2247.99,-298.03C2229.67,-296.3 2191.3,-292.84 2158.78,-291.08 1875.97,-275.78 1163.99,-302.6 884.78,-255.08 878.22,-253.96 660.7,-187.68 656.78,-182.31 628.06,-143 624.44,-109.16 656.78,-72.77 684.96,-41.06 984.48,-24.94 1079.22,-20.6"/>
<polygon fill="green" stroke="green" stroke-width="0.8" points="1079.4,-24.1 1089.23,-20.16 1079.09,-17.11 1079.4,-24.1"/>
</g>
<!-- 5&#45;&gt;21 -->
<g id="edge25" class="edge">
<title>5&#45;&gt;21</title>
<path fill="none" stroke="green" stroke-width="0.8" d="M2248.09,-297.49C2197.23,-289.28 1978.86,-246.65 1895.78,-109.54 1887.31,-95.56 1888.48,-87.39 1895.78,-72.77 1905.16,-53.97 1924.67,-40.06 1940.87,-31.16"/>
<polygon fill="green" stroke="green" stroke-width="0.8" points="1942.63,-34.19 1949.92,-26.5 1939.43,-27.96 1942.63,-34.19"/>
</g>
<!-- 5&#45;&gt;29 -->
<g id="edge26" class="edge">
<title>5&#45;&gt;29</title>
<path fill="none" stroke="green" stroke-width="0.8" d="M2269.28,-297.05C2279.56,-295.16 2295.68,-292.43 2309.78,-291.08 2750.26,-248.72 2865.06,-304.73 3304.78,-255.08 3347.6,-250.24 3658.31,-215.52 3685.78,-182.31 3696.19,-169.72 3695.68,-158.54 3685.78,-145.54 3649.17,-97.52 3611.56,-130.08 3554.78,-109.54 3517.6,-96.09 3510.21,-88.12 3473.78,-72.77 3435.65,-56.7 3390.88,-39.58 3363.16,-29.18"/>
<polygon fill="green" stroke="green" stroke-width="0.8" points="3364.36,-25.89 3353.77,-25.67 3361.91,-32.45 3364.36,-25.89"/>
</g>
<!-- 5&#45;&gt;30 -->
<g id="edge27" class="edge">
<title>5&#45;&gt;30</title>
<path fill="none" stroke="green" stroke-width="0.8" d="M2248.28,-298.14C2230.07,-296.53 2191.45,-293.22 2158.78,-291.08 2080.62,-285.95 1526.69,-286.11 1454.78,-255.08 1411.84,-236.55 1397.14,-225.32 1378.78,-182.31 1359.59,-137.37 1371.22,-79.1 1380.88,-45.81"/>
<polygon fill="green" stroke="green" stroke-width="0.8" points="1384.32,-46.52 1383.9,-35.93 1377.63,-44.47 1384.32,-46.52"/>
</g>
<!-- 5&#45;&gt;40 -->
<g id="edge28" class="edge">
<title>5&#45;&gt;40</title>
<path fill="none" stroke="green" stroke-width="0.8" d="M2269.28,-297.06C2279.56,-295.17 2295.68,-292.44 2309.78,-291.08 2363.84,-285.86 3249.09,-294.19 3286.78,-255.08 3298.12,-243.31 3297.9,-230.28 3286.78,-218.31 3212.3,-138.17 2878.93,-253.41 2795.78,-182.31 2756.7,-148.89 2753.5,-83.79 2755.24,-46.79"/>
<polygon fill="green" stroke="green" stroke-width="0.8" points="2758.74,-46.92 2755.87,-36.72 2751.75,-46.48 2758.74,-46.92"/>
</g>
<!-- 5&#45;&gt;19 -->
<g id="edge120" class="edge">
<title>5&#45;&gt;19</title>
<path fill="none" stroke="green" stroke-width="0.8" d="M2269.29,-297.1C2279.57,-295.25 2295.69,-292.54 2309.78,-291.08 2463.82,-275.06 2856.71,-297.08 3005.78,-255.08 3008.43,-254.33 3011.1,-253.34 3013.71,-252.2"/>
<polygon fill="green" stroke="green" stroke-width="0.8" points="3015.39,-255.27 3022.75,-247.65 3012.24,-249.02 3015.39,-255.27"/>
</g>
<!-- 5&#45;&gt;23 -->
<g id="edge118" class="edge">
<title>5&#45;&gt;23</title>
<path fill="none" stroke="green" stroke-width="0.8" d="M2258.78,-291.05C2258.78,-284.49 2258.78,-274.8 2258.78,-265.47"/>
<polygon fill="green" stroke="green" stroke-width="0.8" points="2262.28,-265.28 2258.78,-255.28 2255.28,-265.28 2262.28,-265.28"/>
</g>
<!-- 5&#45;&gt;42 -->
<g id="edge151" class="edge">
<title>5&#45;&gt;42</title>
<path fill="none" stroke="green" stroke-width="0.8" d="M2248.28,-298.1C2230.07,-296.44 2191.46,-293.04 2158.78,-291.08 2109.16,-288.1 1299.21,-290.93 1264.78,-255.08 1225.73,-214.43 1275.75,-146.23 1305.54,-112.42"/>
<polygon fill="green" stroke="green" stroke-width="0.8" points="1308.16,-114.75 1312.26,-104.98 1302.96,-110.05 1308.16,-114.75"/>
</g>
<!-- 6 -->
<g id="node6" class="node">
<title>6</title>
<polygon fill="lightgray" stroke="black" points="3159.28,-309.08 3138.28,-309.08 3138.28,-291.08 3159.28,-291.08 3159.28,-309.08"/>
<text text-anchor="middle" x="3148.78" y="-297.88" font-family="Times,serif" font-size="9.00">6</text>
</g>
<!-- 6&#45;&gt;36 -->
<g id="edge29" class="edge">
<title>6&#45;&gt;36</title>
<path fill="none" stroke="green" stroke-width="0.8" d="M3137.86,-298.83C2992.3,-295.55 1439.08,-260.44 1416.78,-255.08 1380.37,-246.32 1133.61,-140.66 1112.78,-109.54 1100.49,-91.18 1100.22,-65.72 1102.45,-46.54"/>
<polygon fill="green" stroke="green" stroke-width="0.8" points="1105.92,-47.01 1103.89,-36.61 1098.99,-46 1105.92,-47.01"/>
</g>
<!-- 6&#45;&gt;21 -->
<g id="edge30" class="edge">
<title>6&#45;&gt;21</title>
<path fill="none" stroke="green" stroke-width="0.8" d="M3138.27,-298.79C3056.62,-296.5 2524.9,-280.65 2458.78,-255.08 2434.37,-245.64 2434.09,-233.5 2412.78,-218.31 2363.52,-183.2 2354.25,-167.2 2297.78,-145.54 2208.54,-111.32 2171.85,-151.08 2085.78,-109.54 2063.73,-98.9 2064.03,-87.89 2044.78,-72.77 2027.3,-59.05 2006.49,-44.9 1990.76,-34.62"/>
<polygon fill="green" stroke="green" stroke-width="0.8" points="1992.44,-31.55 1982.15,-29.05 1988.64,-37.42 1992.44,-31.55"/>
</g>
<!-- 6&#45;&gt;29 -->
<g id="edge31" class="edge">
<title>6&#45;&gt;29</title>
<path fill="none" stroke="green" stroke-width="0.8" d="M3159.54,-298.58C3258.05,-293.96 3999.96,-259.1 4003.78,-255.08 4196.66,-52.01 3516.63,-23.7 3365.81,-19.94"/>
<polygon fill="green" stroke="green" stroke-width="0.8" points="3365.58,-16.43 3355.5,-19.7 3365.41,-23.43 3365.58,-16.43"/>
</g>
<!-- 6&#45;&gt;30 -->
<g id="edge32" class="edge">
<title>6&#45;&gt;30</title>
<path fill="none" stroke="green" stroke-width="0.8" d="M3137.98,-298.84C3000.06,-295.82 1587.35,-264.62 1568.78,-255.08 1545.35,-243.04 1444.63,-99.1 1405.45,-42.26"/>
<polygon fill="green" stroke="green" stroke-width="0.8" points="1408.27,-40.18 1399.71,-33.92 1402.5,-44.14 1408.27,-40.18"/>
</g>
<!-- 6&#45;&gt;19 -->
<g id="edge113" class="edge">
<title>6&#45;&gt;19</title>
<path fill="none" stroke="green" stroke-width="0.8" d="M3138.13,-293.19C3120.79,-283.6 3086,-264.36 3062.3,-251.25"/>
<polygon fill="green" stroke="green" stroke-width="0.8" points="3063.96,-248.17 3053.51,-246.4 3060.57,-254.3 3063.96,-248.17"/>
</g>
<!-- 6&#45;&gt;23 -->
<g id="edge109" class="edge">
<title>6&#45;&gt;23</title>
<path fill="none" stroke="green" stroke-width="0.8" d="M3138.06,-298.81C3053.4,-296.68 2491.29,-281.65 2323.78,-255.08 2311.15,-253.07 2297.43,-249.61 2285.87,-246.29"/>
<polygon fill="green" stroke="green" stroke-width="0.8" points="2286.53,-242.84 2275.95,-243.34 2284.53,-249.54 2286.53,-242.84"/>
</g>
<!-- 6&#45;&gt;24 -->
<g id="edge132" class="edge">
<title>6&#45;&gt;24</title>
<path fill="none" stroke="green" stroke-width="0.8" d="M3159.42,-293.19C3176.76,-283.6 3211.55,-264.36 3235.26,-251.25"/>
<polygon fill="green" stroke="green" stroke-width="0.8" points="3236.98,-254.3 3244.04,-246.4 3233.6,-248.17 3236.98,-254.3"/>
</g>
<!-- 31 -->
<g id="node33" class="node">
<title>31</title>
<ellipse fill="white" stroke="black" cx="4259.78" cy="-91.15" rx="18.27" ry="18.27"/>
<text text-anchor="middle" x="4259.78" y="-88.95" font-family="Times,serif" font-size="9.00">31</text>
</g>
<!-- 6&#45;&gt;31 -->
<g id="edge110" class="edge">
<title>6&#45;&gt;31</title>
<path fill="none" stroke="green" stroke-width="0.8" d="M3159.54,-298.57C3263.03,-293.72 4078.32,-255.49 4079.78,-255.08 4144.65,-236.85 4165.61,-230.43 4212.78,-182.31 4230.56,-164.17 4243.2,-137.93 4250.86,-118.43"/>
<polygon fill="green" stroke="green" stroke-width="0.8" points="4254.19,-119.53 4254.42,-108.93 4247.64,-117.07 4254.19,-119.53"/>
</g>
<!-- 6&#45;&gt;37 -->
<g id="edge191" class="edge">
<title>6&#45;&gt;37</title>
<path fill="none" stroke="green" stroke-width="0.8" d="M3159.44,-298.55C3249.73,-294.02 3883.21,-262.05 3889.78,-255.08 3930.1,-212.29 3848.08,-154.6 3832.78,-145.54 3747.9,-95.28 3707.09,-141.53 3613.78,-109.54 3611.18,-108.65 3608.53,-107.56 3605.94,-106.36"/>
<polygon fill="green" stroke="green" stroke-width="0.8" points="3607.42,-103.18 3596.92,-101.73 3604.22,-109.41 3607.42,-103.18"/>
</g>
<!-- 6&#45;&gt;39 -->
<g id="edge145" class="edge">
<title>6&#45;&gt;39</title>
<path fill="none" stroke="green" stroke-width="0.8" d="M3159.57,-298.4C3228.45,-294.03 3604.56,-269.58 3623.78,-255.08 3643.29,-240.35 3651.93,-213.21 3655.75,-192.54"/>
<polygon fill="green" stroke="green" stroke-width="0.8" points="3659.25,-192.84 3657.34,-182.42 3652.33,-191.76 3659.25,-192.84"/>
</g>
<!-- 7 -->
<g id="node7" class="node">
<title>7</title>
<polygon fill="lightgray" stroke="black" points="567.28,-309.08 546.28,-309.08 546.28,-291.08 567.28,-291.08 567.28,-309.08"/>
<text text-anchor="middle" x="556.78" y="-297.88" font-family="Times,serif" font-size="9.00">7</text>
</g>
<!-- 7&#45;&gt;28 -->
<g id="edge33" class="edge">
<title>7&#45;&gt;28</title>
<path fill="none" stroke="green" stroke-width="0.8" d="M567.49,-298.85C613.6,-297.87 799.8,-293.93 952.78,-291.08 1011.44,-289.99 3011.4,-279.44 3064.78,-255.08 3084.75,-245.96 3078.43,-228.69 3097.78,-218.31 3195.15,-166.08 3240.65,-221.99 3343.78,-182.31 3371.22,-171.75 3371.24,-155.84 3398.78,-145.54 3517.53,-101.12 3560.42,-146.26 3681.78,-109.54 3716.93,-98.9 3721.64,-86.32 3755.78,-72.77 3806.88,-52.49 3868.86,-35.34 3903.97,-26.28"/>
<polygon fill="green" stroke="green" stroke-width="0.8" points="3905.13,-29.6 3913.96,-23.74 3903.4,-22.81 3905.13,-29.6"/>
</g>
<!-- 7&#45;&gt;36 -->
<g id="edge34" class="edge">
<title>7&#45;&gt;36</title>
<path fill="none" stroke="green" stroke-width="0.8" d="M545.96,-294.08C543.04,-292.91 539.83,-291.8 536.78,-291.08 490.34,-280.1 141.08,-290.21 108.78,-255.08 75.83,-219.24 93.92,-191.9 108.78,-145.54 120.91,-107.69 125.96,-91.94 160.78,-72.77 242.93,-27.54 928.73,-20.53 1078.82,-19.54"/>
<polygon fill="green" stroke="green" stroke-width="0.8" points="1079.09,-23.04 1089.07,-19.47 1079.05,-16.04 1079.09,-23.04"/>
</g>
<!-- 7&#45;&gt;21 -->
<g id="edge35" class="edge">
<title>7&#45;&gt;21</title>
<path fill="none" stroke="green" stroke-width="0.8" d="M567.6,-292.18C618.73,-259.99 842.26,-123.97 1046.78,-72.77 1134.98,-50.69 1791.99,-25.73 1938.06,-20.41"/>
<polygon fill="green" stroke="green" stroke-width="0.8" points="1938.55,-23.9 1948.42,-20.04 1938.3,-16.9 1938.55,-23.9"/>
</g>
<!-- 7&#45;&gt;29 -->
<g id="edge36" class="edge">
<title>7&#45;&gt;29</title>
<path fill="none" stroke="green" stroke-width="0.8" d="M567.49,-298.86C613.6,-297.9 799.81,-294.04 952.78,-291.08 1060.5,-288.99 2792.28,-296.41 2891.78,-255.08 2913.48,-246.06 2909.64,-230.42 2929.78,-218.31 2974.23,-191.59 2996.33,-209.03 3040.78,-182.31 3060.92,-170.2 3060.42,-160.22 3078.78,-145.54 3124.85,-108.69 3137.03,-99.19 3189.78,-72.77 3229.74,-52.76 3279.08,-36.41 3309.22,-27.29"/>
<polygon fill="green" stroke="green" stroke-width="0.8" points="3310.45,-30.57 3319.04,-24.37 3308.45,-23.87 3310.45,-30.57"/>
</g>
<!-- 7&#45;&gt;30 -->
<g id="edge37" class="edge">
<title>7&#45;&gt;30</title>
<path fill="none" stroke="green" stroke-width="0.8" d="M546.2,-294.81C543.17,-293.59 539.84,-292.27 536.78,-291.08 494.7,-274.69 471.29,-289.25 441.78,-255.08 388.8,-193.75 382.63,-123.57 445.78,-72.77 505.51,-24.72 1058.26,-41.38 1134.78,-36.77 1217.17,-31.81 1314.46,-24.88 1361.49,-21.46"/>
<polygon fill="green" stroke="green" stroke-width="0.8" points="1361.82,-24.95 1371.54,-20.73 1361.31,-17.96 1361.82,-24.95"/>
</g>
<!-- 7&#45;&gt;40 -->
<g id="edge38" class="edge">
<title>7&#45;&gt;40</title>
<path fill="none" stroke="green" stroke-width="0.8" d="M567.5,-298.85C693.6,-296.14 1890.08,-270.04 1922.78,-255.08 1952.89,-241.3 1993.93,-159.87 2023.78,-145.54 2232.63,-45.29 2332.16,-203.8 2543.78,-109.54 2565.25,-99.98 2561.52,-84.68 2581.78,-72.77 2629.42,-44.75 2693.1,-30.21 2729.35,-23.74"/>
<polygon fill="green" stroke="green" stroke-width="0.8" points="2730.4,-27.11 2739.67,-21.98 2729.22,-20.21 2730.4,-27.11"/>
</g>
<!-- 25 -->
<g id="node30" class="node">
<title>25</title>
<ellipse fill="white" stroke="black" cx="2518.78" cy="-236.69" rx="18.27" ry="18.27"/>
<text text-anchor="middle" x="2518.78" y="-234.49" font-family="Times,serif" font-size="9.00">25</text>
</g>
<!-- 7&#45;&gt;25 -->
<g id="edge174" class="edge">
<title>7&#45;&gt;25</title>
<path fill="none" stroke="green" stroke-width="0.8" d="M567.33,-298.85C711.26,-295.78 2281.49,-262.16 2377.78,-255.08 2417.04,-252.19 2462.15,-246.15 2490.56,-242"/>
<polygon fill="green" stroke="green" stroke-width="0.8" points="2491.2,-245.45 2500.58,-240.52 2490.18,-238.52 2491.2,-245.45"/>
</g>
<!-- 34 -->
<g id="node36" class="node">
<title>34</title>
<ellipse fill="white" stroke="black" cx="472.78" cy="-163.92" rx="18.27" ry="18.27"/>
<text text-anchor="middle" x="472.78" y="-161.72" font-family="Times,serif" font-size="9.00">34</text>
</g>
<!-- 7&#45;&gt;34 -->
<g id="edge187" class="edge">
<title>7&#45;&gt;34</title>
<path fill="none" stroke="green" stroke-width="0.8" d="M551.52,-290.69C538.96,-270.62 506.8,-219.27 487.69,-188.75"/>
<polygon fill="green" stroke="green" stroke-width="0.8" points="490.49,-186.62 482.22,-180 484.56,-190.33 490.49,-186.62"/>
</g>
<!-- 7&#45;&gt;35 -->
<g id="edge163" class="edge">
<title>7&#45;&gt;35</title>
<path fill="none" stroke="green" stroke-width="0.8" d="M546.04,-293.5C508.26,-273.21 386.31,-201.52 434.78,-145.54 478.98,-94.48 696.32,-91.19 775.15,-91.72"/>
<polygon fill="green" stroke="green" stroke-width="0.8" points="775.29,-95.22 785.32,-91.81 775.36,-88.22 775.29,-95.22"/>
</g>
<!-- 8 -->
<g id="node8" class="node">
<title>8</title>
<polygon fill="lightgray" stroke="black" points="2741.28,-245.69 2720.28,-245.69 2720.28,-227.69 2741.28,-227.69 2741.28,-245.69"/>
<text text-anchor="middle" x="2730.78" y="-234.49" font-family="Times,serif" font-size="9.00">8</text>
</g>
<!-- 8&#45;&gt;28 -->
<g id="edge39" class="edge">
<title>8&#45;&gt;28</title>
<path fill="none" stroke="green" stroke-width="0.8" d="M2741.5,-235.21C2798.39,-232.53 3070.43,-218.3 3289.78,-182.31 3360.5,-170.7 3376.91,-161.48 3446.78,-145.54 3518.69,-129.13 3537.23,-127.46 3608.78,-109.54 3719.13,-81.9 3849.21,-43.93 3904.6,-27.5"/>
<polygon fill="green" stroke="green" stroke-width="0.8" points="3905.77,-30.81 3914.36,-24.6 3903.78,-24.1 3905.77,-30.81"/>
</g>
<!-- 8&#45;&gt;36 -->
<g id="edge40" class="edge">
<title>8&#45;&gt;36</title>
<path fill="none" stroke="green" stroke-width="0.8" d="M2720.03,-234.66C2665.91,-229.4 2422.95,-204.88 2350.78,-182.31 2316.11,-171.47 2312.64,-155.77 2277.78,-145.54 2130.27,-102.25 2086.37,-128.14 1933.78,-109.54 1816.18,-95.2 1787.44,-86.55 1669.78,-72.77 1465.76,-48.88 1219.1,-28.33 1136.38,-21.66"/>
<polygon fill="green" stroke="green" stroke-width="0.8" points="1136.49,-18.16 1126.24,-20.84 1135.93,-25.13 1136.49,-18.16"/>
</g>
<!-- 8&#45;&gt;21 -->
<g id="edge41" class="edge">
<title>8&#45;&gt;21</title>
<path fill="none" stroke="green" stroke-width="0.8" d="M2723.74,-227.68C2707.2,-209.44 2663.65,-164.91 2616.78,-145.54 2487.36,-92.07 2430.37,-169.4 2303.78,-109.54 2282.53,-99.49 2286.7,-83.47 2265.78,-72.77 2175.11,-26.39 2051.08,-19.61 1995.62,-19.07"/>
<polygon fill="green" stroke="green" stroke-width="0.8" points="1995.48,-15.57 1985.47,-19.04 1995.46,-22.57 1995.48,-15.57"/>
</g>
<!-- 8&#45;&gt;29 -->
<g id="edge42" class="edge">
<title>8&#45;&gt;29</title>
<path fill="none" stroke="green" stroke-width="0.8" d="M2741.54,-233.6C2770.52,-227.76 2852.3,-209.85 2915.78,-182.31 2973.7,-157.18 2985.52,-144.97 3037.78,-109.54 3060.02,-94.46 3061.37,-84.01 3085.78,-72.77 3161.39,-37.94 3260.36,-25.51 3308.29,-21.34"/>
<polygon fill="green" stroke="green" stroke-width="0.8" points="3308.58,-24.83 3318.26,-20.53 3308.01,-17.85 3308.58,-24.83"/>
</g>
<!-- 8&#45;&gt;30 -->
<g id="edge43" class="edge">
<title>8&#45;&gt;30</title>
<path fill="none" stroke="green" stroke-width="0.8" d="M2720,-232.59C2675.17,-219.78 2498.86,-170.59 2350.78,-145.54 2196.16,-119.38 2155.38,-129.01 1999.78,-109.54 1774.9,-81.4 1504.81,-38.15 1418.06,-24.02"/>
<polygon fill="green" stroke="green" stroke-width="0.8" points="1418.38,-20.53 1407.95,-22.37 1417.26,-27.44 1418.38,-20.53"/>
</g>
<!-- 8&#45;&gt;40 -->
<g id="edge44" class="edge">
<title>8&#45;&gt;40</title>
<path fill="none" stroke="green" stroke-width="0.8" d="M2741.39,-234.9C2769.02,-232.31 2844.1,-221.82 2888.78,-182.31 2915.66,-158.53 2915.8,-144.53 2923.78,-109.54 2927.41,-93.61 2933.4,-85.98 2923.78,-72.77 2892.16,-29.39 2824.69,-20.49 2786.22,-19.12"/>
<polygon fill="green" stroke="green" stroke-width="0.8" points="2786.26,-15.62 2776.18,-18.91 2786.11,-22.62 2786.26,-15.62"/>
</g>
<!-- 22 -->
<g id="node27" class="node">
<title>22</title>
<ellipse fill="white" stroke="black" cx="3262.78" cy="-163.92" rx="18.27" ry="18.27"/>
<text text-anchor="middle" x="3262.78" y="-161.72" font-family="Times,serif" font-size="9.00">22</text>
</g>
<!-- 8&#45;&gt;22 -->
<g id="edge159" class="edge">
<title>8&#45;&gt;22</title>
<path fill="none" stroke="green" stroke-width="0.8" d="M2741.29,-234.51C2789.03,-229.08 2990.27,-205.9 3154.78,-182.31 3182.08,-178.39 3213.16,-173.33 3234.95,-169.67"/>
<polygon fill="green" stroke="green" stroke-width="0.8" points="3235.57,-173.12 3244.84,-168 3234.4,-166.22 3235.57,-173.12"/>
</g>
<!-- 8&#45;&gt;42 -->
<g id="edge131" class="edge">
<title>8&#45;&gt;42</title>
<path fill="none" stroke="green" stroke-width="0.8" d="M2720.26,-234.98C2673.37,-231.64 2478.77,-216.36 2322.78,-182.31 2268.69,-170.5 2258.26,-155.35 2203.78,-145.54 1926.45,-95.58 1851.99,-127.47 1570.78,-109.54 1492.06,-104.52 1399.24,-97.72 1353.38,-94.3"/>
<polygon fill="green" stroke="green" stroke-width="0.8" points="1353.52,-90.8 1343.29,-93.55 1353,-97.79 1353.52,-90.8"/>
</g>
<!-- 9 -->
<g id="node9" class="node">
<title>9</title>
<polygon fill="lightgray" stroke="black" points="4304.28,-309.08 4283.28,-309.08 4283.28,-291.08 4304.28,-291.08 4304.28,-309.08"/>
<text text-anchor="middle" x="4293.78" y="-297.88" font-family="Times,serif" font-size="9.00">9</text>
</g>
<!-- 9&#45;&gt;28 -->
<g id="edge45" class="edge">
<title>9&#45;&gt;28</title>
<path fill="none" stroke="green" stroke-width="0.8" d="M4304.42,-298.87C4347.16,-297.78 4505.54,-291.31 4535.78,-255.08 4563,-222.46 4636.21,-183.48 4532.78,-72.77 4493.29,-30.5 4074.55,-21.43 3960.39,-19.74"/>
<polygon fill="green" stroke="green" stroke-width="0.8" points="3960.36,-16.24 3950.31,-19.6 3960.26,-23.24 3960.36,-16.24"/>
</g>
<!-- 9&#45;&gt;21 -->
<g id="edge46" class="edge">
<title>9&#45;&gt;21</title>
<path fill="none" stroke="green" stroke-width="0.8" d="M4282.99,-298.93C4148.11,-297.11 2792.04,-278.26 2711.78,-255.08 2619.98,-228.56 2616.99,-177.03 2526.78,-145.54 2416.22,-106.95 2373.61,-155.19 2265.78,-109.54 2241.35,-99.2 2242.81,-83.98 2218.78,-72.77 2142.85,-37.37 2043.1,-25.19 1995.06,-21.21"/>
<polygon fill="green" stroke="green" stroke-width="0.8" points="1995.31,-17.71 1985.07,-20.44 1994.78,-24.69 1995.31,-17.71"/>
</g>
<!-- 9&#45;&gt;29 -->
<g id="edge47" class="edge">
<title>9&#45;&gt;29</title>
<path fill="none" stroke="green" stroke-width="0.8" d="M4304.45,-299.65C4332.02,-300.48 4405.74,-298.36 4437.78,-255.08 4497.61,-174.23 4450.31,-140.23 4314.78,-72.77 4271.2,-51.08 3522.98,-25.48 3365.66,-20.32"/>
<polygon fill="green" stroke="green" stroke-width="0.8" points="3365.48,-16.81 3355.37,-19.98 3365.25,-23.81 3365.48,-16.81"/>
</g>
<!-- 9&#45;&gt;30 -->
<g id="edge48" class="edge">
<title>9&#45;&gt;30</title>
<path fill="none" stroke="green" stroke-width="0.8" d="M4283.22,-298.92C4107.69,-296.32 1803,-262.05 1787.78,-255.08 1688.96,-209.83 1718.43,-127.93 1624.78,-72.77 1558.03,-33.45 1464.9,-23.08 1418.47,-20.35"/>
<polygon fill="green" stroke="green" stroke-width="0.8" points="1418.41,-16.85 1408.24,-19.83 1418.05,-23.84 1418.41,-16.85"/>
</g>
<!-- 9&#45;&gt;40 -->
<g id="edge49" class="edge">
<title>9&#45;&gt;40</title>
<path fill="none" stroke="green" stroke-width="0.8" d="M4283.27,-292C4233.6,-258.99 4016.29,-119.87 3814.78,-72.77 3712.24,-48.8 2945.72,-24.95 2786.63,-20.23"/>
<polygon fill="green" stroke="green" stroke-width="0.8" points="2786.35,-16.72 2776.25,-19.92 2786.14,-23.71 2786.35,-16.72"/>
</g>
<!-- 9&#45;&gt;31 -->
<g id="edge126" class="edge">
<title>9&#45;&gt;31</title>
<path fill="none" stroke="green" stroke-width="0.8" d="M4304.4,-299.19C4329.82,-298.82 4394.07,-293.91 4421.78,-255.08 4431.27,-241.78 4427.11,-233.76 4421.78,-218.31 4408.38,-179.47 4396.51,-171.64 4364.78,-145.54 4341.08,-126.05 4309.1,-111.07 4286.68,-102.01"/>
<polygon fill="green" stroke="green" stroke-width="0.8" points="4287.7,-98.65 4277.12,-98.26 4285.15,-105.17 4287.7,-98.65"/>
</g>
<!-- 33 -->
<g id="node35" class="node">
<title>33</title>
<ellipse fill="white" stroke="black" cx="1666.78" cy="-236.69" rx="18.27" ry="18.27"/>
<text text-anchor="middle" x="1666.78" y="-234.49" font-family="Times,serif" font-size="9.00">33</text>
</g>
<!-- 9&#45;&gt;33 -->
<g id="edge147" class="edge">
<title>9&#45;&gt;33</title>
<path fill="none" stroke="green" stroke-width="0.8" d="M4283.19,-298.93C4104.84,-296.5 1732.33,-263.91 1698.78,-255.08 1696.12,-254.38 1693.44,-253.41 1690.82,-252.3"/>
<polygon fill="green" stroke="green" stroke-width="0.8" points="1692.28,-249.11 1681.77,-247.77 1689.15,-255.37 1692.28,-249.11"/>
</g>
<!-- 9&#45;&gt;35 -->
<g id="edge103" class="edge">
<title>9&#45;&gt;35</title>
<path fill="none" stroke="green" stroke-width="0.8" d="M4283.1,-298.93C4103.27,-296.39 1710.35,-262.48 1639.78,-255.08 1318.1,-221.33 935.79,-126.31 831.31,-99.36"/>
<polygon fill="green" stroke="green" stroke-width="0.8" points="832.1,-95.95 821.54,-96.83 830.35,-102.73 832.1,-95.95"/>
</g>
<!-- 9&#45;&gt;37 -->
<g id="edge123" class="edge">
<title>9&#45;&gt;37</title>
<path fill="none" stroke="green" stroke-width="0.8" d="M4283.12,-294.51C4235.53,-274.26 4037.34,-191.6 3867.78,-145.54 3774.94,-120.32 3661.95,-103.08 3610.17,-95.9"/>
<polygon fill="green" stroke="green" stroke-width="0.8" points="3610.46,-92.41 3600.08,-94.52 3609.51,-99.35 3610.46,-92.41"/>
</g>
<!-- 10 -->
<g id="node10" class="node">
<title>10</title>
<polygon fill="lightgray" stroke="black" points="3354.78,-309.08 3328.78,-309.08 3328.78,-291.08 3354.78,-291.08 3354.78,-309.08"/>
<text text-anchor="middle" x="3341.78" y="-297.88" font-family="Times,serif" font-size="9.00">10</text>
</g>
<!-- 10&#45;&gt;28 -->
<g id="edge50" class="edge">
<title>10&#45;&gt;28</title>
<path fill="none" stroke="green" stroke-width="0.8" d="M3354.89,-298.64C3465.96,-294.86 4245.67,-267.93 4265.78,-255.08 4334.51,-211.16 4346.72,-128.08 4286.78,-72.77 4239.41,-29.06 4036.86,-21.13 3960.8,-19.7"/>
<polygon fill="green" stroke="green" stroke-width="0.8" points="3960.58,-16.2 3950.52,-19.53 3960.47,-23.19 3960.58,-16.2"/>
</g>
<!-- 10&#45;&gt;36 -->
<g id="edge51" class="edge">
<title>10&#45;&gt;36</title>
<path fill="none" stroke="green" stroke-width="0.8" d="M3328.76,-298.37C3299.94,-296.81 3228.58,-293.1 3168.78,-291.08 2982.62,-284.78 1674.88,-294.25 1492.78,-255.08 1472.59,-250.74 1165.69,-123.82 1150.78,-109.54 1132.76,-92.27 1121.41,-65.93 1114.93,-46.17"/>
<polygon fill="green" stroke="green" stroke-width="0.8" points="1118.25,-45.06 1111.97,-36.52 1111.55,-47.11 1118.25,-45.06"/>
</g>
<!-- 10&#45;&gt;21 -->
<g id="edge52" class="edge">
<title>10&#45;&gt;21</title>
<path fill="none" stroke="green" stroke-width="0.8" d="M3328.59,-298.46C3221.79,-293.4 2501.92,-259.19 2491.78,-255.08 2468.79,-245.75 2469.3,-233.61 2449.78,-218.31 2405.38,-183.51 2398.12,-166.58 2345.78,-145.54 2248.96,-106.62 2205.88,-158.58 2113.78,-109.54 2094.13,-99.08 2097.72,-85.94 2079.78,-72.77 2052.84,-53.01 2017.42,-37.7 1993.47,-28.64"/>
<polygon fill="green" stroke="green" stroke-width="0.8" points="1994.56,-25.32 1983.97,-25.15 1992.14,-31.89 1994.56,-25.32"/>
</g>
<!-- 10&#45;&gt;29 -->
<g id="edge53" class="edge">
<title>10&#45;&gt;29</title>
<path fill="none" stroke="green" stroke-width="0.8" d="M3355,-298.58C3456.16,-294.73 4104.11,-269.54 4117.78,-255.08 4341.71,-18.09 3531.33,-16.73 3365.78,-18.86"/>
<polygon fill="green" stroke="green" stroke-width="0.8" points="3365.36,-15.37 3355.41,-19.01 3365.46,-22.37 3365.36,-15.37"/>
</g>
<!-- 10&#45;&gt;30 -->
<g id="edge54" class="edge">
<title>10&#45;&gt;30</title>
<path fill="none" stroke="green" stroke-width="0.8" d="M3328.76,-298.37C3299.94,-296.84 3228.57,-293.16 3168.78,-291.08 3082.75,-288.09 1698.1,-290.78 1619.78,-255.08 1569.92,-232.35 1493.35,-110.66 1453.78,-72.77 1440.53,-60.09 1424.71,-46.88 1412.12,-36.77"/>
<polygon fill="green" stroke="green" stroke-width="0.8" points="1413.99,-33.79 1403.98,-30.31 1409.64,-39.27 1413.99,-33.79"/>
</g>
<!-- 10&#45;&gt;40 -->
<g id="edge55" class="edge">
<title>10&#45;&gt;40</title>
<path fill="none" stroke="green" stroke-width="0.8" d="M3354.8,-298.71C3445.57,-296.1 3980.73,-279.71 4003.78,-255.08 4014.94,-243.15 4012.18,-232.33 4003.78,-218.31 3986.16,-188.9 3899.58,-158.34 3867.78,-145.54 3812.32,-123.22 3667.72,-82.78 3608.78,-72.77 3289.55,-18.54 2894.55,-18.01 2786.33,-19"/>
<polygon fill="green" stroke="green" stroke-width="0.8" points="2786.17,-15.5 2776.21,-19.11 2786.24,-22.5 2786.17,-15.5"/>
</g>
<!-- 10&#45;&gt;25 -->
<g id="edge164" class="edge">
<title>10&#45;&gt;25</title>
<path fill="none" stroke="green" stroke-width="0.8" d="M3328.73,-298.43C3227.45,-293.41 2570.31,-260.62 2550.78,-255.08 2548.13,-254.33 2545.46,-253.33 2542.85,-252.19"/>
<polygon fill="green" stroke="green" stroke-width="0.8" points="2544.32,-249.01 2533.81,-247.64 2541.17,-255.26 2544.32,-249.01"/>
</g>
<!-- 10&#45;&gt;31 -->
<g id="edge139" class="edge">
<title>10&#45;&gt;31</title>
<path fill="none" stroke="green" stroke-width="0.8" d="M3355.09,-298.74C3462.94,-295.92 4191.08,-276.15 4231.78,-255.08 4268.26,-236.19 4275.38,-221.14 4288.78,-182.31 4294.11,-166.86 4292.8,-161.38 4288.78,-145.54 4286.12,-135.07 4280.94,-124.43 4275.69,-115.44"/>
<polygon fill="green" stroke="green" stroke-width="0.8" points="4278.54,-113.39 4270.3,-106.73 4272.59,-117.08 4278.54,-113.39"/>
</g>
<!-- 11 -->
<g id="node11" class="node">
<title>11</title>
<polygon fill="lightgray" stroke="black" points="2419.78,-100.15 2393.78,-100.15 2393.78,-82.15 2419.78,-82.15 2419.78,-100.15"/>
<text text-anchor="middle" x="2406.78" y="-88.95" font-family="Times,serif" font-size="9.00">11</text>
</g>
<!-- 11&#45;&gt;28 -->
<g id="edge56" class="edge">
<title>11&#45;&gt;28</title>
<path fill="none" stroke="green" stroke-width="0.8" d="M2414.56,-81.99C2418.46,-78.47 2423.48,-74.72 2428.78,-72.77 2446.77,-66.16 3697.42,-26.73 3903.25,-20.28"/>
<polygon fill="green" stroke="green" stroke-width="0.8" points="3903.4,-23.77 3913.29,-19.96 3903.18,-16.78 3903.4,-23.77"/>
</g>
<!-- 11&#45;&gt;36 -->
<g id="edge57" class="edge">
<title>11&#45;&gt;36</title>
<path fill="none" stroke="green" stroke-width="0.8" d="M2393.52,-89.56C2304.57,-85.57 1785.34,-61.98 1362.78,-36.77 1280.38,-31.85 1183.1,-24.9 1136.06,-21.47"/>
<polygon fill="green" stroke="green" stroke-width="0.8" points="1136.24,-17.97 1126.01,-20.73 1135.73,-24.96 1136.24,-17.97"/>
</g>
<!-- 11&#45;&gt;21 -->
<g id="edge58" class="edge">
<title>11&#45;&gt;21</title>
<path fill="none" stroke="green" stroke-width="0.8" d="M2396.33,-81.87C2391.54,-78.51 2385.64,-74.91 2379.78,-72.77 2242.16,-22.49 2063.61,-18.36 1995.17,-18.82"/>
<polygon fill="green" stroke="green" stroke-width="0.8" points="1995.12,-15.32 1985.16,-18.93 1995.2,-22.32 1995.12,-15.32"/>
</g>
<!-- 11&#45;&gt;29 -->
<g id="edge59" class="edge">
<title>11&#45;&gt;29</title>
<path fill="none" stroke="green" stroke-width="0.8" d="M2414.59,-82.05C2418.49,-78.54 2423.5,-74.78 2428.78,-72.77 2512.56,-40.88 3162.17,-23.56 3307.85,-20.05"/>
<polygon fill="green" stroke="green" stroke-width="0.8" points="3308.27,-23.54 3318.19,-19.81 3308.11,-16.55 3308.27,-23.54"/>
</g>
<!-- 11&#45;&gt;30 -->
<g id="edge60" class="edge">
<title>11&#45;&gt;30</title>
<path fill="none" stroke="green" stroke-width="0.8" d="M2393.57,-89.03C2359.72,-86.18 2267.05,-78.44 2189.78,-72.77 1888.07,-50.62 1522.06,-27.6 1418.37,-21.15"/>
<polygon fill="green" stroke="green" stroke-width="0.8" points="1418.3,-17.64 1408.1,-20.52 1417.86,-24.63 1418.3,-17.64"/>
</g>
<!-- 11&#45;&gt;40 -->
<g id="edge61" class="edge">
<title>11&#45;&gt;40</title>
<path fill="none" stroke="green" stroke-width="0.8" d="M2415.09,-81.93C2418.95,-78.57 2423.79,-74.97 2428.78,-72.77 2532.73,-27 2670.68,-20.03 2729.39,-19.27"/>
<polygon fill="green" stroke="green" stroke-width="0.8" points="2729.43,-22.77 2739.41,-19.19 2729.38,-15.77 2729.43,-22.77"/>
</g>
<!-- 12 -->
<g id="node12" class="node">
<title>12</title>
<polygon fill="lightgray" stroke="black" points="987.78,-309.08 961.78,-309.08 961.78,-291.08 987.78,-291.08 987.78,-309.08"/>
<text text-anchor="middle" x="974.78" y="-297.88" font-family="Times,serif" font-size="9.00">12</text>
</g>
<!-- 12&#45;&gt;28 -->
<g id="edge62" class="edge">
<title>12&#45;&gt;28</title>
<path fill="none" stroke="green" stroke-width="0.8" d="M987.89,-298.87C1164.73,-296.02 3071.5,-265.09 3097.78,-255.08 3121.28,-246.12 3117.85,-228.63 3140.78,-218.31 3246.35,-170.78 3287.99,-215.93 3398.78,-182.31 3434.68,-171.41 3439.03,-156.94 3474.78,-145.54 3566.67,-116.24 3595.6,-134.42 3688.78,-109.54 3770.05,-87.84 3862.2,-49.76 3906.01,-30.79"/>
<polygon fill="green" stroke="green" stroke-width="0.8" points="3907.57,-33.93 3915.34,-26.72 3904.77,-27.51 3907.57,-33.93"/>
</g>
<!-- 12&#45;&gt;36 -->
<g id="edge63" class="edge">
<title>12&#45;&gt;36</title>
<path fill="none" stroke="green" stroke-width="0.8" d="M961.75,-299.11C879.25,-299.18 428.57,-297.59 298.78,-255.08 241.66,-236.37 213.67,-235.02 184.78,-182.31 161.38,-139.62 151.36,-108.17 184.78,-72.77 216.22,-39.46 925.57,-23.11 1078.78,-19.96"/>
<polygon fill="green" stroke="green" stroke-width="0.8" points="1079.29,-23.45 1089.21,-19.74 1079.14,-16.45 1079.29,-23.45"/>
</g>
<!-- 12&#45;&gt;21 -->
<g id="edge64" class="edge">
<title>12&#45;&gt;21</title>
<path fill="none" stroke="green" stroke-width="0.8" d="M961.71,-294.15C946.76,-287.72 923.02,-274.9 912.78,-255.08 905.28,-240.56 904.07,-232.14 912.78,-218.31 992.62,-91.56 1071.97,-111.1 1216.78,-72.77 1356.89,-35.68 1818.28,-22.77 1938.13,-19.99"/>
<polygon fill="green" stroke="green" stroke-width="0.8" points="1938.41,-23.49 1948.33,-19.76 1938.25,-16.49 1938.41,-23.49"/>
</g>
<!-- 12&#45;&gt;29 -->
<g id="edge65" class="edge">
<title>12&#45;&gt;29</title>
<path fill="none" stroke="green" stroke-width="0.8" d="M987.87,-298.85C1156.91,-295.89 2905.93,-265.04 2929.78,-255.08 2951.46,-246.02 2947.64,-230.42 2967.78,-218.31 3012.23,-191.59 3034.33,-209.03 3078.78,-182.31 3098.92,-170.2 3097.56,-159.07 3116.78,-145.54 3146.36,-124.71 3160.2,-130.37 3189.78,-109.54 3208.99,-96.01 3208.54,-86.27 3227.78,-72.77 3253.92,-54.42 3287.31,-39.08 3310.21,-29.63"/>
<polygon fill="green" stroke="green" stroke-width="0.8" points="3311.67,-32.81 3319.63,-25.82 3309.04,-26.32 3311.67,-32.81"/>
</g>
<!-- 12&#45;&gt;30 -->
<g id="edge66" class="edge">
<title>12&#45;&gt;30</title>
<path fill="none" stroke="green" stroke-width="0.8" d="M961.74,-298.64C887.48,-296.04 519.77,-281.86 477.78,-255.08 433.82,-227.04 420.09,-195.26 435.78,-145.54 447.66,-107.88 452.26,-91.96 486.78,-72.77 549.8,-37.72 1062.8,-41.22 1134.78,-36.77 1217.16,-31.67 1314.45,-24.8 1361.49,-21.43"/>
<polygon fill="green" stroke="green" stroke-width="0.8" points="1361.82,-24.92 1371.54,-20.71 1361.31,-17.93 1361.82,-24.92"/>
</g>
<!-- 12&#45;&gt;40 -->
<g id="edge67" class="edge">
<title>12&#45;&gt;40</title>
<path fill="none" stroke="green" stroke-width="0.8" d="M988.03,-298.77C1102.04,-296.1 1914.45,-276.35 1960.78,-255.08 1991.14,-241.14 2033.59,-159.85 2063.78,-145.54 2272.3,-46.66 2370.98,-203.47 2581.78,-109.54 2603.24,-99.97 2599.98,-85.43 2619.78,-72.77 2655.05,-50.21 2701.34,-34.74 2730.33,-26.47"/>
<polygon fill="green" stroke="green" stroke-width="0.8" points="2731.47,-29.79 2740.17,-23.75 2729.6,-23.04 2731.47,-29.79"/>
</g>
<!-- 12&#45;&gt;19 -->
<g id="edge127" class="edge">
<title>12&#45;&gt;19</title>
<path fill="none" stroke="green" stroke-width="0.8" d="M987.82,-298.87C1154.46,-296.25 2863.36,-269.02 2967.78,-255.08 2982.17,-253.16 2997.9,-249.41 3010.79,-245.88"/>
<polygon fill="green" stroke="green" stroke-width="0.8" points="3011.77,-249.24 3020.44,-243.14 3009.86,-242.5 3011.77,-249.24"/>
</g>
<!-- 20 -->
<g id="node26" class="node">
<title>20</title>
<ellipse fill="white" stroke="black" cx="1597.78" cy="-91.15" rx="18.27" ry="18.27"/>
<text text-anchor="middle" x="1597.78" y="-88.95" font-family="Times,serif" font-size="9.00">20</text>
</g>
<!-- 12&#45;&gt;20 -->
<g id="edge167" class="edge">
<title>12&#45;&gt;20</title>
<path fill="none" stroke="green" stroke-width="0.8" d="M988.03,-294.19C1022.89,-281.36 1120.12,-245.83 1201.78,-218.31 1339.73,-171.81 1506.22,-120.24 1570.57,-100.48"/>
<polygon fill="green" stroke="green" stroke-width="0.8" points="1571.81,-103.76 1580.34,-97.48 1569.75,-97.07 1571.81,-103.76"/>
</g>
<!-- 12&#45;&gt;24 -->
<g id="edge146" class="edge">
<title>12&#45;&gt;24</title>
<path fill="none" stroke="green" stroke-width="0.8" d="M988.01,-298.86C1168.54,-295.89 3136.51,-263.32 3194.78,-255.08 3207.44,-253.29 3221.16,-249.85 3232.72,-246.5"/>
<polygon fill="green" stroke="green" stroke-width="0.8" points="3234.08,-249.74 3242.63,-243.5 3232.05,-243.04 3234.08,-249.74"/>
</g>
<!-- 12&#45;&gt;27 -->
<g id="edge173" class="edge">
<title>12&#45;&gt;27</title>
<path fill="none" stroke="green" stroke-width="0.8" d="M987.84,-296.4C1067.46,-280.07 1487.71,-193.86 1600.75,-170.67"/>
<polygon fill="green" stroke="green" stroke-width="0.8" points="1601.62,-174.07 1610.71,-168.63 1600.21,-167.21 1601.62,-174.07"/>
</g>
<!-- 12&#45;&gt;33 -->
<g id="edge157" class="edge">
<title>12&#45;&gt;33</title>
<path fill="none" stroke="green" stroke-width="0.8" d="M987.98,-297.91C1070.97,-290.55 1520.76,-250.65 1638.54,-240.2"/>
<polygon fill="green" stroke="green" stroke-width="0.8" points="1638.92,-243.68 1648.57,-239.31 1638.3,-236.71 1638.92,-243.68"/>
</g>
<!-- 12&#45;&gt;35 -->
<g id="edge112" class="edge">
<title>12&#45;&gt;35</title>
<path fill="none" stroke="green" stroke-width="0.8" d="M961.48,-299.4C910.71,-300.27 724.65,-300.03 580.78,-255.08 515.72,-234.75 480.72,-240.83 445.78,-182.31 437.4,-168.28 435.11,-157.92 445.78,-145.54 488.39,-96.1 697.57,-91.74 774.94,-91.86"/>
<polygon fill="green" stroke="green" stroke-width="0.8" points="774.94,-95.36 784.95,-91.9 774.96,-88.36 774.94,-95.36"/>
</g>
<!-- 12&#45;&gt;42 -->
<g id="edge184" class="edge">
<title>12&#45;&gt;42</title>
<path fill="none" stroke="green" stroke-width="0.8" d="M961.68,-292.4C949.06,-285.14 930.74,-272.24 922.78,-255.08 915.9,-240.25 913.52,-231.77 922.78,-218.31 966.61,-154.59 1212.31,-110.06 1296.48,-96.5"/>
<polygon fill="green" stroke="green" stroke-width="0.8" points="1297.04,-99.95 1306.37,-94.93 1295.94,-93.04 1297.04,-99.95"/>
</g>
<!-- 13 -->
<g id="node13" class="node">
<title>13</title>
<polygon fill="lightgray" stroke="black" points="2846.78,-172.92 2820.78,-172.92 2820.78,-154.92 2846.78,-154.92 2846.78,-172.92"/>
<text text-anchor="middle" x="2833.78" y="-161.72" font-family="Times,serif" font-size="9.00">13</text>
</g>
<!-- 13&#45;&gt;28 -->
<g id="edge68" class="edge">
<title>13&#45;&gt;28</title>
<path fill="none" stroke="green" stroke-width="0.8" d="M2846.95,-159.92C2902.68,-147.31 3124.79,-98.16 3309.78,-72.77 3537.58,-41.5 3814.99,-25.4 3903.33,-20.79"/>
<polygon fill="green" stroke="green" stroke-width="0.8" points="3903.58,-24.29 3913.38,-20.28 3903.22,-17.3 3903.58,-24.29"/>
</g>
<!-- 13&#45;&gt;21 -->
<g id="edge69" class="edge">
<title>13&#45;&gt;21</title>
<path fill="none" stroke="green" stroke-width="0.8" d="M2820.57,-161.66C2745.41,-154.46 2374.24,-118.56 2351.78,-109.54 2326.84,-99.52 2328.47,-83.37 2303.78,-72.77 2196.67,-26.8 2055.14,-19.96 1995.36,-19.25"/>
<polygon fill="green" stroke="green" stroke-width="0.8" points="1995.2,-15.75 1985.18,-19.19 1995.16,-22.75 1995.2,-15.75"/>
</g>
<!-- 13&#45;&gt;29 -->
<g id="edge70" class="edge">
<title>13&#45;&gt;29</title>
<path fill="none" stroke="green" stroke-width="0.8" d="M2846.42,-154.68C2874.53,-136.75 2944.88,-94.11 3009.78,-72.77 3116.3,-37.75 3250.2,-25.11 3308.02,-21.07"/>
<polygon fill="green" stroke="green" stroke-width="0.8" points="3308.48,-24.55 3318.22,-20.39 3308.01,-17.56 3308.48,-24.55"/>
</g>
<!-- 13&#45;&gt;30 -->
<g id="edge71" class="edge">
<title>13&#45;&gt;30</title>
<path fill="none" stroke="green" stroke-width="0.8" d="M2820.56,-161.71C2760.48,-156.18 2507.2,-132.62 2299.78,-109.54 2166.27,-94.69 2133.37,-86.8 1999.78,-72.77 1775.96,-49.27 1505.18,-28.13 1418.15,-21.52"/>
<polygon fill="green" stroke="green" stroke-width="0.8" points="1418.25,-18.01 1408.01,-20.75 1417.72,-24.99 1418.25,-18.01"/>
</g>
<!-- 13&#45;&gt;40 -->
<g id="edge72" class="edge">
<title>13&#45;&gt;40</title>
<path fill="none" stroke="green" stroke-width="0.8" d="M2838.26,-154.83C2846.77,-138.26 2863.14,-99.75 2847.78,-72.77 2834.43,-49.33 2806.29,-35.12 2785,-27.32"/>
<polygon fill="green" stroke="green" stroke-width="0.8" points="2786.09,-23.99 2775.49,-24.09 2783.83,-30.62 2786.09,-23.99"/>
</g>
<!-- 13&#45;&gt;20 -->
<g id="edge134" class="edge">
<title>13&#45;&gt;20</title>
<path fill="none" stroke="green" stroke-width="0.8" d="M2820.73,-162.18C2701.39,-155.34 1799.43,-103.7 1626.43,-93.79"/>
<polygon fill="green" stroke="green" stroke-width="0.8" points="1626.5,-90.29 1616.31,-93.22 1626.1,-97.28 1626.5,-90.29"/>
</g>
<!-- 13&#45;&gt;37 -->
<g id="edge122" class="edge">
<title>13&#45;&gt;37</title>
<path fill="none" stroke="green" stroke-width="0.8" d="M2847.08,-161.67C2934.6,-153.38 3428.27,-106.68 3553.1,-94.87"/>
<polygon fill="green" stroke="green" stroke-width="0.8" points="3553.75,-98.32 3563.37,-93.9 3553.09,-91.35 3553.75,-98.32"/>
</g>
<!-- 14 -->
<g id="node14" class="node">
<title>14</title>
<polygon fill="lightgray" stroke="black" points="3660.78,-309.08 3634.78,-309.08 3634.78,-291.08 3660.78,-291.08 3660.78,-309.08"/>
<text text-anchor="middle" x="3647.78" y="-297.88" font-family="Times,serif" font-size="9.00">14</text>
</g>
<!-- 14&#45;&gt;28 -->
<g id="edge73" class="edge">
<title>14&#45;&gt;28</title>
<path fill="none" stroke="green" stroke-width="0.8" d="M3660.99,-298.75C3754.4,-296.4 4313.46,-281.28 4383.78,-255.08 4465.89,-224.48 4495.9,-194.64 4516.78,-109.54 4520.67,-93.67 4527.8,-84.84 4516.78,-72.77 4478.89,-31.27 4072.59,-21.66 3960.36,-19.79"/>
<polygon fill="green" stroke="green" stroke-width="0.8" points="3960.2,-16.28 3950.15,-19.62 3960.09,-23.28 3960.2,-16.28"/>
</g>
<!-- 14&#45;&gt;36 -->
<g id="edge74" class="edge">
<title>14&#45;&gt;36</title>
<path fill="none" stroke="green" stroke-width="0.8" d="M3634.76,-298.68C3594.48,-297.44 3468.32,-293.63 3363.78,-291.08 3170.02,-286.35 1810.91,-287.24 1619.78,-255.08 1524.85,-239.1 1294.03,-159.55 1211.78,-109.54 1179.33,-89.81 1147.1,-59.84 1127.31,-39.94"/>
<polygon fill="green" stroke="green" stroke-width="0.8" points="1129.61,-37.29 1120.12,-32.6 1124.61,-42.19 1129.61,-37.29"/>
</g>
<!-- 14&#45;&gt;21 -->
<g id="edge75" class="edge">
<title>14&#45;&gt;21</title>
<path fill="none" stroke="green" stroke-width="0.8" d="M3634.72,-298.68C3515.08,-295.02 2613.51,-267.07 2588.78,-255.08 2531.06,-227.08 2551.06,-176.32 2494.78,-145.54 2393.58,-90.2 2347.24,-145.88 2237.78,-109.54 2205.54,-98.84 2202.34,-85.34 2170.78,-72.77 2110.02,-48.58 2034.73,-32.16 1994.77,-24.44"/>
<polygon fill="green" stroke="green" stroke-width="0.8" points="1995.19,-20.95 1984.71,-22.54 1993.88,-27.83 1995.19,-20.95"/>
</g>
<!-- 14&#45;&gt;29 -->
<g id="edge76" class="edge">
<title>14&#45;&gt;29</title>
<path fill="none" stroke="green" stroke-width="0.8" d="M3660.85,-298.9C3745.43,-297.68 4213.44,-289.39 4265.78,-255.08 4333.99,-210.36 4349.23,-125.23 4286.78,-72.77 4250.61,-42.39 3520.5,-23.68 3365.53,-20.04"/>
<polygon fill="green" stroke="green" stroke-width="0.8" points="3365.46,-16.53 3355.38,-19.8 3365.3,-23.53 3365.46,-16.53"/>
</g>
<!-- 14&#45;&gt;40 -->
<g id="edge77" class="edge">
<title>14&#45;&gt;40</title>
<path fill="none" stroke="green" stroke-width="0.8" d="M3660.94,-298.54C3724.34,-295.82 3996.3,-282.61 4020.78,-255.08 4031.64,-242.86 4028.05,-232.94 4020.78,-218.31 3950.36,-76.57 3851.42,-101.46 3695.78,-72.77 3514.8,-39.41 2924.15,-23.38 2786.59,-20.05"/>
<polygon fill="green" stroke="green" stroke-width="0.8" points="2786.51,-16.55 2776.43,-19.81 2786.34,-23.55 2786.51,-16.55"/>
</g>
<!-- 14&#45;&gt;22 -->
<g id="edge170" class="edge">
<title>14&#45;&gt;22</title>
<path fill="none" stroke="green" stroke-width="0.8" d="M3644.18,-291.04C3636.26,-274.39 3615.65,-236.21 3585.78,-218.31 3536.15,-188.56 3361.14,-172.36 3291.59,-166.98"/>
<polygon fill="green" stroke="green" stroke-width="0.8" points="3291.6,-163.47 3281.37,-166.21 3291.08,-170.45 3291.6,-163.47"/>
</g>
<!-- 14&#45;&gt;25 -->
<g id="edge160" class="edge">
<title>14&#45;&gt;25</title>
<path fill="none" stroke="green" stroke-width="0.8" d="M3634.63,-298.72C3514.21,-295.44 2605.67,-270.21 2550.78,-255.08 2548.13,-254.35 2545.45,-253.36 2542.84,-252.23"/>
<polygon fill="green" stroke="green" stroke-width="0.8" points="2544.3,-249.05 2533.8,-247.69 2541.16,-255.31 2544.3,-249.05"/>
</g>
<!-- 14&#45;&gt;27 -->
<g id="edge143" class="edge">
<title>14&#45;&gt;27</title>
<path fill="none" stroke="green" stroke-width="0.8" d="M3634.76,-298.68C3594.48,-297.45 3468.32,-293.64 3363.78,-291.08 3315.89,-289.9 1675.31,-287.2 1639.78,-255.08 1622.75,-239.68 1621.53,-212.63 1623.65,-192.16"/>
<polygon fill="green" stroke="green" stroke-width="0.8" points="1627.13,-192.54 1625,-182.16 1620.19,-191.6 1627.13,-192.54"/>
</g>
<!-- 14&#45;&gt;39 -->
<g id="edge158" class="edge">
<title>14&#45;&gt;39</title>
<path fill="none" stroke="green" stroke-width="0.8" d="M3660.84,-297.64C3696.63,-293.41 3794.82,-279.71 3813.78,-255.08 3850.89,-206.85 3740.96,-179.71 3686.9,-169.57"/>
<polygon fill="green" stroke="green" stroke-width="0.8" points="3687.36,-166.1 3676.89,-167.77 3686.12,-172.99 3687.36,-166.1"/>
</g>
<!-- 15 -->
<g id="node15" class="node">
<title>15</title>
<polygon fill="lightgray" stroke="black" points="1533.78,-309.08 1507.78,-309.08 1507.78,-291.08 1533.78,-291.08 1533.78,-309.08"/>
<text text-anchor="middle" x="1520.78" y="-297.88" font-family="Times,serif" font-size="9.00">15</text>
</g>
<!-- 15&#45;&gt;28 -->
<g id="edge78" class="edge">
<title>15&#45;&gt;28</title>
<path fill="none" stroke="green" stroke-width="0.8" d="M1533.91,-298.87C1688.39,-296.36 3154.15,-272.14 3194.78,-255.08 3216.45,-245.98 3211.7,-228.71 3232.78,-218.31 3330.3,-170.2 3370.87,-214.35 3474.78,-182.31 3510.63,-171.25 3514.73,-155.96 3550.78,-145.54 3687.84,-105.9 3747.43,-182.94 3869.78,-109.54 3894.25,-94.86 3911.35,-66.37 3921.3,-45.33"/>
<polygon fill="green" stroke="green" stroke-width="0.8" points="3924.6,-46.53 3925.49,-35.97 3918.21,-43.67 3924.6,-46.53"/>
</g>
<!-- 15&#45;&gt;36 -->
<g id="edge79" class="edge">
<title>15&#45;&gt;36</title>
<path fill="none" stroke="green" stroke-width="0.8" d="M1507.55,-298.97C1393.63,-297.95 579.96,-289.53 477.78,-255.08 370.52,-218.91 321.17,-209.87 268.78,-109.54 261.21,-95.05 257.6,-84.69 268.78,-72.77 297.13,-42.56 935.35,-23.94 1079.17,-20.12"/>
<polygon fill="green" stroke="green" stroke-width="0.8" points="1079.48,-23.61 1089.38,-19.85 1079.29,-16.61 1079.48,-23.61"/>
</g>
<!-- 15&#45;&gt;21 -->
<g id="edge80" class="edge">
<title>15&#45;&gt;21</title>
<path fill="none" stroke="green" stroke-width="0.8" d="M1507.36,-298.72C1438.68,-296.73 1128.68,-286.06 1100.78,-255.08 1081.8,-234.01 1108.01,-157.56 1118.78,-145.54 1149.74,-110.98 1173.84,-127.14 1216.78,-109.54 1253.36,-94.54 1259.5,-82.66 1297.78,-72.77 1421.83,-40.71 1826.48,-24.34 1938.06,-20.36"/>
<polygon fill="green" stroke="green" stroke-width="0.8" points="1938.34,-23.85 1948.21,-20 1938.09,-16.85 1938.34,-23.85"/>
</g>
<!-- 15&#45;&gt;29 -->
<g id="edge81" class="edge">
<title>15&#45;&gt;29</title>
<path fill="none" stroke="green" stroke-width="0.8" d="M1533.93,-298.93C1674.57,-297.3 2897.09,-282.41 2967.78,-255.08 2991.23,-246.01 2988.92,-230.75 3010.78,-218.31 3054.02,-193.7 3072.06,-204.12 3116.78,-182.31 3169.8,-156.45 3181.71,-146.38 3227.78,-109.54 3246.13,-94.86 3247.91,-88.03 3265.78,-72.77 3281.22,-59.58 3299.56,-45.84 3313.73,-35.6"/>
<polygon fill="green" stroke="green" stroke-width="0.8" points="3315.86,-38.38 3321.95,-29.71 3311.78,-32.69 3315.86,-38.38"/>
</g>
<!-- 15&#45;&gt;30 -->
<g id="edge82" class="edge">
<title>15&#45;&gt;30</title>
<path fill="none" stroke="green" stroke-width="0.8" d="M1507.55,-298.73C1416.16,-296.3 877.47,-281 715.78,-255.08 593.06,-235.41 521.36,-280.96 445.78,-182.31 435.84,-169.34 438.78,-160.31 445.78,-145.54 448.51,-139.77 528.83,-75.09 534.78,-72.77 659.18,-24.14 1001.48,-45.31 1134.78,-36.77 1216.94,-31.5 1313.96,-24.74 1361.14,-21.41"/>
<polygon fill="green" stroke="green" stroke-width="0.8" points="1361.5,-24.9 1371.22,-20.7 1361,-17.91 1361.5,-24.9"/>
</g>
<!-- 15&#45;&gt;40 -->
<g id="edge83" class="edge">
<title>15&#45;&gt;40</title>
<path fill="none" stroke="green" stroke-width="0.8" d="M1534.03,-299.04C1602.1,-298.64 1912.64,-294.67 1998.78,-255.08 2062.33,-225.87 2047.92,-174.08 2111.78,-145.54 2318.42,-53.18 2413.09,-201.8 2619.78,-109.54 2641.24,-99.96 2638.78,-86.61 2657.78,-72.77 2681.26,-55.66 2710.91,-40.53 2731.81,-30.79"/>
<polygon fill="green" stroke="green" stroke-width="0.8" points="2733.38,-33.92 2741.02,-26.58 2730.47,-27.55 2733.38,-33.92"/>
</g>
<!-- 26 -->
<g id="node31" class="node">
<title>26</title>
<ellipse fill="white" stroke="black" cx="3167.78" cy="-236.69" rx="18.27" ry="18.27"/>
<text text-anchor="middle" x="3167.78" y="-234.49" font-family="Times,serif" font-size="9.00">26</text>
</g>
<!-- 15&#45;&gt;26 -->
<g id="edge171" class="edge">
<title>15&#45;&gt;26</title>
<path fill="none" stroke="green" stroke-width="0.8" d="M1534,-298.9C1683.63,-296.81 3053.84,-277.09 3135.78,-255.08 3138.43,-254.36 3141.11,-253.39 3143.73,-252.27"/>
<polygon fill="green" stroke="green" stroke-width="0.8" points="3145.4,-255.34 3152.77,-247.73 3142.26,-249.09 3145.4,-255.34"/>
</g>
<!-- 15&#45;&gt;35 -->
<g id="edge104" class="edge">
<title>15&#45;&gt;35</title>
<path fill="none" stroke="green" stroke-width="0.8" d="M1507.62,-299.16C1422.21,-299.56 945.82,-299.72 808.78,-255.08 741.97,-233.31 657.59,-205.16 694.78,-145.54 712.32,-117.41 749.47,-103.69 775.5,-97.3"/>
<polygon fill="green" stroke="green" stroke-width="0.8" points="776.55,-100.65 785.54,-95.05 775.02,-93.82 776.55,-100.65"/>
</g>
<!-- 16 -->
<g id="node16" class="node">
<title>16</title>
<polygon fill="lightgray" stroke="black" points="2463.78,-100.15 2437.78,-100.15 2437.78,-82.15 2463.78,-82.15 2463.78,-100.15"/>
<text text-anchor="middle" x="2450.78" y="-88.95" font-family="Times,serif" font-size="9.00">16</text>
</g>
<!-- 16&#45;&gt;28 -->
<g id="edge84" class="edge">
<title>16&#45;&gt;28</title>
<path fill="none" stroke="green" stroke-width="0.8" d="M2464.03,-89.52C2598.12,-83.11 3708.38,-30.06 3902.78,-20.77"/>
<polygon fill="green" stroke="green" stroke-width="0.8" points="3903.24,-24.25 3913.06,-20.28 3902.9,-17.26 3903.24,-24.25"/>
</g>
<!-- 16&#45;&gt;36 -->
<g id="edge85" class="edge">
<title>16&#45;&gt;36</title>
<path fill="none" stroke="green" stroke-width="0.8" d="M2442.99,-81.99C2439.09,-78.46 2434.08,-74.71 2428.78,-72.77 2317.5,-31.99 1481.14,-42.8 1362.78,-36.77 1280.35,-32.57 1183.08,-25.29 1136.05,-21.63"/>
<polygon fill="green" stroke="green" stroke-width="0.8" points="1136.25,-18.14 1126.01,-20.84 1135.7,-25.11 1136.25,-18.14"/>
</g>
<!-- 16&#45;&gt;21 -->
<g id="edge86" class="edge">
<title>16&#45;&gt;21</title>
<path fill="none" stroke="green" stroke-width="0.8" d="M2442.51,-81.82C2438.66,-78.44 2433.82,-74.85 2428.78,-72.77 2349.44,-39.98 2083.17,-24.83 1995.23,-20.64"/>
<polygon fill="green" stroke="green" stroke-width="0.8" points="1995.34,-17.14 1985.19,-20.17 1995.01,-24.13 1995.34,-17.14"/>
</g>
<!-- 16&#45;&gt;29 -->
<g id="edge87" class="edge">
<title>16&#45;&gt;29</title>
<path fill="none" stroke="green" stroke-width="0.8" d="M2463.99,-89.1C2561.34,-81.32 3167.69,-32.89 3307.87,-21.69"/>
<polygon fill="green" stroke="green" stroke-width="0.8" points="3308.53,-25.15 3318.22,-20.87 3307.97,-18.17 3308.53,-25.15"/>
</g>
<!-- 16&#45;&gt;30 -->
<g id="edge88" class="edge">
<title>16&#45;&gt;30</title>
<path fill="none" stroke="green" stroke-width="0.8" d="M2442.98,-82.03C2439.08,-78.52 2434.06,-74.76 2428.78,-72.77 2380.19,-54.48 1580.47,-25.97 1418.32,-20.36"/>
<polygon fill="green" stroke="green" stroke-width="0.8" points="1418.28,-16.86 1408.17,-20.01 1418.04,-23.85 1418.28,-16.86"/>
</g>
<!-- 16&#45;&gt;40 -->
<g id="edge89" class="edge">
<title>16&#45;&gt;40</title>
<path fill="none" stroke="green" stroke-width="0.8" d="M2461.29,-82.04C2466.09,-78.7 2471.98,-75.09 2477.78,-72.77 2565.3,-37.79 2677.57,-25.31 2729.32,-21.21"/>
<polygon fill="green" stroke="green" stroke-width="0.8" points="2729.7,-24.69 2739.42,-20.46 2729.18,-17.71 2729.7,-24.69"/>
</g>
<!-- 17 -->
<g id="node17" class="node">
<title>17</title>
<polygon fill="lightgray" stroke="black" points="2764.78,-309.08 2738.78,-309.08 2738.78,-291.08 2764.78,-291.08 2764.78,-309.08"/>
<text text-anchor="middle" x="2751.78" y="-297.88" font-family="Times,serif" font-size="9.00">17</text>
</g>
<!-- 17&#45;&gt;28 -->
<g id="edge90" class="edge">
<title>17&#45;&gt;28</title>
<path fill="none" stroke="green" stroke-width="0.8" d="M2764.95,-298.68C2866.14,-295.62 3521.5,-275.24 3718.78,-255.08 3769.82,-249.86 4141.48,-221.34 4174.78,-182.31 4206.37,-145.27 4205.29,-110.71 4174.78,-72.77 4148.09,-39.58 4018.29,-25.84 3960.1,-21.29"/>
<polygon fill="green" stroke="green" stroke-width="0.8" points="3960.34,-17.79 3950.11,-20.54 3959.82,-24.77 3960.34,-17.79"/>
</g>
<!-- 17&#45;&gt;36 -->
<g id="edge91" class="edge">
<title>17&#45;&gt;36</title>
<path fill="none" stroke="green" stroke-width="0.8" d="M2738.48,-298.81C2601.38,-296.02 1448.5,-272.09 1378.78,-255.08 1233.25,-219.58 1154.62,-236.28 1074.78,-109.54 1061.14,-87.89 1075.72,-59.79 1089.58,-40.76"/>
<polygon fill="green" stroke="green" stroke-width="0.8" points="1092.46,-42.77 1095.8,-32.71 1086.92,-38.49 1092.46,-42.77"/>
</g>
<!-- 17&#45;&gt;21 -->
<g id="edge92" class="edge">
<title>17&#45;&gt;21</title>
<path fill="none" stroke="green" stroke-width="0.8" d="M2738.56,-298.32C2684.38,-295.07 2479.41,-281.25 2420.78,-255.08 2397.82,-244.83 2398.5,-232.56 2377.78,-218.31 2321.94,-179.9 2307.68,-168.11 2243.78,-145.54 2160.27,-116.04 2125.06,-152.79 2047.78,-109.54 2039.9,-105.13 2006.19,-66.12 1984.82,-40.88"/>
<polygon fill="green" stroke="green" stroke-width="0.8" points="1987.22,-38.31 1978.1,-32.92 1981.87,-42.82 1987.22,-38.31"/>
</g>
<!-- 17&#45;&gt;29 -->
<g id="edge93" class="edge">
<title>17&#45;&gt;29</title>
<path fill="none" stroke="green" stroke-width="0.8" d="M2765.11,-298.85C2876.44,-296.93 3648.12,-282.65 3687.78,-255.08 3729.32,-226.2 3742.73,-190.11 3718.78,-145.54 3691.03,-93.91 3663.01,-95.01 3608.78,-72.77 3524.57,-38.24 3416.33,-25.59 3365.53,-21.34"/>
<polygon fill="green" stroke="green" stroke-width="0.8" points="3365.55,-17.83 3355.3,-20.54 3365,-24.81 3365.55,-17.83"/>
</g>
<!-- 17&#45;&gt;40 -->
<g id="edge94" class="edge">
<title>17&#45;&gt;40</title>
<path fill="none" stroke="green" stroke-width="0.8" d="M2765,-298.79C2873.74,-296.34 3617.55,-278.8 3657.78,-255.08 3690.53,-235.76 3692.38,-218.89 3702.78,-182.31 3707.25,-166.59 3713.05,-158.25 3702.78,-145.54 3696.72,-138.05 3373.3,-74.21 3363.78,-72.77 3142.94,-39.47 2873.47,-24.76 2786.38,-20.65"/>
<polygon fill="green" stroke="green" stroke-width="0.8" points="2786.37,-17.14 2776.22,-20.18 2786.05,-24.14 2786.37,-17.14"/>
</g>
<!-- 32 -->
<g id="node34" class="node">
<title>32</title>
<ellipse fill="white" stroke="black" cx="3336.78" cy="-91.15" rx="18.27" ry="18.27"/>
<text text-anchor="middle" x="3336.78" y="-88.95" font-family="Times,serif" font-size="9.00">32</text>
</g>
<!-- 17&#45;&gt;32 -->
<g id="edge186" class="edge">
<title>17&#45;&gt;32</title>
<path fill="none" stroke="green" stroke-width="0.8" d="M2765.08,-298.69C2871.34,-295.58 3579.42,-274.19 3619.78,-255.08 3659.24,-236.39 3670.06,-223.04 3685.78,-182.31 3691.66,-167.06 3696.42,-157.94 3685.78,-145.54 3664.9,-121.22 3445.16,-101 3365.45,-94.42"/>
<polygon fill="green" stroke="green" stroke-width="0.8" points="3365.42,-90.91 3355.17,-93.58 3364.85,-97.88 3365.42,-90.91"/>
</g>
<!-- 17&#45;&gt;35 -->
<g id="edge101" class="edge">
<title>17&#45;&gt;35</title>
<path fill="none" stroke="green" stroke-width="0.8" d="M2738.41,-298.8C2592.85,-295.76 1305.6,-268.52 1226.78,-255.08 1121.92,-237.2 1098.16,-220.22 998.78,-182.31 989.51,-178.77 844.67,-113.93 835.78,-109.54 833.45,-108.39 831.04,-107.16 828.64,-105.9"/>
<polygon fill="green" stroke="green" stroke-width="0.8" points="830.07,-102.7 819.6,-101.07 826.77,-108.87 830.07,-102.7"/>
</g>
<!-- 38 -->
<g id="node39" class="node">
<title>38</title>
<ellipse fill="white" stroke="black" cx="2350.78" cy="-236.69" rx="18.27" ry="18.27"/>
<text text-anchor="middle" x="2350.78" y="-234.49" font-family="Times,serif" font-size="9.00">38</text>
</g>
<!-- 17&#45;&gt;38 -->
<g id="edge181" class="edge">
<title>17&#45;&gt;38</title>
<path fill="none" stroke="green" stroke-width="0.8" d="M2738.66,-299.28C2690.15,-299.65 2516.8,-297.74 2382.78,-255.08 2380.16,-254.24 2377.5,-253.19 2374.9,-252.02"/>
<polygon fill="green" stroke="green" stroke-width="0.8" points="2376.37,-248.84 2365.88,-247.42 2373.2,-255.08 2376.37,-248.84"/>
</g>
<!-- 18 -->
<g id="node18" class="node">
<title>18</title>
<polygon fill="lightgray" stroke="black" points="2149.78,-309.08 2123.78,-309.08 2123.78,-291.08 2149.78,-291.08 2149.78,-309.08"/>
<text text-anchor="middle" x="2136.78" y="-297.88" font-family="Times,serif" font-size="9.00">18</text>
</g>
<!-- 18&#45;&gt;28 -->
<g id="edge95" class="edge">
<title>18&#45;&gt;28</title>
<path fill="none" stroke="green" stroke-width="0.8" d="M2149.97,-297.84C2169.39,-296.07 2206.85,-292.82 2238.78,-291.08 2499.4,-276.87 3156.79,-306.04 3412.78,-255.08 3458,-246.08 3465.49,-231.14 3509.78,-218.31 3717.38,-158.15 3850.3,-279.54 3983.78,-109.54 4002.08,-86.23 3975.58,-55.77 3954.17,-36.9"/>
<polygon fill="green" stroke="green" stroke-width="0.8" points="3956.22,-34.05 3946.32,-30.28 3951.71,-39.4 3956.22,-34.05"/>
</g>
<!-- 18&#45;&gt;36 -->
<g id="edge96" class="edge">
<title>18&#45;&gt;36</title>
<path fill="none" stroke="green" stroke-width="0.8" d="M2123.53,-295.84C2115.79,-294.09 2105.79,-292.09 2096.78,-291.08 1950.32,-274.57 908.92,-306.46 770.78,-255.08 746.57,-246.07 748.38,-230.8 725.78,-218.31 681.86,-194.04 666.11,-198.96 618.78,-182.31 596.67,-174.53 434.19,-128.76 420.78,-109.54 411.43,-96.14 409.68,-84.76 420.78,-72.77 466.13,-23.76 954.9,-19.63 1079.17,-19.38"/>
<polygon fill="green" stroke="green" stroke-width="0.8" points="1079.41,-22.88 1089.4,-19.36 1079.4,-15.88 1079.41,-22.88"/>
</g>
<!-- 18&#45;&gt;21 -->
<g id="edge97" class="edge">
<title>18&#45;&gt;21</title>
<path fill="none" stroke="green" stroke-width="0.8" d="M2123.47,-295.04C2076.36,-279.94 1917.25,-221.83 1857.78,-109.54 1850.13,-95.1 1849.13,-86.64 1857.78,-72.77 1875.32,-44.64 1912.47,-30.92 1938.5,-24.53"/>
<polygon fill="green" stroke="green" stroke-width="0.8" points="1939.55,-27.88 1948.54,-22.28 1938.02,-21.05 1939.55,-27.88"/>
</g>
<!-- 18&#45;&gt;29 -->
<g id="edge98" class="edge">
<title>18&#45;&gt;29</title>
<path fill="none" stroke="green" stroke-width="0.8" d="M2149.97,-297.85C2169.4,-296.09 2206.85,-292.86 2238.78,-291.08 2478.76,-277.68 3084.07,-302.11 3319.78,-255.08 3409.68,-237.14 3460.63,-257.7 3512.78,-182.31 3522.07,-168.87 3520.24,-160.08 3512.78,-145.54 3504.41,-129.24 3406.67,-64.57 3360.57,-34.68"/>
<polygon fill="green" stroke="green" stroke-width="0.8" points="3362.38,-31.68 3352.08,-29.19 3358.58,-37.56 3362.38,-31.68"/>
</g>
<!-- 18&#45;&gt;30 -->
<g id="edge99" class="edge">
<title>18&#45;&gt;30</title>
<path fill="none" stroke="green" stroke-width="0.8" d="M2123.53,-295.88C2115.78,-294.14 2105.78,-292.14 2096.78,-291.08 2043.89,-284.84 1175.72,-293.44 1138.78,-255.08 1050.5,-163.42 1282.64,-61.21 1363.32,-29.39"/>
<polygon fill="green" stroke="green" stroke-width="0.8" points="1364.75,-32.58 1372.8,-25.69 1362.21,-26.06 1364.75,-32.58"/>
</g>
<!-- 18&#45;&gt;40 -->
<g id="edge100" class="edge">
<title>18&#45;&gt;40</title>
<path fill="none" stroke="green" stroke-width="0.8" d="M2143.74,-291C2158.33,-274.62 2193.9,-237.43 2231.78,-218.31 2420.87,-122.87 2520.88,-229.02 2695.78,-109.54 2719.2,-93.54 2736.4,-65.52 2746.66,-44.96"/>
<polygon fill="green" stroke="green" stroke-width="0.8" points="2749.87,-46.36 2751.01,-35.82 2743.55,-43.35 2749.87,-46.36"/>
</g>
<!-- 18&#45;&gt;19 -->
<g id="edge130" class="edge">
<title>18&#45;&gt;19</title>
<path fill="none" stroke="green" stroke-width="0.8" d="M2149.97,-297.91C2169.4,-296.22 2206.87,-293.08 2238.78,-291.08 2409.08,-280.41 2841.43,-300.97 3005.78,-255.08 3008.43,-254.34 3011.1,-253.35 3013.71,-252.21"/>
<polygon fill="green" stroke="green" stroke-width="0.8" points="3015.39,-255.29 3022.75,-247.66 3012.25,-249.03 3015.39,-255.29"/>
</g>
<!-- 18&#45;&gt;35 -->
<g id="edge108" class="edge">
<title>18&#45;&gt;35</title>
<path fill="none" stroke="green" stroke-width="0.8" d="M2123.53,-295.87C2115.78,-294.13 2105.78,-292.13 2096.78,-291.08 1983.92,-277.89 1179.34,-299.54 1074.78,-255.08 1053.15,-245.88 1056.97,-230.34 1036.78,-218.31 991.13,-191.11 969.38,-207.83 922.78,-182.31 900.42,-170.07 898.95,-161.11 878.78,-145.54 861.91,-132.52 842.27,-118.58 827.32,-108.21"/>
<polygon fill="green" stroke="green" stroke-width="0.8" points="828.9,-105.05 818.68,-102.26 824.93,-110.82 828.9,-105.05"/>
</g>
<!-- 18&#45;&gt;42 -->
<g id="edge124" class="edge">
<title>18&#45;&gt;42</title>
<path fill="none" stroke="green" stroke-width="0.8" d="M2123.53,-295.88C2115.78,-294.14 2105.78,-292.14 2096.78,-291.08 2044.55,-284.9 1187.25,-292.97 1150.78,-255.08 1120.32,-223.44 1179.01,-154.31 1188.78,-145.54 1205.28,-130.72 1262.72,-111.23 1297.45,-100.37"/>
<polygon fill="green" stroke="green" stroke-width="0.8" points="1298.91,-103.58 1307.43,-97.29 1296.84,-96.89 1298.91,-103.58"/>
</g>
<!-- 19&#45;&gt;28 -->
<g id="edge106" class="edge">
<title>19&#45;&gt;28</title>
<path fill="none" stroke="green" stroke-width="0.8" d="M3052.92,-226.11C3058.1,-223.21 3064.04,-220.28 3069.78,-218.31 3163.51,-186.21 3194.96,-211.04 3289.78,-182.31 3327.62,-170.85 3332.87,-156.77 3370.78,-145.54 3473.35,-115.14 3504.49,-133.4 3608.78,-109.54 3662.74,-97.19 3674.54,-87.95 3727.78,-72.77 3790.5,-54.88 3864.73,-36.03 3904.07,-26.23"/>
<polygon fill="green" stroke="green" stroke-width="0.8" points="3905.11,-29.58 3913.97,-23.77 3903.42,-22.78 3905.11,-29.58"/>
</g>
<!-- 19&#45;&gt;36 -->
<g id="edge107" class="edge">
<title>19&#45;&gt;36</title>
<path fill="none" stroke="green" stroke-width="0.8" d="M3019.44,-233.23C2938.37,-222.38 2603.89,-177.9 2328.78,-145.54 2180.93,-128.15 2142.86,-132.46 1995.78,-109.54 1915.1,-96.97 1896.65,-84.03 1815.78,-72.77 1747.63,-63.28 1259.85,-29.74 1136.21,-21.32"/>
<polygon fill="green" stroke="green" stroke-width="0.8" points="1136.25,-17.81 1126.03,-20.62 1135.77,-24.79 1136.25,-17.81"/>
</g>
<!-- 19&#45;&gt;29 -->
<g id="edge121" class="edge">
<title>19&#45;&gt;29</title>
<path fill="none" stroke="green" stroke-width="0.8" d="M3053.4,-226.34C3058.51,-223.52 3064.28,-220.57 3069.78,-218.31 3122.43,-196.59 3143.76,-211.31 3192.78,-182.31 3212.49,-170.64 3250.55,-126.65 3265.78,-109.54 3285.44,-87.44 3306.18,-60.64 3320.13,-42.04"/>
<polygon fill="green" stroke="green" stroke-width="0.8" points="3323.05,-43.98 3326.22,-33.86 3317.44,-39.79 3323.05,-43.98"/>
</g>
<!-- 19&#45;&gt;22 -->
<g id="edge155" class="edge">
<title>19&#45;&gt;22</title>
<path fill="none" stroke="green" stroke-width="0.8" d="M3052.99,-226.31C3058.17,-223.42 3064.09,-220.44 3069.78,-218.31 3138.43,-192.56 3162.13,-208.06 3230.78,-182.31 3233.35,-181.34 3235.98,-180.2 3238.56,-178.98"/>
<polygon fill="green" stroke="green" stroke-width="0.8" points="3240.29,-182.02 3247.56,-174.31 3237.07,-175.8 3240.29,-182.02"/>
</g>
<!-- 19&#45;&gt;27 -->
<g id="edge150" class="edge">
<title>19&#45;&gt;27</title>
<path fill="none" stroke="green" stroke-width="0.8" d="M3019.32,-234.49C2973.74,-231.54 2852.21,-223.79 2750.78,-218.31 2315.59,-194.78 1785.14,-171.65 1657.42,-166.15"/>
<polygon fill="green" stroke="green" stroke-width="0.8" points="1657.43,-162.65 1647.29,-165.71 1657.13,-169.64 1657.43,-162.65"/>
</g>
<!-- 20&#45;&gt;36 -->
<g id="edge135" class="edge">
<title>20&#45;&gt;36</title>
<path fill="none" stroke="green" stroke-width="0.8" d="M1579.46,-87.51C1505.17,-76.78 1225.95,-36.45 1135.94,-23.45"/>
<polygon fill="green" stroke="green" stroke-width="0.8" points="1136.32,-19.97 1125.92,-22.01 1135.32,-26.9 1136.32,-19.97"/>
</g>
<!-- 20&#45;&gt;21 -->
<g id="edge141" class="edge">
<title>20&#45;&gt;21</title>
<path fill="none" stroke="green" stroke-width="0.8" d="M1615.83,-86.69C1675.42,-75.26 1866.23,-38.67 1938.59,-24.79"/>
<polygon fill="green" stroke="green" stroke-width="0.8" points="1939.6,-28.16 1948.77,-22.84 1938.28,-21.29 1939.6,-28.16"/>
</g>
<!-- 22&#45;&gt;32 -->
<g id="edge189" class="edge">
<title>22&#45;&gt;32</title>
<path fill="none" stroke="green" stroke-width="0.8" d="M3275.67,-150.6C3286.78,-139.97 3303.03,-124.43 3315.98,-112.05"/>
<polygon fill="green" stroke="green" stroke-width="0.8" points="3318.73,-114.26 3323.54,-104.82 3313.89,-109.2 3318.73,-114.26"/>
</g>
<!-- 22&#45;&gt;37 -->
<g id="edge156" class="edge">
<title>22&#45;&gt;37</title>
<path fill="none" stroke="green" stroke-width="0.8" d="M3277.95,-153.42C3283.13,-150.52 3289.06,-147.57 3294.78,-145.54 3385.97,-113.2 3500.77,-99.4 3553.25,-94.48"/>
<polygon fill="green" stroke="green" stroke-width="0.8" points="3553.82,-97.94 3563.47,-93.56 3553.19,-90.97 3553.82,-97.94"/>
</g>
<!-- 23&#45;&gt;27 -->
<g id="edge137" class="edge">
<title>23&#45;&gt;27</title>
<path fill="none" stroke="green" stroke-width="0.8" d="M2240.6,-233.65C2152.05,-223.7 1765.68,-180.3 1657.2,-168.12"/>
<polygon fill="green" stroke="green" stroke-width="0.8" points="1657.36,-164.61 1647.03,-166.97 1656.57,-171.57 1657.36,-164.61"/>
</g>
<!-- 23&#45;&gt;39 -->
<g id="edge168" class="edge">
<title>23&#45;&gt;39</title>
<path fill="none" stroke="green" stroke-width="0.8" d="M2275.94,-229.97C2288.91,-225.93 2307.26,-220.79 2323.78,-218.31 2748.63,-154.4 2860.53,-200.42 3289.78,-182.31 3416.72,-176.95 3568.17,-169.48 3630.17,-166.37"/>
<polygon fill="green" stroke="green" stroke-width="0.8" points="3630.54,-169.85 3640.35,-165.86 3630.19,-162.86 3630.54,-169.85"/>
</g>
<!-- 24&#45;&gt;32 -->
<g id="edge177" class="edge">
<title>24&#45;&gt;32</title>
<path fill="none" stroke="green" stroke-width="0.8" d="M3268.57,-220.35C3274.62,-209.72 3282.79,-195.21 3289.78,-182.31 3301.62,-160.44 3314.67,-135.33 3324,-117.17"/>
<polygon fill="green" stroke="green" stroke-width="0.8" points="3327.32,-118.36 3328.77,-107.87 3321.1,-115.17 3327.32,-118.36"/>
</g>
<!-- 25&#45;&gt;21 -->
<g id="edge183" class="edge">
<title>25&#45;&gt;21</title>
<path fill="none" stroke="green" stroke-width="0.8" d="M2513.74,-218.89C2506.52,-197.98 2491.13,-162.92 2464.78,-145.54 2365.56,-80.1 2314.35,-141.19 2199.78,-109.54 2159.71,-98.47 2152.44,-88.04 2113.78,-72.77 2072.21,-56.35 2023.33,-38.98 1993.72,-28.66"/>
<polygon fill="green" stroke="green" stroke-width="0.8" points="1994.69,-25.29 1984.09,-25.32 1992.39,-31.91 1994.69,-25.29"/>
</g>
<!-- 25&#45;&gt;40 -->
<g id="edge169" class="edge">
<title>25&#45;&gt;40</title>
<path fill="none" stroke="green" stroke-width="0.8" d="M2537.37,-234.05C2604.74,-227.91 2833.34,-205.52 2855.78,-182.31 2889.73,-147.18 2890.48,-114.31 2864.78,-72.77 2847.69,-45.15 2811.53,-31.35 2785.99,-24.79"/>
<polygon fill="green" stroke="green" stroke-width="0.8" points="2786.65,-21.35 2776.11,-22.48 2785.05,-28.17 2786.65,-21.35"/>
</g>
<!-- 25&#45;&gt;41 -->
<g id="edge161" class="edge">
<title>25&#45;&gt;41</title>
<path fill="none" stroke="green" stroke-width="0.8" d="M2500.54,-233.35C2442.68,-225.79 2263.85,-201.43 2208.78,-182.31 2206.18,-181.41 2203.54,-180.31 2200.95,-179.11"/>
<polygon fill="green" stroke="green" stroke-width="0.8" points="2202.43,-175.93 2191.93,-174.48 2199.23,-182.16 2202.43,-175.93"/>
</g>
<!-- 26&#45;&gt;40 -->
<g id="edge190" class="edge">
<title>26&#45;&gt;40</title>
<path fill="none" stroke="green" stroke-width="0.8" d="M3149.59,-232.3C3129.05,-228.55 3094.59,-222.48 3064.78,-218.31 2993.03,-208.28 2789.09,-236.29 2740.78,-182.31 2723.33,-162.81 2739.74,-87.19 2750.36,-46.18"/>
<polygon fill="green" stroke="green" stroke-width="0.8" points="2753.79,-46.88 2752.97,-36.32 2747.03,-45.09 2753.79,-46.88"/>
</g>
<!-- 26&#45;&gt;39 -->
<g id="edge172" class="edge">
<title>26&#45;&gt;39</title>
<path fill="none" stroke="green" stroke-width="0.8" d="M3185.28,-230.31C3198.28,-226.49 3216.5,-221.49 3232.78,-218.31 3381.03,-189.34 3561.53,-172.78 3630.31,-167.14"/>
<polygon fill="green" stroke="green" stroke-width="0.8" points="3630.68,-170.62 3640.37,-166.33 3630.12,-163.64 3630.68,-170.62"/>
</g>
<!-- 27&#45;&gt;20 -->
<g id="edge176" class="edge">
<title>27&#45;&gt;20</title>
<path fill="none" stroke="green" stroke-width="0.8" d="M1621.74,-146.87C1617.99,-138.3 1613.29,-127.56 1609.04,-117.86"/>
<polygon fill="green" stroke="green" stroke-width="0.8" points="1612.22,-116.4 1605,-108.64 1605.81,-119.2 1612.22,-116.4"/>
</g>
<!-- 27&#45;&gt;35 -->
<g id="edge138" class="edge">
<title>27&#45;&gt;35</title>
<path fill="none" stroke="green" stroke-width="0.8" d="M1610.39,-161.35C1503.55,-152.18 962.91,-105.81 832.24,-94.6"/>
<polygon fill="green" stroke="green" stroke-width="0.8" points="832.47,-91.1 822.21,-93.74 831.87,-98.08 832.47,-91.1"/>
</g>
<!-- 31&#45;&gt;28 -->
<g id="edge111" class="edge">
<title>31&#45;&gt;28</title>
<path fill="none" stroke="green" stroke-width="0.8" d="M4243.03,-83.19C4234.16,-79.69 4223,-75.61 4212.78,-72.77 4121.88,-47.51 4011.13,-30.34 3960.06,-23.17"/>
<polygon fill="green" stroke="green" stroke-width="0.8" points="3960.49,-19.69 3950.1,-21.79 3959.53,-26.62 3960.49,-19.69"/>
</g>
<!-- 31&#45;&gt;29 -->
<g id="edge144" class="edge">
<title>31&#45;&gt;29</title>
<path fill="none" stroke="green" stroke-width="0.8" d="M4241.49,-87.14C4217.51,-83.29 4174.1,-76.65 4136.78,-72.77 3835.88,-41.51 3469.3,-24.85 3365.43,-20.53"/>
<polygon fill="green" stroke="green" stroke-width="0.8" points="3365.27,-17.02 3355.13,-20.11 3364.98,-24.02 3365.27,-17.02"/>
</g>
<!-- 32&#45;&gt;40 -->
<g id="edge178" class="edge">
<title>32&#45;&gt;40</title>
<path fill="none" stroke="green" stroke-width="0.8" d="M3318.49,-87.92C3234.85,-77.7 2888.37,-35.35 2786.23,-22.86"/>
<polygon fill="green" stroke="green" stroke-width="0.8" points="2786.42,-19.36 2776.07,-21.62 2785.57,-26.31 2786.42,-19.36"/>
</g>
<!-- 33&#45;&gt;36 -->
<g id="edge148" class="edge">
<title>33&#45;&gt;36</title>
<path fill="none" stroke="green" stroke-width="0.8" d="M1649.23,-230.47C1595.76,-214.4 1430.42,-163.48 1297.78,-109.54 1237.49,-85.02 1169.05,-50.94 1133.03,-32.5"/>
<polygon fill="green" stroke="green" stroke-width="0.8" points="1134.26,-29.2 1123.77,-27.73 1131.06,-35.42 1134.26,-29.2"/>
</g>
<!-- 33&#45;&gt;41 -->
<g id="edge149" class="edge">
<title>33&#45;&gt;41</title>
<path fill="none" stroke="green" stroke-width="0.8" d="M1684.81,-233.07C1708.45,-229.63 1751.21,-223.44 1787.78,-218.31 1922.74,-199.35 2084.16,-177.44 2148.4,-168.76"/>
<polygon fill="green" stroke="green" stroke-width="0.8" points="2149.1,-172.19 2158.54,-167.38 2148.17,-165.26 2149.1,-172.19"/>
</g>
<!-- 34&#45;&gt;42 -->
<g id="edge188" class="edge">
<title>34&#45;&gt;42</title>
<path fill="none" stroke="green" stroke-width="0.8" d="M491.37,-161.38C600.96,-152.28 1162.53,-105.63 1296.2,-94.53"/>
<polygon fill="green" stroke="green" stroke-width="0.8" points="1296.76,-97.99 1306.43,-93.68 1296.18,-91.02 1296.76,-97.99"/>
</g>
<!-- 35&#45;&gt;30 -->
<g id="edge102" class="edge">
<title>35&#45;&gt;30</title>
<path fill="none" stroke="green" stroke-width="0.8" d="M821.18,-85.11C835.26,-81.2 855.65,-75.94 873.78,-72.77 1058.06,-40.52 1283.03,-25.46 1361.32,-20.92"/>
<polygon fill="green" stroke="green" stroke-width="0.8" points="1361.58,-24.41 1371.37,-20.35 1361.19,-17.42 1361.58,-24.41"/>
</g>
<!-- 37&#45;&gt;28 -->
<g id="edge119" class="edge">
<title>37&#45;&gt;28</title>
<path fill="none" stroke="green" stroke-width="0.8" d="M3599.55,-85.45C3613.66,-81.79 3633.92,-76.69 3651.78,-72.77 3743.42,-52.67 3852.89,-33.06 3903.53,-24.24"/>
<polygon fill="green" stroke="green" stroke-width="0.8" points="3904.44,-27.64 3913.69,-22.48 3903.24,-20.74 3904.44,-27.64"/>
</g>
<!-- 37&#45;&gt;29 -->
<g id="edge115" class="edge">
<title>37&#45;&gt;29</title>
<path fill="none" stroke="green" stroke-width="0.8" d="M3566.53,-80.85C3561.35,-77.97 3555.43,-74.97 3549.78,-72.77 3485.73,-47.81 3406.24,-31.53 3364.83,-24.08"/>
<polygon fill="green" stroke="green" stroke-width="0.8" points="3365.38,-20.62 3354.92,-22.34 3364.16,-27.52 3365.38,-20.62"/>
</g>
<!-- 38&#45;&gt;41 -->
<g id="edge182" class="edge">
<title>38&#45;&gt;41</title>
<path fill="none" stroke="green" stroke-width="0.8" d="M2333.42,-230.03C2306.34,-221.01 2252.62,-202.34 2208.78,-182.31 2206.41,-181.23 2203.98,-180.05 2201.57,-178.82"/>
<polygon fill="green" stroke="green" stroke-width="0.8" points="2202.98,-175.61 2192.51,-174.03 2199.71,-181.8 2202.98,-175.61"/>
</g>
<!-- 39&#45;&gt;21 -->
<g id="edge142" class="edge">
<title>39&#45;&gt;21</title>
<path fill="none" stroke="green" stroke-width="0.8" d="M3640.35,-162.01C3586.44,-159.34 3424.33,-151.38 3289.78,-145.54 3189.24,-141.17 2478.47,-146.27 2384.78,-109.54 2361.37,-100.36 2364.69,-83.12 2341.78,-72.77 2279.66,-44.7 2072.24,-27.08 1995.58,-21.4"/>
<polygon fill="green" stroke="green" stroke-width="0.8" points="1995.48,-17.88 1985.25,-20.65 1994.97,-24.86 1995.48,-17.88"/>
</g>
<!-- 39&#45;&gt;31 -->
<g id="edge129" class="edge">
<title>39&#45;&gt;31</title>
<path fill="none" stroke="green" stroke-width="0.8" d="M3677.09,-160.77C3763.07,-150.64 4126.81,-107.81 4231.49,-95.49"/>
<polygon fill="green" stroke="green" stroke-width="0.8" points="4232.08,-98.94 4241.61,-94.29 4231.27,-91.99 4232.08,-98.94"/>
</g>
<!-- 41&#45;&gt;37 -->
<g id="edge166" class="edge">
<title>41&#45;&gt;37</title>
<path fill="none" stroke="green" stroke-width="0.8" d="M2195.28,-162.33C2305.67,-158.75 2888.7,-139.16 3363.78,-109.54 3431.78,-105.3 3511.57,-98.46 3553.21,-94.75"/>
<polygon fill="green" stroke="green" stroke-width="0.8" points="3553.77,-98.21 3563.42,-93.83 3553.15,-91.24 3553.77,-98.21"/>
</g>
<!-- 41&#45;&gt;42 -->
<g id="edge136" class="edge">
<title>41&#45;&gt;42</title>
<path fill="none" stroke="green" stroke-width="0.8" d="M2158.19,-161.38C2048.6,-152.28 1487.03,-105.63 1353.36,-94.53"/>
<polygon fill="green" stroke="green" stroke-width="0.8" points="1353.38,-91.02 1343.12,-93.68 1352.8,-97.99 1353.38,-91.02"/>
</g>
<!-- 42&#45;&gt;36 -->
<g id="edge117" class="edge">
<title>42&#45;&gt;36</title>
<path fill="none" stroke="green" stroke-width="0.8" d="M1309.16,-80.79C1304.05,-77.97 1298.28,-75.03 1292.78,-72.77 1238.73,-50.6 1172.27,-33.82 1135.52,-25.4"/>
<polygon fill="green" stroke="green" stroke-width="0.8" points="1136.07,-21.94 1125.55,-23.16 1134.54,-28.77 1136.07,-21.94"/>
</g>
<!-- 42&#45;&gt;21 -->
<g id="edge125" class="edge">
<title>42&#45;&gt;21</title>
<path fill="none" stroke="green" stroke-width="0.8" d="M1342.96,-88.15C1432.71,-78.26 1828.65,-34.61 1938.46,-22.51"/>
<polygon fill="green" stroke="green" stroke-width="0.8" points="1938.89,-25.98 1948.45,-21.41 1938.13,-19.02 1938.89,-25.98"/>
</g>
<!-- 42&#45;&gt;30 -->
<g id="edge116" class="edge">
<title>42&#45;&gt;30</title>
<path fill="none" stroke="green" stroke-width="0.8" d="M1337,-76.84C1346.45,-66.56 1359.69,-52.14 1370.55,-40.32"/>
<polygon fill="green" stroke="green" stroke-width="0.8" points="1373.42,-42.37 1377.61,-32.64 1368.26,-37.63 1373.42,-42.37"/>
</g>
<!-- 42&#45;&gt;40 -->
<g id="edge162" class="edge">
<title>42&#45;&gt;40</title>
<path fill="none" stroke="green" stroke-width="0.8" d="M1343.28,-88.68C1384.25,-85.46 1485.72,-77.69 1570.78,-72.77 2032.99,-46.05 2597.12,-25.15 2729.18,-20.4"/>
<polygon fill="green" stroke="green" stroke-width="0.8" points="2729.41,-23.89 2739.28,-20.04 2729.16,-16.9 2729.41,-23.89"/>
</g>
</g>
</svg>
