<?xml version="1.0" encoding="UTF-8" standalone="no"?>
<!DOCTYPE svg PUBLIC "-//W3C//DTD SVG 1.1//EN"
 "http://www.w3.org/Graphics/SVG/1.1/DTD/svg11.dtd">
<!-- Generated by graphviz version 3.0.0 (20220226.1711)
 -->
<!-- Pages: 1 -->
<svg width="1093pt" height="317pt"
 viewBox="0.00 0.00 1092.71 317.08" xmlns="http://www.w3.org/2000/svg" xmlns:xlink="http://www.w3.org/1999/xlink">
<g id="graph0" class="graph" transform="scale(1 1) rotate(0) translate(4 313.08)">
<polygon fill="white" stroke="transparent" points="-4,4 -4,-313.08 1088.71,-313.08 1088.71,4 -4,4"/>
<!-- 1 -->
<g id="node1" class="node">
<title>1</title>
<polygon fill="lightgray" stroke="black" points="678.94,-172.92 657.94,-172.92 657.94,-154.92 678.94,-154.92 678.94,-172.92"/>
<text text-anchor="middle" x="668.44" y="-161.72" font-family="Times,serif" font-size="9.00">1</text>
</g>
<!-- 16 -->
<g id="node11" class="node">
<title>16</title>
<ellipse fill="lightblue" stroke="black" cx="756.44" cy="-18.38" rx="18.27" ry="18.27"/>
<text text-anchor="middle" x="756.44" y="-16.18" font-family="Times,serif" font-size="9.00">16</text>
</g>
<!-- 1&#45;&gt;16 -->
<g id="edge1" class="edge">
<title>1&#45;&gt;16</title>
<path fill="none" stroke="green" stroke-width="0.8" d="M673.43,-154.8C686.45,-133.55 721.91,-75.72 742.02,-42.92"/>
<polygon fill="green" stroke="green" stroke-width="0.8" points="745.01,-44.74 747.25,-34.38 739.04,-41.08 745.01,-44.74"/>
</g>
<!-- 12 -->
<g id="node12" class="node">
<title>12</title>
<ellipse fill="lightblue" stroke="black" cx="802.44" cy="-91.15" rx="18.27" ry="18.27"/>
<text text-anchor="middle" x="802.44" y="-88.95" font-family="Times,serif" font-size="9.00">12</text>
</g>
<!-- 1&#45;&gt;12 -->
<g id="edge2" class="edge">
<title>1&#45;&gt;12</title>
<path fill="none" stroke="green" stroke-width="0.8" d="M676.98,-154.57C680.38,-151.51 684.43,-148.15 688.44,-145.54 716.65,-127.19 752.18,-111.6 776.01,-102.09"/>
<polygon fill="green" stroke="green" stroke-width="0.8" points="777.41,-105.29 785.45,-98.39 774.86,-98.78 777.41,-105.29"/>
</g>
<!-- 13 -->
<g id="node13" class="node">
<title>13</title>
<ellipse fill="lightblue" stroke="black" cx="299.44" cy="-18.38" rx="18.27" ry="18.27"/>
<text text-anchor="middle" x="299.44" y="-16.18" font-family="Times,serif" font-size="9.00">13</text>
</g>
<!-- 1&#45;&gt;13 -->
<g id="edge3" class="edge">
<title>1&#45;&gt;13</title>
<path fill="none" stroke="green" stroke-width="0.8" d="M660.22,-154.79C656.97,-151.75 653.14,-148.36 649.44,-145.54 601.02,-108.68 589.68,-96.04 533.44,-72.77 462.66,-43.48 372.86,-28.73 327.86,-22.74"/>
<polygon fill="green" stroke="green" stroke-width="0.8" points="328.05,-19.23 317.68,-21.43 327.16,-26.18 328.05,-19.23"/>
</g>
<!-- 15 -->
<g id="node14" class="node">
<title>15</title>
<ellipse fill="lightblue" stroke="black" cx="368.44" cy="-91.15" rx="18.27" ry="18.27"/>
<text text-anchor="middle" x="368.44" y="-88.95" font-family="Times,serif" font-size="9.00">15</text>
</g>
<!-- 1&#45;&gt;15 -->
<g id="edge4" class="edge">
<title>1&#45;&gt;15</title>
<path fill="none" stroke="green" stroke-width="0.8" d="M661.42,-154.74C658.12,-151.39 653.92,-147.78 649.44,-145.54 564.68,-103.08 450.06,-94.26 397.26,-92.52"/>
<polygon fill="green" stroke="green" stroke-width="0.8" points="397.05,-89.01 386.96,-92.24 396.86,-96.01 397.05,-89.01"/>
</g>
<!-- 2 -->
<g id="node2" class="node">
<title>2</title>
<polygon fill="lightgray" stroke="black" points="600.94,-172.92 579.94,-172.92 579.94,-154.92 600.94,-154.92 600.94,-172.92"/>
<text text-anchor="middle" x="590.44" y="-161.72" font-family="Times,serif" font-size="9.00">2</text>
</g>
<!-- 2&#45;&gt;16 -->
<g id="edge5" class="edge">
<title>2&#45;&gt;16</title>
<path fill="none" stroke="green" stroke-width="0.8" d="M595.48,-154.87C606.29,-138.02 633.24,-98.5 663.44,-72.77 683.93,-55.31 710.94,-40.55 730.57,-31"/>
<polygon fill="green" stroke="green" stroke-width="0.8" points="732.28,-34.06 739.82,-26.62 729.28,-27.74 732.28,-34.06"/>
</g>
<!-- 2&#45;&gt;12 -->
<g id="edge6" class="edge">
<title>2&#45;&gt;12</title>
<path fill="none" stroke="green" stroke-width="0.8" d="M598.38,-154.57C601.82,-151.35 606.07,-147.89 610.44,-145.54 664.34,-116.56 735.41,-102.14 774.2,-96"/>
<polygon fill="green" stroke="green" stroke-width="0.8" points="774.88,-99.43 784.24,-94.48 773.83,-92.51 774.88,-99.43"/>
</g>
<!-- 2&#45;&gt;13 -->
<g id="edge7" class="edge">
<title>2&#45;&gt;13</title>
<path fill="none" stroke="green" stroke-width="0.8" d="M582.3,-154.68C579.07,-151.63 575.22,-148.25 571.44,-145.54 490.13,-87.19 377.54,-45.33 326.52,-28.1"/>
<polygon fill="green" stroke="green" stroke-width="0.8" points="327.47,-24.73 316.88,-24.89 325.26,-31.37 327.47,-24.73"/>
</g>
<!-- 2&#45;&gt;15 -->
<g id="edge8" class="edge">
<title>2&#45;&gt;15</title>
<path fill="none" stroke="green" stroke-width="0.8" d="M583.34,-154.89C580.03,-151.56 575.84,-147.94 571.44,-145.54 514.02,-114.24 437.35,-100.59 396.63,-95.22"/>
<polygon fill="green" stroke="green" stroke-width="0.8" points="396.97,-91.74 386.62,-93.98 396.11,-98.68 396.97,-91.74"/>
</g>
<!-- 3 -->
<g id="node3" class="node">
<title>3</title>
<polygon fill="lightgray" stroke="black" points="400.94,-309.08 379.94,-309.08 379.94,-291.08 400.94,-291.08 400.94,-309.08"/>
<text text-anchor="middle" x="390.44" y="-297.88" font-family="Times,serif" font-size="9.00">3</text>
</g>
<!-- 3&#45;&gt;16 -->
<g id="edge9" class="edge">
<title>3&#45;&gt;16</title>
<path fill="none" stroke="green" stroke-width="0.8" d="M401.07,-299.13C470.88,-299.37 864.33,-298.75 974.44,-255.08 1022.26,-236.11 1042.28,-228.73 1064.44,-182.31 1085.42,-138.37 1095.79,-110.02 1064.44,-72.77 1028.87,-30.5 855.05,-21.7 785.39,-19.87"/>
<polygon fill="green" stroke="green" stroke-width="0.8" points="785.23,-16.36 775.15,-19.63 785.06,-23.36 785.23,-16.36"/>
</g>
<!-- 3&#45;&gt;12 -->
<g id="edge10" class="edge">
<title>3&#45;&gt;12</title>
<path fill="none" stroke="green" stroke-width="0.8" d="M401.28,-299.09C475.9,-299.04 911.71,-296.97 950.44,-255.08 983.49,-219.33 978.42,-185.38 950.44,-145.54 923.41,-107.05 865.79,-96.19 830.95,-93.2"/>
<polygon fill="green" stroke="green" stroke-width="0.8" points="831.15,-89.7 820.93,-92.5 830.67,-96.69 831.15,-89.7"/>
</g>
<!-- 3&#45;&gt;13 -->
<g id="edge11" class="edge">
<title>3&#45;&gt;13</title>
<path fill="none" stroke="green" stroke-width="0.8" d="M379.68,-299C333.85,-297.99 153.99,-287.28 81.44,-182.31 26,-102.08 201.67,-45.31 271.82,-26.33"/>
<polygon fill="green" stroke="green" stroke-width="0.8" points="272.97,-29.64 281.75,-23.7 271.19,-22.88 272.97,-29.64"/>
</g>
<!-- 3&#45;&gt;15 -->
<g id="edge12" class="edge">
<title>3&#45;&gt;15</title>
<path fill="none" stroke="green" stroke-width="0.8" d="M398.37,-290.81C405.72,-282.53 416.14,-269.04 420.44,-255.08 425.26,-239.46 422.94,-234.46 420.44,-218.31 415.27,-184.79 410.71,-176.76 397.44,-145.54 393.22,-135.6 387.73,-125.06 382.67,-116.01"/>
<polygon fill="green" stroke="green" stroke-width="0.8" points="385.63,-114.13 377.62,-107.19 379.55,-117.6 385.63,-114.13"/>
</g>
<!-- 11 -->
<g id="node15" class="node">
<title>11</title>
<ellipse fill="white" stroke="black" cx="32.44" cy="-236.69" rx="18.27" ry="18.27"/>
<text text-anchor="middle" x="32.44" y="-234.49" font-family="Times,serif" font-size="9.00">11</text>
</g>
<!-- 3&#45;&gt;11 -->
<g id="edge45" class="edge">
<title>3&#45;&gt;11</title>
<path fill="none" stroke="green" stroke-width="0.8" d="M379.62,-298.15C330.15,-293.82 125.38,-275 64.44,-255.08 61.83,-254.22 59.18,-253.16 56.58,-251.98"/>
<polygon fill="green" stroke="green" stroke-width="0.8" points="58.06,-248.8 47.56,-247.37 54.87,-255.03 58.06,-248.8"/>
</g>
<!-- 18 -->
<g id="node18" class="node">
<title>18</title>
<ellipse fill="white" stroke="black" cx="276.44" cy="-91.15" rx="18.27" ry="18.27"/>
<text text-anchor="middle" x="276.44" y="-88.95" font-family="Times,serif" font-size="9.00">18</text>
</g>
<!-- 3&#45;&gt;18 -->
<g id="edge43" class="edge">
<title>3&#45;&gt;18</title>
<path fill="none" stroke="green" stroke-width="0.8" d="M379.92,-293.66C366.99,-286.5 345.19,-272.69 332.44,-255.08 302.22,-213.32 287.31,-153.94 280.79,-119.6"/>
<polygon fill="green" stroke="green" stroke-width="0.8" points="284.17,-118.61 278.96,-109.38 277.28,-119.84 284.17,-118.61"/>
</g>
<!-- 4 -->
<g id="node4" class="node">
<title>4</title>
<polygon fill="lightgray" stroke="black" points="278.94,-309.08 257.94,-309.08 257.94,-291.08 278.94,-291.08 278.94,-309.08"/>
<text text-anchor="middle" x="268.44" y="-297.88" font-family="Times,serif" font-size="9.00">4</text>
</g>
<!-- 4&#45;&gt;16 -->
<g id="edge13" class="edge">
<title>4&#45;&gt;16</title>
<path fill="none" stroke="green" stroke-width="0.8" d="M278.98,-298.21C333.13,-293.67 580.49,-272.34 655.44,-255.08 750.07,-233.28 782.83,-239.3 861.44,-182.31 905.71,-150.22 949.45,-117.1 917.44,-72.77 887.16,-30.83 822.63,-21.31 785.11,-19.47"/>
<polygon fill="green" stroke="green" stroke-width="0.8" points="784.96,-15.96 774.85,-19.12 784.73,-22.96 784.96,-15.96"/>
</g>
<!-- 4&#45;&gt;12 -->
<g id="edge14" class="edge">
<title>4&#45;&gt;12</title>
<path fill="none" stroke="green" stroke-width="0.8" d="M279.15,-297.64C352.89,-287.62 783.41,-227.41 818.44,-182.31 833.02,-163.54 825.11,-135.94 816.01,-116.22"/>
<polygon fill="green" stroke="green" stroke-width="0.8" points="819.13,-114.64 811.54,-107.25 812.87,-117.77 819.13,-114.64"/>
</g>
<!-- 4&#45;&gt;13 -->
<g id="edge15" class="edge">
<title>4&#45;&gt;13</title>
<path fill="none" stroke="green" stroke-width="0.8" d="M257.82,-299.03C212.82,-298.6 38.72,-294.39 5.44,-255.08 -5.12,-242.61 4.33,-234.61 5.44,-218.31 9.9,-153.17 -19.42,-120.21 25.44,-72.77 58.81,-37.49 207.85,-24.73 271.01,-20.85"/>
<polygon fill="green" stroke="green" stroke-width="0.8" points="271.29,-24.34 281.07,-20.27 270.88,-17.35 271.29,-24.34"/>
</g>
<!-- 4&#45;&gt;15 -->
<g id="edge16" class="edge">
<title>4&#45;&gt;15</title>
<path fill="none" stroke="green" stroke-width="0.8" d="M269.9,-290.91C274.38,-267.13 289.54,-196.38 319.44,-145.54 326.89,-132.88 337.74,-120.66 347.34,-111.11"/>
<polygon fill="green" stroke="green" stroke-width="0.8" points="349.88,-113.52 354.68,-104.07 345.04,-108.47 349.88,-113.52"/>
</g>
<!-- 4&#45;&gt;11 -->
<g id="edge51" class="edge">
<title>4&#45;&gt;11</title>
<path fill="none" stroke="green" stroke-width="0.8" d="M257.52,-297.84C226.48,-294.07 135.44,-281.4 64.44,-255.08 61.86,-254.12 59.24,-252.99 56.66,-251.77"/>
<polygon fill="green" stroke="green" stroke-width="0.8" points="58.14,-248.59 47.65,-247.1 54.92,-254.81 58.14,-248.59"/>
</g>
<!-- 5 -->
<g id="node5" class="node">
<title>5</title>
<polygon fill="lightgray" stroke="black" points="362.94,-245.69 341.94,-245.69 341.94,-227.69 362.94,-227.69 362.94,-245.69"/>
<text text-anchor="middle" x="352.44" y="-234.49" font-family="Times,serif" font-size="9.00">5</text>
</g>
<!-- 5&#45;&gt;16 -->
<g id="edge17" class="edge">
<title>5&#45;&gt;16</title>
<path fill="none" stroke="green" stroke-width="0.8" d="M361.12,-227.67C365.41,-224.18 370.86,-220.41 376.44,-218.31 535.17,-158.44 602.89,-254.43 756.44,-182.31 809.4,-157.44 855.92,-124.94 829.44,-72.77 819.7,-53.58 799.46,-39.63 782.75,-30.81"/>
<polygon fill="green" stroke="green" stroke-width="0.8" points="783.95,-27.5 773.44,-26.22 780.85,-33.78 783.95,-27.5"/>
</g>
<!-- 5&#45;&gt;12 -->
<g id="edge18" class="edge">
<title>5&#45;&gt;12</title>
<path fill="none" stroke="green" stroke-width="0.8" d="M361.12,-227.69C365.42,-224.21 370.87,-220.44 376.44,-218.31 522.96,-162.4 589.04,-256.05 727.44,-182.31 731.31,-180.25 763.97,-140.1 784.89,-114.08"/>
<polygon fill="green" stroke="green" stroke-width="0.8" points="787.69,-116.19 791.22,-106.2 782.23,-111.8 787.69,-116.19"/>
</g>
<!-- 5&#45;&gt;13 -->
<g id="edge19" class="edge">
<title>5&#45;&gt;13</title>
<path fill="none" stroke="green" stroke-width="0.8" d="M341.89,-235.3C315.32,-233.66 245.73,-225.27 216.44,-182.31 189.02,-142.08 193.12,-115.5 216.44,-72.77 228.31,-51.03 253.25,-36.82 272.7,-28.56"/>
<polygon fill="green" stroke="green" stroke-width="0.8" points="274,-31.82 282.01,-24.88 271.42,-25.31 274,-31.82"/>
</g>
<!-- 5&#45;&gt;15 -->
<g id="edge20" class="edge">
<title>5&#45;&gt;15</title>
<path fill="none" stroke="green" stroke-width="0.8" d="M346.6,-227.65C335.84,-211.79 314.9,-175.43 325.44,-145.54 330.02,-132.56 339.23,-120.42 347.96,-111"/>
<polygon fill="green" stroke="green" stroke-width="0.8" points="350.55,-113.36 355.07,-103.77 345.56,-108.45 350.55,-113.36"/>
</g>
<!-- 14 -->
<g id="node16" class="node">
<title>14</title>
<ellipse fill="white" stroke="black" cx="352.44" cy="-163.92" rx="18.27" ry="18.27"/>
<text text-anchor="middle" x="352.44" y="-161.72" font-family="Times,serif" font-size="9.00">14</text>
</g>
<!-- 5&#45;&gt;14 -->
<g id="edge50" class="edge">
<title>5&#45;&gt;14</title>
<path fill="none" stroke="green" stroke-width="0.8" d="M352.44,-227.58C352.44,-219.01 352.44,-205.03 352.44,-192.45"/>
<polygon fill="green" stroke="green" stroke-width="0.8" points="355.94,-192.36 352.44,-182.36 348.94,-192.36 355.94,-192.36"/>
</g>
<!-- 6 -->
<g id="node6" class="node">
<title>6</title>
<polygon fill="lightgray" stroke="black" points="523.94,-245.69 502.94,-245.69 502.94,-227.69 523.94,-227.69 523.94,-245.69"/>
<text text-anchor="middle" x="513.44" y="-234.49" font-family="Times,serif" font-size="9.00">6</text>
</g>
<!-- 6&#45;&gt;16 -->
<g id="edge21" class="edge">
<title>6&#45;&gt;16</title>
<path fill="none" stroke="green" stroke-width="0.8" d="M524.07,-235.88C564.59,-236.17 712.41,-233.47 818.44,-182.31 862.33,-161.13 880.46,-153.98 900.44,-109.54 907.14,-94.63 909.78,-86.18 900.44,-72.77 874.47,-35.44 819.2,-24.16 785.19,-20.78"/>
<polygon fill="green" stroke="green" stroke-width="0.8" points="785.21,-17.27 774.96,-19.94 784.64,-24.25 785.21,-17.27"/>
</g>
<!-- 6&#45;&gt;12 -->
<g id="edge22" class="edge">
<title>6&#45;&gt;12</title>
<path fill="none" stroke="green" stroke-width="0.8" d="M523.96,-235.4C571,-233.82 761.48,-224.88 798.44,-182.31 813.24,-165.26 812.65,-138.84 809.3,-119"/>
<polygon fill="green" stroke="green" stroke-width="0.8" points="812.7,-118.15 807.3,-109.03 805.84,-119.53 812.7,-118.15"/>
</g>
<!-- 6&#45;&gt;13 -->
<g id="edge23" class="edge">
<title>6&#45;&gt;13</title>
<path fill="none" stroke="green" stroke-width="0.8" d="M502.63,-228.79C468.92,-207.12 366.46,-140.03 341.44,-109.54 325.94,-90.64 314.74,-65.08 307.83,-46"/>
<polygon fill="green" stroke="green" stroke-width="0.8" points="311.09,-44.72 304.51,-36.41 304.47,-47.01 311.09,-44.72"/>
</g>
<!-- 6&#45;&gt;15 -->
<g id="edge24" class="edge">
<title>6&#45;&gt;15</title>
<path fill="none" stroke="green" stroke-width="0.8" d="M513.46,-227.61C513.08,-210.36 509.81,-169.58 488.44,-145.54 460.37,-113.95 438.62,-127.65 400.44,-109.54 398.09,-108.42 395.67,-107.22 393.27,-105.98"/>
<polygon fill="green" stroke="green" stroke-width="0.8" points="394.69,-102.77 384.22,-101.17 391.4,-108.95 394.69,-102.77"/>
</g>
<!-- 6&#45;&gt;14 -->
<g id="edge52" class="edge">
<title>6&#45;&gt;14</title>
<path fill="none" stroke="green" stroke-width="0.8" d="M502.88,-231.05C477.88,-220.06 414.48,-192.19 378.47,-176.36"/>
<polygon fill="green" stroke="green" stroke-width="0.8" points="379.66,-173.06 369.1,-172.24 376.84,-179.47 379.66,-173.06"/>
</g>
<!-- 7 -->
<g id="node7" class="node">
<title>7</title>
<polygon fill="lightgray" stroke="black" points="561.94,-172.92 540.94,-172.92 540.94,-154.92 561.94,-154.92 561.94,-172.92"/>
<text text-anchor="middle" x="551.44" y="-161.72" font-family="Times,serif" font-size="9.00">7</text>
</g>
<!-- 7&#45;&gt;16 -->
<g id="edge25" class="edge">
<title>7&#45;&gt;16</title>
<path fill="none" stroke="green" stroke-width="0.8" d="M555.95,-154.78C565.95,-137.42 591.62,-96.43 623.44,-72.77 655.81,-48.71 700.51,-33.71 728.95,-25.95"/>
<polygon fill="green" stroke="green" stroke-width="0.8" points="729.85,-29.33 738.64,-23.42 728.08,-22.56 729.85,-29.33"/>
</g>
<!-- 7&#45;&gt;12 -->
<g id="edge26" class="edge">
<title>7&#45;&gt;12</title>
<path fill="none" stroke="green" stroke-width="0.8" d="M558.95,-154.83C562.45,-151.5 566.85,-147.88 571.44,-145.54 638.86,-111.18 728.58,-98.64 773.8,-94.3"/>
<polygon fill="green" stroke="green" stroke-width="0.8" points="774.39,-97.76 784.04,-93.38 773.77,-90.79 774.39,-97.76"/>
</g>
<!-- 7&#45;&gt;13 -->
<g id="edge27" class="edge">
<title>7&#45;&gt;13</title>
<path fill="none" stroke="green" stroke-width="0.8" d="M540.89,-156.74C515.76,-142.05 450.41,-103.93 395.44,-72.77 371.21,-59.03 343.37,-43.59 323.93,-32.86"/>
<polygon fill="green" stroke="green" stroke-width="0.8" points="325.57,-29.76 315.12,-28 322.19,-35.89 325.57,-29.76"/>
</g>
<!-- 7&#45;&gt;15 -->
<g id="edge28" class="edge">
<title>7&#45;&gt;15</title>
<path fill="none" stroke="green" stroke-width="0.8" d="M541.21,-154.66C536.86,-151.46 531.6,-147.99 526.44,-145.54 473.82,-120.58 454.36,-131.57 400.44,-109.54 398.04,-108.56 395.58,-107.44 393.14,-106.26"/>
<polygon fill="green" stroke="green" stroke-width="0.8" points="394.55,-103.04 384.06,-101.53 391.31,-109.25 394.55,-103.04"/>
</g>
<!-- 7&#45;&gt;18 -->
<g id="edge49" class="edge">
<title>7&#45;&gt;18</title>
<path fill="none" stroke="green" stroke-width="0.8" d="M540.94,-160.3C510.23,-152.63 417.88,-129.48 341.44,-109.54 329.15,-106.33 315.58,-102.72 304.03,-99.61"/>
<polygon fill="green" stroke="green" stroke-width="0.8" points="304.65,-96.16 294.08,-96.94 302.83,-102.92 304.65,-96.16"/>
</g>
<!-- 8 -->
<g id="node8" class="node">
<title>8</title>
<polygon fill="lightgray" stroke="black" points="717.94,-172.92 696.94,-172.92 696.94,-154.92 717.94,-154.92 717.94,-172.92"/>
<text text-anchor="middle" x="707.44" y="-161.72" font-family="Times,serif" font-size="9.00">8</text>
</g>
<!-- 8&#45;&gt;16 -->
<g id="edge29" class="edge">
<title>8&#45;&gt;16</title>
<path fill="none" stroke="green" stroke-width="0.8" d="M711.81,-154.8C717.21,-144.49 726.42,-126.08 732.44,-109.54 739.99,-88.8 746.3,-64.6 750.56,-46.49"/>
<polygon fill="green" stroke="green" stroke-width="0.8" points="754,-47.14 752.82,-36.61 747.18,-45.58 754,-47.14"/>
</g>
<!-- 8&#45;&gt;12 -->
<g id="edge30" class="edge">
<title>8&#45;&gt;12</title>
<path fill="none" stroke="green" stroke-width="0.8" d="M717.97,-155.08C732.87,-143.98 760.46,-123.43 780.06,-108.83"/>
<polygon fill="green" stroke="green" stroke-width="0.8" points="782.23,-111.57 788.16,-102.79 778.05,-105.96 782.23,-111.57"/>
</g>
<!-- 8&#45;&gt;13 -->
<g id="edge31" class="edge">
<title>8&#45;&gt;13</title>
<path fill="none" stroke="green" stroke-width="0.8" d="M699.13,-154.82C680.1,-136.79 631.16,-93.33 581.44,-72.77 493.75,-36.5 380.46,-24.65 328.19,-20.96"/>
<polygon fill="green" stroke="green" stroke-width="0.8" points="328.2,-17.45 318,-20.29 327.74,-24.44 328.2,-17.45"/>
</g>
<!-- 8&#45;&gt;15 -->
<g id="edge32" class="edge">
<title>8&#45;&gt;15</title>
<path fill="none" stroke="green" stroke-width="0.8" d="M700.44,-154.69C697.15,-151.33 692.95,-147.73 688.44,-145.54 589.49,-97.35 455.16,-91.62 397.11,-91.61"/>
<polygon fill="green" stroke="green" stroke-width="0.8" points="396.85,-88.11 386.87,-91.67 396.89,-95.11 396.85,-88.11"/>
</g>
<!-- 9 -->
<g id="node9" class="node">
<title>9</title>
<polygon fill="lightgray" stroke="black" points="639.94,-172.92 618.94,-172.92 618.94,-154.92 639.94,-154.92 639.94,-172.92"/>
<text text-anchor="middle" x="629.44" y="-161.72" font-family="Times,serif" font-size="9.00">9</text>
</g>
<!-- 9&#45;&gt;16 -->
<g id="edge33" class="edge">
<title>9&#45;&gt;16</title>
<path fill="none" stroke="green" stroke-width="0.8" d="M634.79,-154.81C645.69,-138.52 671.64,-100.98 697.44,-72.77 709,-60.14 723.19,-47.23 734.76,-37.26"/>
<polygon fill="green" stroke="green" stroke-width="0.8" points="737.28,-39.72 742.65,-30.58 732.75,-34.38 737.28,-39.72"/>
</g>
<!-- 9&#45;&gt;12 -->
<g id="edge34" class="edge">
<title>9&#45;&gt;12</title>
<path fill="none" stroke="green" stroke-width="0.8" d="M637.46,-154.71C640.91,-151.52 645.15,-148.03 649.44,-145.54 690.11,-121.95 742.88,-106.41 774.62,-98.46"/>
<polygon fill="green" stroke="green" stroke-width="0.8" points="775.64,-101.82 784.53,-96.06 773.99,-95.01 775.64,-101.82"/>
</g>
<!-- 9&#45;&gt;13 -->
<g id="edge35" class="edge">
<title>9&#45;&gt;13</title>
<path fill="none" stroke="green" stroke-width="0.8" d="M621.24,-154.76C618,-151.71 614.17,-148.32 610.44,-145.54 604.16,-140.85 496.64,-75.88 489.44,-72.77 434.33,-48.97 365.66,-32.74 327.81,-24.87"/>
<polygon fill="green" stroke="green" stroke-width="0.8" points="328.03,-21.34 317.54,-22.78 326.64,-28.2 328.03,-21.34"/>
</g>
<!-- 9&#45;&gt;15 -->
<g id="edge36" class="edge">
<title>9&#45;&gt;15</title>
<path fill="none" stroke="green" stroke-width="0.8" d="M622.39,-154.8C619.08,-151.46 614.89,-147.85 610.44,-145.54 539.42,-108.65 443.85,-97.18 396.89,-93.67"/>
<polygon fill="green" stroke="green" stroke-width="0.8" points="397.05,-90.17 386.84,-92.99 396.58,-97.16 397.05,-90.17"/>
</g>
<!-- 10 -->
<g id="node10" class="node">
<title>10</title>
<polygon fill="lightgray" stroke="black" points="411.44,-245.69 385.44,-245.69 385.44,-227.69 411.44,-227.69 411.44,-245.69"/>
<text text-anchor="middle" x="398.44" y="-234.49" font-family="Times,serif" font-size="9.00">10</text>
</g>
<!-- 10&#45;&gt;16 -->
<g id="edge37" class="edge">
<title>10&#45;&gt;16</title>
<path fill="none" stroke="green" stroke-width="0.8" d="M411.75,-232.96C430.23,-229.24 464.77,-222.55 494.44,-218.31 570.09,-207.49 776.37,-229.54 836.44,-182.31 875.78,-151.38 888.69,-115.37 862.44,-72.77 845.54,-45.32 809.71,-31.49 784.4,-24.87"/>
<polygon fill="green" stroke="green" stroke-width="0.8" points="785.15,-21.46 774.61,-22.54 783.52,-28.26 785.15,-21.46"/>
</g>
<!-- 10&#45;&gt;12 -->
<g id="edge38" class="edge">
<title>10&#45;&gt;12</title>
<path fill="none" stroke="green" stroke-width="0.8" d="M411.46,-233.15C429.88,-229.58 464.66,-223.02 494.44,-218.31 553.36,-208.99 712.41,-217.68 760.44,-182.31 780.78,-167.33 791.59,-140.03 797.12,-119.39"/>
<polygon fill="green" stroke="green" stroke-width="0.8" points="800.54,-120.12 799.49,-109.58 793.74,-118.48 800.54,-120.12"/>
</g>
<!-- 10&#45;&gt;13 -->
<g id="edge39" class="edge">
<title>10&#45;&gt;13</title>
<path fill="none" stroke="green" stroke-width="0.8" d="M386.15,-227.47C353,-204.98 263.29,-141.96 249.44,-109.54 243.03,-94.51 243.44,-87.97 249.44,-72.77 255.1,-58.46 266.59,-45.75 277.14,-36.31"/>
<polygon fill="green" stroke="green" stroke-width="0.8" points="279.51,-38.89 284.9,-29.77 275,-33.54 279.51,-38.89"/>
</g>
<!-- 10&#45;&gt;15 -->
<g id="edge40" class="edge">
<title>10&#45;&gt;15</title>
<path fill="none" stroke="green" stroke-width="0.8" d="M396.74,-227.56C392.47,-207.12 381.13,-152.83 374.17,-119.53"/>
<polygon fill="green" stroke="green" stroke-width="0.8" points="377.55,-118.6 372.07,-109.53 370.69,-120.03 377.55,-118.6"/>
</g>
<!-- 10&#45;&gt;14 -->
<g id="edge41" class="edge">
<title>10&#45;&gt;14</title>
<path fill="none" stroke="green" stroke-width="0.8" d="M393.17,-227.58C386.97,-218.04 376.42,-201.82 367.62,-188.27"/>
<polygon fill="green" stroke="green" stroke-width="0.8" points="370.53,-186.32 362.14,-179.85 364.66,-190.14 370.53,-186.32"/>
</g>
<!-- 11&#45;&gt;13 -->
<g id="edge46" class="edge">
<title>11&#45;&gt;13</title>
<path fill="none" stroke="green" stroke-width="0.8" d="M28.28,-218.63C21.4,-185.87 11.79,-113.77 48.44,-72.77 77.8,-39.94 211.5,-25.98 270.88,-21.32"/>
<polygon fill="green" stroke="green" stroke-width="0.8" points="271.35,-24.8 281.06,-20.56 270.83,-17.82 271.35,-24.8"/>
</g>
<!-- 17 -->
<g id="node17" class="node">
<title>17</title>
<ellipse fill="white" stroke="black" cx="108.44" cy="-163.92" rx="18.27" ry="18.27"/>
<text text-anchor="middle" x="108.44" y="-161.72" font-family="Times,serif" font-size="9.00">17</text>
</g>
<!-- 11&#45;&gt;17 -->
<g id="edge53" class="edge">
<title>11&#45;&gt;17</title>
<path fill="none" stroke="green" stroke-width="0.8" d="M45.68,-223.37C57.34,-212.51 74.51,-196.52 87.95,-184.01"/>
<polygon fill="green" stroke="green" stroke-width="0.8" points="90.42,-186.49 95.36,-177.11 85.65,-181.36 90.42,-186.49"/>
</g>
<!-- 14&#45;&gt;15 -->
<g id="edge42" class="edge">
<title>14&#45;&gt;15</title>
<path fill="none" stroke="green" stroke-width="0.8" d="M356.32,-145.79C358.1,-137.91 360.26,-128.37 362.25,-119.53"/>
<polygon fill="green" stroke="green" stroke-width="0.8" points="365.7,-120.15 364.49,-109.62 358.88,-118.6 365.7,-120.15"/>
</g>
<!-- 14&#45;&gt;18 -->
<g id="edge48" class="edge">
<title>14&#45;&gt;18</title>
<path fill="none" stroke="green" stroke-width="0.8" d="M339.21,-150.6C327.54,-139.74 310.37,-123.75 296.94,-111.24"/>
<polygon fill="green" stroke="green" stroke-width="0.8" points="299.23,-108.59 289.53,-104.34 294.46,-113.72 299.23,-108.59"/>
</g>
<!-- 17&#45;&gt;18 -->
<g id="edge54" class="edge">
<title>17&#45;&gt;18</title>
<path fill="none" stroke="green" stroke-width="0.8" d="M124.2,-153.86C129.31,-151.06 135.06,-148.05 140.44,-145.54 177.51,-128.28 221.82,-111.59 249.56,-101.59"/>
<polygon fill="green" stroke="green" stroke-width="0.8" points="250.74,-104.89 258.98,-98.22 248.39,-98.29 250.74,-104.89"/>
</g>
<!-- 18&#45;&gt;16 -->
<g id="edge44" class="edge">
<title>18&#45;&gt;16</title>
<path fill="none" stroke="green" stroke-width="0.8" d="M293.95,-84.79C306.95,-80.98 325.17,-75.98 341.44,-72.77 485.24,-44.42 660.16,-27.6 727.82,-21.74"/>
<polygon fill="green" stroke="green" stroke-width="0.8" points="728.43,-25.2 738.1,-20.86 727.84,-18.23 728.43,-25.2"/>
</g>
<!-- 18&#45;&gt;13 -->
<g id="edge47" class="edge">
<title>18&#45;&gt;13</title>
<path fill="none" stroke="green" stroke-width="0.8" d="M281.89,-73.38C284.59,-65.1 287.9,-54.91 290.92,-45.62"/>
<polygon fill="green" stroke="green" stroke-width="0.8" points="294.27,-46.63 294.03,-36.04 287.61,-44.46 294.27,-46.63"/>
</g>
</g>
</svg>
