<?xml version="1.0" encoding="UTF-8" standalone="no"?>
<!DOCTYPE svg PUBLIC "-//W3C//DTD SVG 1.1//EN"
 "http://www.w3.org/Graphics/SVG/1.1/DTD/svg11.dtd">
<!-- Generated by graphviz version 3.0.0 (20220226.1711)
 -->
<!-- Pages: 1 -->
<svg width="642pt" height="172pt"
 viewBox="0.00 0.00 641.95 171.54" xmlns="http://www.w3.org/2000/svg" xmlns:xlink="http://www.w3.org/1999/xlink">
<g id="graph0" class="graph" transform="scale(1 1) rotate(0) translate(4 167.54)">
<polygon fill="white" stroke="transparent" points="-4,4 -4,-167.54 637.95,-167.54 637.95,4 -4,4"/>
<!-- 1 -->
<g id="node1" class="node">
<title>1</title>
<polygon fill="lightgray" stroke="black" points="449.44,-100.15 428.44,-100.15 428.44,-82.15 449.44,-82.15 449.44,-100.15"/>
<text text-anchor="middle" x="438.94" y="-88.95" font-family="Times,serif" font-size="9.00">1</text>
</g>
<!-- 15 -->
<g id="node11" class="node">
<title>15</title>
<ellipse fill="lightblue" stroke="black" cx="378.94" cy="-18.38" rx="18.27" ry="18.27"/>
<text text-anchor="middle" x="378.94" y="-16.18" font-family="Times,serif" font-size="9.00">15</text>
</g>
<!-- 1&#45;&gt;15 -->
<g id="edge1" class="edge">
<title>1&#45;&gt;15</title>
<path fill="none" stroke="green" stroke-width="0.8" d="M432.06,-82.04C423.57,-72.02 408.81,-54.61 397,-40.68"/>
<polygon fill="green" stroke="green" stroke-width="0.8" points="399.59,-38.33 390.46,-32.96 394.25,-42.86 399.59,-38.33"/>
</g>
<!-- 16 -->
<g id="node12" class="node">
<title>16</title>
<ellipse fill="lightblue" stroke="black" cx="268.94" cy="-18.38" rx="18.27" ry="18.27"/>
<text text-anchor="middle" x="268.94" y="-16.18" font-family="Times,serif" font-size="9.00">16</text>
</g>
<!-- 1&#45;&gt;16 -->
<g id="edge2" class="edge">
<title>1&#45;&gt;16</title>
<path fill="none" stroke="green" stroke-width="0.8" d="M430.99,-81.84C427.54,-78.62 423.3,-75.16 418.94,-72.77 369.36,-45.6 348.53,-59.89 296.94,-36.77 295.54,-36.14 294.12,-35.45 292.71,-34.72"/>
<polygon fill="green" stroke="green" stroke-width="0.8" points="294.06,-31.47 283.65,-29.54 290.59,-37.54 294.06,-31.47"/>
</g>
<!-- 13 -->
<g id="node13" class="node">
<title>13</title>
<ellipse fill="lightblue" stroke="black" cx="323.94" cy="-18.38" rx="18.27" ry="18.27"/>
<text text-anchor="middle" x="323.94" y="-16.18" font-family="Times,serif" font-size="9.00">13</text>
</g>
<!-- 1&#45;&gt;13 -->
<g id="edge3" class="edge">
<title>1&#45;&gt;13</title>
<path fill="none" stroke="green" stroke-width="0.8" d="M430.33,-81.92C426.92,-78.87 422.88,-75.49 418.94,-72.77 391.13,-53.56 381.21,-53.69 351.94,-36.77 350.64,-36.02 349.31,-35.24 347.98,-34.44"/>
<polygon fill="green" stroke="green" stroke-width="0.8" points="349.6,-31.33 339.24,-29.12 345.96,-37.31 349.6,-31.33"/>
</g>
<!-- 14 -->
<g id="node14" class="node">
<title>14</title>
<ellipse fill="lightblue" stroke="black" cx="213.94" cy="-18.38" rx="18.27" ry="18.27"/>
<text text-anchor="middle" x="213.94" y="-16.18" font-family="Times,serif" font-size="9.00">14</text>
</g>
<!-- 1&#45;&gt;14 -->
<g id="edge4" class="edge">
<title>1&#45;&gt;14</title>
<path fill="none" stroke="green" stroke-width="0.8" d="M431.46,-82C427.97,-78.66 423.56,-75.05 418.94,-72.77 346.94,-37.27 316.55,-66.41 241.94,-36.77 240.51,-36.2 239.08,-35.56 237.65,-34.87"/>
<polygon fill="green" stroke="green" stroke-width="0.8" points="238.98,-31.6 228.54,-29.8 235.57,-37.72 238.98,-31.6"/>
</g>
<!-- 2 -->
<g id="node2" class="node">
<title>2</title>
<polygon fill="lightgray" stroke="black" points="170.44,-100.15 149.44,-100.15 149.44,-82.15 170.44,-82.15 170.44,-100.15"/>
<text text-anchor="middle" x="159.94" y="-88.95" font-family="Times,serif" font-size="9.00">2</text>
</g>
<!-- 2&#45;&gt;15 -->
<g id="edge5" class="edge">
<title>2&#45;&gt;15</title>
<path fill="none" stroke="green" stroke-width="0.8" d="M166.98,-82.01C170.29,-78.67 174.49,-75.05 178.94,-72.77 248.44,-37.14 278.44,-65.81 350.94,-36.77 352.37,-36.2 353.81,-35.55 355.23,-34.86"/>
<polygon fill="green" stroke="green" stroke-width="0.8" points="357.31,-37.71 364.34,-29.78 353.9,-31.6 357.31,-37.71"/>
</g>
<!-- 2&#45;&gt;16 -->
<g id="edge6" class="edge">
<title>2&#45;&gt;16</title>
<path fill="none" stroke="green" stroke-width="0.8" d="M168.12,-81.96C171.36,-78.91 175.2,-75.52 178.94,-72.77 204.62,-53.91 213.63,-53.18 240.94,-36.77 242.23,-36 243.55,-35.2 244.88,-34.39"/>
<polygon fill="green" stroke="green" stroke-width="0.8" points="246.9,-37.25 253.59,-29.03 243.24,-31.29 246.9,-37.25"/>
</g>
<!-- 2&#45;&gt;13 -->
<g id="edge7" class="edge">
<title>2&#45;&gt;13</title>
<path fill="none" stroke="green" stroke-width="0.8" d="M167.45,-81.85C170.72,-78.64 174.75,-75.17 178.94,-72.77 226.16,-45.75 246.42,-59.3 295.94,-36.77 297.34,-36.13 298.76,-35.44 300.17,-34.7"/>
<polygon fill="green" stroke="green" stroke-width="0.8" points="302.29,-37.52 309.22,-29.51 298.81,-31.45 302.29,-37.52"/>
</g>
<!-- 2&#45;&gt;14 -->
<g id="edge8" class="edge">
<title>2&#45;&gt;14</title>
<path fill="none" stroke="green" stroke-width="0.8" d="M166.14,-82.04C173.62,-72.23 186.5,-55.35 197.01,-41.58"/>
<polygon fill="green" stroke="green" stroke-width="0.8" points="199.89,-43.57 203.18,-33.5 194.33,-39.32 199.89,-43.57"/>
</g>
<!-- 3 -->
<g id="node3" class="node">
<title>3</title>
<polygon fill="lightgray" stroke="black" points="209.44,-100.15 188.44,-100.15 188.44,-82.15 209.44,-82.15 209.44,-100.15"/>
<text text-anchor="middle" x="198.94" y="-88.95" font-family="Times,serif" font-size="9.00">3</text>
</g>
<!-- 3&#45;&gt;15 -->
<g id="edge9" class="edge">
<title>3&#45;&gt;15</title>
<path fill="none" stroke="green" stroke-width="0.8" d="M206.05,-82.13C209.37,-78.81 213.55,-75.18 217.94,-72.77 271.61,-43.27 294.78,-61.18 350.94,-36.77 352.35,-36.16 353.78,-35.48 355.19,-34.76"/>
<polygon fill="green" stroke="green" stroke-width="0.8" points="357.3,-37.59 364.27,-29.61 353.85,-31.5 357.3,-37.59"/>
</g>
<!-- 3&#45;&gt;16 -->
<g id="edge10" class="edge">
<title>3&#45;&gt;16</title>
<path fill="none" stroke="green" stroke-width="0.8" d="M206.97,-82.04C217.15,-71.74 235.06,-53.64 249.01,-39.53"/>
<polygon fill="green" stroke="green" stroke-width="0.8" points="251.74,-41.75 256.29,-32.18 246.77,-36.83 251.74,-41.75"/>
</g>
<!-- 3&#45;&gt;13 -->
<g id="edge11" class="edge">
<title>3&#45;&gt;13</title>
<path fill="none" stroke="green" stroke-width="0.8" d="M206.62,-82.12C209.91,-78.95 213.92,-75.44 217.94,-72.77 249.74,-51.63 262.33,-54.87 295.94,-36.77 297.26,-36.06 298.61,-35.31 299.96,-34.54"/>
<polygon fill="green" stroke="green" stroke-width="0.8" points="301.95,-37.43 308.74,-29.3 298.36,-31.42 301.95,-37.43"/>
</g>
<!-- 3&#45;&gt;14 -->
<g id="edge12" class="edge">
<title>3&#45;&gt;14</title>
<path fill="none" stroke="green" stroke-width="0.8" d="M200.66,-82.04C202.49,-73.41 205.48,-59.31 208.16,-46.66"/>
<polygon fill="green" stroke="green" stroke-width="0.8" points="211.66,-47.05 210.31,-36.54 204.81,-45.6 211.66,-47.05"/>
</g>
<!-- 4 -->
<g id="node4" class="node">
<title>4</title>
<polygon fill="lightgray" stroke="black" points="248.44,-100.15 227.44,-100.15 227.44,-82.15 248.44,-82.15 248.44,-100.15"/>
<text text-anchor="middle" x="237.94" y="-88.95" font-family="Times,serif" font-size="9.00">4</text>
</g>
<!-- 4&#45;&gt;15 -->
<g id="edge13" class="edge">
<title>4&#45;&gt;15</title>
<path fill="none" stroke="green" stroke-width="0.8" d="M245.53,-81.99C248.81,-78.8 252.83,-75.31 256.94,-72.77 295,-49.26 310.87,-56.66 350.94,-36.77 352.32,-36.09 353.72,-35.35 355.11,-34.59"/>
<polygon fill="green" stroke="green" stroke-width="0.8" points="357.27,-37.38 364.13,-29.31 353.73,-31.34 357.27,-37.38"/>
</g>
<!-- 4&#45;&gt;16 -->
<g id="edge14" class="edge">
<title>4&#45;&gt;16</title>
<path fill="none" stroke="green" stroke-width="0.8" d="M241.5,-82.04C245.45,-73.01 252.04,-57.98 257.77,-44.9"/>
<polygon fill="green" stroke="green" stroke-width="0.8" points="261.12,-45.97 261.92,-35.41 254.7,-43.17 261.12,-45.97"/>
</g>
<!-- 4&#45;&gt;13 -->
<g id="edge15" class="edge">
<title>4&#45;&gt;13</title>
<path fill="none" stroke="green" stroke-width="0.8" d="M246.72,-81.89C249.9,-78.96 253.54,-75.67 256.94,-72.77 271.51,-60.33 288.37,-46.89 301.54,-36.61"/>
<polygon fill="green" stroke="green" stroke-width="0.8" points="303.85,-39.26 309.6,-30.36 299.55,-33.73 303.85,-39.26"/>
</g>
<!-- 4&#45;&gt;14 -->
<g id="edge16" class="edge">
<title>4&#45;&gt;14</title>
<path fill="none" stroke="green" stroke-width="0.8" d="M235.19,-82.04C232.2,-73.21 227.26,-58.65 222.9,-45.78"/>
<polygon fill="green" stroke="green" stroke-width="0.8" points="226.09,-44.32 219.57,-35.97 219.46,-46.57 226.09,-44.32"/>
</g>
<!-- 5 -->
<g id="node5" class="node">
<title>5</title>
<polygon fill="lightgray" stroke="black" points="287.44,-100.15 266.44,-100.15 266.44,-82.15 287.44,-82.15 287.44,-100.15"/>
<text text-anchor="middle" x="276.94" y="-88.95" font-family="Times,serif" font-size="9.00">5</text>
</g>
<!-- 5&#45;&gt;15 -->
<g id="edge17" class="edge">
<title>5&#45;&gt;15</title>
<path fill="none" stroke="green" stroke-width="0.8" d="M285.19,-82.05C288.43,-79.01 292.26,-75.61 295.94,-72.77 301.37,-68.59 332.42,-48.79 354.95,-34.52"/>
<polygon fill="green" stroke="green" stroke-width="0.8" points="357.11,-37.3 363.69,-29 353.37,-31.38 357.11,-37.3"/>
</g>
<!-- 5&#45;&gt;16 -->
<g id="edge18" class="edge">
<title>5&#45;&gt;16</title>
<path fill="none" stroke="green" stroke-width="0.8" d="M276.02,-82.04C275.06,-73.47 273.48,-59.49 272.05,-46.91"/>
<polygon fill="green" stroke="green" stroke-width="0.8" points="275.52,-46.37 270.91,-36.82 268.56,-47.15 275.52,-46.37"/>
</g>
<!-- 5&#45;&gt;13 -->
<g id="edge19" class="edge">
<title>5&#45;&gt;13</title>
<path fill="none" stroke="green" stroke-width="0.8" d="M282.33,-82.04C288.7,-72.45 299.57,-56.08 308.61,-42.47"/>
<polygon fill="green" stroke="green" stroke-width="0.8" points="311.6,-44.3 314.21,-34.03 305.77,-40.43 311.6,-44.3"/>
</g>
<!-- 5&#45;&gt;14 -->
<g id="edge20" class="edge">
<title>5&#45;&gt;14</title>
<path fill="none" stroke="green" stroke-width="0.8" d="M269.72,-82.04C260.75,-71.96 245.11,-54.4 232.68,-40.43"/>
<polygon fill="green" stroke="green" stroke-width="0.8" points="235.06,-37.84 225.8,-32.7 229.83,-42.5 235.06,-37.84"/>
</g>
<!-- 6 -->
<g id="node6" class="node">
<title>6</title>
<polygon fill="lightgray" stroke="black" points="326.44,-100.15 305.44,-100.15 305.44,-82.15 326.44,-82.15 326.44,-100.15"/>
<text text-anchor="middle" x="315.94" y="-88.95" font-family="Times,serif" font-size="9.00">6</text>
</g>
<!-- 6&#45;&gt;15 -->
<g id="edge21" class="edge">
<title>6&#45;&gt;15</title>
<path fill="none" stroke="green" stroke-width="0.8" d="M323.17,-82.04C332.14,-71.96 347.77,-54.4 360.21,-40.43"/>
<polygon fill="green" stroke="green" stroke-width="0.8" points="363.05,-42.5 367.09,-32.7 357.82,-37.84 363.05,-42.5"/>
</g>
<!-- 6&#45;&gt;16 -->
<g id="edge22" class="edge">
<title>6&#45;&gt;16</title>
<path fill="none" stroke="green" stroke-width="0.8" d="M310.55,-82.04C304.18,-72.45 293.31,-56.08 284.28,-42.47"/>
<polygon fill="green" stroke="green" stroke-width="0.8" points="287.12,-40.43 278.67,-34.03 281.29,-44.3 287.12,-40.43"/>
</g>
<!-- 6&#45;&gt;13 -->
<g id="edge23" class="edge">
<title>6&#45;&gt;13</title>
<path fill="none" stroke="green" stroke-width="0.8" d="M316.86,-82.04C317.83,-73.47 319.41,-59.49 320.83,-46.91"/>
<polygon fill="green" stroke="green" stroke-width="0.8" points="324.33,-47.15 321.97,-36.82 317.37,-46.37 324.33,-47.15"/>
</g>
<!-- 6&#45;&gt;14 -->
<g id="edge24" class="edge">
<title>6&#45;&gt;14</title>
<path fill="none" stroke="green" stroke-width="0.8" d="M307.2,-82.09C303.78,-79.06 299.76,-75.65 295.94,-72.77 285.49,-64.88 257.88,-47.13 237.58,-34.26"/>
<polygon fill="green" stroke="green" stroke-width="0.8" points="239.44,-31.3 229.12,-28.91 235.7,-37.21 239.44,-31.3"/>
</g>
<!-- 7 -->
<g id="node7" class="node">
<title>7</title>
<polygon fill="lightgray" stroke="black" points="268.44,-163.54 247.44,-163.54 247.44,-145.54 268.44,-145.54 268.44,-163.54"/>
<text text-anchor="middle" x="257.94" y="-152.34" font-family="Times,serif" font-size="9.00">7</text>
</g>
<!-- 7&#45;&gt;15 -->
<g id="edge25" class="edge">
<title>7&#45;&gt;15</title>
<path fill="none" stroke="green" stroke-width="0.8" d="M268.61,-153.1C308.66,-151.2 449.17,-142.26 475.94,-109.54 486.29,-96.89 484.26,-86.84 475.94,-72.77 461.03,-47.54 429.48,-33.43 406.4,-26.14"/>
<polygon fill="green" stroke="green" stroke-width="0.8" points="407.37,-22.78 396.79,-23.34 405.41,-29.5 407.37,-22.78"/>
</g>
<!-- 7&#45;&gt;13 -->
<g id="edge26" class="edge">
<title>7&#45;&gt;13</title>
<path fill="none" stroke="green" stroke-width="0.8" d="M268.56,-152.91C306.53,-150.4 434.59,-139.8 458.94,-109.54 469.19,-96.81 468.48,-86.04 458.94,-72.77 429.66,-32.02 397.34,-58.15 351.94,-36.77 350.55,-36.11 349.14,-35.41 347.74,-34.66"/>
<polygon fill="green" stroke="green" stroke-width="0.8" points="349.1,-31.41 338.7,-29.43 345.6,-37.47 349.1,-31.41"/>
</g>
<!-- 7&#45;&gt;14 -->
<g id="edge27" class="edge">
<title>7&#45;&gt;14</title>
<path fill="none" stroke="green" stroke-width="0.8" d="M247.34,-153.38C203.99,-152.48 41.05,-146.65 9.94,-109.54 -40.6,-49.24 117.6,-27.87 185.03,-21.61"/>
<polygon fill="green" stroke="green" stroke-width="0.8" points="185.73,-25.07 195.39,-20.71 185.12,-18.09 185.73,-25.07"/>
</g>
<!-- 12 -->
<g id="node16" class="node">
<title>12</title>
<ellipse fill="white" stroke="black" cx="36.94" cy="-91.15" rx="18.27" ry="18.27"/>
<text text-anchor="middle" x="36.94" y="-88.95" font-family="Times,serif" font-size="9.00">12</text>
</g>
<!-- 7&#45;&gt;12 -->
<g id="edge42" class="edge">
<title>7&#45;&gt;12</title>
<path fill="none" stroke="green" stroke-width="0.8" d="M247.41,-152.1C218.28,-147.92 134.45,-134.43 68.94,-109.54 66.37,-108.56 63.75,-107.42 61.17,-106.18"/>
<polygon fill="green" stroke="green" stroke-width="0.8" points="62.66,-103.01 52.17,-101.51 59.43,-109.23 62.66,-103.01"/>
</g>
<!-- 8 -->
<g id="node8" class="node">
<title>8</title>
<polygon fill="lightgray" stroke="black" points="564.44,-163.54 543.44,-163.54 543.44,-145.54 564.44,-145.54 564.44,-163.54"/>
<text text-anchor="middle" x="553.94" y="-152.34" font-family="Times,serif" font-size="9.00">8</text>
</g>
<!-- 8&#45;&gt;15 -->
<g id="edge28" class="edge">
<title>8&#45;&gt;15</title>
<path fill="none" stroke="green" stroke-width="0.8" d="M564.57,-150.76C581.35,-145.74 613.48,-133.38 626.94,-109.54 634.98,-95.31 637.21,-85.48 626.94,-72.77 599.59,-38.9 466.58,-25.51 407.42,-21.16"/>
<polygon fill="green" stroke="green" stroke-width="0.8" points="407.49,-17.66 397.27,-20.45 407,-24.64 407.49,-17.66"/>
</g>
<!-- 8&#45;&gt;16 -->
<g id="edge29" class="edge">
<title>8&#45;&gt;16</title>
<path fill="none" stroke="green" stroke-width="0.8" d="M543.27,-153.24C481.12,-151.38 167.79,-140.51 139.94,-109.54 129.01,-97.39 130.52,-86.12 139.94,-72.77 167.41,-33.82 198.01,-57.46 240.94,-36.77 242.33,-36.1 243.73,-35.38 245.13,-34.63"/>
<polygon fill="green" stroke="green" stroke-width="0.8" points="247.28,-37.43 254.16,-29.38 243.76,-31.38 247.28,-37.43"/>
</g>
<!-- 8&#45;&gt;13 -->
<g id="edge30" class="edge">
<title>8&#45;&gt;13</title>
<path fill="none" stroke="green" stroke-width="0.8" d="M548.31,-145.31C536.71,-128.99 508.49,-92.4 475.94,-72.77 426.8,-43.13 404.36,-60.12 351.94,-36.77 350.54,-36.14 349.12,-35.46 347.71,-34.73"/>
<polygon fill="green" stroke="green" stroke-width="0.8" points="349.06,-31.47 338.64,-29.55 345.59,-37.55 349.06,-31.47"/>
</g>
<!-- 8&#45;&gt;14 -->
<g id="edge31" class="edge">
<title>8&#45;&gt;14</title>
<path fill="none" stroke="green" stroke-width="0.8" d="M543.4,-153.27C480.59,-151.58 157.63,-141.35 128.94,-109.54 118,-97.4 121.04,-87.07 128.94,-72.77 141.2,-50.59 166.97,-36.38 186.93,-28.25"/>
<polygon fill="green" stroke="green" stroke-width="0.8" points="188.35,-31.45 196.46,-24.63 185.87,-24.91 188.35,-31.45"/>
</g>
<!-- 11 -->
<g id="node15" class="node">
<title>11</title>
<ellipse fill="white" stroke="black" cx="599.94" cy="-91.15" rx="18.27" ry="18.27"/>
<text text-anchor="middle" x="599.94" y="-88.95" font-family="Times,serif" font-size="9.00">11</text>
</g>
<!-- 8&#45;&gt;11 -->
<g id="edge40" class="edge">
<title>8&#45;&gt;11</title>
<path fill="none" stroke="green" stroke-width="0.8" d="M559.96,-145.51C565.8,-137.72 574.94,-125.52 583.01,-114.75"/>
<polygon fill="green" stroke="green" stroke-width="0.8" points="585.98,-116.63 589.17,-106.53 580.37,-112.43 585.98,-116.63"/>
</g>
<!-- 9 -->
<g id="node9" class="node">
<title>9</title>
<polygon fill="lightgray" stroke="black" points="365.44,-100.15 344.44,-100.15 344.44,-82.15 365.44,-82.15 365.44,-100.15"/>
<text text-anchor="middle" x="354.94" y="-88.95" font-family="Times,serif" font-size="9.00">9</text>
</g>
<!-- 9&#45;&gt;15 -->
<g id="edge32" class="edge">
<title>9&#45;&gt;15</title>
<path fill="none" stroke="green" stroke-width="0.8" d="M357.7,-82.04C360.69,-73.21 365.63,-58.65 369.99,-45.78"/>
<polygon fill="green" stroke="green" stroke-width="0.8" points="373.42,-46.57 373.32,-35.97 366.79,-44.32 373.42,-46.57"/>
</g>
<!-- 9&#45;&gt;16 -->
<g id="edge33" class="edge">
<title>9&#45;&gt;16</title>
<path fill="none" stroke="green" stroke-width="0.8" d="M346.16,-81.89C342.99,-78.96 339.34,-75.67 335.94,-72.77 321.38,-60.33 304.51,-46.89 291.34,-36.61"/>
<polygon fill="green" stroke="green" stroke-width="0.8" points="293.33,-33.73 283.29,-30.36 289.04,-39.26 293.33,-33.73"/>
</g>
<!-- 9&#45;&gt;13 -->
<g id="edge34" class="edge">
<title>9&#45;&gt;13</title>
<path fill="none" stroke="green" stroke-width="0.8" d="M351.39,-82.04C347.43,-73.01 340.85,-57.98 335.12,-44.9"/>
<polygon fill="green" stroke="green" stroke-width="0.8" points="338.18,-43.17 330.96,-35.41 331.77,-45.97 338.18,-43.17"/>
</g>
<!-- 9&#45;&gt;14 -->
<g id="edge35" class="edge">
<title>9&#45;&gt;14</title>
<path fill="none" stroke="green" stroke-width="0.8" d="M347.35,-81.99C344.07,-78.8 340.05,-75.31 335.94,-72.77 297.88,-49.26 282.02,-56.66 241.94,-36.77 240.57,-36.09 239.17,-35.35 237.77,-34.59"/>
<polygon fill="green" stroke="green" stroke-width="0.8" points="239.15,-31.34 228.75,-29.31 235.61,-37.38 239.15,-31.34"/>
</g>
<!-- 10 -->
<g id="node10" class="node">
<title>10</title>
<polygon fill="lightgray" stroke="black" points="409.94,-100.15 383.94,-100.15 383.94,-82.15 409.94,-82.15 409.94,-100.15"/>
<text text-anchor="middle" x="396.94" y="-88.95" font-family="Times,serif" font-size="9.00">10</text>
</g>
<!-- 10&#45;&gt;15 -->
<g id="edge36" class="edge">
<title>10&#45;&gt;15</title>
<path fill="none" stroke="green" stroke-width="0.8" d="M394.88,-82.04C392.66,-73.33 389.03,-59.03 385.78,-46.29"/>
<polygon fill="green" stroke="green" stroke-width="0.8" points="389.16,-45.37 383.31,-36.54 382.38,-47.09 389.16,-45.37"/>
</g>
<!-- 10&#45;&gt;16 -->
<g id="edge37" class="edge">
<title>10&#45;&gt;16</title>
<path fill="none" stroke="green" stroke-width="0.8" d="M387.45,-81.85C383.7,-78.78 379.26,-75.42 374.94,-72.77 342.4,-52.79 330.56,-54.87 296.94,-36.77 295.62,-36.06 294.27,-35.31 292.92,-34.54"/>
<polygon fill="green" stroke="green" stroke-width="0.8" points="294.53,-31.42 284.15,-29.3 290.94,-37.43 294.53,-31.42"/>
</g>
<!-- 10&#45;&gt;13 -->
<g id="edge38" class="edge">
<title>10&#45;&gt;13</title>
<path fill="none" stroke="green" stroke-width="0.8" d="M388.57,-82.04C377.79,-71.59 358.71,-53.09 344.06,-38.89"/>
<polygon fill="green" stroke="green" stroke-width="0.8" points="346.49,-36.37 336.88,-31.92 341.62,-41.4 346.49,-36.37"/>
</g>
<!-- 10&#45;&gt;14 -->
<g id="edge39" class="edge">
<title>10&#45;&gt;14</title>
<path fill="none" stroke="green" stroke-width="0.8" d="M388.09,-81.81C384.29,-78.6 379.64,-75.13 374.94,-72.77 320.25,-45.22 298.11,-61.18 241.94,-36.77 240.53,-36.16 239.11,-35.48 237.69,-34.76"/>
<polygon fill="green" stroke="green" stroke-width="0.8" points="239.04,-31.5 228.62,-29.61 235.58,-37.59 239.04,-31.5"/>
</g>
<!-- 11&#45;&gt;15 -->
<g id="edge41" class="edge">
<title>11&#45;&gt;15</title>
<path fill="none" stroke="green" stroke-width="0.8" d="M584.33,-80.77C579.22,-77.95 573.45,-75.01 567.94,-72.77 512.61,-50.25 444.49,-33.55 407,-25.25"/>
<polygon fill="green" stroke="green" stroke-width="0.8" points="407.35,-21.75 396.84,-23.04 405.87,-28.59 407.35,-21.75"/>
</g>
<!-- 12&#45;&gt;16 -->
<g id="edge43" class="edge">
<title>12&#45;&gt;16</title>
<path fill="none" stroke="green" stroke-width="0.8" d="M54.85,-85.62C102.99,-73.42 232.2,-40.53 240.94,-36.77 242.36,-36.16 243.78,-35.49 245.2,-34.78"/>
<polygon fill="green" stroke="green" stroke-width="0.8" points="247.3,-37.61 254.28,-29.63 243.85,-31.52 247.3,-37.61"/>
</g>
<!-- 12&#45;&gt;14 -->
<g id="edge44" class="edge">
<title>12&#45;&gt;14</title>
<path fill="none" stroke="green" stroke-width="0.8" d="M52.66,-81.03C57.78,-78.22 63.53,-75.22 68.94,-72.77 109.16,-54.56 157.6,-37.69 187.07,-27.98"/>
<polygon fill="green" stroke="green" stroke-width="0.8" points="188.24,-31.28 196.66,-24.85 186.06,-24.62 188.24,-31.28"/>
</g>
</g>
</svg>
