<?xml version="1.0" encoding="UTF-8" standalone="no"?>
<!DOCTYPE svg PUBLIC "-//W3C//DTD SVG 1.1//EN"
 "http://www.w3.org/Graphics/SVG/1.1/DTD/svg11.dtd">
<!-- Generated by graphviz version 3.0.0 (20220226.1711)
 -->
<!-- Pages: 1 -->
<svg width="386pt" height="99pt"
 viewBox="0.00 0.00 386.00 98.77" xmlns="http://www.w3.org/2000/svg" xmlns:xlink="http://www.w3.org/1999/xlink">
<g id="graph0" class="graph" transform="scale(1 1) rotate(0) translate(4 94.77)">
<polygon fill="white" stroke="transparent" points="-4,4 -4,-94.77 382,-94.77 382,4 -4,4"/>
<!-- 1 -->
<g id="node1" class="node">
<title>1</title>
<polygon fill="lightgray" stroke="black" points="183,-90.77 162,-90.77 162,-72.77 183,-72.77 183,-90.77"/>
<text text-anchor="middle" x="172.5" y="-79.57" font-family="Times,serif" font-size="9.00">1</text>
</g>
<!-- 11 -->
<g id="node11" class="node">
<title>11</title>
<ellipse fill="lightblue" stroke="black" cx="219.5" cy="-18.38" rx="18.27" ry="18.27"/>
<text text-anchor="middle" x="219.5" y="-16.18" font-family="Times,serif" font-size="9.00">11</text>
</g>
<!-- 1&#45;&gt;11 -->
<g id="edge1" class="edge">
<title>1&#45;&gt;11</title>
<path fill="none" stroke="green" stroke-width="0.8" d="M178.64,-72.74C184.61,-64.95 193.96,-52.75 202.2,-41.98"/>
<polygon fill="green" stroke="green" stroke-width="0.8" points="205.2,-43.83 208.5,-33.76 199.64,-39.57 205.2,-43.83"/>
</g>
<!-- 12 -->
<g id="node12" class="node">
<title>12</title>
<ellipse fill="lightblue" stroke="black" cx="274.5" cy="-18.38" rx="18.27" ry="18.27"/>
<text text-anchor="middle" x="274.5" y="-16.18" font-family="Times,serif" font-size="9.00">12</text>
</g>
<!-- 1&#45;&gt;12 -->
<g id="edge2" class="edge">
<title>1&#45;&gt;12</title>
<path fill="none" stroke="green" stroke-width="0.8" d="M183.08,-74.57C197.47,-66.1 224.02,-50.43 246.5,-36.77 247.78,-35.99 249.1,-35.19 250.42,-34.37"/>
<polygon fill="green" stroke="green" stroke-width="0.8" points="252.46,-37.23 259.13,-29 248.78,-31.28 252.46,-37.23"/>
</g>
<!-- 13 -->
<g id="node13" class="node">
<title>13</title>
<ellipse fill="lightblue" stroke="black" cx="109.5" cy="-18.38" rx="18.27" ry="18.27"/>
<text text-anchor="middle" x="109.5" y="-16.18" font-family="Times,serif" font-size="9.00">13</text>
</g>
<!-- 1&#45;&gt;13 -->
<g id="edge3" class="edge">
<title>1&#45;&gt;13</title>
<path fill="none" stroke="green" stroke-width="0.8" d="M164.26,-72.74C155.51,-64.21 141.34,-50.4 129.6,-38.97"/>
<polygon fill="green" stroke="green" stroke-width="0.8" points="131.93,-36.35 122.32,-31.88 127.04,-41.37 131.93,-36.35"/>
</g>
<!-- 14 -->
<g id="node14" class="node">
<title>14</title>
<ellipse fill="lightblue" stroke="black" cx="164.5" cy="-18.38" rx="18.27" ry="18.27"/>
<text text-anchor="middle" x="164.5" y="-16.18" font-family="Times,serif" font-size="9.00">14</text>
</g>
<!-- 1&#45;&gt;14 -->
<g id="edge4" class="edge">
<title>1&#45;&gt;14</title>
<path fill="none" stroke="green" stroke-width="0.8" d="M171.45,-72.74C170.58,-66.06 169.29,-56.14 168.05,-46.66"/>
<polygon fill="green" stroke="green" stroke-width="0.8" points="171.52,-46.18 166.76,-36.72 164.58,-47.09 171.52,-46.18"/>
</g>
<!-- 2 -->
<g id="node2" class="node">
<title>2</title>
<polygon fill="lightgray" stroke="black" points="222,-90.77 201,-90.77 201,-72.77 222,-72.77 222,-90.77"/>
<text text-anchor="middle" x="211.5" y="-79.57" font-family="Times,serif" font-size="9.00">2</text>
</g>
<!-- 2&#45;&gt;11 -->
<g id="edge5" class="edge">
<title>2&#45;&gt;11</title>
<path fill="none" stroke="green" stroke-width="0.8" d="M212.55,-72.74C213.42,-66.06 214.71,-56.14 215.95,-46.66"/>
<polygon fill="green" stroke="green" stroke-width="0.8" points="219.42,-47.09 217.24,-36.72 212.48,-46.18 219.42,-47.09"/>
</g>
<!-- 2&#45;&gt;12 -->
<g id="edge6" class="edge">
<title>2&#45;&gt;12</title>
<path fill="none" stroke="green" stroke-width="0.8" d="M219.74,-72.74C228.49,-64.21 242.66,-50.4 254.4,-38.97"/>
<polygon fill="green" stroke="green" stroke-width="0.8" points="256.96,-41.37 261.68,-31.88 252.07,-36.35 256.96,-41.37"/>
</g>
<!-- 2&#45;&gt;13 -->
<g id="edge7" class="edge">
<title>2&#45;&gt;13</title>
<path fill="none" stroke="green" stroke-width="0.8" d="M200.92,-74.57C186.53,-66.1 159.98,-50.43 137.5,-36.77 136.22,-35.99 134.9,-35.19 133.58,-34.37"/>
<polygon fill="green" stroke="green" stroke-width="0.8" points="135.22,-31.28 124.87,-29 131.54,-37.23 135.22,-31.28"/>
</g>
<!-- 2&#45;&gt;14 -->
<g id="edge8" class="edge">
<title>2&#45;&gt;14</title>
<path fill="none" stroke="green" stroke-width="0.8" d="M205.36,-72.74C199.39,-64.95 190.04,-52.75 181.8,-41.98"/>
<polygon fill="green" stroke="green" stroke-width="0.8" points="184.36,-39.57 175.5,-33.76 178.8,-43.83 184.36,-39.57"/>
</g>
<!-- 3 -->
<g id="node3" class="node">
<title>3</title>
<polygon fill="lightgray" stroke="black" points="261,-90.77 240,-90.77 240,-72.77 261,-72.77 261,-90.77"/>
<text text-anchor="middle" x="250.5" y="-79.57" font-family="Times,serif" font-size="9.00">3</text>
</g>
<!-- 3&#45;&gt;11 -->
<g id="edge9" class="edge">
<title>3&#45;&gt;11</title>
<path fill="none" stroke="green" stroke-width="0.8" d="M246.45,-72.74C242.78,-65.48 237.18,-54.39 232.03,-44.19"/>
<polygon fill="green" stroke="green" stroke-width="0.8" points="235.13,-42.57 227.5,-35.22 228.88,-45.72 235.13,-42.57"/>
</g>
<!-- 3&#45;&gt;12 -->
<g id="edge10" class="edge">
<title>3&#45;&gt;12</title>
<path fill="none" stroke="green" stroke-width="0.8" d="M253.64,-72.74C256.38,-65.72 260.52,-55.13 264.4,-45.23"/>
<polygon fill="green" stroke="green" stroke-width="0.8" points="267.73,-46.3 268.12,-35.71 261.21,-43.75 267.73,-46.3"/>
</g>
<!-- 3&#45;&gt;13 -->
<g id="edge11" class="edge">
<title>3&#45;&gt;13</title>
<path fill="none" stroke="green" stroke-width="0.8" d="M239.67,-76.14C237.01,-75.02 234.16,-73.84 231.5,-72.77 189.99,-56.09 177.57,-56.66 137.5,-36.77 136.12,-36.09 134.73,-35.35 133.33,-34.59"/>
<polygon fill="green" stroke="green" stroke-width="0.8" points="134.71,-31.34 124.31,-29.31 131.17,-37.38 134.71,-31.34"/>
</g>
<!-- 3&#45;&gt;14 -->
<g id="edge12" class="edge">
<title>3&#45;&gt;14</title>
<path fill="none" stroke="green" stroke-width="0.8" d="M239.95,-73.24C226.97,-63.97 204.54,-47.96 187.5,-35.8"/>
<polygon fill="green" stroke="green" stroke-width="0.8" points="189.33,-32.81 179.16,-29.85 185.27,-38.51 189.33,-32.81"/>
</g>
<!-- 4 -->
<g id="node4" class="node">
<title>4</title>
<polygon fill="lightgray" stroke="black" points="300,-90.77 279,-90.77 279,-72.77 300,-72.77 300,-90.77"/>
<text text-anchor="middle" x="289.5" y="-79.57" font-family="Times,serif" font-size="9.00">4</text>
</g>
<!-- 4&#45;&gt;11 -->
<g id="edge13" class="edge">
<title>4&#45;&gt;11</title>
<path fill="none" stroke="green" stroke-width="0.8" d="M280.35,-72.74C270.34,-63.97 253.97,-49.61 240.73,-38"/>
<polygon fill="green" stroke="green" stroke-width="0.8" points="242.8,-35.16 232.97,-31.2 238.18,-40.42 242.8,-35.16"/>
</g>
<!-- 4&#45;&gt;12 -->
<g id="edge14" class="edge">
<title>4&#45;&gt;12</title>
<path fill="none" stroke="green" stroke-width="0.8" d="M287.54,-72.74C285.89,-66.01 283.45,-56 281.12,-46.46"/>
<polygon fill="green" stroke="green" stroke-width="0.8" points="284.45,-45.35 278.67,-36.47 277.65,-47.01 284.45,-45.35"/>
</g>
<!-- 4&#45;&gt;13 -->
<g id="edge15" class="edge">
<title>4&#45;&gt;13</title>
<path fill="none" stroke="green" stroke-width="0.8" d="M278.75,-75.95C276.08,-74.83 273.21,-73.7 270.5,-72.77 212.59,-52.84 193.66,-61.18 137.5,-36.77 136.09,-36.16 134.67,-35.48 133.25,-34.76"/>
<polygon fill="green" stroke="green" stroke-width="0.8" points="134.6,-31.5 124.17,-29.61 131.14,-37.59 134.6,-31.5"/>
</g>
<!-- 4&#45;&gt;14 -->
<g id="edge16" class="edge">
<title>4&#45;&gt;14</title>
<path fill="none" stroke="green" stroke-width="0.8" d="M278.98,-76.2C257.35,-66.78 208.56,-45.35 192.5,-36.77 191.18,-36.06 189.83,-35.32 188.48,-34.55"/>
<polygon fill="green" stroke="green" stroke-width="0.8" points="190.08,-31.43 179.69,-29.32 186.49,-37.44 190.08,-31.43"/>
</g>
<!-- 5 -->
<g id="node5" class="node">
<title>5</title>
<polygon fill="lightgray" stroke="black" points="339,-90.77 318,-90.77 318,-72.77 339,-72.77 339,-90.77"/>
<text text-anchor="middle" x="328.5" y="-79.57" font-family="Times,serif" font-size="9.00">5</text>
</g>
<!-- 5&#45;&gt;11 -->
<g id="edge17" class="edge">
<title>5&#45;&gt;11</title>
<path fill="none" stroke="green" stroke-width="0.8" d="M317.91,-75.27C302.33,-67.12 272.4,-51.25 247.5,-36.77 246.2,-36.01 244.87,-35.23 243.54,-34.43"/>
<polygon fill="green" stroke="green" stroke-width="0.8" points="245.17,-31.33 234.81,-29.11 241.52,-37.3 245.17,-31.33"/>
</g>
<!-- 5&#45;&gt;12 -->
<g id="edge18" class="edge">
<title>5&#45;&gt;12</title>
<path fill="none" stroke="green" stroke-width="0.8" d="M321.44,-72.74C314.26,-64.59 302.84,-51.6 293.06,-40.48"/>
<polygon fill="green" stroke="green" stroke-width="0.8" points="295.54,-38.01 286.31,-32.81 290.29,-42.63 295.54,-38.01"/>
</g>
<!-- 5&#45;&gt;13 -->
<g id="edge19" class="edge">
<title>5&#45;&gt;13</title>
<path fill="none" stroke="green" stroke-width="0.8" d="M317.78,-75.83C315.11,-74.72 312.23,-73.62 309.5,-72.77 234.94,-49.51 210,-65.81 137.5,-36.77 136.07,-36.2 134.64,-35.55 133.21,-34.86"/>
<polygon fill="green" stroke="green" stroke-width="0.8" points="134.54,-31.6 124.1,-29.78 131.13,-37.71 134.54,-31.6"/>
</g>
<!-- 5&#45;&gt;14 -->
<g id="edge20" class="edge">
<title>5&#45;&gt;14</title>
<path fill="none" stroke="green" stroke-width="0.8" d="M317.72,-76.01C315.06,-74.9 312.19,-73.75 309.5,-72.77 258.36,-54.19 242.02,-59.3 192.5,-36.77 191.1,-36.13 189.69,-35.44 188.28,-34.7"/>
<polygon fill="green" stroke="green" stroke-width="0.8" points="189.63,-31.45 179.22,-29.51 186.15,-37.52 189.63,-31.45"/>
</g>
<!-- 6 -->
<g id="node6" class="node">
<title>6</title>
<polygon fill="lightgray" stroke="black" points="378,-90.77 357,-90.77 357,-72.77 378,-72.77 378,-90.77"/>
<text text-anchor="middle" x="367.5" y="-79.57" font-family="Times,serif" font-size="9.00">6</text>
</g>
<!-- 6&#45;&gt;11 -->
<g id="edge21" class="edge">
<title>6&#45;&gt;11</title>
<path fill="none" stroke="green" stroke-width="0.8" d="M356.69,-76.09C354.03,-74.98 351.17,-73.81 348.5,-72.77 304.08,-55.52 290.43,-57.46 247.5,-36.77 246.11,-36.1 244.71,-35.38 243.31,-34.63"/>
<polygon fill="green" stroke="green" stroke-width="0.8" points="244.68,-31.38 234.28,-29.38 241.16,-37.43 244.68,-31.38"/>
</g>
<!-- 6&#45;&gt;12 -->
<g id="edge22" class="edge">
<title>6&#45;&gt;12</title>
<path fill="none" stroke="green" stroke-width="0.8" d="M356.83,-73.73C342.58,-64.32 316.94,-47.39 298.04,-34.92"/>
<polygon fill="green" stroke="green" stroke-width="0.8" points="299.92,-31.97 289.65,-29.38 296.06,-37.81 299.92,-31.97"/>
</g>
<!-- 6&#45;&gt;13 -->
<g id="edge23" class="edge">
<title>6&#45;&gt;13</title>
<path fill="none" stroke="green" stroke-width="0.8" d="M356.8,-75.76C354.14,-74.65 351.25,-73.57 348.5,-72.77 257.17,-46.14 226.46,-70.49 137.5,-36.77 136.06,-36.22 134.62,-35.6 133.18,-34.93"/>
<polygon fill="green" stroke="green" stroke-width="0.8" points="134.5,-31.66 124.06,-29.89 131.12,-37.79 134.5,-31.66"/>
</g>
<!-- 6&#45;&gt;14 -->
<g id="edge24" class="edge">
<title>6&#45;&gt;14</title>
<path fill="none" stroke="green" stroke-width="0.8" d="M356.77,-75.87C354.1,-74.76 351.22,-73.65 348.5,-72.77 280.79,-50.88 258.28,-63.9 192.5,-36.77 191.08,-36.18 189.65,-35.53 188.22,-34.83"/>
<polygon fill="green" stroke="green" stroke-width="0.8" points="189.56,-31.56 179.13,-29.72 186.13,-37.67 189.56,-31.56"/>
</g>
<!-- 7 -->
<g id="node7" class="node">
<title>7</title>
<polygon fill="lightgray" stroke="black" points="21,-90.77 0,-90.77 0,-72.77 21,-72.77 21,-90.77"/>
<text text-anchor="middle" x="10.5" y="-79.57" font-family="Times,serif" font-size="9.00">7</text>
</g>
<!-- 7&#45;&gt;11 -->
<g id="edge25" class="edge">
<title>7&#45;&gt;11</title>
<path fill="none" stroke="green" stroke-width="0.8" d="M21.23,-75.86C23.89,-74.75 26.77,-73.64 29.5,-72.77 99.77,-50.37 123.2,-64.62 191.5,-36.77 192.92,-36.19 194.36,-35.54 195.78,-34.84"/>
<polygon fill="green" stroke="green" stroke-width="0.8" points="197.87,-37.68 204.88,-29.74 194.45,-31.58 197.87,-37.68"/>
</g>
<!-- 7&#45;&gt;12 -->
<g id="edge26" class="edge">
<title>7&#45;&gt;12</title>
<path fill="none" stroke="green" stroke-width="0.8" d="M21.19,-75.75C23.86,-74.64 26.75,-73.56 29.5,-72.77 123.42,-45.61 155,-71.21 246.5,-36.77 247.94,-36.23 249.38,-35.61 250.82,-34.93"/>
<polygon fill="green" stroke="green" stroke-width="0.8" points="252.88,-37.8 259.95,-29.91 249.5,-31.66 252.88,-37.8"/>
</g>
<!-- 7&#45;&gt;13 -->
<g id="edge27" class="edge">
<title>7&#45;&gt;13</title>
<path fill="none" stroke="green" stroke-width="0.8" d="M21.09,-74.2C36.39,-64.72 65.07,-46.93 85.62,-34.19"/>
<polygon fill="green" stroke="green" stroke-width="0.8" points="87.49,-37.15 94.14,-28.91 83.8,-31.2 87.49,-37.15"/>
</g>
<!-- 7&#45;&gt;14 -->
<g id="edge28" class="edge">
<title>7&#45;&gt;14</title>
<path fill="none" stroke="green" stroke-width="0.8" d="M21.3,-76.06C23.96,-74.94 26.82,-73.78 29.5,-72.77 76.43,-55.02 91.11,-58.15 136.5,-36.77 137.89,-36.11 139.3,-35.41 140.7,-34.66"/>
<polygon fill="green" stroke="green" stroke-width="0.8" points="142.84,-37.47 149.75,-29.43 139.34,-31.41 142.84,-37.47"/>
</g>
<!-- 8 -->
<g id="node8" class="node">
<title>8</title>
<polygon fill="lightgray" stroke="black" points="60,-90.77 39,-90.77 39,-72.77 60,-72.77 60,-90.77"/>
<text text-anchor="middle" x="49.5" y="-79.57" font-family="Times,serif" font-size="9.00">8</text>
</g>
<!-- 8&#45;&gt;11 -->
<g id="edge29" class="edge">
<title>8&#45;&gt;11</title>
<path fill="none" stroke="green" stroke-width="0.8" d="M60.27,-75.99C62.94,-74.87 65.8,-73.73 68.5,-72.77 122.17,-53.69 139.49,-60.01 191.5,-36.77 192.9,-36.14 194.32,-35.46 195.74,-34.73"/>
<polygon fill="green" stroke="green" stroke-width="0.8" points="197.86,-37.55 204.8,-29.55 194.38,-31.47 197.86,-37.55"/>
</g>
<!-- 8&#45;&gt;12 -->
<g id="edge30" class="edge">
<title>8&#45;&gt;12</title>
<path fill="none" stroke="green" stroke-width="0.8" d="M60.21,-75.82C62.88,-74.71 65.76,-73.61 68.5,-72.77 145.63,-48.99 171.47,-66.53 246.5,-36.77 247.93,-36.2 249.37,-35.56 250.8,-34.87"/>
<polygon fill="green" stroke="green" stroke-width="0.8" points="252.87,-37.72 259.91,-29.8 249.47,-31.61 252.87,-37.72"/>
</g>
<!-- 8&#45;&gt;13 -->
<g id="edge31" class="edge">
<title>8&#45;&gt;13</title>
<path fill="none" stroke="green" stroke-width="0.8" d="M57.34,-72.74C65.5,-64.4 78.59,-51.01 89.62,-39.73"/>
<polygon fill="green" stroke="green" stroke-width="0.8" points="92.35,-41.94 96.84,-32.34 87.34,-37.05 92.35,-41.94"/>
</g>
<!-- 8&#45;&gt;14 -->
<g id="edge32" class="edge">
<title>8&#45;&gt;14</title>
<path fill="none" stroke="green" stroke-width="0.8" d="M60.1,-75.78C76.64,-67.91 109.5,-51.94 136.5,-36.77 137.81,-36.03 139.14,-35.27 140.49,-34.48"/>
<polygon fill="green" stroke="green" stroke-width="0.8" points="142.49,-37.36 149.24,-29.19 138.87,-31.37 142.49,-37.36"/>
</g>
<!-- 9 -->
<g id="node9" class="node">
<title>9</title>
<polygon fill="lightgray" stroke="black" points="99,-90.77 78,-90.77 78,-72.77 99,-72.77 99,-90.77"/>
<text text-anchor="middle" x="88.5" y="-79.57" font-family="Times,serif" font-size="9.00">9</text>
</g>
<!-- 9&#45;&gt;11 -->
<g id="edge33" class="edge">
<title>9&#45;&gt;11</title>
<path fill="none" stroke="green" stroke-width="0.8" d="M99.34,-76.39C122.15,-67.12 174.42,-45.65 191.5,-36.77 192.83,-36.08 194.19,-35.34 195.54,-34.58"/>
<polygon fill="green" stroke="green" stroke-width="0.8" points="197.52,-37.48 204.34,-29.38 193.95,-31.46 197.52,-37.48"/>
</g>
<!-- 9&#45;&gt;12 -->
<g id="edge34" class="edge">
<title>9&#45;&gt;12</title>
<path fill="none" stroke="green" stroke-width="0.8" d="M99.41,-76.12C102.34,-74.95 105.52,-73.75 108.5,-72.77 168.71,-52.96 188.25,-61.77 246.5,-36.77 247.91,-36.16 249.34,-35.49 250.76,-34.78"/>
<polygon fill="green" stroke="green" stroke-width="0.8" points="252.86,-37.61 259.84,-29.63 249.41,-31.52 252.86,-37.61"/>
</g>
<!-- 9&#45;&gt;13 -->
<g id="edge35" class="edge">
<title>9&#45;&gt;13</title>
<path fill="none" stroke="green" stroke-width="0.8" d="M91.25,-72.74C93.63,-65.77 97.22,-55.28 100.59,-45.43"/>
<polygon fill="green" stroke="green" stroke-width="0.8" points="103.9,-46.56 103.83,-35.96 97.28,-44.29 103.9,-46.56"/>
</g>
<!-- 9&#45;&gt;14 -->
<g id="edge36" class="edge">
<title>9&#45;&gt;14</title>
<path fill="none" stroke="green" stroke-width="0.8" d="M98.44,-72.74C109.6,-63.73 128.07,-48.81 142.65,-37.03"/>
<polygon fill="green" stroke="green" stroke-width="0.8" points="145.12,-39.54 150.7,-30.53 140.72,-34.09 145.12,-39.54"/>
</g>
<!-- 10 -->
<g id="node10" class="node">
<title>10</title>
<polygon fill="lightgray" stroke="black" points="143.5,-90.77 117.5,-90.77 117.5,-72.77 143.5,-72.77 143.5,-90.77"/>
<text text-anchor="middle" x="130.5" y="-79.57" font-family="Times,serif" font-size="9.00">10</text>
</g>
<!-- 10&#45;&gt;11 -->
<g id="edge37" class="edge">
<title>10&#45;&gt;11</title>
<path fill="none" stroke="green" stroke-width="0.8" d="M142.14,-72.74C155.78,-63.34 178.73,-47.5 196.1,-35.52"/>
<polygon fill="green" stroke="green" stroke-width="0.8" points="198.35,-38.22 204.6,-29.66 194.38,-32.46 198.35,-38.22"/>
</g>
<!-- 10&#45;&gt;12 -->
<g id="edge38" class="edge">
<title>10&#45;&gt;12</title>
<path fill="none" stroke="green" stroke-width="0.8" d="M143.51,-76.19C169.63,-66.95 227.58,-46.12 246.5,-36.77 247.88,-36.09 249.28,-35.36 250.67,-34.6"/>
<polygon fill="green" stroke="green" stroke-width="0.8" points="252.83,-37.39 259.69,-29.32 249.29,-31.35 252.83,-37.39"/>
</g>
<!-- 10&#45;&gt;13 -->
<g id="edge39" class="edge">
<title>10&#45;&gt;13</title>
<path fill="none" stroke="green" stroke-width="0.8" d="M127.75,-72.74C125.37,-65.77 121.78,-55.28 118.41,-45.43"/>
<polygon fill="green" stroke="green" stroke-width="0.8" points="121.72,-44.29 115.17,-35.96 115.1,-46.56 121.72,-44.29"/>
</g>
<!-- 10&#45;&gt;14 -->
<g id="edge40" class="edge">
<title>10&#45;&gt;14</title>
<path fill="none" stroke="green" stroke-width="0.8" d="M134.94,-72.74C139.02,-65.38 145.28,-54.08 150.99,-43.77"/>
<polygon fill="green" stroke="green" stroke-width="0.8" points="154.22,-45.17 156,-34.73 148.1,-41.78 154.22,-45.17"/>
</g>
</g>
</svg>
