<?xml version="1.0" encoding="UTF-8" standalone="no"?>
<!DOCTYPE svg PUBLIC "-//W3C//DTD SVG 1.1//EN"
 "http://www.w3.org/Graphics/SVG/1.1/DTD/svg11.dtd">
<!-- Generated by graphviz version 3.0.0 (20220226.1711)
 -->
<!-- Pages: 1 -->
<svg width="438pt" height="409pt"
 viewBox="0.00 0.00 437.77 408.62" xmlns="http://www.w3.org/2000/svg" xmlns:xlink="http://www.w3.org/1999/xlink">
<g id="graph0" class="graph" transform="scale(1 1) rotate(0) translate(4 404.62)">
<polygon fill="white" stroke="transparent" points="-4,4 -4,-404.62 433.77,-404.62 433.77,4 -4,4"/>
<!-- 1 -->
<g id="node1" class="node">
<title>1</title>
<polygon fill="lightgray" stroke="black" points="140.88,-391.23 119.88,-391.23 119.88,-373.23 140.88,-373.23 140.88,-391.23"/>
<text text-anchor="middle" x="130.38" y="-380.03" font-family="Times,serif" font-size="9.00">1</text>
</g>
<!-- 2 -->
<g id="node2" class="node">
<title>2</title>
<polygon fill="lightgray" stroke="black" points="179.88,-391.23 158.88,-391.23 158.88,-373.23 179.88,-373.23 179.88,-391.23"/>
<text text-anchor="middle" x="169.38" y="-380.03" font-family="Times,serif" font-size="9.00">2</text>
</g>
<!-- 3 -->
<g id="node3" class="node">
<title>3</title>
<polygon fill="lightgray" stroke="black" points="218.88,-391.23 197.88,-391.23 197.88,-373.23 218.88,-373.23 218.88,-391.23"/>
<text text-anchor="middle" x="208.38" y="-380.03" font-family="Times,serif" font-size="9.00">3</text>
</g>
<!-- 4 -->
<g id="node4" class="node">
<title>4</title>
<polygon fill="lightgray" stroke="black" points="257.88,-391.23 236.88,-391.23 236.88,-373.23 257.88,-373.23 257.88,-391.23"/>
<text text-anchor="middle" x="247.38" y="-380.03" font-family="Times,serif" font-size="9.00">4</text>
</g>
<!-- 5 -->
<g id="node5" class="node">
<title>5</title>
<polygon fill="lightgray" stroke="black" points="28.88,-172.92 7.88,-172.92 7.88,-154.92 28.88,-154.92 28.88,-172.92"/>
<text text-anchor="middle" x="18.38" y="-161.72" font-family="Times,serif" font-size="9.00">5</text>
</g>
<!-- 18 -->
<g id="node19" class="node">
<title>18</title>
<ellipse fill="white" stroke="black" cx="18.38" cy="-91.15" rx="18.27" ry="18.27"/>
<text text-anchor="middle" x="18.38" y="-88.95" font-family="Times,serif" font-size="9.00">18</text>
</g>
<!-- 5&#45;&gt;18 -->
<g id="edge12" class="edge">
<title>5&#45;&gt;18</title>
<path fill="none" stroke="green" stroke-width="0.8" d="M18.38,-154.81C18.38,-146.24 18.38,-132.26 18.38,-119.68"/>
<polygon fill="green" stroke="green" stroke-width="0.8" points="21.88,-119.59 18.38,-109.59 14.88,-119.59 21.88,-119.59"/>
</g>
<!-- 6 -->
<g id="node6" class="node">
<title>6</title>
<polygon fill="lightgray" stroke="black" points="147.88,-318.46 126.88,-318.46 126.88,-300.46 147.88,-300.46 147.88,-318.46"/>
<text text-anchor="middle" x="137.38" y="-307.26" font-family="Times,serif" font-size="9.00">6</text>
</g>
<!-- 21 -->
<g id="node12" class="node">
<title>21</title>
<ellipse fill="lightblue" stroke="black" cx="156.38" cy="-18.38" rx="18.27" ry="18.27"/>
<text text-anchor="middle" x="156.38" y="-16.18" font-family="Times,serif" font-size="9.00">21</text>
</g>
<!-- 6&#45;&gt;21 -->
<g id="edge9" class="edge">
<title>6&#45;&gt;21</title>
<path fill="none" stroke="green" stroke-width="0.8" d="M137.91,-300.43C140.33,-263.62 150.42,-110.17 154.58,-46.87"/>
<polygon fill="green" stroke="green" stroke-width="0.8" points="158.07,-47.04 155.24,-36.83 151.09,-46.58 158.07,-47.04"/>
</g>
<!-- 12 -->
<g id="node15" class="node">
<title>12</title>
<ellipse fill="white" stroke="black" cx="72.38" cy="-236.69" rx="18.27" ry="18.27"/>
<text text-anchor="middle" x="72.38" y="-234.49" font-family="Times,serif" font-size="9.00">12</text>
</g>
<!-- 6&#45;&gt;12 -->
<g id="edge15" class="edge">
<title>6&#45;&gt;12</title>
<path fill="none" stroke="green" stroke-width="0.8" d="M129.93,-300.34C120.62,-290.21 104.35,-272.5 91.48,-258.48"/>
<polygon fill="green" stroke="green" stroke-width="0.8" points="93.72,-255.75 84.38,-250.75 88.56,-260.48 93.72,-255.75"/>
</g>
<!-- 16 -->
<g id="node17" class="node">
<title>16</title>
<ellipse fill="white" stroke="black" cx="202.38" cy="-236.69" rx="18.27" ry="18.27"/>
<text text-anchor="middle" x="202.38" y="-234.49" font-family="Times,serif" font-size="9.00">16</text>
</g>
<!-- 6&#45;&gt;16 -->
<g id="edge20" class="edge">
<title>6&#45;&gt;16</title>
<path fill="none" stroke="green" stroke-width="0.8" d="M144.84,-300.34C154.15,-290.21 170.42,-272.5 183.29,-258.48"/>
<polygon fill="green" stroke="green" stroke-width="0.8" points="186.21,-260.48 190.39,-250.75 181.05,-255.75 186.21,-260.48"/>
</g>
<!-- 20 -->
<g id="node21" class="node">
<title>20</title>
<ellipse fill="white" stroke="black" cx="91.38" cy="-163.92" rx="18.27" ry="18.27"/>
<text text-anchor="middle" x="91.38" y="-161.72" font-family="Times,serif" font-size="9.00">20</text>
</g>
<!-- 6&#45;&gt;20 -->
<g id="edge10" class="edge">
<title>6&#45;&gt;20</title>
<path fill="none" stroke="green" stroke-width="0.8" d="M134.78,-300.33C128.17,-279.7 110.5,-224.56 99.85,-191.35"/>
<polygon fill="green" stroke="green" stroke-width="0.8" points="103.18,-190.27 96.8,-181.81 96.52,-192.4 103.18,-190.27"/>
</g>
<!-- 7 -->
<g id="node7" class="node">
<title>7</title>
<polygon fill="lightgray" stroke="black" points="335.88,-391.23 314.88,-391.23 314.88,-373.23 335.88,-373.23 335.88,-391.23"/>
<text text-anchor="middle" x="325.38" y="-380.03" font-family="Times,serif" font-size="9.00">7</text>
</g>
<!-- 8 -->
<g id="node8" class="node">
<title>8</title>
<polygon fill="lightgray" stroke="black" points="296.88,-391.23 275.88,-391.23 275.88,-373.23 296.88,-373.23 296.88,-391.23"/>
<text text-anchor="middle" x="286.38" y="-380.03" font-family="Times,serif" font-size="9.00">8</text>
</g>
<!-- 15 -->
<g id="node13" class="node">
<title>15</title>
<ellipse fill="lightblue" stroke="black" cx="324.38" cy="-91.15" rx="18.27" ry="18.27"/>
<text text-anchor="middle" x="324.38" y="-88.95" font-family="Times,serif" font-size="9.00">15</text>
</g>
<!-- 8&#45;&gt;15 -->
<g id="edge2" class="edge">
<title>8&#45;&gt;15</title>
<path fill="none" stroke="green" stroke-width="0.8" d="M287.44,-373.2C292.28,-336.39 312.45,-182.94 320.77,-119.64"/>
<polygon fill="green" stroke="green" stroke-width="0.8" points="324.26,-119.97 322.09,-109.6 317.32,-119.06 324.26,-119.97"/>
</g>
<!-- 13 -->
<g id="node16" class="node">
<title>13</title>
<ellipse fill="white" stroke="black" cx="240.38" cy="-309.46" rx="18.27" ry="18.27"/>
<text text-anchor="middle" x="240.38" y="-307.26" font-family="Times,serif" font-size="9.00">13</text>
</g>
<!-- 8&#45;&gt;13 -->
<g id="edge5" class="edge">
<title>8&#45;&gt;13</title>
<path fill="none" stroke="green" stroke-width="0.8" d="M281.11,-373.11C274.91,-363.58 264.37,-347.36 255.56,-333.81"/>
<polygon fill="green" stroke="green" stroke-width="0.8" points="258.47,-331.86 250.08,-325.38 252.6,-335.68 258.47,-331.86"/>
</g>
<!-- 17 -->
<g id="node18" class="node">
<title>17</title>
<ellipse fill="white" stroke="black" cx="244.38" cy="-163.92" rx="18.27" ry="18.27"/>
<text text-anchor="middle" x="244.38" y="-161.72" font-family="Times,serif" font-size="9.00">17</text>
</g>
<!-- 8&#45;&gt;17 -->
<g id="edge3" class="edge">
<title>8&#45;&gt;17</title>
<path fill="none" stroke="green" stroke-width="0.8" d="M285,-373.07C280.92,-349.21 268.48,-277.48 256.38,-218.31 254.65,-209.8 252.62,-200.56 250.73,-192.2"/>
<polygon fill="green" stroke="green" stroke-width="0.8" points="254.09,-191.17 248.45,-182.2 247.26,-192.73 254.09,-191.17"/>
</g>
<!-- 9 -->
<g id="node9" class="node">
<title>9</title>
<polygon fill="lightgray" stroke="black" points="374.88,-391.23 353.88,-391.23 353.88,-373.23 374.88,-373.23 374.88,-391.23"/>
<text text-anchor="middle" x="364.38" y="-380.03" font-family="Times,serif" font-size="9.00">9</text>
</g>
<!-- 10 -->
<g id="node10" class="node">
<title>10</title>
<polygon fill="lightgray" stroke="black" points="378.38,-172.92 352.38,-172.92 352.38,-154.92 378.38,-154.92 378.38,-172.92"/>
<text text-anchor="middle" x="365.38" y="-161.72" font-family="Times,serif" font-size="9.00">10</text>
</g>
<!-- 10&#45;&gt;15 -->
<g id="edge1" class="edge">
<title>10&#45;&gt;15</title>
<path fill="none" stroke="green" stroke-width="0.8" d="M360.68,-154.81C355.25,-145.43 346.05,-129.56 338.28,-116.14"/>
<polygon fill="green" stroke="green" stroke-width="0.8" points="341.23,-114.25 333.19,-107.35 335.17,-117.76 341.23,-114.25"/>
</g>
<!-- 11 -->
<g id="node11" class="node">
<title>11</title>
<ellipse fill="lightblue" stroke="black" cx="411.38" cy="-382.23" rx="18.27" ry="18.27"/>
<text text-anchor="middle" x="411.38" y="-380.03" font-family="Times,serif" font-size="9.00">11</text>
</g>
<!-- 14 -->
<g id="node14" class="node">
<title>14</title>
<ellipse fill="lightblue" stroke="black" cx="110.38" cy="-91.15" rx="18.27" ry="18.27"/>
<text text-anchor="middle" x="110.38" y="-88.95" font-family="Times,serif" font-size="9.00">14</text>
</g>
<!-- 12&#45;&gt;20 -->
<g id="edge16" class="edge">
<title>12&#45;&gt;20</title>
<path fill="none" stroke="green" stroke-width="0.8" d="M76.98,-218.56C79.15,-210.48 81.79,-200.64 84.22,-191.61"/>
<polygon fill="green" stroke="green" stroke-width="0.8" points="87.62,-192.46 86.83,-181.9 80.85,-190.65 87.62,-192.46"/>
</g>
<!-- 13&#45;&gt;16 -->
<g id="edge7" class="edge">
<title>13&#45;&gt;16</title>
<path fill="none" stroke="green" stroke-width="0.8" d="M231.95,-292.76C227.13,-283.78 220.98,-272.32 215.53,-262.18"/>
<polygon fill="green" stroke="green" stroke-width="0.8" points="218.61,-260.51 210.79,-253.36 212.44,-263.82 218.61,-260.51"/>
</g>
<!-- 13&#45;&gt;17 -->
<g id="edge6" class="edge">
<title>13&#45;&gt;17</title>
<path fill="none" stroke="green" stroke-width="0.8" d="M240.88,-290.86C241.56,-266.43 242.79,-221.99 243.6,-192.96"/>
<polygon fill="green" stroke="green" stroke-width="0.8" points="247.11,-192.76 243.89,-182.67 240.11,-192.57 247.11,-192.76"/>
</g>
<!-- 16&#45;&gt;17 -->
<g id="edge8" class="edge">
<title>16&#45;&gt;17</title>
<path fill="none" stroke="green" stroke-width="0.8" d="M211.5,-220.34C216.95,-211.16 223.99,-199.29 230.16,-188.9"/>
<polygon fill="green" stroke="green" stroke-width="0.8" points="233.2,-190.64 235.29,-180.25 227.18,-187.06 233.2,-190.64"/>
</g>
<!-- 17&#45;&gt;21 -->
<g id="edge17" class="edge">
<title>17&#45;&gt;21</title>
<path fill="none" stroke="green" stroke-width="0.8" d="M235.13,-147.83C219.86,-122.92 189.24,-72.97 171.01,-43.23"/>
<polygon fill="green" stroke="green" stroke-width="0.8" points="173.99,-41.4 165.78,-34.7 168.02,-45.06 173.99,-41.4"/>
</g>
<!-- 17&#45;&gt;15 -->
<g id="edge4" class="edge">
<title>17&#45;&gt;15</title>
<path fill="none" stroke="green" stroke-width="0.8" d="M257.96,-150.92C270.33,-139.97 288.81,-123.63 303.13,-110.95"/>
<polygon fill="green" stroke="green" stroke-width="0.8" points="305.84,-113.23 311.01,-103.98 301.21,-107.99 305.84,-113.23"/>
</g>
<!-- 19 -->
<g id="node20" class="node">
<title>19</title>
<ellipse fill="white" stroke="black" cx="243.38" cy="-91.15" rx="18.27" ry="18.27"/>
<text text-anchor="middle" x="243.38" y="-88.95" font-family="Times,serif" font-size="9.00">19</text>
</g>
<!-- 17&#45;&gt;19 -->
<g id="edge18" class="edge">
<title>17&#45;&gt;19</title>
<path fill="none" stroke="green" stroke-width="0.8" d="M244.14,-145.43C244.03,-137.75 243.9,-128.54 243.78,-119.95"/>
<polygon fill="green" stroke="green" stroke-width="0.8" points="247.28,-119.89 243.64,-109.94 240.28,-119.99 247.28,-119.89"/>
</g>
<!-- 18&#45;&gt;21 -->
<g id="edge13" class="edge">
<title>18&#45;&gt;21</title>
<path fill="none" stroke="green" stroke-width="0.8" d="M34.28,-81.39C39.41,-78.6 45.12,-75.53 50.38,-72.77 77.77,-58.44 109.46,-42.57 131.01,-31.89"/>
<polygon fill="green" stroke="green" stroke-width="0.8" points="132.73,-34.94 140.14,-27.37 129.63,-28.67 132.73,-34.94"/>
</g>
<!-- 19&#45;&gt;21 -->
<g id="edge19" class="edge">
<title>19&#45;&gt;21</title>
<path fill="none" stroke="green" stroke-width="0.8" d="M229.41,-78.78C215.58,-67.54 194.22,-50.16 178.17,-37.11"/>
<polygon fill="green" stroke="green" stroke-width="0.8" points="180.29,-34.32 170.33,-30.73 175.88,-39.75 180.29,-34.32"/>
</g>
<!-- 20&#45;&gt;21 -->
<g id="edge11" class="edge">
<title>20&#45;&gt;21</title>
<path fill="none" stroke="green" stroke-width="0.8" d="M84.96,-146.63C78.62,-127.78 71.44,-96.31 83.38,-72.77 93.13,-53.58 113.37,-39.63 130.07,-30.81"/>
<polygon fill="green" stroke="green" stroke-width="0.8" points="131.97,-33.78 139.39,-26.22 128.88,-27.5 131.97,-33.78"/>
</g>
<!-- 20&#45;&gt;14 -->
<g id="edge14" class="edge">
<title>20&#45;&gt;14</title>
<path fill="none" stroke="green" stroke-width="0.8" d="M95.98,-145.79C98.15,-137.71 100.79,-127.87 103.22,-118.84"/>
<polygon fill="green" stroke="green" stroke-width="0.8" points="106.62,-119.69 105.83,-109.13 99.85,-117.88 106.62,-119.69"/>
</g>
</g>
</svg>
