<?xml version="1.0" encoding="UTF-8" standalone="no"?>
<!DOCTYPE svg PUBLIC "-//W3C//DTD SVG 1.1//EN"
 "http://www.w3.org/Graphics/SVG/1.1/DTD/svg11.dtd">
<!-- Generated by graphviz version 3.0.0 (20220226.1711)
 -->
<!-- Pages: 1 -->
<svg width="877pt" height="172pt"
 viewBox="0.00 0.00 876.74 171.54" xmlns="http://www.w3.org/2000/svg" xmlns:xlink="http://www.w3.org/1999/xlink">
<g id="graph0" class="graph" transform="scale(1 1) rotate(0) translate(4 167.54)">
<polygon fill="white" stroke="transparent" points="-4,4 -4,-167.54 872.74,-167.54 872.74,4 -4,4"/>
<!-- 1 -->
<g id="node1" class="node">
<title>1</title>
<polygon fill="lightgray" stroke="black" points="86.41,-163.54 65.41,-163.54 65.41,-145.54 86.41,-145.54 86.41,-163.54"/>
<text text-anchor="middle" x="75.91" y="-152.34" font-family="Times,serif" font-size="9.00">1</text>
</g>
<!-- 17 -->
<g id="node11" class="node">
<title>17</title>
<ellipse fill="lightblue" stroke="black" cx="240.91" cy="-18.38" rx="18.27" ry="18.27"/>
<text text-anchor="middle" x="240.91" y="-16.18" font-family="Times,serif" font-size="9.00">17</text>
</g>
<!-- 1&#45;&gt;17 -->
<g id="edge1" class="edge">
<title>1&#45;&gt;17</title>
<path fill="none" stroke="green" stroke-width="0.8" d="M65.33,-150.41C49.3,-145.02 19.41,-132.34 6.91,-109.54 -0.94,-95.21 -3.28,-85.55 6.91,-72.77 32.36,-40.86 155.86,-26.53 212.47,-21.56"/>
<polygon fill="green" stroke="green" stroke-width="0.8" points="212.86,-25.04 222.53,-20.71 212.27,-18.06 212.86,-25.04"/>
</g>
<!-- 12 -->
<g id="node12" class="node">
<title>12</title>
<ellipse fill="lightblue" stroke="black" cx="520.91" cy="-18.38" rx="18.27" ry="18.27"/>
<text text-anchor="middle" x="520.91" y="-16.18" font-family="Times,serif" font-size="9.00">12</text>
</g>
<!-- 1&#45;&gt;12 -->
<g id="edge2" class="edge">
<title>1&#45;&gt;12</title>
<path fill="none" stroke="green" stroke-width="0.8" d="M86.52,-152.01C98.5,-150.31 118.58,-147.55 135.91,-145.54 217.1,-136.14 441.04,-164.07 501.91,-109.54 519.08,-94.16 522.94,-67.53 523.04,-47.19"/>
<polygon fill="green" stroke="green" stroke-width="0.8" points="526.53,-46.84 522.78,-36.93 519.53,-47.01 526.53,-46.84"/>
</g>
<!-- 16 -->
<g id="node13" class="node">
<title>16</title>
<ellipse fill="lightblue" stroke="black" cx="731.91" cy="-18.38" rx="18.27" ry="18.27"/>
<text text-anchor="middle" x="731.91" y="-16.18" font-family="Times,serif" font-size="9.00">16</text>
</g>
<!-- 1&#45;&gt;16 -->
<g id="edge3" class="edge">
<title>1&#45;&gt;16</title>
<path fill="none" stroke="green" stroke-width="0.8" d="M86.51,-151.94C98.49,-150.17 118.56,-147.34 135.91,-145.54 242.75,-134.44 517.84,-148.56 617.91,-109.54 656.44,-94.52 692.35,-61.78 713.22,-40.17"/>
<polygon fill="green" stroke="green" stroke-width="0.8" points="715.89,-42.44 720.2,-32.76 710.79,-37.64 715.89,-42.44"/>
</g>
<!-- 11 -->
<g id="node15" class="node">
<title>11</title>
<ellipse fill="white" stroke="black" cx="33.91" cy="-91.15" rx="18.27" ry="18.27"/>
<text text-anchor="middle" x="33.91" y="-88.95" font-family="Times,serif" font-size="9.00">11</text>
</g>
<!-- 1&#45;&gt;11 -->
<g id="edge42" class="edge">
<title>1&#45;&gt;11</title>
<path fill="none" stroke="green" stroke-width="0.8" d="M70.42,-145.51C65.21,-137.9 57.12,-126.07 49.88,-115.49"/>
<polygon fill="green" stroke="green" stroke-width="0.8" points="52.61,-113.29 44.08,-107.01 46.84,-117.24 52.61,-113.29"/>
</g>
<!-- 2 -->
<g id="node2" class="node">
<title>2</title>
<polygon fill="lightgray" stroke="black" points="336.41,-100.15 315.41,-100.15 315.41,-82.15 336.41,-82.15 336.41,-100.15"/>
<text text-anchor="middle" x="325.91" y="-88.95" font-family="Times,serif" font-size="9.00">2</text>
</g>
<!-- 2&#45;&gt;17 -->
<g id="edge4" class="edge">
<title>2&#45;&gt;17</title>
<path fill="none" stroke="green" stroke-width="0.8" d="M317.12,-81.9C313.94,-78.98 310.3,-75.69 306.91,-72.77 292.53,-60.39 275.91,-46.95 262.95,-36.66"/>
<polygon fill="green" stroke="green" stroke-width="0.8" points="265.04,-33.85 255.02,-30.39 260.7,-39.34 265.04,-33.85"/>
</g>
<!-- 2&#45;&gt;12 -->
<g id="edge5" class="edge">
<title>2&#45;&gt;12</title>
<path fill="none" stroke="green" stroke-width="0.8" d="M336.68,-86.25C366.46,-75.44 450.67,-44.88 494.17,-29.09"/>
<polygon fill="green" stroke="green" stroke-width="0.8" points="495.59,-32.3 503.79,-25.6 493.2,-25.72 495.59,-32.3"/>
</g>
<!-- 15 -->
<g id="node14" class="node">
<title>15</title>
<ellipse fill="lightblue" stroke="black" cx="364.91" cy="-18.38" rx="18.27" ry="18.27"/>
<text text-anchor="middle" x="364.91" y="-16.18" font-family="Times,serif" font-size="9.00">15</text>
</g>
<!-- 2&#45;&gt;15 -->
<g id="edge6" class="edge">
<title>2&#45;&gt;15</title>
<path fill="none" stroke="green" stroke-width="0.8" d="M330.39,-82.04C335.52,-72.71 344.19,-56.99 351.56,-43.62"/>
<polygon fill="green" stroke="green" stroke-width="0.8" points="354.63,-45.3 356.39,-34.86 348.5,-41.92 354.63,-45.3"/>
</g>
<!-- 3 -->
<g id="node3" class="node">
<title>3</title>
<polygon fill="lightgray" stroke="black" points="166.41,-163.54 145.41,-163.54 145.41,-145.54 166.41,-145.54 166.41,-163.54"/>
<text text-anchor="middle" x="155.91" y="-152.34" font-family="Times,serif" font-size="9.00">3</text>
</g>
<!-- 3&#45;&gt;17 -->
<g id="edge7" class="edge">
<title>3&#45;&gt;17</title>
<path fill="none" stroke="green" stroke-width="0.8" d="M145.11,-148.15C132.53,-141.2 112.37,-127.78 103.91,-109.54 97.04,-94.71 94.69,-86.26 103.91,-72.77 128.12,-37.36 179.56,-25.44 212.06,-21.42"/>
<polygon fill="green" stroke="green" stroke-width="0.8" points="212.71,-24.87 222.29,-20.34 211.98,-17.91 212.71,-24.87"/>
</g>
<!-- 3&#45;&gt;12 -->
<g id="edge8" class="edge">
<title>3&#45;&gt;12</title>
<path fill="none" stroke="green" stroke-width="0.8" d="M166.44,-153.13C225.08,-150.78 509.64,-137.92 534.91,-109.54 550.76,-91.75 543.15,-63.75 534.18,-43.67"/>
<polygon fill="green" stroke="green" stroke-width="0.8" points="537.27,-42.01 529.77,-34.53 530.97,-45.06 537.27,-42.01"/>
</g>
<!-- 3&#45;&gt;16 -->
<g id="edge9" class="edge">
<title>3&#45;&gt;16</title>
<path fill="none" stroke="green" stroke-width="0.8" d="M166.89,-153.1C244.37,-149.96 706.53,-130.37 726.91,-109.54 742.88,-93.23 742.3,-66.3 738.83,-46.12"/>
<polygon fill="green" stroke="green" stroke-width="0.8" points="742.25,-45.37 736.83,-36.27 735.39,-46.76 742.25,-45.37"/>
</g>
<!-- 3&#45;&gt;15 -->
<g id="edge10" class="edge">
<title>3&#45;&gt;15</title>
<path fill="none" stroke="green" stroke-width="0.8" d="M159.65,-145.15C167.31,-128.88 186.35,-92.84 212.91,-72.77 250.41,-44.44 304.15,-30.3 336.67,-23.93"/>
<polygon fill="green" stroke="green" stroke-width="0.8" points="337.63,-27.31 346.83,-22.06 336.37,-20.43 337.63,-27.31"/>
</g>
<!-- 3&#45;&gt;11 -->
<g id="edge39" class="edge">
<title>3&#45;&gt;11</title>
<path fill="none" stroke="green" stroke-width="0.8" d="M145.31,-148.54C128.41,-140.52 94.35,-124.21 65.91,-109.54 63.6,-108.35 61.21,-107.09 58.82,-105.82"/>
<polygon fill="green" stroke="green" stroke-width="0.8" points="60.26,-102.62 49.79,-100.96 56.94,-108.78 60.26,-102.62"/>
</g>
<!-- 4 -->
<g id="node4" class="node">
<title>4</title>
<polygon fill="lightgray" stroke="black" points="297.41,-100.15 276.41,-100.15 276.41,-82.15 297.41,-82.15 297.41,-100.15"/>
<text text-anchor="middle" x="286.91" y="-88.95" font-family="Times,serif" font-size="9.00">4</text>
</g>
<!-- 4&#45;&gt;17 -->
<g id="edge11" class="edge">
<title>4&#45;&gt;17</title>
<path fill="none" stroke="green" stroke-width="0.8" d="M281.64,-82.04C275.44,-72.51 264.89,-56.28 256.09,-42.73"/>
<polygon fill="green" stroke="green" stroke-width="0.8" points="259,-40.78 250.61,-34.31 253.13,-44.6 259,-40.78"/>
</g>
<!-- 4&#45;&gt;12 -->
<g id="edge12" class="edge">
<title>4&#45;&gt;12</title>
<path fill="none" stroke="green" stroke-width="0.8" d="M294.44,-82.1C297.94,-78.77 302.34,-75.15 306.91,-72.77 368.46,-40.72 450.11,-27.3 492.56,-22.19"/>
<polygon fill="green" stroke="green" stroke-width="0.8" points="493.17,-25.64 502.71,-21.03 492.38,-18.68 493.17,-25.64"/>
</g>
<!-- 4&#45;&gt;15 -->
<g id="edge13" class="edge">
<title>4&#45;&gt;15</title>
<path fill="none" stroke="green" stroke-width="0.8" d="M295.86,-82.04C307.51,-71.46 328.25,-52.65 343.97,-38.39"/>
<polygon fill="green" stroke="green" stroke-width="0.8" points="346.6,-40.72 351.66,-31.41 341.9,-35.54 346.6,-40.72"/>
</g>
<!-- 5 -->
<g id="node5" class="node">
<title>5</title>
<polygon fill="lightgray" stroke="black" points="414.41,-100.15 393.41,-100.15 393.41,-82.15 414.41,-82.15 414.41,-100.15"/>
<text text-anchor="middle" x="403.91" y="-88.95" font-family="Times,serif" font-size="9.00">5</text>
</g>
<!-- 5&#45;&gt;17 -->
<g id="edge14" class="edge">
<title>5&#45;&gt;17</title>
<path fill="none" stroke="green" stroke-width="0.8" d="M393.22,-85.51C367.84,-74.49 303.39,-46.51 266.98,-30.7"/>
<polygon fill="green" stroke="green" stroke-width="0.8" points="268.08,-27.36 257.52,-26.59 265.29,-33.79 268.08,-27.36"/>
</g>
<!-- 5&#45;&gt;12 -->
<g id="edge15" class="edge">
<title>5&#45;&gt;12</title>
<path fill="none" stroke="green" stroke-width="0.8" d="M412.54,-81.94C415.95,-78.89 419.99,-75.51 423.91,-72.77 446.94,-56.7 475.28,-41.58 495.36,-31.57"/>
<polygon fill="green" stroke="green" stroke-width="0.8" points="497.07,-34.63 504.5,-27.08 493.98,-28.35 497.07,-34.63"/>
</g>
<!-- 5&#45;&gt;15 -->
<g id="edge16" class="edge">
<title>5&#45;&gt;15</title>
<path fill="none" stroke="green" stroke-width="0.8" d="M399.44,-82.04C394.3,-72.71 385.64,-56.99 378.27,-43.62"/>
<polygon fill="green" stroke="green" stroke-width="0.8" points="381.33,-41.92 373.44,-34.86 375.2,-45.3 381.33,-41.92"/>
</g>
<!-- 6 -->
<g id="node6" class="node">
<title>6</title>
<polygon fill="lightgray" stroke="black" points="492.41,-100.15 471.41,-100.15 471.41,-82.15 492.41,-82.15 492.41,-100.15"/>
<text text-anchor="middle" x="481.91" y="-88.95" font-family="Times,serif" font-size="9.00">6</text>
</g>
<!-- 6&#45;&gt;17 -->
<g id="edge17" class="edge">
<title>6&#45;&gt;17</title>
<path fill="none" stroke="green" stroke-width="0.8" d="M474.84,-82.07C471.52,-78.74 467.34,-75.12 462.91,-72.77 429.25,-54.88 320.88,-33.74 269.04,-24.33"/>
<polygon fill="green" stroke="green" stroke-width="0.8" points="269.35,-20.83 258.89,-22.51 268.11,-27.72 269.35,-20.83"/>
</g>
<!-- 6&#45;&gt;12 -->
<g id="edge18" class="edge">
<title>6&#45;&gt;12</title>
<path fill="none" stroke="green" stroke-width="0.8" d="M486.39,-82.04C491.52,-72.71 500.19,-56.99 507.56,-43.62"/>
<polygon fill="green" stroke="green" stroke-width="0.8" points="510.63,-45.3 512.39,-34.86 504.5,-41.92 510.63,-45.3"/>
</g>
<!-- 6&#45;&gt;16 -->
<g id="edge19" class="edge">
<title>6&#45;&gt;16</title>
<path fill="none" stroke="green" stroke-width="0.8" d="M492.66,-87.11C529.27,-76.75 649.92,-42.59 704.58,-27.12"/>
<polygon fill="green" stroke="green" stroke-width="0.8" points="705.62,-30.47 714.28,-24.38 703.71,-23.73 705.62,-30.47"/>
</g>
<!-- 6&#45;&gt;15 -->
<g id="edge20" class="edge">
<title>6&#45;&gt;15</title>
<path fill="none" stroke="green" stroke-width="0.8" d="M473.78,-81.9C470.54,-78.85 466.7,-75.47 462.91,-72.77 439.88,-56.33 411.22,-41.26 390.85,-31.36"/>
<polygon fill="green" stroke="green" stroke-width="0.8" points="392.12,-28.09 381.59,-26.93 389.1,-34.4 392.12,-28.09"/>
</g>
<!-- 7 -->
<g id="node7" class="node">
<title>7</title>
<polygon fill="lightgray" stroke="black" points="608.41,-100.15 587.41,-100.15 587.41,-82.15 608.41,-82.15 608.41,-100.15"/>
<text text-anchor="middle" x="597.91" y="-88.95" font-family="Times,serif" font-size="9.00">7</text>
</g>
<!-- 7&#45;&gt;12 -->
<g id="edge21" class="edge">
<title>7&#45;&gt;12</title>
<path fill="none" stroke="green" stroke-width="0.8" d="M589.08,-82.04C577.58,-71.46 557.1,-52.65 541.59,-38.39"/>
<polygon fill="green" stroke="green" stroke-width="0.8" points="543.73,-35.6 534,-31.41 538.99,-40.76 543.73,-35.6"/>
</g>
<!-- 7&#45;&gt;16 -->
<g id="edge22" class="edge">
<title>7&#45;&gt;16</title>
<path fill="none" stroke="green" stroke-width="0.8" d="M608.43,-84.6C629.47,-73.49 677.28,-48.24 706.85,-32.62"/>
<polygon fill="green" stroke="green" stroke-width="0.8" points="708.55,-35.68 715.76,-27.92 705.28,-29.49 708.55,-35.68"/>
</g>
<!-- 7&#45;&gt;15 -->
<g id="edge23" class="edge">
<title>7&#45;&gt;15</title>
<path fill="none" stroke="green" stroke-width="0.8" d="M587.3,-86.93C552.9,-76.48 443.77,-43.34 392.29,-27.7"/>
<polygon fill="green" stroke="green" stroke-width="0.8" points="393.1,-24.29 382.52,-24.73 391.07,-30.99 393.1,-24.29"/>
</g>
<!-- 8 -->
<g id="node8" class="node">
<title>8</title>
<polygon fill="lightgray" stroke="black" points="765.41,-163.54 744.41,-163.54 744.41,-145.54 765.41,-145.54 765.41,-163.54"/>
<text text-anchor="middle" x="754.91" y="-152.34" font-family="Times,serif" font-size="9.00">8</text>
</g>
<!-- 8&#45;&gt;17 -->
<g id="edge24" class="edge">
<title>8&#45;&gt;17</title>
<path fill="none" stroke="green" stroke-width="0.8" d="M743.95,-153.52C670.39,-153.27 250.27,-150.05 212.91,-109.54 195.59,-90.75 209.76,-61.4 223.48,-41.33"/>
<polygon fill="green" stroke="green" stroke-width="0.8" points="226.41,-43.25 229.44,-33.09 220.74,-39.14 226.41,-43.25"/>
</g>
<!-- 8&#45;&gt;12 -->
<g id="edge25" class="edge">
<title>8&#45;&gt;12</title>
<path fill="none" stroke="green" stroke-width="0.8" d="M744.35,-145.61C723.88,-130.43 677.09,-96.65 634.91,-72.77 605.63,-56.19 570.32,-40.24 546.84,-30.16"/>
<polygon fill="green" stroke="green" stroke-width="0.8" points="548.12,-26.9 537.55,-26.21 545.38,-33.34 548.12,-26.9"/>
</g>
<!-- 8&#45;&gt;16 -->
<g id="edge26" class="edge">
<title>8&#45;&gt;16</title>
<path fill="none" stroke="green" stroke-width="0.8" d="M765.49,-152.87C787.87,-150.83 839.78,-142.58 861.91,-109.54 871.01,-95.96 871.01,-86.34 861.91,-72.77 839.43,-39.23 791.69,-26.75 760.74,-22.11"/>
<polygon fill="green" stroke="green" stroke-width="0.8" points="760.94,-18.6 750.57,-20.77 760.03,-25.54 760.94,-18.6"/>
</g>
<!-- 13 -->
<g id="node16" class="node">
<title>13</title>
<ellipse fill="white" stroke="black" cx="834.91" cy="-91.15" rx="18.27" ry="18.27"/>
<text text-anchor="middle" x="834.91" y="-88.95" font-family="Times,serif" font-size="9.00">13</text>
</g>
<!-- 8&#45;&gt;13 -->
<g id="edge37" class="edge">
<title>8&#45;&gt;13</title>
<path fill="none" stroke="green" stroke-width="0.8" d="M765.37,-145.51C777.31,-136.36 797.17,-121.11 812.62,-109.26"/>
<polygon fill="green" stroke="green" stroke-width="0.8" points="814.87,-111.95 820.67,-103.08 810.61,-106.39 814.87,-111.95"/>
</g>
<!-- 9 -->
<g id="node9" class="node">
<title>9</title>
<polygon fill="lightgray" stroke="black" points="453.41,-100.15 432.41,-100.15 432.41,-82.15 453.41,-82.15 453.41,-100.15"/>
<text text-anchor="middle" x="442.91" y="-88.95" font-family="Times,serif" font-size="9.00">9</text>
</g>
<!-- 9&#45;&gt;17 -->
<g id="edge27" class="edge">
<title>9&#45;&gt;17</title>
<path fill="none" stroke="green" stroke-width="0.8" d="M435.42,-81.82C432.16,-78.6 428.12,-75.14 423.91,-72.77 373.51,-44.41 306.65,-29.89 269.28,-23.53"/>
<polygon fill="green" stroke="green" stroke-width="0.8" points="269.56,-20.03 259.12,-21.88 268.43,-26.94 269.56,-20.03"/>
</g>
<!-- 9&#45;&gt;12 -->
<g id="edge28" class="edge">
<title>9&#45;&gt;12</title>
<path fill="none" stroke="green" stroke-width="0.8" d="M451.86,-82.04C463.51,-71.46 484.25,-52.65 499.97,-38.39"/>
<polygon fill="green" stroke="green" stroke-width="0.8" points="502.6,-40.72 507.66,-31.41 497.9,-35.54 502.6,-40.72"/>
</g>
<!-- 9&#45;&gt;16 -->
<g id="edge29" class="edge">
<title>9&#45;&gt;16</title>
<path fill="none" stroke="green" stroke-width="0.8" d="M450.39,-81.99C453.88,-78.65 458.29,-75.04 462.91,-72.77 543.77,-33.14 651.97,-22.93 702.99,-20.3"/>
<polygon fill="green" stroke="green" stroke-width="0.8" points="703.43,-23.78 713.26,-19.83 703.11,-16.79 703.43,-23.78"/>
</g>
<!-- 9&#45;&gt;15 -->
<g id="edge30" class="edge">
<title>9&#45;&gt;15</title>
<path fill="none" stroke="green" stroke-width="0.8" d="M434.03,-82.01C430.84,-79.09 427.22,-75.78 423.91,-72.77 411.42,-61.4 397.39,-48.71 386.15,-38.55"/>
<polygon fill="green" stroke="green" stroke-width="0.8" points="388.29,-35.77 378.52,-31.66 383.6,-40.96 388.29,-35.77"/>
</g>
<!-- 10 -->
<g id="node10" class="node">
<title>10</title>
<polygon fill="lightgray" stroke="black" points="377.91,-163.54 351.91,-163.54 351.91,-145.54 377.91,-145.54 377.91,-163.54"/>
<text text-anchor="middle" x="364.91" y="-152.34" font-family="Times,serif" font-size="9.00">10</text>
</g>
<!-- 10&#45;&gt;17 -->
<g id="edge31" class="edge">
<title>10&#45;&gt;17</title>
<path fill="none" stroke="green" stroke-width="0.8" d="M351.78,-152.47C313.18,-149.04 201.51,-136.87 179.91,-109.54 169.78,-96.72 173.16,-87.65 179.91,-72.77 187.45,-56.16 202.99,-42.68 216.5,-33.43"/>
<polygon fill="green" stroke="green" stroke-width="0.8" points="218.47,-36.32 224.98,-27.96 214.68,-30.44 218.47,-36.32"/>
</g>
<!-- 10&#45;&gt;12 -->
<g id="edge32" class="edge">
<title>10&#45;&gt;12</title>
<path fill="none" stroke="green" stroke-width="0.8" d="M377.91,-153.38C425.16,-152.49 586.63,-146.73 617.91,-109.54 628.43,-97.03 626.23,-86.84 617.91,-72.77 603,-47.54 571.45,-33.43 548.37,-26.14"/>
<polygon fill="green" stroke="green" stroke-width="0.8" points="549.34,-22.78 538.76,-23.34 547.38,-29.5 549.34,-22.78"/>
</g>
<!-- 10&#45;&gt;16 -->
<g id="edge33" class="edge">
<title>10&#45;&gt;16</title>
<path fill="none" stroke="green" stroke-width="0.8" d="M378.13,-153.11C444.41,-150.82 738.46,-139.07 764.91,-109.54 782.43,-89.99 765.9,-60.37 750.59,-40.47"/>
<polygon fill="green" stroke="green" stroke-width="0.8" points="753.22,-38.16 744.21,-32.6 747.78,-42.57 753.22,-38.16"/>
</g>
<!-- 10&#45;&gt;15 -->
<g id="edge34" class="edge">
<title>10&#45;&gt;15</title>
<path fill="none" stroke="green" stroke-width="0.8" d="M364.91,-145.15C364.91,-125.96 364.91,-78.15 364.91,-47.32"/>
<polygon fill="green" stroke="green" stroke-width="0.8" points="368.41,-47.19 364.91,-37.19 361.41,-47.19 368.41,-47.19"/>
</g>
<!-- 14 -->
<g id="node17" class="node">
<title>14</title>
<ellipse fill="white" stroke="black" cx="239.91" cy="-91.15" rx="18.27" ry="18.27"/>
<text text-anchor="middle" x="239.91" y="-88.95" font-family="Times,serif" font-size="9.00">14</text>
</g>
<!-- 10&#45;&gt;14 -->
<g id="edge35" class="edge">
<title>10&#45;&gt;14</title>
<path fill="none" stroke="green" stroke-width="0.8" d="M351.79,-148.23C332.9,-140.44 297.11,-125.14 267.91,-109.54 266.59,-108.83 265.24,-108.09 263.89,-107.32"/>
<polygon fill="green" stroke="green" stroke-width="0.8" points="265.49,-104.2 255.11,-102.08 261.91,-110.21 265.49,-104.2"/>
</g>
<!-- 11&#45;&gt;17 -->
<g id="edge40" class="edge">
<title>11&#45;&gt;17</title>
<path fill="none" stroke="green" stroke-width="0.8" d="M49.55,-80.84C54.66,-78.02 60.43,-75.07 65.91,-72.77 116.36,-51.63 178.11,-34.78 213.14,-26.01"/>
<polygon fill="green" stroke="green" stroke-width="0.8" points="214.24,-29.34 223.11,-23.55 212.57,-22.54 214.24,-29.34"/>
</g>
<!-- 13&#45;&gt;12 -->
<g id="edge41" class="edge">
<title>13&#45;&gt;12</title>
<path fill="none" stroke="green" stroke-width="0.8" d="M817.13,-86.15C765.01,-74.4 612.3,-39.98 548.95,-25.7"/>
<polygon fill="green" stroke="green" stroke-width="0.8" points="549.41,-22.22 538.89,-23.44 547.87,-29.05 549.41,-22.22"/>
</g>
<!-- 13&#45;&gt;16 -->
<g id="edge38" class="edge">
<title>13&#45;&gt;16</title>
<path fill="none" stroke="green" stroke-width="0.8" d="M820.16,-80.01C803.18,-68.35 775.08,-49.04 755.15,-35.35"/>
<polygon fill="green" stroke="green" stroke-width="0.8" points="756.87,-32.28 746.64,-29.51 752.9,-38.05 756.87,-32.28"/>
</g>
<!-- 14&#45;&gt;15 -->
<g id="edge36" class="edge">
<title>14&#45;&gt;15</title>
<path fill="none" stroke="green" stroke-width="0.8" d="M255.23,-80.44C259.32,-77.9 263.76,-75.2 267.91,-72.77 292.15,-58.59 320.32,-43.21 340.03,-32.61"/>
<polygon fill="green" stroke="green" stroke-width="0.8" points="341.81,-35.63 348.98,-27.82 338.51,-29.46 341.81,-35.63"/>
</g>
</g>
</svg>
