<?xml version="1.0" encoding="UTF-8" standalone="no"?>
<!DOCTYPE svg PUBLIC "-//W3C//DTD SVG 1.1//EN"
 "http://www.w3.org/Graphics/SVG/1.1/DTD/svg11.dtd">
<!-- Generated by graphviz version 3.0.0 (20220226.1711)
 -->
<!-- Pages: 1 -->
<svg width="628pt" height="317pt"
 viewBox="0.00 0.00 628.40 317.08" xmlns="http://www.w3.org/2000/svg" xmlns:xlink="http://www.w3.org/1999/xlink">
<g id="graph0" class="graph" transform="scale(1 1) rotate(0) translate(4 313.08)">
<polygon fill="white" stroke="transparent" points="-4,4 -4,-313.08 624.4,-313.08 624.4,4 -4,4"/>
<!-- 1 -->
<g id="node1" class="node">
<title>1</title>
<polygon fill="lightgray" stroke="black" points="397.78,-172.92 376.78,-172.92 376.78,-154.92 397.78,-154.92 397.78,-172.92"/>
<text text-anchor="middle" x="387.28" y="-161.72" font-family="Times,serif" font-size="9.00">1</text>
</g>
<!-- 11 -->
<g id="node11" class="node">
<title>11</title>
<ellipse fill="lightblue" stroke="black" cx="153.28" cy="-91.15" rx="18.27" ry="18.27"/>
<text text-anchor="middle" x="153.28" y="-88.95" font-family="Times,serif" font-size="9.00">11</text>
</g>
<!-- 1&#45;&gt;11 -->
<g id="edge1" class="edge">
<title>1&#45;&gt;11</title>
<path fill="none" stroke="green" stroke-width="0.8" d="M380.26,-154.74C376.95,-151.4 372.76,-147.79 368.28,-145.54 292.65,-107.54 260.1,-140.37 181.28,-109.54 179.85,-108.98 178.41,-108.34 176.98,-107.66"/>
<polygon fill="green" stroke="green" stroke-width="0.8" points="178.31,-104.39 167.86,-102.6 174.91,-110.51 178.31,-104.39"/>
</g>
<!-- 12 -->
<g id="node12" class="node">
<title>12</title>
<ellipse fill="lightblue" stroke="black" cx="263.28" cy="-91.15" rx="18.27" ry="18.27"/>
<text text-anchor="middle" x="263.28" y="-88.95" font-family="Times,serif" font-size="9.00">12</text>
</g>
<!-- 1&#45;&gt;12 -->
<g id="edge2" class="edge">
<title>1&#45;&gt;12</title>
<path fill="none" stroke="green" stroke-width="0.8" d="M379.18,-154.62C375.96,-151.55 372.1,-148.19 368.28,-145.54 343.06,-128.07 311.34,-112.74 289.4,-103.05"/>
<polygon fill="green" stroke="green" stroke-width="0.8" points="290.63,-99.77 280.07,-99 287.85,-106.19 290.63,-99.77"/>
</g>
<!-- 17 -->
<g id="node13" class="node">
<title>17</title>
<ellipse fill="lightblue" stroke="black" cx="393.28" cy="-91.15" rx="18.27" ry="18.27"/>
<text text-anchor="middle" x="393.28" y="-88.95" font-family="Times,serif" font-size="9.00">17</text>
</g>
<!-- 1&#45;&gt;17 -->
<g id="edge3" class="edge">
<title>1&#45;&gt;17</title>
<path fill="none" stroke="green" stroke-width="0.8" d="M387.97,-154.81C388.7,-146.24 389.88,-132.26 390.95,-119.68"/>
<polygon fill="green" stroke="green" stroke-width="0.8" points="394.45,-119.85 391.8,-109.59 387.47,-119.26 394.45,-119.85"/>
</g>
<!-- 20 -->
<g id="node14" class="node">
<title>20</title>
<ellipse fill="lightblue" stroke="black" cx="328.28" cy="-18.38" rx="18.27" ry="18.27"/>
<text text-anchor="middle" x="328.28" y="-16.18" font-family="Times,serif" font-size="9.00">20</text>
</g>
<!-- 1&#45;&gt;20 -->
<g id="edge4" class="edge">
<title>1&#45;&gt;20</title>
<path fill="none" stroke="green" stroke-width="0.8" d="M394.77,-154.8C408.86,-138.5 436.5,-100.93 420.28,-72.77 406.52,-48.87 377.5,-34.69 355.71,-27.02"/>
<polygon fill="green" stroke="green" stroke-width="0.8" points="356.59,-23.62 346,-23.85 354.42,-30.28 356.59,-23.62"/>
</g>
<!-- 2 -->
<g id="node2" class="node">
<title>2</title>
<polygon fill="lightgray" stroke="black" points="483.78,-309.08 462.78,-309.08 462.78,-291.08 483.78,-291.08 483.78,-309.08"/>
<text text-anchor="middle" x="473.28" y="-297.88" font-family="Times,serif" font-size="9.00">2</text>
</g>
<!-- 2&#45;&gt;11 -->
<g id="edge5" class="edge">
<title>2&#45;&gt;11</title>
<path fill="none" stroke="green" stroke-width="0.8" d="M462.55,-298.96C406.26,-298.16 145.15,-292.49 75.28,-255.08 26.16,-228.77 -17.28,-191.47 14.28,-145.54 20.92,-135.88 87.87,-113.13 126.38,-100.67"/>
<polygon fill="green" stroke="green" stroke-width="0.8" points="127.51,-103.99 135.96,-97.6 125.36,-97.32 127.51,-103.99"/>
</g>
<!-- 2&#45;&gt;12 -->
<g id="edge6" class="edge">
<title>2&#45;&gt;12</title>
<path fill="none" stroke="green" stroke-width="0.8" d="M462.76,-296.98C427.21,-289.26 311.22,-258.82 265.28,-182.31 253.98,-163.48 254.46,-138.23 257.21,-119.23"/>
<polygon fill="green" stroke="green" stroke-width="0.8" points="260.7,-119.59 258.96,-109.14 253.8,-118.39 260.7,-119.59"/>
</g>
<!-- 2&#45;&gt;17 -->
<g id="edge7" class="edge">
<title>2&#45;&gt;17</title>
<path fill="none" stroke="green" stroke-width="0.8" d="M480.18,-290.98C486.81,-282.62 496.39,-268.88 500.28,-255.08 513.51,-208.23 525.89,-186.94 500.28,-145.54 483.2,-117.92 447.03,-104.12 421.49,-97.56"/>
<polygon fill="green" stroke="green" stroke-width="0.8" points="422.15,-94.12 411.61,-95.25 420.55,-100.94 422.15,-94.12"/>
</g>
<!-- 13 -->
<g id="node15" class="node">
<title>13</title>
<ellipse fill="white" stroke="black" cx="473.28" cy="-236.69" rx="18.27" ry="18.27"/>
<text text-anchor="middle" x="473.28" y="-234.49" font-family="Times,serif" font-size="9.00">13</text>
</g>
<!-- 2&#45;&gt;13 -->
<g id="edge49" class="edge">
<title>2&#45;&gt;13</title>
<path fill="none" stroke="green" stroke-width="0.8" d="M473.28,-291.05C473.28,-284.49 473.28,-274.8 473.28,-265.47"/>
<polygon fill="green" stroke="green" stroke-width="0.8" points="476.78,-265.28 473.28,-255.28 469.78,-265.28 476.78,-265.28"/>
</g>
<!-- 15 -->
<g id="node17" class="node">
<title>15</title>
<ellipse fill="white" stroke="black" cx="565.28" cy="-91.15" rx="18.27" ry="18.27"/>
<text text-anchor="middle" x="565.28" y="-88.95" font-family="Times,serif" font-size="9.00">15</text>
</g>
<!-- 2&#45;&gt;15 -->
<g id="edge42" class="edge">
<title>2&#45;&gt;15</title>
<path fill="none" stroke="green" stroke-width="0.8" d="M483.91,-297.94C506.01,-295 557.19,-285.15 585.28,-255.08 619.24,-218.72 624.83,-192.45 608.28,-145.54 603.71,-132.56 594.49,-120.42 585.76,-111"/>
<polygon fill="green" stroke="green" stroke-width="0.8" points="588.16,-108.45 578.66,-103.77 583.17,-113.36 588.16,-108.45"/>
</g>
<!-- 3 -->
<g id="node3" class="node">
<title>3</title>
<polygon fill="lightgray" stroke="black" points="575.78,-245.69 554.78,-245.69 554.78,-227.69 575.78,-227.69 575.78,-245.69"/>
<text text-anchor="middle" x="565.28" y="-234.49" font-family="Times,serif" font-size="9.00">3</text>
</g>
<!-- 3&#45;&gt;11 -->
<g id="edge8" class="edge">
<title>3&#45;&gt;11</title>
<path fill="none" stroke="green" stroke-width="0.8" d="M554.38,-232.13C541.57,-228.09 519.62,-221.65 500.28,-218.31 451.62,-209.89 90.76,-218.62 57.28,-182.31 46.2,-170.29 49,-159.63 57.28,-145.54 71.87,-120.74 102.61,-106.62 125.4,-99.22"/>
<polygon fill="green" stroke="green" stroke-width="0.8" points="126.65,-102.5 135.22,-96.27 124.64,-95.79 126.65,-102.5"/>
</g>
<!-- 3&#45;&gt;12 -->
<g id="edge9" class="edge">
<title>3&#45;&gt;12</title>
<path fill="none" stroke="green" stroke-width="0.8" d="M554.77,-232.56C541.98,-228.82 519.68,-222.55 500.28,-218.31 407.34,-198 360.2,-245.71 289.28,-182.31 271.78,-166.66 265.75,-140.07 263.81,-119.8"/>
<polygon fill="green" stroke="green" stroke-width="0.8" points="267.29,-119.33 263.12,-109.59 260.3,-119.81 267.29,-119.33"/>
</g>
<!-- 3&#45;&gt;20 -->
<g id="edge10" class="edge">
<title>3&#45;&gt;20</title>
<path fill="none" stroke="green" stroke-width="0.8" d="M575.05,-227.45C585.58,-217.86 601.71,-200.94 608.28,-182.31 624.64,-135.91 627.36,-107.26 592.28,-72.77 559.1,-40.14 417.91,-25.98 356.74,-21.29"/>
<polygon fill="green" stroke="green" stroke-width="0.8" points="356.86,-17.79 346.63,-20.55 356.34,-24.77 356.86,-17.79"/>
</g>
<!-- 14 -->
<g id="node16" class="node">
<title>14</title>
<ellipse fill="white" stroke="black" cx="485.28" cy="-91.15" rx="18.27" ry="18.27"/>
<text text-anchor="middle" x="485.28" y="-88.95" font-family="Times,serif" font-size="9.00">14</text>
</g>
<!-- 3&#45;&gt;14 -->
<g id="edge37" class="edge">
<title>3&#45;&gt;14</title>
<path fill="none" stroke="green" stroke-width="0.8" d="M571.81,-227.65C584.35,-211.15 609.13,-172.77 592.28,-145.54 583.2,-130.85 540.72,-112.71 512.1,-101.8"/>
<polygon fill="green" stroke="green" stroke-width="0.8" points="513.22,-98.48 502.63,-98.26 510.77,-105.04 513.22,-98.48"/>
</g>
<!-- 16 -->
<g id="node18" class="node">
<title>16</title>
<ellipse fill="white" stroke="black" cx="565.28" cy="-163.92" rx="18.27" ry="18.27"/>
<text text-anchor="middle" x="565.28" y="-161.72" font-family="Times,serif" font-size="9.00">16</text>
</g>
<!-- 3&#45;&gt;16 -->
<g id="edge40" class="edge">
<title>3&#45;&gt;16</title>
<path fill="none" stroke="green" stroke-width="0.8" d="M565.28,-227.58C565.28,-219.01 565.28,-205.03 565.28,-192.45"/>
<polygon fill="green" stroke="green" stroke-width="0.8" points="568.78,-192.36 565.28,-182.36 561.78,-192.36 568.78,-192.36"/>
</g>
<!-- 4 -->
<g id="node4" class="node">
<title>4</title>
<polygon fill="lightgray" stroke="black" points="87.78,-172.92 66.78,-172.92 66.78,-154.92 87.78,-154.92 87.78,-172.92"/>
<text text-anchor="middle" x="77.28" y="-161.72" font-family="Times,serif" font-size="9.00">4</text>
</g>
<!-- 4&#45;&gt;11 -->
<g id="edge11" class="edge">
<title>4&#45;&gt;11</title>
<path fill="none" stroke="green" stroke-width="0.8" d="M86,-154.81C97.29,-144.29 117.33,-125.64 132.61,-111.41"/>
<polygon fill="green" stroke="green" stroke-width="0.8" points="135.16,-113.81 140.09,-104.44 130.39,-108.69 135.16,-113.81"/>
</g>
<!-- 4&#45;&gt;12 -->
<g id="edge12" class="edge">
<title>4&#45;&gt;12</title>
<path fill="none" stroke="green" stroke-width="0.8" d="M84.38,-154.88C87.69,-151.55 91.88,-147.93 96.28,-145.54 152.37,-115.1 176.62,-134.66 235.28,-109.54 236.7,-108.93 238.12,-108.26 239.54,-107.55"/>
<polygon fill="green" stroke="green" stroke-width="0.8" points="241.64,-110.38 248.62,-102.41 238.2,-104.29 241.64,-110.38"/>
</g>
<!-- 4&#45;&gt;17 -->
<g id="edge13" class="edge">
<title>4&#45;&gt;17</title>
<path fill="none" stroke="green" stroke-width="0.8" d="M84.29,-154.72C87.6,-151.36 91.79,-147.76 96.28,-145.54 102.35,-142.54 292.48,-109.54 365.29,-96.97"/>
<polygon fill="green" stroke="green" stroke-width="0.8" points="365.89,-100.42 375.15,-95.27 364.7,-93.52 365.89,-100.42"/>
</g>
<!-- 18 -->
<g id="node19" class="node">
<title>18</title>
<ellipse fill="white" stroke="black" cx="61.28" cy="-91.15" rx="18.27" ry="18.27"/>
<text text-anchor="middle" x="61.28" y="-88.95" font-family="Times,serif" font-size="9.00">18</text>
</g>
<!-- 4&#45;&gt;18 -->
<g id="edge44" class="edge">
<title>4&#45;&gt;18</title>
<path fill="none" stroke="green" stroke-width="0.8" d="M75.45,-154.81C73.5,-146.18 70.31,-132.08 67.45,-119.43"/>
<polygon fill="green" stroke="green" stroke-width="0.8" points="70.78,-118.29 65.16,-109.31 63.95,-119.83 70.78,-118.29"/>
</g>
<!-- 5 -->
<g id="node5" class="node">
<title>5</title>
<polygon fill="lightgray" stroke="black" points="436.78,-172.92 415.78,-172.92 415.78,-154.92 436.78,-154.92 436.78,-172.92"/>
<text text-anchor="middle" x="426.28" y="-161.72" font-family="Times,serif" font-size="9.00">5</text>
</g>
<!-- 5&#45;&gt;11 -->
<g id="edge14" class="edge">
<title>5&#45;&gt;11</title>
<path fill="none" stroke="green" stroke-width="0.8" d="M419.29,-154.68C415.99,-151.31 411.79,-147.71 407.28,-145.54 315.67,-101.34 276.59,-145.06 181.28,-109.54 179.84,-109 178.39,-108.39 176.96,-107.71"/>
<polygon fill="green" stroke="green" stroke-width="0.8" points="178.28,-104.44 167.83,-102.7 174.91,-110.58 178.28,-104.44"/>
</g>
<!-- 5&#45;&gt;12 -->
<g id="edge15" class="edge">
<title>5&#45;&gt;12</title>
<path fill="none" stroke="green" stroke-width="0.8" d="M418.71,-154.73C415.43,-151.54 411.4,-148.05 407.28,-145.54 369.82,-122.67 321.01,-107.14 290.92,-98.97"/>
<polygon fill="green" stroke="green" stroke-width="0.8" points="291.67,-95.55 281.11,-96.38 289.89,-102.31 291.67,-95.55"/>
</g>
<!-- 5&#45;&gt;17 -->
<g id="edge16" class="edge">
<title>5&#45;&gt;17</title>
<path fill="none" stroke="green" stroke-width="0.8" d="M422.5,-154.81C418.25,-145.69 411.14,-130.45 405,-117.28"/>
<polygon fill="green" stroke="green" stroke-width="0.8" points="408.15,-115.76 400.75,-108.18 401.81,-118.72 408.15,-115.76"/>
</g>
<!-- 5&#45;&gt;14 -->
<g id="edge35" class="edge">
<title>5&#45;&gt;14</title>
<path fill="none" stroke="green" stroke-width="0.8" d="M433.05,-154.81C441.4,-144.79 455.91,-127.38 467.53,-113.45"/>
<polygon fill="green" stroke="green" stroke-width="0.8" points="470.25,-115.66 473.96,-105.73 464.87,-111.17 470.25,-115.66"/>
</g>
<!-- 6 -->
<g id="node6" class="node">
<title>6</title>
<polygon fill="lightgray" stroke="black" points="165.78,-172.92 144.78,-172.92 144.78,-154.92 165.78,-154.92 165.78,-172.92"/>
<text text-anchor="middle" x="155.28" y="-161.72" font-family="Times,serif" font-size="9.00">6</text>
</g>
<!-- 6&#45;&gt;11 -->
<g id="edge17" class="edge">
<title>6&#45;&gt;11</title>
<path fill="none" stroke="green" stroke-width="0.8" d="M155.05,-154.81C154.81,-146.24 154.42,-132.26 154.06,-119.68"/>
<polygon fill="green" stroke="green" stroke-width="0.8" points="157.56,-119.49 153.77,-109.59 150.56,-119.69 157.56,-119.49"/>
</g>
<!-- 6&#45;&gt;12 -->
<g id="edge18" class="edge">
<title>6&#45;&gt;12</title>
<path fill="none" stroke="green" stroke-width="0.8" d="M165.93,-155.39C170.35,-152.3 175.54,-148.71 180.28,-145.54 199.99,-132.36 222.64,-117.83 239.3,-107.26"/>
<polygon fill="green" stroke="green" stroke-width="0.8" points="241.3,-110.13 247.88,-101.83 237.56,-104.22 241.3,-110.13"/>
</g>
<!-- 6&#45;&gt;17 -->
<g id="edge19" class="edge">
<title>6&#45;&gt;17</title>
<path fill="none" stroke="green" stroke-width="0.8" d="M165.82,-159.79C200.82,-149.38 313.97,-115.74 366.29,-100.18"/>
<polygon fill="green" stroke="green" stroke-width="0.8" points="367.31,-103.53 375.9,-97.32 365.32,-96.82 367.31,-103.53"/>
</g>
<!-- 19 -->
<g id="node20" class="node">
<title>19</title>
<ellipse fill="white" stroke="black" cx="208.28" cy="-91.15" rx="18.27" ry="18.27"/>
<text text-anchor="middle" x="208.28" y="-88.95" font-family="Times,serif" font-size="9.00">19</text>
</g>
<!-- 6&#45;&gt;19 -->
<g id="edge46" class="edge">
<title>6&#45;&gt;19</title>
<path fill="none" stroke="green" stroke-width="0.8" d="M161.36,-154.81C168.7,-145 181.35,-128.12 191.66,-114.35"/>
<polygon fill="green" stroke="green" stroke-width="0.8" points="194.52,-116.37 197.71,-106.27 188.92,-112.17 194.52,-116.37"/>
</g>
<!-- 7 -->
<g id="node7" class="node">
<title>7</title>
<polygon fill="lightgray" stroke="black" points="126.78,-172.92 105.78,-172.92 105.78,-154.92 126.78,-154.92 126.78,-172.92"/>
<text text-anchor="middle" x="116.28" y="-161.72" font-family="Times,serif" font-size="9.00">7</text>
</g>
<!-- 7&#45;&gt;11 -->
<g id="edge20" class="edge">
<title>7&#45;&gt;11</title>
<path fill="none" stroke="green" stroke-width="0.8" d="M120.53,-154.81C125.32,-145.63 133.36,-130.25 140.28,-117.03"/>
<polygon fill="green" stroke="green" stroke-width="0.8" points="143.52,-118.39 145.05,-107.9 137.31,-115.14 143.52,-118.39"/>
</g>
<!-- 7&#45;&gt;12 -->
<g id="edge21" class="edge">
<title>7&#45;&gt;12</title>
<path fill="none" stroke="green" stroke-width="0.8" d="M123.85,-154.71C127.12,-151.52 131.15,-148.04 135.28,-145.54 175.72,-121.12 192.76,-130.11 235.28,-109.54 236.67,-108.87 238.07,-108.15 239.47,-107.4"/>
<polygon fill="green" stroke="green" stroke-width="0.8" points="241.62,-110.19 248.5,-102.14 238.1,-104.14 241.62,-110.19"/>
</g>
<!-- 7&#45;&gt;17 -->
<g id="edge22" class="edge">
<title>7&#45;&gt;17</title>
<path fill="none" stroke="green" stroke-width="0.8" d="M123.32,-154.77C126.63,-151.43 130.82,-147.82 135.28,-145.54 155.74,-135.08 302.95,-108.17 365.39,-97.06"/>
<polygon fill="green" stroke="green" stroke-width="0.8" points="366.1,-100.49 375.34,-95.3 364.88,-93.6 366.1,-100.49"/>
</g>
<!-- 7&#45;&gt;20 -->
<g id="edge23" class="edge">
<title>7&#45;&gt;20</title>
<path fill="none" stroke="green" stroke-width="0.8" d="M114.45,-154.77C111.07,-137.4 105.92,-96.39 126.28,-72.77 148.84,-46.6 249.7,-29.81 299.82,-22.94"/>
<polygon fill="green" stroke="green" stroke-width="0.8" points="300.54,-26.38 309.99,-21.59 299.61,-19.44 300.54,-26.38"/>
</g>
<!-- 8 -->
<g id="node8" class="node">
<title>8</title>
<polygon fill="lightgray" stroke="black" points="319.78,-172.92 298.78,-172.92 298.78,-154.92 319.78,-154.92 319.78,-172.92"/>
<text text-anchor="middle" x="309.28" y="-161.72" font-family="Times,serif" font-size="9.00">8</text>
</g>
<!-- 8&#45;&gt;11 -->
<g id="edge24" class="edge">
<title>8&#45;&gt;11</title>
<path fill="none" stroke="green" stroke-width="0.8" d="M298.74,-159.18C276.52,-151.16 223.46,-131.25 181.28,-109.54 179.91,-108.84 178.53,-108.09 177.14,-107.31"/>
<polygon fill="green" stroke="green" stroke-width="0.8" points="178.53,-104.07 168.14,-101.99 174.96,-110.09 178.53,-104.07"/>
</g>
<!-- 8&#45;&gt;12 -->
<g id="edge25" class="edge">
<title>8&#45;&gt;12</title>
<path fill="none" stroke="green" stroke-width="0.8" d="M304.01,-154.81C297.81,-145.28 287.26,-129.05 278.46,-115.5"/>
<polygon fill="green" stroke="green" stroke-width="0.8" points="281.37,-113.55 272.98,-107.08 275.5,-117.37 281.37,-113.55"/>
</g>
<!-- 8&#45;&gt;17 -->
<g id="edge26" class="edge">
<title>8&#45;&gt;17</title>
<path fill="none" stroke="green" stroke-width="0.8" d="M318.61,-154.75C321.96,-151.83 325.78,-148.52 329.28,-145.54 343.25,-133.65 359.07,-120.45 371.49,-110.15"/>
<polygon fill="green" stroke="green" stroke-width="0.8" points="374.01,-112.6 379.48,-103.53 369.55,-107.21 374.01,-112.6"/>
</g>
<!-- 8&#45;&gt;20 -->
<g id="edge27" class="edge">
<title>8&#45;&gt;20</title>
<path fill="none" stroke="green" stroke-width="0.8" d="M310.36,-154.8C313.06,-134.35 320.25,-80.06 324.66,-46.76"/>
<polygon fill="green" stroke="green" stroke-width="0.8" points="328.14,-47.13 325.98,-36.76 321.2,-46.21 328.14,-47.13"/>
</g>
<!-- 9 -->
<g id="node9" class="node">
<title>9</title>
<polygon fill="lightgray" stroke="black" points="358.78,-172.92 337.78,-172.92 337.78,-154.92 358.78,-154.92 358.78,-172.92"/>
<text text-anchor="middle" x="348.28" y="-161.72" font-family="Times,serif" font-size="9.00">9</text>
</g>
<!-- 9&#45;&gt;11 -->
<g id="edge28" class="edge">
<title>9&#45;&gt;11</title>
<path fill="none" stroke="green" stroke-width="0.8" d="M341.2,-154.85C337.89,-151.52 333.7,-147.9 329.28,-145.54 269.55,-113.69 243.71,-135.72 181.28,-109.54 179.86,-108.94 178.43,-108.28 177.01,-107.58"/>
<polygon fill="green" stroke="green" stroke-width="0.8" points="178.35,-104.31 167.92,-102.45 174.92,-110.41 178.35,-104.31"/>
</g>
<!-- 9&#45;&gt;12 -->
<g id="edge29" class="edge">
<title>9&#45;&gt;12</title>
<path fill="none" stroke="green" stroke-width="0.8" d="M339.49,-154.67C336.31,-151.75 332.67,-148.46 329.28,-145.54 314.9,-133.16 298.28,-119.72 285.32,-109.43"/>
<polygon fill="green" stroke="green" stroke-width="0.8" points="287.41,-106.62 277.39,-103.16 283.06,-112.11 287.41,-106.62"/>
</g>
<!-- 9&#45;&gt;17 -->
<g id="edge30" class="edge">
<title>9&#45;&gt;17</title>
<path fill="none" stroke="green" stroke-width="0.8" d="M353.44,-154.81C359.45,-145.37 369.63,-129.36 378.19,-115.89"/>
<polygon fill="green" stroke="green" stroke-width="0.8" points="381.38,-117.39 383.79,-107.08 375.47,-113.64 381.38,-117.39"/>
</g>
<!-- 9&#45;&gt;20 -->
<g id="edge31" class="edge">
<title>9&#45;&gt;20</title>
<path fill="none" stroke="green" stroke-width="0.8" d="M347.15,-154.8C344.3,-134.35 336.74,-80.06 332.1,-46.76"/>
<polygon fill="green" stroke="green" stroke-width="0.8" points="335.55,-46.18 330.7,-36.76 328.62,-47.15 335.55,-46.18"/>
</g>
<!-- 10 -->
<g id="node10" class="node">
<title>10</title>
<polygon fill="lightgray" stroke="black" points="110.28,-245.69 84.28,-245.69 84.28,-227.69 110.28,-227.69 110.28,-245.69"/>
<text text-anchor="middle" x="97.28" y="-234.49" font-family="Times,serif" font-size="9.00">10</text>
</g>
<!-- 10&#45;&gt;11 -->
<g id="edge32" class="edge">
<title>10&#45;&gt;11</title>
<path fill="none" stroke="green" stroke-width="0.8" d="M84.02,-230.53C66.6,-222.94 36.79,-206.95 24.28,-182.31 16.89,-167.74 15.2,-159.13 24.28,-145.54 36,-128.01 91.38,-109.65 125.66,-99.68"/>
<polygon fill="green" stroke="green" stroke-width="0.8" points="126.89,-102.97 135.55,-96.87 124.97,-96.24 126.89,-102.97"/>
</g>
<!-- 10&#45;&gt;12 -->
<g id="edge33" class="edge">
<title>10&#45;&gt;12</title>
<path fill="none" stroke="green" stroke-width="0.8" d="M110.35,-227.69C126.1,-217.81 153.11,-200.1 174.28,-182.31 200.36,-160.39 227.46,-132 244.8,-112.98"/>
<polygon fill="green" stroke="green" stroke-width="0.8" points="247.49,-115.22 251.6,-105.46 242.3,-110.53 247.49,-115.22"/>
</g>
<!-- 10&#45;&gt;20 -->
<g id="edge34" class="edge">
<title>10&#45;&gt;20</title>
<path fill="none" stroke="green" stroke-width="0.8" d="M84.23,-231.75C64.87,-225.11 29.22,-209.68 14.28,-182.31 -9.43,-138.87 -2.23,-106.18 34.28,-72.77 72.89,-37.44 233.27,-24.64 299.49,-20.8"/>
<polygon fill="green" stroke="green" stroke-width="0.8" points="299.84,-24.29 309.63,-20.24 299.46,-17.3 299.84,-24.29"/>
</g>
<!-- 21 -->
<g id="node21" class="node">
<title>21</title>
<ellipse fill="white" stroke="black" cx="473.28" cy="-163.92" rx="18.27" ry="18.27"/>
<text text-anchor="middle" x="473.28" y="-161.72" font-family="Times,serif" font-size="9.00">21</text>
</g>
<!-- 10&#45;&gt;21 -->
<g id="edge38" class="edge">
<title>10&#45;&gt;21</title>
<path fill="none" stroke="green" stroke-width="0.8" d="M110.45,-235.63C157.62,-235.02 321.89,-229.4 446.28,-182.31 447.51,-181.84 448.75,-181.31 449.97,-180.74"/>
<polygon fill="green" stroke="green" stroke-width="0.8" points="452.01,-183.61 459.03,-175.68 448.59,-177.5 452.01,-183.61"/>
</g>
<!-- 13&#45;&gt;21 -->
<g id="edge50" class="edge">
<title>13&#45;&gt;21</title>
<path fill="none" stroke="green" stroke-width="0.8" d="M473.28,-218.2C473.28,-210.52 473.28,-201.31 473.28,-192.72"/>
<polygon fill="green" stroke="green" stroke-width="0.8" points="476.78,-192.71 473.28,-182.71 469.78,-192.71 476.78,-192.71"/>
</g>
<!-- 14&#45;&gt;20 -->
<g id="edge36" class="edge">
<title>14&#45;&gt;20</title>
<path fill="none" stroke="green" stroke-width="0.8" d="M469.48,-81.19C464.37,-78.39 458.63,-75.36 453.28,-72.77 419.71,-56.53 379.96,-40 354.45,-29.72"/>
<polygon fill="green" stroke="green" stroke-width="0.8" points="355.67,-26.44 345.09,-25.98 353.07,-32.94 355.67,-26.44"/>
</g>
<!-- 15&#45;&gt;20 -->
<g id="edge43" class="edge">
<title>15&#45;&gt;20</title>
<path fill="none" stroke="green" stroke-width="0.8" d="M548.14,-84.37C537.79,-80.91 524.31,-76.49 512.28,-72.77 456.89,-55.66 391.63,-37.1 355.62,-27"/>
<polygon fill="green" stroke="green" stroke-width="0.8" points="356.42,-23.59 345.85,-24.26 354.53,-30.33 356.42,-23.59"/>
</g>
<!-- 16&#45;&gt;17 -->
<g id="edge41" class="edge">
<title>16&#45;&gt;17</title>
<path fill="none" stroke="green" stroke-width="0.8" d="M549.54,-153.83C544.43,-151.03 538.68,-148.02 533.28,-145.54 494.97,-127.92 449.05,-111.21 420.51,-101.32"/>
<polygon fill="green" stroke="green" stroke-width="0.8" points="421.43,-97.94 410.83,-98 419.15,-104.56 421.43,-97.94"/>
</g>
<!-- 16&#45;&gt;15 -->
<g id="edge48" class="edge">
<title>16&#45;&gt;15</title>
<path fill="none" stroke="green" stroke-width="0.8" d="M565.28,-145.43C565.28,-137.75 565.28,-128.54 565.28,-119.95"/>
<polygon fill="green" stroke="green" stroke-width="0.8" points="568.78,-119.94 565.28,-109.94 561.78,-119.94 568.78,-119.94"/>
</g>
<!-- 18&#45;&gt;20 -->
<g id="edge45" class="edge">
<title>18&#45;&gt;20</title>
<path fill="none" stroke="green" stroke-width="0.8" d="M76.5,-80.78C81.68,-77.89 87.6,-74.91 93.28,-72.77 165.25,-45.64 255.05,-29.94 299.95,-23.25"/>
<polygon fill="green" stroke="green" stroke-width="0.8" points="300.71,-26.68 310.11,-21.78 299.71,-19.75 300.71,-26.68"/>
</g>
<!-- 19&#45;&gt;20 -->
<g id="edge47" class="edge">
<title>19&#45;&gt;20</title>
<path fill="none" stroke="green" stroke-width="0.8" d="M223.64,-80.51C227.73,-77.97 232.16,-75.24 236.28,-72.77 259.04,-59.11 285.24,-43.96 303.84,-33.3"/>
<polygon fill="green" stroke="green" stroke-width="0.8" points="305.63,-36.31 312.57,-28.31 302.15,-30.24 305.63,-36.31"/>
</g>
<!-- 21&#45;&gt;17 -->
<g id="edge39" class="edge">
<title>21&#45;&gt;17</title>
<path fill="none" stroke="green" stroke-width="0.8" d="M459.71,-150.92C447.34,-139.97 428.86,-123.63 414.53,-110.95"/>
<polygon fill="green" stroke="green" stroke-width="0.8" points="416.46,-107.99 406.65,-103.98 411.82,-113.23 416.46,-107.99"/>
</g>
</g>
</svg>
