<?xml version="1.0" encoding="UTF-8" standalone="no"?>
<!DOCTYPE svg PUBLIC "-//W3C//DTD SVG 1.1//EN"
 "http://www.w3.org/Graphics/SVG/1.1/DTD/svg11.dtd">
<!-- Generated by graphviz version 3.0.0 (20220226.1711)
 -->
<!-- Pages: 1 -->
<svg width="926pt" height="244pt"
 viewBox="0.00 0.00 926.18 244.31" xmlns="http://www.w3.org/2000/svg" xmlns:xlink="http://www.w3.org/1999/xlink">
<g id="graph0" class="graph" transform="scale(1 1) rotate(0) translate(4 240.31)">
<polygon fill="white" stroke="transparent" points="-4,4 -4,-240.31 922.18,-240.31 922.18,4 -4,4"/>
<!-- 1 -->
<g id="node1" class="node">
<title>1</title>
<polygon fill="lightgray" stroke="black" points="143.07,-172.92 122.07,-172.92 122.07,-154.92 143.07,-154.92 143.07,-172.92"/>
<text text-anchor="middle" x="132.57" y="-161.72" font-family="Times,serif" font-size="9.00">1</text>
</g>
<!-- 11 -->
<g id="node11" class="node">
<title>11</title>
<ellipse fill="lightblue" stroke="black" cx="362.57" cy="-91.15" rx="18.27" ry="18.27"/>
<text text-anchor="middle" x="362.57" y="-88.95" font-family="Times,serif" font-size="9.00">11</text>
</g>
<!-- 1&#45;&gt;11 -->
<g id="edge1" class="edge">
<title>1&#45;&gt;11</title>
<path fill="none" stroke="green" stroke-width="0.8" d="M139.66,-154.87C142.97,-151.54 147.16,-147.92 151.57,-145.54 183.25,-128.46 284.64,-107.23 334.44,-97.49"/>
<polygon fill="green" stroke="green" stroke-width="0.8" points="335.37,-100.88 344.52,-95.54 334.03,-94.01 335.37,-100.88"/>
</g>
<!-- 16 -->
<g id="node12" class="node">
<title>16</title>
<ellipse fill="lightblue" stroke="black" cx="207.57" cy="-18.38" rx="18.27" ry="18.27"/>
<text text-anchor="middle" x="207.57" y="-16.18" font-family="Times,serif" font-size="9.00">16</text>
</g>
<!-- 1&#45;&gt;16 -->
<g id="edge2" class="edge">
<title>1&#45;&gt;16</title>
<path fill="none" stroke="green" stroke-width="0.8" d="M136.82,-154.8C147.76,-133.85 177.27,-77.38 194.52,-44.35"/>
<polygon fill="green" stroke="green" stroke-width="0.8" points="197.72,-45.8 199.25,-35.32 191.51,-42.56 197.72,-45.8"/>
</g>
<!-- 17 -->
<g id="node13" class="node">
<title>17</title>
<ellipse fill="lightblue" stroke="black" cx="611.57" cy="-18.38" rx="18.27" ry="18.27"/>
<text text-anchor="middle" x="611.57" y="-16.18" font-family="Times,serif" font-size="9.00">17</text>
</g>
<!-- 1&#45;&gt;17 -->
<g id="edge3" class="edge">
<title>1&#45;&gt;17</title>
<path fill="none" stroke="green" stroke-width="0.8" d="M140.75,-154.74C143.99,-151.69 147.83,-148.3 151.57,-145.54 202.98,-107.59 215.42,-94.33 275.57,-72.77 384.71,-33.66 524.01,-23.14 583.07,-20.36"/>
<polygon fill="green" stroke="green" stroke-width="0.8" points="583.29,-23.85 593.13,-19.93 582.99,-16.86 583.29,-23.85"/>
</g>
<!-- 19 -->
<g id="node14" class="node">
<title>19</title>
<ellipse fill="lightblue" stroke="black" cx="428.57" cy="-91.15" rx="18.27" ry="18.27"/>
<text text-anchor="middle" x="428.57" y="-88.95" font-family="Times,serif" font-size="9.00">19</text>
</g>
<!-- 1&#45;&gt;19 -->
<g id="edge4" class="edge">
<title>1&#45;&gt;19</title>
<path fill="none" stroke="green" stroke-width="0.8" d="M139.55,-154.66C142.85,-151.29 147.05,-147.7 151.57,-145.54 248.11,-99.43 286.9,-139.59 389.57,-109.54 394.09,-108.21 398.78,-106.48 403.26,-104.61"/>
<polygon fill="green" stroke="green" stroke-width="0.8" points="404.91,-107.7 412.62,-100.43 402.06,-101.31 404.91,-107.7"/>
</g>
<!-- 12 -->
<g id="node15" class="node">
<title>12</title>
<ellipse fill="white" stroke="black" cx="47.57" cy="-91.15" rx="18.27" ry="18.27"/>
<text text-anchor="middle" x="47.57" y="-88.95" font-family="Times,serif" font-size="9.00">12</text>
</g>
<!-- 1&#45;&gt;12 -->
<g id="edge43" class="edge">
<title>1&#45;&gt;12</title>
<path fill="none" stroke="green" stroke-width="0.8" d="M122.82,-154.81C109.85,-144.01 86.57,-124.62 69.32,-110.26"/>
<polygon fill="green" stroke="green" stroke-width="0.8" points="71.34,-107.39 61.41,-103.68 66.86,-112.77 71.34,-107.39"/>
</g>
<!-- 15 -->
<g id="node18" class="node">
<title>15</title>
<ellipse fill="white" stroke="black" cx="634.57" cy="-91.15" rx="18.27" ry="18.27"/>
<text text-anchor="middle" x="634.57" y="-88.95" font-family="Times,serif" font-size="9.00">15</text>
</g>
<!-- 1&#45;&gt;15 -->
<g id="edge48" class="edge">
<title>1&#45;&gt;15</title>
<path fill="none" stroke="green" stroke-width="0.8" d="M139.51,-154.57C142.8,-151.19 147.01,-147.61 151.57,-145.54 162.03,-140.8 504.34,-105.48 606.23,-95.05"/>
<polygon fill="green" stroke="green" stroke-width="0.8" points="606.79,-98.51 616.39,-94.01 606.08,-91.54 606.79,-98.51"/>
</g>
<!-- 2 -->
<g id="node2" class="node">
<title>2</title>
<polygon fill="lightgray" stroke="black" points="777.07,-236.31 756.07,-236.31 756.07,-218.31 777.07,-218.31 777.07,-236.31"/>
<text text-anchor="middle" x="766.57" y="-225.11" font-family="Times,serif" font-size="9.00">2</text>
</g>
<!-- 2&#45;&gt;11 -->
<g id="edge5" class="edge">
<title>2&#45;&gt;11</title>
<path fill="none" stroke="green" stroke-width="0.8" d="M756.06,-224.94C709.12,-218.77 519.85,-193.4 495.57,-182.31 472.39,-171.72 472.34,-160.31 451.57,-145.54 430.69,-130.69 405.54,-115.86 387.31,-105.62"/>
<polygon fill="green" stroke="green" stroke-width="0.8" points="388.91,-102.5 378.47,-100.7 385.51,-108.62 388.91,-102.5"/>
</g>
<!-- 2&#45;&gt;16 -->
<g id="edge6" class="edge">
<title>2&#45;&gt;16</title>
<path fill="none" stroke="green" stroke-width="0.8" d="M767.6,-217.98C770.41,-191.09 774.99,-106.39 726.57,-72.77 686.1,-44.67 339.54,-25.77 236.41,-20.73"/>
<polygon fill="green" stroke="green" stroke-width="0.8" points="236.29,-17.22 226.13,-20.24 235.95,-24.21 236.29,-17.22"/>
</g>
<!-- 2&#45;&gt;17 -->
<g id="edge7" class="edge">
<title>2&#45;&gt;17</title>
<path fill="none" stroke="green" stroke-width="0.8" d="M777.38,-226.94C805.33,-227.9 880.04,-226.08 912.57,-182.31 922.32,-169.19 916.88,-161.3 912.57,-145.54 902.66,-109.3 900.13,-94.61 869.57,-72.77 832.79,-46.48 698.95,-28.96 639.9,-22.34"/>
<polygon fill="green" stroke="green" stroke-width="0.8" points="640.1,-18.84 629.78,-21.23 639.34,-25.8 640.1,-18.84"/>
</g>
<!-- 14 -->
<g id="node17" class="node">
<title>14</title>
<ellipse fill="white" stroke="black" cx="660.57" cy="-163.92" rx="18.27" ry="18.27"/>
<text text-anchor="middle" x="660.57" y="-161.72" font-family="Times,serif" font-size="9.00">14</text>
</g>
<!-- 2&#45;&gt;14 -->
<g id="edge50" class="edge">
<title>2&#45;&gt;14</title>
<path fill="none" stroke="green" stroke-width="0.8" d="M755.89,-220.47C740.79,-212.17 712.38,-196.41 688.57,-182.31 687.28,-181.54 685.96,-180.75 684.62,-179.95"/>
<polygon fill="green" stroke="green" stroke-width="0.8" points="686.26,-176.85 675.9,-174.61 682.6,-182.81 686.26,-176.85"/>
</g>
<!-- 3 -->
<g id="node3" class="node">
<title>3</title>
<polygon fill="lightgray" stroke="black" points="297.07,-236.31 276.07,-236.31 276.07,-218.31 297.07,-218.31 297.07,-236.31"/>
<text text-anchor="middle" x="286.57" y="-225.11" font-family="Times,serif" font-size="9.00">3</text>
</g>
<!-- 3&#45;&gt;11 -->
<g id="edge8" class="edge">
<title>3&#45;&gt;11</title>
<path fill="none" stroke="green" stroke-width="0.8" d="M287.66,-218.23C289.96,-203.08 296.36,-169.76 310.57,-145.54 318.4,-132.2 330.25,-119.68 340.66,-110.12"/>
<polygon fill="green" stroke="green" stroke-width="0.8" points="343.07,-112.66 348.26,-103.42 338.44,-107.41 343.07,-112.66"/>
</g>
<!-- 3&#45;&gt;19 -->
<g id="edge9" class="edge">
<title>3&#45;&gt;19</title>
<path fill="none" stroke="green" stroke-width="0.8" d="M295.45,-217.92C317.73,-196.87 376.44,-141.4 407.92,-111.66"/>
<polygon fill="green" stroke="green" stroke-width="0.8" points="410.44,-114.1 415.3,-104.69 405.63,-109.01 410.44,-114.1"/>
</g>
<!-- 3&#45;&gt;12 -->
<g id="edge41" class="edge">
<title>3&#45;&gt;12</title>
<path fill="none" stroke="green" stroke-width="0.8" d="M275.93,-225.36C228.46,-220.99 37.53,-202.3 20.57,-182.31 4.26,-163.08 17.43,-134.26 30.47,-114.41"/>
<polygon fill="green" stroke="green" stroke-width="0.8" points="33.49,-116.19 36.34,-105.99 27.75,-112.19 33.49,-116.19"/>
</g>
<!-- 13 -->
<g id="node16" class="node">
<title>13</title>
<ellipse fill="white" stroke="black" cx="47.57" cy="-163.92" rx="18.27" ry="18.27"/>
<text text-anchor="middle" x="47.57" y="-161.72" font-family="Times,serif" font-size="9.00">13</text>
</g>
<!-- 3&#45;&gt;13 -->
<g id="edge40" class="edge">
<title>3&#45;&gt;13</title>
<path fill="none" stroke="green" stroke-width="0.8" d="M275.93,-225.14C244.88,-221.52 151.95,-209.02 79.57,-182.31 76.99,-181.36 74.36,-180.23 71.78,-179.01"/>
<polygon fill="green" stroke="green" stroke-width="0.8" points="73.26,-175.83 62.77,-174.35 70.05,-182.05 73.26,-175.83"/>
</g>
<!-- 3&#45;&gt;15 -->
<g id="edge46" class="edge">
<title>3&#45;&gt;15</title>
<path fill="none" stroke="green" stroke-width="0.8" d="M297.29,-224.62C308.54,-222.88 326.77,-220.17 342.57,-218.31 385.24,-213.27 698.64,-214.07 727.57,-182.31 738.57,-170.23 735.76,-159.68 727.57,-145.54 713.64,-121.48 684.31,-107.32 662.29,-99.7"/>
<polygon fill="green" stroke="green" stroke-width="0.8" points="663.06,-96.27 652.47,-96.56 660.93,-102.94 663.06,-96.27"/>
</g>
<!-- 4 -->
<g id="node4" class="node">
<title>4</title>
<polygon fill="lightgray" stroke="black" points="140.07,-236.31 119.07,-236.31 119.07,-218.31 140.07,-218.31 140.07,-236.31"/>
<text text-anchor="middle" x="129.57" y="-225.11" font-family="Times,serif" font-size="9.00">4</text>
</g>
<!-- 4&#45;&gt;11 -->
<g id="edge10" class="edge">
<title>4&#45;&gt;11</title>
<path fill="none" stroke="green" stroke-width="0.8" d="M140.1,-219.06C152.39,-210.51 173.25,-195.77 190.57,-182.31 210.69,-166.67 212.77,-158.73 234.57,-145.54 270.37,-123.87 282.97,-125.71 321.57,-109.54 326.44,-107.5 331.62,-105.31 336.61,-103.2"/>
<polygon fill="green" stroke="green" stroke-width="0.8" points="337.99,-106.42 345.83,-99.29 335.25,-99.98 337.99,-106.42"/>
</g>
<!-- 4&#45;&gt;16 -->
<g id="edge11" class="edge">
<title>4&#45;&gt;16</title>
<path fill="none" stroke="green" stroke-width="0.8" d="M118.87,-226.15C94.52,-225.15 35.11,-218.87 9.57,-182.31 0.34,-169.09 -6.14,-94.3 10.57,-72.77 31.21,-46.17 129.78,-29.64 179.2,-22.89"/>
<polygon fill="green" stroke="green" stroke-width="0.8" points="179.78,-26.35 189.23,-21.56 178.86,-19.41 179.78,-26.35"/>
</g>
<!-- 4&#45;&gt;19 -->
<g id="edge12" class="edge">
<title>4&#45;&gt;19</title>
<path fill="none" stroke="green" stroke-width="0.8" d="M140.21,-221.53C182.57,-202.53 339.96,-131.91 402.6,-103.81"/>
<polygon fill="green" stroke="green" stroke-width="0.8" points="404.12,-106.96 411.81,-99.67 401.26,-100.57 404.12,-106.96"/>
</g>
<!-- 4&#45;&gt;13 -->
<g id="edge36" class="edge">
<title>4&#45;&gt;13</title>
<path fill="none" stroke="green" stroke-width="0.8" d="M118.85,-218.28C106.54,-209.07 86.01,-193.7 70.14,-181.82"/>
<polygon fill="green" stroke="green" stroke-width="0.8" points="71.98,-178.82 61.88,-175.63 67.78,-184.43 71.98,-178.82"/>
</g>
<!-- 5 -->
<g id="node5" class="node">
<title>5</title>
<polygon fill="lightgray" stroke="black" points="373.07,-236.31 352.07,-236.31 352.07,-218.31 373.07,-218.31 373.07,-236.31"/>
<text text-anchor="middle" x="362.57" y="-225.11" font-family="Times,serif" font-size="9.00">5</text>
</g>
<!-- 5&#45;&gt;11 -->
<g id="edge13" class="edge">
<title>5&#45;&gt;11</title>
<path fill="none" stroke="green" stroke-width="0.8" d="M362.57,-217.92C362.57,-198.73 362.57,-150.92 362.57,-120.09"/>
<polygon fill="green" stroke="green" stroke-width="0.8" points="366.07,-119.96 362.57,-109.96 359.07,-119.96 366.07,-119.96"/>
</g>
<!-- 5&#45;&gt;16 -->
<g id="edge14" class="edge">
<title>5&#45;&gt;16</title>
<path fill="none" stroke="green" stroke-width="0.8" d="M351.89,-224.82C305.13,-218.24 120.49,-191.74 112.57,-182.31 72.35,-134.39 145.07,-67.26 184.56,-36.27"/>
<polygon fill="green" stroke="green" stroke-width="0.8" points="187.08,-38.75 192.89,-29.89 182.82,-33.2 187.08,-38.75"/>
</g>
<!-- 5&#45;&gt;17 -->
<g id="edge15" class="edge">
<title>5&#45;&gt;17</title>
<path fill="none" stroke="green" stroke-width="0.8" d="M373.18,-225.91C432.29,-223.59 719.08,-210.9 744.57,-182.31 769.51,-154.33 721.73,-80.58 714.57,-72.77 693.94,-50.26 661.64,-35.69 638.71,-27.55"/>
<polygon fill="green" stroke="green" stroke-width="0.8" points="639.81,-24.23 629.22,-24.36 637.58,-30.86 639.81,-24.23"/>
</g>
<!-- 5&#45;&gt;19 -->
<g id="edge16" class="edge">
<title>5&#45;&gt;19</title>
<path fill="none" stroke="green" stroke-width="0.8" d="M366.7,-217.92C376.43,-198.14 401.1,-147.99 416.18,-117.33"/>
<polygon fill="green" stroke="green" stroke-width="0.8" points="419.44,-118.64 420.71,-108.12 413.16,-115.55 419.44,-118.64"/>
</g>
<!-- 5&#45;&gt;13 -->
<g id="edge38" class="edge">
<title>5&#45;&gt;13</title>
<path fill="none" stroke="green" stroke-width="0.8" d="M352.04,-224.77C302.32,-217.52 92.85,-186.8 79.57,-182.31 76.96,-181.43 74.32,-180.34 71.73,-179.15"/>
<polygon fill="green" stroke="green" stroke-width="0.8" points="73.2,-175.98 62.71,-174.53 70.01,-182.21 73.2,-175.98"/>
</g>
<!-- 6 -->
<g id="node6" class="node">
<title>6</title>
<polygon fill="lightgray" stroke="black" points="689.07,-236.31 668.07,-236.31 668.07,-218.31 689.07,-218.31 689.07,-236.31"/>
<text text-anchor="middle" x="678.57" y="-225.11" font-family="Times,serif" font-size="9.00">6</text>
</g>
<!-- 6&#45;&gt;11 -->
<g id="edge17" class="edge">
<title>6&#45;&gt;11</title>
<path fill="none" stroke="green" stroke-width="0.8" d="M668.04,-226.1C635.6,-225.05 535,-218.86 462.57,-182.31 429.22,-165.48 398.55,-134.54 380.2,-113.65"/>
<polygon fill="green" stroke="green" stroke-width="0.8" points="382.73,-111.24 373.56,-105.93 377.42,-115.79 382.73,-111.24"/>
</g>
<!-- 6&#45;&gt;16 -->
<g id="edge18" class="edge">
<title>6&#45;&gt;16</title>
<path fill="none" stroke="green" stroke-width="0.8" d="M689.22,-222.85C704.69,-217.18 732.81,-204.29 744.57,-182.31 770.27,-134.28 736.93,-99.69 689.57,-72.77 611.33,-28.29 327.56,-20.87 236.16,-19.63"/>
<polygon fill="green" stroke="green" stroke-width="0.8" points="236.03,-16.13 225.99,-19.51 235.95,-23.13 236.03,-16.13"/>
</g>
<!-- 6&#45;&gt;17 -->
<g id="edge19" class="edge">
<title>6&#45;&gt;17</title>
<path fill="none" stroke="green" stroke-width="0.8" d="M689.21,-224.87C721.39,-220.3 816.72,-205.04 836.57,-182.31 868.73,-145.49 877.07,-110.97 846.57,-72.77 821.01,-40.75 696.98,-26.47 640.14,-21.54"/>
<polygon fill="green" stroke="green" stroke-width="0.8" points="640.28,-18.04 630.03,-20.7 639.7,-25.01 640.28,-18.04"/>
</g>
<!-- 18 -->
<g id="node19" class="node">
<title>18</title>
<ellipse fill="white" stroke="black" cx="522.57" cy="-163.92" rx="18.27" ry="18.27"/>
<text text-anchor="middle" x="522.57" y="-161.72" font-family="Times,serif" font-size="9.00">18</text>
</g>
<!-- 6&#45;&gt;18 -->
<g id="edge53" class="edge">
<title>6&#45;&gt;18</title>
<path fill="none" stroke="green" stroke-width="0.8" d="M667.86,-223.61C645.31,-217.72 591.54,-202.6 549.57,-182.31 548.41,-181.75 547.24,-181.15 546.08,-180.52"/>
<polygon fill="green" stroke="green" stroke-width="0.8" points="547.72,-177.42 537.33,-175.34 544.15,-183.45 547.72,-177.42"/>
</g>
<!-- 7 -->
<g id="node7" class="node">
<title>7</title>
<polygon fill="lightgray" stroke="black" points="718.07,-172.92 697.07,-172.92 697.07,-154.92 718.07,-154.92 718.07,-172.92"/>
<text text-anchor="middle" x="707.57" y="-161.72" font-family="Times,serif" font-size="9.00">7</text>
</g>
<!-- 7&#45;&gt;11 -->
<g id="edge20" class="edge">
<title>7&#45;&gt;11</title>
<path fill="none" stroke="green" stroke-width="0.8" d="M700.17,-154.61C696.69,-151.23 692.27,-147.64 687.57,-145.54 570.61,-93.25 524.96,-143.99 401.57,-109.54 397.03,-108.27 392.34,-106.56 387.85,-104.71"/>
<polygon fill="green" stroke="green" stroke-width="0.8" points="389.05,-101.41 378.49,-100.53 386.2,-107.8 389.05,-101.41"/>
</g>
<!-- 7&#45;&gt;16 -->
<g id="edge21" class="edge">
<title>7&#45;&gt;16</title>
<path fill="none" stroke="green" stroke-width="0.8" d="M706.07,-154.75C702.27,-136.58 690.41,-92.84 661.57,-72.77 592.32,-24.57 324.9,-19.61 236.28,-19.31"/>
<polygon fill="green" stroke="green" stroke-width="0.8" points="236.16,-15.81 226.15,-19.3 236.15,-22.81 236.16,-15.81"/>
</g>
<!-- 7&#45;&gt;17 -->
<g id="edge22" class="edge">
<title>7&#45;&gt;17</title>
<path fill="none" stroke="green" stroke-width="0.8" d="M708.52,-154.69C710.05,-137.84 711.33,-98.84 694.57,-72.77 681.32,-52.15 656.96,-37.9 638.04,-29.35"/>
<polygon fill="green" stroke="green" stroke-width="0.8" points="639.31,-26.08 628.73,-25.39 636.57,-32.52 639.31,-26.08"/>
</g>
<!-- 7&#45;&gt;19 -->
<g id="edge23" class="edge">
<title>7&#45;&gt;19</title>
<path fill="none" stroke="green" stroke-width="0.8" d="M700.09,-154.78C696.59,-151.44 692.19,-147.82 687.57,-145.54 610.29,-107.31 507.01,-96.44 457.47,-93.36"/>
<polygon fill="green" stroke="green" stroke-width="0.8" points="457.36,-89.85 447.18,-92.79 456.97,-96.84 457.36,-89.85"/>
</g>
<!-- 7&#45;&gt;15 -->
<g id="edge55" class="edge">
<title>7&#45;&gt;15</title>
<path fill="none" stroke="green" stroke-width="0.8" d="M699.2,-154.81C688.42,-144.36 669.33,-125.86 654.69,-111.66"/>
<polygon fill="green" stroke="green" stroke-width="0.8" points="657.12,-109.14 647.5,-104.69 652.25,-114.17 657.12,-109.14"/>
</g>
<!-- 8 -->
<g id="node8" class="node">
<title>8</title>
<polygon fill="lightgray" stroke="black" points="182.07,-172.92 161.07,-172.92 161.07,-154.92 182.07,-154.92 182.07,-172.92"/>
<text text-anchor="middle" x="171.57" y="-161.72" font-family="Times,serif" font-size="9.00">8</text>
</g>
<!-- 8&#45;&gt;11 -->
<g id="edge24" class="edge">
<title>8&#45;&gt;11</title>
<path fill="none" stroke="green" stroke-width="0.8" d="M181.81,-154.67C186.16,-151.47 191.41,-147.99 196.57,-145.54 248.78,-120.7 267.08,-128.86 321.57,-109.54 326.54,-107.78 331.78,-105.72 336.78,-103.65"/>
<polygon fill="green" stroke="green" stroke-width="0.8" points="338.17,-106.86 345.99,-99.72 335.42,-100.42 338.17,-106.86"/>
</g>
<!-- 8&#45;&gt;16 -->
<g id="edge25" class="edge">
<title>8&#45;&gt;16</title>
<path fill="none" stroke="green" stroke-width="0.8" d="M173.61,-154.8C178.74,-134.35 192.35,-80.06 200.7,-46.76"/>
<polygon fill="green" stroke="green" stroke-width="0.8" points="204.17,-47.31 203.21,-36.76 197.38,-45.61 204.17,-47.31"/>
</g>
<!-- 8&#45;&gt;17 -->
<g id="edge26" class="edge">
<title>8&#45;&gt;17</title>
<path fill="none" stroke="green" stroke-width="0.8" d="M177.3,-154.72C179.85,-151.53 183.07,-148.05 186.57,-145.54 221.26,-120.69 237.47,-128.75 275.57,-109.54 303.5,-95.46 306.42,-84.09 335.57,-72.77 422,-39.2 532.16,-26.06 583.22,-21.51"/>
<polygon fill="green" stroke="green" stroke-width="0.8" points="583.52,-24.99 593.19,-20.66 582.93,-18.02 583.52,-24.99"/>
</g>
<!-- 8&#45;&gt;19 -->
<g id="edge27" class="edge">
<title>8&#45;&gt;19</title>
<path fill="none" stroke="green" stroke-width="0.8" d="M182.24,-159.84C194.74,-156.25 216.09,-150.23 234.57,-145.54 303.12,-128.13 322.52,-132.04 389.57,-109.54 394.04,-108.04 398.69,-106.21 403.17,-104.31"/>
<polygon fill="green" stroke="green" stroke-width="0.8" points="404.82,-107.41 412.53,-100.14 401.97,-101.01 404.82,-107.41"/>
</g>
<!-- 9 -->
<g id="node9" class="node">
<title>9</title>
<polygon fill="lightgray" stroke="black" points="624.07,-172.92 603.07,-172.92 603.07,-154.92 624.07,-154.92 624.07,-172.92"/>
<text text-anchor="middle" x="613.57" y="-161.72" font-family="Times,serif" font-size="9.00">9</text>
</g>
<!-- 9&#45;&gt;11 -->
<g id="edge28" class="edge">
<title>9&#45;&gt;11</title>
<path fill="none" stroke="green" stroke-width="0.8" d="M606.11,-154.74C602.62,-151.39 598.21,-147.78 593.57,-145.54 515.41,-107.74 484.45,-135.39 401.57,-109.54 397.07,-108.14 392.4,-106.36 387.92,-104.47"/>
<polygon fill="green" stroke="green" stroke-width="0.8" points="389.12,-101.18 378.56,-100.3 386.27,-107.57 389.12,-101.18"/>
</g>
<!-- 9&#45;&gt;16 -->
<g id="edge29" class="edge">
<title>9&#45;&gt;16</title>
<path fill="none" stroke="green" stroke-width="0.8" d="M606.13,-154.82C589.05,-136.8 544.95,-93.34 498.57,-72.77 408.52,-32.82 290.07,-22.77 236.31,-20.24"/>
<polygon fill="green" stroke="green" stroke-width="0.8" points="236.29,-16.73 226.16,-19.81 236,-23.73 236.29,-16.73"/>
</g>
<!-- 9&#45;&gt;17 -->
<g id="edge30" class="edge">
<title>9&#45;&gt;17</title>
<path fill="none" stroke="green" stroke-width="0.8" d="M612.35,-154.63C610.87,-144.15 608.47,-125.56 607.57,-109.54 606.4,-88.58 607.55,-64.87 608.91,-47.03"/>
<polygon fill="green" stroke="green" stroke-width="0.8" points="612.4,-47.27 609.74,-37.01 605.43,-46.69 612.4,-47.27"/>
</g>
<!-- 9&#45;&gt;19 -->
<g id="edge31" class="edge">
<title>9&#45;&gt;19</title>
<path fill="none" stroke="green" stroke-width="0.8" d="M605.58,-154.66C602.13,-151.46 597.9,-147.98 593.57,-145.54 549.1,-120.42 491.11,-105.15 457.05,-97.7"/>
<polygon fill="green" stroke="green" stroke-width="0.8" points="457.39,-94.2 446.88,-95.56 455.94,-101.05 457.39,-94.2"/>
</g>
<!-- 9&#45;&gt;15 -->
<g id="edge49" class="edge">
<title>9&#45;&gt;15</title>
<path fill="none" stroke="green" stroke-width="0.8" d="M615.98,-154.81C618.58,-146.04 622.86,-131.61 626.66,-118.8"/>
<polygon fill="green" stroke="green" stroke-width="0.8" points="630.07,-119.61 629.56,-109.02 623.36,-117.62 630.07,-119.61"/>
</g>
<!-- 10 -->
<g id="node10" class="node">
<title>10</title>
<polygon fill="lightgray" stroke="black" points="584.57,-172.92 558.57,-172.92 558.57,-154.92 584.57,-154.92 584.57,-172.92"/>
<text text-anchor="middle" x="571.57" y="-161.72" font-family="Times,serif" font-size="9.00">10</text>
</g>
<!-- 10&#45;&gt;11 -->
<g id="edge32" class="edge">
<title>10&#45;&gt;11</title>
<path fill="none" stroke="green" stroke-width="0.8" d="M563.17,-154.88C559.29,-151.55 554.47,-147.93 549.57,-145.54 488.72,-115.87 465.64,-131.41 401.57,-109.54 397.19,-108.04 392.63,-106.24 388.23,-104.38"/>
<polygon fill="green" stroke="green" stroke-width="0.8" points="389.57,-101.14 379.01,-100.27 386.72,-107.54 389.57,-101.14"/>
</g>
<!-- 10&#45;&gt;16 -->
<g id="edge33" class="edge">
<title>10&#45;&gt;16</title>
<path fill="none" stroke="green" stroke-width="0.8" d="M563.72,-154.69C546.16,-136.78 501.59,-94.18 455.57,-72.77 381.11,-38.13 283.54,-25.63 236.03,-21.39"/>
<polygon fill="green" stroke="green" stroke-width="0.8" points="236.13,-17.89 225.88,-20.55 235.55,-24.87 236.13,-17.89"/>
</g>
<!-- 10&#45;&gt;17 -->
<g id="edge34" class="edge">
<title>10&#45;&gt;17</title>
<path fill="none" stroke="green" stroke-width="0.8" d="M573.84,-154.8C579.56,-134.25 594.82,-79.49 604.09,-46.24"/>
<polygon fill="green" stroke="green" stroke-width="0.8" points="607.55,-46.85 606.86,-36.27 600.81,-44.97 607.55,-46.85"/>
</g>
<!-- 10&#45;&gt;19 -->
<g id="edge35" class="edge">
<title>10&#45;&gt;19</title>
<path fill="none" stroke="green" stroke-width="0.8" d="M562.57,-154.86C558.74,-151.69 554.12,-148.18 549.57,-145.54 512.68,-124.1 499.16,-127.75 460.57,-109.54 458.22,-108.43 455.8,-107.23 453.39,-105.99"/>
<polygon fill="green" stroke="green" stroke-width="0.8" points="454.81,-102.78 444.34,-101.18 451.53,-108.97 454.81,-102.78"/>
</g>
<!-- 12&#45;&gt;16 -->
<g id="edge42" class="edge">
<title>12&#45;&gt;16</title>
<path fill="none" stroke="green" stroke-width="0.8" d="M63.35,-81.16C68.47,-78.36 74.21,-75.34 79.57,-72.77 113.89,-56.34 154.61,-39.85 180.76,-29.64"/>
<polygon fill="green" stroke="green" stroke-width="0.8" points="182.29,-32.8 190.35,-25.92 179.76,-26.27 182.29,-32.8"/>
</g>
<!-- 13&#45;&gt;11 -->
<g id="edge39" class="edge">
<title>13&#45;&gt;11</title>
<path fill="none" stroke="green" stroke-width="0.8" d="M65.16,-157.96C78.21,-154.34 96.44,-149.42 112.57,-145.54 192.84,-126.25 288.45,-106.81 334.73,-97.62"/>
<polygon fill="green" stroke="green" stroke-width="0.8" points="335.48,-101.04 344.61,-95.66 334.12,-94.17 335.48,-101.04"/>
</g>
<!-- 13&#45;&gt;16 -->
<g id="edge45" class="edge">
<title>13&#45;&gt;16</title>
<path fill="none" stroke="green" stroke-width="0.8" d="M36.47,-149.06C22.73,-130.12 3.15,-95.86 20.57,-72.77 39.76,-47.34 132.29,-30.39 179.59,-23.24"/>
<polygon fill="green" stroke="green" stroke-width="0.8" points="180.11,-26.7 189.5,-21.78 179.09,-19.77 180.11,-26.7"/>
</g>
<!-- 13&#45;&gt;17 -->
<g id="edge37" class="edge">
<title>13&#45;&gt;17</title>
<path fill="none" stroke="green" stroke-width="0.8" d="M61.57,-151.82C87.13,-132.22 143.75,-91.75 198.57,-72.77 336.7,-24.93 514.25,-19.36 582.8,-19.13"/>
<polygon fill="green" stroke="green" stroke-width="0.8" points="582.84,-22.63 592.84,-19.13 582.85,-15.63 582.84,-22.63"/>
</g>
<!-- 13&#45;&gt;12 -->
<g id="edge44" class="edge">
<title>13&#45;&gt;12</title>
<path fill="none" stroke="green" stroke-width="0.8" d="M47.57,-145.43C47.57,-137.75 47.57,-128.54 47.57,-119.95"/>
<polygon fill="green" stroke="green" stroke-width="0.8" points="51.07,-119.94 47.57,-109.94 44.07,-119.94 51.07,-119.94"/>
</g>
<!-- 14&#45;&gt;19 -->
<g id="edge51" class="edge">
<title>14&#45;&gt;19</title>
<path fill="none" stroke="green" stroke-width="0.8" d="M645.91,-152.29C642.03,-149.82 637.76,-147.38 633.57,-145.54 573.28,-119.09 497.08,-103.53 456.69,-96.56"/>
<polygon fill="green" stroke="green" stroke-width="0.8" points="457.2,-93.1 446.75,-94.9 456.04,-100 457.2,-93.1"/>
</g>
<!-- 14&#45;&gt;15 -->
<g id="edge52" class="edge">
<title>14&#45;&gt;15</title>
<path fill="none" stroke="green" stroke-width="0.8" d="M654.54,-146.51C651.5,-138.23 647.74,-127.99 644.3,-118.64"/>
<polygon fill="green" stroke="green" stroke-width="0.8" points="647.48,-117.15 640.75,-108.97 640.91,-119.56 647.48,-117.15"/>
</g>
<!-- 15&#45;&gt;17 -->
<g id="edge47" class="edge">
<title>15&#45;&gt;17</title>
<path fill="none" stroke="green" stroke-width="0.8" d="M629.12,-73.38C626.43,-65.1 623.12,-54.91 620.1,-45.62"/>
<polygon fill="green" stroke="green" stroke-width="0.8" points="623.4,-44.46 616.98,-36.04 616.74,-46.63 623.4,-44.46"/>
</g>
<!-- 18&#45;&gt;19 -->
<g id="edge54" class="edge">
<title>18&#45;&gt;19</title>
<path fill="none" stroke="green" stroke-width="0.8" d="M508.29,-152.18C493.11,-140.74 468.88,-122.5 451.12,-109.13"/>
<polygon fill="green" stroke="green" stroke-width="0.8" points="453.07,-106.22 442.98,-103 448.86,-111.81 453.07,-106.22"/>
</g>
</g>
</svg>
