<?xml version="1.0" encoding="UTF-8" standalone="no"?>
<!DOCTYPE svg PUBLIC "-//W3C//DTD SVG 1.1//EN"
 "http://www.w3.org/Graphics/SVG/1.1/DTD/svg11.dtd">
<!-- Generated by graphviz version 3.0.0 (20220226.1711)
 -->
<!-- Pages: 1 -->
<svg width="856pt" height="244pt"
 viewBox="0.00 0.00 856.42 244.31" xmlns="http://www.w3.org/2000/svg" xmlns:xlink="http://www.w3.org/1999/xlink">
<g id="graph0" class="graph" transform="scale(1 1) rotate(0) translate(4 240.31)">
<polygon fill="white" stroke="transparent" points="-4,4 -4,-240.31 852.42,-240.31 852.42,4 -4,4"/>
<!-- 1 -->
<g id="node1" class="node">
<title>1</title>
<polygon fill="lightgray" stroke="black" points="542.6,-172.92 521.6,-172.92 521.6,-154.92 542.6,-154.92 542.6,-172.92"/>
<text text-anchor="middle" x="532.1" y="-161.72" font-family="Times,serif" font-size="9.00">1</text>
</g>
<!-- 17 -->
<g id="node11" class="node">
<title>17</title>
<ellipse fill="lightblue" stroke="black" cx="409.1" cy="-91.15" rx="18.27" ry="18.27"/>
<text text-anchor="middle" x="409.1" y="-88.95" font-family="Times,serif" font-size="9.00">17</text>
</g>
<!-- 1&#45;&gt;17 -->
<g id="edge1" class="edge">
<title>1&#45;&gt;17</title>
<path fill="none" stroke="green" stroke-width="0.8" d="M521.56,-155.22C517.16,-152.1 511.96,-148.54 507.1,-145.54 483.01,-130.67 454.5,-115.38 434.46,-105"/>
<polygon fill="green" stroke="green" stroke-width="0.8" points="435.85,-101.78 425.36,-100.32 432.65,-108.01 435.85,-101.78"/>
</g>
<!-- 15 -->
<g id="node12" class="node">
<title>15</title>
<ellipse fill="lightblue" stroke="black" cx="471.1" cy="-18.38" rx="18.27" ry="18.27"/>
<text text-anchor="middle" x="471.1" y="-16.18" font-family="Times,serif" font-size="9.00">15</text>
</g>
<!-- 1&#45;&gt;15 -->
<g id="edge2" class="edge">
<title>1&#45;&gt;15</title>
<path fill="none" stroke="green" stroke-width="0.8" d="M525.1,-154.79C516.82,-144.77 503.14,-126.94 495.1,-109.54 485.78,-89.38 479.56,-64.96 475.79,-46.62"/>
<polygon fill="green" stroke="green" stroke-width="0.8" points="479.19,-45.76 473.85,-36.6 472.31,-47.09 479.19,-45.76"/>
</g>
<!-- 18 -->
<g id="node13" class="node">
<title>18</title>
<ellipse fill="lightblue" stroke="black" cx="202.1" cy="-91.15" rx="18.27" ry="18.27"/>
<text text-anchor="middle" x="202.1" y="-88.95" font-family="Times,serif" font-size="9.00">18</text>
</g>
<!-- 1&#45;&gt;18 -->
<g id="edge3" class="edge">
<title>1&#45;&gt;18</title>
<path fill="none" stroke="green" stroke-width="0.8" d="M521.49,-160.65C476.36,-150.97 299.43,-113.03 230.14,-98.17"/>
<polygon fill="green" stroke="green" stroke-width="0.8" points="230.49,-94.66 219.98,-95.99 229.02,-101.51 230.49,-94.66"/>
</g>
<!-- 16 -->
<g id="node14" class="node">
<title>16</title>
<ellipse fill="lightblue" stroke="black" cx="610.1" cy="-91.15" rx="18.27" ry="18.27"/>
<text text-anchor="middle" x="610.1" y="-88.95" font-family="Times,serif" font-size="9.00">16</text>
</g>
<!-- 1&#45;&gt;16 -->
<g id="edge4" class="edge">
<title>1&#45;&gt;16</title>
<path fill="none" stroke="green" stroke-width="0.8" d="M541.05,-154.81C552.7,-144.23 573.44,-125.42 589.15,-111.16"/>
<polygon fill="green" stroke="green" stroke-width="0.8" points="591.79,-113.49 596.84,-104.18 587.08,-108.31 591.79,-113.49"/>
</g>
<!-- 12 -->
<g id="node16" class="node">
<title>12</title>
<ellipse fill="white" stroke="black" cx="555.1" cy="-91.15" rx="18.27" ry="18.27"/>
<text text-anchor="middle" x="555.1" y="-88.95" font-family="Times,serif" font-size="9.00">12</text>
</g>
<!-- 1&#45;&gt;12 -->
<g id="edge41" class="edge">
<title>1&#45;&gt;12</title>
<path fill="none" stroke="green" stroke-width="0.8" d="M534.74,-154.81C537.6,-145.98 542.34,-131.42 546.52,-118.55"/>
<polygon fill="green" stroke="green" stroke-width="0.8" points="549.94,-119.33 549.71,-108.74 543.29,-117.17 549.94,-119.33"/>
</g>
<!-- 2 -->
<g id="node2" class="node">
<title>2</title>
<polygon fill="lightgray" stroke="black" points="51.6,-236.31 30.6,-236.31 30.6,-218.31 51.6,-218.31 51.6,-236.31"/>
<text text-anchor="middle" x="41.1" y="-225.11" font-family="Times,serif" font-size="9.00">2</text>
</g>
<!-- 2&#45;&gt;17 -->
<g id="edge5" class="edge">
<title>2&#45;&gt;17</title>
<path fill="none" stroke="green" stroke-width="0.8" d="M51.82,-226.58C88.98,-227.09 215.03,-225.38 306.1,-182.31 340.58,-166 372.31,-134.71 391.18,-113.63"/>
<polygon fill="green" stroke="green" stroke-width="0.8" points="393.82,-115.93 397.77,-106.1 388.55,-111.32 393.82,-115.93"/>
</g>
<!-- 2&#45;&gt;15 -->
<g id="edge6" class="edge">
<title>2&#45;&gt;15</title>
<path fill="none" stroke="green" stroke-width="0.8" d="M31.01,-218.11C22,-210.08 9.43,-196.94 4.1,-182.31 -1.5,-166.96 -1.1,-161.03 4.1,-145.54 16.99,-107.1 24.04,-93.13 59.1,-72.77 124.61,-34.72 360.03,-23.17 442.39,-20.25"/>
<polygon fill="green" stroke="green" stroke-width="0.8" points="442.66,-23.74 452.53,-19.91 442.42,-16.75 442.66,-23.74"/>
</g>
<!-- 2&#45;&gt;18 -->
<g id="edge7" class="edge">
<title>2&#45;&gt;18</title>
<path fill="none" stroke="green" stroke-width="0.8" d="M33.67,-217.94C20.73,-202.3 -3.02,-168.19 14.1,-145.54 33.4,-119.99 126.42,-103.1 173.97,-95.98"/>
<polygon fill="green" stroke="green" stroke-width="0.8" points="174.54,-99.44 183.93,-94.54 173.53,-92.51 174.54,-99.44"/>
</g>
<!-- 2&#45;&gt;16 -->
<g id="edge8" class="edge">
<title>2&#45;&gt;16</title>
<path fill="none" stroke="green" stroke-width="0.8" d="M51.92,-225.91C130.41,-223.01 609.61,-204.39 630.1,-182.31 646.76,-164.35 636.41,-135.71 625.35,-115.54"/>
<polygon fill="green" stroke="green" stroke-width="0.8" points="628.23,-113.53 620.15,-106.67 622.19,-117.07 628.23,-113.53"/>
</g>
<!-- 13 -->
<g id="node17" class="node">
<title>13</title>
<ellipse fill="white" stroke="black" cx="41.1" cy="-163.92" rx="18.27" ry="18.27"/>
<text text-anchor="middle" x="41.1" y="-161.72" font-family="Times,serif" font-size="9.00">13</text>
</g>
<!-- 2&#45;&gt;13 -->
<g id="edge50" class="edge">
<title>2&#45;&gt;13</title>
<path fill="none" stroke="green" stroke-width="0.8" d="M41.1,-218.28C41.1,-211.72 41.1,-202.03 41.1,-192.7"/>
<polygon fill="green" stroke="green" stroke-width="0.8" points="44.6,-192.51 41.1,-182.51 37.6,-192.51 44.6,-192.51"/>
</g>
<!-- 3 -->
<g id="node3" class="node">
<title>3</title>
<polygon fill="lightgray" stroke="black" points="296.6,-172.92 275.6,-172.92 275.6,-154.92 296.6,-154.92 296.6,-172.92"/>
<text text-anchor="middle" x="286.1" y="-161.72" font-family="Times,serif" font-size="9.00">3</text>
</g>
<!-- 3&#45;&gt;17 -->
<g id="edge9" class="edge">
<title>3&#45;&gt;17</title>
<path fill="none" stroke="green" stroke-width="0.8" d="M296.63,-155.22C301.03,-152.1 306.24,-148.54 311.1,-145.54 335.18,-130.67 363.69,-115.38 383.74,-105"/>
<polygon fill="green" stroke="green" stroke-width="0.8" points="385.54,-108.01 392.84,-100.32 382.34,-101.78 385.54,-108.01"/>
</g>
<!-- 3&#45;&gt;15 -->
<g id="edge10" class="edge">
<title>3&#45;&gt;15</title>
<path fill="none" stroke="green" stroke-width="0.8" d="M293.55,-154.84C309.07,-138.28 346.35,-99.79 382.1,-72.77 402.54,-57.32 427.74,-42.56 446.09,-32.49"/>
<polygon fill="green" stroke="green" stroke-width="0.8" points="447.88,-35.51 455.01,-27.68 444.55,-29.35 447.88,-35.51"/>
</g>
<!-- 3&#45;&gt;18 -->
<g id="edge11" class="edge">
<title>3&#45;&gt;18</title>
<path fill="none" stroke="green" stroke-width="0.8" d="M276.77,-154.75C273.42,-151.83 269.6,-148.52 266.1,-145.54 252.13,-133.65 236.31,-120.45 223.89,-110.15"/>
<polygon fill="green" stroke="green" stroke-width="0.8" points="225.83,-107.21 215.9,-103.53 221.37,-112.6 225.83,-107.21"/>
</g>
<!-- 3&#45;&gt;16 -->
<g id="edge12" class="edge">
<title>3&#45;&gt;16</title>
<path fill="none" stroke="green" stroke-width="0.8" d="M296.75,-160.99C314.47,-157.78 351.09,-151.14 382.1,-145.54 470.98,-129.49 497.79,-141.94 582.1,-109.54 583.53,-108.99 584.98,-108.36 586.41,-107.68"/>
<polygon fill="green" stroke="green" stroke-width="0.8" points="588.47,-110.54 595.53,-102.64 585.09,-104.41 588.47,-110.54"/>
</g>
<!-- 4 -->
<g id="node4" class="node">
<title>4</title>
<polygon fill="lightgray" stroke="black" points="620.6,-172.92 599.6,-172.92 599.6,-154.92 620.6,-154.92 620.6,-172.92"/>
<text text-anchor="middle" x="610.1" y="-161.72" font-family="Times,serif" font-size="9.00">4</text>
</g>
<!-- 4&#45;&gt;17 -->
<g id="edge13" class="edge">
<title>4&#45;&gt;17</title>
<path fill="none" stroke="green" stroke-width="0.8" d="M602.61,-154.59C599.34,-151.37 595.3,-147.91 591.1,-145.54 540.97,-117.29 474.47,-102.73 437.31,-96.34"/>
<polygon fill="green" stroke="green" stroke-width="0.8" points="437.64,-92.84 427.21,-94.68 436.51,-99.75 437.64,-92.84"/>
</g>
<!-- 4&#45;&gt;15 -->
<g id="edge14" class="edge">
<title>4&#45;&gt;15</title>
<path fill="none" stroke="green" stroke-width="0.8" d="M616.76,-154.91C629.85,-138.15 656.06,-98.78 637.1,-72.77 605.48,-29.39 538.01,-20.49 499.54,-19.12"/>
<polygon fill="green" stroke="green" stroke-width="0.8" points="499.58,-15.62 489.5,-18.91 499.43,-22.62 499.58,-15.62"/>
</g>
<!-- 4&#45;&gt;18 -->
<g id="edge15" class="edge">
<title>4&#45;&gt;18</title>
<path fill="none" stroke="green" stroke-width="0.8" d="M603.13,-154.63C599.83,-151.26 595.63,-147.67 591.1,-145.54 558.51,-130.25 314.84,-103.84 230.63,-95.08"/>
<polygon fill="green" stroke="green" stroke-width="0.8" points="230.81,-91.58 220.5,-94.03 230.09,-98.54 230.81,-91.58"/>
</g>
<!-- 4&#45;&gt;16 -->
<g id="edge16" class="edge">
<title>4&#45;&gt;16</title>
<path fill="none" stroke="green" stroke-width="0.8" d="M610.1,-154.81C610.1,-146.24 610.1,-132.26 610.1,-119.68"/>
<polygon fill="green" stroke="green" stroke-width="0.8" points="613.6,-119.59 610.1,-109.59 606.6,-119.59 613.6,-119.59"/>
</g>
<!-- 4&#45;&gt;12 -->
<g id="edge52" class="edge">
<title>4&#45;&gt;12</title>
<path fill="none" stroke="green" stroke-width="0.8" d="M603.79,-154.81C596.17,-145 583.05,-128.12 572.35,-114.35"/>
<polygon fill="green" stroke="green" stroke-width="0.8" points="574.96,-112.01 566.06,-106.27 569.44,-116.31 574.96,-112.01"/>
</g>
<!-- 5 -->
<g id="node5" class="node">
<title>5</title>
<polygon fill="lightgray" stroke="black" points="781.6,-236.31 760.6,-236.31 760.6,-218.31 781.6,-218.31 781.6,-236.31"/>
<text text-anchor="middle" x="771.1" y="-225.11" font-family="Times,serif" font-size="9.00">5</text>
</g>
<!-- 5&#45;&gt;17 -->
<g id="edge17" class="edge">
<title>5&#45;&gt;17</title>
<path fill="none" stroke="green" stroke-width="0.8" d="M760.42,-226.5C723.93,-226.73 601.63,-224.15 513.1,-182.31 478.43,-165.92 446.35,-134.64 427.24,-113.59"/>
<polygon fill="green" stroke="green" stroke-width="0.8" points="429.83,-111.23 420.58,-106.08 424.6,-115.88 429.83,-111.23"/>
</g>
<!-- 5&#45;&gt;15 -->
<g id="edge18" class="edge">
<title>5&#45;&gt;15</title>
<path fill="none" stroke="green" stroke-width="0.8" d="M781.64,-222.99C797.28,-217.43 826.07,-204.6 838.1,-182.31 862.78,-136.56 839.7,-102.55 797.1,-72.77 749.13,-39.24 570.46,-25.24 499.97,-20.94"/>
<polygon fill="green" stroke="green" stroke-width="0.8" points="499.8,-17.43 489.62,-20.34 499.39,-24.42 499.8,-17.43"/>
</g>
<!-- 5&#45;&gt;18 -->
<g id="edge19" class="edge">
<title>5&#45;&gt;18</title>
<path fill="none" stroke="green" stroke-width="0.8" d="M760.29,-225.91C681.94,-223 203.55,-204.35 183.1,-182.31 166.57,-164.49 176.35,-136.07 187.04,-115.9"/>
<polygon fill="green" stroke="green" stroke-width="0.8" points="190.19,-117.44 192.08,-107.02 184.1,-113.99 190.19,-117.44"/>
</g>
<!-- 5&#45;&gt;16 -->
<g id="edge20" class="edge">
<title>5&#45;&gt;16</title>
<path fill="none" stroke="green" stroke-width="0.8" d="M781.66,-219.74C792.63,-212.24 809.15,-198.83 816.1,-182.31 822.44,-167.25 826.1,-158.46 816.1,-145.54 794.41,-117.51 689.53,-101.51 638.33,-95.25"/>
<polygon fill="green" stroke="green" stroke-width="0.8" points="638.61,-91.76 628.27,-94.06 637.79,-98.71 638.61,-91.76"/>
</g>
<!-- 14 -->
<g id="node18" class="node">
<title>14</title>
<ellipse fill="white" stroke="black" cx="771.1" cy="-163.92" rx="18.27" ry="18.27"/>
<text text-anchor="middle" x="771.1" y="-161.72" font-family="Times,serif" font-size="9.00">14</text>
</g>
<!-- 5&#45;&gt;14 -->
<g id="edge49" class="edge">
<title>5&#45;&gt;14</title>
<path fill="none" stroke="green" stroke-width="0.8" d="M771.1,-218.28C771.1,-211.72 771.1,-202.03 771.1,-192.7"/>
<polygon fill="green" stroke="green" stroke-width="0.8" points="774.6,-192.51 771.1,-182.51 767.6,-192.51 774.6,-192.51"/>
</g>
<!-- 6 -->
<g id="node6" class="node">
<title>6</title>
<polygon fill="lightgray" stroke="black" points="212.6,-172.92 191.6,-172.92 191.6,-154.92 212.6,-154.92 212.6,-172.92"/>
<text text-anchor="middle" x="202.1" y="-161.72" font-family="Times,serif" font-size="9.00">6</text>
</g>
<!-- 6&#45;&gt;17 -->
<g id="edge21" class="edge">
<title>6&#45;&gt;17</title>
<path fill="none" stroke="green" stroke-width="0.8" d="M210.04,-154.59C213.49,-151.37 217.73,-147.91 222.1,-145.54 274.1,-117.34 342.51,-102.74 380.51,-96.33"/>
<polygon fill="green" stroke="green" stroke-width="0.8" points="381.52,-99.71 390.84,-94.66 380.41,-92.8 381.52,-99.71"/>
</g>
<!-- 6&#45;&gt;15 -->
<g id="edge22" class="edge">
<title>6&#45;&gt;15</title>
<path fill="none" stroke="green" stroke-width="0.8" d="M207.52,-154.83C219.75,-137.21 251.32,-95.14 288.1,-72.77 337.64,-42.64 405.09,-28.75 442.72,-22.98"/>
<polygon fill="green" stroke="green" stroke-width="0.8" points="443.56,-26.39 452.95,-21.5 442.55,-19.47 443.56,-26.39"/>
</g>
<!-- 6&#45;&gt;18 -->
<g id="edge23" class="edge">
<title>6&#45;&gt;18</title>
<path fill="none" stroke="green" stroke-width="0.8" d="M202.1,-154.81C202.1,-146.24 202.1,-132.26 202.1,-119.68"/>
<polygon fill="green" stroke="green" stroke-width="0.8" points="205.6,-119.59 202.1,-109.59 198.6,-119.59 205.6,-119.59"/>
</g>
<!-- 6&#45;&gt;16 -->
<g id="edge24" class="edge">
<title>6&#45;&gt;16</title>
<path fill="none" stroke="green" stroke-width="0.8" d="M209.1,-154.91C212.63,-151.42 217.2,-147.65 222.1,-145.54 369.72,-81.8 429.85,-161.29 582.1,-109.54 583.55,-109.04 585.01,-108.46 586.46,-107.82"/>
<polygon fill="green" stroke="green" stroke-width="0.8" points="588.48,-110.7 595.62,-102.88 585.15,-104.54 588.48,-110.7"/>
</g>
<!-- 7 -->
<g id="node7" class="node">
<title>7</title>
<polygon fill="lightgray" stroke="black" points="399.6,-236.31 378.6,-236.31 378.6,-218.31 399.6,-218.31 399.6,-236.31"/>
<text text-anchor="middle" x="389.1" y="-225.11" font-family="Times,serif" font-size="9.00">7</text>
</g>
<!-- 7&#45;&gt;17 -->
<g id="edge25" class="edge">
<title>7&#45;&gt;17</title>
<path fill="none" stroke="green" stroke-width="0.8" d="M386.7,-218.16C382.75,-203.44 375.89,-171.55 382.1,-145.54 384.57,-135.19 389.38,-124.58 394.27,-115.57"/>
<polygon fill="green" stroke="green" stroke-width="0.8" points="397.34,-117.25 399.3,-106.84 391.27,-113.76 397.34,-117.25"/>
</g>
<!-- 7&#45;&gt;15 -->
<g id="edge26" class="edge">
<title>7&#45;&gt;15</title>
<path fill="none" stroke="green" stroke-width="0.8" d="M378.3,-225.88C319.43,-223.43 39.04,-210.35 14.1,-182.31 3.24,-170.1 5.24,-159.27 14.1,-145.54 61.97,-71.37 350.48,-32.92 442.75,-22.41"/>
<polygon fill="green" stroke="green" stroke-width="0.8" points="443.21,-25.88 452.75,-21.29 442.43,-18.92 443.21,-25.88"/>
</g>
<!-- 7&#45;&gt;18 -->
<g id="edge27" class="edge">
<title>7&#45;&gt;18</title>
<path fill="none" stroke="green" stroke-width="0.8" d="M378.51,-226.37C332,-226.39 146.56,-223.83 111.1,-182.31 100.48,-169.88 102.98,-159.72 111.1,-145.54 124.61,-121.94 153.07,-107.76 174.58,-100.01"/>
<polygon fill="green" stroke="green" stroke-width="0.8" points="175.82,-103.28 184.19,-96.8 173.6,-96.64 175.82,-103.28"/>
</g>
<!-- 7&#45;&gt;16 -->
<g id="edge28" class="edge">
<title>7&#45;&gt;16</title>
<path fill="none" stroke="green" stroke-width="0.8" d="M399.86,-224.47C448.68,-216.15 647.1,-182.31 647.1,-182.31 664.38,-161.83 646.12,-132.19 629.68,-112.55"/>
<polygon fill="green" stroke="green" stroke-width="0.8" points="632.09,-110 622.85,-104.81 626.84,-114.62 632.09,-110"/>
</g>
<!-- 7&#45;&gt;12 -->
<g id="edge45" class="edge">
<title>7&#45;&gt;12</title>
<path fill="none" stroke="green" stroke-width="0.8" d="M399.67,-224.47C445.92,-216.43 628.2,-184.59 630.1,-182.31 640.56,-169.76 637.59,-160.06 630.1,-145.54 627.21,-139.95 599.49,-121.03 578.58,-107.3"/>
<polygon fill="green" stroke="green" stroke-width="0.8" points="580.42,-104.32 570.13,-101.79 576.6,-110.18 580.42,-104.32"/>
</g>
<!-- 7&#45;&gt;14 -->
<g id="edge43" class="edge">
<title>7&#45;&gt;14</title>
<path fill="none" stroke="green" stroke-width="0.8" d="M399.9,-224.31C409.41,-222.59 423.65,-220.11 436.1,-218.31 570.32,-198.92 609.86,-223.42 739.1,-182.31 741.72,-181.48 744.37,-180.42 746.97,-179.25"/>
<polygon fill="green" stroke="green" stroke-width="0.8" points="748.68,-182.31 756,-174.65 745.5,-176.07 748.68,-182.31"/>
</g>
<!-- 8 -->
<g id="node8" class="node">
<title>8</title>
<polygon fill="lightgray" stroke="black" points="465.6,-236.31 444.6,-236.31 444.6,-218.31 465.6,-218.31 465.6,-236.31"/>
<text text-anchor="middle" x="455.1" y="-225.11" font-family="Times,serif" font-size="9.00">8</text>
</g>
<!-- 8&#45;&gt;17 -->
<g id="edge29" class="edge">
<title>8&#45;&gt;17</title>
<path fill="none" stroke="green" stroke-width="0.8" d="M453.83,-218.1C451.4,-203.29 445.47,-171.25 436.1,-145.54 432.54,-135.79 427.65,-125.53 423.01,-116.63"/>
<polygon fill="green" stroke="green" stroke-width="0.8" points="425.97,-114.74 418.14,-107.6 419.81,-118.06 425.97,-114.74"/>
</g>
<!-- 8&#45;&gt;15 -->
<g id="edge30" class="edge">
<title>8&#45;&gt;15</title>
<path fill="none" stroke="green" stroke-width="0.8" d="M465.87,-225.83C523.35,-223.16 792.19,-209.31 816.1,-182.31 911.33,-74.76 597.62,-32.51 499.49,-22.1"/>
<polygon fill="green" stroke="green" stroke-width="0.8" points="499.7,-18.61 489.4,-21.06 498.99,-25.57 499.7,-18.61"/>
</g>
<!-- 8&#45;&gt;18 -->
<g id="edge31" class="edge">
<title>8&#45;&gt;18</title>
<path fill="none" stroke="green" stroke-width="0.8" d="M444.52,-224.36C435.21,-222.67 421.27,-220.21 409.1,-218.31 351.47,-209.31 187.41,-226.29 149.1,-182.31 129.24,-159.51 157.65,-128.22 179.93,-109.13"/>
<polygon fill="green" stroke="green" stroke-width="0.8" points="182.26,-111.75 187.76,-102.69 177.82,-106.34 182.26,-111.75"/>
</g>
<!-- 8&#45;&gt;16 -->
<g id="edge32" class="edge">
<title>8&#45;&gt;16</title>
<path fill="none" stroke="green" stroke-width="0.8" d="M465.7,-225.77C521.08,-222.83 775.49,-208 798.1,-182.31 846.24,-127.59 702.35,-103.18 638.72,-95.24"/>
<polygon fill="green" stroke="green" stroke-width="0.8" points="638.88,-91.74 628.54,-94.03 638.05,-98.69 638.88,-91.74"/>
</g>
<!-- 11 -->
<g id="node15" class="node">
<title>11</title>
<ellipse fill="white" stroke="black" cx="409.1" cy="-163.92" rx="18.27" ry="18.27"/>
<text text-anchor="middle" x="409.1" y="-161.72" font-family="Times,serif" font-size="9.00">11</text>
</g>
<!-- 8&#45;&gt;11 -->
<g id="edge46" class="edge">
<title>8&#45;&gt;11</title>
<path fill="none" stroke="green" stroke-width="0.8" d="M449.08,-218.28C443.24,-210.49 434.1,-198.28 426.03,-187.51"/>
<polygon fill="green" stroke="green" stroke-width="0.8" points="428.67,-185.2 419.87,-179.3 423.06,-189.4 428.67,-185.2"/>
</g>
<!-- 9 -->
<g id="node9" class="node">
<title>9</title>
<polygon fill="lightgray" stroke="black" points="581.6,-172.92 560.6,-172.92 560.6,-154.92 581.6,-154.92 581.6,-172.92"/>
<text text-anchor="middle" x="571.1" y="-161.72" font-family="Times,serif" font-size="9.00">9</text>
</g>
<!-- 9&#45;&gt;17 -->
<g id="edge33" class="edge">
<title>9&#45;&gt;17</title>
<path fill="none" stroke="green" stroke-width="0.8" d="M563.52,-154.74C560.24,-151.55 556.22,-148.06 552.1,-145.54 514.89,-122.77 466.42,-107.21 436.54,-99"/>
<polygon fill="green" stroke="green" stroke-width="0.8" points="437.36,-95.6 426.8,-96.41 435.56,-102.37 437.36,-95.6"/>
</g>
<!-- 9&#45;&gt;15 -->
<g id="edge34" class="edge">
<title>9&#45;&gt;15</title>
<path fill="none" stroke="green" stroke-width="0.8" d="M564.09,-154.83C555.32,-144.56 540.01,-126.19 528.1,-109.54 512.52,-87.76 496.36,-61.83 485.24,-43.38"/>
<polygon fill="green" stroke="green" stroke-width="0.8" points="488.2,-41.51 480.06,-34.73 482.19,-45.1 488.2,-41.51"/>
</g>
<!-- 9&#45;&gt;18 -->
<g id="edge35" class="edge">
<title>9&#45;&gt;18</title>
<path fill="none" stroke="green" stroke-width="0.8" d="M564.11,-154.66C560.82,-151.3 556.62,-147.7 552.1,-145.54 495.14,-118.29 304.17,-100.39 230.98,-94.39"/>
<polygon fill="green" stroke="green" stroke-width="0.8" points="230.93,-90.87 220.68,-93.56 230.36,-97.85 230.93,-90.87"/>
</g>
<!-- 9&#45;&gt;16 -->
<g id="edge36" class="edge">
<title>9&#45;&gt;16</title>
<path fill="none" stroke="green" stroke-width="0.8" d="M575.57,-154.81C580.71,-145.48 589.38,-129.76 596.74,-116.39"/>
<polygon fill="green" stroke="green" stroke-width="0.8" points="599.81,-118.07 601.57,-107.62 593.68,-114.69 599.81,-118.07"/>
</g>
<!-- 9&#45;&gt;12 -->
<g id="edge48" class="edge">
<title>9&#45;&gt;12</title>
<path fill="none" stroke="green" stroke-width="0.8" d="M569.26,-154.81C567.31,-146.18 564.12,-132.08 561.27,-119.43"/>
<polygon fill="green" stroke="green" stroke-width="0.8" points="564.6,-118.29 558.98,-109.31 557.77,-119.83 564.6,-118.29"/>
</g>
<!-- 10 -->
<g id="node10" class="node">
<title>10</title>
<polygon fill="lightgray" stroke="black" points="257.1,-172.92 231.1,-172.92 231.1,-154.92 257.1,-154.92 257.1,-172.92"/>
<text text-anchor="middle" x="244.1" y="-161.72" font-family="Times,serif" font-size="9.00">10</text>
</g>
<!-- 10&#45;&gt;17 -->
<g id="edge37" class="edge">
<title>10&#45;&gt;17</title>
<path fill="none" stroke="green" stroke-width="0.8" d="M253.52,-154.83C257.53,-151.65 262.36,-148.15 267.1,-145.54 304.7,-124.83 351.98,-108.85 381.37,-99.97"/>
<polygon fill="green" stroke="green" stroke-width="0.8" points="382.74,-103.22 391.34,-97.03 380.76,-96.51 382.74,-103.22"/>
</g>
<!-- 10&#45;&gt;15 -->
<g id="edge38" class="edge">
<title>10&#45;&gt;15</title>
<path fill="none" stroke="green" stroke-width="0.8" d="M250.41,-154.85C264.24,-137.63 298.96,-96.88 336.1,-72.77 370.36,-50.52 415.36,-35.04 443.76,-26.68"/>
<polygon fill="green" stroke="green" stroke-width="0.8" points="444.77,-30.04 453.42,-23.93 442.85,-23.3 444.77,-30.04"/>
</g>
<!-- 10&#45;&gt;18 -->
<g id="edge39" class="edge">
<title>10&#45;&gt;18</title>
<path fill="none" stroke="green" stroke-width="0.8" d="M239.28,-154.81C233.71,-145.43 224.3,-129.56 216.33,-116.14"/>
<polygon fill="green" stroke="green" stroke-width="0.8" points="219.23,-114.16 211.12,-107.35 213.21,-117.74 219.23,-114.16"/>
</g>
<!-- 10&#45;&gt;16 -->
<g id="edge40" class="edge">
<title>10&#45;&gt;16</title>
<path fill="none" stroke="green" stroke-width="0.8" d="M252.8,-154.59C256.84,-151.21 261.89,-147.62 267.1,-145.54 397.93,-93.2 449.01,-155.83 582.1,-109.54 583.55,-109.03 585.01,-108.44 586.45,-107.79"/>
<polygon fill="green" stroke="green" stroke-width="0.8" points="588.48,-110.67 595.6,-102.83 585.14,-104.52 588.48,-110.67"/>
</g>
<!-- 11&#45;&gt;17 -->
<g id="edge47" class="edge">
<title>11&#45;&gt;17</title>
<path fill="none" stroke="green" stroke-width="0.8" d="M409.1,-145.43C409.1,-137.75 409.1,-128.54 409.1,-119.95"/>
<polygon fill="green" stroke="green" stroke-width="0.8" points="412.6,-119.94 409.1,-109.94 405.6,-119.94 412.6,-119.94"/>
</g>
<!-- 12&#45;&gt;15 -->
<g id="edge42" class="edge">
<title>12&#45;&gt;15</title>
<path fill="none" stroke="green" stroke-width="0.8" d="M541.23,-78.47C528.02,-67.34 507.93,-50.42 492.64,-37.53"/>
<polygon fill="green" stroke="green" stroke-width="0.8" points="494.61,-34.62 484.71,-30.85 490.1,-39.97 494.61,-34.62"/>
</g>
<!-- 13&#45;&gt;18 -->
<g id="edge51" class="edge">
<title>13&#45;&gt;18</title>
<path fill="none" stroke="green" stroke-width="0.8" d="M56.88,-153.92C61.99,-151.12 67.73,-148.1 73.1,-145.54 107.86,-128.96 149.17,-112.39 175.51,-102.21"/>
<polygon fill="green" stroke="green" stroke-width="0.8" points="177.07,-105.36 185.15,-98.51 174.56,-98.83 177.07,-105.36"/>
</g>
<!-- 14&#45;&gt;16 -->
<g id="edge44" class="edge">
<title>14&#45;&gt;16</title>
<path fill="none" stroke="green" stroke-width="0.8" d="M755.32,-153.92C750.2,-151.12 744.46,-148.1 739.1,-145.54 704.33,-128.96 663.02,-112.39 636.69,-102.21"/>
<polygon fill="green" stroke="green" stroke-width="0.8" points="637.63,-98.83 627.04,-98.51 635.13,-105.36 637.63,-98.83"/>
</g>
</g>
</svg>
