<?xml version="1.0" encoding="UTF-8" standalone="no"?>
<!DOCTYPE svg PUBLIC "-//W3C//DTD SVG 1.1//EN"
 "http://www.w3.org/Graphics/SVG/1.1/DTD/svg11.dtd">
<!-- Generated by graphviz version 3.0.0 (20220226.1711)
 -->
<!-- Pages: 1 -->
<svg width="1956pt" height="172pt"
 viewBox="0.00 0.00 1955.68 171.54" xmlns="http://www.w3.org/2000/svg" xmlns:xlink="http://www.w3.org/1999/xlink">
<g id="graph0" class="graph" transform="scale(1 1) rotate(0) translate(4 167.54)">
<polygon fill="white" stroke="transparent" points="-4,4 -4,-167.54 1951.68,-167.54 1951.68,4 -4,4"/>
<!-- 1 -->
<g id="node1" class="node">
<title>1</title>
<polygon fill="lightgray" stroke="black" points="728.8,-100.15 707.8,-100.15 707.8,-82.15 728.8,-82.15 728.8,-100.15"/>
<text text-anchor="middle" x="718.3" y="-88.95" font-family="Times,serif" font-size="9.00">1</text>
</g>
<!-- 19 -->
<g id="node19" class="node">
<title>19</title>
<ellipse fill="lightblue" stroke="black" cx="867.3" cy="-18.38" rx="18.27" ry="18.27"/>
<text text-anchor="middle" x="867.3" y="-16.18" font-family="Times,serif" font-size="9.00">19</text>
</g>
<!-- 1&#45;&gt;19 -->
<g id="edge1" class="edge">
<title>1&#45;&gt;19</title>
<path fill="none" stroke="green" stroke-width="0.8" d="M726.32,-81.96C729.78,-78.76 734.01,-75.28 738.3,-72.77 779.44,-48.72 796.37,-57.46 839.3,-36.77 840.68,-36.1 842.09,-35.38 843.49,-34.63"/>
<polygon fill="green" stroke="green" stroke-width="0.8" points="845.64,-37.43 852.52,-29.38 842.12,-31.38 845.64,-37.43"/>
</g>
<!-- 20 -->
<g id="node20" class="node">
<title>20</title>
<ellipse fill="lightblue" stroke="black" cx="1026.3" cy="-18.38" rx="18.27" ry="18.27"/>
<text text-anchor="middle" x="1026.3" y="-16.18" font-family="Times,serif" font-size="9.00">20</text>
</g>
<!-- 1&#45;&gt;20 -->
<g id="edge2" class="edge">
<title>1&#45;&gt;20</title>
<path fill="none" stroke="green" stroke-width="0.8" d="M725.76,-81.97C729.25,-78.62 733.66,-75.01 738.3,-72.77 784.19,-50.63 934.73,-30.44 997.95,-22.71"/>
<polygon fill="green" stroke="green" stroke-width="0.8" points="998.49,-26.17 1008,-21.5 997.66,-19.22 998.49,-26.17"/>
</g>
<!-- 27 -->
<g id="node21" class="node">
<title>27</title>
<ellipse fill="lightblue" stroke="black" cx="812.3" cy="-18.38" rx="18.27" ry="18.27"/>
<text text-anchor="middle" x="812.3" y="-16.18" font-family="Times,serif" font-size="9.00">27</text>
</g>
<!-- 1&#45;&gt;27 -->
<g id="edge3" class="edge">
<title>1&#45;&gt;27</title>
<path fill="none" stroke="green" stroke-width="0.8" d="M727.51,-81.84C730.85,-78.91 734.69,-75.63 738.3,-72.77 754.85,-59.65 774.23,-45.72 789.01,-35.37"/>
<polygon fill="green" stroke="green" stroke-width="0.8" points="791.34,-38.02 797.55,-29.44 787.34,-32.27 791.34,-38.02"/>
</g>
<!-- 25 -->
<g id="node22" class="node">
<title>25</title>
<ellipse fill="lightblue" stroke="black" cx="757.3" cy="-18.38" rx="18.27" ry="18.27"/>
<text text-anchor="middle" x="757.3" y="-16.18" font-family="Times,serif" font-size="9.00">25</text>
</g>
<!-- 1&#45;&gt;25 -->
<g id="edge4" class="edge">
<title>1&#45;&gt;25</title>
<path fill="none" stroke="green" stroke-width="0.8" d="M722.77,-82.04C727.91,-72.71 736.58,-56.99 743.94,-43.62"/>
<polygon fill="green" stroke="green" stroke-width="0.8" points="747.01,-45.3 748.77,-34.86 740.88,-41.92 747.01,-45.3"/>
</g>
<!-- 28 -->
<g id="node23" class="node">
<title>28</title>
<ellipse fill="lightblue" stroke="black" cx="1136.3" cy="-18.38" rx="18.27" ry="18.27"/>
<text text-anchor="middle" x="1136.3" y="-16.18" font-family="Times,serif" font-size="9.00">28</text>
</g>
<!-- 1&#45;&gt;28 -->
<g id="edge5" class="edge">
<title>1&#45;&gt;28</title>
<path fill="none" stroke="green" stroke-width="0.8" d="M725.3,-82.14C728.83,-78.65 733.4,-74.88 738.3,-72.77 890.07,-7.48 951.8,-89.73 1108.3,-36.77 1109.76,-36.28 1111.22,-35.7 1112.66,-35.05"/>
<polygon fill="green" stroke="green" stroke-width="0.8" points="1114.68,-37.94 1121.82,-30.12 1111.36,-31.78 1114.68,-37.94"/>
</g>
<!-- 24 -->
<g id="node24" class="node">
<title>24</title>
<ellipse fill="lightblue" stroke="black" cx="1081.3" cy="-18.38" rx="18.27" ry="18.27"/>
<text text-anchor="middle" x="1081.3" y="-16.18" font-family="Times,serif" font-size="9.00">24</text>
</g>
<!-- 1&#45;&gt;24 -->
<g id="edge6" class="edge">
<title>1&#45;&gt;24</title>
<path fill="none" stroke="green" stroke-width="0.8" d="M725.69,-81.81C729.17,-78.43 733.58,-74.85 738.3,-72.77 867.27,-16 920.21,-83.06 1053.3,-36.77 1054.75,-36.26 1056.21,-35.67 1057.65,-35.02"/>
<polygon fill="green" stroke="green" stroke-width="0.8" points="1059.68,-37.9 1066.8,-30.06 1056.34,-31.75 1059.68,-37.9"/>
</g>
<!-- 2 -->
<g id="node2" class="node">
<title>2</title>
<polygon fill="lightgray" stroke="black" points="458.8,-163.54 437.8,-163.54 437.8,-145.54 458.8,-145.54 458.8,-163.54"/>
<text text-anchor="middle" x="448.3" y="-152.34" font-family="Times,serif" font-size="9.00">2</text>
</g>
<!-- 2&#45;&gt;19 -->
<g id="edge7" class="edge">
<title>2&#45;&gt;19</title>
<path fill="none" stroke="green" stroke-width="0.8" d="M451.82,-145.37C459.6,-128.47 479.95,-89.85 510.3,-72.77 638.49,-0.63 700.25,-84.76 839.3,-36.77 840.75,-36.27 842.21,-35.68 843.65,-35.03"/>
<polygon fill="green" stroke="green" stroke-width="0.8" points="845.68,-37.91 852.81,-30.08 842.35,-31.76 845.68,-37.91"/>
</g>
<!-- 2&#45;&gt;20 -->
<g id="edge8" class="edge">
<title>2&#45;&gt;20</title>
<path fill="none" stroke="green" stroke-width="0.8" d="M459.1,-148.46C462.02,-147.3 465.23,-146.21 468.3,-145.54 548.08,-128.14 1145.99,-168.67 1202.3,-109.54 1213.57,-97.7 1212.4,-85.62 1202.3,-72.77 1160.47,-19.54 1116.73,-62.95 1054.3,-36.77 1052.88,-36.17 1051.45,-35.51 1050.03,-34.81"/>
<polygon fill="green" stroke="green" stroke-width="0.8" points="1051.37,-31.54 1040.94,-29.68 1047.93,-37.64 1051.37,-31.54"/>
</g>
<!-- 2&#45;&gt;25 -->
<g id="edge9" class="edge">
<title>2&#45;&gt;25</title>
<path fill="none" stroke="green" stroke-width="0.8" d="M437.38,-153.3C372.37,-151.79 38.05,-142.41 8.3,-109.54 -2.67,-97.42 -2.84,-84.73 8.3,-72.77 58.2,-19.18 597.47,-18.54 728.66,-19.18"/>
<polygon fill="green" stroke="green" stroke-width="0.8" points="728.71,-22.68 738.73,-19.24 728.75,-15.68 728.71,-22.68"/>
</g>
<!-- 2&#45;&gt;28 -->
<g id="edge10" class="edge">
<title>2&#45;&gt;28</title>
<path fill="none" stroke="green" stroke-width="0.8" d="M459.09,-148.46C462.02,-147.3 465.23,-146.21 468.3,-145.54 551.89,-127.4 1178.25,-171.42 1237.3,-109.54 1248.58,-97.72 1245.73,-86.77 1237.3,-72.77 1221.54,-46.61 1188.19,-32.6 1164.12,-25.6"/>
<polygon fill="green" stroke="green" stroke-width="0.8" points="1165.01,-22.21 1154.45,-23.01 1163.2,-28.97 1165.01,-22.21"/>
</g>
<!-- 2&#45;&gt;24 -->
<g id="edge11" class="edge">
<title>2&#45;&gt;24</title>
<path fill="none" stroke="green" stroke-width="0.8" d="M459.1,-148.46C462.02,-147.3 465.23,-146.21 468.3,-145.54 550.04,-127.76 1162.58,-170.09 1220.3,-109.54 1231.58,-97.71 1229.91,-85.99 1220.3,-72.77 1189.8,-30.82 1156.34,-58.61 1109.3,-36.77 1107.9,-36.12 1106.49,-35.42 1105.09,-34.68"/>
<polygon fill="green" stroke="green" stroke-width="0.8" points="1106.45,-31.42 1096.04,-29.46 1102.95,-37.49 1106.45,-31.42"/>
</g>
<!-- 21 -->
<g id="node25" class="node">
<title>21</title>
<ellipse fill="white" stroke="black" cx="215.3" cy="-91.15" rx="18.27" ry="18.27"/>
<text text-anchor="middle" x="215.3" y="-88.95" font-family="Times,serif" font-size="9.00">21</text>
</g>
<!-- 2&#45;&gt;21 -->
<g id="edge113" class="edge">
<title>2&#45;&gt;21</title>
<path fill="none" stroke="green" stroke-width="0.8" d="M437.54,-152.27C406.96,-148.44 317.26,-135.6 247.3,-109.54 244.72,-108.58 242.1,-107.44 239.51,-106.22"/>
<polygon fill="green" stroke="green" stroke-width="0.8" points="241,-103.05 230.51,-101.56 237.78,-109.26 241,-103.05"/>
</g>
<!-- 22 -->
<g id="node26" class="node">
<title>22</title>
<ellipse fill="white" stroke="black" cx="47.3" cy="-91.15" rx="18.27" ry="18.27"/>
<text text-anchor="middle" x="47.3" y="-88.95" font-family="Times,serif" font-size="9.00">22</text>
</g>
<!-- 2&#45;&gt;22 -->
<g id="edge115" class="edge">
<title>2&#45;&gt;22</title>
<path fill="none" stroke="green" stroke-width="0.8" d="M437.72,-153.72C393.04,-154.17 215.78,-152.98 79.3,-109.54 76.68,-108.7 74.02,-107.65 71.42,-106.48"/>
<polygon fill="green" stroke="green" stroke-width="0.8" points="72.9,-103.3 62.4,-101.88 69.72,-109.54 72.9,-103.3"/>
</g>
<!-- 3 -->
<g id="node3" class="node">
<title>3</title>
<polygon fill="lightgray" stroke="black" points="767.8,-100.15 746.8,-100.15 746.8,-82.15 767.8,-82.15 767.8,-100.15"/>
<text text-anchor="middle" x="757.3" y="-88.95" font-family="Times,serif" font-size="9.00">3</text>
</g>
<!-- 3&#45;&gt;19 -->
<g id="edge12" class="edge">
<title>3&#45;&gt;19</title>
<path fill="none" stroke="green" stroke-width="0.8" d="M765.96,-81.99C769.38,-78.94 773.41,-75.55 777.3,-72.77 803.22,-54.23 811.98,-53.18 839.3,-36.77 840.59,-36 841.9,-35.2 843.23,-34.39"/>
<polygon fill="green" stroke="green" stroke-width="0.8" points="845.26,-37.25 851.94,-29.03 841.59,-31.29 845.26,-37.25"/>
</g>
<!-- 3&#45;&gt;20 -->
<g id="edge13" class="edge">
<title>3&#45;&gt;20</title>
<path fill="none" stroke="green" stroke-width="0.8" d="M764.79,-82.03C768.29,-78.69 772.69,-75.07 777.3,-72.77 816.03,-53.42 941.27,-32.43 997.96,-23.63"/>
<polygon fill="green" stroke="green" stroke-width="0.8" points="998.67,-27.06 1008.02,-22.09 997.61,-20.15 998.67,-27.06"/>
</g>
<!-- 3&#45;&gt;27 -->
<g id="edge14" class="edge">
<title>3&#45;&gt;27</title>
<path fill="none" stroke="green" stroke-width="0.8" d="M763.61,-82.04C771.23,-72.23 784.35,-55.35 795.05,-41.58"/>
<polygon fill="green" stroke="green" stroke-width="0.8" points="797.96,-43.54 801.33,-33.5 792.43,-39.24 797.96,-43.54"/>
</g>
<!-- 3&#45;&gt;25 -->
<g id="edge15" class="edge">
<title>3&#45;&gt;25</title>
<path fill="none" stroke="green" stroke-width="0.8" d="M757.3,-82.04C757.3,-73.47 757.3,-59.49 757.3,-46.91"/>
<polygon fill="green" stroke="green" stroke-width="0.8" points="760.8,-46.82 757.3,-36.82 753.8,-46.82 760.8,-46.82"/>
</g>
<!-- 3&#45;&gt;28 -->
<g id="edge16" class="edge">
<title>3&#45;&gt;28</title>
<path fill="none" stroke="green" stroke-width="0.8" d="M764.68,-81.8C768.16,-78.42 772.58,-74.83 777.3,-72.77 912.9,-13.52 968.4,-85 1108.3,-36.77 1109.75,-36.27 1111.21,-35.68 1112.65,-35.03"/>
<polygon fill="green" stroke="green" stroke-width="0.8" points="1114.68,-37.91 1121.81,-30.08 1111.35,-31.76 1114.68,-37.91"/>
</g>
<!-- 3&#45;&gt;24 -->
<g id="edge17" class="edge">
<title>3&#45;&gt;24</title>
<path fill="none" stroke="green" stroke-width="0.8" d="M764.7,-81.85C768.18,-78.47 772.6,-74.88 777.3,-72.77 890.12,-22.03 936.79,-78.33 1053.3,-36.77 1054.75,-36.25 1056.2,-35.65 1057.64,-34.99"/>
<polygon fill="green" stroke="green" stroke-width="0.8" points="1059.68,-37.87 1066.79,-30.01 1056.33,-31.72 1059.68,-37.87"/>
</g>
<!-- 4 -->
<g id="node4" class="node">
<title>4</title>
<polygon fill="lightgray" stroke="black" points="806.8,-100.15 785.8,-100.15 785.8,-82.15 806.8,-82.15 806.8,-100.15"/>
<text text-anchor="middle" x="796.3" y="-88.95" font-family="Times,serif" font-size="9.00">4</text>
</g>
<!-- 4&#45;&gt;19 -->
<g id="edge18" class="edge">
<title>4&#45;&gt;19</title>
<path fill="none" stroke="green" stroke-width="0.8" d="M804.44,-82.04C814.83,-71.68 833.15,-53.42 847.34,-39.28"/>
<polygon fill="green" stroke="green" stroke-width="0.8" points="850.11,-41.46 854.72,-31.92 845.17,-36.5 850.11,-41.46"/>
</g>
<!-- 4&#45;&gt;20 -->
<g id="edge19" class="edge">
<title>4&#45;&gt;20</title>
<path fill="none" stroke="green" stroke-width="0.8" d="M803.83,-82.11C807.34,-78.79 811.73,-75.16 816.3,-72.77 876.39,-41.31 956.01,-27.69 997.84,-22.38"/>
<polygon fill="green" stroke="green" stroke-width="0.8" points="998.35,-25.84 1007.86,-21.17 997.52,-18.89 998.35,-25.84"/>
</g>
<!-- 4&#45;&gt;27 -->
<g id="edge20" class="edge">
<title>4&#45;&gt;27</title>
<path fill="none" stroke="green" stroke-width="0.8" d="M798.13,-82.04C800.08,-73.41 803.27,-59.31 806.13,-46.66"/>
<polygon fill="green" stroke="green" stroke-width="0.8" points="809.63,-47.06 808.42,-36.54 802.8,-45.52 809.63,-47.06"/>
</g>
<!-- 4&#45;&gt;25 -->
<g id="edge21" class="edge">
<title>4&#45;&gt;25</title>
<path fill="none" stroke="green" stroke-width="0.8" d="M791.83,-82.04C786.69,-72.71 778.02,-56.99 770.66,-43.62"/>
<polygon fill="green" stroke="green" stroke-width="0.8" points="773.72,-41.92 765.82,-34.86 767.59,-45.3 773.72,-41.92"/>
</g>
<!-- 4&#45;&gt;28 -->
<g id="edge22" class="edge">
<title>4&#45;&gt;28</title>
<path fill="none" stroke="green" stroke-width="0.8" d="M803.7,-81.83C807.18,-78.46 811.59,-74.87 816.3,-72.77 935.74,-19.56 984.99,-80.27 1108.3,-36.77 1109.75,-36.26 1111.2,-35.66 1112.65,-35.01"/>
<polygon fill="green" stroke="green" stroke-width="0.8" points="1114.68,-37.88 1121.8,-30.04 1111.34,-31.73 1114.68,-37.88"/>
</g>
<!-- 4&#45;&gt;24 -->
<g id="edge23" class="edge">
<title>4&#45;&gt;24</title>
<path fill="none" stroke="green" stroke-width="0.8" d="M803.73,-81.89C807.21,-78.53 811.62,-74.93 816.3,-72.77 913,-28.05 953.33,-73.62 1053.3,-36.77 1054.74,-36.24 1056.19,-35.63 1057.63,-34.96"/>
<polygon fill="green" stroke="green" stroke-width="0.8" points="1059.68,-37.83 1066.76,-29.95 1056.31,-31.69 1059.68,-37.83"/>
</g>
<!-- 5 -->
<g id="node5" class="node">
<title>5</title>
<polygon fill="lightgray" stroke="black" points="845.8,-100.15 824.8,-100.15 824.8,-82.15 845.8,-82.15 845.8,-100.15"/>
<text text-anchor="middle" x="835.3" y="-88.95" font-family="Times,serif" font-size="9.00">5</text>
</g>
<!-- 5&#45;&gt;19 -->
<g id="edge24" class="edge">
<title>5&#45;&gt;19</title>
<path fill="none" stroke="green" stroke-width="0.8" d="M838.97,-82.04C843.05,-73.01 849.85,-57.98 855.76,-44.9"/>
<polygon fill="green" stroke="green" stroke-width="0.8" points="859.12,-45.96 860.05,-35.41 852.74,-43.08 859.12,-45.96"/>
</g>
<!-- 5&#45;&gt;20 -->
<g id="edge25" class="edge">
<title>5&#45;&gt;20</title>
<path fill="none" stroke="green" stroke-width="0.8" d="M843.27,-81.87C846.72,-78.66 850.96,-75.19 855.3,-72.77 902.06,-46.67 963.28,-31.53 998.35,-24.41"/>
<polygon fill="green" stroke="green" stroke-width="0.8" points="999.21,-27.81 1008.35,-22.46 997.87,-20.94 999.21,-27.81"/>
</g>
<!-- 5&#45;&gt;27 -->
<g id="edge26" class="edge">
<title>5&#45;&gt;27</title>
<path fill="none" stroke="green" stroke-width="0.8" d="M832.66,-82.04C829.79,-73.21 825.06,-58.65 820.88,-45.78"/>
<polygon fill="green" stroke="green" stroke-width="0.8" points="824.11,-44.4 817.69,-35.97 817.45,-46.56 824.11,-44.4"/>
</g>
<!-- 5&#45;&gt;25 -->
<g id="edge27" class="edge">
<title>5&#45;&gt;25</title>
<path fill="none" stroke="green" stroke-width="0.8" d="M826.42,-82.01C823.23,-79.09 819.61,-75.78 816.3,-72.77 803.8,-61.4 789.78,-48.71 778.54,-38.55"/>
<polygon fill="green" stroke="green" stroke-width="0.8" points="780.68,-35.77 770.91,-31.66 775.99,-40.96 780.68,-35.77"/>
</g>
<!-- 5&#45;&gt;28 -->
<g id="edge28" class="edge">
<title>5&#45;&gt;28</title>
<path fill="none" stroke="green" stroke-width="0.8" d="M842.72,-81.87C846.2,-78.51 850.61,-74.91 855.3,-72.77 958.61,-25.58 1001.55,-75.55 1108.3,-36.77 1109.74,-36.24 1111.2,-35.64 1112.63,-34.97"/>
<polygon fill="green" stroke="green" stroke-width="0.8" points="1114.68,-37.85 1121.77,-29.98 1111.32,-31.7 1114.68,-37.85"/>
</g>
<!-- 5&#45;&gt;24 -->
<g id="edge29" class="edge">
<title>5&#45;&gt;24</title>
<path fill="none" stroke="green" stroke-width="0.8" d="M842.76,-81.96C846.25,-78.61 850.65,-75 855.3,-72.77 935.93,-34.05 969.84,-68.93 1053.3,-36.77 1054.73,-36.22 1056.18,-35.59 1057.61,-34.91"/>
<polygon fill="green" stroke="green" stroke-width="0.8" points="1059.67,-37.76 1066.73,-29.86 1056.29,-31.64 1059.67,-37.76"/>
</g>
<!-- 6 -->
<g id="node6" class="node">
<title>6</title>
<polygon fill="lightgray" stroke="black" points="884.8,-100.15 863.8,-100.15 863.8,-82.15 884.8,-82.15 884.8,-100.15"/>
<text text-anchor="middle" x="874.3" y="-88.95" font-family="Times,serif" font-size="9.00">6</text>
</g>
<!-- 6&#45;&gt;19 -->
<g id="edge30" class="edge">
<title>6&#45;&gt;19</title>
<path fill="none" stroke="green" stroke-width="0.8" d="M873.5,-82.04C872.65,-73.47 871.27,-59.49 870.02,-46.91"/>
<polygon fill="green" stroke="green" stroke-width="0.8" points="873.49,-46.43 869.02,-36.82 866.53,-47.12 873.49,-46.43"/>
</g>
<!-- 6&#45;&gt;20 -->
<g id="edge31" class="edge">
<title>6&#45;&gt;20</title>
<path fill="none" stroke="green" stroke-width="0.8" d="M882.38,-82.05C885.84,-78.87 890.06,-75.37 894.3,-72.77 928.12,-52.03 971.42,-36.32 999.02,-27.47"/>
<polygon fill="green" stroke="green" stroke-width="0.8" points="1000.27,-30.75 1008.77,-24.42 998.18,-24.07 1000.27,-30.75"/>
</g>
<!-- 6&#45;&gt;27 -->
<g id="edge32" class="edge">
<title>6&#45;&gt;27</title>
<path fill="none" stroke="green" stroke-width="0.8" d="M867.19,-82.04C858.36,-71.96 842.97,-54.4 830.74,-40.43"/>
<polygon fill="green" stroke="green" stroke-width="0.8" points="833.19,-37.92 823.97,-32.7 827.92,-42.53 833.19,-37.92"/>
</g>
<!-- 6&#45;&gt;25 -->
<g id="edge33" class="edge">
<title>6&#45;&gt;25</title>
<path fill="none" stroke="green" stroke-width="0.8" d="M866.2,-81.86C862.97,-78.79 859.12,-75.43 855.3,-72.77 826.58,-52.78 815.74,-54.01 785.3,-36.77 783.99,-36.03 782.66,-35.26 781.32,-34.47"/>
<polygon fill="green" stroke="green" stroke-width="0.8" points="782.94,-31.36 772.57,-29.17 779.31,-37.35 782.94,-31.36"/>
</g>
<!-- 6&#45;&gt;28 -->
<g id="edge34" class="edge">
<title>6&#45;&gt;28</title>
<path fill="none" stroke="green" stroke-width="0.8" d="M881.74,-81.93C885.23,-78.57 889.64,-74.97 894.3,-72.77 981.51,-31.59 1018.07,-70.85 1108.3,-36.77 1109.74,-36.23 1111.18,-35.61 1112.62,-34.93"/>
<polygon fill="green" stroke="green" stroke-width="0.8" points="1114.68,-37.79 1121.75,-29.9 1111.3,-31.66 1114.68,-37.79"/>
</g>
<!-- 6&#45;&gt;24 -->
<g id="edge35" class="edge">
<title>6&#45;&gt;24</title>
<path fill="none" stroke="green" stroke-width="0.8" d="M881.8,-82.05C885.3,-78.72 889.7,-75.1 894.3,-72.77 958.93,-40.01 986.26,-64.26 1053.3,-36.77 1054.72,-36.19 1056.15,-35.53 1057.58,-34.83"/>
<polygon fill="green" stroke="green" stroke-width="0.8" points="1059.67,-37.67 1066.68,-29.73 1056.24,-31.57 1059.67,-37.67"/>
</g>
<!-- 7 -->
<g id="node7" class="node">
<title>7</title>
<polygon fill="lightgray" stroke="black" points="497.8,-163.54 476.8,-163.54 476.8,-145.54 497.8,-145.54 497.8,-163.54"/>
<text text-anchor="middle" x="487.3" y="-152.34" font-family="Times,serif" font-size="9.00">7</text>
</g>
<!-- 7&#45;&gt;19 -->
<g id="edge36" class="edge">
<title>7&#45;&gt;19</title>
<path fill="none" stroke="green" stroke-width="0.8" d="M491.42,-145.4C500.41,-128.56 523.58,-90.04 555.3,-72.77 667.04,-11.93 719.39,-79.3 839.3,-36.77 840.75,-36.26 842.2,-35.66 843.64,-35"/>
<polygon fill="green" stroke="green" stroke-width="0.8" points="845.68,-37.88 852.79,-30.03 842.33,-31.73 845.68,-37.88"/>
</g>
<!-- 7&#45;&gt;20 -->
<g id="edge37" class="edge">
<title>7&#45;&gt;20</title>
<path fill="none" stroke="green" stroke-width="0.8" d="M498.1,-148.47C501.02,-147.3 504.23,-146.21 507.3,-145.54 586.42,-128.26 1179.46,-168.2 1235.3,-109.54 1246.57,-97.7 1245.67,-85.4 1235.3,-72.77 1183.27,-9.37 1130.59,-66.89 1054.3,-36.77 1052.87,-36.2 1051.43,-35.57 1050,-34.88"/>
<polygon fill="green" stroke="green" stroke-width="0.8" points="1051.33,-31.61 1040.89,-29.81 1047.93,-37.73 1051.33,-31.61"/>
</g>
<!-- 7&#45;&gt;27 -->
<g id="edge38" class="edge">
<title>7&#45;&gt;27</title>
<path fill="none" stroke="green" stroke-width="0.8" d="M491.27,-145.47C499.95,-128.77 522.34,-90.5 553.3,-72.77 643.46,-21.13 686.88,-72.9 784.3,-36.77 785.74,-36.23 787.19,-35.62 788.63,-34.95"/>
<polygon fill="green" stroke="green" stroke-width="0.8" points="790.68,-37.82 797.76,-29.94 787.31,-31.68 790.68,-37.82"/>
</g>
<!-- 7&#45;&gt;25 -->
<g id="edge39" class="edge">
<title>7&#45;&gt;25</title>
<path fill="none" stroke="green" stroke-width="0.8" d="M476.65,-148.36C473.98,-147.25 471.08,-146.22 468.3,-145.54 419.78,-133.7 54.17,-146.24 20.3,-109.54 9.22,-97.53 9.17,-84.74 20.3,-72.77 69.28,-20.12 597.81,-18.74 728.3,-19.21"/>
<polygon fill="green" stroke="green" stroke-width="0.8" points="728.66,-22.72 738.68,-19.26 728.69,-15.72 728.66,-22.72"/>
</g>
<!-- 7&#45;&gt;28 -->
<g id="edge40" class="edge">
<title>7&#45;&gt;28</title>
<path fill="none" stroke="green" stroke-width="0.8" d="M498.09,-148.43C501.01,-147.26 504.22,-146.18 507.3,-145.54 569.65,-132.51 1608.97,-155.28 1653.3,-109.54 1664.67,-97.8 1664.25,-84.9 1653.3,-72.77 1620.35,-36.25 1268.5,-23.21 1164.87,-20.15"/>
<polygon fill="green" stroke="green" stroke-width="0.8" points="1164.92,-16.65 1154.82,-19.86 1164.72,-23.65 1164.92,-16.65"/>
</g>
<!-- 7&#45;&gt;24 -->
<g id="edge41" class="edge">
<title>7&#45;&gt;24</title>
<path fill="none" stroke="green" stroke-width="0.8" d="M498.09,-148.44C501.02,-147.28 504.23,-146.19 507.3,-145.54 557.22,-134.91 1389.92,-146.33 1425.3,-109.54 1436.63,-97.76 1436.18,-84.96 1425.3,-72.77 1378.24,-20.04 1176.06,-59.97 1109.3,-36.77 1107.85,-36.26 1106.39,-35.67 1104.95,-35.02"/>
<polygon fill="green" stroke="green" stroke-width="0.8" points="1106.25,-31.75 1095.79,-30.06 1102.92,-37.9 1106.25,-31.75"/>
</g>
<!-- 7&#45;&gt;22 -->
<g id="edge107" class="edge">
<title>7&#45;&gt;22</title>
<path fill="none" stroke="green" stroke-width="0.8" d="M476.64,-148.38C473.97,-147.28 471.08,-146.23 468.3,-145.54 299.87,-103.36 245.43,-160.02 79.3,-109.54 76.67,-108.74 74.01,-107.71 71.4,-106.55"/>
<polygon fill="green" stroke="green" stroke-width="0.8" points="72.87,-103.37 62.37,-101.97 69.7,-109.61 72.87,-103.37"/>
</g>
<!-- 8 -->
<g id="node8" class="node">
<title>8</title>
<polygon fill="lightgray" stroke="black" points="1002.8,-163.54 981.8,-163.54 981.8,-145.54 1002.8,-145.54 1002.8,-163.54"/>
<text text-anchor="middle" x="992.3" y="-152.34" font-family="Times,serif" font-size="9.00">8</text>
</g>
<!-- 8&#45;&gt;19 -->
<g id="edge42" class="edge">
<title>8&#45;&gt;19</title>
<path fill="none" stroke="green" stroke-width="0.8" d="M981.64,-153.88C930.14,-155.25 707.91,-158.27 665.3,-109.54 654.54,-97.24 654.98,-85.44 665.3,-72.77 715.16,-11.53 765.96,-66.05 839.3,-36.77 840.73,-36.2 842.16,-35.56 843.59,-34.86"/>
<polygon fill="green" stroke="green" stroke-width="0.8" points="845.67,-37.71 852.7,-29.79 842.26,-31.6 845.67,-37.71"/>
</g>
<!-- 8&#45;&gt;20 -->
<g id="edge43" class="edge">
<title>8&#45;&gt;20</title>
<path fill="none" stroke="green" stroke-width="0.8" d="M1002.95,-153.05C1059.8,-150.34 1325.67,-136.26 1349.3,-109.54 1360.13,-97.3 1360.13,-85 1349.3,-72.77 1305.52,-23.32 1116.59,-58.7 1054.3,-36.77 1052.85,-36.26 1051.39,-35.66 1049.95,-35.01"/>
<polygon fill="green" stroke="green" stroke-width="0.8" points="1051.26,-31.74 1040.8,-30.04 1047.92,-37.89 1051.26,-31.74"/>
</g>
<!-- 8&#45;&gt;27 -->
<g id="edge44" class="edge">
<title>8&#45;&gt;27</title>
<path fill="none" stroke="green" stroke-width="0.8" d="M981.46,-152.97C925.98,-149.93 675.58,-134.9 653.3,-109.54 642.51,-97.26 643.39,-85.77 653.3,-72.77 689.9,-24.75 728.97,-60.94 784.3,-36.77 785.71,-36.15 787.13,-35.48 788.55,-34.76"/>
<polygon fill="green" stroke="green" stroke-width="0.8" points="790.66,-37.58 797.62,-29.6 787.2,-31.5 790.66,-37.58"/>
</g>
<!-- 8&#45;&gt;25 -->
<g id="edge45" class="edge">
<title>8&#45;&gt;25</title>
<path fill="none" stroke="green" stroke-width="0.8" d="M981.65,-153.37C888.64,-151.84 216.92,-139.77 188.3,-109.54 177.06,-97.67 177.3,-84.85 188.3,-72.77 225.03,-32.43 618.59,-22 728.78,-19.86"/>
<polygon fill="green" stroke="green" stroke-width="0.8" points="728.88,-23.36 738.82,-19.68 728.75,-16.36 728.88,-23.36"/>
</g>
<!-- 8&#45;&gt;24 -->
<g id="edge46" class="edge">
<title>8&#45;&gt;24</title>
<path fill="none" stroke="green" stroke-width="0.8" d="M1002.89,-153.53C1075.78,-153.34 1501.5,-150.5 1539.3,-109.54 1550.38,-97.53 1550.36,-84.8 1539.3,-72.77 1474.38,-2.19 1200.33,-66.9 1109.3,-36.77 1107.84,-36.29 1106.38,-35.71 1104.93,-35.07"/>
<polygon fill="green" stroke="green" stroke-width="0.8" points="1106.23,-31.8 1095.76,-30.16 1102.92,-37.97 1106.23,-31.8"/>
</g>
<!-- 26 -->
<g id="node28" class="node">
<title>26</title>
<ellipse fill="white" stroke="black" cx="1799.3" cy="-91.15" rx="18.27" ry="18.27"/>
<text text-anchor="middle" x="1799.3" y="-88.95" font-family="Times,serif" font-size="9.00">26</text>
</g>
<!-- 8&#45;&gt;26 -->
<g id="edge116" class="edge">
<title>8&#45;&gt;26</title>
<path fill="none" stroke="green" stroke-width="0.8" d="M1002.95,-153.57C1084.76,-153.73 1614.35,-153.06 1767.3,-109.54 1769.94,-108.79 1772.61,-107.79 1775.23,-106.65"/>
<polygon fill="green" stroke="green" stroke-width="0.8" points="1776.91,-109.72 1784.27,-102.09 1773.76,-103.47 1776.91,-109.72"/>
</g>
<!-- 9 -->
<g id="node9" class="node">
<title>9</title>
<polygon fill="lightgray" stroke="black" points="581.8,-163.54 560.8,-163.54 560.8,-145.54 581.8,-145.54 581.8,-163.54"/>
<text text-anchor="middle" x="571.3" y="-152.34" font-family="Times,serif" font-size="9.00">9</text>
</g>
<!-- 9&#45;&gt;19 -->
<g id="edge47" class="edge">
<title>9&#45;&gt;19</title>
<path fill="none" stroke="green" stroke-width="0.8" d="M576.99,-145.31C588.99,-128.67 618.64,-91.01 653.3,-72.77 727.81,-33.55 760.9,-67.49 839.3,-36.77 840.73,-36.21 842.17,-35.57 843.6,-34.89"/>
<polygon fill="green" stroke="green" stroke-width="0.8" points="845.67,-37.74 852.72,-29.83 842.28,-31.62 845.67,-37.74"/>
</g>
<!-- 9&#45;&gt;20 -->
<g id="edge48" class="edge">
<title>9&#45;&gt;20</title>
<path fill="none" stroke="green" stroke-width="0.8" d="M581.92,-153.32C670.6,-151.43 1285.1,-137.35 1311.3,-109.54 1322.51,-97.65 1322.02,-85.1 1311.3,-72.77 1273.46,-29.26 1108.52,-56.4 1054.3,-36.77 1052.85,-36.25 1051.4,-35.64 1049.96,-34.98"/>
<polygon fill="green" stroke="green" stroke-width="0.8" points="1051.28,-31.71 1040.82,-29.99 1047.92,-37.85 1051.28,-31.71"/>
</g>
<!-- 9&#45;&gt;27 -->
<g id="edge49" class="edge">
<title>9&#45;&gt;27</title>
<path fill="none" stroke="green" stroke-width="0.8" d="M575.93,-145.45C585.75,-129.05 610.33,-91.83 641.3,-72.77 697.12,-38.42 723.96,-62.36 784.3,-36.77 785.71,-36.17 787.14,-35.5 788.56,-34.79"/>
<polygon fill="green" stroke="green" stroke-width="0.8" points="790.66,-37.63 797.65,-29.66 787.22,-31.53 790.66,-37.63"/>
</g>
<!-- 9&#45;&gt;25 -->
<g id="edge50" class="edge">
<title>9&#45;&gt;25</title>
<path fill="none" stroke="green" stroke-width="0.8" d="M560.48,-148.55C557.56,-147.39 554.35,-146.27 551.3,-145.54 465.38,-124.91 214.89,-174.79 155.3,-109.54 144.28,-97.47 144.27,-84.82 155.3,-72.77 194.42,-30.03 614.17,-21.3 728.62,-19.71"/>
<polygon fill="green" stroke="green" stroke-width="0.8" points="728.77,-23.21 738.72,-19.58 728.67,-16.21 728.77,-23.21"/>
</g>
<!-- 9&#45;&gt;28 -->
<g id="edge51" class="edge">
<title>9&#45;&gt;28</title>
<path fill="none" stroke="green" stroke-width="0.8" d="M581.82,-153.34C696.38,-151.17 1708.24,-131.42 1729.3,-109.54 1740.63,-97.77 1740.32,-84.83 1729.3,-72.77 1690.83,-30.68 1278.2,-21.49 1164.92,-19.75"/>
<polygon fill="green" stroke="green" stroke-width="0.8" points="1164.97,-16.25 1154.92,-19.6 1164.87,-23.25 1164.97,-16.25"/>
</g>
<!-- 9&#45;&gt;24 -->
<g id="edge52" class="edge">
<title>9&#45;&gt;24</title>
<path fill="none" stroke="green" stroke-width="0.8" d="M581.86,-153.24C683.5,-150.36 1484.58,-127.07 1501.3,-109.54 1512.58,-97.71 1512.31,-84.84 1501.3,-72.77 1442.34,-8.15 1192.24,-64.59 1109.3,-36.77 1107.84,-36.28 1106.38,-35.7 1104.93,-35.06"/>
<polygon fill="green" stroke="green" stroke-width="0.8" points="1106.24,-31.79 1095.77,-30.13 1102.92,-37.95 1106.24,-31.79"/>
</g>
<!-- 9&#45;&gt;22 -->
<g id="edge112" class="edge">
<title>9&#45;&gt;22</title>
<path fill="none" stroke="green" stroke-width="0.8" d="M560.49,-148.53C557.56,-147.37 554.36,-146.26 551.3,-145.54 362.92,-101.11 308.28,-140.97 117.3,-109.54 102.97,-107.18 87.25,-103.39 74.35,-99.95"/>
<polygon fill="green" stroke="green" stroke-width="0.8" points="75.25,-96.57 64.69,-97.3 73.4,-103.32 75.25,-96.57"/>
</g>
<!-- 10 -->
<g id="node10" class="node">
<title>10</title>
<polygon fill="lightgray" stroke="black" points="929.3,-100.15 903.3,-100.15 903.3,-82.15 929.3,-82.15 929.3,-100.15"/>
<text text-anchor="middle" x="916.3" y="-88.95" font-family="Times,serif" font-size="9.00">10</text>
</g>
<!-- 10&#45;&gt;19 -->
<g id="edge53" class="edge">
<title>10&#45;&gt;19</title>
<path fill="none" stroke="green" stroke-width="0.8" d="M910.68,-82.04C904.04,-72.45 892.7,-56.08 883.29,-42.47"/>
<polygon fill="green" stroke="green" stroke-width="0.8" points="886.01,-40.26 877.44,-34.03 880.26,-44.25 886.01,-40.26"/>
</g>
<!-- 10&#45;&gt;20 -->
<g id="edge54" class="edge">
<title>10&#45;&gt;20</title>
<path fill="none" stroke="green" stroke-width="0.8" d="M925.96,-82.1C929.73,-79.07 934.14,-75.66 938.3,-72.77 959.17,-58.27 984.01,-43.41 1001.97,-33.06"/>
<polygon fill="green" stroke="green" stroke-width="0.8" points="1003.73,-36.08 1010.67,-28.08 1000.25,-30.01 1003.73,-36.08"/>
</g>
<!-- 10&#45;&gt;27 -->
<g id="edge55" class="edge">
<title>10&#45;&gt;27</title>
<path fill="none" stroke="green" stroke-width="0.8" d="M906.15,-81.82C902.47,-78.88 898.25,-75.61 894.3,-72.77 883.66,-65.13 856.09,-47.33 835.85,-34.38"/>
<polygon fill="green" stroke="green" stroke-width="0.8" points="837.73,-31.43 827.42,-28.99 833.96,-37.32 837.73,-31.43"/>
</g>
<!-- 10&#45;&gt;25 -->
<g id="edge56" class="edge">
<title>10&#45;&gt;25</title>
<path fill="none" stroke="green" stroke-width="0.8" d="M907.38,-81.94C903.57,-78.75 898.93,-75.26 894.3,-72.77 849.38,-48.58 831.52,-58.38 785.3,-36.77 783.91,-36.12 782.5,-35.41 781.09,-34.67"/>
<polygon fill="green" stroke="green" stroke-width="0.8" points="782.46,-31.42 772.05,-29.44 778.95,-37.48 782.46,-31.42"/>
</g>
<!-- 10&#45;&gt;28 -->
<g id="edge57" class="edge">
<title>10&#45;&gt;28</title>
<path fill="none" stroke="green" stroke-width="0.8" d="M924.67,-82.04C928.54,-78.7 933.36,-75.09 938.3,-72.77 1008.22,-39.96 1036.64,-65.57 1108.3,-36.77 1109.73,-36.2 1111.16,-35.55 1112.59,-34.86"/>
<polygon fill="green" stroke="green" stroke-width="0.8" points="1114.67,-37.7 1121.7,-29.77 1111.26,-31.59 1114.67,-37.7"/>
</g>
<!-- 10&#45;&gt;24 -->
<g id="edge58" class="edge">
<title>10&#45;&gt;24</title>
<path fill="none" stroke="green" stroke-width="0.8" d="M925.2,-81.9C929.01,-78.7 933.65,-75.23 938.3,-72.77 985.65,-47.75 1004.61,-59.07 1053.3,-36.77 1054.7,-36.13 1056.11,-35.43 1057.52,-34.7"/>
<polygon fill="green" stroke="green" stroke-width="0.8" points="1059.65,-37.51 1066.57,-29.49 1056.16,-31.44 1059.65,-37.51"/>
</g>
<!-- 11 -->
<g id="node11" class="node">
<title>11</title>
<polygon fill="lightgray" stroke="black" points="542.3,-163.54 516.3,-163.54 516.3,-145.54 542.3,-145.54 542.3,-163.54"/>
<text text-anchor="middle" x="529.3" y="-152.34" font-family="Times,serif" font-size="9.00">11</text>
</g>
<!-- 11&#45;&gt;19 -->
<g id="edge59" class="edge">
<title>11&#45;&gt;19</title>
<path fill="none" stroke="green" stroke-width="0.8" d="M533.92,-145.46C543.95,-128.73 569.5,-90.4 602.3,-72.77 696.14,-22.32 739.33,-73.62 839.3,-36.77 840.74,-36.24 842.19,-35.63 843.63,-34.96"/>
<polygon fill="green" stroke="green" stroke-width="0.8" points="845.68,-37.83 852.76,-29.95 842.31,-31.69 845.68,-37.83"/>
</g>
<!-- 11&#45;&gt;20 -->
<g id="edge60" class="edge">
<title>11&#45;&gt;20</title>
<path fill="none" stroke="green" stroke-width="0.8" d="M542.74,-148.15C545.84,-147.11 549.15,-146.15 552.3,-145.54 631.03,-130.21 1218.01,-167.65 1273.3,-109.54 1284.56,-97.7 1283.88,-85.23 1273.3,-72.77 1209.46,2.42 1146.64,-71.45 1054.3,-36.77 1052.86,-36.23 1051.41,-35.61 1049.98,-34.94"/>
<polygon fill="green" stroke="green" stroke-width="0.8" points="1051.3,-31.67 1040.85,-29.91 1047.92,-37.8 1051.3,-31.67"/>
</g>
<!-- 11&#45;&gt;27 -->
<g id="edge61" class="edge">
<title>11&#45;&gt;27</title>
<path fill="none" stroke="green" stroke-width="0.8" d="M533.75,-145.31C543.21,-128.64 567.07,-90.97 598.3,-72.77 671.05,-30.38 705.9,-67.49 784.3,-36.77 785.73,-36.21 787.17,-35.57 788.6,-34.89"/>
<polygon fill="green" stroke="green" stroke-width="0.8" points="790.67,-37.74 797.72,-29.83 787.28,-31.62 790.67,-37.74"/>
</g>
<!-- 11&#45;&gt;25 -->
<g id="edge62" class="edge">
<title>11&#45;&gt;25</title>
<path fill="none" stroke="green" stroke-width="0.8" d="M515.96,-148.09C513.14,-147.1 510.15,-146.19 507.3,-145.54 428.04,-127.51 197.87,-169.78 143.3,-109.54 132.33,-97.43 132.26,-84.82 143.3,-72.77 183.27,-29.17 612.26,-21.06 728.43,-19.66"/>
<polygon fill="green" stroke="green" stroke-width="0.8" points="728.71,-23.16 738.67,-19.54 728.64,-16.16 728.71,-23.16"/>
</g>
<!-- 11&#45;&gt;28 -->
<g id="edge63" class="edge">
<title>11&#45;&gt;28</title>
<path fill="none" stroke="green" stroke-width="0.8" d="M542.74,-148.1C545.83,-147.07 549.14,-146.12 552.3,-145.54 614.55,-134.01 1647.25,-155.01 1691.3,-109.54 1702.67,-97.8 1702.29,-84.87 1691.3,-72.77 1655.63,-33.5 1274.06,-22.34 1165.16,-19.94"/>
<polygon fill="green" stroke="green" stroke-width="0.8" points="1165.01,-16.44 1154.93,-19.73 1164.86,-23.44 1165.01,-16.44"/>
</g>
<!-- 11&#45;&gt;24 -->
<g id="edge64" class="edge">
<title>11&#45;&gt;24</title>
<path fill="none" stroke="green" stroke-width="0.8" d="M542.74,-148.12C545.83,-147.08 549.14,-146.14 552.3,-145.54 602.07,-136.12 1428.2,-146.05 1463.3,-109.54 1474.62,-97.76 1474.25,-84.9 1463.3,-72.77 1410.29,-14.1 1184.14,-62.28 1109.3,-36.77 1107.84,-36.27 1106.39,-35.69 1104.94,-35.04"/>
<polygon fill="green" stroke="green" stroke-width="0.8" points="1106.24,-31.77 1095.78,-30.1 1102.92,-37.93 1106.24,-31.77"/>
</g>
<!-- 11&#45;&gt;22 -->
<g id="edge111" class="edge">
<title>11&#45;&gt;22</title>
<path fill="none" stroke="green" stroke-width="0.8" d="M515.97,-148.06C513.15,-147.07 510.16,-146.17 507.3,-145.54 320.86,-104.56 262.18,-164.27 79.3,-109.54 76.66,-108.75 74,-107.73 71.4,-106.57"/>
<polygon fill="green" stroke="green" stroke-width="0.8" points="72.86,-103.39 62.36,-102 69.7,-109.64 72.86,-103.39"/>
</g>
<!-- 12 -->
<g id="node12" class="node">
<title>12</title>
<polygon fill="lightgray" stroke="black" points="973.3,-100.15 947.3,-100.15 947.3,-82.15 973.3,-82.15 973.3,-100.15"/>
<text text-anchor="middle" x="960.3" y="-88.95" font-family="Times,serif" font-size="9.00">12</text>
</g>
<!-- 12&#45;&gt;19 -->
<g id="edge65" class="edge">
<title>12&#45;&gt;19</title>
<path fill="none" stroke="green" stroke-width="0.8" d="M950.04,-81.97C946.36,-79.04 942.15,-75.74 938.3,-72.77 922.22,-60.37 903.9,-46.6 889.89,-36.16"/>
<polygon fill="green" stroke="green" stroke-width="0.8" points="891.9,-33.29 881.79,-30.12 887.72,-38.9 891.9,-33.29"/>
</g>
<!-- 12&#45;&gt;20 -->
<g id="edge66" class="edge">
<title>12&#45;&gt;20</title>
<path fill="none" stroke="green" stroke-width="0.8" d="M967.87,-82.04C977.41,-71.8 994.15,-53.86 1007.27,-39.78"/>
<polygon fill="green" stroke="green" stroke-width="0.8" points="1009.86,-42.14 1014.12,-32.44 1004.74,-37.37 1009.86,-42.14"/>
</g>
<!-- 12&#45;&gt;27 -->
<g id="edge67" class="edge">
<title>12&#45;&gt;27</title>
<path fill="none" stroke="green" stroke-width="0.8" d="M951.34,-82.02C947.52,-78.83 942.89,-75.34 938.3,-72.77 897.81,-50.1 882,-57.11 840.3,-36.77 838.92,-36.1 837.52,-35.37 836.12,-34.61"/>
<polygon fill="green" stroke="green" stroke-width="0.8" points="837.49,-31.37 827.09,-29.35 833.96,-37.41 837.49,-31.37"/>
</g>
<!-- 12&#45;&gt;25 -->
<g id="edge68" class="edge">
<title>12&#45;&gt;25</title>
<path fill="none" stroke="green" stroke-width="0.8" d="M951.91,-82.09C948.03,-78.76 943.21,-75.14 938.3,-72.77 875.39,-42.39 849.82,-63.55 785.3,-36.77 783.88,-36.18 782.45,-35.52 781.03,-34.82"/>
<polygon fill="green" stroke="green" stroke-width="0.8" points="782.36,-31.56 771.93,-29.71 778.93,-37.66 782.36,-31.56"/>
</g>
<!-- 12&#45;&gt;28 -->
<g id="edge69" class="edge">
<title>12&#45;&gt;28</title>
<path fill="none" stroke="green" stroke-width="0.8" d="M969.16,-81.85C972.97,-78.64 977.62,-75.17 982.3,-72.77 1034.13,-46.21 1055.05,-60.36 1108.3,-36.77 1109.71,-36.15 1111.12,-35.46 1112.54,-34.74"/>
<polygon fill="green" stroke="green" stroke-width="0.8" points="1114.66,-37.56 1121.61,-29.57 1111.19,-31.48 1114.66,-37.56"/>
</g>
<!-- 12&#45;&gt;24 -->
<g id="edge70" class="edge">
<title>12&#45;&gt;24</title>
<path fill="none" stroke="green" stroke-width="0.8" d="M969.85,-81.93C973.6,-78.88 978.03,-75.5 982.3,-72.77 1012.1,-53.71 1022.46,-54.12 1053.3,-36.77 1054.61,-36.03 1055.94,-35.26 1057.29,-34.48"/>
<polygon fill="green" stroke="green" stroke-width="0.8" points="1059.29,-37.36 1066.04,-29.19 1055.67,-31.37 1059.29,-37.36"/>
</g>
<!-- 13 -->
<g id="node13" class="node">
<title>13</title>
<polygon fill="lightgray" stroke="black" points="1614.3,-163.54 1588.3,-163.54 1588.3,-145.54 1614.3,-145.54 1614.3,-163.54"/>
<text text-anchor="middle" x="1601.3" y="-152.34" font-family="Times,serif" font-size="9.00">13</text>
</g>
<!-- 13&#45;&gt;19 -->
<g id="edge71" class="edge">
<title>13&#45;&gt;19</title>
<path fill="none" stroke="green" stroke-width="0.8" d="M1588.01,-153.41C1478.71,-152.26 731.37,-143.21 699.3,-109.54 688.03,-97.71 689.29,-85.68 699.3,-72.77 738.67,-22 780.22,-62 839.3,-36.77 840.71,-36.17 842.14,-35.5 843.56,-34.78"/>
<polygon fill="green" stroke="green" stroke-width="0.8" points="845.66,-37.61 852.64,-29.64 842.22,-31.52 845.66,-37.61"/>
</g>
<!-- 13&#45;&gt;20 -->
<g id="edge72" class="edge">
<title>13&#45;&gt;20</title>
<path fill="none" stroke="green" stroke-width="0.8" d="M1588.14,-147.85C1553.02,-132.93 1453.84,-92.43 1367.3,-72.77 1230.75,-41.74 1186.54,-82.82 1054.3,-36.77 1052.85,-36.26 1051.39,-35.67 1049.95,-35.02"/>
<polygon fill="green" stroke="green" stroke-width="0.8" points="1051.25,-31.75 1040.79,-30.06 1047.92,-37.9 1051.25,-31.75"/>
</g>
<!-- 13&#45;&gt;27 -->
<g id="edge73" class="edge">
<title>13&#45;&gt;27</title>
<path fill="none" stroke="green" stroke-width="0.8" d="M1588.18,-153.42C1478.67,-152.34 719.84,-143.68 687.3,-109.54 676.02,-97.71 677.97,-86.19 687.3,-72.77 713.56,-35.02 743,-57 784.3,-36.77 785.68,-36.09 787.08,-35.37 788.48,-34.61"/>
<polygon fill="green" stroke="green" stroke-width="0.8" points="790.63,-37.4 797.5,-29.34 787.1,-31.36 790.63,-37.4"/>
</g>
<!-- 13&#45;&gt;25 -->
<g id="edge74" class="edge">
<title>13&#45;&gt;25</title>
<path fill="none" stroke="green" stroke-width="0.8" d="M1588.01,-153.42C1477.07,-152.41 708.27,-144.12 675.3,-109.54 664.02,-97.71 667.51,-87.14 675.3,-72.77 686.95,-51.28 711.42,-37.08 730.61,-28.77"/>
<polygon fill="green" stroke="green" stroke-width="0.8" points="732.1,-31.94 740.07,-24.95 729.48,-25.44 732.1,-31.94"/>
</g>
<!-- 13&#45;&gt;28 -->
<g id="edge75" class="edge">
<title>13&#45;&gt;28</title>
<path fill="none" stroke="green" stroke-width="0.8" d="M1614.48,-153.68C1676.28,-153.92 1931.33,-150.32 1859.3,-72.77 1811.34,-21.13 1293.89,-18.99 1165.17,-19.26"/>
<polygon fill="green" stroke="green" stroke-width="0.8" points="1164.91,-15.76 1154.92,-19.29 1164.93,-22.76 1164.91,-15.76"/>
</g>
<!-- 13&#45;&gt;24 -->
<g id="edge76" class="edge">
<title>13&#45;&gt;24</title>
<path fill="none" stroke="green" stroke-width="0.8" d="M1614.35,-153.21C1671.03,-151.4 1890.22,-139.98 1826.3,-72.77 1771.33,-14.97 1185.43,-60.56 1109.3,-36.77 1107.83,-36.31 1106.36,-35.76 1104.91,-35.13"/>
<polygon fill="green" stroke="green" stroke-width="0.8" points="1106.2,-31.86 1095.73,-30.26 1102.92,-38.04 1106.2,-31.86"/>
</g>
<!-- 23 -->
<g id="node27" class="node">
<title>23</title>
<ellipse fill="white" stroke="black" cx="1929.3" cy="-91.15" rx="18.27" ry="18.27"/>
<text text-anchor="middle" x="1929.3" y="-88.95" font-family="Times,serif" font-size="9.00">23</text>
</g>
<!-- 13&#45;&gt;23 -->
<g id="edge109" class="edge">
<title>13&#45;&gt;23</title>
<path fill="none" stroke="green" stroke-width="0.8" d="M1614.37,-153.21C1656.49,-151.82 1792.1,-144.71 1897.3,-109.54 1899.91,-108.67 1902.55,-107.59 1905.15,-106.4"/>
<polygon fill="green" stroke="green" stroke-width="0.8" points="1906.86,-109.46 1914.17,-101.78 1903.67,-103.22 1906.86,-109.46"/>
</g>
<!-- 14 -->
<g id="node14" class="node">
<title>14</title>
<polygon fill="lightgray" stroke="black" points="1017.3,-100.15 991.3,-100.15 991.3,-82.15 1017.3,-82.15 1017.3,-100.15"/>
<text text-anchor="middle" x="1004.3" y="-88.95" font-family="Times,serif" font-size="9.00">14</text>
</g>
<!-- 14&#45;&gt;19 -->
<g id="edge77" class="edge">
<title>14&#45;&gt;19</title>
<path fill="none" stroke="green" stroke-width="0.8" d="M994.8,-81.85C991.05,-78.79 986.61,-75.42 982.3,-72.77 953.43,-55 917.68,-39.29 893.77,-29.59"/>
<polygon fill="green" stroke="green" stroke-width="0.8" points="894.89,-26.27 884.31,-25.82 892.3,-32.77 894.89,-26.27"/>
</g>
<!-- 14&#45;&gt;20 -->
<g id="edge78" class="edge">
<title>14&#45;&gt;20</title>
<path fill="none" stroke="green" stroke-width="0.8" d="M1006.82,-82.04C1009.55,-73.27 1014.03,-58.84 1018.01,-46.03"/>
<polygon fill="green" stroke="green" stroke-width="0.8" points="1021.43,-46.84 1021.06,-36.25 1014.74,-44.76 1021.43,-46.84"/>
</g>
<!-- 14&#45;&gt;27 -->
<g id="edge79" class="edge">
<title>14&#45;&gt;27</title>
<path fill="none" stroke="green" stroke-width="0.8" d="M995.89,-82.13C992.01,-78.81 987.19,-75.18 982.3,-72.77 923.92,-43.95 900.22,-62.24 840.3,-36.77 838.88,-36.17 837.46,-35.5 836.04,-34.79"/>
<polygon fill="green" stroke="green" stroke-width="0.8" points="837.38,-31.53 826.95,-29.66 833.94,-37.62 837.38,-31.53"/>
</g>
<!-- 14&#45;&gt;25 -->
<g id="edge80" class="edge">
<title>14&#45;&gt;25</title>
<path fill="none" stroke="green" stroke-width="0.8" d="M995.96,-81.97C992.1,-78.62 987.27,-75.02 982.3,-72.77 901.2,-36.09 868.34,-68.81 785.3,-36.77 783.86,-36.22 782.42,-35.59 780.99,-34.9"/>
<polygon fill="green" stroke="green" stroke-width="0.8" points="782.31,-31.64 771.87,-29.86 778.93,-37.76 782.31,-31.64"/>
</g>
<!-- 14&#45;&gt;28 -->
<g id="edge81" class="edge">
<title>14&#45;&gt;28</title>
<path fill="none" stroke="green" stroke-width="0.8" d="M1013.77,-81.8C1017.52,-78.74 1021.96,-75.38 1026.3,-72.77 1060.41,-52.26 1073.08,-55.31 1108.3,-36.77 1109.63,-36.07 1110.98,-35.33 1112.33,-34.57"/>
<polygon fill="green" stroke="green" stroke-width="0.8" points="1114.31,-37.46 1121.12,-29.35 1110.74,-31.44 1114.31,-37.46"/>
</g>
<!-- 14&#45;&gt;24 -->
<g id="edge82" class="edge">
<title>14&#45;&gt;24</title>
<path fill="none" stroke="green" stroke-width="0.8" d="M1013.13,-82.04C1024.64,-71.46 1045.11,-52.65 1060.62,-38.39"/>
<polygon fill="green" stroke="green" stroke-width="0.8" points="1063.22,-40.76 1068.21,-31.41 1058.48,-35.6 1063.22,-40.76"/>
</g>
<!-- 15 -->
<g id="node15" class="node">
<title>15</title>
<polygon fill="lightgray" stroke="black" points="1061.3,-100.15 1035.3,-100.15 1035.3,-82.15 1061.3,-82.15 1061.3,-100.15"/>
<text text-anchor="middle" x="1048.3" y="-88.95" font-family="Times,serif" font-size="9.00">15</text>
</g>
<!-- 15&#45;&gt;19 -->
<g id="edge83" class="edge">
<title>15&#45;&gt;19</title>
<path fill="none" stroke="green" stroke-width="0.8" d="M1039.38,-81.95C1035.56,-78.76 1030.92,-75.27 1026.3,-72.77 983.09,-49.37 927.77,-33.62 895.07,-25.61"/>
<polygon fill="green" stroke="green" stroke-width="0.8" points="895.83,-22.19 885.29,-23.28 894.21,-29 895.83,-22.19"/>
</g>
<!-- 15&#45;&gt;20 -->
<g id="edge84" class="edge">
<title>15&#45;&gt;20</title>
<path fill="none" stroke="green" stroke-width="0.8" d="M1045.78,-82.04C1043.05,-73.27 1038.56,-58.84 1034.58,-46.03"/>
<polygon fill="green" stroke="green" stroke-width="0.8" points="1037.85,-44.76 1031.54,-36.25 1031.17,-46.84 1037.85,-44.76"/>
</g>
<!-- 15&#45;&gt;27 -->
<g id="edge85" class="edge">
<title>15&#45;&gt;27</title>
<path fill="none" stroke="green" stroke-width="0.8" d="M1039.95,-82C1036.09,-78.65 1031.26,-75.04 1026.3,-72.77 949.76,-37.67 918.7,-67.49 840.3,-36.77 838.87,-36.21 837.43,-35.57 836,-34.89"/>
<polygon fill="green" stroke="green" stroke-width="0.8" points="837.32,-31.62 826.88,-29.83 833.93,-37.74 837.32,-31.62"/>
</g>
<!-- 15&#45;&gt;25 -->
<g id="edge86" class="edge">
<title>15&#45;&gt;25</title>
<path fill="none" stroke="green" stroke-width="0.8" d="M1040,-81.9C1036.14,-78.53 1031.3,-74.94 1026.3,-72.77 926.91,-29.75 886.96,-74.1 785.3,-36.77 783.86,-36.24 782.41,-35.63 780.97,-34.96"/>
<polygon fill="green" stroke="green" stroke-width="0.8" points="782.28,-31.69 771.83,-29.96 778.92,-37.83 782.28,-31.69"/>
</g>
<!-- 15&#45;&gt;28 -->
<g id="edge87" class="edge">
<title>15&#45;&gt;28</title>
<path fill="none" stroke="green" stroke-width="0.8" d="M1058.39,-82.04C1071.9,-71.18 1096.2,-51.63 1114.09,-37.25"/>
<polygon fill="green" stroke="green" stroke-width="0.8" points="1116.68,-39.66 1122.28,-30.66 1112.29,-34.2 1116.68,-39.66"/>
</g>
<!-- 15&#45;&gt;24 -->
<g id="edge88" class="edge">
<title>15&#45;&gt;24</title>
<path fill="none" stroke="green" stroke-width="0.8" d="M1052.08,-82.04C1056.34,-72.92 1063.44,-57.68 1069.58,-44.51"/>
<polygon fill="green" stroke="green" stroke-width="0.8" points="1072.77,-45.95 1073.83,-35.41 1066.43,-42.99 1072.77,-45.95"/>
</g>
<!-- 16 -->
<g id="node16" class="node">
<title>16</title>
<polygon fill="lightgray" stroke="black" points="1105.3,-100.15 1079.3,-100.15 1079.3,-82.15 1105.3,-82.15 1105.3,-100.15"/>
<text text-anchor="middle" x="1092.3" y="-88.95" font-family="Times,serif" font-size="9.00">16</text>
</g>
<!-- 16&#45;&gt;19 -->
<g id="edge89" class="edge">
<title>16&#45;&gt;19</title>
<path fill="none" stroke="green" stroke-width="0.8" d="M1083.88,-82.15C1080,-78.84 1075.18,-75.2 1070.3,-72.77 1011.93,-43.64 935.94,-29.14 895.5,-23.06"/>
<polygon fill="green" stroke="green" stroke-width="0.8" points="895.95,-19.59 885.55,-21.63 894.95,-26.52 895.95,-19.59"/>
</g>
<!-- 16&#45;&gt;20 -->
<g id="edge90" class="edge">
<title>16&#45;&gt;20</title>
<path fill="none" stroke="green" stroke-width="0.8" d="M1084.73,-82.04C1075.19,-71.8 1058.45,-53.86 1045.32,-39.78"/>
<polygon fill="green" stroke="green" stroke-width="0.8" points="1047.85,-37.37 1038.47,-32.44 1042.74,-42.14 1047.85,-37.37"/>
</g>
<!-- 16&#45;&gt;27 -->
<g id="edge91" class="edge">
<title>16&#45;&gt;27</title>
<path fill="none" stroke="green" stroke-width="0.8" d="M1083.99,-81.91C1080.13,-78.55 1075.3,-74.95 1070.3,-72.77 975.49,-31.34 937.3,-72.78 840.3,-36.77 838.86,-36.23 837.41,-35.62 835.97,-34.95"/>
<polygon fill="green" stroke="green" stroke-width="0.8" points="837.29,-31.68 826.84,-29.94 833.92,-37.82 837.29,-31.68"/>
</g>
<!-- 16&#45;&gt;25 -->
<g id="edge92" class="edge">
<title>16&#45;&gt;25</title>
<path fill="none" stroke="green" stroke-width="0.8" d="M1084.02,-81.84C1080.17,-78.47 1075.33,-74.88 1070.3,-72.77 952.57,-23.38 905.64,-79.42 785.3,-36.77 783.85,-36.26 782.4,-35.66 780.96,-35"/>
<polygon fill="green" stroke="green" stroke-width="0.8" points="782.26,-31.73 771.81,-30.03 778.92,-37.88 782.26,-31.73"/>
</g>
<!-- 16&#45;&gt;28 -->
<g id="edge93" class="edge">
<title>16&#45;&gt;28</title>
<path fill="none" stroke="green" stroke-width="0.8" d="M1097.35,-82.04C1103.22,-72.6 1113.17,-56.59 1121.54,-43.12"/>
<polygon fill="green" stroke="green" stroke-width="0.8" points="1124.71,-44.65 1127.02,-34.31 1118.77,-40.95 1124.71,-44.65"/>
</g>
<!-- 16&#45;&gt;24 -->
<g id="edge94" class="edge">
<title>16&#45;&gt;24</title>
<path fill="none" stroke="green" stroke-width="0.8" d="M1091.04,-82.04C1089.71,-73.47 1087.53,-59.49 1085.58,-46.91"/>
<polygon fill="green" stroke="green" stroke-width="0.8" points="1089,-46.17 1084.01,-36.82 1082.09,-47.24 1089,-46.17"/>
</g>
<!-- 17 -->
<g id="node17" class="node">
<title>17</title>
<polygon fill="lightgray" stroke="black" points="1149.3,-100.15 1123.3,-100.15 1123.3,-82.15 1149.3,-82.15 1149.3,-100.15"/>
<text text-anchor="middle" x="1136.3" y="-88.95" font-family="Times,serif" font-size="9.00">17</text>
</g>
<!-- 17&#45;&gt;19 -->
<g id="edge95" class="edge">
<title>17&#45;&gt;19</title>
<path fill="none" stroke="green" stroke-width="0.8" d="M1127.93,-82.05C1124.06,-78.71 1119.23,-75.1 1114.3,-72.77 1075.44,-54.44 951.44,-32.9 895.34,-23.8"/>
<polygon fill="green" stroke="green" stroke-width="0.8" points="895.81,-20.33 885.38,-22.2 894.7,-27.24 895.81,-20.33"/>
</g>
<!-- 17&#45;&gt;20 -->
<g id="edge96" class="edge">
<title>17&#45;&gt;20</title>
<path fill="none" stroke="green" stroke-width="0.8" d="M1126.65,-82.09C1122.88,-79.06 1118.46,-75.65 1114.3,-72.77 1088.71,-55.09 1080.84,-52.97 1054.3,-36.77 1053.02,-35.99 1051.7,-35.18 1050.38,-34.37"/>
<polygon fill="green" stroke="green" stroke-width="0.8" points="1052.02,-31.27 1041.68,-28.99 1048.35,-37.23 1052.02,-31.27"/>
</g>
<!-- 17&#45;&gt;27 -->
<g id="edge97" class="edge">
<title>17&#45;&gt;27</title>
<path fill="none" stroke="green" stroke-width="0.8" d="M1128.01,-81.85C1124.16,-78.48 1119.32,-74.89 1114.3,-72.77 1001.16,-24.97 955.96,-78.09 840.3,-36.77 838.85,-36.25 837.4,-35.65 835.96,-34.99"/>
<polygon fill="green" stroke="green" stroke-width="0.8" points="837.27,-31.72 826.81,-30.01 833.92,-37.87 837.27,-31.72"/>
</g>
<!-- 17&#45;&gt;25 -->
<g id="edge98" class="edge">
<title>17&#45;&gt;25</title>
<path fill="none" stroke="green" stroke-width="0.8" d="M1128.04,-81.8C1124.19,-78.42 1119.34,-74.84 1114.3,-72.77 978.19,-17 924.35,-84.76 785.3,-36.77 783.85,-36.27 782.39,-35.68 780.94,-35.03"/>
<polygon fill="green" stroke="green" stroke-width="0.8" points="782.25,-31.76 771.79,-30.08 778.92,-37.91 782.25,-31.76"/>
</g>
<!-- 17&#45;&gt;28 -->
<g id="edge99" class="edge">
<title>17&#45;&gt;28</title>
<path fill="none" stroke="green" stroke-width="0.8" d="M1136.3,-82.04C1136.3,-73.47 1136.3,-59.49 1136.3,-46.91"/>
<polygon fill="green" stroke="green" stroke-width="0.8" points="1139.8,-46.82 1136.3,-36.82 1132.8,-46.82 1139.8,-46.82"/>
</g>
<!-- 17&#45;&gt;24 -->
<g id="edge100" class="edge">
<title>17&#45;&gt;24</title>
<path fill="none" stroke="green" stroke-width="0.8" d="M1129.99,-82.04C1122.37,-72.23 1109.25,-55.35 1098.55,-41.58"/>
<polygon fill="green" stroke="green" stroke-width="0.8" points="1101.17,-39.24 1092.27,-33.5 1095.64,-43.54 1101.17,-39.24"/>
</g>
<!-- 18 -->
<g id="node18" class="node">
<title>18</title>
<polygon fill="lightgray" stroke="black" points="1193.3,-100.15 1167.3,-100.15 1167.3,-82.15 1193.3,-82.15 1193.3,-100.15"/>
<text text-anchor="middle" x="1180.3" y="-88.95" font-family="Times,serif" font-size="9.00">18</text>
</g>
<!-- 18&#45;&gt;19 -->
<g id="edge101" class="edge">
<title>18&#45;&gt;19</title>
<path fill="none" stroke="green" stroke-width="0.8" d="M1171.96,-81.97C1168.1,-78.63 1163.27,-75.02 1158.3,-72.77 1111.41,-51.54 959.6,-30.83 895.88,-22.84"/>
<polygon fill="green" stroke="green" stroke-width="0.8" points="896.09,-19.34 885.74,-21.58 895.23,-26.29 896.09,-19.34"/>
</g>
<!-- 18&#45;&gt;20 -->
<g id="edge102" class="edge">
<title>18&#45;&gt;20</title>
<path fill="none" stroke="green" stroke-width="0.8" d="M1171.37,-81.97C1167.55,-78.78 1162.91,-75.29 1158.3,-72.77 1115.4,-49.28 1098.46,-57.8 1054.3,-36.77 1052.91,-36.11 1051.51,-35.39 1050.1,-34.65"/>
<polygon fill="green" stroke="green" stroke-width="0.8" points="1051.47,-31.39 1041.07,-29.4 1047.96,-37.45 1051.47,-31.39"/>
</g>
<!-- 18&#45;&gt;27 -->
<g id="edge103" class="edge">
<title>18&#45;&gt;27</title>
<path fill="none" stroke="green" stroke-width="0.8" d="M1172.03,-81.81C1168.18,-78.43 1163.34,-74.85 1158.3,-72.77 1026.78,-18.6 974.67,-83.42 840.3,-36.77 838.85,-36.27 837.39,-35.68 835.95,-35.02"/>
<polygon fill="green" stroke="green" stroke-width="0.8" points="837.25,-31.75 826.79,-30.07 833.92,-37.91 837.25,-31.75"/>
</g>
<!-- 18&#45;&gt;25 -->
<g id="edge104" class="edge">
<title>18&#45;&gt;25</title>
<path fill="none" stroke="green" stroke-width="0.8" d="M1172.46,-82.13C1168.55,-78.64 1163.54,-74.88 1158.3,-72.77 1003.79,-10.61 943.08,-90.1 785.3,-36.77 783.84,-36.28 782.38,-35.7 780.94,-35.05"/>
<polygon fill="green" stroke="green" stroke-width="0.8" points="782.24,-31.78 771.78,-30.12 778.92,-37.94 782.24,-31.78"/>
</g>
<!-- 18&#45;&gt;28 -->
<g id="edge105" class="edge">
<title>18&#45;&gt;28</title>
<path fill="none" stroke="green" stroke-width="0.8" d="M1175.25,-82.04C1169.38,-72.6 1159.43,-56.59 1151.05,-43.12"/>
<polygon fill="green" stroke="green" stroke-width="0.8" points="1153.83,-40.95 1145.58,-34.31 1147.88,-44.65 1153.83,-40.95"/>
</g>
<!-- 18&#45;&gt;24 -->
<g id="edge106" class="edge">
<title>18&#45;&gt;24</title>
<path fill="none" stroke="green" stroke-width="0.8" d="M1170.11,-81.88C1166.42,-78.95 1162.21,-75.67 1158.3,-72.77 1140.6,-59.66 1120.08,-45.48 1104.67,-35.03"/>
<polygon fill="green" stroke="green" stroke-width="0.8" points="1106.5,-32.04 1096.25,-29.35 1102.58,-37.84 1106.5,-32.04"/>
</g>
<!-- 21&#45;&gt;27 -->
<g id="edge114" class="edge">
<title>21&#45;&gt;27</title>
<path fill="none" stroke="green" stroke-width="0.8" d="M230.34,-80.25C235.51,-77.33 241.47,-74.46 247.3,-72.77 477.03,-6.14 556.59,-110.03 784.3,-36.77 785.76,-36.3 787.23,-35.73 788.68,-35.1"/>
<polygon fill="green" stroke="green" stroke-width="0.8" points="790.68,-38 797.85,-30.21 787.38,-31.83 790.68,-38"/>
</g>
<!-- 22&#45;&gt;25 -->
<g id="edge108" class="edge">
<title>22&#45;&gt;25</title>
<path fill="none" stroke="green" stroke-width="0.8" d="M62.35,-80.29C67.53,-77.37 73.48,-74.49 79.3,-72.77 203.92,-35.84 615.67,-22.94 728.49,-20.06"/>
<polygon fill="green" stroke="green" stroke-width="0.8" points="728.84,-23.55 738.75,-19.8 728.66,-16.55 728.84,-23.55"/>
</g>
<!-- 23&#45;&gt;28 -->
<g id="edge110" class="edge">
<title>23&#45;&gt;28</title>
<path fill="none" stroke="green" stroke-width="0.8" d="M1914.25,-80.26C1909.08,-77.34 1903.13,-74.47 1897.3,-72.77 1755.97,-31.54 1286.22,-21.66 1165.03,-19.77"/>
<polygon fill="green" stroke="green" stroke-width="0.8" points="1164.77,-16.27 1154.72,-19.62 1164.66,-23.27 1164.77,-16.27"/>
</g>
<!-- 26&#45;&gt;28 -->
<g id="edge117" class="edge">
<title>26&#45;&gt;28</title>
<path fill="none" stroke="green" stroke-width="0.8" d="M1784.24,-80.31C1779.07,-77.39 1773.11,-74.51 1767.3,-72.77 1651.99,-38.23 1272.25,-23.72 1164.84,-20.24"/>
<polygon fill="green" stroke="green" stroke-width="0.8" points="1164.86,-16.74 1154.75,-19.92 1164.64,-23.74 1164.86,-16.74"/>
</g>
</g>
</svg>
