<?xml version="1.0" encoding="UTF-8" standalone="no"?>
<!DOCTYPE svg PUBLIC "-//W3C//DTD SVG 1.1//EN"
 "http://www.w3.org/Graphics/SVG/1.1/DTD/svg11.dtd">
<!-- Generated by graphviz version 3.0.0 (20220226.1711)
 -->
<!-- Pages: 1 -->
<svg width="2842pt" height="244pt"
 viewBox="0.00 0.00 2842.35 244.31" xmlns="http://www.w3.org/2000/svg" xmlns:xlink="http://www.w3.org/1999/xlink">
<g id="graph0" class="graph" transform="scale(1 1) rotate(0) translate(4 240.31)">
<polygon fill="white" stroke="transparent" points="-4,4 -4,-240.31 2838.35,-240.31 2838.35,4 -4,4"/>
<!-- 1 -->
<g id="node1" class="node">
<title>1</title>
<polygon fill="lightgray" stroke="black" points="1727.45,-172.92 1706.45,-172.92 1706.45,-154.92 1727.45,-154.92 1727.45,-172.92"/>
<text text-anchor="middle" x="1716.95" y="-161.72" font-family="Times,serif" font-size="9.00">1</text>
</g>
<!-- 19 -->
<g id="node19" class="node">
<title>19</title>
<ellipse fill="lightblue" stroke="black" cx="1617.95" cy="-18.38" rx="18.27" ry="18.27"/>
<text text-anchor="middle" x="1617.95" y="-16.18" font-family="Times,serif" font-size="9.00">19</text>
</g>
<!-- 1&#45;&gt;19 -->
<g id="edge1" class="edge">
<title>1&#45;&gt;19</title>
<path fill="none" stroke="green" stroke-width="0.8" d="M1712.19,-154.78C1702.73,-138.75 1680.68,-102.11 1659.95,-72.77 1652.37,-62.04 1643.43,-50.55 1635.76,-40.98"/>
<polygon fill="green" stroke="green" stroke-width="0.8" points="1638.42,-38.7 1629.4,-33.14 1632.98,-43.11 1638.42,-38.7"/>
</g>
<!-- 20 -->
<g id="node20" class="node">
<title>20</title>
<ellipse fill="lightblue" stroke="black" cx="1194.95" cy="-18.38" rx="18.27" ry="18.27"/>
<text text-anchor="middle" x="1194.95" y="-16.18" font-family="Times,serif" font-size="9.00">20</text>
</g>
<!-- 1&#45;&gt;20 -->
<g id="edge2" class="edge">
<title>1&#45;&gt;20</title>
<path fill="none" stroke="green" stroke-width="0.8" d="M1709.98,-154.82C1706.46,-151.31 1701.89,-147.55 1696.95,-145.54 1632,-119.12 1115.09,-160.51 1066.95,-109.54 1055.73,-97.66 1057.89,-86.37 1066.95,-72.77 1089.05,-39.61 1136.06,-27.01 1166.55,-22.25"/>
<polygon fill="green" stroke="green" stroke-width="0.8" points="1167.14,-25.7 1176.57,-20.87 1166.19,-18.77 1167.14,-25.7"/>
</g>
<!-- 25 -->
<g id="node21" class="node">
<title>25</title>
<ellipse fill="lightblue" stroke="black" cx="2317.95" cy="-18.38" rx="18.27" ry="18.27"/>
<text text-anchor="middle" x="2317.95" y="-16.18" font-family="Times,serif" font-size="9.00">25</text>
</g>
<!-- 1&#45;&gt;25 -->
<g id="edge3" class="edge">
<title>1&#45;&gt;25</title>
<path fill="none" stroke="green" stroke-width="0.8" d="M1727.88,-162C1759,-159.38 1850.74,-151.66 1926.95,-145.54 1978.27,-141.42 2353.98,-147.34 2388.95,-109.54 2400.05,-97.54 2396.25,-87.39 2388.95,-72.77 2379.56,-53.97 2360.05,-40.06 2343.86,-31.16"/>
<polygon fill="green" stroke="green" stroke-width="0.8" points="2345.3,-27.96 2334.81,-26.5 2342.09,-34.19 2345.3,-27.96"/>
</g>
<!-- 28 -->
<g id="node22" class="node">
<title>28</title>
<ellipse fill="lightblue" stroke="black" cx="510.95" cy="-18.38" rx="18.27" ry="18.27"/>
<text text-anchor="middle" x="510.95" y="-16.18" font-family="Times,serif" font-size="9.00">28</text>
</g>
<!-- 1&#45;&gt;28 -->
<g id="edge4" class="edge">
<title>1&#45;&gt;28</title>
<path fill="none" stroke="green" stroke-width="0.8" d="M1710.01,-154.75C1706.49,-151.23 1701.92,-147.48 1696.95,-145.54 1630.88,-119.77 470.38,-160.39 420.95,-109.54 409.56,-97.82 412.86,-86.97 420.95,-72.77 434.3,-49.33 462.44,-35.12 483.72,-27.32"/>
<polygon fill="green" stroke="green" stroke-width="0.8" points="484.89,-30.62 493.23,-24.09 482.64,-23.99 484.89,-30.62"/>
</g>
<!-- 26 -->
<g id="node23" class="node">
<title>26</title>
<ellipse fill="lightblue" stroke="black" cx="1845.95" cy="-18.38" rx="18.27" ry="18.27"/>
<text text-anchor="middle" x="1845.95" y="-16.18" font-family="Times,serif" font-size="9.00">26</text>
</g>
<!-- 1&#45;&gt;26 -->
<g id="edge5" class="edge">
<title>1&#45;&gt;26</title>
<path fill="none" stroke="green" stroke-width="0.8" d="M1727.66,-163.26C1757.65,-163.53 1842.67,-159.69 1878.95,-109.54 1894.1,-88.6 1878.79,-59.95 1864.36,-40.62"/>
<polygon fill="green" stroke="green" stroke-width="0.8" points="1867.06,-38.38 1858.12,-32.7 1861.56,-42.72 1867.06,-38.38"/>
</g>
<!-- 24 -->
<g id="node24" class="node">
<title>24</title>
<ellipse fill="lightblue" stroke="black" cx="947.95" cy="-18.38" rx="18.27" ry="18.27"/>
<text text-anchor="middle" x="947.95" y="-16.18" font-family="Times,serif" font-size="9.00">24</text>
</g>
<!-- 1&#45;&gt;24 -->
<g id="edge6" class="edge">
<title>1&#45;&gt;24</title>
<path fill="none" stroke="green" stroke-width="0.8" d="M1710,-154.78C1706.48,-151.27 1701.91,-147.51 1696.95,-145.54 1608.29,-110.26 904.99,-178.41 838.95,-109.54 827.64,-97.74 830.3,-86.64 838.95,-72.77 856.49,-44.64 893.64,-30.92 919.67,-24.53"/>
<polygon fill="green" stroke="green" stroke-width="0.8" points="920.72,-27.88 929.71,-22.28 919.19,-21.05 920.72,-27.88"/>
</g>
<!-- 21 -->
<g id="node25" class="node">
<title>21</title>
<ellipse fill="white" stroke="black" cx="1948.95" cy="-91.15" rx="18.27" ry="18.27"/>
<text text-anchor="middle" x="1948.95" y="-88.95" font-family="Times,serif" font-size="9.00">21</text>
</g>
<!-- 1&#45;&gt;21 -->
<g id="edge119" class="edge">
<title>1&#45;&gt;21</title>
<path fill="none" stroke="green" stroke-width="0.8" d="M1727.64,-161C1758.03,-155.33 1847.18,-137.35 1916.95,-109.54 1919.5,-108.52 1922.11,-107.35 1924.69,-106.1"/>
<polygon fill="green" stroke="green" stroke-width="0.8" points="1926.44,-109.13 1933.68,-101.41 1923.2,-102.93 1926.44,-109.13"/>
</g>
<!-- 2 -->
<g id="node2" class="node">
<title>2</title>
<polygon fill="lightgray" stroke="black" points="1156.45,-172.92 1135.45,-172.92 1135.45,-154.92 1156.45,-154.92 1156.45,-172.92"/>
<text text-anchor="middle" x="1145.95" y="-161.72" font-family="Times,serif" font-size="9.00">2</text>
</g>
<!-- 2&#45;&gt;19 -->
<g id="edge7" class="edge">
<title>2&#45;&gt;19</title>
<path fill="none" stroke="green" stroke-width="0.8" d="M1156.54,-162.95C1215.71,-162.87 1505.09,-159.91 1574.95,-109.54 1595.52,-94.7 1606.63,-67.38 1612.36,-46.69"/>
<polygon fill="green" stroke="green" stroke-width="0.8" points="1615.79,-47.42 1614.83,-36.87 1609,-45.71 1615.79,-47.42"/>
</g>
<!-- 2&#45;&gt;20 -->
<g id="edge8" class="edge">
<title>2&#45;&gt;20</title>
<path fill="none" stroke="green" stroke-width="0.8" d="M1135.08,-162.39C1071.85,-159.16 753.02,-141.39 724.95,-109.54 714.14,-97.28 714.06,-84.96 724.95,-72.77 739.78,-56.16 1066.78,-29.38 1166.4,-21.58"/>
<polygon fill="green" stroke="green" stroke-width="0.8" points="1166.92,-25.05 1176.62,-20.79 1166.38,-18.07 1166.92,-25.05"/>
</g>
<!-- 2&#45;&gt;25 -->
<g id="edge9" class="edge">
<title>2&#45;&gt;25</title>
<path fill="none" stroke="green" stroke-width="0.8" d="M1156.64,-162.49C1270.88,-157.89 2262.63,-117.73 2274.95,-109.54 2296.2,-95.42 2307.23,-67.75 2312.76,-46.77"/>
<polygon fill="green" stroke="green" stroke-width="0.8" points="2316.22,-47.34 2315.12,-36.8 2309.41,-45.73 2316.22,-47.34"/>
</g>
<!-- 2&#45;&gt;28 -->
<g id="edge10" class="edge">
<title>2&#45;&gt;28</title>
<path fill="none" stroke="green" stroke-width="0.8" d="M1135.19,-162.47C1026.24,-157.84 126.21,-119.29 116.95,-109.54 105.7,-97.69 106.2,-85.08 116.95,-72.77 141.04,-45.2 395.85,-26.66 482.38,-21.12"/>
<polygon fill="green" stroke="green" stroke-width="0.8" points="482.77,-24.6 492.53,-20.48 482.33,-17.61 482.77,-24.6"/>
</g>
<!-- 2&#45;&gt;26 -->
<g id="edge11" class="edge">
<title>2&#45;&gt;26</title>
<path fill="none" stroke="green" stroke-width="0.8" d="M1156.84,-163.06C1230.16,-163.83 1652.24,-165.72 1764.95,-109.54 1773.06,-105.49 1806.96,-66.03 1828.25,-40.68"/>
<polygon fill="green" stroke="green" stroke-width="0.8" points="1830.94,-42.92 1834.67,-33 1825.57,-38.43 1830.94,-42.92"/>
</g>
<!-- 2&#45;&gt;24 -->
<g id="edge12" class="edge">
<title>2&#45;&gt;24</title>
<path fill="none" stroke="green" stroke-width="0.8" d="M1135.24,-162.45C1038.7,-158.11 321.85,-125.42 306.95,-109.54 295.77,-97.62 295.88,-84.8 306.95,-72.77 328.01,-49.89 797.83,-26.4 919.43,-20.69"/>
<polygon fill="green" stroke="green" stroke-width="0.8" points="919.64,-24.19 929.46,-20.22 919.31,-17.19 919.64,-24.19"/>
</g>
<!-- 22 -->
<g id="node26" class="node">
<title>22</title>
<ellipse fill="white" stroke="black" cx="46.95" cy="-91.15" rx="18.27" ry="18.27"/>
<text text-anchor="middle" x="46.95" y="-88.95" font-family="Times,serif" font-size="9.00">22</text>
</g>
<!-- 2&#45;&gt;22 -->
<g id="edge126" class="edge">
<title>2&#45;&gt;22</title>
<path fill="none" stroke="green" stroke-width="0.8" d="M1135.28,-162.53C1027.15,-158.48 132.63,-124.62 78.95,-109.54 76.3,-108.8 73.63,-107.8 71.02,-106.67"/>
<polygon fill="green" stroke="green" stroke-width="0.8" points="72.48,-103.49 61.98,-102.12 69.33,-109.74 72.48,-103.49"/>
</g>
<!-- 27 -->
<g id="node28" class="node">
<title>27</title>
<ellipse fill="white" stroke="black" cx="2610.95" cy="-91.15" rx="18.27" ry="18.27"/>
<text text-anchor="middle" x="2610.95" y="-88.95" font-family="Times,serif" font-size="9.00">27</text>
</g>
<!-- 2&#45;&gt;27 -->
<g id="edge116" class="edge">
<title>2&#45;&gt;27</title>
<path fill="none" stroke="green" stroke-width="0.8" d="M1156.62,-162.49C1242.74,-158.95 1833.43,-134.49 2312.95,-109.54 2411.96,-104.39 2529.42,-97.23 2582.45,-93.94"/>
<polygon fill="green" stroke="green" stroke-width="0.8" points="2582.71,-97.43 2592.47,-93.31 2582.27,-90.44 2582.71,-97.43"/>
</g>
<!-- 3 -->
<g id="node3" class="node">
<title>3</title>
<polygon fill="lightgray" stroke="black" points="1454.45,-100.15 1433.45,-100.15 1433.45,-82.15 1454.45,-82.15 1454.45,-100.15"/>
<text text-anchor="middle" x="1443.95" y="-88.95" font-family="Times,serif" font-size="9.00">3</text>
</g>
<!-- 3&#45;&gt;19 -->
<g id="edge13" class="edge">
<title>3&#45;&gt;19</title>
<path fill="none" stroke="green" stroke-width="0.8" d="M1451.96,-81.94C1455.42,-78.74 1459.65,-75.26 1463.95,-72.77 1504.88,-49.08 1557.99,-33.57 1589.94,-25.66"/>
<polygon fill="green" stroke="green" stroke-width="0.8" points="1591.01,-29 1599.92,-23.26 1589.38,-22.19 1591.01,-29"/>
</g>
<!-- 3&#45;&gt;20 -->
<g id="edge14" class="edge">
<title>3&#45;&gt;20</title>
<path fill="none" stroke="green" stroke-width="0.8" d="M1436.44,-82.07C1432.94,-78.73 1428.54,-75.11 1423.95,-72.77 1357.28,-38.71 1268.62,-26.05 1223.68,-21.61"/>
<polygon fill="green" stroke="green" stroke-width="0.8" points="1223.77,-18.11 1213.5,-20.68 1223.13,-25.08 1223.77,-18.11"/>
</g>
<!-- 3&#45;&gt;25 -->
<g id="edge15" class="edge">
<title>3&#45;&gt;25</title>
<path fill="none" stroke="green" stroke-width="0.8" d="M1450.92,-82.06C1454.44,-78.55 1459.01,-74.79 1463.95,-72.77 1502.97,-56.78 2144.73,-27.15 2289.22,-20.66"/>
<polygon fill="green" stroke="green" stroke-width="0.8" points="2289.64,-24.15 2299.48,-20.2 2289.33,-17.15 2289.64,-24.15"/>
</g>
<!-- 3&#45;&gt;28 -->
<g id="edge16" class="edge">
<title>3&#45;&gt;28</title>
<path fill="none" stroke="green" stroke-width="0.8" d="M1436.98,-82.05C1433.46,-78.54 1428.89,-74.78 1423.95,-72.77 1382.04,-55.69 690.32,-26.68 539.74,-20.54"/>
<polygon fill="green" stroke="green" stroke-width="0.8" points="539.6,-17.04 529.47,-20.13 539.32,-24.03 539.6,-17.04"/>
</g>
<!-- 3&#45;&gt;26 -->
<g id="edge17" class="edge">
<title>3&#45;&gt;26</title>
<path fill="none" stroke="green" stroke-width="0.8" d="M1451.36,-81.87C1454.84,-78.5 1459.26,-74.9 1463.95,-72.77 1527.27,-43.95 1739.45,-26.74 1817.14,-21.29"/>
<polygon fill="green" stroke="green" stroke-width="0.8" points="1817.85,-24.74 1827.59,-20.57 1817.37,-17.76 1817.85,-24.74"/>
</g>
<!-- 3&#45;&gt;24 -->
<g id="edge18" class="edge">
<title>3&#45;&gt;24</title>
<path fill="none" stroke="green" stroke-width="0.8" d="M1436.56,-81.81C1433.08,-78.43 1428.67,-74.84 1423.95,-72.77 1382.89,-54.75 1073.13,-29.2 976.59,-21.6"/>
<polygon fill="green" stroke="green" stroke-width="0.8" points="976.65,-18.09 966.4,-20.8 976.1,-25.07 976.65,-18.09"/>
</g>
<!-- 4 -->
<g id="node4" class="node">
<title>4</title>
<polygon fill="lightgray" stroke="black" points="2161.45,-172.92 2140.45,-172.92 2140.45,-154.92 2161.45,-154.92 2161.45,-172.92"/>
<text text-anchor="middle" x="2150.95" y="-161.72" font-family="Times,serif" font-size="9.00">4</text>
</g>
<!-- 4&#45;&gt;19 -->
<g id="edge19" class="edge">
<title>4&#45;&gt;19</title>
<path fill="none" stroke="green" stroke-width="0.8" d="M2149.83,-154.76C2146.87,-136.59 2137.02,-92.88 2108.95,-72.77 2099.44,-65.96 1749.19,-31.95 1646.17,-22.08"/>
<polygon fill="green" stroke="green" stroke-width="0.8" points="1646.48,-18.59 1636.19,-21.12 1645.81,-25.56 1646.48,-18.59"/>
</g>
<!-- 4&#45;&gt;20 -->
<g id="edge20" class="edge">
<title>4&#45;&gt;20</title>
<path fill="none" stroke="green" stroke-width="0.8" d="M2144,-154.78C2140.48,-151.26 2135.91,-147.51 2130.95,-145.54 2036.68,-108.16 1298.12,-172.91 1218.95,-109.54 1200.54,-94.8 1195.3,-67.66 1194.22,-46.99"/>
<polygon fill="green" stroke="green" stroke-width="0.8" points="1197.71,-46.79 1193.98,-36.88 1190.72,-46.96 1197.71,-46.79"/>
</g>
<!-- 4&#45;&gt;25 -->
<g id="edge21" class="edge">
<title>4&#45;&gt;25</title>
<path fill="none" stroke="green" stroke-width="0.8" d="M2157.92,-154.84C2161.45,-151.33 2166.02,-147.57 2170.95,-145.54 2226.33,-122.7 2668.02,-153.29 2708.95,-109.54 2720.11,-97.6 2719.69,-85.08 2708.95,-72.77 2661.63,-18.55 2428.69,-17.37 2346.62,-18.69"/>
<polygon fill="green" stroke="green" stroke-width="0.8" points="2346.45,-15.19 2336.51,-18.88 2346.58,-22.19 2346.45,-15.19"/>
</g>
<!-- 4&#45;&gt;28 -->
<g id="edge22" class="edge">
<title>4&#45;&gt;28</title>
<path fill="none" stroke="green" stroke-width="0.8" d="M2144.01,-154.74C2140.5,-151.22 2135.93,-147.47 2130.95,-145.54 1969.47,-83.03 725.26,-191.91 572.95,-109.54 547.59,-95.83 530.51,-66.69 520.8,-45.24"/>
<polygon fill="green" stroke="green" stroke-width="0.8" points="524.01,-43.82 516.86,-36 517.57,-46.57 524.01,-43.82"/>
</g>
<!-- 4&#45;&gt;26 -->
<g id="edge23" class="edge">
<title>4&#45;&gt;26</title>
<path fill="none" stroke="green" stroke-width="0.8" d="M2157.93,-154.86C2161.46,-151.36 2166.03,-147.6 2170.95,-145.54 2266.97,-105.37 2567.23,-185.91 2637.95,-109.54 2649.05,-97.55 2649.11,-84.71 2637.95,-72.77 2611.35,-44.31 2013.8,-24.48 1874.7,-20.23"/>
<polygon fill="green" stroke="green" stroke-width="0.8" points="1874.53,-16.73 1864.43,-19.92 1874.32,-23.72 1874.53,-16.73"/>
</g>
<!-- 4&#45;&gt;24 -->
<g id="edge24" class="edge">
<title>4&#45;&gt;24</title>
<path fill="none" stroke="green" stroke-width="0.8" d="M2144,-154.76C2140.49,-151.24 2135.92,-147.49 2130.95,-145.54 2012.96,-99.29 1097.05,-178.85 990.95,-109.54 969.59,-95.58 958.58,-67.89 953.07,-46.86"/>
<polygon fill="green" stroke="green" stroke-width="0.8" points="956.42,-45.8 950.73,-36.87 949.61,-47.4 956.42,-45.8"/>
</g>
<!-- 4&#45;&gt;21 -->
<g id="edge109" class="edge">
<title>4&#45;&gt;21</title>
<path fill="none" stroke="green" stroke-width="0.8" d="M2143,-154.6C2139.55,-151.39 2135.31,-147.92 2130.95,-145.54 2080.46,-117.93 2014.1,-103.14 1977.05,-96.53"/>
<polygon fill="green" stroke="green" stroke-width="0.8" points="1977.43,-93.04 1966.99,-94.81 1976.25,-99.94 1977.43,-93.04"/>
</g>
<!-- 5 -->
<g id="node5" class="node">
<title>5</title>
<polygon fill="lightgray" stroke="black" points="674.45,-172.92 653.45,-172.92 653.45,-154.92 674.45,-154.92 674.45,-172.92"/>
<text text-anchor="middle" x="663.95" y="-161.72" font-family="Times,serif" font-size="9.00">5</text>
</g>
<!-- 5&#45;&gt;19 -->
<g id="edge25" class="edge">
<title>5&#45;&gt;19</title>
<path fill="none" stroke="green" stroke-width="0.8" d="M674.51,-162.52C771.27,-158.79 1501.18,-130.02 1541.95,-109.54 1545.89,-107.56 1578.97,-67.38 1600.17,-41.34"/>
<polygon fill="green" stroke="green" stroke-width="0.8" points="1602.99,-43.41 1606.58,-33.45 1597.56,-39 1602.99,-43.41"/>
</g>
<!-- 5&#45;&gt;20 -->
<g id="edge26" class="edge">
<title>5&#45;&gt;20</title>
<path fill="none" stroke="green" stroke-width="0.8" d="M665.62,-154.73C669.81,-136.5 682.6,-92.67 711.95,-72.77 730.92,-59.91 1065.78,-30.41 1166.52,-21.79"/>
<polygon fill="green" stroke="green" stroke-width="0.8" points="1166.9,-25.27 1176.57,-20.93 1166.31,-18.3 1166.9,-25.27"/>
</g>
<!-- 5&#45;&gt;25 -->
<g id="edge27" class="edge">
<title>5&#45;&gt;25</title>
<path fill="none" stroke="green" stroke-width="0.8" d="M674.6,-162.52C797.43,-157.89 1941.82,-114.67 1975.95,-109.54 2095.71,-91.54 2233.93,-47.76 2291.08,-28.61"/>
<polygon fill="green" stroke="green" stroke-width="0.8" points="2292.43,-31.85 2300.79,-25.33 2290.19,-25.22 2292.43,-31.85"/>
</g>
<!-- 5&#45;&gt;28 -->
<g id="edge28" class="edge">
<title>5&#45;&gt;28</title>
<path fill="none" stroke="green" stroke-width="0.8" d="M653.34,-162.89C573.18,-162.51 64.73,-158.19 19.95,-109.54 8.88,-97.52 9.04,-84.93 19.95,-72.77 50.99,-38.17 381.81,-23.88 482.22,-20.32"/>
<polygon fill="green" stroke="green" stroke-width="0.8" points="482.64,-23.81 492.51,-19.96 482.39,-16.81 482.64,-23.81"/>
</g>
<!-- 5&#45;&gt;26 -->
<g id="edge29" class="edge">
<title>5&#45;&gt;26</title>
<path fill="none" stroke="green" stroke-width="0.8" d="M674.49,-162.47C769.6,-158.34 1478.45,-127.12 1570.95,-109.54 1665.19,-91.63 1771.81,-50.29 1819.94,-30.43"/>
<polygon fill="green" stroke="green" stroke-width="0.8" points="1821.41,-33.61 1829.29,-26.53 1818.72,-27.15 1821.41,-33.61"/>
</g>
<!-- 5&#45;&gt;24 -->
<g id="edge30" class="edge">
<title>5&#45;&gt;24</title>
<path fill="none" stroke="green" stroke-width="0.8" d="M653.38,-163.15C598.03,-164.12 342.39,-165.47 293.95,-109.54 283.25,-97.19 282.87,-84.79 293.95,-72.77 315.47,-49.42 795.84,-26.24 919.25,-20.65"/>
<polygon fill="green" stroke="green" stroke-width="0.8" points="919.6,-24.14 929.43,-20.19 919.28,-17.15 919.6,-24.14"/>
</g>
<!-- 5&#45;&gt;22 -->
<g id="edge124" class="edge">
<title>5&#45;&gt;22</title>
<path fill="none" stroke="green" stroke-width="0.8" d="M653.38,-162.54C583.98,-159.96 192.65,-144.01 78.95,-109.54 76.32,-108.74 73.66,-107.71 71.05,-106.55"/>
<polygon fill="green" stroke="green" stroke-width="0.8" points="72.52,-103.37 62.02,-101.98 69.35,-109.62 72.52,-103.37"/>
</g>
<!-- 6 -->
<g id="node6" class="node">
<title>6</title>
<polygon fill="lightgray" stroke="black" points="1493.45,-100.15 1472.45,-100.15 1472.45,-82.15 1493.45,-82.15 1493.45,-100.15"/>
<text text-anchor="middle" x="1482.95" y="-88.95" font-family="Times,serif" font-size="9.00">6</text>
</g>
<!-- 6&#45;&gt;19 -->
<g id="edge31" class="edge">
<title>6&#45;&gt;19</title>
<path fill="none" stroke="green" stroke-width="0.8" d="M1491.09,-82.15C1494.57,-78.99 1498.78,-75.47 1502.95,-72.77 1531.39,-54.33 1567.23,-38.76 1591.27,-29.28"/>
<polygon fill="green" stroke="green" stroke-width="0.8" points="1592.73,-32.46 1600.8,-25.59 1590.21,-25.93 1592.73,-32.46"/>
</g>
<!-- 6&#45;&gt;20 -->
<g id="edge32" class="edge">
<title>6&#45;&gt;20</title>
<path fill="none" stroke="green" stroke-width="0.8" d="M1475.92,-81.99C1472.61,-78.64 1468.42,-75.03 1463.95,-72.77 1383.41,-32.01 1274.62,-22.34 1223.6,-20.07"/>
<polygon fill="green" stroke="green" stroke-width="0.8" points="1223.47,-16.56 1213.34,-19.68 1223.2,-23.56 1223.47,-16.56"/>
</g>
<!-- 6&#45;&gt;25 -->
<g id="edge33" class="edge">
<title>6&#45;&gt;25</title>
<path fill="none" stroke="green" stroke-width="0.8" d="M1489.92,-82.07C1493.44,-78.56 1498.01,-74.8 1502.95,-72.77 1540.05,-57.5 2148.79,-27.49 2289.21,-20.75"/>
<polygon fill="green" stroke="green" stroke-width="0.8" points="2289.75,-24.23 2299.57,-20.26 2289.41,-17.24 2289.75,-24.23"/>
</g>
<!-- 6&#45;&gt;28 -->
<g id="edge34" class="edge">
<title>6&#45;&gt;28</title>
<path fill="none" stroke="green" stroke-width="0.8" d="M1476.41,-82.05C1473.08,-78.54 1468.73,-74.78 1463.95,-72.77 1442.09,-63.57 696.74,-28.11 539.78,-20.73"/>
<polygon fill="green" stroke="green" stroke-width="0.8" points="539.66,-17.22 529.51,-20.25 539.34,-24.22 539.66,-17.22"/>
</g>
<!-- 6&#45;&gt;26 -->
<g id="edge35" class="edge">
<title>6&#45;&gt;26</title>
<path fill="none" stroke="green" stroke-width="0.8" d="M1490.38,-81.9C1493.86,-78.54 1498.28,-74.94 1502.95,-72.77 1558.96,-46.74 1745.18,-28.17 1817.18,-21.8"/>
<polygon fill="green" stroke="green" stroke-width="0.8" points="1817.67,-25.27 1827.33,-20.92 1817.07,-18.3 1817.67,-25.27"/>
</g>
<!-- 6&#45;&gt;24 -->
<g id="edge36" class="edge">
<title>6&#45;&gt;24</title>
<path fill="none" stroke="green" stroke-width="0.8" d="M1476.36,-82.15C1473.02,-78.66 1468.68,-74.89 1463.95,-72.77 1441.51,-62.69 1081.42,-30.92 976.45,-21.83"/>
<polygon fill="green" stroke="green" stroke-width="0.8" points="976.56,-18.33 966.29,-20.96 975.96,-25.31 976.56,-18.33"/>
</g>
<!-- 7 -->
<g id="node7" class="node">
<title>7</title>
<polygon fill="lightgray" stroke="black" points="1532.45,-100.15 1511.45,-100.15 1511.45,-82.15 1532.45,-82.15 1532.45,-100.15"/>
<text text-anchor="middle" x="1521.95" y="-88.95" font-family="Times,serif" font-size="9.00">7</text>
</g>
<!-- 7&#45;&gt;19 -->
<g id="edge37" class="edge">
<title>7&#45;&gt;19</title>
<path fill="none" stroke="green" stroke-width="0.8" d="M1532.59,-82.31C1547.64,-71.21 1575.53,-50.66 1595.33,-36.06"/>
<polygon fill="green" stroke="green" stroke-width="0.8" points="1597.54,-38.78 1603.52,-30.02 1593.39,-33.14 1597.54,-38.78"/>
</g>
<!-- 7&#45;&gt;20 -->
<g id="edge38" class="edge">
<title>7&#45;&gt;20</title>
<path fill="none" stroke="green" stroke-width="0.8" d="M1514.94,-81.94C1511.64,-78.58 1507.44,-74.98 1502.95,-72.77 1408.41,-26.36 1280.21,-19.64 1223.71,-19.1"/>
<polygon fill="green" stroke="green" stroke-width="0.8" points="1223.41,-15.6 1213.4,-19.06 1223.39,-22.6 1223.41,-15.6"/>
</g>
<!-- 7&#45;&gt;25 -->
<g id="edge39" class="edge">
<title>7&#45;&gt;25</title>
<path fill="none" stroke="green" stroke-width="0.8" d="M1532.6,-89.21C1615.59,-81.83 2159.02,-33.51 2289.71,-21.9"/>
<polygon fill="green" stroke="green" stroke-width="0.8" points="2290.09,-25.38 2299.74,-21 2289.47,-18.4 2290.09,-25.38"/>
</g>
<!-- 7&#45;&gt;28 -->
<g id="edge40" class="edge">
<title>7&#45;&gt;28</title>
<path fill="none" stroke="green" stroke-width="0.8" d="M1515.41,-82.04C1512.08,-78.53 1507.73,-74.78 1502.95,-72.77 1480.12,-63.19 699.47,-27.81 539.44,-20.65"/>
<polygon fill="green" stroke="green" stroke-width="0.8" points="539.55,-17.16 529.41,-20.21 539.24,-24.15 539.55,-17.16"/>
</g>
<!-- 7&#45;&gt;26 -->
<g id="edge41" class="edge">
<title>7&#45;&gt;26</title>
<path fill="none" stroke="green" stroke-width="0.8" d="M1532.73,-87.8C1577.55,-78.01 1749.96,-40.35 1818.06,-25.48"/>
<polygon fill="green" stroke="green" stroke-width="0.8" points="1819.03,-28.85 1828.05,-23.29 1817.54,-22.01 1819.03,-28.85"/>
</g>
<!-- 7&#45;&gt;24 -->
<g id="edge42" class="edge">
<title>7&#45;&gt;24</title>
<path fill="none" stroke="green" stroke-width="0.8" d="M1515.37,-82.13C1512.03,-78.64 1507.69,-74.88 1502.95,-72.77 1478.63,-61.96 1086.49,-30.32 976.46,-21.62"/>
<polygon fill="green" stroke="green" stroke-width="0.8" points="976.67,-18.13 966.43,-20.83 976.12,-25.11 976.67,-18.13"/>
</g>
<!-- 8 -->
<g id="node8" class="node">
<title>8</title>
<polygon fill="lightgray" stroke="black" points="1282.45,-100.15 1261.45,-100.15 1261.45,-82.15 1282.45,-82.15 1282.45,-100.15"/>
<text text-anchor="middle" x="1271.95" y="-88.95" font-family="Times,serif" font-size="9.00">8</text>
</g>
<!-- 8&#45;&gt;19 -->
<g id="edge43" class="edge">
<title>8&#45;&gt;19</title>
<path fill="none" stroke="green" stroke-width="0.8" d="M1279.39,-81.92C1282.87,-78.56 1287.28,-74.96 1291.95,-72.77 1393.6,-25.04 1530.48,-19.1 1589.22,-18.94"/>
<polygon fill="green" stroke="green" stroke-width="0.8" points="1589.24,-22.44 1599.25,-18.96 1589.26,-15.44 1589.24,-22.44"/>
</g>
<!-- 8&#45;&gt;20 -->
<g id="edge44" class="edge">
<title>8&#45;&gt;20</title>
<path fill="none" stroke="green" stroke-width="0.8" d="M1263.12,-82.04C1251.61,-71.46 1231.14,-52.65 1215.62,-38.39"/>
<polygon fill="green" stroke="green" stroke-width="0.8" points="1217.77,-35.6 1208.04,-31.41 1213.03,-40.76 1217.77,-35.6"/>
</g>
<!-- 8&#45;&gt;25 -->
<g id="edge45" class="edge">
<title>8&#45;&gt;25</title>
<path fill="none" stroke="green" stroke-width="0.8" d="M1278.91,-82.04C1282.43,-78.52 1287,-74.77 1291.95,-72.77 1315.72,-63.17 2124.72,-27.74 2289.01,-20.63"/>
<polygon fill="green" stroke="green" stroke-width="0.8" points="2289.46,-24.12 2299.3,-20.19 2289.16,-17.12 2289.46,-24.12"/>
</g>
<!-- 8&#45;&gt;28 -->
<g id="edge46" class="edge">
<title>8&#45;&gt;28</title>
<path fill="none" stroke="green" stroke-width="0.8" d="M1261.19,-89.15C1180.27,-81.63 666.68,-33.87 539.44,-22.03"/>
<polygon fill="green" stroke="green" stroke-width="0.8" points="539.6,-18.53 529.32,-21.09 538.95,-25.5 539.6,-18.53"/>
</g>
<!-- 8&#45;&gt;26 -->
<g id="edge47" class="edge">
<title>8&#45;&gt;26</title>
<path fill="none" stroke="green" stroke-width="0.8" d="M1278.95,-82.13C1282.48,-78.64 1287.05,-74.88 1291.95,-72.77 1304.18,-67.51 1706.02,-31.74 1817.51,-21.89"/>
<polygon fill="green" stroke="green" stroke-width="0.8" points="1818.01,-25.36 1827.66,-20.99 1817.39,-18.39 1818.01,-25.36"/>
</g>
<!-- 8&#45;&gt;24 -->
<g id="edge48" class="edge">
<title>8&#45;&gt;24</title>
<path fill="none" stroke="green" stroke-width="0.8" d="M1261.17,-87.8C1216.35,-78.01 1043.93,-40.35 975.84,-25.48"/>
<polygon fill="green" stroke="green" stroke-width="0.8" points="976.36,-22.01 965.84,-23.29 974.87,-28.85 976.36,-22.01"/>
</g>
<!-- 9 -->
<g id="node9" class="node">
<title>9</title>
<polygon fill="lightgray" stroke="black" points="2039.45,-172.92 2018.45,-172.92 2018.45,-154.92 2039.45,-154.92 2039.45,-172.92"/>
<text text-anchor="middle" x="2028.95" y="-161.72" font-family="Times,serif" font-size="9.00">9</text>
</g>
<!-- 9&#45;&gt;19 -->
<g id="edge49" class="edge">
<title>9&#45;&gt;19</title>
<path fill="none" stroke="green" stroke-width="0.8" d="M2028.34,-154.86C2026.52,-136.91 2019.45,-93.6 1992.95,-72.77 1965.71,-51.36 1729.14,-29.02 1646.39,-21.79"/>
<polygon fill="green" stroke="green" stroke-width="0.8" points="1646.69,-18.3 1636.42,-20.93 1646.08,-25.28 1646.69,-18.3"/>
</g>
<!-- 9&#45;&gt;20 -->
<g id="edge50" class="edge">
<title>9&#45;&gt;20</title>
<path fill="none" stroke="green" stroke-width="0.8" d="M2018.45,-158.91C2006.97,-154.74 1987.95,-148.41 1970.95,-145.54 1925.55,-137.87 1174.79,-142.8 1142.95,-109.54 1122.14,-87.8 1150.41,-56.19 1172.72,-36.75"/>
<polygon fill="green" stroke="green" stroke-width="0.8" points="1175.14,-39.29 1180.56,-30.18 1170.65,-33.92 1175.14,-39.29"/>
</g>
<!-- 9&#45;&gt;25 -->
<g id="edge51" class="edge">
<title>9&#45;&gt;25</title>
<path fill="none" stroke="green" stroke-width="0.8" d="M2039.58,-157.65C2080.96,-137.09 2232.02,-62.07 2292.58,-31.98"/>
<polygon fill="green" stroke="green" stroke-width="0.8" points="2294.42,-34.98 2301.82,-27.4 2291.31,-28.71 2294.42,-34.98"/>
</g>
<!-- 9&#45;&gt;28 -->
<g id="edge52" class="edge">
<title>9&#45;&gt;28</title>
<path fill="none" stroke="green" stroke-width="0.8" d="M2018.03,-158.7C2006.53,-154.47 1987.77,-148.22 1970.95,-145.54 1890.05,-132.67 554.16,-168.16 496.95,-109.54 480.14,-92.32 488.22,-63.78 497.56,-43.43"/>
<polygon fill="green" stroke="green" stroke-width="0.8" points="500.7,-44.96 502,-34.45 494.43,-41.86 500.7,-44.96"/>
</g>
<!-- 9&#45;&gt;26 -->
<g id="edge53" class="edge">
<title>9&#45;&gt;26</title>
<path fill="none" stroke="green" stroke-width="0.8" d="M2031.48,-154.92C2036.33,-137.82 2044.91,-97.31 2025.95,-72.77 1990.09,-26.36 1915.72,-18.82 1874.69,-18.43"/>
<polygon fill="green" stroke="green" stroke-width="0.8" points="1874.52,-14.93 1864.54,-18.48 1874.56,-21.93 1874.52,-14.93"/>
</g>
<!-- 9&#45;&gt;24 -->
<g id="edge54" class="edge">
<title>9&#45;&gt;24</title>
<path fill="none" stroke="green" stroke-width="0.8" d="M2018.03,-158.73C2006.52,-154.53 1987.75,-148.3 1970.95,-145.54 1913.02,-136.03 955.74,-151.75 914.95,-109.54 896.6,-90.56 913.59,-60.56 929.21,-40.44"/>
<polygon fill="green" stroke="green" stroke-width="0.8" points="932.09,-42.44 935.71,-32.48 926.67,-38.01 932.09,-42.44"/>
</g>
<!-- 9&#45;&gt;27 -->
<g id="edge117" class="edge">
<title>9&#45;&gt;27</title>
<path fill="none" stroke="green" stroke-width="0.8" d="M2039.47,-159.01C2050.96,-154.92 2069.99,-148.66 2086.95,-145.54 2302.57,-105.83 2368.56,-171.26 2578.95,-109.54 2581.59,-108.76 2584.25,-107.75 2586.86,-106.6"/>
<polygon fill="green" stroke="green" stroke-width="0.8" points="2588.55,-109.67 2595.9,-102.04 2585.4,-103.42 2588.55,-109.67"/>
</g>
<!-- 10 -->
<g id="node10" class="node">
<title>10</title>
<polygon fill="lightgray" stroke="black" points="1687.95,-172.92 1661.95,-172.92 1661.95,-154.92 1687.95,-154.92 1687.95,-172.92"/>
<text text-anchor="middle" x="1674.95" y="-161.72" font-family="Times,serif" font-size="9.00">10</text>
</g>
<!-- 10&#45;&gt;19 -->
<g id="edge55" class="edge">
<title>10&#45;&gt;19</title>
<path fill="none" stroke="green" stroke-width="0.8" d="M1671.72,-154.8C1663.48,-134.05 1641.4,-78.44 1628.24,-45.29"/>
<polygon fill="green" stroke="green" stroke-width="0.8" points="1631.41,-43.79 1624.46,-35.79 1624.9,-46.38 1631.41,-43.79"/>
</g>
<!-- 10&#45;&gt;20 -->
<g id="edge56" class="edge">
<title>10&#45;&gt;20</title>
<path fill="none" stroke="green" stroke-width="0.8" d="M1667.14,-154.81C1663.24,-151.3 1658.23,-147.55 1652.95,-145.54 1588.03,-120.87 1076.62,-160.04 1028.95,-109.54 984.34,-62.28 1108.26,-34.16 1166.53,-23.87"/>
<polygon fill="green" stroke="green" stroke-width="0.8" points="1167.32,-27.29 1176.59,-22.16 1166.14,-20.39 1167.32,-27.29"/>
</g>
<!-- 10&#45;&gt;25 -->
<g id="edge57" class="edge">
<title>10&#45;&gt;25</title>
<path fill="none" stroke="green" stroke-width="0.8" d="M1683.17,-154.8C1687.26,-151.29 1692.5,-147.54 1697.95,-145.54 1766.18,-120.54 2301,-162.32 2350.95,-109.54 2369.09,-90.37 2352.16,-60.41 2336.6,-40.35"/>
<polygon fill="green" stroke="green" stroke-width="0.8" points="2339.16,-37.95 2330.13,-32.42 2333.74,-42.38 2339.16,-37.95"/>
</g>
<!-- 10&#45;&gt;28 -->
<g id="edge58" class="edge">
<title>10&#45;&gt;28</title>
<path fill="none" stroke="green" stroke-width="0.8" d="M1667.15,-154.8C1663.24,-151.29 1658.23,-147.53 1652.95,-145.54 1511.37,-92.12 1123.13,-128.08 972.95,-109.54 806.7,-89.02 610.49,-43.56 538.88,-26.26"/>
<polygon fill="green" stroke="green" stroke-width="0.8" points="539.4,-22.78 528.86,-23.82 537.75,-29.58 539.4,-22.78"/>
</g>
<!-- 10&#45;&gt;26 -->
<g id="edge59" class="edge">
<title>10&#45;&gt;26</title>
<path fill="none" stroke="green" stroke-width="0.8" d="M1683.8,-154.91C1687.86,-151.59 1692.89,-147.96 1697.95,-145.54 1757.05,-117.21 1799.24,-160.09 1840.95,-109.54 1855.24,-92.22 1855.1,-66.05 1852.21,-46.36"/>
<polygon fill="green" stroke="green" stroke-width="0.8" points="1855.65,-45.7 1850.45,-36.46 1848.75,-46.92 1855.65,-45.7"/>
</g>
<!-- 10&#45;&gt;24 -->
<g id="edge60" class="edge">
<title>10&#45;&gt;24</title>
<path fill="none" stroke="green" stroke-width="0.8" d="M1667.14,-154.81C1663.24,-151.3 1658.23,-147.54 1652.95,-145.54 1520.18,-95.18 1139.97,-176.87 1014.95,-109.54 988.74,-95.43 969.97,-66.1 959.08,-44.71"/>
<polygon fill="green" stroke="green" stroke-width="0.8" points="962.14,-43 954.64,-35.53 955.84,-46.05 962.14,-43"/>
</g>
<!-- 10&#45;&gt;21 -->
<g id="edge127" class="edge">
<title>10&#45;&gt;21</title>
<path fill="none" stroke="green" stroke-width="0.8" d="M1683.74,-154.79C1687.79,-151.45 1692.83,-147.83 1697.95,-145.54 1772.78,-111.96 1798.9,-127.43 1878.95,-109.54 1892.89,-106.42 1908.3,-102.63 1921.11,-99.39"/>
<polygon fill="green" stroke="green" stroke-width="0.8" points="1922.34,-102.68 1931.17,-96.82 1920.61,-95.9 1922.34,-102.68"/>
</g>
<!-- 11 -->
<g id="node11" class="node">
<title>11</title>
<polygon fill="lightgray" stroke="black" points="1326.95,-100.15 1300.95,-100.15 1300.95,-82.15 1326.95,-82.15 1326.95,-100.15"/>
<text text-anchor="middle" x="1313.95" y="-88.95" font-family="Times,serif" font-size="9.00">11</text>
</g>
<!-- 11&#45;&gt;19 -->
<g id="edge61" class="edge">
<title>11&#45;&gt;19</title>
<path fill="none" stroke="green" stroke-width="0.8" d="M1322.29,-81.99C1326.16,-78.64 1330.99,-75.03 1335.95,-72.77 1422.5,-33.29 1536.8,-23.01 1589.32,-20.33"/>
<polygon fill="green" stroke="green" stroke-width="0.8" points="1589.73,-23.81 1599.56,-19.86 1589.41,-16.82 1589.73,-23.81"/>
</g>
<!-- 11&#45;&gt;20 -->
<g id="edge62" class="edge">
<title>11&#45;&gt;20</title>
<path fill="none" stroke="green" stroke-width="0.8" d="M1304.35,-82.01C1300.59,-78.96 1296.17,-75.57 1291.95,-72.77 1268.55,-57.24 1240.27,-42.05 1220.3,-31.87"/>
<polygon fill="green" stroke="green" stroke-width="0.8" points="1221.72,-28.67 1211.22,-27.29 1218.57,-34.92 1221.72,-28.67"/>
</g>
<!-- 11&#45;&gt;25 -->
<g id="edge63" class="edge">
<title>11&#45;&gt;25</title>
<path fill="none" stroke="green" stroke-width="0.8" d="M1321.75,-82.04C1325.65,-78.52 1330.67,-74.77 1335.95,-72.77 1381.66,-55.48 2131.4,-26.4 2289.02,-20.46"/>
<polygon fill="green" stroke="green" stroke-width="0.8" points="2289.46,-23.95 2299.32,-20.08 2289.2,-16.95 2289.46,-23.95"/>
</g>
<!-- 11&#45;&gt;28 -->
<g id="edge64" class="edge">
<title>11&#45;&gt;28</title>
<path fill="none" stroke="green" stroke-width="0.8" d="M1306.13,-82.07C1302.23,-78.56 1297.22,-74.8 1291.95,-72.77 1220.66,-45.24 671.73,-24.88 539.52,-20.34"/>
<polygon fill="green" stroke="green" stroke-width="0.8" points="539.5,-16.83 529.38,-19.99 539.26,-23.83 539.5,-16.83"/>
</g>
<!-- 11&#45;&gt;26 -->
<g id="edge65" class="edge">
<title>11&#45;&gt;26</title>
<path fill="none" stroke="green" stroke-width="0.8" d="M1321.8,-82.15C1325.71,-78.67 1330.72,-74.9 1335.95,-72.77 1358.45,-63.61 1713.35,-31.26 1817.45,-21.92"/>
<polygon fill="green" stroke="green" stroke-width="0.8" points="1817.89,-25.4 1827.54,-21.02 1817.27,-18.43 1817.89,-25.4"/>
</g>
<!-- 11&#45;&gt;24 -->
<g id="edge66" class="edge">
<title>11&#45;&gt;24</title>
<path fill="none" stroke="green" stroke-width="0.8" d="M1305.64,-81.91C1301.78,-78.55 1296.95,-74.95 1291.95,-72.77 1235.17,-48 1048.78,-28.67 976.73,-21.95"/>
<polygon fill="green" stroke="green" stroke-width="0.8" points="976.85,-18.45 966.57,-21.02 976.21,-25.42 976.85,-18.45"/>
</g>
<!-- 12 -->
<g id="node12" class="node">
<title>12</title>
<polygon fill="lightgray" stroke="black" points="1961.95,-172.92 1935.95,-172.92 1935.95,-154.92 1961.95,-154.92 1961.95,-172.92"/>
<text text-anchor="middle" x="1948.95" y="-161.72" font-family="Times,serif" font-size="9.00">12</text>
</g>
<!-- 12&#45;&gt;19 -->
<g id="edge67" class="edge">
<title>12&#45;&gt;19</title>
<path fill="none" stroke="green" stroke-width="0.8" d="M1955.73,-154.91C1969.37,-137.8 1997.07,-97.27 1975.95,-72.77 1954.4,-47.77 1727.16,-27.85 1646.31,-21.51"/>
<polygon fill="green" stroke="green" stroke-width="0.8" points="1646.57,-18.02 1636.33,-20.74 1646.03,-25 1646.57,-18.02"/>
</g>
<!-- 12&#45;&gt;20 -->
<g id="edge68" class="edge">
<title>12&#45;&gt;20</title>
<path fill="none" stroke="green" stroke-width="0.8" d="M1935.56,-161.71C1902.1,-158.7 1812.1,-150.76 1736.95,-145.54 1666.78,-140.66 1153.25,-160.67 1104.95,-109.54 1093.73,-97.66 1096.86,-86.97 1104.95,-72.77 1118.3,-49.33 1146.44,-35.12 1167.72,-27.32"/>
<polygon fill="green" stroke="green" stroke-width="0.8" points="1168.89,-30.62 1177.23,-24.09 1166.64,-23.99 1168.89,-30.62"/>
</g>
<!-- 12&#45;&gt;25 -->
<g id="edge69" class="edge">
<title>12&#45;&gt;25</title>
<path fill="none" stroke="green" stroke-width="0.8" d="M1962.34,-158.3C1974.58,-154.27 1993.27,-148.61 2009.95,-145.54 2055.69,-137.13 2395.51,-143.81 2426.95,-109.54 2438,-97.5 2435.6,-86.64 2426.95,-72.77 2409.4,-44.64 2372.26,-30.92 2346.23,-24.53"/>
<polygon fill="green" stroke="green" stroke-width="0.8" points="2346.71,-21.05 2336.18,-22.28 2345.18,-27.88 2346.71,-21.05"/>
</g>
<!-- 12&#45;&gt;28 -->
<g id="edge70" class="edge">
<title>12&#45;&gt;28</title>
<path fill="none" stroke="green" stroke-width="0.8" d="M1935.57,-161.58C1902.13,-158.26 1812.17,-149.68 1736.95,-145.54 1701.49,-143.59 483.7,-135 458.95,-109.54 437.97,-87.96 466.3,-56.3 488.65,-36.81"/>
<polygon fill="green" stroke="green" stroke-width="0.8" points="491.1,-39.33 496.52,-30.22 486.61,-33.96 491.1,-39.33"/>
</g>
<!-- 12&#45;&gt;26 -->
<g id="edge71" class="edge">
<title>12&#45;&gt;26</title>
<path fill="none" stroke="green" stroke-width="0.8" d="M1962.21,-155.76C1976.79,-147.03 1999.42,-130.78 2008.95,-109.54 2015.64,-94.63 2018.54,-86 2008.95,-72.77 1978.25,-30.42 1912.94,-21.05 1874.96,-19.34"/>
<polygon fill="green" stroke="green" stroke-width="0.8" points="1874.68,-15.83 1864.58,-19.04 1874.47,-22.83 1874.68,-15.83"/>
</g>
<!-- 12&#45;&gt;24 -->
<g id="edge72" class="edge">
<title>12&#45;&gt;24</title>
<path fill="none" stroke="green" stroke-width="0.8" d="M1935.57,-161.64C1902.12,-158.47 1812.14,-150.19 1736.95,-145.54 1689.22,-142.58 910.05,-144.05 876.95,-109.54 865.64,-97.74 869.65,-87.39 876.95,-72.77 886.33,-53.97 905.84,-40.06 922.04,-31.16"/>
<polygon fill="green" stroke="green" stroke-width="0.8" points="923.8,-34.19 931.09,-26.5 920.6,-27.96 923.8,-34.19"/>
</g>
<!-- 12&#45;&gt;21 -->
<g id="edge128" class="edge">
<title>12&#45;&gt;21</title>
<path fill="none" stroke="green" stroke-width="0.8" d="M1948.95,-154.81C1948.95,-146.24 1948.95,-132.26 1948.95,-119.68"/>
<polygon fill="green" stroke="green" stroke-width="0.8" points="1952.45,-119.59 1948.95,-109.59 1945.45,-119.59 1952.45,-119.59"/>
</g>
<!-- 13 -->
<g id="node13" class="node">
<title>13</title>
<polygon fill="lightgray" stroke="black" points="2328.95,-236.31 2302.95,-236.31 2302.95,-218.31 2328.95,-218.31 2328.95,-236.31"/>
<text text-anchor="middle" x="2315.95" y="-225.11" font-family="Times,serif" font-size="9.00">13</text>
</g>
<!-- 13&#45;&gt;19 -->
<g id="edge73" class="edge">
<title>13&#45;&gt;19</title>
<path fill="none" stroke="green" stroke-width="0.8" d="M2302.67,-225.15C2259.32,-221.18 2122.72,-206.92 2086.95,-182.31 2039.74,-149.83 2067.07,-103.87 2018.95,-72.77 1987.66,-52.55 1732.78,-29.17 1646.43,-21.76"/>
<polygon fill="green" stroke="green" stroke-width="0.8" points="1646.57,-18.26 1636.31,-20.9 1645.97,-25.24 1646.57,-18.26"/>
</g>
<!-- 13&#45;&gt;20 -->
<g id="edge74" class="edge">
<title>13&#45;&gt;20</title>
<path fill="none" stroke="green" stroke-width="0.8" d="M2302.75,-226.22C2147.59,-225.11 675.64,-213.82 644.95,-182.31 616.41,-153 666.67,-80.89 677.95,-72.77 697.95,-58.37 1060.49,-29.66 1166.23,-21.56"/>
<polygon fill="green" stroke="green" stroke-width="0.8" points="1166.76,-25.03 1176.46,-20.78 1166.23,-18.05 1166.76,-25.03"/>
</g>
<!-- 13&#45;&gt;25 -->
<g id="edge75" class="edge">
<title>13&#45;&gt;25</title>
<path fill="none" stroke="green" stroke-width="0.8" d="M2329.01,-226.2C2405.07,-225.46 2788.54,-219.83 2822.95,-182.31 2834.84,-169.34 2841.37,-94.86 2820.95,-72.77 2788.56,-37.74 2448.64,-23.71 2346.69,-20.27"/>
<polygon fill="green" stroke="green" stroke-width="0.8" points="2346.63,-16.77 2336.52,-19.94 2346.4,-23.77 2346.63,-16.77"/>
</g>
<!-- 13&#45;&gt;28 -->
<g id="edge76" class="edge">
<title>13&#45;&gt;28</title>
<path fill="none" stroke="green" stroke-width="0.8" d="M2302.61,-226.19C2139.15,-224.68 524.33,-209.12 314.95,-182.31 175.86,-164.5 94.92,-219.54 7.95,-109.54 -2.19,-96.72 -2.98,-84.92 7.95,-72.77 39.86,-37.3 380.11,-23.58 482.17,-20.24"/>
<polygon fill="green" stroke="green" stroke-width="0.8" points="482.47,-23.74 492.35,-19.92 482.25,-16.74 482.47,-23.74"/>
</g>
<!-- 13&#45;&gt;26 -->
<g id="edge77" class="edge">
<title>13&#45;&gt;26</title>
<path fill="none" stroke="green" stroke-width="0.8" d="M2329.15,-226.11C2383.22,-225.08 2587.22,-218.8 2637.95,-182.31 2679.55,-152.38 2709,-110.15 2673.95,-72.77 2659.97,-57.86 2019.28,-27.39 1874.72,-20.7"/>
<polygon fill="green" stroke="green" stroke-width="0.8" points="1874.6,-17.19 1864.45,-20.23 1874.28,-24.19 1874.6,-17.19"/>
</g>
<!-- 13&#45;&gt;24 -->
<g id="edge78" class="edge">
<title>13&#45;&gt;24</title>
<path fill="none" stroke="green" stroke-width="0.8" d="M2302.89,-226.29C2165.41,-226.05 982.03,-222.84 631.95,-182.31 473.69,-163.98 381.52,-233.1 280.95,-109.54 270.63,-96.86 269.86,-84.78 280.95,-72.77 302.94,-48.95 793.88,-26.07 919.09,-20.61"/>
<polygon fill="green" stroke="green" stroke-width="0.8" points="919.57,-24.09 929.41,-20.17 919.27,-17.1 919.57,-24.09"/>
</g>
<!-- 23 -->
<g id="node27" class="node">
<title>23</title>
<ellipse fill="white" stroke="black" cx="2610.95" cy="-163.92" rx="18.27" ry="18.27"/>
<text text-anchor="middle" x="2610.95" y="-161.72" font-family="Times,serif" font-size="9.00">23</text>
</g>
<!-- 13&#45;&gt;23 -->
<g id="edge120" class="edge">
<title>13&#45;&gt;23</title>
<path fill="none" stroke="green" stroke-width="0.8" d="M2329.01,-223.59C2373.7,-214.29 2521.2,-183.6 2583.16,-170.71"/>
<polygon fill="green" stroke="green" stroke-width="0.8" points="2583.94,-174.12 2593.02,-168.66 2582.51,-167.27 2583.94,-174.12"/>
</g>
<!-- 13&#45;&gt;27 -->
<g id="edge112" class="edge">
<title>13&#45;&gt;27</title>
<path fill="none" stroke="green" stroke-width="0.8" d="M2329.01,-220.37C2374.21,-199.81 2524.61,-131.42 2585.26,-103.83"/>
<polygon fill="green" stroke="green" stroke-width="0.8" points="2586.87,-106.95 2594.53,-99.62 2583.97,-100.58 2586.87,-106.95"/>
</g>
<!-- 14 -->
<g id="node14" class="node">
<title>14</title>
<polygon fill="lightgray" stroke="black" points="2205.95,-172.92 2179.95,-172.92 2179.95,-154.92 2205.95,-154.92 2205.95,-172.92"/>
<text text-anchor="middle" x="2192.95" y="-161.72" font-family="Times,serif" font-size="9.00">14</text>
</g>
<!-- 14&#45;&gt;19 -->
<g id="edge79" class="edge">
<title>14&#45;&gt;19</title>
<path fill="none" stroke="green" stroke-width="0.8" d="M2190.48,-154.67C2184.51,-136.33 2167.43,-92.28 2135.95,-72.77 2125.42,-66.24 1753.07,-31.75 1646.3,-21.97"/>
<polygon fill="green" stroke="green" stroke-width="0.8" points="1646.54,-18.48 1636.26,-21.05 1645.9,-25.45 1646.54,-18.48"/>
</g>
<!-- 14&#45;&gt;20 -->
<g id="edge80" class="edge">
<title>14&#45;&gt;20</title>
<path fill="none" stroke="green" stroke-width="0.8" d="M2185.16,-154.77C2181.26,-151.25 2176.25,-147.5 2170.95,-145.54 2075.2,-110.16 1341.58,-160.19 1252.95,-109.54 1239.9,-102.08 1220.22,-68.13 1207.48,-44.1"/>
<polygon fill="green" stroke="green" stroke-width="0.8" points="1210.53,-42.38 1202.8,-35.14 1204.32,-45.62 1210.53,-42.38"/>
</g>
<!-- 14&#45;&gt;25 -->
<g id="edge81" class="edge">
<title>14&#45;&gt;25</title>
<path fill="none" stroke="green" stroke-width="0.8" d="M2206.21,-162.23C2291.92,-157.69 2764.69,-131.7 2784.95,-109.54 2795.97,-97.48 2795.83,-84.96 2784.95,-72.77 2755.62,-39.9 2443.52,-24.5 2346.54,-20.48"/>
<polygon fill="green" stroke="green" stroke-width="0.8" points="2346.44,-16.98 2336.31,-20.07 2346.16,-23.97 2346.44,-16.98"/>
</g>
<!-- 14&#45;&gt;28 -->
<g id="edge82" class="edge">
<title>14&#45;&gt;28</title>
<path fill="none" stroke="green" stroke-width="0.8" d="M2185.16,-154.75C2181.27,-151.23 2176.25,-147.48 2170.95,-145.54 2057.05,-103.85 1200.69,-121.05 1079.95,-109.54 870.58,-89.58 621.25,-41.58 538.88,-25.07"/>
<polygon fill="green" stroke="green" stroke-width="0.8" points="539.52,-21.63 529.02,-23.09 538.14,-28.49 539.52,-21.63"/>
</g>
<!-- 14&#45;&gt;26 -->
<g id="edge83" class="edge">
<title>14&#45;&gt;26</title>
<path fill="none" stroke="green" stroke-width="0.8" d="M2206.28,-162.42C2278.96,-159.55 2625.13,-144.12 2655.95,-109.54 2666.82,-97.34 2667.12,-84.7 2655.95,-72.77 2642.29,-58.18 2016.85,-27.53 1874.55,-20.74"/>
<polygon fill="green" stroke="green" stroke-width="0.8" points="1874.59,-17.24 1864.43,-20.26 1874.25,-24.23 1874.59,-17.24"/>
</g>
<!-- 14&#45;&gt;24 -->
<g id="edge84" class="edge">
<title>14&#45;&gt;24</title>
<path fill="none" stroke="green" stroke-width="0.8" d="M2185.16,-154.77C2181.26,-151.25 2176.25,-147.49 2170.95,-145.54 1972.74,-72.44 1428.86,-147.03 1220.95,-109.54 1127.17,-92.63 1021.43,-50.8 973.73,-30.62"/>
<polygon fill="green" stroke="green" stroke-width="0.8" points="975.02,-27.37 964.45,-26.66 972.27,-33.81 975.02,-27.37"/>
</g>
<!-- 14&#45;&gt;21 -->
<g id="edge111" class="edge">
<title>14&#45;&gt;21</title>
<path fill="none" stroke="green" stroke-width="0.8" d="M2184.55,-154.87C2180.68,-151.55 2175.85,-147.92 2170.95,-145.54 2106.04,-113.99 2021.16,-100.32 1977.56,-95.05"/>
<polygon fill="green" stroke="green" stroke-width="0.8" points="1977.73,-91.54 1967.4,-93.88 1976.93,-98.5 1977.73,-91.54"/>
</g>
<!-- 15 -->
<g id="node15" class="node">
<title>15</title>
<polygon fill="lightgray" stroke="black" points="2121.95,-172.92 2095.95,-172.92 2095.95,-154.92 2121.95,-154.92 2121.95,-172.92"/>
<text text-anchor="middle" x="2108.95" y="-161.72" font-family="Times,serif" font-size="9.00">15</text>
</g>
<!-- 15&#45;&gt;19 -->
<g id="edge85" class="edge">
<title>15&#45;&gt;19</title>
<path fill="none" stroke="green" stroke-width="0.8" d="M2109.53,-154.91C2110.32,-137.06 2109.47,-93.94 2084.95,-72.77 2068.22,-58.33 1745.4,-30.1 1646.5,-21.76"/>
<polygon fill="green" stroke="green" stroke-width="0.8" points="1646.61,-18.26 1636.35,-20.91 1646.02,-25.23 1646.61,-18.26"/>
</g>
<!-- 15&#45;&gt;20 -->
<g id="edge86" class="edge">
<title>15&#45;&gt;20</title>
<path fill="none" stroke="green" stroke-width="0.8" d="M2095.81,-158.12C2083.8,-153.97 2065.43,-148.23 2048.95,-145.54 2001.31,-137.77 1214.36,-144.37 1180.95,-109.54 1164.46,-92.35 1172.17,-64.24 1181.35,-43.98"/>
<polygon fill="green" stroke="green" stroke-width="0.8" points="1184.61,-45.26 1185.87,-34.74 1178.33,-42.19 1184.61,-45.26"/>
</g>
<!-- 15&#45;&gt;25 -->
<g id="edge87" class="edge">
<title>15&#45;&gt;25</title>
<path fill="none" stroke="green" stroke-width="0.8" d="M2117.18,-154.84C2121.28,-151.34 2126.51,-147.58 2131.95,-145.54 2184.72,-125.73 2599.53,-150.78 2637.95,-109.54 2649.09,-97.58 2648.51,-85.24 2637.95,-72.77 2600.64,-28.72 2417.92,-20.99 2346.57,-19.65"/>
<polygon fill="green" stroke="green" stroke-width="0.8" points="2346.55,-16.15 2336.5,-19.49 2346.44,-23.15 2346.55,-16.15"/>
</g>
<!-- 15&#45;&gt;28 -->
<g id="edge88" class="edge">
<title>15&#45;&gt;28</title>
<path fill="none" stroke="green" stroke-width="0.8" d="M2095.83,-158.05C2083.82,-153.86 2065.46,-148.08 2048.95,-145.54 1965.8,-132.73 601.04,-161.6 534.95,-109.54 516.42,-94.94 511.21,-67.78 510.15,-47.07"/>
<polygon fill="green" stroke="green" stroke-width="0.8" points="513.65,-46.86 509.93,-36.93 506.65,-47.01 513.65,-46.86"/>
</g>
<!-- 15&#45;&gt;26 -->
<g id="edge89" class="edge">
<title>15&#45;&gt;26</title>
<path fill="none" stroke="green" stroke-width="0.8" d="M2105.51,-154.75C2097.59,-136.96 2076.31,-94.58 2044.95,-72.77 1992.25,-36.11 1915.64,-24.61 1874.54,-21.02"/>
<polygon fill="green" stroke="green" stroke-width="0.8" points="1874.66,-17.52 1864.42,-20.23 1874.12,-24.49 1874.66,-17.52"/>
</g>
<!-- 15&#45;&gt;24 -->
<g id="edge90" class="edge">
<title>15&#45;&gt;24</title>
<path fill="none" stroke="green" stroke-width="0.8" d="M2095.82,-158.09C2083.81,-153.92 2065.44,-148.16 2048.95,-145.54 1988.78,-135.99 996.51,-152.13 952.95,-109.54 936.63,-93.58 937.26,-66.61 940.83,-46.31"/>
<polygon fill="green" stroke="green" stroke-width="0.8" points="944.28,-46.91 942.9,-36.4 937.43,-45.48 944.28,-46.91"/>
</g>
<!-- 15&#45;&gt;27 -->
<g id="edge123" class="edge">
<title>15&#45;&gt;27</title>
<path fill="none" stroke="green" stroke-width="0.8" d="M2117.19,-154.87C2121.29,-151.37 2126.52,-147.61 2131.95,-145.54 2318.21,-74.62 2387.91,-166.34 2578.95,-109.54 2581.58,-108.76 2584.25,-107.74 2586.86,-106.58"/>
<polygon fill="green" stroke="green" stroke-width="0.8" points="2588.55,-109.65 2595.89,-102.01 2585.39,-103.4 2588.55,-109.65"/>
</g>
<!-- 16 -->
<g id="node16" class="node">
<title>16</title>
<polygon fill="lightgray" stroke="black" points="1370.95,-100.15 1344.95,-100.15 1344.95,-82.15 1370.95,-82.15 1370.95,-100.15"/>
<text text-anchor="middle" x="1357.95" y="-88.95" font-family="Times,serif" font-size="9.00">16</text>
</g>
<!-- 16&#45;&gt;19 -->
<g id="edge91" class="edge">
<title>16&#45;&gt;19</title>
<path fill="none" stroke="green" stroke-width="0.8" d="M1366.33,-82.07C1370.2,-78.74 1375.03,-75.12 1379.95,-72.77 1450.55,-39.12 1543.16,-26.24 1589.27,-21.67"/>
<polygon fill="green" stroke="green" stroke-width="0.8" points="1589.8,-25.14 1599.43,-20.73 1589.15,-18.17 1589.8,-25.14"/>
</g>
<!-- 16&#45;&gt;20 -->
<g id="edge92" class="edge">
<title>16&#45;&gt;20</title>
<path fill="none" stroke="green" stroke-width="0.8" d="M1348.98,-82.04C1345.15,-78.86 1340.52,-75.36 1335.95,-72.77 1298.83,-51.74 1251.82,-35.85 1222.56,-27.08"/>
<polygon fill="green" stroke="green" stroke-width="0.8" points="1223.22,-23.62 1212.64,-24.17 1221.25,-30.34 1223.22,-23.62"/>
</g>
<!-- 16&#45;&gt;25 -->
<g id="edge93" class="edge">
<title>16&#45;&gt;25</title>
<path fill="none" stroke="green" stroke-width="0.8" d="M1365.75,-82.04C1369.66,-78.53 1374.67,-74.77 1379.95,-72.77 1423.51,-56.23 2136.7,-26.68 2289.34,-20.53"/>
<polygon fill="green" stroke="green" stroke-width="0.8" points="2289.49,-24.02 2299.35,-20.12 2289.21,-17.03 2289.49,-24.02"/>
</g>
<!-- 16&#45;&gt;28 -->
<g id="edge94" class="edge">
<title>16&#45;&gt;28</title>
<path fill="none" stroke="green" stroke-width="0.8" d="M1350.14,-82.06C1346.23,-78.55 1341.22,-74.79 1335.95,-72.77 1298,-58.19 680.86,-27.6 539.6,-20.76"/>
<polygon fill="green" stroke="green" stroke-width="0.8" points="539.7,-17.26 529.54,-20.27 539.36,-24.25 539.7,-17.26"/>
</g>
<!-- 16&#45;&gt;26 -->
<g id="edge95" class="edge">
<title>16&#45;&gt;26</title>
<path fill="none" stroke="green" stroke-width="0.8" d="M1366.22,-81.81C1370.07,-78.44 1374.91,-74.85 1379.95,-72.77 1420.49,-56.04 1722.85,-29.66 1817.62,-21.72"/>
<polygon fill="green" stroke="green" stroke-width="0.8" points="1817.96,-25.2 1827.63,-20.89 1817.37,-18.23 1817.96,-25.2"/>
</g>
<!-- 16&#45;&gt;24 -->
<g id="edge96" class="edge">
<title>16&#45;&gt;24</title>
<path fill="none" stroke="green" stroke-width="0.8" d="M1349.66,-81.87C1345.8,-78.5 1340.96,-74.91 1335.95,-72.77 1270.83,-45.03 1054.98,-27.1 976.66,-21.37"/>
<polygon fill="green" stroke="green" stroke-width="0.8" points="976.78,-17.87 966.55,-20.64 976.27,-24.85 976.78,-17.87"/>
</g>
<!-- 17 -->
<g id="node17" class="node">
<title>17</title>
<polygon fill="lightgray" stroke="black" points="1643.95,-172.92 1617.95,-172.92 1617.95,-154.92 1643.95,-154.92 1643.95,-172.92"/>
<text text-anchor="middle" x="1630.95" y="-161.72" font-family="Times,serif" font-size="9.00">17</text>
</g>
<!-- 17&#45;&gt;19 -->
<g id="edge97" class="edge">
<title>17&#45;&gt;19</title>
<path fill="none" stroke="green" stroke-width="0.8" d="M1630.21,-154.8C1628.36,-134.35 1623.44,-80.06 1620.43,-46.76"/>
<polygon fill="green" stroke="green" stroke-width="0.8" points="1623.91,-46.4 1619.52,-36.76 1616.94,-47.03 1623.91,-46.4"/>
</g>
<!-- 17&#45;&gt;20 -->
<g id="edge98" class="edge">
<title>17&#45;&gt;20</title>
<path fill="none" stroke="green" stroke-width="0.8" d="M1617.91,-162.37C1510.7,-157.78 778.29,-125.85 762.95,-109.54 751.75,-97.63 752.12,-85.01 762.95,-72.77 776.4,-57.55 1071.93,-30.24 1166.27,-21.88"/>
<polygon fill="green" stroke="green" stroke-width="0.8" points="1166.85,-25.35 1176.5,-20.98 1166.24,-18.37 1166.85,-25.35"/>
</g>
<!-- 17&#45;&gt;25 -->
<g id="edge99" class="edge">
<title>17&#45;&gt;25</title>
<path fill="none" stroke="green" stroke-width="0.8" d="M1638.75,-154.81C1642.65,-151.29 1647.67,-147.54 1652.95,-145.54 1721.64,-119.56 2260.99,-161.45 2312.95,-109.54 2329.1,-93.41 2328.49,-66.46 2324.97,-46.22"/>
<polygon fill="green" stroke="green" stroke-width="0.8" points="2328.38,-45.42 2322.93,-36.34 2321.52,-46.84 2328.38,-45.42"/>
</g>
<!-- 17&#45;&gt;28 -->
<g id="edge100" class="edge">
<title>17&#45;&gt;28</title>
<path fill="none" stroke="green" stroke-width="0.8" d="M1617.63,-162.42C1562.26,-160.31 1344.77,-152.07 1165.95,-145.54 1109.78,-143.49 193.98,-149.98 154.95,-109.54 143.6,-97.78 144.28,-85.15 154.95,-72.77 197.22,-23.68 404.48,-19.09 481.8,-19.12"/>
<polygon fill="green" stroke="green" stroke-width="0.8" points="482.21,-22.62 492.22,-19.15 482.24,-15.62 482.21,-22.62"/>
</g>
<!-- 17&#45;&gt;26 -->
<g id="edge101" class="edge">
<title>17&#45;&gt;26</title>
<path fill="none" stroke="green" stroke-width="0.8" d="M1639.35,-154.87C1643.22,-151.55 1648.04,-147.92 1652.95,-145.54 1714.62,-115.59 1749.67,-152.68 1802.95,-109.54 1822.46,-93.74 1833.65,-66.98 1839.7,-46.71"/>
<polygon fill="green" stroke="green" stroke-width="0.8" points="1843.15,-47.36 1842.41,-36.79 1836.4,-45.52 1843.15,-47.36"/>
</g>
<!-- 17&#45;&gt;24 -->
<g id="edge102" class="edge">
<title>17&#45;&gt;24</title>
<path fill="none" stroke="green" stroke-width="0.8" d="M1617.86,-162.44C1482.99,-157.48 350.77,-115.6 344.95,-109.54 333.64,-97.75 333.91,-84.82 344.95,-72.77 364.61,-51.3 802.07,-27 919.28,-20.85"/>
<polygon fill="green" stroke="green" stroke-width="0.8" points="919.79,-24.33 929.6,-20.32 919.43,-17.34 919.79,-24.33"/>
</g>
<!-- 17&#45;&gt;21 -->
<g id="edge118" class="edge">
<title>17&#45;&gt;21</title>
<path fill="none" stroke="green" stroke-width="0.8" d="M1639.28,-154.74C1643.15,-151.39 1647.98,-147.78 1652.95,-145.54 1665.2,-140.01 1849.28,-108.83 1920.81,-96.85"/>
<polygon fill="green" stroke="green" stroke-width="0.8" points="1921.62,-100.26 1930.9,-95.16 1920.46,-93.36 1921.62,-100.26"/>
</g>
<!-- 18 -->
<g id="node18" class="node">
<title>18</title>
<polygon fill="lightgray" stroke="black" points="1414.95,-100.15 1388.95,-100.15 1388.95,-82.15 1414.95,-82.15 1414.95,-100.15"/>
<text text-anchor="middle" x="1401.95" y="-88.95" font-family="Times,serif" font-size="9.00">18</text>
</g>
<!-- 18&#45;&gt;19 -->
<g id="edge103" class="edge">
<title>18&#45;&gt;19</title>
<path fill="none" stroke="green" stroke-width="0.8" d="M1411.26,-81.84C1415.25,-78.63 1420.1,-75.16 1424.95,-72.77 1480.09,-45.55 1551.16,-30.46 1589.83,-23.73"/>
<polygon fill="green" stroke="green" stroke-width="0.8" points="1590.56,-27.16 1599.84,-22.05 1589.4,-20.26 1590.56,-27.16"/>
</g>
<!-- 18&#45;&gt;20 -->
<g id="edge104" class="edge">
<title>18&#45;&gt;20</title>
<path fill="none" stroke="green" stroke-width="0.8" d="M1393.08,-81.85C1389.27,-78.64 1384.62,-75.17 1379.95,-72.77 1328,-46.06 1260.77,-30.94 1223.33,-24.03"/>
<polygon fill="green" stroke="green" stroke-width="0.8" points="1223.61,-20.53 1213.15,-22.22 1222.39,-27.42 1223.61,-20.53"/>
</g>
<!-- 18&#45;&gt;25 -->
<g id="edge105" class="edge">
<title>18&#45;&gt;25</title>
<path fill="none" stroke="green" stroke-width="0.8" d="M1410.17,-82.05C1414.27,-78.54 1419.5,-74.78 1424.95,-72.77 1466.44,-57.46 2141.18,-27.13 2289.34,-20.63"/>
<polygon fill="green" stroke="green" stroke-width="0.8" points="2289.61,-24.12 2299.45,-20.19 2289.31,-17.13 2289.61,-24.12"/>
</g>
<!-- 18&#45;&gt;28 -->
<g id="edge106" class="edge">
<title>18&#45;&gt;28</title>
<path fill="none" stroke="green" stroke-width="0.8" d="M1394.14,-82.05C1390.24,-78.54 1385.22,-74.79 1379.95,-72.77 1339.83,-57.44 685.72,-27.24 539.7,-20.67"/>
<polygon fill="green" stroke="green" stroke-width="0.8" points="539.49,-17.15 529.34,-20.2 539.18,-24.15 539.49,-17.15"/>
</g>
<!-- 18&#45;&gt;26 -->
<g id="edge107" class="edge">
<title>18&#45;&gt;26</title>
<path fill="none" stroke="green" stroke-width="0.8" d="M1410.67,-81.85C1414.71,-78.48 1419.76,-74.88 1424.95,-72.77 1461.3,-57.97 1728.88,-30.81 1817.52,-22.13"/>
<polygon fill="green" stroke="green" stroke-width="0.8" points="1818.03,-25.6 1827.65,-21.14 1817.35,-18.63 1818.03,-25.6"/>
</g>
<!-- 18&#45;&gt;24 -->
<g id="edge108" class="edge">
<title>18&#45;&gt;24</title>
<path fill="none" stroke="green" stroke-width="0.8" d="M1393.67,-81.84C1389.82,-78.46 1384.98,-74.87 1379.95,-72.77 1342.68,-57.19 1066.33,-30.4 976.25,-21.99"/>
<polygon fill="green" stroke="green" stroke-width="0.8" points="976.49,-18.5 966.21,-21.06 975.85,-25.47 976.49,-18.5"/>
</g>
<!-- 21&#45;&gt;20 -->
<g id="edge114" class="edge">
<title>21&#45;&gt;20</title>
<path fill="none" stroke="green" stroke-width="0.8" d="M1930.68,-88.44C1830.37,-79.02 1346.46,-33.61 1223.44,-22.06"/>
<polygon fill="green" stroke="green" stroke-width="0.8" points="1223.59,-18.56 1213.31,-21.11 1222.94,-25.53 1223.59,-18.56"/>
</g>
<!-- 21&#45;&gt;25 -->
<g id="edge110" class="edge">
<title>21&#45;&gt;25</title>
<path fill="none" stroke="green" stroke-width="0.8" d="M1967,-86.69C2026.59,-75.26 2217.4,-38.67 2289.76,-24.79"/>
<polygon fill="green" stroke="green" stroke-width="0.8" points="2290.77,-28.16 2299.94,-22.84 2289.46,-21.29 2290.77,-28.16"/>
</g>
<!-- 21&#45;&gt;26 -->
<g id="edge115" class="edge">
<title>21&#45;&gt;26</title>
<path fill="none" stroke="green" stroke-width="0.8" d="M1934.19,-80.01C1917.21,-68.35 1889.11,-49.04 1869.19,-35.35"/>
<polygon fill="green" stroke="green" stroke-width="0.8" points="1870.9,-32.28 1860.68,-29.51 1866.94,-38.05 1870.9,-32.28"/>
</g>
<!-- 22&#45;&gt;28 -->
<g id="edge125" class="edge">
<title>22&#45;&gt;28</title>
<path fill="none" stroke="green" stroke-width="0.8" d="M62.05,-80.44C67.22,-77.53 73.17,-74.62 78.95,-72.77 225.13,-25.9 411.32,-19.8 481.99,-19.28"/>
<polygon fill="green" stroke="green" stroke-width="0.8" points="482.33,-22.78 492.32,-19.24 482.3,-15.78 482.33,-22.78"/>
</g>
<!-- 23&#45;&gt;25 -->
<g id="edge122" class="edge">
<title>23&#45;&gt;25</title>
<path fill="none" stroke="green" stroke-width="0.8" d="M2629.4,-161.14C2686.83,-154.92 2855.41,-131.33 2802.95,-72.77 2772.34,-38.6 2446.24,-24.03 2346.66,-20.36"/>
<polygon fill="green" stroke="green" stroke-width="0.8" points="2346.57,-16.85 2336.45,-19.99 2346.31,-23.85 2346.57,-16.85"/>
</g>
<!-- 23&#45;&gt;27 -->
<g id="edge121" class="edge">
<title>23&#45;&gt;27</title>
<path fill="none" stroke="green" stroke-width="0.8" d="M2610.95,-145.43C2610.95,-137.75 2610.95,-128.54 2610.95,-119.95"/>
<polygon fill="green" stroke="green" stroke-width="0.8" points="2614.45,-119.94 2610.95,-109.94 2607.45,-119.94 2614.45,-119.94"/>
</g>
<!-- 27&#45;&gt;26 -->
<g id="edge113" class="edge">
<title>27&#45;&gt;26</title>
<path fill="none" stroke="green" stroke-width="0.8" d="M2593.57,-84.98C2579.5,-81 2559.12,-75.7 2540.95,-72.77 2284.68,-31.4 1969.91,-21.88 1874.61,-19.88"/>
<polygon fill="green" stroke="green" stroke-width="0.8" points="1874.4,-16.37 1864.34,-19.67 1874.27,-23.37 1874.4,-16.37"/>
</g>
</g>
</svg>
