<?xml version="1.0" encoding="UTF-8" standalone="no"?>
<!DOCTYPE svg PUBLIC "-//W3C//DTD SVG 1.1//EN"
 "http://www.w3.org/Graphics/SVG/1.1/DTD/svg11.dtd">
<!-- Generated by graphviz version 3.0.0 (20220226.1711)
 -->
<!-- Pages: 1 -->
<svg width="185pt" height="92pt"
 viewBox="0.00 0.00 185.00 91.70" xmlns="http://www.w3.org/2000/svg" xmlns:xlink="http://www.w3.org/1999/xlink">
<g id="graph0" class="graph" transform="scale(1 1) rotate(0) translate(4 87.7)">
<polygon fill="white" stroke="transparent" points="-4,4 -4,-87.7 181,-87.7 181,4 -4,4"/>
<!-- 1 -->
<g id="node1" class="node">
<title>1</title>
<polygon fill="lightgray" stroke="black" points="21,-83.7 0,-83.7 0,-65.7 21,-65.7 21,-83.7"/>
<text text-anchor="middle" x="10.5" y="-72.5" font-family="Times,serif" font-size="9.00">1</text>
</g>
<!-- 6 -->
<g id="node6" class="node">
<title>6</title>
<ellipse fill="lightblue" stroke="black" cx="88.5" cy="-14.85" rx="14.7" ry="14.7"/>
<text text-anchor="middle" x="88.5" y="-12.65" font-family="Times,serif" font-size="9.00">6</text>
</g>
<!-- 1&#45;&gt;6 -->
<g id="edge1" class="edge">
<title>1&#45;&gt;6</title>
<path fill="none" stroke="green" stroke-width="0.8" d="M21.02,-65.9C33.19,-56.87 53.48,-41.82 68.65,-30.57"/>
<polygon fill="green" stroke="green" stroke-width="0.8" points="70.93,-33.24 76.88,-24.47 66.76,-27.61 70.93,-33.24"/>
</g>
<!-- 2 -->
<g id="node2" class="node">
<title>2</title>
<polygon fill="lightgray" stroke="black" points="60,-83.7 39,-83.7 39,-65.7 60,-65.7 60,-83.7"/>
<text text-anchor="middle" x="49.5" y="-72.5" font-family="Times,serif" font-size="9.00">2</text>
</g>
<!-- 2&#45;&gt;6 -->
<g id="edge2" class="edge">
<title>2&#45;&gt;6</title>
<path fill="none" stroke="green" stroke-width="0.8" d="M54.92,-65.65C60.04,-58.07 67.92,-46.37 74.76,-36.22"/>
<polygon fill="green" stroke="green" stroke-width="0.8" points="77.73,-38.09 80.41,-27.84 71.92,-34.18 77.73,-38.09"/>
</g>
<!-- 3 -->
<g id="node3" class="node">
<title>3</title>
<polygon fill="lightgray" stroke="black" points="99,-83.7 78,-83.7 78,-65.7 99,-65.7 99,-83.7"/>
<text text-anchor="middle" x="88.5" y="-72.5" font-family="Times,serif" font-size="9.00">3</text>
</g>
<!-- 3&#45;&gt;6 -->
<g id="edge3" class="edge">
<title>3&#45;&gt;6</title>
<path fill="none" stroke="green" stroke-width="0.8" d="M88.5,-65.65C88.5,-59.05 88.5,-49.33 88.5,-40.23"/>
<polygon fill="green" stroke="green" stroke-width="0.8" points="92,-40.06 88.5,-30.06 85,-40.06 92,-40.06"/>
</g>
<!-- 4 -->
<g id="node4" class="node">
<title>4</title>
<polygon fill="lightgray" stroke="black" points="138,-83.7 117,-83.7 117,-65.7 138,-65.7 138,-83.7"/>
<text text-anchor="middle" x="127.5" y="-72.5" font-family="Times,serif" font-size="9.00">4</text>
</g>
<!-- 4&#45;&gt;6 -->
<g id="edge4" class="edge">
<title>4&#45;&gt;6</title>
<path fill="none" stroke="green" stroke-width="0.8" d="M122.08,-65.65C116.96,-58.07 109.08,-46.37 102.24,-36.22"/>
<polygon fill="green" stroke="green" stroke-width="0.8" points="105.08,-34.18 96.59,-27.84 99.27,-38.09 105.08,-34.18"/>
</g>
<!-- 5 -->
<g id="node5" class="node">
<title>5</title>
<polygon fill="lightgray" stroke="black" points="177,-83.7 156,-83.7 156,-65.7 177,-65.7 177,-83.7"/>
<text text-anchor="middle" x="166.5" y="-72.5" font-family="Times,serif" font-size="9.00">5</text>
</g>
<!-- 5&#45;&gt;6 -->
<g id="edge5" class="edge">
<title>5&#45;&gt;6</title>
<path fill="none" stroke="green" stroke-width="0.8" d="M155.98,-65.9C143.81,-56.87 123.52,-41.82 108.35,-30.57"/>
<polygon fill="green" stroke="green" stroke-width="0.8" points="110.24,-27.61 100.12,-24.47 106.07,-33.24 110.24,-27.61"/>
</g>
</g>
</svg>
